%TF.GenerationSoftware,KiCad,Pcbnew,10.0.3*%
%TF.CreationDate,2026-08-23T17:00:26-04:00*%
%TF.ProjectId,unflying-fish-controller,756e666c-7969-46e6-972d-666973682d63,rev?*%
%TF.SameCoordinates,Original*%
%TF.FileFunction,Paste,Top*%
%TF.FilePolarity,Positive*%
%FSLAX46Y46*%
G04 Gerber Fmt 4.6, Leading zero omitted, Abs format (unit mm)*
G04 Created by KiCad (PCBNEW 10.0.3) date 2026-08-23 17:00:26*
%MOMM*%
%LPD*%
G01*
G04 APERTURE LIST*
%ADD10R,1.981200X0.558800*%
%ADD11R,1.473200X0.355600*%
%ADD12R,0.576580X0.351536*%
%ADD13R,0.351536X0.576580*%
%ADD14R,0.762000X1.803400*%
%ADD15R,1.498600X1.498600*%
%ADD16R,1.549400X0.838200*%
%ADD17R,1.549400X1.041400*%
%ADD18R,1.041400X1.549400*%
G04 APERTURE END LIST*
D10*
%TO.C,U3*%
X191136200Y-122190000D03*
X191136200Y-123460000D03*
X191136200Y-124730000D03*
X191136200Y-126000000D03*
X191136200Y-127270000D03*
X191136200Y-128540000D03*
X191136200Y-129810000D03*
X196063800Y-129810000D03*
X196063800Y-128540000D03*
X196063800Y-127270000D03*
X196063800Y-126000000D03*
X196063800Y-124730000D03*
X196063800Y-123460000D03*
X196063800Y-122190000D03*
%TD*%
D11*
%TO.C,U4*%
X173579000Y-64725001D03*
X173579000Y-65374999D03*
X173579000Y-66025001D03*
X173579000Y-66674999D03*
X173579000Y-67324998D03*
X173579000Y-67974999D03*
X173579000Y-68624998D03*
X173579000Y-69274999D03*
X179421000Y-69274999D03*
X179421000Y-68625001D03*
X179421000Y-67974999D03*
X179421000Y-67325001D03*
X179421000Y-66675002D03*
X179421000Y-66025001D03*
X179421000Y-65375002D03*
X179421000Y-64725001D03*
%TD*%
D12*
%TO.C,U2*%
X157389700Y-91249999D03*
X157389700Y-91750000D03*
X157389700Y-92250000D03*
X157389700Y-92750001D03*
D13*
X158100001Y-92956300D03*
X158600000Y-92956300D03*
X159099999Y-92956300D03*
D12*
X159810300Y-92750001D03*
X159810300Y-92250000D03*
X159810300Y-91750000D03*
X159810300Y-91249999D03*
D13*
X159099999Y-91043700D03*
X158600000Y-91043700D03*
X158100001Y-91043700D03*
%TD*%
D14*
%TO.C,J13*%
X179150712Y-112270701D03*
X178050711Y-112270701D03*
X176950711Y-112270701D03*
X175850711Y-112270701D03*
X174750713Y-112270701D03*
X173650713Y-112270701D03*
X172550712Y-112270701D03*
X171450712Y-112270701D03*
D15*
X169975000Y-112118301D03*
X181225000Y-112118301D03*
D16*
X169644792Y-105293702D03*
X181555208Y-104643701D03*
D17*
X170000316Y-103539700D03*
D18*
X181154294Y-102218702D03*
%TD*%
M02*
