ISO-10303-21;
HEADER;
/* Generated by software containing ST-Developer
 * from STEP Tools, Inc. (www.steptools.com) 
 */
/* OPTION: using custom renumber hook */

FILE_DESCRIPTION(
/* description */ ('STEP AP242 Edition 2',
'CAx-IF Rec.Pracs.---Representation and Presentation of Product Manufa
cturing Information (PMI)---4.0---2014-10-13',
'CAx-IF Rec.Pracs.---3D Tessellated Geometry---0.4---2014-09-14','2;1',
'CAx-IF Rec.Pracs.---User Defined Attributes---1.5---2016-08-15'),
/* implementation_level */ '2;1');

FILE_NAME(
/* name */ 'Antenna Tower V2 - Antenna Cap V2',
/* time_stamp */ '2026-08-23T20:24:15Z',
/* author */ (''),
/* organization */ (''),
/* preprocessor_version */ 'ST-DEVELOPER v20',
/* originating_system */ 'ONSHAPE BY PTC INC, 1.219',
/* authorisation */ '  ');

FILE_SCHEMA (('AP242_MANAGED_MODEL_BASED_3D_ENGINEERING_MIM_LF { 1 0 10303 442 3 1 4 }'));
ENDSEC;

DATA;
#10=SHAPE_REPRESENTATION_RELATIONSHIP('','',#210,#11);
#11=ADVANCED_BREP_SHAPE_REPRESENTATION('',(#208),#396);
#12=B_SPLINE_CURVE_WITH_KNOTS('',3,(#326,#327,#328,#329,#330),
 .UNSPECIFIED.,.F.,.F.,(4,1,4),(0.,0.434113495788509,1.),.UNSPECIFIED.);
#13=B_SPLINE_CURVE_WITH_KNOTS('',3,(#334,#335,#336,#337,#338),
 .UNSPECIFIED.,.F.,.F.,(4,1,4),(0.,0.434113495788509,1.),.UNSPECIFIED.);
#14=B_SPLINE_CURVE_WITH_KNOTS('',3,(#363,#364,#365,#366,#367),
 .UNSPECIFIED.,.F.,.F.,(4,1,4),(0.,0.434113495788509,1.),.UNSPECIFIED.);
#15=B_SPLINE_CURVE_WITH_KNOTS('',3,(#368,#369,#370,#371,#372),
 .UNSPECIFIED.,.F.,.F.,(4,1,4),(0.,0.434113495788509,1.),.UNSPECIFIED.);
#16=B_SPLINE_SURFACE_WITH_KNOTS('',3,1,((#302,#303),(#304,#305),(#306,#307),
(#308,#309),(#310,#311),(#312,#313),(#314,#315),(#316,#317),(#318,#319),
(#320,#321),(#322,#323),(#324,#325)),.SURF_OF_LINEAR_EXTRUSION.,.F.,.F.,
 .F.,(4,1,1,1,1,1,1,1,1,4),(2,2),(0.,0.125,0.25,0.375,0.4375,0.5,0.625,
0.75,0.875,1.),(0.,1.),.UNSPECIFIED.);
#17=B_SPLINE_SURFACE_WITH_KNOTS('',3,1,((#339,#340),(#341,#342),(#343,#344),
(#345,#346),(#347,#348),(#349,#350),(#351,#352),(#353,#354),(#355,#356),
(#357,#358),(#359,#360),(#361,#362)),.SURF_OF_LINEAR_EXTRUSION.,.F.,.F.,
 .F.,(4,1,1,1,1,1,1,1,1,4),(2,2),(0.,0.125,0.25,0.375,0.4375,0.5,0.625,
0.75,0.875,1.),(0.,1.),.UNSPECIFIED.);
#18=CIRCLE('',#214,0.0225);
#19=CIRCLE('',#215,0.0225);
#20=CIRCLE('',#218,0.002);
#21=CIRCLE('',#219,0.002);
#22=CIRCLE('',#220,0.002);
#23=CIRCLE('',#221,0.002);
#24=CIRCLE('',#223,0.002);
#25=CIRCLE('',#224,0.002);
#26=CIRCLE('',#225,0.002);
#27=CIRCLE('',#226,0.002);
#28=CYLINDRICAL_SURFACE('',#213,0.0225);
#29=CYLINDRICAL_SURFACE('',#227,0.002);
#30=CYLINDRICAL_SURFACE('',#228,0.002);
#31=CYLINDRICAL_SURFACE('',#229,0.002);
#32=CYLINDRICAL_SURFACE('',#230,0.002);
#33=ORIENTED_EDGE('',*,*,#79,.F.);
#34=ORIENTED_EDGE('',*,*,#80,.F.);
#35=ORIENTED_EDGE('',*,*,#81,.T.);
#36=ORIENTED_EDGE('',*,*,#82,.T.);
#37=ORIENTED_EDGE('',*,*,#83,.T.);
#38=ORIENTED_EDGE('',*,*,#84,.F.);
#39=ORIENTED_EDGE('',*,*,#85,.F.);
#40=ORIENTED_EDGE('',*,*,#80,.T.);
#41=ORIENTED_EDGE('',*,*,#86,.T.);
#42=ORIENTED_EDGE('',*,*,#87,.F.);
#43=ORIENTED_EDGE('',*,*,#88,.F.);
#44=ORIENTED_EDGE('',*,*,#84,.T.);
#45=ORIENTED_EDGE('',*,*,#89,.T.);
#46=ORIENTED_EDGE('',*,*,#90,.F.);
#47=ORIENTED_EDGE('',*,*,#91,.F.);
#48=ORIENTED_EDGE('',*,*,#87,.T.);
#49=ORIENTED_EDGE('',*,*,#92,.F.);
#50=ORIENTED_EDGE('',*,*,#82,.F.);
#51=ORIENTED_EDGE('',*,*,#93,.T.);
#52=ORIENTED_EDGE('',*,*,#90,.T.);
#53=ORIENTED_EDGE('',*,*,#94,.T.);
#54=ORIENTED_EDGE('',*,*,#95,.T.);
#55=ORIENTED_EDGE('',*,*,#96,.T.);
#56=ORIENTED_EDGE('',*,*,#97,.T.);
#57=ORIENTED_EDGE('',*,*,#81,.F.);
#58=ORIENTED_EDGE('',*,*,#85,.T.);
#59=ORIENTED_EDGE('',*,*,#88,.T.);
#60=ORIENTED_EDGE('',*,*,#91,.T.);
#61=ORIENTED_EDGE('',*,*,#93,.F.);
#62=ORIENTED_EDGE('',*,*,#98,.T.);
#63=ORIENTED_EDGE('',*,*,#99,.T.);
#64=ORIENTED_EDGE('',*,*,#100,.T.);
#65=ORIENTED_EDGE('',*,*,#101,.T.);
#66=ORIENTED_EDGE('',*,*,#79,.T.);
#67=ORIENTED_EDGE('',*,*,#92,.T.);
#68=ORIENTED_EDGE('',*,*,#89,.F.);
#69=ORIENTED_EDGE('',*,*,#86,.F.);
#70=ORIENTED_EDGE('',*,*,#83,.F.);
#71=ORIENTED_EDGE('',*,*,#97,.F.);
#72=ORIENTED_EDGE('',*,*,#101,.F.);
#73=ORIENTED_EDGE('',*,*,#96,.F.);
#74=ORIENTED_EDGE('',*,*,#100,.F.);
#75=ORIENTED_EDGE('',*,*,#95,.F.);
#76=ORIENTED_EDGE('',*,*,#99,.F.);
#77=ORIENTED_EDGE('',*,*,#94,.F.);
#78=ORIENTED_EDGE('',*,*,#98,.F.);
#79=EDGE_CURVE('',#102,#103,#120,.T.);
#80=EDGE_CURVE('',#104,#102,#121,.T.);
#81=EDGE_CURVE('',#104,#105,#122,.T.);
#82=EDGE_CURVE('',#105,#103,#123,.T.);
#83=EDGE_CURVE('',#102,#106,#18,.T.);
#84=EDGE_CURVE('',#107,#106,#124,.T.);
#85=EDGE_CURVE('',#104,#107,#19,.T.);
#86=EDGE_CURVE('',#106,#108,#125,.T.);
#87=EDGE_CURVE('',#109,#108,#126,.T.);
#88=EDGE_CURVE('',#107,#109,#127,.T.);
#89=EDGE_CURVE('',#108,#110,#12,.T.);
#90=EDGE_CURVE('',#111,#110,#128,.T.);
#91=EDGE_CURVE('',#109,#111,#13,.T.);
#92=EDGE_CURVE('',#103,#110,#14,.T.);
#93=EDGE_CURVE('',#105,#111,#15,.T.);
#94=EDGE_CURVE('',#112,#112,#20,.F.);
#95=EDGE_CURVE('',#113,#113,#21,.F.);
#96=EDGE_CURVE('',#114,#114,#22,.F.);
#97=EDGE_CURVE('',#115,#115,#23,.F.);
#98=EDGE_CURVE('',#116,#116,#24,.T.);
#99=EDGE_CURVE('',#117,#117,#25,.T.);
#100=EDGE_CURVE('',#118,#118,#26,.T.);
#101=EDGE_CURVE('',#119,#119,#27,.T.);
#102=VERTEX_POINT('',#283);
#103=VERTEX_POINT('',#284);
#104=VERTEX_POINT('',#286);
#105=VERTEX_POINT('',#288);
#106=VERTEX_POINT('',#292);
#107=VERTEX_POINT('',#294);
#108=VERTEX_POINT('',#298);
#109=VERTEX_POINT('',#300);
#110=VERTEX_POINT('',#331);
#111=VERTEX_POINT('',#333);
#112=VERTEX_POINT('',#375);
#113=VERTEX_POINT('',#377);
#114=VERTEX_POINT('',#379);
#115=VERTEX_POINT('',#381);
#116=VERTEX_POINT('',#384);
#117=VERTEX_POINT('',#386);
#118=VERTEX_POINT('',#388);
#119=VERTEX_POINT('',#390);
#120=LINE('',#282,#129);
#121=LINE('',#285,#130);
#122=LINE('',#287,#131);
#123=LINE('',#289,#132);
#124=LINE('',#293,#133);
#125=LINE('',#297,#134);
#126=LINE('',#299,#135);
#127=LINE('',#301,#136);
#128=LINE('',#332,#137);
#129=VECTOR('',#235,1.);
#130=VECTOR('',#236,1.);
#131=VECTOR('',#237,1.);
#132=VECTOR('',#238,1.);
#133=VECTOR('',#243,1.);
#134=VECTOR('',#248,1.);
#135=VECTOR('',#249,1.);
#136=VECTOR('',#250,1.);
#137=VECTOR('',#251,1.);
#138=EDGE_LOOP('',(#33,#34,#35,#36));
#139=EDGE_LOOP('',(#37,#38,#39,#40));
#140=EDGE_LOOP('',(#41,#42,#43,#44));
#141=EDGE_LOOP('',(#45,#46,#47,#48));
#142=EDGE_LOOP('',(#49,#50,#51,#52));
#143=EDGE_LOOP('',(#53));
#144=EDGE_LOOP('',(#54));
#145=EDGE_LOOP('',(#55));
#146=EDGE_LOOP('',(#56));
#147=EDGE_LOOP('',(#57,#58,#59,#60,#61));
#148=EDGE_LOOP('',(#62));
#149=EDGE_LOOP('',(#63));
#150=EDGE_LOOP('',(#64));
#151=EDGE_LOOP('',(#65));
#152=EDGE_LOOP('',(#66,#67,#68,#69,#70));
#153=EDGE_LOOP('',(#71));
#154=EDGE_LOOP('',(#72));
#155=EDGE_LOOP('',(#73));
#156=EDGE_LOOP('',(#74));
#157=EDGE_LOOP('',(#75));
#158=EDGE_LOOP('',(#76));
#159=EDGE_LOOP('',(#77));
#160=EDGE_LOOP('',(#78));
#161=FACE_BOUND('',#138,.T.);
#162=FACE_BOUND('',#139,.T.);
#163=FACE_BOUND('',#140,.T.);
#164=FACE_BOUND('',#141,.T.);
#165=FACE_BOUND('',#142,.T.);
#166=FACE_BOUND('',#143,.T.);
#167=FACE_BOUND('',#144,.T.);
#168=FACE_BOUND('',#145,.T.);
#169=FACE_BOUND('',#146,.T.);
#170=FACE_BOUND('',#147,.T.);
#171=FACE_BOUND('',#148,.T.);
#172=FACE_BOUND('',#149,.T.);
#173=FACE_BOUND('',#150,.T.);
#174=FACE_BOUND('',#151,.T.);
#175=FACE_BOUND('',#152,.T.);
#176=FACE_BOUND('',#153,.T.);
#177=FACE_BOUND('',#154,.T.);
#178=FACE_BOUND('',#155,.T.);
#179=FACE_BOUND('',#156,.T.);
#180=FACE_BOUND('',#157,.T.);
#181=FACE_BOUND('',#158,.T.);
#182=FACE_BOUND('',#159,.T.);
#183=FACE_BOUND('',#160,.T.);
#184=PLANE('',#212);
#185=PLANE('',#216);
#186=PLANE('',#217);
#187=PLANE('',#222);
#188=ADVANCED_FACE('',(#161),#184,.T.);
#189=ADVANCED_FACE('',(#162),#28,.T.);
#190=ADVANCED_FACE('',(#163),#185,.F.);
#191=ADVANCED_FACE('',(#164),#16,.F.);
#192=ADVANCED_FACE('',(#165),#17,.T.);
#193=ADVANCED_FACE('',(#166,#167,#168,#169,#170),#186,.T.);
#194=ADVANCED_FACE('',(#171,#172,#173,#174,#175),#187,.F.);
#195=ADVANCED_FACE('',(#176,#177),#29,.F.);
#196=ADVANCED_FACE('',(#178,#179),#30,.F.);
#197=ADVANCED_FACE('',(#180,#181),#31,.F.);
#198=ADVANCED_FACE('',(#182,#183),#32,.F.);
#199=CLOSED_SHELL('',(#188,#189,#190,#191,#192,#193,#194,#195,#196,#197,
#198));
#200=STYLED_ITEM('',(#201),#208);
#201=PRESENTATION_STYLE_ASSIGNMENT((#202));
#202=SURFACE_STYLE_USAGE(.BOTH.,#203);
#203=SURFACE_SIDE_STYLE('',(#204));
#204=SURFACE_STYLE_FILL_AREA(#205);
#205=FILL_AREA_STYLE('',(#206));
#206=FILL_AREA_STYLE_COLOUR('',#207);
#207=COLOUR_RGB('',0.231372549019608,0.380392156862745,0.705882352941177);
#208=MANIFOLD_SOLID_BREP('Antenna Cap V2',#199);
#209=SHAPE_DEFINITION_REPRESENTATION(#401,#210);
#210=SHAPE_REPRESENTATION('Antenna Cap V2',(#211),#396);
#211=AXIS2_PLACEMENT_3D('',#280,#231,#232);
#212=AXIS2_PLACEMENT_3D('',#281,#233,#234);
#213=AXIS2_PLACEMENT_3D('',#290,#239,#240);
#214=AXIS2_PLACEMENT_3D('',#291,#241,#242);
#215=AXIS2_PLACEMENT_3D('',#295,#244,#245);
#216=AXIS2_PLACEMENT_3D('',#296,#246,#247);
#217=AXIS2_PLACEMENT_3D('',#373,#252,#253);
#218=AXIS2_PLACEMENT_3D('',#374,#254,#255);
#219=AXIS2_PLACEMENT_3D('',#376,#256,#257);
#220=AXIS2_PLACEMENT_3D('',#378,#258,#259);
#221=AXIS2_PLACEMENT_3D('',#380,#260,#261);
#222=AXIS2_PLACEMENT_3D('',#382,#262,#263);
#223=AXIS2_PLACEMENT_3D('',#383,#264,#265);
#224=AXIS2_PLACEMENT_3D('',#385,#266,#267);
#225=AXIS2_PLACEMENT_3D('',#387,#268,#269);
#226=AXIS2_PLACEMENT_3D('',#389,#270,#271);
#227=AXIS2_PLACEMENT_3D('',#391,#272,#273);
#228=AXIS2_PLACEMENT_3D('',#392,#274,#275);
#229=AXIS2_PLACEMENT_3D('',#393,#276,#277);
#230=AXIS2_PLACEMENT_3D('',#394,#278,#279);
#231=DIRECTION('',(0.,0.,1.));
#232=DIRECTION('',(1.,0.,0.));
#233=DIRECTION('',(0.,1.,0.));
#234=DIRECTION('',(0.,0.,1.));
#235=DIRECTION('',(1.,0.,0.));
#236=DIRECTION('',(0.,0.,-1.));
#237=DIRECTION('',(1.,0.,0.));
#238=DIRECTION('',(0.,0.,-1.));
#239=DIRECTION('',(0.,0.,-1.));
#240=DIRECTION('',(-1.,0.,0.));
#241=DIRECTION('',(0.,0.,1.));
#242=DIRECTION('',(1.,0.,0.));
#243=DIRECTION('',(0.,0.,-1.));
#244=DIRECTION('',(0.,0.,1.));
#245=DIRECTION('',(1.,0.,0.));
#246=DIRECTION('',(0.,1.,0.));
#247=DIRECTION('',(0.,0.,1.));
#248=DIRECTION('',(1.,0.,0.));
#249=DIRECTION('',(0.,0.,-1.));
#250=DIRECTION('',(1.,0.,0.));
#251=DIRECTION('',(0.,0.,-1.));
#252=DIRECTION('',(0.,0.,1.));
#253=DIRECTION('',(1.,0.,0.));
#254=DIRECTION('',(0.,0.,1.));
#255=DIRECTION('',(1.,0.,0.));
#256=DIRECTION('',(0.,0.,1.));
#257=DIRECTION('',(1.,0.,0.));
#258=DIRECTION('',(0.,0.,1.));
#259=DIRECTION('',(1.,0.,0.));
#260=DIRECTION('',(0.,0.,1.));
#261=DIRECTION('',(1.,0.,0.));
#262=DIRECTION('',(0.,0.,1.));
#263=DIRECTION('',(1.,0.,0.));
#264=DIRECTION('',(0.,0.,1.));
#265=DIRECTION('',(1.,0.,0.));
#266=DIRECTION('',(0.,0.,1.));
#267=DIRECTION('',(1.,0.,0.));
#268=DIRECTION('',(0.,0.,1.));
#269=DIRECTION('',(1.,0.,0.));
#270=DIRECTION('',(0.,0.,1.));
#271=DIRECTION('',(1.,0.,0.));
#272=DIRECTION('',(0.,0.,-1.));
#273=DIRECTION('',(-1.,0.,0.));
#274=DIRECTION('',(0.,0.,-1.));
#275=DIRECTION('',(-1.,0.,0.));
#276=DIRECTION('',(0.,0.,-1.));
#277=DIRECTION('',(-1.,0.,0.));
#278=DIRECTION('',(0.,0.,-1.));
#279=DIRECTION('',(-1.,0.,0.));
#280=CARTESIAN_POINT('',(0.,0.,0.));
#281=CARTESIAN_POINT('',(0.0485848553478238,0.0225,0.008));
#282=CARTESIAN_POINT('',(0.0485848553478238,0.0225,0.));
#283=CARTESIAN_POINT('',(0.0375,0.0225,0.));
#284=CARTESIAN_POINT('',(0.059669710695648,0.0225,0.));
#285=CARTESIAN_POINT('',(0.0375,0.0225,0.008));
#286=CARTESIAN_POINT('',(0.0375,0.0225,0.008));
#287=CARTESIAN_POINT('',(0.0485848553478238,0.0225,0.008));
#288=CARTESIAN_POINT('',(0.059669710695648,0.0225,0.008));
#289=CARTESIAN_POINT('',(0.059669710695648,0.0225,0.008));
#290=CARTESIAN_POINT('',(0.0375,0.,0.008));
#291=CARTESIAN_POINT('',(0.0375,0.,0.));
#292=CARTESIAN_POINT('',(0.0375,-0.0225,0.));
#293=CARTESIAN_POINT('',(0.0375,-0.0225,0.008));
#294=CARTESIAN_POINT('',(0.0375,-0.0225,0.008));
#295=CARTESIAN_POINT('',(0.0375,0.,0.008));
#296=CARTESIAN_POINT('',(0.0485848553478238,-0.0225,0.008));
#297=CARTESIAN_POINT('',(0.0485848553478238,-0.0225,0.));
#298=CARTESIAN_POINT('',(0.059669710695648,-0.0225,0.));
#299=CARTESIAN_POINT('',(0.059669710695648,-0.0225,0.008));
#300=CARTESIAN_POINT('',(0.059669710695648,-0.0225,0.008));
#301=CARTESIAN_POINT('',(0.0485848553478238,-0.0225,0.008));
#302=CARTESIAN_POINT('',(0.059669710695648,-0.0225,0.008));
#303=CARTESIAN_POINT('',(0.059669710695648,-0.0225,0.));
#304=CARTESIAN_POINT('',(0.0637669542535376,-0.0225,0.008));
#305=CARTESIAN_POINT('',(0.0637669542535376,-0.0225,0.));
#306=CARTESIAN_POINT('',(0.0703151729968293,-0.0223168279104377,0.008));
#307=CARTESIAN_POINT('',(0.0703151729968293,-0.0223168279104377,1.73472347597681E-18));
#308=CARTESIAN_POINT('',(0.0770307163319917,-0.0214877886444631,0.008));
#309=CARTESIAN_POINT('',(0.0770307163319917,-0.0214877886444631,0.));
#310=CARTESIAN_POINT('',(0.0815626135812069,-0.0203307504965621,0.008));
#311=CARTESIAN_POINT('',(0.0815626135812069,-0.0203307504965621,0.));
#312=CARTESIAN_POINT('',(0.0854686359738912,-0.0191234849371802,0.008));
#313=CARTESIAN_POINT('',(0.0854686359738912,-0.0191234849371802,0.));
#314=CARTESIAN_POINT('',(0.0898551634120351,-0.0177259633867716,0.008));
#315=CARTESIAN_POINT('',(0.0898551634120351,-0.0177259633867716,0.));
#316=CARTESIAN_POINT('',(0.0961616356120754,-0.015527170002746,0.008));
#317=CARTESIAN_POINT('',(0.0961616356120754,-0.015527170002746,1.73472347597681E-18));
#318=CARTESIAN_POINT('',(0.104863163532504,-0.0118704242651142,0.008));
#319=CARTESIAN_POINT('',(0.104863163532504,-0.0118704242651142,1.73472347597681E-18));
#320=CARTESIAN_POINT('',(0.114507562040213,-0.00689925830551864,0.008));
#321=CARTESIAN_POINT('',(0.114507562040213,-0.00689925830551864,0.));
#322=CARTESIAN_POINT('',(0.12143980044424,-0.00251157326395787,0.008));
#323=CARTESIAN_POINT('',(0.12143980044424,-0.00251157326395787,0.));
#324=CARTESIAN_POINT('',(0.125,0.,0.008));
#325=CARTESIAN_POINT('',(0.125,0.,0.));
#326=CARTESIAN_POINT('',(0.059669710695648,-0.0225,0.));
#327=CARTESIAN_POINT('',(0.0738990604877472,-0.0225,0.));
#328=CARTESIAN_POINT('',(0.0838086203121738,-0.0199555798796061,0.));
#329=CARTESIAN_POINT('',(0.108882648952764,-0.0113701233152973,0.));
#330=CARTESIAN_POINT('',(0.125,0.,0.));
#331=CARTESIAN_POINT('',(0.125,0.,0.));
#332=CARTESIAN_POINT('',(0.125,0.,0.008));
#333=CARTESIAN_POINT('',(0.125,0.,0.008));
#334=CARTESIAN_POINT('',(0.059669710695648,-0.0225,0.008));
#335=CARTESIAN_POINT('',(0.0738990604877472,-0.0225,0.008));
#336=CARTESIAN_POINT('',(0.0838086203121738,-0.0199555798796061,0.008));
#337=CARTESIAN_POINT('',(0.108882648952764,-0.0113701233152973,0.008));
#338=CARTESIAN_POINT('',(0.125,0.,0.008));
#339=CARTESIAN_POINT('',(0.059669710695648,0.0225,0.008));
#340=CARTESIAN_POINT('',(0.059669710695648,0.0225,0.));
#341=CARTESIAN_POINT('',(0.0637669542535376,0.0225,0.008));
#342=CARTESIAN_POINT('',(0.0637669542535376,0.0225,0.));
#343=CARTESIAN_POINT('',(0.0703151729968293,0.0223168279104377,0.008));
#344=CARTESIAN_POINT('',(0.0703151729968293,0.0223168279104377,1.73472347597681E-18));
#345=CARTESIAN_POINT('',(0.0770307163319917,0.0214877886444631,0.008));
#346=CARTESIAN_POINT('',(0.0770307163319917,0.0214877886444631,0.));
#347=CARTESIAN_POINT('',(0.0815626135812069,0.0203307504965621,0.008));
#348=CARTESIAN_POINT('',(0.0815626135812069,0.0203307504965621,0.));
#349=CARTESIAN_POINT('',(0.0854686359738912,0.0191234849371802,0.008));
#350=CARTESIAN_POINT('',(0.0854686359738912,0.0191234849371802,0.));
#351=CARTESIAN_POINT('',(0.0898551634120351,0.0177259633867716,0.008));
#352=CARTESIAN_POINT('',(0.0898551634120351,0.0177259633867716,0.));
#353=CARTESIAN_POINT('',(0.0961616356120754,0.015527170002746,0.008));
#354=CARTESIAN_POINT('',(0.0961616356120754,0.015527170002746,1.73472347597681E-18));
#355=CARTESIAN_POINT('',(0.104863163532504,0.0118704242651142,0.008));
#356=CARTESIAN_POINT('',(0.104863163532504,0.0118704242651142,1.73472347597681E-18));
#357=CARTESIAN_POINT('',(0.114507562040213,0.00689925830551864,0.008));
#358=CARTESIAN_POINT('',(0.114507562040213,0.00689925830551864,0.));
#359=CARTESIAN_POINT('',(0.12143980044424,0.00251157326395787,0.008));
#360=CARTESIAN_POINT('',(0.12143980044424,0.00251157326395787,0.));
#361=CARTESIAN_POINT('',(0.125,0.,0.008));
#362=CARTESIAN_POINT('',(0.125,0.,0.));
#363=CARTESIAN_POINT('',(0.059669710695648,0.0225,0.));
#364=CARTESIAN_POINT('',(0.0738990604877472,0.0225,0.));
#365=CARTESIAN_POINT('',(0.0838086203121738,0.0199555798796061,0.));
#366=CARTESIAN_POINT('',(0.108882648952764,0.0113701233152973,0.));
#367=CARTESIAN_POINT('',(0.125,0.,0.));
#368=CARTESIAN_POINT('',(0.059669710695648,0.0225,0.008));
#369=CARTESIAN_POINT('',(0.0738990604877472,0.0225,0.008));
#370=CARTESIAN_POINT('',(0.0838086203121738,0.0199555798796061,0.008));
#371=CARTESIAN_POINT('',(0.108882648952764,0.0113701233152973,0.008));
#372=CARTESIAN_POINT('',(0.125,0.,0.008));
#373=CARTESIAN_POINT('',(0.0632421360933222,0.,0.008));
#374=CARTESIAN_POINT('',(0.028,-0.014,0.008));
#375=CARTESIAN_POINT('',(0.03,-0.014,0.008));
#376=CARTESIAN_POINT('',(0.09,-0.012,0.008));
#377=CARTESIAN_POINT('',(0.092,-0.012,0.008));
#378=CARTESIAN_POINT('',(0.09,0.012,0.008));
#379=CARTESIAN_POINT('',(0.092,0.012,0.008));
#380=CARTESIAN_POINT('',(0.028,0.014,0.008));
#381=CARTESIAN_POINT('',(0.03,0.014,0.008));
#382=CARTESIAN_POINT('',(0.0632421360933222,0.,0.));
#383=CARTESIAN_POINT('',(0.028,-0.014,0.));
#384=CARTESIAN_POINT('',(0.03,-0.014,0.));
#385=CARTESIAN_POINT('',(0.09,-0.012,0.));
#386=CARTESIAN_POINT('',(0.092,-0.012,0.));
#387=CARTESIAN_POINT('',(0.09,0.012,0.));
#388=CARTESIAN_POINT('',(0.092,0.012,0.));
#389=CARTESIAN_POINT('',(0.028,0.014,0.));
#390=CARTESIAN_POINT('',(0.03,0.014,0.));
#391=CARTESIAN_POINT('',(0.028,0.014,0.025));
#392=CARTESIAN_POINT('',(0.09,0.012,0.025));
#393=CARTESIAN_POINT('',(0.09,-0.012,0.025));
#394=CARTESIAN_POINT('',(0.028,-0.014,0.025));
#395=MECHANICAL_DESIGN_GEOMETRIC_PRESENTATION_REPRESENTATION('',(#200),
#396);
#396=(
GEOMETRIC_REPRESENTATION_CONTEXT(3)
GLOBAL_UNCERTAINTY_ASSIGNED_CONTEXT((#397))
GLOBAL_UNIT_ASSIGNED_CONTEXT((#400,#399,#398))
REPRESENTATION_CONTEXT('Antenna Cap V2','TOP_LEVEL_ASSEMBLY_PART')
);
#397=UNCERTAINTY_MEASURE_WITH_UNIT(LENGTH_MEASURE(2.E-5),#400,
'DISTANCE_ACCURACY_VALUE','Maximum Tolerance applied to model');
#398=(
NAMED_UNIT(*)
SI_UNIT($,.STERADIAN.)
SOLID_ANGLE_UNIT()
);
#399=(
NAMED_UNIT(*)
PLANE_ANGLE_UNIT()
SI_UNIT($,.RADIAN.)
);
#400=(
LENGTH_UNIT()
NAMED_UNIT(*)
SI_UNIT($,.METRE.)
);
#401=PRODUCT_DEFINITION_SHAPE('','',#402);
#402=PRODUCT_DEFINITION('','',#404,#403);
#403=PRODUCT_DEFINITION_CONTEXT('',#410,'design');
#404=PRODUCT_DEFINITION_FORMATION_WITH_SPECIFIED_SOURCE('','',#406,
 .NOT_KNOWN.);
#405=PRODUCT_RELATED_PRODUCT_CATEGORY('','',(#406));
#406=PRODUCT('Antenna Cap V2','Antenna Cap V2','Antenna Cap V2',(#408));
#407=PRODUCT_CATEGORY('','');
#408=PRODUCT_CONTEXT('',#410,'mechanical');
#409=APPLICATION_PROTOCOL_DEFINITION('international standard',
'ap242_managed_model_based_3d_engineering',2020,#410);
#410=APPLICATION_CONTEXT('managed model based 3d engineering');
ENDSEC;
END-ISO-10303-21;
