ISO-10303-21;
HEADER;
/* Generated by software containing ST-Developer
 * from STEP Tools, Inc. (www.steptools.com) 
 */
/* OPTION: using custom renumber hook */

FILE_DESCRIPTION(
/* description */ ('STEP AP242 Edition 2',
'CAx-IF Rec.Pracs.---Representation and Presentation of Product Manufa
cturing Information (PMI)---4.0---2014-10-13',
'CAx-IF Rec.Pracs.---3D Tessellated Geometry---0.4---2014-09-14','2;1',
'CAx-IF Rec.Pracs.---User Defined Attributes---1.5---2016-08-15'),
/* implementation_level */ '2;1');

FILE_NAME(
/* name */ 'Brushless Motor - Brushless Motor',
/* time_stamp */ '2026-08-23T20:35:30Z',
/* author */ (''),
/* organization */ (''),
/* preprocessor_version */ 'ST-DEVELOPER v20',
/* originating_system */ 'ONSHAPE BY PTC INC, 1.219',
/* authorisation */ '  ');

FILE_SCHEMA (('AP242_MANAGED_MODEL_BASED_3D_ENGINEERING_MIM_LF { 1 0 10303 442 3 1 4 }'));
ENDSEC;

DATA;
#10=SHAPE_REPRESENTATION_RELATIONSHIP('','',#406,#11);
#11=ADVANCED_BREP_SHAPE_REPRESENTATION('',(#404),#715);
#12=B_SPLINE_CURVE_WITH_KNOTS('',3,(#663,#664,#665,#666),.UNSPECIFIED.,
 .F.,.F.,(4,4),(2.91555795875134E-7,0.00292760680593918),.UNSPECIFIED.);
#13=B_SPLINE_CURVE_WITH_KNOTS('',3,(#667,#668,#669,#670),.UNSPECIFIED.,
 .F.,.F.,(4,4),(2.92122189571267E-7,0.0029106568029629),.UNSPECIFIED.);
#14=CONICAL_SURFACE('',#432,0.01875,0.785398163397449);
#15=CONICAL_SURFACE('',#436,0.01855,0.321750554396639);
#16=CONICAL_SURFACE('',#438,0.01875,0.321750554396642);
#17=CONICAL_SURFACE('',#439,0.01675,0.78539816339745);
#18=PLANE('',#412);
#19=PLANE('',#421);
#20=PLANE('',#422);
#21=PLANE('',#426);
#22=PLANE('',#440);
#23=PLANE('',#441);
#24=PLANE('',#442);
#25=PLANE('',#443);
#26=PLANE('',#446);
#27=PLANE('',#449);
#28=PLANE('',#452);
#29=PLANE('',#455);
#30=PLANE('',#458);
#31=PLANE('',#461);
#32=PLANE('',#464);
#33=PLANE('',#467);
#34=LINE('',#607,#44);
#35=LINE('',#611,#45);
#36=LINE('',#613,#46);
#37=LINE('',#618,#47);
#38=LINE('',#620,#48);
#39=LINE('',#672,#49);
#40=LINE('',#674,#50);
#41=LINE('',#676,#51);
#42=LINE('',#678,#52);
#43=LINE('',#680,#53);
#44=VECTOR('',#476,1.);
#45=VECTOR('',#479,1.);
#46=VECTOR('',#482,1.);
#47=VECTOR('',#485,1.);
#48=VECTOR('',#486,1.);
#49=VECTOR('',#541,1.);
#50=VECTOR('',#542,1.);
#51=VECTOR('',#545,1.);
#52=VECTOR('',#546,1.);
#53=VECTOR('',#549,1.);
#54=ORIENTED_EDGE('',*,*,#134,.T.);
#55=ORIENTED_EDGE('',*,*,#135,.F.);
#56=ORIENTED_EDGE('',*,*,#136,.T.);
#57=ORIENTED_EDGE('',*,*,#137,.F.);
#58=ORIENTED_EDGE('',*,*,#138,.F.);
#59=ORIENTED_EDGE('',*,*,#139,.F.);
#60=ORIENTED_EDGE('',*,*,#140,.T.);
#61=ORIENTED_EDGE('',*,*,#141,.F.);
#62=ORIENTED_EDGE('',*,*,#142,.F.);
#63=ORIENTED_EDGE('',*,*,#143,.F.);
#64=ORIENTED_EDGE('',*,*,#144,.F.);
#65=ORIENTED_EDGE('',*,*,#145,.F.);
#66=ORIENTED_EDGE('',*,*,#146,.F.);
#67=ORIENTED_EDGE('',*,*,#147,.F.);
#68=ORIENTED_EDGE('',*,*,#148,.F.);
#69=ORIENTED_EDGE('',*,*,#147,.T.);
#70=ORIENTED_EDGE('',*,*,#148,.T.);
#71=ORIENTED_EDGE('',*,*,#149,.F.);
#72=ORIENTED_EDGE('',*,*,#149,.T.);
#73=ORIENTED_EDGE('',*,*,#150,.F.);
#74=ORIENTED_EDGE('',*,*,#151,.T.);
#75=ORIENTED_EDGE('',*,*,#152,.T.);
#76=ORIENTED_EDGE('',*,*,#153,.T.);
#77=ORIENTED_EDGE('',*,*,#154,.T.);
#78=ORIENTED_EDGE('',*,*,#150,.T.);
#79=ORIENTED_EDGE('',*,*,#155,.F.);
#80=ORIENTED_EDGE('',*,*,#155,.T.);
#81=ORIENTED_EDGE('',*,*,#156,.F.);
#82=ORIENTED_EDGE('',*,*,#156,.T.);
#83=ORIENTED_EDGE('',*,*,#157,.F.);
#84=ORIENTED_EDGE('',*,*,#157,.T.);
#85=ORIENTED_EDGE('',*,*,#158,.F.);
#86=ORIENTED_EDGE('',*,*,#158,.T.);
#87=ORIENTED_EDGE('',*,*,#134,.F.);
#88=ORIENTED_EDGE('',*,*,#159,.F.);
#89=ORIENTED_EDGE('',*,*,#137,.T.);
#90=ORIENTED_EDGE('',*,*,#160,.F.);
#91=ORIENTED_EDGE('',*,*,#140,.F.);
#92=ORIENTED_EDGE('',*,*,#159,.T.);
#93=ORIENTED_EDGE('',*,*,#139,.T.);
#94=ORIENTED_EDGE('',*,*,#161,.F.);
#95=ORIENTED_EDGE('',*,*,#162,.F.);
#96=ORIENTED_EDGE('',*,*,#138,.T.);
#97=ORIENTED_EDGE('',*,*,#142,.T.);
#98=ORIENTED_EDGE('',*,*,#163,.F.);
#99=ORIENTED_EDGE('',*,*,#164,.F.);
#100=ORIENTED_EDGE('',*,*,#161,.T.);
#101=ORIENTED_EDGE('',*,*,#160,.T.);
#102=ORIENTED_EDGE('',*,*,#136,.F.);
#103=ORIENTED_EDGE('',*,*,#165,.F.);
#104=ORIENTED_EDGE('',*,*,#163,.T.);
#105=ORIENTED_EDGE('',*,*,#141,.T.);
#106=ORIENTED_EDGE('',*,*,#135,.T.);
#107=ORIENTED_EDGE('',*,*,#162,.T.);
#108=ORIENTED_EDGE('',*,*,#164,.T.);
#109=ORIENTED_EDGE('',*,*,#165,.T.);
#110=ORIENTED_EDGE('',*,*,#166,.F.);
#111=ORIENTED_EDGE('',*,*,#146,.T.);
#112=ORIENTED_EDGE('',*,*,#166,.T.);
#113=ORIENTED_EDGE('',*,*,#167,.F.);
#114=ORIENTED_EDGE('',*,*,#145,.T.);
#115=ORIENTED_EDGE('',*,*,#167,.T.);
#116=ORIENTED_EDGE('',*,*,#168,.F.);
#117=ORIENTED_EDGE('',*,*,#144,.T.);
#118=ORIENTED_EDGE('',*,*,#168,.T.);
#119=ORIENTED_EDGE('',*,*,#169,.F.);
#120=ORIENTED_EDGE('',*,*,#143,.T.);
#121=ORIENTED_EDGE('',*,*,#169,.T.);
#122=ORIENTED_EDGE('',*,*,#154,.F.);
#123=ORIENTED_EDGE('',*,*,#170,.T.);
#124=ORIENTED_EDGE('',*,*,#170,.F.);
#125=ORIENTED_EDGE('',*,*,#153,.F.);
#126=ORIENTED_EDGE('',*,*,#171,.T.);
#127=ORIENTED_EDGE('',*,*,#171,.F.);
#128=ORIENTED_EDGE('',*,*,#152,.F.);
#129=ORIENTED_EDGE('',*,*,#172,.T.);
#130=ORIENTED_EDGE('',*,*,#172,.F.);
#131=ORIENTED_EDGE('',*,*,#151,.F.);
#132=ORIENTED_EDGE('',*,*,#173,.T.);
#133=ORIENTED_EDGE('',*,*,#173,.F.);
#134=EDGE_CURVE('',#174,#174,#209,.T.);
#135=EDGE_CURVE('',#175,#176,#210,.T.);
#136=EDGE_CURVE('',#175,#177,#34,.T.);
#137=EDGE_CURVE('',#178,#177,#211,.T.);
#138=EDGE_CURVE('',#176,#178,#35,.T.);
#139=EDGE_CURVE('',#179,#180,#36,.T.);
#140=EDGE_CURVE('',#179,#181,#212,.T.);
#141=EDGE_CURVE('',#182,#181,#37,.T.);
#142=EDGE_CURVE('',#180,#182,#38,.T.);
#143=EDGE_CURVE('',#183,#183,#213,.T.);
#144=EDGE_CURVE('',#184,#184,#214,.T.);
#145=EDGE_CURVE('',#185,#185,#215,.T.);
#146=EDGE_CURVE('',#186,#186,#216,.T.);
#147=EDGE_CURVE('',#187,#187,#217,.T.);
#148=EDGE_CURVE('',#188,#188,#218,.T.);
#149=EDGE_CURVE('',#189,#189,#219,.T.);
#150=EDGE_CURVE('',#190,#190,#220,.T.);
#151=EDGE_CURVE('',#191,#191,#221,.F.);
#152=EDGE_CURVE('',#192,#192,#222,.F.);
#153=EDGE_CURVE('',#193,#193,#223,.F.);
#154=EDGE_CURVE('',#194,#194,#224,.F.);
#155=EDGE_CURVE('',#195,#195,#225,.T.);
#156=EDGE_CURVE('',#196,#196,#226,.T.);
#157=EDGE_CURVE('',#197,#197,#227,.T.);
#158=EDGE_CURVE('',#198,#198,#228,.T.);
#159=EDGE_CURVE('',#178,#179,#12,.T.);
#160=EDGE_CURVE('',#181,#177,#13,.T.);
#161=EDGE_CURVE('',#199,#180,#39,.T.);
#162=EDGE_CURVE('',#176,#199,#40,.T.);
#163=EDGE_CURVE('',#200,#182,#41,.T.);
#164=EDGE_CURVE('',#199,#200,#42,.T.);
#165=EDGE_CURVE('',#200,#175,#43,.T.);
#166=EDGE_CURVE('',#201,#201,#229,.T.);
#167=EDGE_CURVE('',#202,#202,#230,.T.);
#168=EDGE_CURVE('',#203,#203,#231,.T.);
#169=EDGE_CURVE('',#204,#204,#232,.T.);
#170=EDGE_CURVE('',#205,#205,#233,.T.);
#171=EDGE_CURVE('',#206,#206,#234,.T.);
#172=EDGE_CURVE('',#207,#207,#235,.T.);
#173=EDGE_CURVE('',#208,#208,#236,.T.);
#174=VERTEX_POINT('',#603);
#175=VERTEX_POINT('',#605);
#176=VERTEX_POINT('',#606);
#177=VERTEX_POINT('',#608);
#178=VERTEX_POINT('',#610);
#179=VERTEX_POINT('',#614);
#180=VERTEX_POINT('',#615);
#181=VERTEX_POINT('',#617);
#182=VERTEX_POINT('',#619);
#183=VERTEX_POINT('',#622);
#184=VERTEX_POINT('',#624);
#185=VERTEX_POINT('',#626);
#186=VERTEX_POINT('',#628);
#187=VERTEX_POINT('',#630);
#188=VERTEX_POINT('',#633);
#189=VERTEX_POINT('',#637);
#190=VERTEX_POINT('',#640);
#191=VERTEX_POINT('',#643);
#192=VERTEX_POINT('',#645);
#193=VERTEX_POINT('',#647);
#194=VERTEX_POINT('',#649);
#195=VERTEX_POINT('',#651);
#196=VERTEX_POINT('',#654);
#197=VERTEX_POINT('',#657);
#198=VERTEX_POINT('',#660);
#199=VERTEX_POINT('',#673);
#200=VERTEX_POINT('',#677);
#201=VERTEX_POINT('',#684);
#202=VERTEX_POINT('',#688);
#203=VERTEX_POINT('',#692);
#204=VERTEX_POINT('',#696);
#205=VERTEX_POINT('',#700);
#206=VERTEX_POINT('',#704);
#207=VERTEX_POINT('',#708);
#208=VERTEX_POINT('',#712);
#209=CIRCLE('',#409,0.01875);
#210=CIRCLE('',#410,0.01875);
#211=CIRCLE('',#411,0.01875);
#212=CIRCLE('',#413,0.01675);
#213=CIRCLE('',#414,0.0017);
#214=CIRCLE('',#415,0.0017);
#215=CIRCLE('',#416,0.0017);
#216=CIRCLE('',#417,0.0017);
#217=CIRCLE('',#418,0.0059);
#218=CIRCLE('',#420,0.0059);
#219=CIRCLE('',#423,0.0059);
#220=CIRCLE('',#425,0.0059);
#221=CIRCLE('',#427,0.0017);
#222=CIRCLE('',#428,0.0017);
#223=CIRCLE('',#429,0.0017);
#224=CIRCLE('',#430,0.0017);
#225=CIRCLE('',#431,0.01675);
#226=CIRCLE('',#433,0.01875);
#227=CIRCLE('',#435,0.01875);
#228=CIRCLE('',#437,0.01855);
#229=CIRCLE('',#445,0.0017);
#230=CIRCLE('',#448,0.0017);
#231=CIRCLE('',#451,0.0017);
#232=CIRCLE('',#454,0.0017);
#233=CIRCLE('',#457,0.0017);
#234=CIRCLE('',#460,0.0017);
#235=CIRCLE('',#463,0.0017);
#236=CIRCLE('',#466,0.0017);
#237=EDGE_LOOP('',(#54));
#238=EDGE_LOOP('',(#55,#56,#57,#58));
#239=EDGE_LOOP('',(#59,#60,#61,#62));
#240=EDGE_LOOP('',(#63));
#241=EDGE_LOOP('',(#64));
#242=EDGE_LOOP('',(#65));
#243=EDGE_LOOP('',(#66));
#244=EDGE_LOOP('',(#67));
#245=EDGE_LOOP('',(#68));
#246=EDGE_LOOP('',(#69));
#247=EDGE_LOOP('',(#70));
#248=EDGE_LOOP('',(#71));
#249=EDGE_LOOP('',(#72));
#250=EDGE_LOOP('',(#73));
#251=EDGE_LOOP('',(#74));
#252=EDGE_LOOP('',(#75));
#253=EDGE_LOOP('',(#76));
#254=EDGE_LOOP('',(#77));
#255=EDGE_LOOP('',(#78));
#256=EDGE_LOOP('',(#79));
#257=EDGE_LOOP('',(#80));
#258=EDGE_LOOP('',(#81));
#259=EDGE_LOOP('',(#82));
#260=EDGE_LOOP('',(#83));
#261=EDGE_LOOP('',(#84));
#262=EDGE_LOOP('',(#85));
#263=EDGE_LOOP('',(#86));
#264=EDGE_LOOP('',(#87));
#265=EDGE_LOOP('',(#88,#89,#90,#91));
#266=EDGE_LOOP('',(#92,#93,#94,#95,#96));
#267=EDGE_LOOP('',(#97,#98,#99,#100));
#268=EDGE_LOOP('',(#101,#102,#103,#104,#105));
#269=EDGE_LOOP('',(#106,#107,#108,#109));
#270=EDGE_LOOP('',(#110));
#271=EDGE_LOOP('',(#111));
#272=EDGE_LOOP('',(#112));
#273=EDGE_LOOP('',(#113));
#274=EDGE_LOOP('',(#114));
#275=EDGE_LOOP('',(#115));
#276=EDGE_LOOP('',(#116));
#277=EDGE_LOOP('',(#117));
#278=EDGE_LOOP('',(#118));
#279=EDGE_LOOP('',(#119));
#280=EDGE_LOOP('',(#120));
#281=EDGE_LOOP('',(#121));
#282=EDGE_LOOP('',(#122));
#283=EDGE_LOOP('',(#123));
#284=EDGE_LOOP('',(#124));
#285=EDGE_LOOP('',(#125));
#286=EDGE_LOOP('',(#126));
#287=EDGE_LOOP('',(#127));
#288=EDGE_LOOP('',(#128));
#289=EDGE_LOOP('',(#129));
#290=EDGE_LOOP('',(#130));
#291=EDGE_LOOP('',(#131));
#292=EDGE_LOOP('',(#132));
#293=EDGE_LOOP('',(#133));
#294=FACE_BOUND('',#237,.T.);
#295=FACE_BOUND('',#238,.T.);
#296=FACE_BOUND('',#239,.T.);
#297=FACE_BOUND('',#240,.T.);
#298=FACE_BOUND('',#241,.T.);
#299=FACE_BOUND('',#242,.T.);
#300=FACE_BOUND('',#243,.T.);
#301=FACE_BOUND('',#244,.T.);
#302=FACE_BOUND('',#245,.T.);
#303=FACE_BOUND('',#246,.T.);
#304=FACE_BOUND('',#247,.T.);
#305=FACE_BOUND('',#248,.T.);
#306=FACE_BOUND('',#249,.T.);
#307=FACE_BOUND('',#250,.T.);
#308=FACE_BOUND('',#251,.T.);
#309=FACE_BOUND('',#252,.T.);
#310=FACE_BOUND('',#253,.T.);
#311=FACE_BOUND('',#254,.T.);
#312=FACE_BOUND('',#255,.T.);
#313=FACE_BOUND('',#256,.T.);
#314=FACE_BOUND('',#257,.T.);
#315=FACE_BOUND('',#258,.T.);
#316=FACE_BOUND('',#259,.T.);
#317=FACE_BOUND('',#260,.T.);
#318=FACE_BOUND('',#261,.T.);
#319=FACE_BOUND('',#262,.T.);
#320=FACE_BOUND('',#263,.T.);
#321=FACE_BOUND('',#264,.T.);
#322=FACE_BOUND('',#265,.T.);
#323=FACE_BOUND('',#266,.T.);
#324=FACE_BOUND('',#267,.T.);
#325=FACE_BOUND('',#268,.T.);
#326=FACE_BOUND('',#269,.T.);
#327=FACE_BOUND('',#270,.T.);
#328=FACE_BOUND('',#271,.T.);
#329=FACE_BOUND('',#272,.T.);
#330=FACE_BOUND('',#273,.T.);
#331=FACE_BOUND('',#274,.T.);
#332=FACE_BOUND('',#275,.T.);
#333=FACE_BOUND('',#276,.T.);
#334=FACE_BOUND('',#277,.T.);
#335=FACE_BOUND('',#278,.T.);
#336=FACE_BOUND('',#279,.T.);
#337=FACE_BOUND('',#280,.T.);
#338=FACE_BOUND('',#281,.T.);
#339=FACE_BOUND('',#282,.T.);
#340=FACE_BOUND('',#283,.T.);
#341=FACE_BOUND('',#284,.T.);
#342=FACE_BOUND('',#285,.T.);
#343=FACE_BOUND('',#286,.T.);
#344=FACE_BOUND('',#287,.T.);
#345=FACE_BOUND('',#288,.T.);
#346=FACE_BOUND('',#289,.T.);
#347=FACE_BOUND('',#290,.T.);
#348=FACE_BOUND('',#291,.T.);
#349=FACE_BOUND('',#292,.T.);
#350=FACE_BOUND('',#293,.T.);
#351=CYLINDRICAL_SURFACE('',#408,0.01875);
#352=CYLINDRICAL_SURFACE('',#419,0.0059);
#353=CYLINDRICAL_SURFACE('',#424,0.0059);
#354=CYLINDRICAL_SURFACE('',#434,0.01875);
#355=CYLINDRICAL_SURFACE('',#444,0.0017);
#356=CYLINDRICAL_SURFACE('',#447,0.0017);
#357=CYLINDRICAL_SURFACE('',#450,0.0017);
#358=CYLINDRICAL_SURFACE('',#453,0.0017);
#359=CYLINDRICAL_SURFACE('',#456,0.0017);
#360=CYLINDRICAL_SURFACE('',#459,0.0017);
#361=CYLINDRICAL_SURFACE('',#462,0.0017);
#362=CYLINDRICAL_SURFACE('',#465,0.0017);
#363=ADVANCED_FACE('',(#294,#295),#351,.T.);
#364=ADVANCED_FACE('',(#296,#297,#298,#299,#300,#301),#18,.T.);
#365=ADVANCED_FACE('',(#302,#303),#352,.T.);
#366=ADVANCED_FACE('',(#304),#19,.F.);
#367=ADVANCED_FACE('',(#305),#20,.T.);
#368=ADVANCED_FACE('',(#306,#307),#353,.T.);
#369=ADVANCED_FACE('',(#308,#309,#310,#311,#312,#313),#21,.T.);
#370=ADVANCED_FACE('',(#314,#315),#14,.T.);
#371=ADVANCED_FACE('',(#316,#317),#354,.T.);
#372=ADVANCED_FACE('',(#318,#319),#15,.T.);
#373=ADVANCED_FACE('',(#320,#321),#16,.T.);
#374=ADVANCED_FACE('',(#322),#17,.T.);
#375=ADVANCED_FACE('',(#323),#22,.F.);
#376=ADVANCED_FACE('',(#324),#23,.F.);
#377=ADVANCED_FACE('',(#325),#24,.F.);
#378=ADVANCED_FACE('',(#326),#25,.T.);
#379=ADVANCED_FACE('',(#327,#328),#355,.F.);
#380=ADVANCED_FACE('',(#329),#26,.T.);
#381=ADVANCED_FACE('',(#330,#331),#356,.F.);
#382=ADVANCED_FACE('',(#332),#27,.T.);
#383=ADVANCED_FACE('',(#333,#334),#357,.F.);
#384=ADVANCED_FACE('',(#335),#28,.T.);
#385=ADVANCED_FACE('',(#336,#337),#358,.F.);
#386=ADVANCED_FACE('',(#338),#29,.T.);
#387=ADVANCED_FACE('',(#339,#340),#359,.F.);
#388=ADVANCED_FACE('',(#341),#30,.F.);
#389=ADVANCED_FACE('',(#342,#343),#360,.F.);
#390=ADVANCED_FACE('',(#344),#31,.F.);
#391=ADVANCED_FACE('',(#345,#346),#361,.F.);
#392=ADVANCED_FACE('',(#347),#32,.F.);
#393=ADVANCED_FACE('',(#348,#349),#362,.F.);
#394=ADVANCED_FACE('',(#350),#33,.F.);
#395=CLOSED_SHELL('',(#363,#364,#365,#366,#367,#368,#369,#370,#371,#372,
#373,#374,#375,#376,#377,#378,#379,#380,#381,#382,#383,#384,#385,#386,#387,
#388,#389,#390,#391,#392,#393,#394));
#396=STYLED_ITEM('',(#397),#404);
#397=PRESENTATION_STYLE_ASSIGNMENT((#398));
#398=SURFACE_STYLE_USAGE(.BOTH.,#399);
#399=SURFACE_SIDE_STYLE('',(#400));
#400=SURFACE_STYLE_FILL_AREA(#401);
#401=FILL_AREA_STYLE('',(#402));
#402=FILL_AREA_STYLE_COLOUR('',#403);
#403=COLOUR_RGB('',0.615686274509804,0.811764705882353,0.929411764705882);
#404=MANIFOLD_SOLID_BREP('Brushless Motor',#395);
#405=SHAPE_DEFINITION_REPRESENTATION(#720,#406);
#406=SHAPE_REPRESENTATION('Brushless Motor',(#407),#715);
#407=AXIS2_PLACEMENT_3D('',#600,#468,#469);
#408=AXIS2_PLACEMENT_3D('',#601,#470,#471);
#409=AXIS2_PLACEMENT_3D('',#602,#472,#473);
#410=AXIS2_PLACEMENT_3D('',#604,#474,#475);
#411=AXIS2_PLACEMENT_3D('',#609,#477,#478);
#412=AXIS2_PLACEMENT_3D('',#612,#480,#481);
#413=AXIS2_PLACEMENT_3D('',#616,#483,#484);
#414=AXIS2_PLACEMENT_3D('',#621,#487,#488);
#415=AXIS2_PLACEMENT_3D('',#623,#489,#490);
#416=AXIS2_PLACEMENT_3D('',#625,#491,#492);
#417=AXIS2_PLACEMENT_3D('',#627,#493,#494);
#418=AXIS2_PLACEMENT_3D('',#629,#495,#496);
#419=AXIS2_PLACEMENT_3D('',#631,#497,#498);
#420=AXIS2_PLACEMENT_3D('',#632,#499,#500);
#421=AXIS2_PLACEMENT_3D('',#634,#501,#502);
#422=AXIS2_PLACEMENT_3D('',#635,#503,#504);
#423=AXIS2_PLACEMENT_3D('',#636,#505,#506);
#424=AXIS2_PLACEMENT_3D('',#638,#507,#508);
#425=AXIS2_PLACEMENT_3D('',#639,#509,#510);
#426=AXIS2_PLACEMENT_3D('',#641,#511,#512);
#427=AXIS2_PLACEMENT_3D('',#642,#513,#514);
#428=AXIS2_PLACEMENT_3D('',#644,#515,#516);
#429=AXIS2_PLACEMENT_3D('',#646,#517,#518);
#430=AXIS2_PLACEMENT_3D('',#648,#519,#520);
#431=AXIS2_PLACEMENT_3D('',#650,#521,#522);
#432=AXIS2_PLACEMENT_3D('',#652,#523,#524);
#433=AXIS2_PLACEMENT_3D('',#653,#525,#526);
#434=AXIS2_PLACEMENT_3D('',#655,#527,#528);
#435=AXIS2_PLACEMENT_3D('',#656,#529,#530);
#436=AXIS2_PLACEMENT_3D('',#658,#531,#532);
#437=AXIS2_PLACEMENT_3D('',#659,#533,#534);
#438=AXIS2_PLACEMENT_3D('',#661,#535,#536);
#439=AXIS2_PLACEMENT_3D('',#662,#537,#538);
#440=AXIS2_PLACEMENT_3D('',#671,#539,#540);
#441=AXIS2_PLACEMENT_3D('',#675,#543,#544);
#442=AXIS2_PLACEMENT_3D('',#679,#547,#548);
#443=AXIS2_PLACEMENT_3D('',#681,#550,#551);
#444=AXIS2_PLACEMENT_3D('',#682,#552,#553);
#445=AXIS2_PLACEMENT_3D('',#683,#554,#555);
#446=AXIS2_PLACEMENT_3D('',#685,#556,#557);
#447=AXIS2_PLACEMENT_3D('',#686,#558,#559);
#448=AXIS2_PLACEMENT_3D('',#687,#560,#561);
#449=AXIS2_PLACEMENT_3D('',#689,#562,#563);
#450=AXIS2_PLACEMENT_3D('',#690,#564,#565);
#451=AXIS2_PLACEMENT_3D('',#691,#566,#567);
#452=AXIS2_PLACEMENT_3D('',#693,#568,#569);
#453=AXIS2_PLACEMENT_3D('',#694,#570,#571);
#454=AXIS2_PLACEMENT_3D('',#695,#572,#573);
#455=AXIS2_PLACEMENT_3D('',#697,#574,#575);
#456=AXIS2_PLACEMENT_3D('',#698,#576,#577);
#457=AXIS2_PLACEMENT_3D('',#699,#578,#579);
#458=AXIS2_PLACEMENT_3D('',#701,#580,#581);
#459=AXIS2_PLACEMENT_3D('',#702,#582,#583);
#460=AXIS2_PLACEMENT_3D('',#703,#584,#585);
#461=AXIS2_PLACEMENT_3D('',#705,#586,#587);
#462=AXIS2_PLACEMENT_3D('',#706,#588,#589);
#463=AXIS2_PLACEMENT_3D('',#707,#590,#591);
#464=AXIS2_PLACEMENT_3D('',#709,#592,#593);
#465=AXIS2_PLACEMENT_3D('',#710,#594,#595);
#466=AXIS2_PLACEMENT_3D('',#711,#596,#597);
#467=AXIS2_PLACEMENT_3D('',#713,#598,#599);
#468=DIRECTION('',(0.,0.,1.));
#469=DIRECTION('',(1.,0.,0.));
#470=DIRECTION('',(0.,-1.,0.));
#471=DIRECTION('',(0.,0.,-1.));
#472=DIRECTION('',(0.,-1.,0.));
#473=DIRECTION('',(0.,0.,-1.));
#474=DIRECTION('',(0.,-1.,0.));
#475=DIRECTION('',(0.,0.,-1.));
#476=DIRECTION('',(0.,-1.,0.));
#477=DIRECTION('',(0.,-1.,0.));
#478=DIRECTION('',(0.,0.,-1.));
#479=DIRECTION('',(0.,-1.,0.));
#480=DIRECTION('',(0.,-1.,0.));
#481=DIRECTION('',(0.,0.,-1.));
#482=DIRECTION('',(0.696580943117617,0.,-0.717478215477914));
#483=DIRECTION('',(0.,-1.,0.));
#484=DIRECTION('',(0.,0.,-1.));
#485=DIRECTION('',(-0.696580943117616,0.,0.717478215477914));
#486=DIRECTION('',(0.717478215477914,0.,0.696580943117616));
#487=DIRECTION('',(0.,-1.,0.));
#488=DIRECTION('',(0.,0.,-1.));
#489=DIRECTION('',(0.,-1.,0.));
#490=DIRECTION('',(0.,0.,-1.));
#491=DIRECTION('',(0.,-1.,0.));
#492=DIRECTION('',(0.,0.,-1.));
#493=DIRECTION('',(0.,-1.,0.));
#494=DIRECTION('',(0.,0.,-1.));
#495=DIRECTION('',(0.,-1.,0.));
#496=DIRECTION('',(0.,0.,-1.));
#497=DIRECTION('',(0.,-1.,0.));
#498=DIRECTION('',(0.,0.,-1.));
#499=DIRECTION('',(0.,-1.,0.));
#500=DIRECTION('',(0.,0.,-1.));
#501=DIRECTION('',(0.,1.,0.));
#502=DIRECTION('',(0.,0.,1.));
#503=DIRECTION('',(0.,1.,0.));
#504=DIRECTION('',(0.,0.,1.));
#505=DIRECTION('',(0.,-1.,0.));
#506=DIRECTION('',(0.,0.,-1.));
#507=DIRECTION('',(0.,-1.,0.));
#508=DIRECTION('',(0.,0.,-1.));
#509=DIRECTION('',(0.,-1.,0.));
#510=DIRECTION('',(0.,0.,-1.));
#511=DIRECTION('',(0.,1.,0.));
#512=DIRECTION('',(0.,0.,1.));
#513=DIRECTION('',(0.,1.,0.));
#514=DIRECTION('',(0.,0.,1.));
#515=DIRECTION('',(0.,1.,0.));
#516=DIRECTION('',(0.,0.,1.));
#517=DIRECTION('',(0.,1.,0.));
#518=DIRECTION('',(0.,0.,1.));
#519=DIRECTION('',(0.,1.,0.));
#520=DIRECTION('',(0.,0.,1.));
#521=DIRECTION('',(0.,-1.,0.));
#522=DIRECTION('',(0.,0.,-1.));
#523=DIRECTION('',(0.,-1.,0.));
#524=DIRECTION('',(0.,0.,-1.));
#525=DIRECTION('',(0.,-1.,0.));
#526=DIRECTION('',(0.,0.,-1.));
#527=DIRECTION('',(0.,-1.,0.));
#528=DIRECTION('',(0.,0.,-1.));
#529=DIRECTION('',(0.,-1.,0.));
#530=DIRECTION('',(0.,0.,-1.));
#531=DIRECTION('',(0.,1.,0.));
#532=DIRECTION('',(0.,0.,1.));
#533=DIRECTION('',(0.,-1.,0.));
#534=DIRECTION('',(0.,0.,-1.));
#535=DIRECTION('',(0.,-1.,0.));
#536=DIRECTION('',(0.,0.,-1.));
#537=DIRECTION('',(0.,1.,0.));
#538=DIRECTION('',(0.,0.,1.));
#539=DIRECTION('',(-0.717478215477914,0.,-0.696580943117617));
#540=DIRECTION('',(-0.696580943117617,0.,0.717478215477914));
#541=DIRECTION('',(0.,-1.,0.));
#542=DIRECTION('',(0.696580943117617,0.,-0.717478215477914));
#543=DIRECTION('',(0.696580943117616,0.,-0.717478215477914));
#544=DIRECTION('',(-0.717478215477914,0.,-0.696580943117616));
#545=DIRECTION('',(0.,-1.,0.));
#546=DIRECTION('',(0.717478215477914,0.,0.696580943117616));
#547=DIRECTION('',(0.717478215477914,0.,0.696580943117616));
#548=DIRECTION('',(0.696580943117616,0.,-0.717478215477914));
#549=DIRECTION('',(-0.696580943117616,0.,0.717478215477914));
#550=DIRECTION('',(0.,-1.,0.));
#551=DIRECTION('',(1.,0.,0.));
#552=DIRECTION('',(0.,-1.,0.));
#553=DIRECTION('',(0.,0.,-1.));
#554=DIRECTION('',(0.,-1.,0.));
#555=DIRECTION('',(0.,0.,-1.));
#556=DIRECTION('',(0.,-1.,0.));
#557=DIRECTION('',(1.,0.,0.));
#558=DIRECTION('',(0.,-1.,0.));
#559=DIRECTION('',(0.,0.,-1.));
#560=DIRECTION('',(0.,-1.,0.));
#561=DIRECTION('',(0.,0.,-1.));
#562=DIRECTION('',(0.,-1.,0.));
#563=DIRECTION('',(1.,0.,0.));
#564=DIRECTION('',(0.,-1.,0.));
#565=DIRECTION('',(0.,0.,-1.));
#566=DIRECTION('',(0.,-1.,0.));
#567=DIRECTION('',(0.,0.,-1.));
#568=DIRECTION('',(0.,-1.,0.));
#569=DIRECTION('',(1.,0.,0.));
#570=DIRECTION('',(0.,-1.,0.));
#571=DIRECTION('',(0.,0.,-1.));
#572=DIRECTION('',(0.,-1.,0.));
#573=DIRECTION('',(0.,0.,-1.));
#574=DIRECTION('',(0.,-1.,0.));
#575=DIRECTION('',(1.,0.,0.));
#576=DIRECTION('',(0.,1.,0.));
#577=DIRECTION('',(0.,0.,1.));
#578=DIRECTION('',(0.,-1.,0.));
#579=DIRECTION('',(0.,0.,-1.));
#580=DIRECTION('',(0.,-1.,0.));
#581=DIRECTION('',(1.,0.,0.));
#582=DIRECTION('',(0.,1.,0.));
#583=DIRECTION('',(0.,0.,1.));
#584=DIRECTION('',(0.,-1.,0.));
#585=DIRECTION('',(0.,0.,-1.));
#586=DIRECTION('',(0.,-1.,0.));
#587=DIRECTION('',(1.,0.,0.));
#588=DIRECTION('',(0.,1.,0.));
#589=DIRECTION('',(0.,0.,1.));
#590=DIRECTION('',(0.,-1.,0.));
#591=DIRECTION('',(0.,0.,-1.));
#592=DIRECTION('',(0.,-1.,0.));
#593=DIRECTION('',(1.,0.,0.));
#594=DIRECTION('',(0.,1.,0.));
#595=DIRECTION('',(0.,0.,1.));
#596=DIRECTION('',(0.,-1.,0.));
#597=DIRECTION('',(0.,0.,-1.));
#598=DIRECTION('',(0.,-1.,0.));
#599=DIRECTION('',(1.,0.,0.));
#600=CARTESIAN_POINT('',(0.,0.,0.));
#601=CARTESIAN_POINT('',(0.,0.027,0.));
#602=CARTESIAN_POINT('',(0.,0.0097,0.));
#603=CARTESIAN_POINT('',(0.,0.0097,-0.01875));
#604=CARTESIAN_POINT('',(3.55618312575245E-17,0.005,-3.46944695195361E-17));
#605=CARTESIAN_POINT('',(-0.00830924521636095,0.005,0.0168082998525842));
#606=CARTESIAN_POINT('',(-0.0167997500427166,0.005,0.0083265177897032));
#607=CARTESIAN_POINT('',(-0.00830924521636095,0.005,0.0168082998525842));
#608=CARTESIAN_POINT('',(-0.00830924521636095,0.002,0.0168082998525842));
#609=CARTESIAN_POINT('',(0.,0.002,0.));
#610=CARTESIAN_POINT('',(-0.0167997500427166,0.002,0.0083265177897032));
#611=CARTESIAN_POINT('',(-0.0167997500427166,0.005,0.0083265177897032));
#612=CARTESIAN_POINT('',(0.,2.17518060854904E-18,0.011325));
#613=CARTESIAN_POINT('',(-0.014353875057039,0.,0.00580726710197705));
#614=CARTESIAN_POINT('',(-0.0153107645559964,0.,0.00679286307169846));
#615=CARTESIAN_POINT('',(-0.0119080000713615,0.,0.0032880164142509));
#616=CARTESIAN_POINT('',(0.,3.46944695195361E-18,0.));
#617=CARTESIAN_POINT('',(-0.00683647103302252,3.46944695195361E-18,0.0152913427734338));
#618=CARTESIAN_POINT('',(-0.00580375335099374,0.,0.0142276437921233));
#619=CARTESIAN_POINT('',(-0.00329826148562654,0.,0.0116469877316623));
#620=CARTESIAN_POINT('',(-0.00760313077849402,0.,0.00746750207295659));
#621=CARTESIAN_POINT('',(0.,0.,0.012));
#622=CARTESIAN_POINT('',(0.,0.,0.0103));
#623=CARTESIAN_POINT('',(0.012,0.,1.04094977927525E-19));
#624=CARTESIAN_POINT('',(0.012,0.,-0.0017));
#625=CARTESIAN_POINT('',(0.,0.,-0.012));
#626=CARTESIAN_POINT('',(0.,0.,-0.0137));
#627=CARTESIAN_POINT('',(-0.012,0.,1.04094977927525E-19));
#628=CARTESIAN_POINT('',(-0.012,0.,-0.0017));
#629=CARTESIAN_POINT('',(0.,0.,0.));
#630=CARTESIAN_POINT('',(0.,0.,-0.0059));
#631=CARTESIAN_POINT('',(0.,0.027,0.));
#632=CARTESIAN_POINT('',(0.,-0.005,0.));
#633=CARTESIAN_POINT('',(0.,-0.005,-0.0059));
#634=CARTESIAN_POINT('',(0.,-0.005,0.00295));
#635=CARTESIAN_POINT('',(0.,0.059,0.00295));
#636=CARTESIAN_POINT('',(0.,0.059,0.));
#637=CARTESIAN_POINT('',(0.,0.059,-0.0059));
#638=CARTESIAN_POINT('',(0.,0.027,0.));
#639=CARTESIAN_POINT('',(0.,0.054,0.));
#640=CARTESIAN_POINT('',(0.,0.054,-0.0059));
#641=CARTESIAN_POINT('',(0.,0.054,0.011325));
#642=CARTESIAN_POINT('',(-0.012,0.054,1.04094977927525E-19));
#643=CARTESIAN_POINT('',(-0.012,0.054,0.0017));
#644=CARTESIAN_POINT('',(0.,0.054,-0.012));
#645=CARTESIAN_POINT('',(0.,0.054,-0.0103));
#646=CARTESIAN_POINT('',(0.012,0.054,1.04094977927525E-19));
#647=CARTESIAN_POINT('',(0.012,0.054,0.0017));
#648=CARTESIAN_POINT('',(0.,0.054,0.012));
#649=CARTESIAN_POINT('',(0.,0.054,0.0137));
#650=CARTESIAN_POINT('',(0.,0.054,0.));
#651=CARTESIAN_POINT('',(0.,0.054,-0.01675));
#652=CARTESIAN_POINT('',(0.,0.052,0.));
#653=CARTESIAN_POINT('',(0.,0.052,0.));
#654=CARTESIAN_POINT('',(0.,0.052,-0.01875));
#655=CARTESIAN_POINT('',(0.,0.027,0.));
#656=CARTESIAN_POINT('',(0.,0.0109,0.));
#657=CARTESIAN_POINT('',(0.,0.0109,-0.01875));
#658=CARTESIAN_POINT('',(0.,0.0103,0.));
#659=CARTESIAN_POINT('',(0.,0.0103,0.));
#660=CARTESIAN_POINT('',(0.,0.0103,-0.01855));
#661=CARTESIAN_POINT('',(0.,0.0097,0.));
#662=CARTESIAN_POINT('',(0.,3.46944695195361E-18,0.));
#663=CARTESIAN_POINT('',(-0.0167997500427166,0.002,0.00832651778970321));
#664=CARTESIAN_POINT('',(-0.0163051735655364,0.00133064516786907,0.00781710412892109));
#665=CARTESIAN_POINT('',(-0.0158090690494234,0.000663634843936883,0.00730611658838025));
#666=CARTESIAN_POINT('',(-0.0153107645559964,3.15021225684824E-18,0.00679286307169847));
#667=CARTESIAN_POINT('',(-0.00683647103302253,8.98407675578552E-18,0.0152913427734337));
#668=CARTESIAN_POINT('',(-0.00732902825072721,0.000664189167396606,0.0157986765974081));
#669=CARTESIAN_POINT('',(-0.0078197697219177,0.00133113394791771,0.0163041402028793));
#670=CARTESIAN_POINT('',(-0.00830924521636094,0.00199999999999999,0.0168082998525842));
#671=CARTESIAN_POINT('',(-0.014353875057039,0.005,0.00580726710197705));
#672=CARTESIAN_POINT('',(-0.0119080000713615,0.005,0.0032880164142509));
#673=CARTESIAN_POINT('',(-0.0119080000713615,0.005,0.0032880164142509));
#674=CARTESIAN_POINT('',(-0.014353875057039,0.005,0.00580726710197705));
#675=CARTESIAN_POINT('',(-0.00760313077849402,0.005,0.00746750207295659));
#676=CARTESIAN_POINT('',(-0.00329826148562654,0.005,0.0116469877316623));
#677=CARTESIAN_POINT('',(-0.00329826148562654,0.005,0.0116469877316623));
#678=CARTESIAN_POINT('',(-0.00760313077849402,0.005,0.00746750207295659));
#679=CARTESIAN_POINT('',(-0.00580375335099374,0.005,0.0142276437921233));
#680=CARTESIAN_POINT('',(-0.00580375335099374,0.005,0.0142276437921233));
#681=CARTESIAN_POINT('',(-0.0768694431053019,0.005,-0.00421946916036638));
#682=CARTESIAN_POINT('',(-0.012,0.005,1.04094977927525E-19));
#683=CARTESIAN_POINT('',(-0.012,0.005,1.04094977927525E-19));
#684=CARTESIAN_POINT('',(-0.012,0.005,-0.0017));
#685=CARTESIAN_POINT('',(-0.0768694431053019,0.005,-0.00421946916036638));
#686=CARTESIAN_POINT('',(0.,0.005,-0.012));
#687=CARTESIAN_POINT('',(0.,0.005,-0.012));
#688=CARTESIAN_POINT('',(0.,0.005,-0.0137));
#689=CARTESIAN_POINT('',(-0.0768694431053019,0.005,-0.00421946916036638));
#690=CARTESIAN_POINT('',(0.012,0.005,1.04094977927525E-19));
#691=CARTESIAN_POINT('',(0.012,0.005,1.04094977927525E-19));
#692=CARTESIAN_POINT('',(0.012,0.005,-0.0017));
#693=CARTESIAN_POINT('',(-0.0768694431053019,0.005,-0.00421946916036638));
#694=CARTESIAN_POINT('',(0.,0.005,0.012));
#695=CARTESIAN_POINT('',(0.,0.005,0.012));
#696=CARTESIAN_POINT('',(0.,0.005,0.0103));
#697=CARTESIAN_POINT('',(-0.0768694431053019,0.005,-0.00421946916036638));
#698=CARTESIAN_POINT('',(0.,0.049,0.012));
#699=CARTESIAN_POINT('',(0.,0.049,0.012));
#700=CARTESIAN_POINT('',(0.,0.049,0.0103));
#701=CARTESIAN_POINT('',(-0.0768694431053019,0.049,-0.00421946916036638));
#702=CARTESIAN_POINT('',(0.012,0.049,1.04094977927525E-19));
#703=CARTESIAN_POINT('',(0.012,0.049,1.04094977927525E-19));
#704=CARTESIAN_POINT('',(0.012,0.049,-0.0017));
#705=CARTESIAN_POINT('',(-0.0768694431053019,0.049,-0.00421946916036638));
#706=CARTESIAN_POINT('',(0.,0.049,-0.012));
#707=CARTESIAN_POINT('',(0.,0.049,-0.012));
#708=CARTESIAN_POINT('',(0.,0.049,-0.0137));
#709=CARTESIAN_POINT('',(-0.0768694431053019,0.049,-0.00421946916036638));
#710=CARTESIAN_POINT('',(-0.012,0.049,1.04094977927525E-19));
#711=CARTESIAN_POINT('',(-0.012,0.049,1.04094977927525E-19));
#712=CARTESIAN_POINT('',(-0.012,0.049,-0.0017));
#713=CARTESIAN_POINT('',(-0.0768694431053019,0.049,-0.00421946916036638));
#714=MECHANICAL_DESIGN_GEOMETRIC_PRESENTATION_REPRESENTATION('',(#396),
#715);
#715=(
GEOMETRIC_REPRESENTATION_CONTEXT(3)
GLOBAL_UNCERTAINTY_ASSIGNED_CONTEXT((#716))
GLOBAL_UNIT_ASSIGNED_CONTEXT((#719,#718,#717))
REPRESENTATION_CONTEXT('Brushless Motor','TOP_LEVEL_ASSEMBLY_PART')
);
#716=UNCERTAINTY_MEASURE_WITH_UNIT(LENGTH_MEASURE(2.E-5),#719,
'DISTANCE_ACCURACY_VALUE','Maximum Tolerance applied to model');
#717=(
NAMED_UNIT(*)
SI_UNIT($,.STERADIAN.)
SOLID_ANGLE_UNIT()
);
#718=(
NAMED_UNIT(*)
PLANE_ANGLE_UNIT()
SI_UNIT($,.RADIAN.)
);
#719=(
LENGTH_UNIT()
NAMED_UNIT(*)
SI_UNIT($,.METRE.)
);
#720=PRODUCT_DEFINITION_SHAPE('','',#721);
#721=PRODUCT_DEFINITION('','',#723,#722);
#722=PRODUCT_DEFINITION_CONTEXT('',#729,'design');
#723=PRODUCT_DEFINITION_FORMATION_WITH_SPECIFIED_SOURCE('','',#725,
 .NOT_KNOWN.);
#724=PRODUCT_RELATED_PRODUCT_CATEGORY('','',(#725));
#725=PRODUCT('Brushless Motor','Brushless Motor','Brushless Motor',(#727));
#726=PRODUCT_CATEGORY('','');
#727=PRODUCT_CONTEXT('',#729,'mechanical');
#728=APPLICATION_PROTOCOL_DEFINITION('international standard',
'ap242_managed_model_based_3d_engineering',2020,#729);
#729=APPLICATION_CONTEXT('managed model based 3d engineering');
ENDSEC;
END-ISO-10303-21;
