ISO-10303-21;
HEADER;
/* Generated by software containing ST-Developer
 * from STEP Tools, Inc. (www.steptools.com) 
 */
/* OPTION: using custom renumber hook */

FILE_DESCRIPTION(
/* description */ ('STEP AP242 Edition 2',
'CAx-IF Rec.Pracs.---Representation and Presentation of Product Manufa
cturing Information (PMI)---4.0---2014-10-13',
'CAx-IF Rec.Pracs.---3D Tessellated Geometry---0.4---2014-09-14','2;1',
'CAx-IF Rec.Pracs.---User Defined Attributes---1.5---2016-08-15'),
/* implementation_level */ '2;1');

FILE_NAME(
/* name */ 'Buldge Shell - Hull Half Ring',
/* time_stamp */ '2026-08-23T20:28:37Z',
/* author */ (''),
/* organization */ (''),
/* preprocessor_version */ 'ST-DEVELOPER v20',
/* originating_system */ 'ONSHAPE BY PTC INC, 1.219',
/* authorisation */ '  ');

FILE_SCHEMA (('AP242_MANAGED_MODEL_BASED_3D_ENGINEERING_MIM_LF { 1 0 10303 442 3 1 4 }'));
ENDSEC;

DATA;
#10=SHAPE_REPRESENTATION_RELATIONSHIP('','',#749,#11);
#11=ADVANCED_BREP_SHAPE_REPRESENTATION('',(#747),#1195);
#12=CYLINDRICAL_SURFACE('',#767,0.0661);
#13=CYLINDRICAL_SURFACE('',#768,0.0661);
#14=CYLINDRICAL_SURFACE('',#769,0.0661);
#15=CYLINDRICAL_SURFACE('',#771,0.05715);
#16=CYLINDRICAL_SURFACE('',#779,0.0661);
#17=CYLINDRICAL_SURFACE('',#782,0.002);
#18=CYLINDRICAL_SURFACE('',#791,0.002);
#19=LINE('',#993,#105);
#20=LINE('',#996,#106);
#21=LINE('',#998,#107);
#22=LINE('',#1000,#108);
#23=LINE('',#1001,#109);
#24=LINE('',#1004,#110);
#25=LINE('',#1006,#111);
#26=LINE('',#1008,#112);
#27=LINE('',#1011,#113);
#28=LINE('',#1014,#114);
#29=LINE('',#1016,#115);
#30=LINE('',#1018,#116);
#31=LINE('',#1019,#117);
#32=LINE('',#1022,#118);
#33=LINE('',#1024,#119);
#34=LINE('',#1026,#120);
#35=LINE('',#1027,#121);
#36=LINE('',#1030,#122);
#37=LINE('',#1034,#123);
#38=LINE('',#1036,#124);
#39=LINE('',#1038,#125);
#40=LINE('',#1042,#126);
#41=LINE('',#1046,#127);
#42=LINE('',#1050,#128);
#43=LINE('',#1052,#129);
#44=LINE('',#1054,#130);
#45=LINE('',#1058,#131);
#46=LINE('',#1060,#132);
#47=LINE('',#1063,#133);
#48=LINE('',#1065,#134);
#49=LINE('',#1067,#135);
#50=LINE('',#1070,#136);
#51=LINE('',#1073,#137);
#52=LINE('',#1075,#138);
#53=LINE('',#1077,#139);
#54=LINE('',#1078,#140);
#55=LINE('',#1081,#141);
#56=LINE('',#1083,#142);
#57=LINE('',#1085,#143);
#58=LINE('',#1086,#144);
#59=LINE('',#1089,#145);
#60=LINE('',#1091,#146);
#61=LINE('',#1093,#147);
#62=LINE('',#1096,#148);
#63=LINE('',#1099,#149);
#64=LINE('',#1101,#150);
#65=LINE('',#1105,#151);
#66=LINE('',#1107,#152);
#67=LINE('',#1109,#153);
#68=LINE('',#1113,#154);
#69=LINE('',#1117,#155);
#70=LINE('',#1121,#156);
#71=LINE('',#1123,#157);
#72=LINE('',#1125,#158);
#73=LINE('',#1129,#159);
#74=LINE('',#1130,#160);
#75=LINE('',#1132,#161);
#76=LINE('',#1133,#162);
#77=LINE('',#1135,#163);
#78=LINE('',#1136,#164);
#79=LINE('',#1138,#165);
#80=LINE('',#1140,#166);
#81=LINE('',#1142,#167);
#82=LINE('',#1144,#168);
#83=LINE('',#1145,#169);
#84=LINE('',#1147,#170);
#85=LINE('',#1149,#171);
#86=LINE('',#1151,#172);
#87=LINE('',#1152,#173);
#88=LINE('',#1154,#174);
#89=LINE('',#1156,#175);
#90=LINE('',#1158,#176);
#91=LINE('',#1163,#177);
#92=LINE('',#1164,#178);
#93=LINE('',#1166,#179);
#94=LINE('',#1168,#180);
#95=LINE('',#1171,#181);
#96=LINE('',#1172,#182);
#97=LINE('',#1174,#183);
#98=LINE('',#1176,#184);
#99=LINE('',#1180,#185);
#100=LINE('',#1181,#186);
#101=LINE('',#1185,#187);
#102=LINE('',#1186,#188);
#103=LINE('',#1190,#189);
#104=LINE('',#1191,#190);
#105=VECTOR('',#807,1.);
#106=VECTOR('',#808,1.);
#107=VECTOR('',#809,1.);
#108=VECTOR('',#810,1.);
#109=VECTOR('',#811,1.);
#110=VECTOR('',#812,1.);
#111=VECTOR('',#813,1.);
#112=VECTOR('',#814,1.);
#113=VECTOR('',#817,1.);
#114=VECTOR('',#818,1.);
#115=VECTOR('',#819,1.);
#116=VECTOR('',#820,1.);
#117=VECTOR('',#821,1.);
#118=VECTOR('',#822,1.);
#119=VECTOR('',#823,1.);
#120=VECTOR('',#824,1.);
#121=VECTOR('',#825,1.);
#122=VECTOR('',#826,1.);
#123=VECTOR('',#829,1.);
#124=VECTOR('',#830,1.);
#125=VECTOR('',#831,1.);
#126=VECTOR('',#834,1.);
#127=VECTOR('',#837,1.);
#128=VECTOR('',#840,1.);
#129=VECTOR('',#841,1.);
#130=VECTOR('',#842,1.);
#131=VECTOR('',#845,1.);
#132=VECTOR('',#848,1.);
#133=VECTOR('',#849,1.);
#134=VECTOR('',#850,1.);
#135=VECTOR('',#851,1.);
#136=VECTOR('',#854,1.);
#137=VECTOR('',#855,1.);
#138=VECTOR('',#856,1.);
#139=VECTOR('',#857,1.);
#140=VECTOR('',#858,1.);
#141=VECTOR('',#859,1.);
#142=VECTOR('',#860,1.);
#143=VECTOR('',#861,1.);
#144=VECTOR('',#862,1.);
#145=VECTOR('',#863,1.);
#146=VECTOR('',#864,1.);
#147=VECTOR('',#865,1.);
#148=VECTOR('',#868,1.);
#149=VECTOR('',#869,1.);
#150=VECTOR('',#870,1.);
#151=VECTOR('',#873,1.);
#152=VECTOR('',#874,1.);
#153=VECTOR('',#875,1.);
#154=VECTOR('',#878,1.);
#155=VECTOR('',#881,1.);
#156=VECTOR('',#884,1.);
#157=VECTOR('',#885,1.);
#158=VECTOR('',#886,1.);
#159=VECTOR('',#891,1.);
#160=VECTOR('',#892,1.);
#161=VECTOR('',#895,1.);
#162=VECTOR('',#896,1.);
#163=VECTOR('',#899,1.);
#164=VECTOR('',#900,1.);
#165=VECTOR('',#903,1.);
#166=VECTOR('',#906,1.);
#167=VECTOR('',#909,1.);
#168=VECTOR('',#912,1.);
#169=VECTOR('',#913,1.);
#170=VECTOR('',#916,1.);
#171=VECTOR('',#919,1.);
#172=VECTOR('',#922,1.);
#173=VECTOR('',#923,1.);
#174=VECTOR('',#926,1.);
#175=VECTOR('',#929,1.);
#176=VECTOR('',#932,1.);
#177=VECTOR('',#941,1.);
#178=VECTOR('',#942,1.);
#179=VECTOR('',#945,1.);
#180=VECTOR('',#948,1.);
#181=VECTOR('',#953,1.);
#182=VECTOR('',#954,1.);
#183=VECTOR('',#957,1.);
#184=VECTOR('',#960,1.);
#185=VECTOR('',#967,1.);
#186=VECTOR('',#968,1.);
#187=VECTOR('',#975,1.);
#188=VECTOR('',#976,1.);
#189=VECTOR('',#983,1.);
#190=VECTOR('',#984,1.);
#191=ORIENTED_EDGE('',*,*,#391,.T.);
#192=ORIENTED_EDGE('',*,*,#392,.F.);
#193=ORIENTED_EDGE('',*,*,#393,.F.);
#194=ORIENTED_EDGE('',*,*,#394,.F.);
#195=ORIENTED_EDGE('',*,*,#395,.F.);
#196=ORIENTED_EDGE('',*,*,#396,.F.);
#197=ORIENTED_EDGE('',*,*,#397,.F.);
#198=ORIENTED_EDGE('',*,*,#398,.F.);
#199=ORIENTED_EDGE('',*,*,#399,.F.);
#200=ORIENTED_EDGE('',*,*,#400,.F.);
#201=ORIENTED_EDGE('',*,*,#401,.T.);
#202=ORIENTED_EDGE('',*,*,#402,.T.);
#203=ORIENTED_EDGE('',*,*,#403,.T.);
#204=ORIENTED_EDGE('',*,*,#404,.T.);
#205=ORIENTED_EDGE('',*,*,#405,.T.);
#206=ORIENTED_EDGE('',*,*,#406,.T.);
#207=ORIENTED_EDGE('',*,*,#407,.T.);
#208=ORIENTED_EDGE('',*,*,#408,.T.);
#209=ORIENTED_EDGE('',*,*,#409,.T.);
#210=ORIENTED_EDGE('',*,*,#410,.T.);
#211=ORIENTED_EDGE('',*,*,#411,.T.);
#212=ORIENTED_EDGE('',*,*,#412,.F.);
#213=ORIENTED_EDGE('',*,*,#413,.T.);
#214=ORIENTED_EDGE('',*,*,#414,.T.);
#215=ORIENTED_EDGE('',*,*,#415,.T.);
#216=ORIENTED_EDGE('',*,*,#416,.F.);
#217=ORIENTED_EDGE('',*,*,#417,.F.);
#218=ORIENTED_EDGE('',*,*,#418,.T.);
#219=ORIENTED_EDGE('',*,*,#419,.T.);
#220=ORIENTED_EDGE('',*,*,#420,.F.);
#221=ORIENTED_EDGE('',*,*,#421,.T.);
#222=ORIENTED_EDGE('',*,*,#422,.T.);
#223=ORIENTED_EDGE('',*,*,#423,.T.);
#224=ORIENTED_EDGE('',*,*,#424,.F.);
#225=ORIENTED_EDGE('',*,*,#425,.F.);
#226=ORIENTED_EDGE('',*,*,#426,.F.);
#227=ORIENTED_EDGE('',*,*,#427,.F.);
#228=ORIENTED_EDGE('',*,*,#428,.F.);
#229=ORIENTED_EDGE('',*,*,#429,.T.);
#230=ORIENTED_EDGE('',*,*,#430,.T.);
#231=ORIENTED_EDGE('',*,*,#431,.T.);
#232=ORIENTED_EDGE('',*,*,#432,.T.);
#233=ORIENTED_EDGE('',*,*,#433,.T.);
#234=ORIENTED_EDGE('',*,*,#434,.T.);
#235=ORIENTED_EDGE('',*,*,#435,.T.);
#236=ORIENTED_EDGE('',*,*,#436,.T.);
#237=ORIENTED_EDGE('',*,*,#437,.T.);
#238=ORIENTED_EDGE('',*,*,#438,.F.);
#239=ORIENTED_EDGE('',*,*,#439,.F.);
#240=ORIENTED_EDGE('',*,*,#440,.F.);
#241=ORIENTED_EDGE('',*,*,#441,.F.);
#242=ORIENTED_EDGE('',*,*,#442,.F.);
#243=ORIENTED_EDGE('',*,*,#443,.F.);
#244=ORIENTED_EDGE('',*,*,#444,.F.);
#245=ORIENTED_EDGE('',*,*,#445,.T.);
#246=ORIENTED_EDGE('',*,*,#446,.F.);
#247=ORIENTED_EDGE('',*,*,#447,.F.);
#248=ORIENTED_EDGE('',*,*,#448,.F.);
#249=ORIENTED_EDGE('',*,*,#449,.T.);
#250=ORIENTED_EDGE('',*,*,#450,.F.);
#251=ORIENTED_EDGE('',*,*,#451,.F.);
#252=ORIENTED_EDGE('',*,*,#452,.T.);
#253=ORIENTED_EDGE('',*,*,#453,.T.);
#254=ORIENTED_EDGE('',*,*,#454,.F.);
#255=ORIENTED_EDGE('',*,*,#455,.F.);
#256=ORIENTED_EDGE('',*,*,#456,.F.);
#257=ORIENTED_EDGE('',*,*,#457,.T.);
#258=ORIENTED_EDGE('',*,*,#458,.F.);
#259=ORIENTED_EDGE('',*,*,#459,.F.);
#260=ORIENTED_EDGE('',*,*,#458,.T.);
#261=ORIENTED_EDGE('',*,*,#460,.T.);
#262=ORIENTED_EDGE('',*,*,#411,.F.);
#263=ORIENTED_EDGE('',*,*,#446,.T.);
#264=ORIENTED_EDGE('',*,*,#461,.T.);
#265=ORIENTED_EDGE('',*,*,#423,.F.);
#266=ORIENTED_EDGE('',*,*,#462,.F.);
#267=ORIENTED_EDGE('',*,*,#463,.F.);
#268=ORIENTED_EDGE('',*,*,#454,.T.);
#269=ORIENTED_EDGE('',*,*,#464,.F.);
#270=ORIENTED_EDGE('',*,*,#415,.F.);
#271=ORIENTED_EDGE('',*,*,#453,.F.);
#272=ORIENTED_EDGE('',*,*,#465,.F.);
#273=ORIENTED_EDGE('',*,*,#416,.T.);
#274=ORIENTED_EDGE('',*,*,#464,.T.);
#275=ORIENTED_EDGE('',*,*,#452,.F.);
#276=ORIENTED_EDGE('',*,*,#466,.F.);
#277=ORIENTED_EDGE('',*,*,#417,.T.);
#278=ORIENTED_EDGE('',*,*,#465,.T.);
#279=ORIENTED_EDGE('',*,*,#451,.T.);
#280=ORIENTED_EDGE('',*,*,#467,.F.);
#281=ORIENTED_EDGE('',*,*,#418,.F.);
#282=ORIENTED_EDGE('',*,*,#466,.T.);
#283=ORIENTED_EDGE('',*,*,#430,.F.);
#284=ORIENTED_EDGE('',*,*,#468,.F.);
#285=ORIENTED_EDGE('',*,*,#396,.T.);
#286=ORIENTED_EDGE('',*,*,#469,.T.);
#287=ORIENTED_EDGE('',*,*,#433,.F.);
#288=ORIENTED_EDGE('',*,*,#470,.F.);
#289=ORIENTED_EDGE('',*,*,#397,.T.);
#290=ORIENTED_EDGE('',*,*,#468,.T.);
#291=ORIENTED_EDGE('',*,*,#432,.F.);
#292=ORIENTED_EDGE('',*,*,#471,.F.);
#293=ORIENTED_EDGE('',*,*,#398,.T.);
#294=ORIENTED_EDGE('',*,*,#470,.T.);
#295=ORIENTED_EDGE('',*,*,#434,.F.);
#296=ORIENTED_EDGE('',*,*,#472,.F.);
#297=ORIENTED_EDGE('',*,*,#392,.T.);
#298=ORIENTED_EDGE('',*,*,#473,.T.);
#299=ORIENTED_EDGE('',*,*,#437,.F.);
#300=ORIENTED_EDGE('',*,*,#474,.F.);
#301=ORIENTED_EDGE('',*,*,#393,.T.);
#302=ORIENTED_EDGE('',*,*,#472,.T.);
#303=ORIENTED_EDGE('',*,*,#436,.F.);
#304=ORIENTED_EDGE('',*,*,#475,.F.);
#305=ORIENTED_EDGE('',*,*,#394,.T.);
#306=ORIENTED_EDGE('',*,*,#474,.T.);
#307=ORIENTED_EDGE('',*,*,#450,.T.);
#308=ORIENTED_EDGE('',*,*,#476,.T.);
#309=ORIENTED_EDGE('',*,*,#419,.F.);
#310=ORIENTED_EDGE('',*,*,#467,.T.);
#311=ORIENTED_EDGE('',*,*,#431,.F.);
#312=ORIENTED_EDGE('',*,*,#469,.F.);
#313=ORIENTED_EDGE('',*,*,#399,.T.);
#314=ORIENTED_EDGE('',*,*,#471,.T.);
#315=ORIENTED_EDGE('',*,*,#435,.F.);
#316=ORIENTED_EDGE('',*,*,#473,.F.);
#317=ORIENTED_EDGE('',*,*,#395,.T.);
#318=ORIENTED_EDGE('',*,*,#475,.T.);
#319=ORIENTED_EDGE('',*,*,#400,.T.);
#320=ORIENTED_EDGE('',*,*,#429,.F.);
#321=ORIENTED_EDGE('',*,*,#477,.T.);
#322=ORIENTED_EDGE('',*,*,#438,.T.);
#323=ORIENTED_EDGE('',*,*,#478,.F.);
#324=ORIENTED_EDGE('',*,*,#402,.F.);
#325=ORIENTED_EDGE('',*,*,#479,.T.);
#326=ORIENTED_EDGE('',*,*,#439,.T.);
#327=ORIENTED_EDGE('',*,*,#477,.F.);
#328=ORIENTED_EDGE('',*,*,#401,.F.);
#329=ORIENTED_EDGE('',*,*,#480,.T.);
#330=ORIENTED_EDGE('',*,*,#440,.T.);
#331=ORIENTED_EDGE('',*,*,#479,.F.);
#332=ORIENTED_EDGE('',*,*,#404,.F.);
#333=ORIENTED_EDGE('',*,*,#478,.T.);
#334=ORIENTED_EDGE('',*,*,#441,.T.);
#335=ORIENTED_EDGE('',*,*,#480,.F.);
#336=ORIENTED_EDGE('',*,*,#403,.F.);
#337=ORIENTED_EDGE('',*,*,#481,.T.);
#338=ORIENTED_EDGE('',*,*,#425,.T.);
#339=ORIENTED_EDGE('',*,*,#482,.F.);
#340=ORIENTED_EDGE('',*,*,#406,.F.);
#341=ORIENTED_EDGE('',*,*,#483,.T.);
#342=ORIENTED_EDGE('',*,*,#426,.T.);
#343=ORIENTED_EDGE('',*,*,#481,.F.);
#344=ORIENTED_EDGE('',*,*,#405,.F.);
#345=ORIENTED_EDGE('',*,*,#484,.T.);
#346=ORIENTED_EDGE('',*,*,#427,.T.);
#347=ORIENTED_EDGE('',*,*,#483,.F.);
#348=ORIENTED_EDGE('',*,*,#408,.F.);
#349=ORIENTED_EDGE('',*,*,#482,.T.);
#350=ORIENTED_EDGE('',*,*,#428,.T.);
#351=ORIENTED_EDGE('',*,*,#484,.F.);
#352=ORIENTED_EDGE('',*,*,#407,.F.);
#353=ORIENTED_EDGE('',*,*,#391,.F.);
#354=ORIENTED_EDGE('',*,*,#442,.T.);
#355=ORIENTED_EDGE('',*,*,#485,.T.);
#356=ORIENTED_EDGE('',*,*,#456,.T.);
#357=ORIENTED_EDGE('',*,*,#486,.F.);
#358=ORIENTED_EDGE('',*,*,#413,.F.);
#359=ORIENTED_EDGE('',*,*,#486,.T.);
#360=ORIENTED_EDGE('',*,*,#455,.T.);
#361=ORIENTED_EDGE('',*,*,#463,.T.);
#362=ORIENTED_EDGE('',*,*,#414,.F.);
#363=ORIENTED_EDGE('',*,*,#412,.T.);
#364=ORIENTED_EDGE('',*,*,#460,.F.);
#365=ORIENTED_EDGE('',*,*,#457,.F.);
#366=ORIENTED_EDGE('',*,*,#485,.F.);
#367=ORIENTED_EDGE('',*,*,#487,.T.);
#368=ORIENTED_EDGE('',*,*,#448,.T.);
#369=ORIENTED_EDGE('',*,*,#488,.F.);
#370=ORIENTED_EDGE('',*,*,#421,.F.);
#371=ORIENTED_EDGE('',*,*,#488,.T.);
#372=ORIENTED_EDGE('',*,*,#447,.T.);
#373=ORIENTED_EDGE('',*,*,#462,.T.);
#374=ORIENTED_EDGE('',*,*,#422,.F.);
#375=ORIENTED_EDGE('',*,*,#420,.T.);
#376=ORIENTED_EDGE('',*,*,#476,.F.);
#377=ORIENTED_EDGE('',*,*,#449,.F.);
#378=ORIENTED_EDGE('',*,*,#487,.F.);
#379=ORIENTED_EDGE('',*,*,#489,.T.);
#380=ORIENTED_EDGE('',*,*,#444,.T.);
#381=ORIENTED_EDGE('',*,*,#490,.F.);
#382=ORIENTED_EDGE('',*,*,#409,.F.);
#383=ORIENTED_EDGE('',*,*,#490,.T.);
#384=ORIENTED_EDGE('',*,*,#443,.T.);
#385=ORIENTED_EDGE('',*,*,#459,.T.);
#386=ORIENTED_EDGE('',*,*,#410,.F.);
#387=ORIENTED_EDGE('',*,*,#424,.T.);
#388=ORIENTED_EDGE('',*,*,#461,.F.);
#389=ORIENTED_EDGE('',*,*,#445,.F.);
#390=ORIENTED_EDGE('',*,*,#489,.F.);
#391=EDGE_CURVE('',#491,#491,#559,.F.);
#392=EDGE_CURVE('',#492,#493,#19,.T.);
#393=EDGE_CURVE('',#494,#492,#20,.T.);
#394=EDGE_CURVE('',#495,#494,#21,.T.);
#395=EDGE_CURVE('',#493,#495,#22,.T.);
#396=EDGE_CURVE('',#496,#497,#23,.T.);
#397=EDGE_CURVE('',#498,#496,#24,.T.);
#398=EDGE_CURVE('',#499,#498,#25,.T.);
#399=EDGE_CURVE('',#497,#499,#26,.T.);
#400=EDGE_CURVE('',#500,#500,#560,.T.);
#401=EDGE_CURVE('',#501,#502,#27,.T.);
#402=EDGE_CURVE('',#502,#503,#28,.T.);
#403=EDGE_CURVE('',#503,#504,#29,.T.);
#404=EDGE_CURVE('',#504,#501,#30,.T.);
#405=EDGE_CURVE('',#505,#506,#31,.T.);
#406=EDGE_CURVE('',#506,#507,#32,.T.);
#407=EDGE_CURVE('',#507,#508,#33,.T.);
#408=EDGE_CURVE('',#508,#505,#34,.T.);
#409=EDGE_CURVE('',#509,#510,#35,.T.);
#410=EDGE_CURVE('',#510,#511,#36,.T.);
#411=EDGE_CURVE('',#511,#512,#561,.T.);
#412=EDGE_CURVE('',#513,#512,#37,.T.);
#413=EDGE_CURVE('',#513,#514,#38,.T.);
#414=EDGE_CURVE('',#514,#515,#39,.T.);
#415=EDGE_CURVE('',#515,#516,#562,.T.);
#416=EDGE_CURVE('',#517,#516,#40,.T.);
#417=EDGE_CURVE('',#518,#517,#563,.T.);
#418=EDGE_CURVE('',#518,#519,#41,.T.);
#419=EDGE_CURVE('',#519,#520,#564,.T.);
#420=EDGE_CURVE('',#521,#520,#42,.T.);
#421=EDGE_CURVE('',#521,#522,#43,.T.);
#422=EDGE_CURVE('',#522,#523,#44,.T.);
#423=EDGE_CURVE('',#523,#524,#565,.T.);
#424=EDGE_CURVE('',#509,#524,#45,.T.);
#425=EDGE_CURVE('',#525,#526,#46,.T.);
#426=EDGE_CURVE('',#527,#525,#47,.T.);
#427=EDGE_CURVE('',#528,#527,#48,.T.);
#428=EDGE_CURVE('',#526,#528,#49,.T.);
#429=EDGE_CURVE('',#529,#529,#566,.T.);
#430=EDGE_CURVE('',#530,#531,#50,.T.);
#431=EDGE_CURVE('',#531,#532,#51,.T.);
#432=EDGE_CURVE('',#532,#533,#52,.T.);
#433=EDGE_CURVE('',#533,#530,#53,.T.);
#434=EDGE_CURVE('',#534,#535,#54,.T.);
#435=EDGE_CURVE('',#535,#536,#55,.T.);
#436=EDGE_CURVE('',#536,#537,#56,.T.);
#437=EDGE_CURVE('',#537,#534,#57,.T.);
#438=EDGE_CURVE('',#538,#539,#58,.T.);
#439=EDGE_CURVE('',#540,#538,#59,.T.);
#440=EDGE_CURVE('',#541,#540,#60,.T.);
#441=EDGE_CURVE('',#539,#541,#61,.T.);
#442=EDGE_CURVE('',#542,#542,#567,.F.);
#443=EDGE_CURVE('',#543,#544,#62,.T.);
#444=EDGE_CURVE('',#545,#543,#63,.T.);
#445=EDGE_CURVE('',#545,#546,#64,.T.);
#446=EDGE_CURVE('',#547,#546,#568,.T.);
#447=EDGE_CURVE('',#548,#547,#65,.T.);
#448=EDGE_CURVE('',#549,#548,#66,.T.);
#449=EDGE_CURVE('',#549,#550,#67,.T.);
#450=EDGE_CURVE('',#551,#550,#569,.T.);
#451=EDGE_CURVE('',#552,#551,#68,.T.);
#452=EDGE_CURVE('',#552,#553,#570,.T.);
#453=EDGE_CURVE('',#553,#554,#69,.T.);
#454=EDGE_CURVE('',#555,#554,#571,.T.);
#455=EDGE_CURVE('',#556,#555,#70,.T.);
#456=EDGE_CURVE('',#557,#556,#71,.T.);
#457=EDGE_CURVE('',#557,#558,#72,.T.);
#458=EDGE_CURVE('',#544,#558,#572,.T.);
#459=EDGE_CURVE('',#544,#511,#73,.F.);
#460=EDGE_CURVE('',#558,#512,#74,.F.);
#461=EDGE_CURVE('',#546,#524,#75,.F.);
#462=EDGE_CURVE('',#547,#523,#76,.F.);
#463=EDGE_CURVE('',#555,#515,#77,.F.);
#464=EDGE_CURVE('',#516,#554,#78,.T.);
#465=EDGE_CURVE('',#517,#553,#79,.T.);
#466=EDGE_CURVE('',#518,#552,#80,.T.);
#467=EDGE_CURVE('',#519,#551,#81,.T.);
#468=EDGE_CURVE('',#496,#530,#82,.T.);
#469=EDGE_CURVE('',#497,#531,#83,.T.);
#470=EDGE_CURVE('',#498,#533,#84,.T.);
#471=EDGE_CURVE('',#499,#532,#85,.T.);
#472=EDGE_CURVE('',#492,#534,#86,.T.);
#473=EDGE_CURVE('',#493,#535,#87,.T.);
#474=EDGE_CURVE('',#494,#537,#88,.T.);
#475=EDGE_CURVE('',#495,#536,#89,.T.);
#476=EDGE_CURVE('',#550,#520,#90,.F.);
#477=EDGE_CURVE('',#502,#538,#91,.T.);
#478=EDGE_CURVE('',#503,#539,#92,.T.);
#479=EDGE_CURVE('',#501,#540,#93,.T.);
#480=EDGE_CURVE('',#504,#541,#94,.T.);
#481=EDGE_CURVE('',#506,#525,#95,.T.);
#482=EDGE_CURVE('',#507,#526,#96,.T.);
#483=EDGE_CURVE('',#505,#527,#97,.T.);
#484=EDGE_CURVE('',#508,#528,#98,.T.);
#485=EDGE_CURVE('',#513,#557,#99,.T.);
#486=EDGE_CURVE('',#514,#556,#100,.T.);
#487=EDGE_CURVE('',#521,#549,#101,.T.);
#488=EDGE_CURVE('',#522,#548,#102,.T.);
#489=EDGE_CURVE('',#509,#545,#103,.T.);
#490=EDGE_CURVE('',#510,#543,#104,.T.);
#491=VERTEX_POINT('',#992);
#492=VERTEX_POINT('',#994);
#493=VERTEX_POINT('',#995);
#494=VERTEX_POINT('',#997);
#495=VERTEX_POINT('',#999);
#496=VERTEX_POINT('',#1002);
#497=VERTEX_POINT('',#1003);
#498=VERTEX_POINT('',#1005);
#499=VERTEX_POINT('',#1007);
#500=VERTEX_POINT('',#1010);
#501=VERTEX_POINT('',#1012);
#502=VERTEX_POINT('',#1013);
#503=VERTEX_POINT('',#1015);
#504=VERTEX_POINT('',#1017);
#505=VERTEX_POINT('',#1020);
#506=VERTEX_POINT('',#1021);
#507=VERTEX_POINT('',#1023);
#508=VERTEX_POINT('',#1025);
#509=VERTEX_POINT('',#1028);
#510=VERTEX_POINT('',#1029);
#511=VERTEX_POINT('',#1031);
#512=VERTEX_POINT('',#1033);
#513=VERTEX_POINT('',#1035);
#514=VERTEX_POINT('',#1037);
#515=VERTEX_POINT('',#1039);
#516=VERTEX_POINT('',#1041);
#517=VERTEX_POINT('',#1043);
#518=VERTEX_POINT('',#1045);
#519=VERTEX_POINT('',#1047);
#520=VERTEX_POINT('',#1049);
#521=VERTEX_POINT('',#1051);
#522=VERTEX_POINT('',#1053);
#523=VERTEX_POINT('',#1055);
#524=VERTEX_POINT('',#1057);
#525=VERTEX_POINT('',#1061);
#526=VERTEX_POINT('',#1062);
#527=VERTEX_POINT('',#1064);
#528=VERTEX_POINT('',#1066);
#529=VERTEX_POINT('',#1069);
#530=VERTEX_POINT('',#1071);
#531=VERTEX_POINT('',#1072);
#532=VERTEX_POINT('',#1074);
#533=VERTEX_POINT('',#1076);
#534=VERTEX_POINT('',#1079);
#535=VERTEX_POINT('',#1080);
#536=VERTEX_POINT('',#1082);
#537=VERTEX_POINT('',#1084);
#538=VERTEX_POINT('',#1087);
#539=VERTEX_POINT('',#1088);
#540=VERTEX_POINT('',#1090);
#541=VERTEX_POINT('',#1092);
#542=VERTEX_POINT('',#1095);
#543=VERTEX_POINT('',#1097);
#544=VERTEX_POINT('',#1098);
#545=VERTEX_POINT('',#1100);
#546=VERTEX_POINT('',#1102);
#547=VERTEX_POINT('',#1104);
#548=VERTEX_POINT('',#1106);
#549=VERTEX_POINT('',#1108);
#550=VERTEX_POINT('',#1110);
#551=VERTEX_POINT('',#1112);
#552=VERTEX_POINT('',#1114);
#553=VERTEX_POINT('',#1116);
#554=VERTEX_POINT('',#1118);
#555=VERTEX_POINT('',#1120);
#556=VERTEX_POINT('',#1122);
#557=VERTEX_POINT('',#1124);
#558=VERTEX_POINT('',#1126);
#559=CIRCLE('',#752,0.002);
#560=CIRCLE('',#753,0.002);
#561=CIRCLE('',#754,0.0661);
#562=CIRCLE('',#755,0.0661);
#563=CIRCLE('',#756,0.05715);
#564=CIRCLE('',#757,0.0661);
#565=CIRCLE('',#758,0.0661);
#566=CIRCLE('',#760,0.002);
#567=CIRCLE('',#761,0.002);
#568=CIRCLE('',#762,0.0661);
#569=CIRCLE('',#763,0.0661);
#570=CIRCLE('',#764,0.05715);
#571=CIRCLE('',#765,0.0661);
#572=CIRCLE('',#766,0.0661);
#573=EDGE_LOOP('',(#191));
#574=EDGE_LOOP('',(#192,#193,#194,#195));
#575=EDGE_LOOP('',(#196,#197,#198,#199));
#576=EDGE_LOOP('',(#200));
#577=EDGE_LOOP('',(#201,#202,#203,#204));
#578=EDGE_LOOP('',(#205,#206,#207,#208));
#579=EDGE_LOOP('',(#209,#210,#211,#212,#213,#214,#215,#216,#217,#218,#219,
#220,#221,#222,#223,#224));
#580=EDGE_LOOP('',(#225,#226,#227,#228));
#581=EDGE_LOOP('',(#229));
#582=EDGE_LOOP('',(#230,#231,#232,#233));
#583=EDGE_LOOP('',(#234,#235,#236,#237));
#584=EDGE_LOOP('',(#238,#239,#240,#241));
#585=EDGE_LOOP('',(#242));
#586=EDGE_LOOP('',(#243,#244,#245,#246,#247,#248,#249,#250,#251,#252,#253,
#254,#255,#256,#257,#258));
#587=EDGE_LOOP('',(#259,#260,#261,#262));
#588=EDGE_LOOP('',(#263,#264,#265,#266));
#589=EDGE_LOOP('',(#267,#268,#269,#270));
#590=EDGE_LOOP('',(#271,#272,#273,#274));
#591=EDGE_LOOP('',(#275,#276,#277,#278));
#592=EDGE_LOOP('',(#279,#280,#281,#282));
#593=EDGE_LOOP('',(#283,#284,#285,#286));
#594=EDGE_LOOP('',(#287,#288,#289,#290));
#595=EDGE_LOOP('',(#291,#292,#293,#294));
#596=EDGE_LOOP('',(#295,#296,#297,#298));
#597=EDGE_LOOP('',(#299,#300,#301,#302));
#598=EDGE_LOOP('',(#303,#304,#305,#306));
#599=EDGE_LOOP('',(#307,#308,#309,#310));
#600=EDGE_LOOP('',(#311,#312,#313,#314));
#601=EDGE_LOOP('',(#315,#316,#317,#318));
#602=EDGE_LOOP('',(#319));
#603=EDGE_LOOP('',(#320));
#604=EDGE_LOOP('',(#321,#322,#323,#324));
#605=EDGE_LOOP('',(#325,#326,#327,#328));
#606=EDGE_LOOP('',(#329,#330,#331,#332));
#607=EDGE_LOOP('',(#333,#334,#335,#336));
#608=EDGE_LOOP('',(#337,#338,#339,#340));
#609=EDGE_LOOP('',(#341,#342,#343,#344));
#610=EDGE_LOOP('',(#345,#346,#347,#348));
#611=EDGE_LOOP('',(#349,#350,#351,#352));
#612=EDGE_LOOP('',(#353));
#613=EDGE_LOOP('',(#354));
#614=EDGE_LOOP('',(#355,#356,#357,#358));
#615=EDGE_LOOP('',(#359,#360,#361,#362));
#616=EDGE_LOOP('',(#363,#364,#365,#366));
#617=EDGE_LOOP('',(#367,#368,#369,#370));
#618=EDGE_LOOP('',(#371,#372,#373,#374));
#619=EDGE_LOOP('',(#375,#376,#377,#378));
#620=EDGE_LOOP('',(#379,#380,#381,#382));
#621=EDGE_LOOP('',(#383,#384,#385,#386));
#622=EDGE_LOOP('',(#387,#388,#389,#390));
#623=FACE_BOUND('',#573,.T.);
#624=FACE_BOUND('',#574,.T.);
#625=FACE_BOUND('',#575,.T.);
#626=FACE_BOUND('',#576,.T.);
#627=FACE_BOUND('',#577,.T.);
#628=FACE_BOUND('',#578,.T.);
#629=FACE_BOUND('',#579,.T.);
#630=FACE_BOUND('',#580,.T.);
#631=FACE_BOUND('',#581,.T.);
#632=FACE_BOUND('',#582,.T.);
#633=FACE_BOUND('',#583,.T.);
#634=FACE_BOUND('',#584,.T.);
#635=FACE_BOUND('',#585,.T.);
#636=FACE_BOUND('',#586,.T.);
#637=FACE_BOUND('',#587,.T.);
#638=FACE_BOUND('',#588,.T.);
#639=FACE_BOUND('',#589,.T.);
#640=FACE_BOUND('',#590,.T.);
#641=FACE_BOUND('',#591,.T.);
#642=FACE_BOUND('',#592,.T.);
#643=FACE_BOUND('',#593,.T.);
#644=FACE_BOUND('',#594,.T.);
#645=FACE_BOUND('',#595,.T.);
#646=FACE_BOUND('',#596,.T.);
#647=FACE_BOUND('',#597,.T.);
#648=FACE_BOUND('',#598,.T.);
#649=FACE_BOUND('',#599,.T.);
#650=FACE_BOUND('',#600,.T.);
#651=FACE_BOUND('',#601,.T.);
#652=FACE_BOUND('',#602,.T.);
#653=FACE_BOUND('',#603,.T.);
#654=FACE_BOUND('',#604,.T.);
#655=FACE_BOUND('',#605,.T.);
#656=FACE_BOUND('',#606,.T.);
#657=FACE_BOUND('',#607,.T.);
#658=FACE_BOUND('',#608,.T.);
#659=FACE_BOUND('',#609,.T.);
#660=FACE_BOUND('',#610,.T.);
#661=FACE_BOUND('',#611,.T.);
#662=FACE_BOUND('',#612,.T.);
#663=FACE_BOUND('',#613,.T.);
#664=FACE_BOUND('',#614,.T.);
#665=FACE_BOUND('',#615,.T.);
#666=FACE_BOUND('',#616,.T.);
#667=FACE_BOUND('',#617,.T.);
#668=FACE_BOUND('',#618,.T.);
#669=FACE_BOUND('',#619,.T.);
#670=FACE_BOUND('',#620,.T.);
#671=FACE_BOUND('',#621,.T.);
#672=FACE_BOUND('',#622,.T.);
#673=PLANE('',#751);
#674=PLANE('',#759);
#675=PLANE('',#770);
#676=PLANE('',#772);
#677=PLANE('',#773);
#678=PLANE('',#774);
#679=PLANE('',#775);
#680=PLANE('',#776);
#681=PLANE('',#777);
#682=PLANE('',#778);
#683=PLANE('',#780);
#684=PLANE('',#781);
#685=PLANE('',#783);
#686=PLANE('',#784);
#687=PLANE('',#785);
#688=PLANE('',#786);
#689=PLANE('',#787);
#690=PLANE('',#788);
#691=PLANE('',#789);
#692=PLANE('',#790);
#693=PLANE('',#792);
#694=PLANE('',#793);
#695=PLANE('',#794);
#696=PLANE('',#795);
#697=PLANE('',#796);
#698=PLANE('',#797);
#699=PLANE('',#798);
#700=PLANE('',#799);
#701=PLANE('',#800);
#702=ADVANCED_FACE('',(#623,#624,#625,#626,#627,#628,#629),#673,.T.);
#703=ADVANCED_FACE('',(#630,#631,#632,#633,#634,#635,#636),#674,.F.);
#704=ADVANCED_FACE('',(#637),#12,.T.);
#705=ADVANCED_FACE('',(#638),#13,.T.);
#706=ADVANCED_FACE('',(#639),#14,.T.);
#707=ADVANCED_FACE('',(#640),#675,.T.);
#708=ADVANCED_FACE('',(#641),#15,.F.);
#709=ADVANCED_FACE('',(#642),#676,.F.);
#710=ADVANCED_FACE('',(#643),#677,.T.);
#711=ADVANCED_FACE('',(#644),#678,.T.);
#712=ADVANCED_FACE('',(#645),#679,.T.);
#713=ADVANCED_FACE('',(#646),#680,.T.);
#714=ADVANCED_FACE('',(#647),#681,.T.);
#715=ADVANCED_FACE('',(#648),#682,.T.);
#716=ADVANCED_FACE('',(#649),#16,.T.);
#717=ADVANCED_FACE('',(#650),#683,.T.);
#718=ADVANCED_FACE('',(#651),#684,.T.);
#719=ADVANCED_FACE('',(#652,#653),#17,.F.);
#720=ADVANCED_FACE('',(#654),#685,.T.);
#721=ADVANCED_FACE('',(#655),#686,.T.);
#722=ADVANCED_FACE('',(#656),#687,.T.);
#723=ADVANCED_FACE('',(#657),#688,.T.);
#724=ADVANCED_FACE('',(#658),#689,.T.);
#725=ADVANCED_FACE('',(#659),#690,.T.);
#726=ADVANCED_FACE('',(#660),#691,.T.);
#727=ADVANCED_FACE('',(#661),#692,.T.);
#728=ADVANCED_FACE('',(#662,#663),#18,.F.);
#729=ADVANCED_FACE('',(#664),#693,.T.);
#730=ADVANCED_FACE('',(#665),#694,.T.);
#731=ADVANCED_FACE('',(#666),#695,.F.);
#732=ADVANCED_FACE('',(#667),#696,.T.);
#733=ADVANCED_FACE('',(#668),#697,.T.);
#734=ADVANCED_FACE('',(#669),#698,.F.);
#735=ADVANCED_FACE('',(#670),#699,.T.);
#736=ADVANCED_FACE('',(#671),#700,.T.);
#737=ADVANCED_FACE('',(#672),#701,.F.);
#738=CLOSED_SHELL('',(#702,#703,#704,#705,#706,#707,#708,#709,#710,#711,
#712,#713,#714,#715,#716,#717,#718,#719,#720,#721,#722,#723,#724,#725,#726,
#727,#728,#729,#730,#731,#732,#733,#734,#735,#736,#737));
#739=STYLED_ITEM('',(#740),#747);
#740=PRESENTATION_STYLE_ASSIGNMENT((#741));
#741=SURFACE_STYLE_USAGE(.BOTH.,#742);
#742=SURFACE_SIDE_STYLE('',(#743));
#743=SURFACE_STYLE_FILL_AREA(#744);
#744=FILL_AREA_STYLE('',(#745));
#745=FILL_AREA_STYLE_COLOUR('',#746);
#746=COLOUR_RGB('',0.647058823529412,0.647058823529412,0.647058823529412);
#747=MANIFOLD_SOLID_BREP('Hull Half Ring',#738);
#748=SHAPE_DEFINITION_REPRESENTATION(#1200,#749);
#749=SHAPE_REPRESENTATION('Hull Half Ring',(#750),#1195);
#750=AXIS2_PLACEMENT_3D('',#989,#801,#802);
#751=AXIS2_PLACEMENT_3D('',#990,#803,#804);
#752=AXIS2_PLACEMENT_3D('',#991,#805,#806);
#753=AXIS2_PLACEMENT_3D('',#1009,#815,#816);
#754=AXIS2_PLACEMENT_3D('',#1032,#827,#828);
#755=AXIS2_PLACEMENT_3D('',#1040,#832,#833);
#756=AXIS2_PLACEMENT_3D('',#1044,#835,#836);
#757=AXIS2_PLACEMENT_3D('',#1048,#838,#839);
#758=AXIS2_PLACEMENT_3D('',#1056,#843,#844);
#759=AXIS2_PLACEMENT_3D('',#1059,#846,#847);
#760=AXIS2_PLACEMENT_3D('',#1068,#852,#853);
#761=AXIS2_PLACEMENT_3D('',#1094,#866,#867);
#762=AXIS2_PLACEMENT_3D('',#1103,#871,#872);
#763=AXIS2_PLACEMENT_3D('',#1111,#876,#877);
#764=AXIS2_PLACEMENT_3D('',#1115,#879,#880);
#765=AXIS2_PLACEMENT_3D('',#1119,#882,#883);
#766=AXIS2_PLACEMENT_3D('',#1127,#887,#888);
#767=AXIS2_PLACEMENT_3D('',#1128,#889,#890);
#768=AXIS2_PLACEMENT_3D('',#1131,#893,#894);
#769=AXIS2_PLACEMENT_3D('',#1134,#897,#898);
#770=AXIS2_PLACEMENT_3D('',#1137,#901,#902);
#771=AXIS2_PLACEMENT_3D('',#1139,#904,#905);
#772=AXIS2_PLACEMENT_3D('',#1141,#907,#908);
#773=AXIS2_PLACEMENT_3D('',#1143,#910,#911);
#774=AXIS2_PLACEMENT_3D('',#1146,#914,#915);
#775=AXIS2_PLACEMENT_3D('',#1148,#917,#918);
#776=AXIS2_PLACEMENT_3D('',#1150,#920,#921);
#777=AXIS2_PLACEMENT_3D('',#1153,#924,#925);
#778=AXIS2_PLACEMENT_3D('',#1155,#927,#928);
#779=AXIS2_PLACEMENT_3D('',#1157,#930,#931);
#780=AXIS2_PLACEMENT_3D('',#1159,#933,#934);
#781=AXIS2_PLACEMENT_3D('',#1160,#935,#936);
#782=AXIS2_PLACEMENT_3D('',#1161,#937,#938);
#783=AXIS2_PLACEMENT_3D('',#1162,#939,#940);
#784=AXIS2_PLACEMENT_3D('',#1165,#943,#944);
#785=AXIS2_PLACEMENT_3D('',#1167,#946,#947);
#786=AXIS2_PLACEMENT_3D('',#1169,#949,#950);
#787=AXIS2_PLACEMENT_3D('',#1170,#951,#952);
#788=AXIS2_PLACEMENT_3D('',#1173,#955,#956);
#789=AXIS2_PLACEMENT_3D('',#1175,#958,#959);
#790=AXIS2_PLACEMENT_3D('',#1177,#961,#962);
#791=AXIS2_PLACEMENT_3D('',#1178,#963,#964);
#792=AXIS2_PLACEMENT_3D('',#1179,#965,#966);
#793=AXIS2_PLACEMENT_3D('',#1182,#969,#970);
#794=AXIS2_PLACEMENT_3D('',#1183,#971,#972);
#795=AXIS2_PLACEMENT_3D('',#1184,#973,#974);
#796=AXIS2_PLACEMENT_3D('',#1187,#977,#978);
#797=AXIS2_PLACEMENT_3D('',#1188,#979,#980);
#798=AXIS2_PLACEMENT_3D('',#1189,#981,#982);
#799=AXIS2_PLACEMENT_3D('',#1192,#985,#986);
#800=AXIS2_PLACEMENT_3D('',#1193,#987,#988);
#801=DIRECTION('',(0.,0.,1.));
#802=DIRECTION('',(1.,0.,0.));
#803=DIRECTION('',(0.,-1.,0.));
#804=DIRECTION('',(1.,0.,0.));
#805=DIRECTION('',(0.,-1.,0.));
#806=DIRECTION('',(0.,0.,-1.));
#807=DIRECTION('',(0.965925826289068,0.,-0.258819045102521));
#808=DIRECTION('',(-0.773678065763132,0.,-0.633578922121797));
#809=DIRECTION('',(-0.965925826289068,0.,0.258819045102521));
#810=DIRECTION('',(-0.353235398240781,0.,0.935534474741405));
#811=DIRECTION('',(0.707106781186548,0.,-0.707106781186548));
#812=DIRECTION('',(-0.986814320362579,0.,-0.161856408978273));
#813=DIRECTION('',(-0.707106781186548,0.,0.707106781186547));
#814=DIRECTION('',(0.161856408978274,0.,0.986814320362579));
#815=DIRECTION('',(0.,-1.,0.));
#816=DIRECTION('',(0.,0.,-1.));
#817=DIRECTION('',(-0.707106781186547,0.,-0.707106781186548));
#818=DIRECTION('',(-0.161856408978274,0.,0.986814320362579));
#819=DIRECTION('',(0.707106781186547,0.,0.707106781186548));
#820=DIRECTION('',(0.986814320362579,0.,-0.161856408978272));
#821=DIRECTION('',(-0.965925826289068,0.,-0.258819045102522));
#822=DIRECTION('',(0.353235398240781,0.,0.935534474741405));
#823=DIRECTION('',(0.965925826289068,0.,0.258819045102521));
#824=DIRECTION('',(0.773678065763133,0.,-0.633578922121797));
#825=DIRECTION('',(-1.,0.,0.));
#826=DIRECTION('',(-9.42784497813489E-17,0.,1.));
#827=DIRECTION('',(0.,-1.,0.));
#828=DIRECTION('',(0.,0.,-1.));
#829=DIRECTION('',(-0.866025403784439,0.,0.5));
#830=DIRECTION('',(-0.5,0.,-0.866025403784439));
#831=DIRECTION('',(-0.866025403784439,0.,0.5));
#832=DIRECTION('',(0.,-1.,0.));
#833=DIRECTION('',(0.,0.,-1.));
#834=DIRECTION('',(-0.923879532511287,0.,0.38268343236509));
#835=DIRECTION('',(0.,-1.,0.));
#836=DIRECTION('',(0.,0.,-1.));
#837=DIRECTION('',(0.923879532511287,0.,0.382683432365091));
#838=DIRECTION('',(0.,-1.,0.));
#839=DIRECTION('',(0.,0.,-1.));
#840=DIRECTION('',(0.866025403784439,0.,0.5));
#841=DIRECTION('',(-0.5,0.,0.866025403784439));
#842=DIRECTION('',(0.866025403784439,0.,0.5));
#843=DIRECTION('',(0.,-1.,0.));
#844=DIRECTION('',(0.,0.,-1.));
#845=DIRECTION('',(-9.42784497813489E-17,0.,1.));
#846=DIRECTION('',(0.,-1.,0.));
#847=DIRECTION('',(1.,0.,0.));
#848=DIRECTION('',(0.353235398240781,0.,0.935534474741405));
#849=DIRECTION('',(-0.965925826289068,0.,-0.258819045102522));
#850=DIRECTION('',(0.773678065763133,0.,-0.633578922121797));
#851=DIRECTION('',(0.965925826289068,0.,0.258819045102521));
#852=DIRECTION('',(0.,-1.,0.));
#853=DIRECTION('',(0.,0.,-1.));
#854=DIRECTION('',(0.707106781186548,0.,-0.707106781186548));
#855=DIRECTION('',(0.161856408978274,0.,0.986814320362579));
#856=DIRECTION('',(-0.707106781186548,0.,0.707106781186547));
#857=DIRECTION('',(-0.986814320362579,0.,-0.161856408978273));
#858=DIRECTION('',(0.965925826289068,0.,-0.258819045102521));
#859=DIRECTION('',(-0.353235398240781,0.,0.935534474741405));
#860=DIRECTION('',(-0.965925826289068,0.,0.258819045102521));
#861=DIRECTION('',(-0.773678065763132,0.,-0.633578922121797));
#862=DIRECTION('',(-0.161856408978274,0.,0.986814320362579));
#863=DIRECTION('',(-0.707106781186547,0.,-0.707106781186548));
#864=DIRECTION('',(0.986814320362579,0.,-0.161856408978272));
#865=DIRECTION('',(0.707106781186547,0.,0.707106781186548));
#866=DIRECTION('',(0.,-1.,0.));
#867=DIRECTION('',(0.,0.,-1.));
#868=DIRECTION('',(-9.42784497813489E-17,0.,1.));
#869=DIRECTION('',(-1.,0.,0.));
#870=DIRECTION('',(-9.42784497813489E-17,0.,1.));
#871=DIRECTION('',(0.,-1.,0.));
#872=DIRECTION('',(0.,0.,-1.));
#873=DIRECTION('',(0.866025403784439,0.,0.5));
#874=DIRECTION('',(-0.5,0.,0.866025403784439));
#875=DIRECTION('',(0.866025403784439,0.,0.5));
#876=DIRECTION('',(0.,-1.,0.));
#877=DIRECTION('',(0.,0.,-1.));
#878=DIRECTION('',(0.923879532511287,0.,0.382683432365091));
#879=DIRECTION('',(0.,-1.,0.));
#880=DIRECTION('',(0.,0.,-1.));
#881=DIRECTION('',(-0.923879532511287,0.,0.38268343236509));
#882=DIRECTION('',(0.,-1.,0.));
#883=DIRECTION('',(0.,0.,-1.));
#884=DIRECTION('',(-0.866025403784439,0.,0.5));
#885=DIRECTION('',(-0.5,0.,-0.866025403784439));
#886=DIRECTION('',(-0.866025403784439,0.,0.5));
#887=DIRECTION('',(0.,-1.,0.));
#888=DIRECTION('',(0.,0.,-1.));
#889=DIRECTION('',(0.,1.,0.));
#890=DIRECTION('',(0.,0.,1.));
#891=DIRECTION('',(0.,1.,0.));
#892=DIRECTION('',(0.,1.,0.));
#893=DIRECTION('',(0.,1.,0.));
#894=DIRECTION('',(0.,0.,1.));
#895=DIRECTION('',(0.,1.,0.));
#896=DIRECTION('',(0.,1.,0.));
#897=DIRECTION('',(0.,1.,0.));
#898=DIRECTION('',(0.,0.,1.));
#899=DIRECTION('',(0.,1.,0.));
#900=DIRECTION('',(0.,1.,0.));
#901=DIRECTION('',(-0.38268343236509,0.,-0.923879532511287));
#902=DIRECTION('',(-0.923879532511287,0.,0.38268343236509));
#903=DIRECTION('',(0.,1.,0.));
#904=DIRECTION('',(0.,1.,0.));
#905=DIRECTION('',(0.,0.,1.));
#906=DIRECTION('',(0.,1.,0.));
#907=DIRECTION('',(-0.382683432365091,0.,0.923879532511287));
#908=DIRECTION('',(0.923879532511287,0.,0.382683432365091));
#909=DIRECTION('',(0.,1.,0.));
#910=DIRECTION('',(0.707106781186548,0.,0.707106781186548));
#911=DIRECTION('',(0.707106781186548,0.,-0.707106781186548));
#912=DIRECTION('',(0.,1.,0.));
#913=DIRECTION('',(0.,1.,0.));
#914=DIRECTION('',(0.161856408978273,0.,-0.986814320362579));
#915=DIRECTION('',(-0.986814320362579,0.,-0.161856408978273));
#916=DIRECTION('',(0.,1.,0.));
#917=DIRECTION('',(-0.707106781186547,0.,-0.707106781186548));
#918=DIRECTION('',(-0.707106781186548,0.,0.707106781186547));
#919=DIRECTION('',(0.,1.,0.));
#920=DIRECTION('',(0.258819045102521,0.,0.965925826289068));
#921=DIRECTION('',(0.965925826289068,0.,-0.258819045102521));
#922=DIRECTION('',(0.,1.,0.));
#923=DIRECTION('',(0.,1.,0.));
#924=DIRECTION('',(0.633578922121797,0.,-0.773678065763132));
#925=DIRECTION('',(-0.773678065763132,0.,-0.633578922121797));
#926=DIRECTION('',(0.,1.,0.));
#927=DIRECTION('',(-0.258819045102521,0.,-0.965925826289068));
#928=DIRECTION('',(-0.965925826289068,0.,0.258819045102521));
#929=DIRECTION('',(0.,1.,0.));
#930=DIRECTION('',(0.,1.,0.));
#931=DIRECTION('',(0.,0.,1.));
#932=DIRECTION('',(0.,1.,0.));
#933=DIRECTION('',(-0.986814320362578,0.,0.161856408978274));
#934=DIRECTION('',(0.161856408978274,0.,0.986814320362578));
#935=DIRECTION('',(-0.935534474741405,0.,-0.353235398240781));
#936=DIRECTION('',(-0.353235398240781,0.,0.935534474741405));
#937=DIRECTION('',(0.,1.,0.));
#938=DIRECTION('',(0.,0.,1.));
#939=DIRECTION('',(0.986814320362579,0.,0.161856408978274));
#940=DIRECTION('',(0.161856408978274,0.,-0.986814320362579));
#941=DIRECTION('',(0.,1.,0.));
#942=DIRECTION('',(0.,1.,0.));
#943=DIRECTION('',(-0.707106781186548,0.,0.707106781186547));
#944=DIRECTION('',(0.707106781186547,0.,0.707106781186548));
#945=DIRECTION('',(0.,1.,0.));
#946=DIRECTION('',(-0.161856408978272,0.,-0.986814320362579));
#947=DIRECTION('',(-0.986814320362579,0.,0.161856408978272));
#948=DIRECTION('',(0.,1.,0.));
#949=DIRECTION('',(0.707106781186548,0.,-0.707106781186547));
#950=DIRECTION('',(-0.707106781186547,0.,-0.707106781186548));
#951=DIRECTION('',(0.935534474741405,0.,-0.353235398240781));
#952=DIRECTION('',(-0.353235398240781,0.,-0.935534474741405));
#953=DIRECTION('',(0.,1.,0.));
#954=DIRECTION('',(0.,1.,0.));
#955=DIRECTION('',(-0.258819045102522,0.,0.965925826289068));
#956=DIRECTION('',(0.965925826289068,0.,0.258819045102522));
#957=DIRECTION('',(0.,1.,0.));
#958=DIRECTION('',(-0.633578922121797,0.,-0.773678065763133));
#959=DIRECTION('',(-0.773678065763133,0.,0.633578922121797));
#960=DIRECTION('',(0.,1.,0.));
#961=DIRECTION('',(0.258819045102521,0.,-0.965925826289068));
#962=DIRECTION('',(-0.965925826289068,0.,-0.258819045102521));
#963=DIRECTION('',(0.,1.,0.));
#964=DIRECTION('',(-0.866025403784439,0.,0.5));
#965=DIRECTION('',(-0.866025403784439,0.,0.5));
#966=DIRECTION('',(0.5,0.,0.866025403784439));
#967=DIRECTION('',(0.,1.,0.));
#968=DIRECTION('',(0.,1.,0.));
#969=DIRECTION('',(0.5,0.,0.866025403784439));
#970=DIRECTION('',(0.866025403784439,0.,-0.5));
#971=DIRECTION('',(0.5,0.,0.866025403784439));
#972=DIRECTION('',(0.866025403784439,0.,-0.5));
#973=DIRECTION('',(0.866025403784439,0.,0.5));
#974=DIRECTION('',(0.5,0.,-0.866025403784439));
#975=DIRECTION('',(0.,1.,0.));
#976=DIRECTION('',(0.,1.,0.));
#977=DIRECTION('',(0.5,0.,-0.866025403784439));
#978=DIRECTION('',(-0.866025403784439,0.,-0.5));
#979=DIRECTION('',(0.5,0.,-0.866025403784439));
#980=DIRECTION('',(-0.866025403784439,0.,-0.5));
#981=DIRECTION('',(0.,0.,1.));
#982=DIRECTION('',(1.,0.,0.));
#983=DIRECTION('',(0.,1.,0.));
#984=DIRECTION('',(0.,1.,0.));
#985=DIRECTION('',(1.,0.,9.42784497813489E-17));
#986=DIRECTION('',(9.42784497813489E-17,0.,-1.));
#987=DIRECTION('',(1.,0.,9.42784497813489E-17));
#988=DIRECTION('',(9.42784497813489E-17,0.,-1.));
#989=CARTESIAN_POINT('',(0.,0.,0.));
#990=CARTESIAN_POINT('',(0.,-0.004,0.));
#991=CARTESIAN_POINT('',(-0.031,-0.004,0.0536935750346352));
#992=CARTESIAN_POINT('',(-0.031,-0.004,0.0516935750346352));
#993=CARTESIAN_POINT('',(0.0152734188376874,-0.004,0.0570011751075288));
#994=CARTESIAN_POINT('',(0.00561416057479666,-0.004,0.059589365558554));
#995=CARTESIAN_POINT('',(0.0249326771005781,-0.004,0.0544129846565036));
#996=CARTESIAN_POINT('',(0.00793519477208605,-0.004,0.0614901023249194));
#997=CARTESIAN_POINT('',(0.0102562289693754,-0.004,0.0633908390912848));
#998=CARTESIAN_POINT('',(0.0165347468402544,-0.004,0.0617085152981184));
#999=CARTESIAN_POINT('',(0.0228132647111333,-0.004,0.060026191504952));
#1000=CARTESIAN_POINT('',(0.0238729709058557,-0.004,0.0572195880807278));
#1001=CARTESIAN_POINT('',(0.0417277562698415,-0.004,0.0417277562698415));
#1002=CARTESIAN_POINT('',(0.034656688457976,-0.004,0.0487988240817069));
#1003=CARTESIAN_POINT('',(0.0487988240817069,-0.004,0.034656688457976));
#1004=CARTESIAN_POINT('',(0.0376171314190637,-0.004,0.0492843933086418));
#1005=CARTESIAN_POINT('',(0.0405775743801515,-0.004,0.0497699625355766));
#1006=CARTESIAN_POINT('',(0.045173768457864,-0.004,0.045173768457864));
#1007=CARTESIAN_POINT('',(0.0497699625355766,-0.004,0.0405775743801515));
#1008=CARTESIAN_POINT('',(0.0492843933086417,-0.004,0.0376171314190637));
#1009=CARTESIAN_POINT('',(0.031,-0.004,0.0536935750346352));
#1010=CARTESIAN_POINT('',(0.031,-0.004,0.0516935750346352));
#1011=CARTESIAN_POINT('',(-0.0417277562698415,-0.004,0.0417277562698414));
#1012=CARTESIAN_POINT('',(-0.034656688457976,-0.004,0.0487988240817069));
#1013=CARTESIAN_POINT('',(-0.048798824081707,-0.004,0.0346566884579759));
#1014=CARTESIAN_POINT('',(-0.0419849737326376,-0.004,-0.00688633812784054));
#1015=CARTESIAN_POINT('',(-0.0497699625355766,-0.004,0.0405775743801514));
#1016=CARTESIAN_POINT('',(-0.045173768457864,-0.004,0.045173768457864));
#1017=CARTESIAN_POINT('',(-0.0405775743801515,-0.004,0.0497699625355765));
#1018=CARTESIAN_POINT('',(0.00688633812784045,-0.004,0.0419849737326376));
#1019=CARTESIAN_POINT('',(-0.0152734188376874,-0.004,0.0570011751075288));
#1020=CARTESIAN_POINT('',(-0.0056141605747967,-0.004,0.059589365558554));
#1021=CARTESIAN_POINT('',(-0.0249326771005781,-0.004,0.0544129846565036));
#1022=CARTESIAN_POINT('',(-0.0398032228936068,-0.004,0.0150287431085596));
#1023=CARTESIAN_POINT('',(-0.0228132647111334,-0.004,0.060026191504952));
#1024=CARTESIAN_POINT('',(-0.0165347468402544,-0.004,0.0617085152981184));
#1025=CARTESIAN_POINT('',(-0.0102562289693755,-0.004,0.0633908390912848));
#1026=CARTESIAN_POINT('',(0.026956230624078,-0.004,0.0329168847657663));
#1027=CARTESIAN_POINT('',(0.,-0.004,0.0615));
#1028=CARTESIAN_POINT('',(0.0015,-0.004,0.0615));
#1029=CARTESIAN_POINT('',(-0.0015,-0.004,0.0615));
#1030=CARTESIAN_POINT('',(-0.0015,-0.004,-1.41417674672023E-19));
#1031=CARTESIAN_POINT('',(-0.0015,-0.004,0.0660829781411219));
#1032=CARTESIAN_POINT('',(9.0205620750794E-17,-0.004,0.));
#1033=CARTESIAN_POINT('',(-0.0564795378279433,-0.004,0.0343405271762375));
#1034=CARTESIAN_POINT('',(0.00075,-0.004,0.00129903810567666));
#1035=CARTESIAN_POINT('',(-0.052510562332743,-0.004,0.0320490381056766));
#1036=CARTESIAN_POINT('',(-0.053260562332743,-0.004,0.03075));
#1037=CARTESIAN_POINT('',(-0.054010562332743,-0.004,0.0294509618943233));
#1038=CARTESIAN_POINT('',(-0.00075,-0.004,-0.00129903810567665));
#1039=CARTESIAN_POINT('',(-0.0579795378279433,-0.004,0.0317424509648842));
#1040=CARTESIAN_POINT('',(9.0205620750794E-17,-0.004,0.));
#1041=CARTESIAN_POINT('',(-0.0610684370989961,-0.004,0.0252953748793323));
#1042=CARTESIAN_POINT('',(-0.0569340761910081,-0.004,0.0235828665194986));
#1043=CARTESIAN_POINT('',(-0.0527997152830201,-0.004,0.0218703581596648));
#1044=CARTESIAN_POINT('',(6.93889390390723E-18,-0.004,-5.20417042793042E-18));
#1045=CARTESIAN_POINT('',(0.05279971528302,-0.004,0.0218703581596649));
#1046=CARTESIAN_POINT('',(0.056934076191008,-0.004,0.0235828665194987));
#1047=CARTESIAN_POINT('',(0.061068437098996,-0.004,0.0252953748793324));
#1048=CARTESIAN_POINT('',(9.0205620750794E-17,-0.004,0.));
#1049=CARTESIAN_POINT('',(0.0579795378279434,-0.004,0.0317424509648843));
#1050=CARTESIAN_POINT('',(0.00075,-0.004,-0.00129903810567666));
#1051=CARTESIAN_POINT('',(0.054010562332743,-0.004,0.0294509618943234));
#1052=CARTESIAN_POINT('',(0.053260562332743,-0.004,0.03075));
#1053=CARTESIAN_POINT('',(0.052510562332743,-0.004,0.0320490381056767));
#1054=CARTESIAN_POINT('',(-0.00075,-0.004,0.00129903810567666));
#1055=CARTESIAN_POINT('',(0.0564795378279434,-0.004,0.0343405271762377));
#1056=CARTESIAN_POINT('',(9.0205620750794E-17,-0.004,0.));
#1057=CARTESIAN_POINT('',(0.0015,-0.004,0.0660829781411219));
#1058=CARTESIAN_POINT('',(0.0015,-0.004,1.41417674672024E-19));
#1059=CARTESIAN_POINT('',(0.,0.,0.));
#1060=CARTESIAN_POINT('',(-0.0398032228936068,0.,0.0150287431085596));
#1061=CARTESIAN_POINT('',(-0.0249326771005781,0.,0.0544129846565036));
#1062=CARTESIAN_POINT('',(-0.0228132647111334,0.,0.060026191504952));
#1063=CARTESIAN_POINT('',(-0.0152734188376874,0.,0.0570011751075288));
#1064=CARTESIAN_POINT('',(-0.0056141605747967,0.,0.059589365558554));
#1065=CARTESIAN_POINT('',(0.026956230624078,0.,0.0329168847657663));
#1066=CARTESIAN_POINT('',(-0.0102562289693755,0.,0.0633908390912848));
#1067=CARTESIAN_POINT('',(-0.0165347468402544,0.,0.0617085152981184));
#1068=CARTESIAN_POINT('',(0.031,0.,0.0536935750346352));
#1069=CARTESIAN_POINT('',(0.031,0.,0.0516935750346352));
#1070=CARTESIAN_POINT('',(0.0417277562698415,0.,0.0417277562698415));
#1071=CARTESIAN_POINT('',(0.034656688457976,0.,0.0487988240817069));
#1072=CARTESIAN_POINT('',(0.0487988240817069,0.,0.034656688457976));
#1073=CARTESIAN_POINT('',(0.0492843933086417,0.,0.0376171314190637));
#1074=CARTESIAN_POINT('',(0.0497699625355766,0.,0.0405775743801515));
#1075=CARTESIAN_POINT('',(0.045173768457864,0.,0.045173768457864));
#1076=CARTESIAN_POINT('',(0.0405775743801515,0.,0.0497699625355766));
#1077=CARTESIAN_POINT('',(0.0376171314190637,0.,0.0492843933086418));
#1078=CARTESIAN_POINT('',(0.0152734188376874,0.,0.0570011751075288));
#1079=CARTESIAN_POINT('',(0.00561416057479666,0.,0.059589365558554));
#1080=CARTESIAN_POINT('',(0.0249326771005781,0.,0.0544129846565036));
#1081=CARTESIAN_POINT('',(0.0238729709058557,0.,0.0572195880807278));
#1082=CARTESIAN_POINT('',(0.0228132647111333,0.,0.060026191504952));
#1083=CARTESIAN_POINT('',(0.0165347468402544,0.,0.0617085152981184));
#1084=CARTESIAN_POINT('',(0.0102562289693754,0.,0.0633908390912848));
#1085=CARTESIAN_POINT('',(0.00793519477208605,0.,0.0614901023249194));
#1086=CARTESIAN_POINT('',(-0.0419849737326376,0.,-0.00688633812784054));
#1087=CARTESIAN_POINT('',(-0.048798824081707,0.,0.0346566884579759));
#1088=CARTESIAN_POINT('',(-0.0497699625355766,0.,0.0405775743801514));
#1089=CARTESIAN_POINT('',(-0.0417277562698415,0.,0.0417277562698414));
#1090=CARTESIAN_POINT('',(-0.034656688457976,0.,0.0487988240817069));
#1091=CARTESIAN_POINT('',(0.00688633812784045,0.,0.0419849737326376));
#1092=CARTESIAN_POINT('',(-0.0405775743801515,0.,0.0497699625355765));
#1093=CARTESIAN_POINT('',(-0.045173768457864,0.,0.045173768457864));
#1094=CARTESIAN_POINT('',(-0.031,0.,0.0536935750346352));
#1095=CARTESIAN_POINT('',(-0.031,0.,0.0516935750346352));
#1096=CARTESIAN_POINT('',(-0.0015,0.,-1.41417674672023E-19));
#1097=CARTESIAN_POINT('',(-0.0015,0.,0.0615));
#1098=CARTESIAN_POINT('',(-0.0015,0.,0.0660829781411219));
#1099=CARTESIAN_POINT('',(0.,0.,0.0615));
#1100=CARTESIAN_POINT('',(0.0015,0.,0.0615));
#1101=CARTESIAN_POINT('',(0.0015,0.,1.41417674672024E-19));
#1102=CARTESIAN_POINT('',(0.0015,0.,0.0660829781411219));
#1103=CARTESIAN_POINT('',(9.0205620750794E-17,0.,0.));
#1104=CARTESIAN_POINT('',(0.0564795378279434,0.,0.0343405271762377));
#1105=CARTESIAN_POINT('',(-0.00075,0.,0.00129903810567666));
#1106=CARTESIAN_POINT('',(0.052510562332743,0.,0.0320490381056767));
#1107=CARTESIAN_POINT('',(0.053260562332743,0.,0.03075));
#1108=CARTESIAN_POINT('',(0.054010562332743,0.,0.0294509618943234));
#1109=CARTESIAN_POINT('',(0.00075,0.,-0.00129903810567666));
#1110=CARTESIAN_POINT('',(0.0579795378279434,0.,0.0317424509648843));
#1111=CARTESIAN_POINT('',(9.0205620750794E-17,0.,0.));
#1112=CARTESIAN_POINT('',(0.061068437098996,0.,0.0252953748793324));
#1113=CARTESIAN_POINT('',(0.056934076191008,0.,0.0235828665194987));
#1114=CARTESIAN_POINT('',(0.05279971528302,0.,0.0218703581596649));
#1115=CARTESIAN_POINT('',(6.93889390390723E-18,0.,-5.20417042793042E-18));
#1116=CARTESIAN_POINT('',(-0.0527997152830201,0.,0.0218703581596648));
#1117=CARTESIAN_POINT('',(-0.0569340761910081,0.,0.0235828665194986));
#1118=CARTESIAN_POINT('',(-0.0610684370989961,0.,0.0252953748793323));
#1119=CARTESIAN_POINT('',(9.0205620750794E-17,0.,0.));
#1120=CARTESIAN_POINT('',(-0.0579795378279433,0.,0.0317424509648842));
#1121=CARTESIAN_POINT('',(-0.00075,0.,-0.00129903810567665));
#1122=CARTESIAN_POINT('',(-0.054010562332743,0.,0.0294509618943233));
#1123=CARTESIAN_POINT('',(-0.053260562332743,0.,0.03075));
#1124=CARTESIAN_POINT('',(-0.052510562332743,0.,0.0320490381056766));
#1125=CARTESIAN_POINT('',(0.00075,0.,0.00129903810567666));
#1126=CARTESIAN_POINT('',(-0.0564795378279433,0.,0.0343405271762375));
#1127=CARTESIAN_POINT('',(9.0205620750794E-17,0.,0.));
#1128=CARTESIAN_POINT('',(9.0205620750794E-17,-0.004,0.));
#1129=CARTESIAN_POINT('',(-0.0015,-0.004,0.0660829781411219));
#1130=CARTESIAN_POINT('',(-0.0564795378279433,-0.004,0.0343405271762375));
#1131=CARTESIAN_POINT('',(9.0205620750794E-17,-0.004,0.));
#1132=CARTESIAN_POINT('',(0.0015,-0.004,0.0660829781411219));
#1133=CARTESIAN_POINT('',(0.0564795378279434,-0.004,0.0343405271762377));
#1134=CARTESIAN_POINT('',(9.0205620750794E-17,-0.004,0.));
#1135=CARTESIAN_POINT('',(-0.0579795378279433,-0.004,0.0317424509648842));
#1136=CARTESIAN_POINT('',(-0.0610684370989961,-0.004,0.0252953748793323));
#1137=CARTESIAN_POINT('',(-0.0569340761910081,-0.004,0.0235828665194986));
#1138=CARTESIAN_POINT('',(-0.0527997152830201,-0.004,0.0218703581596648));
#1139=CARTESIAN_POINT('',(6.93889390390723E-18,-0.004,-5.20417042793042E-18));
#1140=CARTESIAN_POINT('',(0.05279971528302,-0.004,0.0218703581596649));
#1141=CARTESIAN_POINT('',(0.056934076191008,-0.004,0.0235828665194987));
#1142=CARTESIAN_POINT('',(0.061068437098996,-0.004,0.0252953748793324));
#1143=CARTESIAN_POINT('',(0.0417277562698415,-0.004,0.0417277562698415));
#1144=CARTESIAN_POINT('',(0.034656688457976,-0.004,0.0487988240817069));
#1145=CARTESIAN_POINT('',(0.0487988240817069,-0.004,0.034656688457976));
#1146=CARTESIAN_POINT('',(0.0376171314190637,-0.004,0.0492843933086418));
#1147=CARTESIAN_POINT('',(0.0405775743801515,-0.004,0.0497699625355766));
#1148=CARTESIAN_POINT('',(0.045173768457864,-0.004,0.045173768457864));
#1149=CARTESIAN_POINT('',(0.0497699625355766,-0.004,0.0405775743801515));
#1150=CARTESIAN_POINT('',(0.0152734188376874,-0.004,0.0570011751075288));
#1151=CARTESIAN_POINT('',(0.00561416057479666,-0.004,0.059589365558554));
#1152=CARTESIAN_POINT('',(0.0249326771005781,-0.004,0.0544129846565036));
#1153=CARTESIAN_POINT('',(0.00793519477208605,-0.004,0.0614901023249194));
#1154=CARTESIAN_POINT('',(0.0102562289693754,-0.004,0.0633908390912848));
#1155=CARTESIAN_POINT('',(0.0165347468402544,-0.004,0.0617085152981184));
#1156=CARTESIAN_POINT('',(0.0228132647111333,-0.004,0.060026191504952));
#1157=CARTESIAN_POINT('',(9.0205620750794E-17,-0.004,0.));
#1158=CARTESIAN_POINT('',(0.0579795378279434,-0.004,0.0317424509648843));
#1159=CARTESIAN_POINT('',(0.0492843933086417,-0.004,0.0376171314190637));
#1160=CARTESIAN_POINT('',(0.0238729709058557,-0.004,0.0572195880807278));
#1161=CARTESIAN_POINT('',(0.031,-0.004,0.0536935750346352));
#1162=CARTESIAN_POINT('',(-0.0492843933086418,-0.0125,0.0376171314190637));
#1163=CARTESIAN_POINT('',(-0.048798824081707,-0.0125,0.0346566884579759));
#1164=CARTESIAN_POINT('',(-0.0497699625355766,-0.0125,0.0405775743801514));
#1165=CARTESIAN_POINT('',(-0.0417277562698415,-0.0125,0.0417277562698414));
#1166=CARTESIAN_POINT('',(-0.034656688457976,-0.0125,0.0487988240817069));
#1167=CARTESIAN_POINT('',(-0.0376171314190638,-0.0125,0.0492843933086417));
#1168=CARTESIAN_POINT('',(-0.0405775743801515,-0.0125,0.0497699625355765));
#1169=CARTESIAN_POINT('',(-0.045173768457864,-0.0125,0.045173768457864));
#1170=CARTESIAN_POINT('',(-0.0238729709058557,-0.0125,0.0572195880807278));
#1171=CARTESIAN_POINT('',(-0.0249326771005781,-0.0125,0.0544129846565036));
#1172=CARTESIAN_POINT('',(-0.0228132647111334,-0.0125,0.060026191504952));
#1173=CARTESIAN_POINT('',(-0.0152734188376874,-0.0125,0.0570011751075288));
#1174=CARTESIAN_POINT('',(-0.0056141605747967,-0.0125,0.059589365558554));
#1175=CARTESIAN_POINT('',(-0.00793519477208611,-0.0125,0.0614901023249194));
#1176=CARTESIAN_POINT('',(-0.0102562289693755,-0.0125,0.0633908390912848));
#1177=CARTESIAN_POINT('',(-0.0165347468402544,-0.0125,0.0617085152981184));
#1178=CARTESIAN_POINT('',(-0.031,-0.0125,0.0536935750346352));
#1179=CARTESIAN_POINT('',(-0.053260562332743,-0.0125,0.03075));
#1180=CARTESIAN_POINT('',(-0.052510562332743,-0.0125,0.0320490381056766));
#1181=CARTESIAN_POINT('',(-0.054010562332743,-0.0125,0.0294509618943233));
#1182=CARTESIAN_POINT('',(-0.0560024207614472,-0.0125,0.0306009618943233));
#1183=CARTESIAN_POINT('',(-0.0545024207614472,-0.0125,0.0331990381056766));
#1184=CARTESIAN_POINT('',(0.053260562332743,-0.0125,0.03075));
#1185=CARTESIAN_POINT('',(0.054010562332743,-0.0125,0.0294509618943234));
#1186=CARTESIAN_POINT('',(0.052510562332743,-0.0125,0.0320490381056767));
#1187=CARTESIAN_POINT('',(0.0545024207614472,-0.0125,0.0331990381056767));
#1188=CARTESIAN_POINT('',(0.0560024207614472,-0.0125,0.0306009618943234));
#1189=CARTESIAN_POINT('',(0.,-0.0125,0.0615));
#1190=CARTESIAN_POINT('',(0.0015,-0.0125,0.0615));
#1191=CARTESIAN_POINT('',(-0.0015,-0.0125,0.0615));
#1192=CARTESIAN_POINT('',(-0.0015,-0.0125,0.0638));
#1193=CARTESIAN_POINT('',(0.0015,-0.0125,0.0638));
#1194=MECHANICAL_DESIGN_GEOMETRIC_PRESENTATION_REPRESENTATION('',(#739),
#1195);
#1195=(
GEOMETRIC_REPRESENTATION_CONTEXT(3)
GLOBAL_UNCERTAINTY_ASSIGNED_CONTEXT((#1196))
GLOBAL_UNIT_ASSIGNED_CONTEXT((#1199,#1198,#1197))
REPRESENTATION_CONTEXT('Hull Half Ring','TOP_LEVEL_ASSEMBLY_PART')
);
#1196=UNCERTAINTY_MEASURE_WITH_UNIT(LENGTH_MEASURE(1.E-8),#1199,
'DISTANCE_ACCURACY_VALUE','Maximum Tolerance applied to model');
#1197=(
NAMED_UNIT(*)
SI_UNIT($,.STERADIAN.)
SOLID_ANGLE_UNIT()
);
#1198=(
NAMED_UNIT(*)
PLANE_ANGLE_UNIT()
SI_UNIT($,.RADIAN.)
);
#1199=(
LENGTH_UNIT()
NAMED_UNIT(*)
SI_UNIT($,.METRE.)
);
#1200=PRODUCT_DEFINITION_SHAPE('','',#1201);
#1201=PRODUCT_DEFINITION('','',#1203,#1202);
#1202=PRODUCT_DEFINITION_CONTEXT('',#1209,'design');
#1203=PRODUCT_DEFINITION_FORMATION_WITH_SPECIFIED_SOURCE('','',#1205,
 .NOT_KNOWN.);
#1204=PRODUCT_RELATED_PRODUCT_CATEGORY('','',(#1205));
#1205=PRODUCT('Hull Half Ring','Hull Half Ring','Hull Half Ring',(#1207));
#1206=PRODUCT_CATEGORY('','');
#1207=PRODUCT_CONTEXT('',#1209,'mechanical');
#1208=APPLICATION_PROTOCOL_DEFINITION('international standard',
'ap242_managed_model_based_3d_engineering',2020,#1209);
#1209=APPLICATION_CONTEXT('managed model based 3d engineering');
ENDSEC;
END-ISO-10303-21;
