ISO-10303-21;
HEADER;
/* Generated by software containing ST-Developer
 * from STEP Tools, Inc. (www.steptools.com) 
 */
/* OPTION: using custom renumber hook */

FILE_DESCRIPTION(
/* description */ ('STEP AP242 Edition 2',
'CAx-IF Rec.Pracs.---Representation and Presentation of Product Manufa
cturing Information (PMI)---4.0---2014-10-13',
'CAx-IF Rec.Pracs.---3D Tessellated Geometry---0.4---2014-09-14','2;1',
'CAx-IF Rec.Pracs.---User Defined Attributes---1.5---2016-08-15'),
/* implementation_level */ '2;1');

FILE_NAME(
/* name */ 'Buldge Shell - Hull to PVC',
/* time_stamp */ '2026-08-23T20:28:59Z',
/* author */ (''),
/* organization */ (''),
/* preprocessor_version */ 'ST-DEVELOPER v20',
/* originating_system */ 'ONSHAPE BY PTC INC, 1.219',
/* authorisation */ '  ');

FILE_SCHEMA (('AP242_MANAGED_MODEL_BASED_3D_ENGINEERING_MIM_LF { 1 0 10303 442 3 1 4 }'));
ENDSEC;

DATA;
#10=SHAPE_REPRESENTATION_RELATIONSHIP('','',#332,#11);
#11=ADVANCED_BREP_SHAPE_REPRESENTATION('',(#330),#687);
#12=B_SPLINE_SURFACE_WITH_KNOTS('',3,3,((#567,#568,#569,#570,#571,#572,
#573,#574,#575,#576,#577,#578,#579,#580,#581,#582,#583,#584,#585),(#586,
#587,#588,#589,#590,#591,#592,#593,#594,#595,#596,#597,#598,#599,#600,#601,
#602,#603,#604),(#605,#606,#607,#608,#609,#610,#611,#612,#613,#614,#615,
#616,#617,#618,#619,#620,#621,#622,#623),(#624,#625,#626,#627,#628,#629,
#630,#631,#632,#633,#634,#635,#636,#637,#638,#639,#640,#641,#642),(#643,
#644,#645,#646,#647,#648,#649,#650,#651,#652,#653,#654,#655,#656,#657,#658,
#659,#660,#661)),.UNSPECIFIED.,.F.,.T.,.F.,(4,1,4),(1,1,1,1,1,1,1,1,1,1,
1,1,1,1,1,1,1,1,1,1,1,1,1),(0.,0.5,1.),(-1.17809724509617,-0.785398163397448,
-0.392699081698725,0.,0.392699081698724,0.785398163397448,1.17809724509617,
1.5707963267949,1.96349540849362,2.35619449019234,2.74889357189107,3.14159265358979,
3.53429173528852,3.92699081698724,4.31968989868597,4.71238898038469,5.10508806208341,
5.49778714378214,5.89048622548086,6.28318530717959,6.67588438887831,7.06858347057703,
7.46128255227576),.UNSPECIFIED.);
#13=CONICAL_SURFACE('',#343,0.05715,0.123651636125735);
#14=LINE('',#490,#29);
#15=LINE('',#492,#30);
#16=LINE('',#494,#31);
#17=LINE('',#498,#32);
#18=LINE('',#500,#33);
#19=LINE('',#502,#34);
#20=LINE('',#506,#35);
#21=LINE('',#508,#36);
#22=LINE('',#510,#37);
#23=LINE('',#665,#38);
#24=LINE('',#666,#39);
#25=LINE('',#672,#40);
#26=LINE('',#673,#41);
#27=LINE('',#679,#42);
#28=LINE('',#680,#43);
#29=VECTOR('',#380,1.);
#30=VECTOR('',#381,1.);
#31=VECTOR('',#382,1.);
#32=VECTOR('',#385,1.);
#33=VECTOR('',#386,1.);
#34=VECTOR('',#387,1.);
#35=VECTOR('',#390,1.);
#36=VECTOR('',#391,1.);
#37=VECTOR('',#392,1.);
#38=VECTOR('',#409,1.);
#39=VECTOR('',#410,1.);
#40=VECTOR('',#419,1.);
#41=VECTOR('',#420,1.);
#42=VECTOR('',#429,1.);
#43=VECTOR('',#430,1.);
#44=PLANE('',#337);
#45=PLANE('',#339);
#46=PLANE('',#347);
#47=PLANE('',#349);
#48=PLANE('',#351);
#49=PLANE('',#352);
#50=PLANE('',#353);
#51=PLANE('',#355);
#52=PLANE('',#356);
#53=PLANE('',#357);
#54=PLANE('',#359);
#55=PLANE('',#360);
#56=B_SPLINE_CURVE_WITH_KNOTS('',3,(#447,#448,#449,#450,#451,#452,#453,
#454,#455,#456,#457),.UNSPECIFIED.,.T.,.F.,(1,1,1,1,1,1,1,1,1,1,1,1,1,1,
1),(-0.00293079245759117,-0.00195386163839412,-0.000976930819197058,0.,
0.000976930819197058,0.00195386163839412,0.00293079245759117,0.00390772327678823,
0.00488465409598529,0.00586158491518235,0.00683851573437941,0.00781544655357647,
0.00879237737277352,0.00976930819197058,0.0107462390111676),
 .UNSPECIFIED.);
#57=B_SPLINE_CURVE_WITH_KNOTS('',3,(#459,#460,#461,#462,#463,#464,#465,
#466,#467,#468,#469),.UNSPECIFIED.,.T.,.F.,(1,1,1,1,1,1,1,1,1,1,1,1,1,1,
1),(-0.00293079245759116,-0.0019538616383941,-0.000976930819197052,0.,0.000976930819197052,
0.0019538616383941,0.00293079245759116,0.00390772327678821,0.00488465409598526,
0.00586158491518231,0.00683851573437937,0.00781544655357642,0.00879237737277347,
0.00976930819197052,0.0107462390111676),.UNSPECIFIED.);
#58=B_SPLINE_CURVE_WITH_KNOTS('',3,(#471,#472,#473,#474,#475,#476,#477,
#478,#479,#480,#481),.UNSPECIFIED.,.T.,.F.,(1,1,1,1,1,1,1,1,1,1,1,1,1,1,
1),(-0.00293079245759113,-0.00195386163839409,-0.000976930819197043,0.,
0.000976930819197043,0.00195386163839409,0.00293079245759113,0.00390772327678817,
0.00488465409598521,0.00586158491518226,0.0068385157343793,0.00781544655357634,
0.00879237737277339,0.00976930819197043,0.0107462390111675),
 .UNSPECIFIED.);
#59=B_SPLINE_CURVE_WITH_KNOTS('',3,(#512,#513,#514,#515),.UNSPECIFIED.,
 .F.,.F.,(4,4),(1.05143636051813E-6,0.0327394682751732),.UNSPECIFIED.);
#60=B_SPLINE_CURVE_WITH_KNOTS('',3,(#517,#518,#519,#520,#521,#522),
 .UNSPECIFIED.,.F.,.F.,(4,1,1,4),(2.54149083755343E-7,0.00180895164499887,
0.00361764914091398,0.0072350441327442),.UNSPECIFIED.);
#61=B_SPLINE_CURVE_WITH_KNOTS('',3,(#524,#525,#526,#527),.UNSPECIFIED.,
 .F.,.F.,(4,4),(1.14321401800465E-6,0.0327395600528305),.UNSPECIFIED.);
#62=B_SPLINE_CURVE_WITH_KNOTS('',3,(#528,#529,#530,#531),.UNSPECIFIED.,
 .F.,.F.,(4,4),(1.29434377328794E-6,0.0327397111825854),.UNSPECIFIED.);
#63=B_SPLINE_CURVE_WITH_KNOTS('',3,(#533,#534,#535,#536,#537),
 .UNSPECIFIED.,.F.,.F.,(4,1,4),(0.0749420431387611,0.0785462015243767,0.0821503599099924),
 .UNSPECIFIED.);
#64=B_SPLINE_CURVE_WITH_KNOTS('',3,(#539,#540,#541,#542),.UNSPECIFIED.,
 .F.,.F.,(4,4),(1.29434377328794E-6,0.0327397111825854),.UNSPECIFIED.);
#65=B_SPLINE_CURVE_WITH_KNOTS('',3,(#543,#544,#545,#546),.UNSPECIFIED.,
 .F.,.F.,(4,4),(1.14321401800465E-6,0.0327395600528305),.UNSPECIFIED.);
#66=B_SPLINE_CURVE_WITH_KNOTS('',3,(#548,#549,#550,#551,#552,#553),
 .UNSPECIFIED.,.F.,.F.,(4,1,1,4),(2.54149083755343E-7,0.00180895164499887,
0.00361764914091398,0.0072350441327442),.UNSPECIFIED.);
#67=B_SPLINE_CURVE_WITH_KNOTS('',3,(#555,#556,#557,#558),.UNSPECIFIED.,
 .F.,.F.,(4,4),(1.05143636051813E-6,0.0327394682751731),.UNSPECIFIED.);
#68=ORIENTED_EDGE('',*,*,#146,.F.);
#69=ORIENTED_EDGE('',*,*,#147,.T.);
#70=ORIENTED_EDGE('',*,*,#148,.F.);
#71=ORIENTED_EDGE('',*,*,#149,.F.);
#72=ORIENTED_EDGE('',*,*,#150,.F.);
#73=ORIENTED_EDGE('',*,*,#147,.F.);
#74=ORIENTED_EDGE('',*,*,#151,.T.);
#75=ORIENTED_EDGE('',*,*,#146,.T.);
#76=ORIENTED_EDGE('',*,*,#152,.F.);
#77=ORIENTED_EDGE('',*,*,#153,.F.);
#78=ORIENTED_EDGE('',*,*,#154,.F.);
#79=ORIENTED_EDGE('',*,*,#155,.T.);
#80=ORIENTED_EDGE('',*,*,#156,.F.);
#81=ORIENTED_EDGE('',*,*,#157,.F.);
#82=ORIENTED_EDGE('',*,*,#158,.F.);
#83=ORIENTED_EDGE('',*,*,#159,.T.);
#84=ORIENTED_EDGE('',*,*,#160,.F.);
#85=ORIENTED_EDGE('',*,*,#161,.F.);
#86=ORIENTED_EDGE('',*,*,#162,.F.);
#87=ORIENTED_EDGE('',*,*,#163,.T.);
#88=ORIENTED_EDGE('',*,*,#164,.F.);
#89=ORIENTED_EDGE('',*,*,#165,.T.);
#90=ORIENTED_EDGE('',*,*,#166,.T.);
#91=ORIENTED_EDGE('',*,*,#152,.T.);
#92=ORIENTED_EDGE('',*,*,#167,.F.);
#93=ORIENTED_EDGE('',*,*,#168,.T.);
#94=ORIENTED_EDGE('',*,*,#169,.T.);
#95=ORIENTED_EDGE('',*,*,#160,.T.);
#96=ORIENTED_EDGE('',*,*,#170,.F.);
#97=ORIENTED_EDGE('',*,*,#171,.T.);
#98=ORIENTED_EDGE('',*,*,#172,.T.);
#99=ORIENTED_EDGE('',*,*,#156,.T.);
#100=ORIENTED_EDGE('',*,*,#173,.F.);
#101=ORIENTED_EDGE('',*,*,#174,.F.);
#102=ORIENTED_EDGE('',*,*,#173,.T.);
#103=ORIENTED_EDGE('',*,*,#174,.T.);
#104=ORIENTED_EDGE('',*,*,#175,.F.);
#105=ORIENTED_EDGE('',*,*,#175,.T.);
#106=ORIENTED_EDGE('',*,*,#151,.F.);
#107=ORIENTED_EDGE('',*,*,#176,.F.);
#108=ORIENTED_EDGE('',*,*,#168,.F.);
#109=ORIENTED_EDGE('',*,*,#177,.T.);
#110=ORIENTED_EDGE('',*,*,#162,.T.);
#111=ORIENTED_EDGE('',*,*,#178,.F.);
#112=ORIENTED_EDGE('',*,*,#177,.F.);
#113=ORIENTED_EDGE('',*,*,#167,.T.);
#114=ORIENTED_EDGE('',*,*,#163,.F.);
#115=ORIENTED_EDGE('',*,*,#169,.F.);
#116=ORIENTED_EDGE('',*,*,#178,.T.);
#117=ORIENTED_EDGE('',*,*,#161,.T.);
#118=ORIENTED_EDGE('',*,*,#179,.F.);
#119=ORIENTED_EDGE('',*,*,#171,.F.);
#120=ORIENTED_EDGE('',*,*,#180,.T.);
#121=ORIENTED_EDGE('',*,*,#158,.T.);
#122=ORIENTED_EDGE('',*,*,#181,.F.);
#123=ORIENTED_EDGE('',*,*,#180,.F.);
#124=ORIENTED_EDGE('',*,*,#170,.T.);
#125=ORIENTED_EDGE('',*,*,#159,.F.);
#126=ORIENTED_EDGE('',*,*,#172,.F.);
#127=ORIENTED_EDGE('',*,*,#181,.T.);
#128=ORIENTED_EDGE('',*,*,#157,.T.);
#129=ORIENTED_EDGE('',*,*,#182,.F.);
#130=ORIENTED_EDGE('',*,*,#165,.F.);
#131=ORIENTED_EDGE('',*,*,#183,.T.);
#132=ORIENTED_EDGE('',*,*,#154,.T.);
#133=ORIENTED_EDGE('',*,*,#184,.F.);
#134=ORIENTED_EDGE('',*,*,#183,.F.);
#135=ORIENTED_EDGE('',*,*,#164,.T.);
#136=ORIENTED_EDGE('',*,*,#155,.F.);
#137=ORIENTED_EDGE('',*,*,#166,.F.);
#138=ORIENTED_EDGE('',*,*,#184,.T.);
#139=ORIENTED_EDGE('',*,*,#153,.T.);
#140=ORIENTED_EDGE('',*,*,#182,.T.);
#141=ORIENTED_EDGE('',*,*,#149,.T.);
#142=ORIENTED_EDGE('',*,*,#179,.T.);
#143=ORIENTED_EDGE('',*,*,#148,.T.);
#144=ORIENTED_EDGE('',*,*,#176,.T.);
#145=ORIENTED_EDGE('',*,*,#150,.T.);
#146=EDGE_CURVE('',#185,#185,#215,.T.);
#147=EDGE_CURVE('',#186,#186,#216,.T.);
#148=EDGE_CURVE('',#187,#187,#56,.T.);
#149=EDGE_CURVE('',#188,#188,#57,.T.);
#150=EDGE_CURVE('',#189,#189,#58,.T.);
#151=EDGE_CURVE('',#190,#190,#217,.T.);
#152=EDGE_CURVE('',#191,#192,#218,.T.);
#153=EDGE_CURVE('',#193,#191,#14,.T.);
#154=EDGE_CURVE('',#194,#193,#15,.T.);
#155=EDGE_CURVE('',#194,#195,#16,.T.);
#156=EDGE_CURVE('',#196,#195,#219,.T.);
#157=EDGE_CURVE('',#197,#196,#17,.T.);
#158=EDGE_CURVE('',#198,#197,#18,.T.);
#159=EDGE_CURVE('',#198,#199,#19,.T.);
#160=EDGE_CURVE('',#200,#199,#220,.T.);
#161=EDGE_CURVE('',#201,#200,#20,.T.);
#162=EDGE_CURVE('',#202,#201,#21,.T.);
#163=EDGE_CURVE('',#202,#192,#22,.T.);
#164=EDGE_CURVE('',#203,#195,#59,.T.);
#165=EDGE_CURVE('',#203,#204,#60,.T.);
#166=EDGE_CURVE('',#204,#191,#61,.T.);
#167=EDGE_CURVE('',#205,#192,#62,.T.);
#168=EDGE_CURVE('',#205,#206,#63,.T.);
#169=EDGE_CURVE('',#206,#200,#64,.T.);
#170=EDGE_CURVE('',#207,#199,#65,.T.);
#171=EDGE_CURVE('',#207,#208,#66,.T.);
#172=EDGE_CURVE('',#208,#196,#67,.T.);
#173=EDGE_CURVE('',#209,#209,#221,.T.);
#174=EDGE_CURVE('',#210,#210,#222,.T.);
#175=EDGE_CURVE('',#211,#211,#223,.T.);
#176=EDGE_CURVE('',#212,#212,#224,.F.);
#177=EDGE_CURVE('',#205,#202,#23,.T.);
#178=EDGE_CURVE('',#206,#201,#24,.T.);
#179=EDGE_CURVE('',#213,#213,#225,.F.);
#180=EDGE_CURVE('',#207,#198,#25,.T.);
#181=EDGE_CURVE('',#208,#197,#26,.T.);
#182=EDGE_CURVE('',#214,#214,#226,.F.);
#183=EDGE_CURVE('',#203,#194,#27,.T.);
#184=EDGE_CURVE('',#204,#193,#28,.T.);
#185=VERTEX_POINT('',#444);
#186=VERTEX_POINT('',#446);
#187=VERTEX_POINT('',#458);
#188=VERTEX_POINT('',#470);
#189=VERTEX_POINT('',#482);
#190=VERTEX_POINT('',#485);
#191=VERTEX_POINT('',#488);
#192=VERTEX_POINT('',#489);
#193=VERTEX_POINT('',#491);
#194=VERTEX_POINT('',#493);
#195=VERTEX_POINT('',#495);
#196=VERTEX_POINT('',#497);
#197=VERTEX_POINT('',#499);
#198=VERTEX_POINT('',#501);
#199=VERTEX_POINT('',#503);
#200=VERTEX_POINT('',#505);
#201=VERTEX_POINT('',#507);
#202=VERTEX_POINT('',#509);
#203=VERTEX_POINT('',#516);
#204=VERTEX_POINT('',#523);
#205=VERTEX_POINT('',#532);
#206=VERTEX_POINT('',#538);
#207=VERTEX_POINT('',#547);
#208=VERTEX_POINT('',#554);
#209=VERTEX_POINT('',#560);
#210=VERTEX_POINT('',#563);
#211=VERTEX_POINT('',#566);
#212=VERTEX_POINT('',#664);
#213=VERTEX_POINT('',#671);
#214=VERTEX_POINT('',#678);
#215=CIRCLE('',#335,0.0638);
#216=CIRCLE('',#336,0.0638);
#217=CIRCLE('',#338,0.0675);
#218=CIRCLE('',#340,0.0615);
#219=CIRCLE('',#341,0.0615);
#220=CIRCLE('',#342,0.0615);
#221=CIRCLE('',#344,0.05715);
#222=CIRCLE('',#346,0.05715);
#223=CIRCLE('',#348,0.05855);
#224=CIRCLE('',#350,0.00125);
#225=CIRCLE('',#354,0.00125);
#226=CIRCLE('',#358,0.00125);
#227=EDGE_LOOP('',(#68));
#228=EDGE_LOOP('',(#69));
#229=EDGE_LOOP('',(#70));
#230=EDGE_LOOP('',(#71));
#231=EDGE_LOOP('',(#72));
#232=EDGE_LOOP('',(#73));
#233=EDGE_LOOP('',(#74));
#234=EDGE_LOOP('',(#75));
#235=EDGE_LOOP('',(#76,#77,#78,#79,#80,#81,#82,#83,#84,#85,#86,#87));
#236=EDGE_LOOP('',(#88,#89,#90,#91,#92,#93,#94,#95,#96,#97,#98,#99));
#237=EDGE_LOOP('',(#100));
#238=EDGE_LOOP('',(#101));
#239=EDGE_LOOP('',(#102));
#240=EDGE_LOOP('',(#103));
#241=EDGE_LOOP('',(#104));
#242=EDGE_LOOP('',(#105));
#243=EDGE_LOOP('',(#106));
#244=EDGE_LOOP('',(#107));
#245=EDGE_LOOP('',(#108,#109,#110,#111));
#246=EDGE_LOOP('',(#112,#113,#114));
#247=EDGE_LOOP('',(#115,#116,#117));
#248=EDGE_LOOP('',(#118));
#249=EDGE_LOOP('',(#119,#120,#121,#122));
#250=EDGE_LOOP('',(#123,#124,#125));
#251=EDGE_LOOP('',(#126,#127,#128));
#252=EDGE_LOOP('',(#129));
#253=EDGE_LOOP('',(#130,#131,#132,#133));
#254=EDGE_LOOP('',(#134,#135,#136));
#255=EDGE_LOOP('',(#137,#138,#139));
#256=EDGE_LOOP('',(#140));
#257=EDGE_LOOP('',(#141));
#258=EDGE_LOOP('',(#142));
#259=EDGE_LOOP('',(#143));
#260=EDGE_LOOP('',(#144));
#261=EDGE_LOOP('',(#145));
#262=FACE_BOUND('',#227,.T.);
#263=FACE_BOUND('',#228,.T.);
#264=FACE_BOUND('',#229,.T.);
#265=FACE_BOUND('',#230,.T.);
#266=FACE_BOUND('',#231,.T.);
#267=FACE_BOUND('',#232,.T.);
#268=FACE_BOUND('',#233,.T.);
#269=FACE_BOUND('',#234,.T.);
#270=FACE_BOUND('',#235,.T.);
#271=FACE_BOUND('',#236,.T.);
#272=FACE_BOUND('',#237,.T.);
#273=FACE_BOUND('',#238,.T.);
#274=FACE_BOUND('',#239,.T.);
#275=FACE_BOUND('',#240,.T.);
#276=FACE_BOUND('',#241,.T.);
#277=FACE_BOUND('',#242,.T.);
#278=FACE_BOUND('',#243,.T.);
#279=FACE_BOUND('',#244,.T.);
#280=FACE_BOUND('',#245,.T.);
#281=FACE_BOUND('',#246,.T.);
#282=FACE_BOUND('',#247,.T.);
#283=FACE_BOUND('',#248,.T.);
#284=FACE_BOUND('',#249,.T.);
#285=FACE_BOUND('',#250,.T.);
#286=FACE_BOUND('',#251,.T.);
#287=FACE_BOUND('',#252,.T.);
#288=FACE_BOUND('',#253,.T.);
#289=FACE_BOUND('',#254,.T.);
#290=FACE_BOUND('',#255,.T.);
#291=FACE_BOUND('',#256,.T.);
#292=FACE_BOUND('',#257,.T.);
#293=FACE_BOUND('',#258,.T.);
#294=FACE_BOUND('',#259,.T.);
#295=FACE_BOUND('',#260,.T.);
#296=FACE_BOUND('',#261,.T.);
#297=CYLINDRICAL_SURFACE('',#334,0.0638);
#298=CYLINDRICAL_SURFACE('',#345,0.05715);
#299=CYLINDRICAL_SURFACE('',#361,0.00125);
#300=CYLINDRICAL_SURFACE('',#362,0.00125);
#301=CYLINDRICAL_SURFACE('',#363,0.00125);
#302=ADVANCED_FACE('',(#262,#263,#264,#265,#266),#297,.T.);
#303=ADVANCED_FACE('',(#267,#268),#44,.F.);
#304=ADVANCED_FACE('',(#269,#270),#45,.T.);
#305=ADVANCED_FACE('',(#271,#272),#13,.F.);
#306=ADVANCED_FACE('',(#273,#274),#298,.F.);
#307=ADVANCED_FACE('',(#275,#276),#46,.T.);
#308=ADVANCED_FACE('',(#277,#278),#12,.T.);
#309=ADVANCED_FACE('',(#279,#280),#47,.F.);
#310=ADVANCED_FACE('',(#281),#48,.T.);
#311=ADVANCED_FACE('',(#282),#49,.F.);
#312=ADVANCED_FACE('',(#283,#284),#50,.F.);
#313=ADVANCED_FACE('',(#285),#51,.T.);
#314=ADVANCED_FACE('',(#286),#52,.F.);
#315=ADVANCED_FACE('',(#287,#288),#53,.F.);
#316=ADVANCED_FACE('',(#289),#54,.T.);
#317=ADVANCED_FACE('',(#290),#55,.F.);
#318=ADVANCED_FACE('',(#291,#292),#299,.F.);
#319=ADVANCED_FACE('',(#293,#294),#300,.F.);
#320=ADVANCED_FACE('',(#295,#296),#301,.F.);
#321=CLOSED_SHELL('',(#302,#303,#304,#305,#306,#307,#308,#309,#310,#311,
#312,#313,#314,#315,#316,#317,#318,#319,#320));
#322=STYLED_ITEM('',(#323),#330);
#323=PRESENTATION_STYLE_ASSIGNMENT((#324));
#324=SURFACE_STYLE_USAGE(.BOTH.,#325);
#325=SURFACE_SIDE_STYLE('',(#326));
#326=SURFACE_STYLE_FILL_AREA(#327);
#327=FILL_AREA_STYLE('',(#328));
#328=FILL_AREA_STYLE_COLOUR('',#329);
#329=COLOUR_RGB('',0.498039215686275,0.498039215686275,0.498039215686275);
#330=MANIFOLD_SOLID_BREP('Hull to PVC',#321);
#331=SHAPE_DEFINITION_REPRESENTATION(#692,#332);
#332=SHAPE_REPRESENTATION('Hull to PVC',(#333),#687);
#333=AXIS2_PLACEMENT_3D('',#441,#364,#365);
#334=AXIS2_PLACEMENT_3D('',#442,#366,#367);
#335=AXIS2_PLACEMENT_3D('',#443,#368,#369);
#336=AXIS2_PLACEMENT_3D('',#445,#370,#371);
#337=AXIS2_PLACEMENT_3D('',#483,#372,#373);
#338=AXIS2_PLACEMENT_3D('',#484,#374,#375);
#339=AXIS2_PLACEMENT_3D('',#486,#376,#377);
#340=AXIS2_PLACEMENT_3D('',#487,#378,#379);
#341=AXIS2_PLACEMENT_3D('',#496,#383,#384);
#342=AXIS2_PLACEMENT_3D('',#504,#388,#389);
#343=AXIS2_PLACEMENT_3D('',#511,#393,#394);
#344=AXIS2_PLACEMENT_3D('',#559,#395,#396);
#345=AXIS2_PLACEMENT_3D('',#561,#397,#398);
#346=AXIS2_PLACEMENT_3D('',#562,#399,#400);
#347=AXIS2_PLACEMENT_3D('',#564,#401,#402);
#348=AXIS2_PLACEMENT_3D('',#565,#403,#404);
#349=AXIS2_PLACEMENT_3D('',#662,#405,#406);
#350=AXIS2_PLACEMENT_3D('',#663,#407,#408);
#351=AXIS2_PLACEMENT_3D('',#667,#411,#412);
#352=AXIS2_PLACEMENT_3D('',#668,#413,#414);
#353=AXIS2_PLACEMENT_3D('',#669,#415,#416);
#354=AXIS2_PLACEMENT_3D('',#670,#417,#418);
#355=AXIS2_PLACEMENT_3D('',#674,#421,#422);
#356=AXIS2_PLACEMENT_3D('',#675,#423,#424);
#357=AXIS2_PLACEMENT_3D('',#676,#425,#426);
#358=AXIS2_PLACEMENT_3D('',#677,#427,#428);
#359=AXIS2_PLACEMENT_3D('',#681,#431,#432);
#360=AXIS2_PLACEMENT_3D('',#682,#433,#434);
#361=AXIS2_PLACEMENT_3D('',#683,#435,#436);
#362=AXIS2_PLACEMENT_3D('',#684,#437,#438);
#363=AXIS2_PLACEMENT_3D('',#685,#439,#440);
#364=DIRECTION('',(0.,0.,1.));
#365=DIRECTION('',(1.,0.,0.));
#366=DIRECTION('',(0.,-1.,0.));
#367=DIRECTION('',(0.,0.,-1.));
#368=DIRECTION('',(0.,-1.,0.));
#369=DIRECTION('',(0.,0.,-1.));
#370=DIRECTION('',(0.,-1.,0.));
#371=DIRECTION('',(0.,0.,-1.));
#372=DIRECTION('',(0.,1.,0.));
#373=DIRECTION('',(0.,0.,1.));
#374=DIRECTION('',(0.,-1.,0.));
#375=DIRECTION('',(0.,0.,-1.));
#376=DIRECTION('',(0.,-1.,0.));
#377=DIRECTION('',(0.,0.,-1.));
#378=DIRECTION('',(0.,-1.,0.));
#379=DIRECTION('',(0.,0.,-1.));
#380=DIRECTION('',(0.914461720307198,0.,0.404672413308344));
#381=DIRECTION('',(0.5,0.,0.866025403784439));
#382=DIRECTION('',(0.106774270017819,0.,-0.994283287228626));
#383=DIRECTION('',(0.,-1.,0.));
#384=DIRECTION('',(0.,0.,-1.));
#385=DIRECTION('',(-0.106774270017817,0.,-0.994283287228626));
#386=DIRECTION('',(0.5,0.,-0.866025403784438));
#387=DIRECTION('',(-0.914461720307199,0.,0.404672413308343));
#388=DIRECTION('',(0.,-1.,0.));
#389=DIRECTION('',(0.,0.,-1.));
#390=DIRECTION('',(-0.807687450289381,0.,0.589610873920281));
#391=DIRECTION('',(-1.,0.,-1.720845688169E-15));
#392=DIRECTION('',(0.80768745028938,0.,0.589610873920283));
#393=DIRECTION('',(0.,-1.,0.));
#394=DIRECTION('',(0.,0.,-1.));
#395=DIRECTION('',(0.,-1.,0.));
#396=DIRECTION('',(0.,0.,-1.));
#397=DIRECTION('',(0.,-1.,0.));
#398=DIRECTION('',(0.,0.,-1.));
#399=DIRECTION('',(0.,-1.,0.));
#400=DIRECTION('',(0.,0.,-1.));
#401=DIRECTION('',(0.,1.,0.));
#402=DIRECTION('',(0.,0.,1.));
#403=DIRECTION('',(0.,-1.,0.));
#404=DIRECTION('',(0.,0.,-1.));
#405=DIRECTION('',(-1.720845688169E-15,0.,1.));
#406=DIRECTION('',(1.,0.,1.720845688169E-15));
#407=DIRECTION('',(-1.720845688169E-15,0.,1.));
#408=DIRECTION('',(1.,0.,1.720845688169E-15));
#409=DIRECTION('',(0.,-1.,0.));
#410=DIRECTION('',(0.,-1.,0.));
#411=DIRECTION('',(0.589610873920283,0.,-0.80768745028938));
#412=DIRECTION('',(-0.80768745028938,0.,-0.589610873920283));
#413=DIRECTION('',(0.589610873920282,0.,0.807687450289381));
#414=DIRECTION('',(0.807687450289381,0.,-0.589610873920282));
#415=DIRECTION('',(-0.866025403784438,0.,-0.5));
#416=DIRECTION('',(-0.5,0.,0.866025403784438));
#417=DIRECTION('',(-0.866025403784438,0.,-0.5));
#418=DIRECTION('',(-0.5,0.,0.866025403784438));
#419=DIRECTION('',(0.,-1.,0.));
#420=DIRECTION('',(0.,-1.,0.));
#421=DIRECTION('',(0.404672413308343,0.,0.914461720307199));
#422=DIRECTION('',(0.914461720307199,0.,-0.404672413308343));
#423=DIRECTION('',(-0.994283287228626,0.,0.106774270017817));
#424=DIRECTION('',(0.106774270017817,0.,0.994283287228626));
#425=DIRECTION('',(0.866025403784439,0.,-0.5));
#426=DIRECTION('',(-0.5,0.,-0.866025403784439));
#427=DIRECTION('',(0.866025403784439,0.,-0.5));
#428=DIRECTION('',(-0.5,0.,-0.866025403784439));
#429=DIRECTION('',(0.,-1.,0.));
#430=DIRECTION('',(0.,-1.,0.));
#431=DIRECTION('',(-0.994283287228626,0.,-0.106774270017819));
#432=DIRECTION('',(-0.106774270017819,0.,0.994283287228626));
#433=DIRECTION('',(0.404672413308344,0.,-0.914461720307199));
#434=DIRECTION('',(-0.914461720307199,0.,-0.404672413308344));
#435=DIRECTION('',(-0.866025403784439,0.,0.5));
#436=DIRECTION('',(0.5,0.,0.866025403784439));
#437=DIRECTION('',(0.866025403784438,0.,0.5));
#438=DIRECTION('',(0.5,0.,-0.866025403784438));
#439=DIRECTION('',(0.,0.,-1.));
#440=DIRECTION('',(-1.,0.,0.));
#441=CARTESIAN_POINT('',(0.,0.,0.));
#442=CARTESIAN_POINT('',(0.,0.00752320699393749,0.));
#443=CARTESIAN_POINT('',(0.,0.13,0.));
#444=CARTESIAN_POINT('',(0.,0.13,-0.0638));
#445=CARTESIAN_POINT('',(0.,0.15,0.));
#446=CARTESIAN_POINT('',(0.,0.15,-0.0638));
#447=CARTESIAN_POINT('',(-0.0547577570212029,0.138980627281112,-0.0327445688474251));
#448=CARTESIAN_POINT('',(-0.054546386130127,0.137999748274791,-0.0330922613758297));
#449=CARTESIAN_POINT('',(-0.0547575884857565,0.137020379619723,-0.0327448367581388));
#450=CARTESIAN_POINT('',(-0.0552545632447119,0.136614954065387,-0.0319024050685921));
#451=CARTESIAN_POINT('',(-0.055736689679322,0.137019805178375,-0.0310489956389306));
#452=CARTESIAN_POINT('',(-0.0559317162939023,0.137999818801133,-0.0306928133083839));
#453=CARTESIAN_POINT('',(-0.0557373349455172,0.13897826446427,-0.0310478215912769));
#454=CARTESIAN_POINT('',(-0.0552558129946008,0.139385276091112,-0.0319002485137036));
#455=CARTESIAN_POINT('',(-0.0547577570212029,0.138980627281112,-0.0327445688474251));
#456=CARTESIAN_POINT('',(-0.054546386130127,0.137999748274791,-0.0330922613758297));
#457=CARTESIAN_POINT('',(-0.0547575884857565,0.137020379619723,-0.0327448367581388));
#458=CARTESIAN_POINT('',(-0.0546168150045779,0.138,-0.0329764085181471));
#459=CARTESIAN_POINT('',(0.0557365069684401,0.138980627281112,-0.0310493242109049));
#460=CARTESIAN_POINT('',(0.0559319320852066,0.137999748274791,-0.0306924253854103));
#461=CARTESIAN_POINT('',(0.0557366547182009,0.137020379619723,-0.0310490442995699));
#462=CARTESIAN_POINT('',(0.0552555748535782,0.136614954065387,-0.0319006529106384));
#463=CARTESIAN_POINT('',(0.0547575638249672,0.137019805178375,-0.0327448913656775));
#464=CARTESIAN_POINT('',(0.0545466141856248,0.137999818801133,-0.0330918805335915));
#465=CARTESIAN_POINT('',(0.0547568697029714,0.13897826446427,-0.0327460372064216));
#466=CARTESIAN_POINT('',(0.0552543320972045,0.139385276091112,-0.0319028135032348));
#467=CARTESIAN_POINT('',(0.0557365069684401,0.138980627281112,-0.0310493242109049));
#468=CARTESIAN_POINT('',(0.0559319320852066,0.137999748274791,-0.0306924253854103));
#469=CARTESIAN_POINT('',(0.0557366547182009,0.137020379619723,-0.0310490442995699));
#470=CARTESIAN_POINT('',(0.0558668150045779,0.138,-0.030811345008686));
#471=CARTESIAN_POINT('',(-0.000978749947237234,0.138980627281112,0.06379389305833));
#472=CARTESIAN_POINT('',(-0.00138554595507957,0.137999748274791,0.06378468676124));
#473=CARTESIAN_POINT('',(-0.000979066232444495,0.137020379619723,0.0637938810577088));
#474=CARTESIAN_POINT('',(-1.01160886622097E-6,0.136614954065387,0.0638030579792305));
#475=CARTESIAN_POINT('',(0.000979125854354826,0.137019805178375,0.0637938870046081));
#476=CARTESIAN_POINT('',(0.00138510210827756,0.137999818801133,0.0637846938419754));
#477=CARTESIAN_POINT('',(0.00098046524254582,0.13897826446427,0.0637938587976985));
#478=CARTESIAN_POINT('',(1.48089739633445E-6,0.139385276091112,0.0638030620169383));
#479=CARTESIAN_POINT('',(-0.000978749947237234,0.138980627281112,0.06379389305833));
#480=CARTESIAN_POINT('',(-0.00138554595507957,0.137999748274791,0.06378468676124));
#481=CARTESIAN_POINT('',(-0.000979066232444495,0.137020379619723,0.0637938810577088));
#482=CARTESIAN_POINT('',(-0.00125,0.138,0.0637877535268331));
#483=CARTESIAN_POINT('',(0.,0.15,0.06495));
#484=CARTESIAN_POINT('',(0.,0.15,0.));
#485=CARTESIAN_POINT('',(0.,0.15,-0.0675));
#486=CARTESIAN_POINT('',(0.,0.13,0.06265));
#487=CARTESIAN_POINT('',(0.,0.13,0.));
#488=CARTESIAN_POINT('',(0.0569408948991859,0.13,-0.0232375663114679));
#489=CARTESIAN_POINT('',(0.00834612470173621,0.13,0.0609310446526487));
#490=CARTESIAN_POINT('',(0.0541975097382643,0.13,-0.0244515835513929));
#491=CARTESIAN_POINT('',(0.0514541245773427,0.13,-0.0256656007913179));
#492=CARTESIAN_POINT('',(0.0497041245773427,0.13,-0.0286966897045635));
#493=CARTESIAN_POINT('',(0.0479541245773427,0.13,-0.031727778617809));
#494=CARTESIAN_POINT('',(0.0482744473873962,0.13,-0.0347106284794949));
#495=CARTESIAN_POINT('',(0.0485947701974496,0.13,-0.0376934783411808));
#496=CARTESIAN_POINT('',(0.,0.13,0.));
#497=CARTESIAN_POINT('',(-0.0485947701974496,0.13,-0.0376934783411808));
#498=CARTESIAN_POINT('',(-0.0482744473873961,0.13,-0.034710628479495));
#499=CARTESIAN_POINT('',(-0.0479541245773427,0.13,-0.0317277786178091));
#500=CARTESIAN_POINT('',(-0.0497041245773427,0.13,-0.0286966897045636));
#501=CARTESIAN_POINT('',(-0.0514541245773427,0.13,-0.025665600791318));
#502=CARTESIAN_POINT('',(-0.0541975097382643,0.13,-0.0244515835513929));
#503=CARTESIAN_POINT('',(-0.0569408948991859,0.13,-0.023237566311468));
#504=CARTESIAN_POINT('',(0.,0.13,0.));
#505=CARTESIAN_POINT('',(-0.00834612470173633,0.13,0.0609310446526487));
#506=CARTESIAN_POINT('',(-0.00592306235086823,0.13,0.0591622120308878));
#507=CARTESIAN_POINT('',(-0.00350000000000009,0.13,0.057393379409127));
#508=CARTESIAN_POINT('',(-7.28583859910259E-17,0.13,0.057393379409127));
#509=CARTESIAN_POINT('',(0.00349999999999994,0.13,0.057393379409127));
#510=CARTESIAN_POINT('',(0.00592306235086808,0.13,0.0591622120308878));
#511=CARTESIAN_POINT('',(0.,0.165,0.));
#512=CARTESIAN_POINT('',(0.0479541245773427,0.162183908045977,-0.0317277786178089));
#513=CARTESIAN_POINT('',(0.0481770395360942,0.151472292545316,-0.0338035653960548));
#514=CARTESIAN_POINT('',(0.0483892938036254,0.140742063385682,-0.0357800796893768));
#515=CARTESIAN_POINT('',(0.0485947701974497,0.13,-0.0376934783411808));
#516=CARTESIAN_POINT('',(0.0479541245773427,0.162183908045977,-0.031727778617809));
#517=CARTESIAN_POINT('',(0.0479541245773427,0.162183908045977,-0.031727778617809));
#518=CARTESIAN_POINT('',(0.048228046880607,0.162452217748325,-0.0312533312712289));
#519=CARTESIAN_POINT('',(0.048791889704998,0.162881448471322,-0.0302767268519006));
#520=CARTESIAN_POINT('',(0.0500095454200678,0.163202113712158,-0.028167685287273));
#521=CARTESIAN_POINT('',(0.0509057384662065,0.162721057859984,-0.026615433397971));
#522=CARTESIAN_POINT('',(0.0514541245773428,0.162183908045977,-0.0256656007913178));
#523=CARTESIAN_POINT('',(0.0514541245773427,0.162183908045977,-0.0256656007913179));
#524=CARTESIAN_POINT('',(0.0514541245773427,0.162183908045977,-0.0256656007913179));
#525=CARTESIAN_POINT('',(0.0533632661391614,0.151472292547324,-0.0248207574195157));
#526=CARTESIAN_POINT('',(0.0551811048619604,0.140742063387418,-0.0240163178605658));
#527=CARTESIAN_POINT('',(0.0569408948991859,0.13,-0.0232375663114678));
#528=CARTESIAN_POINT('',(0.00349999999999999,0.162183908045977,0.057393379409127));
#529=CARTESIAN_POINT('',(0.00518622660258853,0.15147229255063,0.0586243228148016));
#530=CARTESIAN_POINT('',(0.00679181105795477,0.140742063390275,0.0597963975493318));
#531=CARTESIAN_POINT('',(0.00834612470173631,0.13,0.0609310446526487));
#532=CARTESIAN_POINT('',(0.00349999999999994,0.162183908045977,0.057393379409127));
#533=CARTESIAN_POINT('',(0.00349999999999986,0.162183908045977,0.057393379409127));
#534=CARTESIAN_POINT('',(0.00242031036343909,0.162712691576127,0.057393379409127));
#535=CARTESIAN_POINT('',(1.11773545668277E-5,0.163367313767762,0.057393379409127));
#536=CARTESIAN_POINT('',(-0.00240588461858461,0.162719756658564,0.057393379409127));
#537=CARTESIAN_POINT('',(-0.00350000000000006,0.162183908045977,0.057393379409127));
#538=CARTESIAN_POINT('',(-0.00350000000000009,0.162183908045977,0.057393379409127));
#539=CARTESIAN_POINT('',(-0.00350000000000012,0.162183908045977,0.057393379409127));
#540=CARTESIAN_POINT('',(-0.00518622660258866,0.15147229255063,0.0586243228148016));
#541=CARTESIAN_POINT('',(-0.00679181105795491,0.140742063390275,0.0597963975493318));
#542=CARTESIAN_POINT('',(-0.00834612470173645,0.13,0.0609310446526487));
#543=CARTESIAN_POINT('',(-0.0514541245773427,0.162183908045977,-0.025665600791318));
#544=CARTESIAN_POINT('',(-0.0533632661391613,0.151472292547324,-0.0248207574195157));
#545=CARTESIAN_POINT('',(-0.0551811048619604,0.140742063387418,-0.0240163178605659));
#546=CARTESIAN_POINT('',(-0.0569408948991859,0.13,-0.0232375663114679));
#547=CARTESIAN_POINT('',(-0.0514541245773427,0.162183908045977,-0.025665600791318));
#548=CARTESIAN_POINT('',(-0.0514541245773427,0.162183908045977,-0.0256656007913181));
#549=CARTESIAN_POINT('',(-0.0511802022740783,0.162452217748325,-0.0261400481378982));
#550=CARTESIAN_POINT('',(-0.0506163594496874,0.162881448471322,-0.0271166525572265));
#551=CARTESIAN_POINT('',(-0.0493987037346176,0.163202113712158,-0.0292256941218539));
#552=CARTESIAN_POINT('',(-0.048502510688479,0.162721057859984,-0.0307779460111559));
#553=CARTESIAN_POINT('',(-0.0479541245773427,0.162183908045977,-0.0317277786178091));
#554=CARTESIAN_POINT('',(-0.0479541245773427,0.162183908045977,-0.0317277786178091));
#555=CARTESIAN_POINT('',(-0.0479541245773427,0.162183908045977,-0.0317277786178091));
#556=CARTESIAN_POINT('',(-0.0481770395360941,0.151472292545316,-0.033803565396055));
#557=CARTESIAN_POINT('',(-0.0483892938036253,0.140742063385682,-0.0357800796893769));
#558=CARTESIAN_POINT('',(-0.0485947701974496,0.13,-0.0376934783411809));
#559=CARTESIAN_POINT('',(0.,0.165,0.));
#560=CARTESIAN_POINT('',(0.,0.165,-0.05715));
#561=CARTESIAN_POINT('',(0.,0.00752320699393749,0.));
#562=CARTESIAN_POINT('',(0.,0.21,0.));
#563=CARTESIAN_POINT('',(0.,0.21,-0.05715));
#564=CARTESIAN_POINT('',(0.,0.21,0.05785));
#565=CARTESIAN_POINT('',(0.,0.21,0.));
#566=CARTESIAN_POINT('',(0.,0.21,-0.05855));
#567=CARTESIAN_POINT('',(0.026503621025512,0.15,0.0639854013317881));
#568=CARTESIAN_POINT('',(5.160802341031E-17,0.15,0.069257299334106));
#569=CARTESIAN_POINT('',(-0.0265036210255121,0.15,0.0639854013317881));
#570=CARTESIAN_POINT('',(-0.0489723060058129,0.15,0.0489723060058129));
#571=CARTESIAN_POINT('',(-0.0639854013317881,0.15,0.0265036210255121));
#572=CARTESIAN_POINT('',(-0.069257299334106,0.15,2.16027282867737E-17));
#573=CARTESIAN_POINT('',(-0.0639854013317881,0.15,-0.0265036210255121));
#574=CARTESIAN_POINT('',(-0.0489723060058129,0.15,-0.0489723060058129));
#575=CARTESIAN_POINT('',(-0.0265036210255121,0.15,-0.0639854013317881));
#576=CARTESIAN_POINT('',(-9.97238358582089E-18,0.15,-0.0692572993341059));
#577=CARTESIAN_POINT('',(0.0265036210255121,0.15,-0.0639854013317881));
#578=CARTESIAN_POINT('',(0.0489723060058129,0.15,-0.0489723060058129));
#579=CARTESIAN_POINT('',(0.0639854013317881,0.15,-0.0265036210255121));
#580=CARTESIAN_POINT('',(0.069257299334106,0.15,-1.27393755267047E-17));
#581=CARTESIAN_POINT('',(0.0639854013317881,0.15,0.0265036210255121));
#582=CARTESIAN_POINT('',(0.0489723060058129,0.15,0.0489723060058129));
#583=CARTESIAN_POINT('',(0.026503621025512,0.15,0.0639854013317881));
#584=CARTESIAN_POINT('',(5.160802341031E-17,0.15,0.069257299334106));
#585=CARTESIAN_POINT('',(-0.0265036210255121,0.15,0.0639854013317881));
#586=CARTESIAN_POINT('',(0.0265031449896441,0.160059594945502,0.0639842520795396));
#587=CARTESIAN_POINT('',(5.85469173142172E-17,0.160059594945502,0.069256055392436));
#588=CARTESIAN_POINT('',(-0.0265031449896442,0.160059594945502,0.0639842520795395));
#589=CARTESIAN_POINT('',(-0.0489714264062226,0.160059594945502,0.0489714264062227));
#590=CARTESIAN_POINT('',(-0.0639842520795395,0.160059594945502,0.0265031449896442));
#591=CARTESIAN_POINT('',(-0.069256055392436,0.160059594945502,1.26309553094561E-17));
#592=CARTESIAN_POINT('',(-0.0639842520795395,0.160059594945502,-0.0265031449896442));
#593=CARTESIAN_POINT('',(-0.0489714264062227,0.160059594945502,-0.0489714264062227));
#594=CARTESIAN_POINT('',(-0.0265031449896442,0.160059594945502,-0.0639842520795395));
#595=CARTESIAN_POINT('',(-1.73368586061642E-17,0.160059594945502,-0.069256055392436));
#596=CARTESIAN_POINT('',(0.0265031449896442,0.160059594945502,-0.0639842520795396));
#597=CARTESIAN_POINT('',(0.0489714264062226,0.160059594945502,-0.0489714264062227));
#598=CARTESIAN_POINT('',(0.0639842520795396,0.160059594945502,-0.0265031449896442));
#599=CARTESIAN_POINT('',(0.069256055392436,0.160059594945502,-7.2099444470286E-18));
#600=CARTESIAN_POINT('',(0.0639842520795396,0.160059594945502,0.0265031449896442));
#601=CARTESIAN_POINT('',(0.0489714264062227,0.160059594945502,0.0489714264062227));
#602=CARTESIAN_POINT('',(0.0265031449896441,0.160059594945502,0.0639842520795396));
#603=CARTESIAN_POINT('',(5.85469173142172E-17,0.160059594945502,0.069256055392436));
#604=CARTESIAN_POINT('',(-0.0265031449896442,0.160059594945502,0.0639842520795395));
#605=CARTESIAN_POINT('',(0.0256959279320679,0.182705705203244,0.0620354577113604));
#606=CARTESIAN_POINT('',(4.98732999343332E-17,0.182705705203244,0.0671466955683451));
#607=CARTESIAN_POINT('',(-0.0256959279320681,0.182705705203244,0.0620354577113604));
#608=CARTESIAN_POINT('',(-0.0474798837706455,0.182705705203244,0.0474798837706455));
#609=CARTESIAN_POINT('',(-0.0620354577113604,0.182705705203244,0.0256959279320681));
#610=CARTESIAN_POINT('',(-0.0671466955683451,0.182705705203244,2.32832416541262E-17));
#611=CARTESIAN_POINT('',(-0.0620354577113604,0.182705705203244,-0.0256959279320681));
#612=CARTESIAN_POINT('',(-0.0474798837706455,0.182705705203244,-0.0474798837706455));
#613=CARTESIAN_POINT('',(-0.0256959279320681,0.182705705203244,-0.0620354577113603));
#614=CARTESIAN_POINT('',(-7.68804160619445E-18,0.182705705203244,-0.0671466955683451));
#615=CARTESIAN_POINT('',(0.0256959279320681,0.182705705203244,-0.0620354577113604));
#616=CARTESIAN_POINT('',(0.0474798837706455,0.182705705203244,-0.0474798837706455));
#617=CARTESIAN_POINT('',(0.0620354577113604,0.182705705203244,-0.0256959279320681));
#618=CARTESIAN_POINT('',(0.0671466955683451,0.182705705203244,-2.79182059415017E-17));
#619=CARTESIAN_POINT('',(0.0620354577113604,0.182705705203244,0.0256959279320681));
#620=CARTESIAN_POINT('',(0.0474798837706455,0.182705705203244,0.0474798837706456));
#621=CARTESIAN_POINT('',(0.0256959279320679,0.182705705203244,0.0620354577113604));
#622=CARTESIAN_POINT('',(4.98732999343332E-17,0.182705705203244,0.0671466955683451));
#623=CARTESIAN_POINT('',(-0.0256959279320681,0.182705705203244,0.0620354577113604));
#624=CARTESIAN_POINT('',(0.0243961944996108,0.195069061285975,0.0588976236312528));
#625=CARTESIAN_POINT('',(4.77048955893622E-17,0.195069061285974,0.0637503284342249));
#626=CARTESIAN_POINT('',(-0.024396194499611,0.195069061285975,0.0588976236312527));
#627=CARTESIAN_POINT('',(-0.04507828953871,0.195069061285975,0.04507828953871));
#628=CARTESIAN_POINT('',(-0.0588976236312527,0.195069061285975,0.0243961944996109));
#629=CARTESIAN_POINT('',(-0.0637503284342249,0.195069061285974,3.22550146314438E-18));
#630=CARTESIAN_POINT('',(-0.0588976236312527,0.195069061285975,-0.0243961944996109));
#631=CARTESIAN_POINT('',(-0.04507828953871,0.195069061285975,-0.04507828953871));
#632=CARTESIAN_POINT('',(-0.024396194499611,0.195069061285975,-0.0588976236312527));
#633=CARTESIAN_POINT('',(-1.18920778816544E-17,0.195069061285975,-0.0637503284342249));
#634=CARTESIAN_POINT('',(0.024396194499611,0.195069061285975,-0.0588976236312527));
#635=CARTESIAN_POINT('',(0.04507828953871,0.195069061285975,-0.04507828953871));
#636=CARTESIAN_POINT('',(0.0588976236312527,0.195069061285975,-0.024396194499611));
#637=CARTESIAN_POINT('',(0.0637503284342249,0.195069061285975,-1.73743398140802E-17));
#638=CARTESIAN_POINT('',(0.0588976236312527,0.195069061285975,0.0243961944996109));
#639=CARTESIAN_POINT('',(0.04507828953871,0.195069061285975,0.04507828953871));
#640=CARTESIAN_POINT('',(0.0243961944996108,0.195069061285975,0.0588976236312528));
#641=CARTESIAN_POINT('',(4.77048955893622E-17,0.195069061285974,0.0637503284342249));
#642=CARTESIAN_POINT('',(-0.024396194499611,0.195069061285975,0.0588976236312527));
#643=CARTESIAN_POINT('',(0.0229894372006478,0.21,0.0555014110811288));
#644=CARTESIAN_POINT('',(4.38017677684144E-17,0.21,0.0600742944594356));
#645=CARTESIAN_POINT('',(-0.0229894372006479,0.21,0.0555014110811288));
#646=CARTESIAN_POINT('',(-0.0424789409872644,0.21,0.0424789409872644));
#647=CARTESIAN_POINT('',(-0.0555014110811288,0.21,0.0229894372006479));
#648=CARTESIAN_POINT('',(-0.0600742944594356,0.21,1.08691267791672E-17));
#649=CARTESIAN_POINT('',(-0.0555014110811288,0.21,-0.0229894372006479));
#650=CARTESIAN_POINT('',(-0.0424789409872644,0.21,-0.0424789409872644));
#651=CARTESIAN_POINT('',(-0.0229894372006479,0.21,-0.0555014110811288));
#652=CARTESIAN_POINT('',(-8.38777022996531E-18,0.21,-0.0600742944594356));
#653=CARTESIAN_POINT('',(0.0229894372006479,0.21,-0.0555014110811288));
#654=CARTESIAN_POINT('',(0.0424789409872644,0.21,-0.0424789409872644));
#655=CARTESIAN_POINT('',(0.0555014110811288,0.21,-0.0229894372006479));
#656=CARTESIAN_POINT('',(0.0600742944594356,0.21,-1.3796472644878E-17));
#657=CARTESIAN_POINT('',(0.0555014110811288,0.21,0.0229894372006479));
#658=CARTESIAN_POINT('',(0.0424789409872643,0.21,0.0424789409872644));
#659=CARTESIAN_POINT('',(0.0229894372006478,0.21,0.0555014110811288));
#660=CARTESIAN_POINT('',(4.38017677684144E-17,0.21,0.0600742944594356));
#661=CARTESIAN_POINT('',(-0.0229894372006479,0.21,0.0555014110811288));
#662=CARTESIAN_POINT('',(-7.28583859910259E-17,0.165,0.057393379409127));
#663=CARTESIAN_POINT('',(0.,0.138,0.057393379409127));
#664=CARTESIAN_POINT('',(0.00125,0.138,0.057393379409127));
#665=CARTESIAN_POINT('',(0.00349999999999994,0.165,0.057393379409127));
#666=CARTESIAN_POINT('',(-0.00350000000000009,0.165,0.057393379409127));
#667=CARTESIAN_POINT('',(0.00592306235086808,0.165,0.0591622120308878));
#668=CARTESIAN_POINT('',(-0.00592306235086823,0.165,0.0591622120308878));
#669=CARTESIAN_POINT('',(-0.0497041245773427,0.165,-0.0286966897045636));
#670=CARTESIAN_POINT('',(-0.0497041245773427,0.138,-0.0286966897045635));
#671=CARTESIAN_POINT('',(-0.0503291245773427,0.138,-0.027614157949833));
#672=CARTESIAN_POINT('',(-0.0514541245773427,0.165,-0.025665600791318));
#673=CARTESIAN_POINT('',(-0.0479541245773427,0.165,-0.0317277786178091));
#674=CARTESIAN_POINT('',(-0.0541975097382643,0.165,-0.0244515835513929));
#675=CARTESIAN_POINT('',(-0.0482744473873961,0.165,-0.034710628479495));
#676=CARTESIAN_POINT('',(0.0497041245773427,0.165,-0.0286966897045635));
#677=CARTESIAN_POINT('',(0.0497041245773427,0.138,-0.0286966897045635));
#678=CARTESIAN_POINT('',(0.0490791245773427,0.138,-0.029779221459294));
#679=CARTESIAN_POINT('',(0.0479541245773427,0.165,-0.031727778617809));
#680=CARTESIAN_POINT('',(0.0514541245773427,0.165,-0.0256656007913179));
#681=CARTESIAN_POINT('',(0.0482744473873962,0.165,-0.0347106284794949));
#682=CARTESIAN_POINT('',(0.0541975097382643,0.165,-0.0244515835513929));
#683=CARTESIAN_POINT('',(0.0649519052838329,0.138,-0.0375));
#684=CARTESIAN_POINT('',(-0.0649519052838329,0.138,-0.0375));
#685=CARTESIAN_POINT('',(0.,0.138,0.075));
#686=MECHANICAL_DESIGN_GEOMETRIC_PRESENTATION_REPRESENTATION('',(#322),
#687);
#687=(
GEOMETRIC_REPRESENTATION_CONTEXT(3)
GLOBAL_UNCERTAINTY_ASSIGNED_CONTEXT((#688))
GLOBAL_UNIT_ASSIGNED_CONTEXT((#691,#690,#689))
REPRESENTATION_CONTEXT('Hull to PVC','TOP_LEVEL_ASSEMBLY_PART')
);
#688=UNCERTAINTY_MEASURE_WITH_UNIT(LENGTH_MEASURE(2.E-5),#691,
'DISTANCE_ACCURACY_VALUE','Maximum Tolerance applied to model');
#689=(
NAMED_UNIT(*)
SI_UNIT($,.STERADIAN.)
SOLID_ANGLE_UNIT()
);
#690=(
NAMED_UNIT(*)
PLANE_ANGLE_UNIT()
SI_UNIT($,.RADIAN.)
);
#691=(
LENGTH_UNIT()
NAMED_UNIT(*)
SI_UNIT($,.METRE.)
);
#692=PRODUCT_DEFINITION_SHAPE('','',#693);
#693=PRODUCT_DEFINITION('','',#695,#694);
#694=PRODUCT_DEFINITION_CONTEXT('',#701,'design');
#695=PRODUCT_DEFINITION_FORMATION_WITH_SPECIFIED_SOURCE('','',#697,
 .NOT_KNOWN.);
#696=PRODUCT_RELATED_PRODUCT_CATEGORY('','',(#697));
#697=PRODUCT('Hull to PVC','Hull to PVC','Hull to PVC',(#699));
#698=PRODUCT_CATEGORY('','');
#699=PRODUCT_CONTEXT('',#701,'mechanical');
#700=APPLICATION_PROTOCOL_DEFINITION('international standard',
'ap242_managed_model_based_3d_engineering',2020,#701);
#701=APPLICATION_CONTEXT('managed model based 3d engineering');
ENDSEC;
END-ISO-10303-21;
