ISO-10303-21;
HEADER;
/* Generated by software containing ST-Developer
 * from STEP Tools, Inc. (www.steptools.com) 
 */
/* OPTION: using custom renumber hook */

FILE_DESCRIPTION(
/* description */ ('STEP AP242 Edition 2',
'CAx-IF Rec.Pracs.---Representation and Presentation of Product Manufa
cturing Information (PMI)---4.0---2014-10-13',
'CAx-IF Rec.Pracs.---3D Tessellated Geometry---0.4---2014-09-14','2;1',
'CAx-IF Rec.Pracs.---User Defined Attributes---1.5---2016-08-15'),
/* implementation_level */ '2;1');

FILE_NAME(
/* name */ 'Buldge Shell - Hull Rib Aligner',
/* time_stamp */ '2026-08-23T20:29:05Z',
/* author */ (''),
/* organization */ (''),
/* preprocessor_version */ 'ST-DEVELOPER v20',
/* originating_system */ 'ONSHAPE BY PTC INC, 1.219',
/* authorisation */ '  ');

FILE_SCHEMA (('AP242_MANAGED_MODEL_BASED_3D_ENGINEERING_MIM_LF { 1 0 10303 442 3 1 4 }'));
ENDSEC;

DATA;
#10=SHAPE_REPRESENTATION_RELATIONSHIP('','',#195,#11);
#11=ADVANCED_BREP_SHAPE_REPRESENTATION('',(#193),#313);
#12=CIRCLE('',#200,0.0661000000000027);
#13=CIRCLE('',#201,0.0661000000000027);
#14=CIRCLE('',#206,0.0661000000000016);
#15=CIRCLE('',#207,0.0661000000000016);
#16=CYLINDRICAL_SURFACE('',#199,0.0661000000000027);
#17=CYLINDRICAL_SURFACE('',#205,0.0661000000000016);
#18=ORIENTED_EDGE('',*,*,#66,.F.);
#19=ORIENTED_EDGE('',*,*,#67,.F.);
#20=ORIENTED_EDGE('',*,*,#68,.T.);
#21=ORIENTED_EDGE('',*,*,#69,.T.);
#22=ORIENTED_EDGE('',*,*,#70,.F.);
#23=ORIENTED_EDGE('',*,*,#71,.F.);
#24=ORIENTED_EDGE('',*,*,#72,.T.);
#25=ORIENTED_EDGE('',*,*,#67,.T.);
#26=ORIENTED_EDGE('',*,*,#73,.T.);
#27=ORIENTED_EDGE('',*,*,#74,.F.);
#28=ORIENTED_EDGE('',*,*,#75,.F.);
#29=ORIENTED_EDGE('',*,*,#71,.T.);
#30=ORIENTED_EDGE('',*,*,#76,.F.);
#31=ORIENTED_EDGE('',*,*,#77,.F.);
#32=ORIENTED_EDGE('',*,*,#78,.T.);
#33=ORIENTED_EDGE('',*,*,#74,.T.);
#34=ORIENTED_EDGE('',*,*,#79,.T.);
#35=ORIENTED_EDGE('',*,*,#80,.F.);
#36=ORIENTED_EDGE('',*,*,#81,.F.);
#37=ORIENTED_EDGE('',*,*,#77,.T.);
#38=ORIENTED_EDGE('',*,*,#82,.T.);
#39=ORIENTED_EDGE('',*,*,#83,.F.);
#40=ORIENTED_EDGE('',*,*,#84,.F.);
#41=ORIENTED_EDGE('',*,*,#80,.T.);
#42=ORIENTED_EDGE('',*,*,#85,.T.);
#43=ORIENTED_EDGE('',*,*,#86,.F.);
#44=ORIENTED_EDGE('',*,*,#87,.F.);
#45=ORIENTED_EDGE('',*,*,#83,.T.);
#46=ORIENTED_EDGE('',*,*,#88,.F.);
#47=ORIENTED_EDGE('',*,*,#69,.F.);
#48=ORIENTED_EDGE('',*,*,#89,.T.);
#49=ORIENTED_EDGE('',*,*,#86,.T.);
#50=ORIENTED_EDGE('',*,*,#68,.F.);
#51=ORIENTED_EDGE('',*,*,#72,.F.);
#52=ORIENTED_EDGE('',*,*,#75,.T.);
#53=ORIENTED_EDGE('',*,*,#78,.F.);
#54=ORIENTED_EDGE('',*,*,#81,.T.);
#55=ORIENTED_EDGE('',*,*,#84,.T.);
#56=ORIENTED_EDGE('',*,*,#87,.T.);
#57=ORIENTED_EDGE('',*,*,#89,.F.);
#58=ORIENTED_EDGE('',*,*,#66,.T.);
#59=ORIENTED_EDGE('',*,*,#88,.T.);
#60=ORIENTED_EDGE('',*,*,#85,.F.);
#61=ORIENTED_EDGE('',*,*,#82,.F.);
#62=ORIENTED_EDGE('',*,*,#79,.F.);
#63=ORIENTED_EDGE('',*,*,#76,.T.);
#64=ORIENTED_EDGE('',*,*,#73,.F.);
#65=ORIENTED_EDGE('',*,*,#70,.T.);
#66=EDGE_CURVE('',#90,#91,#106,.T.);
#67=EDGE_CURVE('',#92,#90,#107,.T.);
#68=EDGE_CURVE('',#92,#93,#108,.T.);
#69=EDGE_CURVE('',#93,#91,#109,.T.);
#70=EDGE_CURVE('',#94,#90,#110,.T.);
#71=EDGE_CURVE('',#95,#94,#111,.T.);
#72=EDGE_CURVE('',#95,#92,#112,.T.);
#73=EDGE_CURVE('',#94,#96,#12,.T.);
#74=EDGE_CURVE('',#97,#96,#113,.T.);
#75=EDGE_CURVE('',#95,#97,#13,.T.);
#76=EDGE_CURVE('',#98,#96,#114,.T.);
#77=EDGE_CURVE('',#99,#98,#115,.T.);
#78=EDGE_CURVE('',#99,#97,#116,.T.);
#79=EDGE_CURVE('',#98,#100,#117,.T.);
#80=EDGE_CURVE('',#101,#100,#118,.T.);
#81=EDGE_CURVE('',#99,#101,#119,.T.);
#82=EDGE_CURVE('',#100,#102,#120,.T.);
#83=EDGE_CURVE('',#103,#102,#121,.T.);
#84=EDGE_CURVE('',#101,#103,#122,.T.);
#85=EDGE_CURVE('',#102,#104,#14,.T.);
#86=EDGE_CURVE('',#105,#104,#123,.T.);
#87=EDGE_CURVE('',#103,#105,#15,.T.);
#88=EDGE_CURVE('',#91,#104,#124,.T.);
#89=EDGE_CURVE('',#93,#105,#125,.T.);
#90=VERTEX_POINT('',#264);
#91=VERTEX_POINT('',#265);
#92=VERTEX_POINT('',#267);
#93=VERTEX_POINT('',#269);
#94=VERTEX_POINT('',#273);
#95=VERTEX_POINT('',#275);
#96=VERTEX_POINT('',#279);
#97=VERTEX_POINT('',#281);
#98=VERTEX_POINT('',#285);
#99=VERTEX_POINT('',#287);
#100=VERTEX_POINT('',#291);
#101=VERTEX_POINT('',#293);
#102=VERTEX_POINT('',#297);
#103=VERTEX_POINT('',#299);
#104=VERTEX_POINT('',#303);
#105=VERTEX_POINT('',#305);
#106=LINE('',#263,#126);
#107=LINE('',#266,#127);
#108=LINE('',#268,#128);
#109=LINE('',#270,#129);
#110=LINE('',#272,#130);
#111=LINE('',#274,#131);
#112=LINE('',#276,#132);
#113=LINE('',#280,#133);
#114=LINE('',#284,#134);
#115=LINE('',#286,#135);
#116=LINE('',#288,#136);
#117=LINE('',#290,#137);
#118=LINE('',#292,#138);
#119=LINE('',#294,#139);
#120=LINE('',#296,#140);
#121=LINE('',#298,#141);
#122=LINE('',#300,#142);
#123=LINE('',#304,#143);
#124=LINE('',#308,#144);
#125=LINE('',#309,#145);
#126=VECTOR('',#215,1.);
#127=VECTOR('',#216,1.);
#128=VECTOR('',#217,1.);
#129=VECTOR('',#218,1.);
#130=VECTOR('',#221,1.);
#131=VECTOR('',#222,1.);
#132=VECTOR('',#223,1.);
#133=VECTOR('',#228,1.);
#134=VECTOR('',#233,1.);
#135=VECTOR('',#234,1.);
#136=VECTOR('',#235,1.);
#137=VECTOR('',#238,1.);
#138=VECTOR('',#239,1.);
#139=VECTOR('',#240,1.);
#140=VECTOR('',#243,1.);
#141=VECTOR('',#244,1.);
#142=VECTOR('',#245,1.);
#143=VECTOR('',#250,1.);
#144=VECTOR('',#255,1.);
#145=VECTOR('',#256,1.);
#146=EDGE_LOOP('',(#18,#19,#20,#21));
#147=EDGE_LOOP('',(#22,#23,#24,#25));
#148=EDGE_LOOP('',(#26,#27,#28,#29));
#149=EDGE_LOOP('',(#30,#31,#32,#33));
#150=EDGE_LOOP('',(#34,#35,#36,#37));
#151=EDGE_LOOP('',(#38,#39,#40,#41));
#152=EDGE_LOOP('',(#42,#43,#44,#45));
#153=EDGE_LOOP('',(#46,#47,#48,#49));
#154=EDGE_LOOP('',(#50,#51,#52,#53,#54,#55,#56,#57));
#155=EDGE_LOOP('',(#58,#59,#60,#61,#62,#63,#64,#65));
#156=FACE_BOUND('',#146,.T.);
#157=FACE_BOUND('',#147,.T.);
#158=FACE_BOUND('',#148,.T.);
#159=FACE_BOUND('',#149,.T.);
#160=FACE_BOUND('',#150,.T.);
#161=FACE_BOUND('',#151,.T.);
#162=FACE_BOUND('',#152,.T.);
#163=FACE_BOUND('',#153,.T.);
#164=FACE_BOUND('',#154,.T.);
#165=FACE_BOUND('',#155,.T.);
#166=PLANE('',#197);
#167=PLANE('',#198);
#168=PLANE('',#202);
#169=PLANE('',#203);
#170=PLANE('',#204);
#171=PLANE('',#208);
#172=PLANE('',#209);
#173=PLANE('',#210);
#174=ADVANCED_FACE('',(#156),#166,.T.);
#175=ADVANCED_FACE('',(#157),#167,.T.);
#176=ADVANCED_FACE('',(#158),#16,.T.);
#177=ADVANCED_FACE('',(#159),#168,.T.);
#178=ADVANCED_FACE('',(#160),#169,.F.);
#179=ADVANCED_FACE('',(#161),#170,.F.);
#180=ADVANCED_FACE('',(#162),#17,.T.);
#181=ADVANCED_FACE('',(#163),#171,.T.);
#182=ADVANCED_FACE('',(#164),#172,.T.);
#183=ADVANCED_FACE('',(#165),#173,.F.);
#184=CLOSED_SHELL('',(#174,#175,#176,#177,#178,#179,#180,#181,#182,#183));
#185=STYLED_ITEM('',(#186),#193);
#186=PRESENTATION_STYLE_ASSIGNMENT((#187));
#187=SURFACE_STYLE_USAGE(.BOTH.,#188);
#188=SURFACE_SIDE_STYLE('',(#189));
#189=SURFACE_STYLE_FILL_AREA(#190);
#190=FILL_AREA_STYLE('',(#191));
#191=FILL_AREA_STYLE_COLOUR('',#192);
#192=COLOUR_RGB('',0.498039215686275,0.498039215686275,0.498039215686275);
#193=MANIFOLD_SOLID_BREP('Hull Rib Aligner',#184);
#194=SHAPE_DEFINITION_REPRESENTATION(#318,#195);
#195=SHAPE_REPRESENTATION('Hull Rib Aligner',(#196),#313);
#196=AXIS2_PLACEMENT_3D('',#261,#211,#212);
#197=AXIS2_PLACEMENT_3D('',#262,#213,#214);
#198=AXIS2_PLACEMENT_3D('',#271,#219,#220);
#199=AXIS2_PLACEMENT_3D('',#277,#224,#225);
#200=AXIS2_PLACEMENT_3D('',#278,#226,#227);
#201=AXIS2_PLACEMENT_3D('',#282,#229,#230);
#202=AXIS2_PLACEMENT_3D('',#283,#231,#232);
#203=AXIS2_PLACEMENT_3D('',#289,#236,#237);
#204=AXIS2_PLACEMENT_3D('',#295,#241,#242);
#205=AXIS2_PLACEMENT_3D('',#301,#246,#247);
#206=AXIS2_PLACEMENT_3D('',#302,#248,#249);
#207=AXIS2_PLACEMENT_3D('',#306,#251,#252);
#208=AXIS2_PLACEMENT_3D('',#307,#253,#254);
#209=AXIS2_PLACEMENT_3D('',#310,#257,#258);
#210=AXIS2_PLACEMENT_3D('',#311,#259,#260);
#211=DIRECTION('',(0.,0.,1.));
#212=DIRECTION('',(1.,0.,0.));
#213=DIRECTION('',(0.,0.,1.));
#214=DIRECTION('',(1.,0.,0.));
#215=DIRECTION('',(1.,0.,0.));
#216=DIRECTION('',(0.,1.,0.));
#217=DIRECTION('',(1.,0.,0.));
#218=DIRECTION('',(0.,1.,0.));
#219=DIRECTION('',(1.,0.,0.));
#220=DIRECTION('',(0.,0.,-1.));
#221=DIRECTION('',(0.,0.,-1.));
#222=DIRECTION('',(0.,1.,0.));
#223=DIRECTION('',(0.,0.,-1.));
#224=DIRECTION('',(0.,1.,0.));
#225=DIRECTION('',(0.,0.,1.));
#226=DIRECTION('',(0.,-1.,0.));
#227=DIRECTION('',(0.,0.,-1.));
#228=DIRECTION('',(0.,1.,0.));
#229=DIRECTION('',(0.,-1.,0.));
#230=DIRECTION('',(0.,0.,-1.));
#231=DIRECTION('',(-0.813120467277581,0.,-0.582095443801348));
#232=DIRECTION('',(-0.582095443801348,0.,0.813120467277581));
#233=DIRECTION('',(-0.582095443801348,0.,0.813120467277581));
#234=DIRECTION('',(0.,1.,0.));
#235=DIRECTION('',(-0.582095443801348,0.,0.813120467277581));
#236=DIRECTION('',(0.,0.,1.));
#237=DIRECTION('',(1.,0.,0.));
#238=DIRECTION('',(1.,0.,0.));
#239=DIRECTION('',(0.,1.,0.));
#240=DIRECTION('',(1.,0.,0.));
#241=DIRECTION('',(-0.813120467277581,0.,0.582095443801348));
#242=DIRECTION('',(0.582095443801348,0.,0.813120467277581));
#243=DIRECTION('',(0.582095443801348,0.,0.813120467277581));
#244=DIRECTION('',(0.,1.,0.));
#245=DIRECTION('',(0.582095443801348,0.,0.813120467277581));
#246=DIRECTION('',(0.,1.,0.));
#247=DIRECTION('',(0.,0.,1.));
#248=DIRECTION('',(0.,-1.,0.));
#249=DIRECTION('',(0.,0.,-1.));
#250=DIRECTION('',(0.,1.,0.));
#251=DIRECTION('',(0.,-1.,0.));
#252=DIRECTION('',(0.,0.,-1.));
#253=DIRECTION('',(-1.,0.,0.));
#254=DIRECTION('',(0.,0.,1.));
#255=DIRECTION('',(0.,0.,1.));
#256=DIRECTION('',(0.,0.,1.));
#257=DIRECTION('',(0.,-1.,0.));
#258=DIRECTION('',(1.,0.,0.));
#259=DIRECTION('',(0.,-1.,0.));
#260=DIRECTION('',(1.,0.,0.));
#261=CARTESIAN_POINT('',(0.,0.,0.));
#262=CARTESIAN_POINT('',(-0.000750000000000009,-0.028,0.0615));
#263=CARTESIAN_POINT('',(-0.000750000000000009,0.022,0.0615));
#264=CARTESIAN_POINT('',(-0.0015,0.022,0.0615));
#265=CARTESIAN_POINT('',(0.0015,0.022,0.0615));
#266=CARTESIAN_POINT('',(-0.0015,-0.028,0.0615));
#267=CARTESIAN_POINT('',(-0.0015,-0.028,0.0615));
#268=CARTESIAN_POINT('',(-0.000750000000000009,-0.028,0.0615));
#269=CARTESIAN_POINT('',(0.0015,-0.028,0.0615));
#270=CARTESIAN_POINT('',(0.0015,-0.028,0.0615));
#271=CARTESIAN_POINT('',(-0.0015,-0.028,0.063791489070561));
#272=CARTESIAN_POINT('',(-0.0015,0.022,0.063791489070561));
#273=CARTESIAN_POINT('',(-0.00149999999999999,0.022,0.066082978141122));
#274=CARTESIAN_POINT('',(-0.00149999999999999,-0.028,0.066082978141122));
#275=CARTESIAN_POINT('',(-0.00149999999999999,-0.028,0.066082978141122));
#276=CARTESIAN_POINT('',(-0.0015,-0.028,0.063791489070561));
#277=CARTESIAN_POINT('',(2.43186547288498E-16,-0.028,-2.66453525910038E-15));
#278=CARTESIAN_POINT('',(2.43186547288498E-16,0.022,-2.66453525910038E-15));
#279=CARTESIAN_POINT('',(-0.009,0.022,0.0654844256293052));
#280=CARTESIAN_POINT('',(-0.009,-0.028,0.0654844256293052));
#281=CARTESIAN_POINT('',(-0.009,-0.028,0.0654844256293052));
#282=CARTESIAN_POINT('',(2.43186547288498E-16,-0.028,-2.66453525910038E-15));
#283=CARTESIAN_POINT('',(-0.00747084078914234,-0.028,0.0633483658725847));
#284=CARTESIAN_POINT('',(-0.00747084078914234,0.022,0.0633483658725847));
#285=CARTESIAN_POINT('',(-0.004,0.022,0.0585));
#286=CARTESIAN_POINT('',(-0.004,-0.028,0.0585));
#287=CARTESIAN_POINT('',(-0.004,-0.028,0.0585));
#288=CARTESIAN_POINT('',(-0.00747084078914234,-0.028,0.0633483658725847));
#289=CARTESIAN_POINT('',(8.67361737988404E-19,-0.028,0.0585));
#290=CARTESIAN_POINT('',(8.67361737988404E-19,0.022,0.0585));
#291=CARTESIAN_POINT('',(0.004,0.022,0.0585));
#292=CARTESIAN_POINT('',(0.004,-0.028,0.0585));
#293=CARTESIAN_POINT('',(0.004,-0.028,0.0585));
#294=CARTESIAN_POINT('',(8.67361737988404E-19,-0.028,0.0585));
#295=CARTESIAN_POINT('',(0.00497084078914234,-0.028,0.0598561530579321));
#296=CARTESIAN_POINT('',(0.00497084078914234,0.022,0.0598561530579321));
#297=CARTESIAN_POINT('',(0.009,0.022,0.0654844256293052));
#298=CARTESIAN_POINT('',(0.009,-0.028,0.0654844256293052));
#299=CARTESIAN_POINT('',(0.009,-0.028,0.0654844256293052));
#300=CARTESIAN_POINT('',(0.00497084078914234,-0.028,0.0598561530579321));
#301=CARTESIAN_POINT('',(-2.23562487966511E-16,-0.028,-1.58900670399476E-15));
#302=CARTESIAN_POINT('',(-2.23562487966511E-16,0.022,-1.58900670399476E-15));
#303=CARTESIAN_POINT('',(0.0015,0.022,0.066082978141122));
#304=CARTESIAN_POINT('',(0.0015,-0.028,0.066082978141122));
#305=CARTESIAN_POINT('',(0.0015,-0.028,0.066082978141122));
#306=CARTESIAN_POINT('',(-2.23562487966511E-16,-0.028,-1.58900670399476E-15));
#307=CARTESIAN_POINT('',(0.0015,-0.028,0.063791489070561));
#308=CARTESIAN_POINT('',(0.0015,0.022,0.063791489070561));
#309=CARTESIAN_POINT('',(0.0015,-0.028,0.063791489070561));
#310=CARTESIAN_POINT('',(0.,-0.028,0.));
#311=CARTESIAN_POINT('',(0.,0.022,0.));
#312=MECHANICAL_DESIGN_GEOMETRIC_PRESENTATION_REPRESENTATION('',(#185),
#313);
#313=(
GEOMETRIC_REPRESENTATION_CONTEXT(3)
GLOBAL_UNCERTAINTY_ASSIGNED_CONTEXT((#314))
GLOBAL_UNIT_ASSIGNED_CONTEXT((#317,#316,#315))
REPRESENTATION_CONTEXT('Hull Rib Aligner','TOP_LEVEL_ASSEMBLY_PART')
);
#314=UNCERTAINTY_MEASURE_WITH_UNIT(LENGTH_MEASURE(1.E-8),#317,
'DISTANCE_ACCURACY_VALUE','Maximum Tolerance applied to model');
#315=(
NAMED_UNIT(*)
SI_UNIT($,.STERADIAN.)
SOLID_ANGLE_UNIT()
);
#316=(
NAMED_UNIT(*)
PLANE_ANGLE_UNIT()
SI_UNIT($,.RADIAN.)
);
#317=(
LENGTH_UNIT()
NAMED_UNIT(*)
SI_UNIT($,.METRE.)
);
#318=PRODUCT_DEFINITION_SHAPE('','',#319);
#319=PRODUCT_DEFINITION('','',#321,#320);
#320=PRODUCT_DEFINITION_CONTEXT('',#327,'design');
#321=PRODUCT_DEFINITION_FORMATION_WITH_SPECIFIED_SOURCE('','',#323,
 .NOT_KNOWN.);
#322=PRODUCT_RELATED_PRODUCT_CATEGORY('','',(#323));
#323=PRODUCT('Hull Rib Aligner','Hull Rib Aligner','Hull Rib Aligner',(#325));
#324=PRODUCT_CATEGORY('','');
#325=PRODUCT_CONTEXT('',#327,'mechanical');
#326=APPLICATION_PROTOCOL_DEFINITION('international standard',
'ap242_managed_model_based_3d_engineering',2020,#327);
#327=APPLICATION_CONTEXT('managed model based 3d engineering');
ENDSEC;
END-ISO-10303-21;
