ISO-10303-21;
HEADER;
/* Generated by software containing ST-Developer
 * from STEP Tools, Inc. (www.steptools.com) 
 */
/* OPTION: using custom renumber hook */

FILE_DESCRIPTION(
/* description */ ('STEP AP242 Edition 2',
'CAx-IF Rec.Pracs.---Representation and Presentation of Product Manufa
cturing Information (PMI)---4.0---2014-10-13',
'CAx-IF Rec.Pracs.---3D Tessellated Geometry---0.4---2014-09-14','2;1',
'CAx-IF Rec.Pracs.---User Defined Attributes---1.5---2016-08-15'),
/* implementation_level */ '2;1');

FILE_NAME(
/* name */ 'Float Valve - Float Valve',
/* time_stamp */ '2026-08-23T20:32:49Z',
/* author */ (''),
/* organization */ (''),
/* preprocessor_version */ 'ST-DEVELOPER v20',
/* originating_system */ 'ONSHAPE BY PTC INC, 1.219',
/* authorisation */ '  ');

FILE_SCHEMA (('AP242_MANAGED_MODEL_BASED_3D_ENGINEERING_MIM_LF { 1 0 10303 442 3 1 4 }'));
ENDSEC;

DATA;
#10=SHAPE_REPRESENTATION_RELATIONSHIP('','',#483,#11);
#11=ADVANCED_BREP_SHAPE_REPRESENTATION('',(#481),#970);
#12=TOROIDAL_SURFACE('',#504,0.005,0.001);
#13=PLANE('',#498);
#14=PLANE('',#502);
#15=PLANE('',#506);
#16=PLANE('',#507);
#17=PLANE('',#512);
#18=PLANE('',#516);
#19=PLANE('',#519);
#20=PLANE('',#525);
#21=PLANE('',#534);
#22=PLANE('',#535);
#23=B_SPLINE_CURVE_WITH_KNOTS('',3,(#678,#679,#680,#681,#682,#683,#684,
#685,#686,#687,#688),.UNSPECIFIED.,.T.,.F.,(1,1,1,1,1,1,1,1,1,1,1,1,1,1,
1),(-0.00289877052056741,-0.00193251368037827,-0.000966256840189136,4.3293439611595E-19,
0.000966256840189136,0.00193251368037827,0.00289877052056741,0.00386502736075654,
0.00483128420094568,0.00579754104113481,0.00676379788132395,0.00773005472151309,
0.00869631156170222,0.00966256840189136,0.0106288252420805),
 .UNSPECIFIED.);
#24=B_SPLINE_CURVE_WITH_KNOTS('',3,(#690,#691,#692,#693,#694,#695,#696,
#697,#698,#699,#700),.UNSPECIFIED.,.T.,.F.,(1,1,1,1,1,1,1,1,1,1,1,1,1,1,
1),(-0.00289877052056739,-0.00193251368037826,-0.00096625684018913,4.61931416048902E-19,
0.000966256840189132,0.00193251368037826,0.0028987705205674,0.00386502736075653,
0.00483128420094566,0.00579754104113479,0.00676379788132392,0.00773005472151306,
0.00869631156170219,0.00966256840189132,0.0106288252420805),
 .UNSPECIFIED.);
#25=B_SPLINE_CURVE_WITH_KNOTS('',3,(#702,#703,#704,#705,#706,#707,#708,
#709,#710,#711,#712),.UNSPECIFIED.,.T.,.F.,(1,1,1,1,1,1,1,1,1,1,1,1,1,1,
1),(-0.00175952414206711,-0.0011730160947114,-0.000586508047355702,0.,0.000586508047355702,
0.0011730160947114,0.00175952414206711,0.00234603218942281,0.00293254023677851,
0.00351904828413421,0.00410555633148991,0.00469206437884561,0.00527857242620132,
0.00586508047355702,0.00645158852091272),.UNSPECIFIED.);
#26=B_SPLINE_CURVE_WITH_KNOTS('',3,(#714,#715,#716,#717,#718,#719,#720,
#721,#722,#723,#724),.UNSPECIFIED.,.T.,.F.,(1,1,1,1,1,1,1,1,1,1,1,1,1,1,
1),(-0.0017595241420671,-0.0011730160947114,-0.000586508047355699,0.,0.000586508047355698,
0.0011730160947114,0.0017595241420671,0.00234603218942279,0.00293254023677849,
0.00351904828413419,0.00410555633148989,0.00469206437884559,0.00527857242620129,
0.00586508047355699,0.00645158852091268),.UNSPECIFIED.);
#27=B_SPLINE_CURVE_WITH_KNOTS('',3,(#726,#727,#728,#729,#730,#731,#732,
#733,#734,#735,#736),.UNSPECIFIED.,.T.,.F.,(1,1,1,1,1,1,1,1,1,1,1,1,1,1,
1),(-0.0017595241420671,-0.0011730160947114,-0.0005865080473557,0.,0.0005865080473557,
0.0011730160947114,0.0017595241420671,0.0023460321894228,0.0029325402367785,
0.0035190482841342,0.0041055563314899,0.0046920643788456,0.0052785724262013,
0.005865080473557,0.0064515885209127),.UNSPECIFIED.);
#28=B_SPLINE_CURVE_WITH_KNOTS('',3,(#738,#739,#740,#741,#742,#743,#744,
#745,#746,#747,#748),.UNSPECIFIED.,.T.,.F.,(1,1,1,1,1,1,1,1,1,1,1,1,1,1,
1),(-0.00175952414206709,-0.00117301609471139,-0.000586508047355698,0.,
0.000586508047355698,0.0011730160947114,0.00175952414206709,0.00234603218942279,
0.00293254023677849,0.00351904828413419,0.00410555633148988,0.00469206437884558,
0.00527857242620128,0.00586508047355697,0.00645158852091267),
 .UNSPECIFIED.);
#29=B_SPLINE_CURVE_WITH_KNOTS('',3,(#750,#751,#752,#753,#754,#755,#756,
#757,#758,#759,#760),.UNSPECIFIED.,.T.,.F.,(1,1,1,1,1,1,1,1,1,1,1,1,1,1,
1),(-0.00175952414206711,-0.0011730160947114,-0.000586508047355699,4.33680868994202E-18,
0.000586508047355708,0.00117301609471141,0.00175952414206711,0.00234603218942282,
0.00293254023677852,0.00351904828413423,0.00410555633148993,0.00469206437884563,
0.00527857242620134,0.00586508047355704,0.00645158852091274),
 .UNSPECIFIED.);
#30=B_SPLINE_CURVE_WITH_KNOTS('',3,(#762,#763,#764,#765,#766,#767,#768,
#769,#770,#771,#772),.UNSPECIFIED.,.T.,.F.,(1,1,1,1,1,1,1,1,1,1,1,1,1,1,
1),(-0.0017595241420671,-0.0011730160947114,-0.000586508047355701,0.,0.000586508047355701,
0.0011730160947114,0.0017595241420671,0.0023460321894228,0.00293254023677851,
0.00351904828413421,0.00410555633148991,0.00469206437884561,0.00527857242620131,
0.00586508047355701,0.00645158852091271),.UNSPECIFIED.);
#31=B_SPLINE_CURVE_WITH_KNOTS('',3,(#774,#775,#776,#777,#778,#779,#780,
#781,#782,#783,#784),.UNSPECIFIED.,.T.,.F.,(1,1,1,1,1,1,1,1,1,1,1,1,1,1,
1),(-0.0017595241420671,-0.0011730160947114,-0.000586508047355696,6.2546344413855E-18,
0.000586508047355709,0.00117301609471141,0.00175952414206711,0.00234603218942282,
0.00293254023677852,0.00351904828413422,0.00410555633148992,0.00469206437884563,
0.00527857242620133,0.00586508047355703,0.00645158852091273),
 .UNSPECIFIED.);
#32=B_SPLINE_CURVE_WITH_KNOTS('',3,(#786,#787,#788,#789,#790,#791,#792,
#793,#794,#795,#796),.UNSPECIFIED.,.T.,.F.,(1,1,1,1,1,1,1,1,1,1,1,1,1,1,
1),(-0.0017595241420671,-0.0011730160947114,-0.0005865080473557,0.,0.0005865080473557,
0.0011730160947114,0.0017595241420671,0.0023460321894228,0.0029325402367785,
0.0035190482841342,0.0041055563314899,0.0046920643788456,0.0052785724262013,
0.005865080473557,0.0064515885209127),.UNSPECIFIED.);
#33=B_SPLINE_CURVE_WITH_KNOTS('',3,(#807,#808,#809,#810,#811,#812,#813,
#814,#815,#816,#817),.UNSPECIFIED.,.T.,.F.,(1,1,1,1,1,1,1,1,1,1,1,1,1,1,
1),(-0.002896910979776,-0.00193127398651733,-0.000965636993258665,1.65711638909346E-19,
0.000965636993258665,0.00193127398651733,0.00289691097977599,0.00386254797303466,
0.00482818496629332,0.00579382195955199,0.00675945895281065,0.00772509594606932,
0.00869073293932798,0.00965636993258665,0.0106220069258453),
 .UNSPECIFIED.);
#34=B_SPLINE_CURVE_WITH_KNOTS('',3,(#819,#820,#821,#822,#823,#824,#825,
#826,#827,#828,#829),.UNSPECIFIED.,.T.,.F.,(1,1,1,1,1,1,1,1,1,1,1,1,1,1,
1),(-0.00175911223204407,-0.00117274148802938,-0.00058637074401469,0.,0.00058637074401469,
0.00117274148802938,0.00175911223204407,0.00234548297605876,0.00293185372007345,
0.00351822446408814,0.00410459520810283,0.00469096595211752,0.00527733669613221,
0.0058637074401469,0.00645007818416159),.UNSPECIFIED.);
#35=B_SPLINE_CURVE_WITH_KNOTS('',3,(#831,#832,#833,#834,#835,#836,#837,
#838,#839,#840,#841),.UNSPECIFIED.,.T.,.F.,(1,1,1,1,1,1,1,1,1,1,1,1,1,1,
1),(-0.00175911223204407,-0.00117274148802938,-0.000586370744014689,0.,
0.00058637074401469,0.00117274148802938,0.00175911223204407,0.00234548297605876,
0.00293185372007345,0.00351822446408814,0.00410459520810283,0.00469096595211752,
0.00527733669613221,0.0058637074401469,0.00645007818416159),
 .UNSPECIFIED.);
#36=B_SPLINE_CURVE_WITH_KNOTS('',3,(#843,#844,#845,#846,#847,#848,#849,
#850,#851,#852,#853),.UNSPECIFIED.,.T.,.F.,(1,1,1,1,1,1,1,1,1,1,1,1,1,1,
1),(-0.00175911223204408,-0.00117274148802939,-0.000586370744014693,0.,
0.000586370744014693,0.00117274148802939,0.00175911223204408,0.00234548297605877,
0.00293185372007347,0.00351822446408816,0.00410459520810285,0.00469096595211754,
0.00527733669613224,0.00586370744014693,0.00645007818416162),
 .UNSPECIFIED.);
#37=B_SPLINE_CURVE_WITH_KNOTS('',3,(#855,#856,#857,#858,#859,#860,#861,
#862,#863,#864,#865),.UNSPECIFIED.,.T.,.F.,(1,1,1,1,1,1,1,1,1,1,1,1,1,1,
1),(-0.00175911223204408,-0.00117274148802939,-0.00058637074401469,4.9065389333868E-18,
0.0005863707440147,0.0011727414880294,0.00175911223204409,0.00234548297605879,
0.00293185372007348,0.00351822446408818,0.00410459520810287,0.00469096595211757,
0.00527733669613226,0.00586370744014696,0.00645007818416165),
 .UNSPECIFIED.);
#38=B_SPLINE_CURVE_WITH_KNOTS('',3,(#867,#868,#869,#870,#871,#872,#873,
#874,#875,#876,#877),.UNSPECIFIED.,.T.,.F.,(1,1,1,1,1,1,1,1,1,1,1,1,1,1,
1),(-0.00175911223204406,-0.00117274148802937,-0.000586370744014688,0.,
0.000586370744014687,0.00117274148802937,0.00175911223204406,0.00234548297605875,
0.00293185372007344,0.00351822446408812,0.00410459520810281,0.0046909659521175,
0.00527733669613219,0.00586370744014687,0.00645007818416156),
 .UNSPECIFIED.);
#39=B_SPLINE_CURVE_WITH_KNOTS('',3,(#879,#880,#881,#882,#883,#884,#885,
#886,#887,#888,#889),.UNSPECIFIED.,.T.,.F.,(1,1,1,1,1,1,1,1,1,1,1,1,1,1,
1),(-0.00175911223204407,-0.00117274148802938,-0.00058637074401469,0.,0.000586370744014691,
0.00117274148802938,0.00175911223204407,0.00234548297605876,0.00293185372007345,
0.00351822446408815,0.00410459520810284,0.00469096595211753,0.00527733669613222,
0.00586370744014691,0.0064500781841616),.UNSPECIFIED.);
#40=B_SPLINE_CURVE_WITH_KNOTS('',3,(#891,#892,#893,#894,#895,#896,#897,
#898,#899,#900,#901),.UNSPECIFIED.,.T.,.F.,(1,1,1,1,1,1,1,1,1,1,1,1,1,1,
1),(-0.00175911223204406,-0.00117274148802937,-0.000586370744014682,6.2546344413855E-18,
0.000586370744014695,0.00117274148802938,0.00175911223204407,0.00234548297605876,
0.00293185372007345,0.00351822446408814,0.00410459520810283,0.00469096595211752,
0.0052773366961322,0.00586370744014689,0.00645007818416158),
 .UNSPECIFIED.);
#41=B_SPLINE_CURVE_WITH_KNOTS('',3,(#903,#904,#905,#906,#907,#908,#909,
#910,#911,#912,#913),.UNSPECIFIED.,.T.,.F.,(1,1,1,1,1,1,1,1,1,1,1,1,1,1,
1),(-0.00175911223204407,-0.00117274148802938,-0.000586370744014686,6.2546344413855E-18,
0.000586370744014699,0.00117274148802939,0.00175911223204408,0.00234548297605878,
0.00293185372007347,0.00351822446408816,0.00410459520810285,0.00469096595211755,
0.00527733669613224,0.00586370744014693,0.00645007818416162),
 .UNSPECIFIED.);
#42=CIRCLE('',#486,0.0075);
#43=CIRCLE('',#487,0.0075);
#44=CIRCLE('',#489,0.0035);
#45=CIRCLE('',#490,0.0035);
#46=CIRCLE('',#491,0.0035);
#47=CIRCLE('',#493,0.0075);
#48=CIRCLE('',#494,0.0075);
#49=CIRCLE('',#496,0.0095);
#50=CIRCLE('',#497,0.0095);
#51=CIRCLE('',#499,0.00376794919243113);
#52=CIRCLE('',#501,0.00376794919243113);
#53=CIRCLE('',#503,0.00413397459621556);
#54=CIRCLE('',#505,0.00586602540378444);
#55=CIRCLE('',#508,0.0055);
#56=CIRCLE('',#509,0.005);
#57=CIRCLE('',#510,0.005);
#58=CIRCLE('',#511,0.0055);
#59=CIRCLE('',#513,0.005);
#60=CIRCLE('',#514,0.0055);
#61=CIRCLE('',#515,0.005);
#62=CIRCLE('',#518,0.0055);
#63=CIRCLE('',#524,0.00123428269411263);
#64=ORIENTED_EDGE('',*,*,#170,.F.);
#65=ORIENTED_EDGE('',*,*,#171,.T.);
#66=ORIENTED_EDGE('',*,*,#172,.T.);
#67=ORIENTED_EDGE('',*,*,#173,.F.);
#68=ORIENTED_EDGE('',*,*,#174,.T.);
#69=ORIENTED_EDGE('',*,*,#175,.T.);
#70=ORIENTED_EDGE('',*,*,#176,.T.);
#71=ORIENTED_EDGE('',*,*,#177,.F.);
#72=ORIENTED_EDGE('',*,*,#178,.F.);
#73=ORIENTED_EDGE('',*,*,#179,.T.);
#74=ORIENTED_EDGE('',*,*,#180,.F.);
#75=ORIENTED_EDGE('',*,*,#181,.F.);
#76=ORIENTED_EDGE('',*,*,#182,.F.);
#77=ORIENTED_EDGE('',*,*,#183,.F.);
#78=ORIENTED_EDGE('',*,*,#184,.F.);
#79=ORIENTED_EDGE('',*,*,#185,.F.);
#80=ORIENTED_EDGE('',*,*,#186,.F.);
#81=ORIENTED_EDGE('',*,*,#187,.F.);
#82=ORIENTED_EDGE('',*,*,#188,.F.);
#83=ORIENTED_EDGE('',*,*,#189,.F.);
#84=ORIENTED_EDGE('',*,*,#190,.F.);
#85=ORIENTED_EDGE('',*,*,#191,.F.);
#86=ORIENTED_EDGE('',*,*,#192,.T.);
#87=ORIENTED_EDGE('',*,*,#193,.T.);
#88=ORIENTED_EDGE('',*,*,#194,.T.);
#89=ORIENTED_EDGE('',*,*,#195,.F.);
#90=ORIENTED_EDGE('',*,*,#196,.F.);
#91=ORIENTED_EDGE('',*,*,#197,.F.);
#92=ORIENTED_EDGE('',*,*,#198,.F.);
#93=ORIENTED_EDGE('',*,*,#199,.F.);
#94=ORIENTED_EDGE('',*,*,#200,.F.);
#95=ORIENTED_EDGE('',*,*,#201,.F.);
#96=ORIENTED_EDGE('',*,*,#202,.F.);
#97=ORIENTED_EDGE('',*,*,#203,.F.);
#98=ORIENTED_EDGE('',*,*,#171,.F.);
#99=ORIENTED_EDGE('',*,*,#204,.T.);
#100=ORIENTED_EDGE('',*,*,#175,.F.);
#101=ORIENTED_EDGE('',*,*,#205,.F.);
#102=ORIENTED_EDGE('',*,*,#206,.T.);
#103=ORIENTED_EDGE('',*,*,#207,.T.);
#104=ORIENTED_EDGE('',*,*,#206,.F.);
#105=ORIENTED_EDGE('',*,*,#208,.T.);
#106=ORIENTED_EDGE('',*,*,#207,.F.);
#107=ORIENTED_EDGE('',*,*,#208,.F.);
#108=ORIENTED_EDGE('',*,*,#209,.T.);
#109=ORIENTED_EDGE('',*,*,#180,.T.);
#110=ORIENTED_EDGE('',*,*,#209,.F.);
#111=ORIENTED_EDGE('',*,*,#179,.F.);
#112=ORIENTED_EDGE('',*,*,#210,.T.);
#113=ORIENTED_EDGE('',*,*,#211,.T.);
#114=ORIENTED_EDGE('',*,*,#191,.T.);
#115=ORIENTED_EDGE('',*,*,#212,.T.);
#116=ORIENTED_EDGE('',*,*,#213,.T.);
#117=ORIENTED_EDGE('',*,*,#193,.F.);
#118=ORIENTED_EDGE('',*,*,#214,.T.);
#119=ORIENTED_EDGE('',*,*,#215,.F.);
#120=ORIENTED_EDGE('',*,*,#216,.T.);
#121=ORIENTED_EDGE('',*,*,#173,.T.);
#122=ORIENTED_EDGE('',*,*,#217,.T.);
#123=ORIENTED_EDGE('',*,*,#177,.T.);
#124=ORIENTED_EDGE('',*,*,#218,.F.);
#125=ORIENTED_EDGE('',*,*,#219,.F.);
#126=ORIENTED_EDGE('',*,*,#215,.T.);
#127=ORIENTED_EDGE('',*,*,#220,.T.);
#128=ORIENTED_EDGE('',*,*,#210,.F.);
#129=ORIENTED_EDGE('',*,*,#213,.F.);
#130=ORIENTED_EDGE('',*,*,#221,.T.);
#131=ORIENTED_EDGE('',*,*,#219,.T.);
#132=ORIENTED_EDGE('',*,*,#174,.F.);
#133=ORIENTED_EDGE('',*,*,#211,.F.);
#134=ORIENTED_EDGE('',*,*,#220,.F.);
#135=ORIENTED_EDGE('',*,*,#214,.F.);
#136=ORIENTED_EDGE('',*,*,#192,.F.);
#137=ORIENTED_EDGE('',*,*,#216,.F.);
#138=ORIENTED_EDGE('',*,*,#221,.F.);
#139=ORIENTED_EDGE('',*,*,#212,.F.);
#140=ORIENTED_EDGE('',*,*,#194,.F.);
#141=ORIENTED_EDGE('',*,*,#195,.T.);
#142=ORIENTED_EDGE('',*,*,#181,.T.);
#143=ORIENTED_EDGE('',*,*,#222,.F.);
#144=ORIENTED_EDGE('',*,*,#182,.T.);
#145=ORIENTED_EDGE('',*,*,#222,.T.);
#146=ORIENTED_EDGE('',*,*,#196,.T.);
#147=ORIENTED_EDGE('',*,*,#183,.T.);
#148=ORIENTED_EDGE('',*,*,#197,.T.);
#149=ORIENTED_EDGE('',*,*,#184,.T.);
#150=ORIENTED_EDGE('',*,*,#198,.T.);
#151=ORIENTED_EDGE('',*,*,#185,.T.);
#152=ORIENTED_EDGE('',*,*,#199,.T.);
#153=ORIENTED_EDGE('',*,*,#186,.T.);
#154=ORIENTED_EDGE('',*,*,#200,.T.);
#155=ORIENTED_EDGE('',*,*,#187,.T.);
#156=ORIENTED_EDGE('',*,*,#201,.T.);
#157=ORIENTED_EDGE('',*,*,#188,.T.);
#158=ORIENTED_EDGE('',*,*,#202,.T.);
#159=ORIENTED_EDGE('',*,*,#189,.T.);
#160=ORIENTED_EDGE('',*,*,#203,.T.);
#161=ORIENTED_EDGE('',*,*,#190,.T.);
#162=ORIENTED_EDGE('',*,*,#170,.T.);
#163=ORIENTED_EDGE('',*,*,#218,.T.);
#164=ORIENTED_EDGE('',*,*,#176,.F.);
#165=ORIENTED_EDGE('',*,*,#204,.F.);
#166=ORIENTED_EDGE('',*,*,#205,.T.);
#167=ORIENTED_EDGE('',*,*,#178,.T.);
#168=ORIENTED_EDGE('',*,*,#217,.F.);
#169=ORIENTED_EDGE('',*,*,#172,.F.);
#170=EDGE_CURVE('',#223,#224,#267,.F.);
#171=EDGE_CURVE('',#223,#225,#42,.T.);
#172=EDGE_CURVE('',#225,#226,#268,.F.);
#173=EDGE_CURVE('',#224,#226,#43,.T.);
#174=EDGE_CURVE('',#227,#227,#44,.T.);
#175=EDGE_CURVE('',#228,#229,#45,.T.);
#176=EDGE_CURVE('',#229,#230,#269,.F.);
#177=EDGE_CURVE('',#231,#230,#46,.T.);
#178=EDGE_CURVE('',#228,#231,#270,.F.);
#179=EDGE_CURVE('',#232,#232,#47,.T.);
#180=EDGE_CURVE('',#233,#233,#48,.T.);
#181=EDGE_CURVE('',#234,#234,#23,.T.);
#182=EDGE_CURVE('',#235,#235,#24,.T.);
#183=EDGE_CURVE('',#236,#236,#25,.T.);
#184=EDGE_CURVE('',#237,#237,#26,.T.);
#185=EDGE_CURVE('',#238,#238,#27,.T.);
#186=EDGE_CURVE('',#239,#239,#28,.T.);
#187=EDGE_CURVE('',#240,#240,#29,.T.);
#188=EDGE_CURVE('',#241,#241,#30,.T.);
#189=EDGE_CURVE('',#242,#242,#31,.T.);
#190=EDGE_CURVE('',#243,#243,#32,.T.);
#191=EDGE_CURVE('',#244,#245,#49,.T.);
#192=EDGE_CURVE('',#244,#246,#271,.F.);
#193=EDGE_CURVE('',#246,#247,#50,.T.);
#194=EDGE_CURVE('',#247,#245,#272,.T.);
#195=EDGE_CURVE('',#248,#248,#33,.T.);
#196=EDGE_CURVE('',#249,#249,#34,.T.);
#197=EDGE_CURVE('',#250,#250,#35,.T.);
#198=EDGE_CURVE('',#251,#251,#36,.T.);
#199=EDGE_CURVE('',#252,#252,#37,.T.);
#200=EDGE_CURVE('',#253,#253,#38,.T.);
#201=EDGE_CURVE('',#254,#254,#39,.T.);
#202=EDGE_CURVE('',#255,#255,#40,.T.);
#203=EDGE_CURVE('',#256,#256,#41,.T.);
#204=EDGE_CURVE('',#223,#229,#273,.T.);
#205=EDGE_CURVE('',#225,#228,#274,.T.);
#206=EDGE_CURVE('',#257,#257,#51,.T.);
#207=EDGE_CURVE('',#258,#258,#52,.T.);
#208=EDGE_CURVE('',#259,#259,#53,.T.);
#209=EDGE_CURVE('',#260,#260,#54,.T.);
#210=EDGE_CURVE('',#232,#261,#55,.T.);
#211=EDGE_CURVE('',#261,#244,#56,.T.);
#212=EDGE_CURVE('',#245,#262,#57,.T.);
#213=EDGE_CURVE('',#262,#232,#58,.T.);
#214=EDGE_CURVE('',#246,#263,#59,.T.);
#215=EDGE_CURVE('',#264,#263,#60,.T.);
#216=EDGE_CURVE('',#264,#247,#61,.T.);
#217=EDGE_CURVE('',#226,#231,#275,.T.);
#218=EDGE_CURVE('',#224,#230,#276,.T.);
#219=EDGE_CURVE('',#265,#265,#62,.T.);
#220=EDGE_CURVE('',#263,#261,#277,.T.);
#221=EDGE_CURVE('',#262,#264,#278,.F.);
#222=EDGE_CURVE('',#266,#266,#63,.T.);
#223=VERTEX_POINT('',#655);
#224=VERTEX_POINT('',#656);
#225=VERTEX_POINT('',#658);
#226=VERTEX_POINT('',#660);
#227=VERTEX_POINT('',#664);
#228=VERTEX_POINT('',#666);
#229=VERTEX_POINT('',#667);
#230=VERTEX_POINT('',#669);
#231=VERTEX_POINT('',#671);
#232=VERTEX_POINT('',#675);
#233=VERTEX_POINT('',#677);
#234=VERTEX_POINT('',#689);
#235=VERTEX_POINT('',#701);
#236=VERTEX_POINT('',#713);
#237=VERTEX_POINT('',#725);
#238=VERTEX_POINT('',#737);
#239=VERTEX_POINT('',#749);
#240=VERTEX_POINT('',#761);
#241=VERTEX_POINT('',#773);
#242=VERTEX_POINT('',#785);
#243=VERTEX_POINT('',#797);
#244=VERTEX_POINT('',#800);
#245=VERTEX_POINT('',#801);
#246=VERTEX_POINT('',#803);
#247=VERTEX_POINT('',#805);
#248=VERTEX_POINT('',#818);
#249=VERTEX_POINT('',#830);
#250=VERTEX_POINT('',#842);
#251=VERTEX_POINT('',#854);
#252=VERTEX_POINT('',#866);
#253=VERTEX_POINT('',#878);
#254=VERTEX_POINT('',#890);
#255=VERTEX_POINT('',#902);
#256=VERTEX_POINT('',#914);
#257=VERTEX_POINT('',#919);
#258=VERTEX_POINT('',#922);
#259=VERTEX_POINT('',#925);
#260=VERTEX_POINT('',#928);
#261=VERTEX_POINT('',#932);
#262=VERTEX_POINT('',#935);
#263=VERTEX_POINT('',#939);
#264=VERTEX_POINT('',#941);
#265=VERTEX_POINT('',#948);
#266=VERTEX_POINT('',#957);
#267=LINE('',#654,#279);
#268=LINE('',#659,#280);
#269=LINE('',#668,#281);
#270=LINE('',#672,#282);
#271=LINE('',#802,#283);
#272=LINE('',#806,#284);
#273=LINE('',#916,#285);
#274=LINE('',#917,#286);
#275=LINE('',#944,#287);
#276=LINE('',#945,#288);
#277=LINE('',#949,#289);
#278=LINE('',#950,#290);
#279=VECTOR('',#540,1.);
#280=VECTOR('',#543,1.);
#281=VECTOR('',#552,1.);
#282=VECTOR('',#555,1.);
#283=VECTOR('',#566,1.);
#284=VECTOR('',#569,1.);
#285=VECTOR('',#572,1.);
#286=VECTOR('',#573,1.);
#287=VECTOR('',#610,1.);
#288=VECTOR('',#611,1.);
#289=VECTOR('',#616,1.);
#290=VECTOR('',#617,1.);
#291=EDGE_LOOP('',(#64,#65,#66,#67));
#292=EDGE_LOOP('',(#68));
#293=EDGE_LOOP('',(#69,#70,#71,#72));
#294=EDGE_LOOP('',(#73));
#295=EDGE_LOOP('',(#74));
#296=EDGE_LOOP('',(#75));
#297=EDGE_LOOP('',(#76));
#298=EDGE_LOOP('',(#77));
#299=EDGE_LOOP('',(#78));
#300=EDGE_LOOP('',(#79));
#301=EDGE_LOOP('',(#80));
#302=EDGE_LOOP('',(#81));
#303=EDGE_LOOP('',(#82));
#304=EDGE_LOOP('',(#83));
#305=EDGE_LOOP('',(#84));
#306=EDGE_LOOP('',(#85,#86,#87,#88));
#307=EDGE_LOOP('',(#89));
#308=EDGE_LOOP('',(#90));
#309=EDGE_LOOP('',(#91));
#310=EDGE_LOOP('',(#92));
#311=EDGE_LOOP('',(#93));
#312=EDGE_LOOP('',(#94));
#313=EDGE_LOOP('',(#95));
#314=EDGE_LOOP('',(#96));
#315=EDGE_LOOP('',(#97));
#316=EDGE_LOOP('',(#98,#99,#100,#101));
#317=EDGE_LOOP('',(#102));
#318=EDGE_LOOP('',(#103));
#319=EDGE_LOOP('',(#104));
#320=EDGE_LOOP('',(#105));
#321=EDGE_LOOP('',(#106));
#322=EDGE_LOOP('',(#107));
#323=EDGE_LOOP('',(#108));
#324=EDGE_LOOP('',(#109));
#325=EDGE_LOOP('',(#110));
#326=EDGE_LOOP('',(#111,#112,#113,#114,#115,#116));
#327=EDGE_LOOP('',(#117,#118,#119,#120));
#328=EDGE_LOOP('',(#121,#122,#123,#124));
#329=EDGE_LOOP('',(#125));
#330=EDGE_LOOP('',(#126,#127,#128,#129,#130));
#331=EDGE_LOOP('',(#131));
#332=EDGE_LOOP('',(#132));
#333=EDGE_LOOP('',(#133,#134,#135,#136));
#334=EDGE_LOOP('',(#137,#138,#139,#140));
#335=EDGE_LOOP('',(#141));
#336=EDGE_LOOP('',(#142));
#337=EDGE_LOOP('',(#143));
#338=EDGE_LOOP('',(#144));
#339=EDGE_LOOP('',(#145));
#340=EDGE_LOOP('',(#146));
#341=EDGE_LOOP('',(#147));
#342=EDGE_LOOP('',(#148));
#343=EDGE_LOOP('',(#149));
#344=EDGE_LOOP('',(#150));
#345=EDGE_LOOP('',(#151));
#346=EDGE_LOOP('',(#152));
#347=EDGE_LOOP('',(#153));
#348=EDGE_LOOP('',(#154));
#349=EDGE_LOOP('',(#155));
#350=EDGE_LOOP('',(#156));
#351=EDGE_LOOP('',(#157));
#352=EDGE_LOOP('',(#158));
#353=EDGE_LOOP('',(#159));
#354=EDGE_LOOP('',(#160));
#355=EDGE_LOOP('',(#161));
#356=EDGE_LOOP('',(#162,#163,#164,#165));
#357=EDGE_LOOP('',(#166,#167,#168,#169));
#358=FACE_BOUND('',#291,.T.);
#359=FACE_BOUND('',#292,.T.);
#360=FACE_BOUND('',#293,.T.);
#361=FACE_BOUND('',#294,.T.);
#362=FACE_BOUND('',#295,.T.);
#363=FACE_BOUND('',#296,.T.);
#364=FACE_BOUND('',#297,.T.);
#365=FACE_BOUND('',#298,.T.);
#366=FACE_BOUND('',#299,.T.);
#367=FACE_BOUND('',#300,.T.);
#368=FACE_BOUND('',#301,.T.);
#369=FACE_BOUND('',#302,.T.);
#370=FACE_BOUND('',#303,.T.);
#371=FACE_BOUND('',#304,.T.);
#372=FACE_BOUND('',#305,.T.);
#373=FACE_BOUND('',#306,.T.);
#374=FACE_BOUND('',#307,.T.);
#375=FACE_BOUND('',#308,.T.);
#376=FACE_BOUND('',#309,.T.);
#377=FACE_BOUND('',#310,.T.);
#378=FACE_BOUND('',#311,.T.);
#379=FACE_BOUND('',#312,.T.);
#380=FACE_BOUND('',#313,.T.);
#381=FACE_BOUND('',#314,.T.);
#382=FACE_BOUND('',#315,.T.);
#383=FACE_BOUND('',#316,.T.);
#384=FACE_BOUND('',#317,.T.);
#385=FACE_BOUND('',#318,.T.);
#386=FACE_BOUND('',#319,.T.);
#387=FACE_BOUND('',#320,.T.);
#388=FACE_BOUND('',#321,.T.);
#389=FACE_BOUND('',#322,.T.);
#390=FACE_BOUND('',#323,.T.);
#391=FACE_BOUND('',#324,.T.);
#392=FACE_BOUND('',#325,.T.);
#393=FACE_BOUND('',#326,.T.);
#394=FACE_BOUND('',#327,.T.);
#395=FACE_BOUND('',#328,.T.);
#396=FACE_BOUND('',#329,.T.);
#397=FACE_BOUND('',#330,.T.);
#398=FACE_BOUND('',#331,.T.);
#399=FACE_BOUND('',#332,.T.);
#400=FACE_BOUND('',#333,.T.);
#401=FACE_BOUND('',#334,.T.);
#402=FACE_BOUND('',#335,.T.);
#403=FACE_BOUND('',#336,.T.);
#404=FACE_BOUND('',#337,.T.);
#405=FACE_BOUND('',#338,.T.);
#406=FACE_BOUND('',#339,.T.);
#407=FACE_BOUND('',#340,.T.);
#408=FACE_BOUND('',#341,.T.);
#409=FACE_BOUND('',#342,.T.);
#410=FACE_BOUND('',#343,.T.);
#411=FACE_BOUND('',#344,.T.);
#412=FACE_BOUND('',#345,.T.);
#413=FACE_BOUND('',#346,.T.);
#414=FACE_BOUND('',#347,.T.);
#415=FACE_BOUND('',#348,.T.);
#416=FACE_BOUND('',#349,.T.);
#417=FACE_BOUND('',#350,.T.);
#418=FACE_BOUND('',#351,.T.);
#419=FACE_BOUND('',#352,.T.);
#420=FACE_BOUND('',#353,.T.);
#421=FACE_BOUND('',#354,.T.);
#422=FACE_BOUND('',#355,.T.);
#423=FACE_BOUND('',#356,.T.);
#424=FACE_BOUND('',#357,.T.);
#425=CYLINDRICAL_SURFACE('',#485,0.0075);
#426=CYLINDRICAL_SURFACE('',#488,0.0035);
#427=CYLINDRICAL_SURFACE('',#492,0.0075);
#428=CYLINDRICAL_SURFACE('',#495,0.0095);
#429=CYLINDRICAL_SURFACE('',#500,0.00376794919243113);
#430=CYLINDRICAL_SURFACE('',#517,0.0055);
#431=CYLINDRICAL_SURFACE('',#520,0.005);
#432=CYLINDRICAL_SURFACE('',#521,0.005);
#433=CYLINDRICAL_SURFACE('',#522,0.00123428269411263);
#434=CYLINDRICAL_SURFACE('',#523,0.00123428269411263);
#435=CYLINDRICAL_SURFACE('',#526,0.00075);
#436=CYLINDRICAL_SURFACE('',#527,0.00075);
#437=CYLINDRICAL_SURFACE('',#528,0.00075);
#438=CYLINDRICAL_SURFACE('',#529,0.00075);
#439=CYLINDRICAL_SURFACE('',#530,0.00075);
#440=CYLINDRICAL_SURFACE('',#531,0.00075);
#441=CYLINDRICAL_SURFACE('',#532,0.00075);
#442=CYLINDRICAL_SURFACE('',#533,0.00075);
#443=ADVANCED_FACE('',(#358),#425,.F.);
#444=ADVANCED_FACE('',(#359,#360),#426,.F.);
#445=ADVANCED_FACE('',(#361,#362,#363,#364,#365,#366,#367,#368,#369,#370,
#371,#372),#427,.F.);
#446=ADVANCED_FACE('',(#373,#374,#375,#376,#377,#378,#379,#380,#381,#382),
#428,.T.);
#447=ADVANCED_FACE('',(#383,#384),#13,.T.);
#448=ADVANCED_FACE('',(#385,#386),#429,.F.);
#449=ADVANCED_FACE('',(#387,#388),#14,.T.);
#450=ADVANCED_FACE('',(#389,#390),#12,.F.);
#451=ADVANCED_FACE('',(#391,#392),#15,.T.);
#452=ADVANCED_FACE('',(#393),#16,.F.);
#453=ADVANCED_FACE('',(#394),#17,.F.);
#454=ADVANCED_FACE('',(#395),#18,.F.);
#455=ADVANCED_FACE('',(#396,#397),#430,.T.);
#456=ADVANCED_FACE('',(#398,#399),#19,.T.);
#457=ADVANCED_FACE('',(#400),#431,.F.);
#458=ADVANCED_FACE('',(#401),#432,.F.);
#459=ADVANCED_FACE('',(#402,#403),#433,.F.);
#460=ADVANCED_FACE('',(#404,#405),#434,.F.);
#461=ADVANCED_FACE('',(#406),#20,.T.);
#462=ADVANCED_FACE('',(#407,#408),#435,.F.);
#463=ADVANCED_FACE('',(#409,#410),#436,.F.);
#464=ADVANCED_FACE('',(#411,#412),#437,.F.);
#465=ADVANCED_FACE('',(#413,#414),#438,.F.);
#466=ADVANCED_FACE('',(#415,#416),#439,.F.);
#467=ADVANCED_FACE('',(#417,#418),#440,.F.);
#468=ADVANCED_FACE('',(#419,#420),#441,.F.);
#469=ADVANCED_FACE('',(#421,#422),#442,.F.);
#470=ADVANCED_FACE('',(#423),#21,.T.);
#471=ADVANCED_FACE('',(#424),#22,.F.);
#472=CLOSED_SHELL('',(#443,#444,#445,#446,#447,#448,#449,#450,#451,#452,
#453,#454,#455,#456,#457,#458,#459,#460,#461,#462,#463,#464,#465,#466,#467,
#468,#469,#470,#471));
#473=STYLED_ITEM('',(#474),#481);
#474=PRESENTATION_STYLE_ASSIGNMENT((#475));
#475=SURFACE_STYLE_USAGE(.BOTH.,#476);
#476=SURFACE_SIDE_STYLE('',(#477));
#477=SURFACE_STYLE_FILL_AREA(#478);
#478=FILL_AREA_STYLE('',(#479));
#479=FILL_AREA_STYLE_COLOUR('',#480);
#480=COLOUR_RGB('',0.615686274509804,0.811764705882353,0.929411764705882);
#481=MANIFOLD_SOLID_BREP('Float Valve',#472);
#482=SHAPE_DEFINITION_REPRESENTATION(#975,#483);
#483=SHAPE_REPRESENTATION('Float Valve',(#484),#970);
#484=AXIS2_PLACEMENT_3D('',#652,#536,#537);
#485=AXIS2_PLACEMENT_3D('',#653,#538,#539);
#486=AXIS2_PLACEMENT_3D('',#657,#541,#542);
#487=AXIS2_PLACEMENT_3D('',#661,#544,#545);
#488=AXIS2_PLACEMENT_3D('',#662,#546,#547);
#489=AXIS2_PLACEMENT_3D('',#663,#548,#549);
#490=AXIS2_PLACEMENT_3D('',#665,#550,#551);
#491=AXIS2_PLACEMENT_3D('',#670,#553,#554);
#492=AXIS2_PLACEMENT_3D('',#673,#556,#557);
#493=AXIS2_PLACEMENT_3D('',#674,#558,#559);
#494=AXIS2_PLACEMENT_3D('',#676,#560,#561);
#495=AXIS2_PLACEMENT_3D('',#798,#562,#563);
#496=AXIS2_PLACEMENT_3D('',#799,#564,#565);
#497=AXIS2_PLACEMENT_3D('',#804,#567,#568);
#498=AXIS2_PLACEMENT_3D('',#915,#570,#571);
#499=AXIS2_PLACEMENT_3D('',#918,#574,#575);
#500=AXIS2_PLACEMENT_3D('',#920,#576,#577);
#501=AXIS2_PLACEMENT_3D('',#921,#578,#579);
#502=AXIS2_PLACEMENT_3D('',#923,#580,#581);
#503=AXIS2_PLACEMENT_3D('',#924,#582,#583);
#504=AXIS2_PLACEMENT_3D('',#926,#584,#585);
#505=AXIS2_PLACEMENT_3D('',#927,#586,#587);
#506=AXIS2_PLACEMENT_3D('',#929,#588,#589);
#507=AXIS2_PLACEMENT_3D('',#930,#590,#591);
#508=AXIS2_PLACEMENT_3D('',#931,#592,#593);
#509=AXIS2_PLACEMENT_3D('',#933,#594,#595);
#510=AXIS2_PLACEMENT_3D('',#934,#596,#597);
#511=AXIS2_PLACEMENT_3D('',#936,#598,#599);
#512=AXIS2_PLACEMENT_3D('',#937,#600,#601);
#513=AXIS2_PLACEMENT_3D('',#938,#602,#603);
#514=AXIS2_PLACEMENT_3D('',#940,#604,#605);
#515=AXIS2_PLACEMENT_3D('',#942,#606,#607);
#516=AXIS2_PLACEMENT_3D('',#943,#608,#609);
#517=AXIS2_PLACEMENT_3D('',#946,#612,#613);
#518=AXIS2_PLACEMENT_3D('',#947,#614,#615);
#519=AXIS2_PLACEMENT_3D('',#951,#618,#619);
#520=AXIS2_PLACEMENT_3D('',#952,#620,#621);
#521=AXIS2_PLACEMENT_3D('',#953,#622,#623);
#522=AXIS2_PLACEMENT_3D('',#954,#624,#625);
#523=AXIS2_PLACEMENT_3D('',#955,#626,#627);
#524=AXIS2_PLACEMENT_3D('',#956,#628,#629);
#525=AXIS2_PLACEMENT_3D('',#958,#630,#631);
#526=AXIS2_PLACEMENT_3D('',#959,#632,#633);
#527=AXIS2_PLACEMENT_3D('',#960,#634,#635);
#528=AXIS2_PLACEMENT_3D('',#961,#636,#637);
#529=AXIS2_PLACEMENT_3D('',#962,#638,#639);
#530=AXIS2_PLACEMENT_3D('',#963,#640,#641);
#531=AXIS2_PLACEMENT_3D('',#964,#642,#643);
#532=AXIS2_PLACEMENT_3D('',#965,#644,#645);
#533=AXIS2_PLACEMENT_3D('',#966,#646,#647);
#534=AXIS2_PLACEMENT_3D('',#967,#648,#649);
#535=AXIS2_PLACEMENT_3D('',#968,#650,#651);
#536=DIRECTION('',(0.,0.,1.));
#537=DIRECTION('',(1.,0.,0.));
#538=DIRECTION('',(0.,0.,-1.));
#539=DIRECTION('',(-1.,0.,0.));
#540=DIRECTION('',(0.,0.,-1.));
#541=DIRECTION('',(0.,0.,-1.));
#542=DIRECTION('',(-1.,0.,0.));
#543=DIRECTION('',(0.,0.,-1.));
#544=DIRECTION('',(0.,0.,-1.));
#545=DIRECTION('',(-1.,0.,0.));
#546=DIRECTION('',(0.,0.,-1.));
#547=DIRECTION('',(-1.,0.,0.));
#548=DIRECTION('',(0.,0.,-1.));
#549=DIRECTION('',(-1.,0.,0.));
#550=DIRECTION('',(0.,0.,1.));
#551=DIRECTION('',(1.,0.,0.));
#552=DIRECTION('',(0.,0.,-1.));
#553=DIRECTION('',(0.,0.,-1.));
#554=DIRECTION('',(-1.,0.,0.));
#555=DIRECTION('',(0.,0.,-1.));
#556=DIRECTION('',(0.,0.,-1.));
#557=DIRECTION('',(-1.,0.,0.));
#558=DIRECTION('',(0.,0.,-1.));
#559=DIRECTION('',(-1.,0.,0.));
#560=DIRECTION('',(0.,0.,-1.));
#561=DIRECTION('',(-1.,0.,0.));
#562=DIRECTION('',(0.,0.,-1.));
#563=DIRECTION('',(-1.,0.,0.));
#564=DIRECTION('',(0.,0.,-1.));
#565=DIRECTION('',(-1.,0.,0.));
#566=DIRECTION('',(0.,0.,-1.));
#567=DIRECTION('',(0.,0.,-1.));
#568=DIRECTION('',(-1.,0.,0.));
#569=DIRECTION('',(0.,0.,-1.));
#570=DIRECTION('',(0.,0.,1.));
#571=DIRECTION('',(1.,0.,0.));
#572=DIRECTION('',(-1.,0.,0.));
#573=DIRECTION('',(-1.,0.,0.));
#574=DIRECTION('',(0.,0.,-1.));
#575=DIRECTION('',(-1.,0.,0.));
#576=DIRECTION('',(0.,0.,-1.));
#577=DIRECTION('',(-1.,0.,0.));
#578=DIRECTION('',(0.,0.,-1.));
#579=DIRECTION('',(-1.,0.,0.));
#580=DIRECTION('',(0.,0.,-1.));
#581=DIRECTION('',(-1.,0.,0.));
#582=DIRECTION('',(0.,0.,-1.));
#583=DIRECTION('',(-1.,0.,0.));
#584=DIRECTION('',(0.,0.,-1.));
#585=DIRECTION('',(-1.,0.,0.));
#586=DIRECTION('',(0.,0.,-1.));
#587=DIRECTION('',(-1.,0.,0.));
#588=DIRECTION('',(0.,0.,-1.));
#589=DIRECTION('',(-1.,0.,0.));
#590=DIRECTION('',(0.,0.,1.));
#591=DIRECTION('',(1.,0.,0.));
#592=DIRECTION('',(0.,0.,1.));
#593=DIRECTION('',(1.,0.,0.));
#594=DIRECTION('',(0.,0.,1.));
#595=DIRECTION('',(1.,0.,0.));
#596=DIRECTION('',(0.,0.,1.));
#597=DIRECTION('',(1.,0.,0.));
#598=DIRECTION('',(0.,0.,1.));
#599=DIRECTION('',(1.,0.,0.));
#600=DIRECTION('',(0.,0.,-1.));
#601=DIRECTION('',(-1.,0.,0.));
#602=DIRECTION('',(0.,0.,-1.));
#603=DIRECTION('',(-1.,0.,0.));
#604=DIRECTION('',(0.,0.,-1.));
#605=DIRECTION('',(-1.,0.,0.));
#606=DIRECTION('',(0.,0.,-1.));
#607=DIRECTION('',(-1.,0.,0.));
#608=DIRECTION('',(0.,0.,1.));
#609=DIRECTION('',(1.,0.,0.));
#610=DIRECTION('',(-1.,0.,0.));
#611=DIRECTION('',(-1.,0.,0.));
#612=DIRECTION('',(0.,0.,-1.));
#613=DIRECTION('',(-1.,0.,0.));
#614=DIRECTION('',(0.,0.,-1.));
#615=DIRECTION('',(-1.,0.,0.));
#616=DIRECTION('',(0.,0.,-1.));
#617=DIRECTION('',(0.,0.,-1.));
#618=DIRECTION('',(0.,0.,-1.));
#619=DIRECTION('',(-1.,0.,0.));
#620=DIRECTION('',(0.,0.,-1.));
#621=DIRECTION('',(-1.,0.,0.));
#622=DIRECTION('',(0.,0.,1.));
#623=DIRECTION('',(1.,0.,0.));
#624=DIRECTION('',(-1.,0.,0.));
#625=DIRECTION('',(0.,0.,1.));
#626=DIRECTION('',(-1.,0.,0.));
#627=DIRECTION('',(0.,0.,1.));
#628=DIRECTION('',(1.,0.,0.));
#629=DIRECTION('',(0.,0.,-1.));
#630=DIRECTION('',(1.,0.,0.));
#631=DIRECTION('',(0.,1.,0.));
#632=DIRECTION('',(0.,1.,0.));
#633=DIRECTION('',(0.,0.,1.));
#634=DIRECTION('',(-0.951056516295154,0.309016994374948,0.));
#635=DIRECTION('',(0.,0.,1.));
#636=DIRECTION('',(-0.587785252292473,0.809016994374948,0.));
#637=DIRECTION('',(0.,0.,1.));
#638=DIRECTION('',(-0.587785252292473,-0.809016994374947,0.));
#639=DIRECTION('',(0.,0.,1.));
#640=DIRECTION('',(-0.951056516295154,-0.309016994374948,0.));
#641=DIRECTION('',(0.,0.,1.));
#642=DIRECTION('',(-1.22464679914735E-16,-1.,0.));
#643=DIRECTION('',(0.,0.,1.));
#644=DIRECTION('',(0.587785252292473,-0.809016994374948,0.));
#645=DIRECTION('',(0.,0.,1.));
#646=DIRECTION('',(0.587785252292473,0.809016994374947,0.));
#647=DIRECTION('',(0.,0.,1.));
#648=DIRECTION('',(0.,-1.,0.));
#649=DIRECTION('',(1.,0.,0.));
#650=DIRECTION('',(0.,-1.,0.));
#651=DIRECTION('',(1.,0.,0.));
#652=CARTESIAN_POINT('',(0.,0.,0.));
#653=CARTESIAN_POINT('',(0.0185,0.,0.035));
#654=CARTESIAN_POINT('',(0.0112715838525995,0.002,0.035));
#655=CARTESIAN_POINT('',(0.0112715838525995,0.002,0.043));
#656=CARTESIAN_POINT('',(0.0112715838525995,0.002,0.048));
#657=CARTESIAN_POINT('',(0.0185,0.,0.043));
#658=CARTESIAN_POINT('',(0.0112715838525995,-0.002,0.043));
#659=CARTESIAN_POINT('',(0.0112715838525995,-0.002,0.035));
#660=CARTESIAN_POINT('',(0.0112715838525995,-0.002,0.048));
#661=CARTESIAN_POINT('',(0.0185,0.,0.048));
#662=CARTESIAN_POINT('',(0.0055,0.,0.025));
#663=CARTESIAN_POINT('',(0.0055,0.,0.));
#664=CARTESIAN_POINT('',(0.002,0.,0.));
#665=CARTESIAN_POINT('',(0.0055,0.,0.043));
#666=CARTESIAN_POINT('',(0.00837228132326901,-0.002,0.043));
#667=CARTESIAN_POINT('',(0.00837228132326901,0.002,0.043));
#668=CARTESIAN_POINT('',(0.00837228132326901,0.002,0.025));
#669=CARTESIAN_POINT('',(0.00837228132326901,0.002,0.048));
#670=CARTESIAN_POINT('',(0.0055,0.,0.048));
#671=CARTESIAN_POINT('',(0.00837228132326901,-0.002,0.048));
#672=CARTESIAN_POINT('',(0.00837228132326901,-0.002,0.025));
#673=CARTESIAN_POINT('',(0.0185,0.,0.035));
#674=CARTESIAN_POINT('',(0.0185,0.,0.02));
#675=CARTESIAN_POINT('',(0.011,0.,0.02));
#676=CARTESIAN_POINT('',(0.0185,0.,0.0365));
#677=CARTESIAN_POINT('',(0.011,0.,0.0365));
#678=CARTESIAN_POINT('',(0.02594909405054,-0.000968257512210366,0.0231900618139555));
#679=CARTESIAN_POINT('',(0.0260254300167099,2.29791850591446E-7,0.0235918670351682));
#680=CARTESIAN_POINT('',(0.0259491858826204,0.000967338344807998,0.0231903428858442));
#681=CARTESIAN_POINT('',(0.0258720186915847,0.00136770430654379,0.0222248864889175));
#682=CARTESIAN_POINT('',(0.0259491751439942,0.000967539372642143,0.0212565405342189));
#683=CARTESIAN_POINT('',(0.0260253637878496,3.57350272459022E-7,0.0208561117322194));
#684=CARTESIAN_POINT('',(0.0259493696117982,-0.000966078644244801,0.0212554936119719));
#685=CARTESIAN_POINT('',(0.0258719930830658,-0.00136783939464526,0.0222226555970857));
#686=CARTESIAN_POINT('',(0.02594909405054,-0.000968257512210366,0.0231900618139555));
#687=CARTESIAN_POINT('',(0.0260254300167099,2.29791850591446E-7,0.0235918670351682));
#688=CARTESIAN_POINT('',(0.0259491858826204,0.000967338344807998,0.0231903428858442));
#689=CARTESIAN_POINT('',(0.026,-5.21184522602719E-19,0.0234579788067454));
#690=CARTESIAN_POINT('',(0.01105090594946,0.000968257512210376,0.0231900618139555));
#691=CARTESIAN_POINT('',(0.0109745699832901,-2.29791850595186E-7,0.0235918670351682));
#692=CARTESIAN_POINT('',(0.0110508141173795,-0.000967338344807997,0.0231903428858443));
#693=CARTESIAN_POINT('',(0.0111279813084153,-0.00136770430654378,0.0222248864889175));
#694=CARTESIAN_POINT('',(0.0110508248560058,-0.000967539372642153,0.0212565405342189));
#695=CARTESIAN_POINT('',(0.0109746362121505,-3.57350272462122E-7,0.0208561117322194));
#696=CARTESIAN_POINT('',(0.0110506303882018,0.000966078644244792,0.0212554936119719));
#697=CARTESIAN_POINT('',(0.0111280069169342,0.00136783939464526,0.0222226555970857));
#698=CARTESIAN_POINT('',(0.01105090594946,0.000968257512210376,0.0231900618139555));
#699=CARTESIAN_POINT('',(0.0109745699832901,-2.29791850595186E-7,0.0235918670351682));
#700=CARTESIAN_POINT('',(0.0110508141173795,-0.000967338344807997,0.0231903428858443));
#701=CARTESIAN_POINT('',(0.011,4.75452275762334E-19,0.0234579788067454));
#702=CARTESIAN_POINT('',(0.0179116321846701,-0.00748120252042522,0.0333290794959668));
#703=CARTESIAN_POINT('',(0.0185001472791599,-0.00750938978494039,0.0335731816677269));
#704=CARTESIAN_POINT('',(0.0190877786986903,-0.00748123833981323,0.033329261757625));
#705=CARTESIAN_POINT('',(0.0193310445557812,-0.00745299275931684,0.032742493593823));
#706=CARTESIAN_POINT('',(0.0190880424057596,-0.00748122536029859,0.0321542918380113));
#707=CARTESIAN_POINT('',(0.0185001468758187,-0.00750936693665121,0.0319108076018141));
#708=CARTESIAN_POINT('',(0.0179130237571986,-0.00748130686271198,0.0321535459830777));
#709=CARTESIAN_POINT('',(0.0176688365240838,-0.00745298137287697,0.0327410398688404));
#710=CARTESIAN_POINT('',(0.0179116321846701,-0.00748120252042522,0.0333290794959668));
#711=CARTESIAN_POINT('',(0.0185001472791599,-0.00750938978494039,0.0335731816677269));
#712=CARTESIAN_POINT('',(0.0190877786986903,-0.00748123833981323,0.033329261757625));
#713=CARTESIAN_POINT('',(0.0185,-0.0075,0.0334918446540833));
#714=CARTESIAN_POINT('',(0.0254332307528939,-0.00287138976191992,0.0333290794959668));
#715=CARTESIAN_POINT('',(0.0256418996001311,-0.00232038899012748,0.0335731816677269));
#716=CARTESIAN_POINT('',(0.0257967140798634,-0.00175281902444278,0.033329261757625));
#717=CARTESIAN_POINT('',(0.025845024220468,-0.00151273108147506,0.032742493593823));
#718=CARTESIAN_POINT('',(0.0257967832255774,-0.00175256421322551,0.0321542918380113));
#719=CARTESIAN_POINT('',(0.0256418777454776,-0.00232038231321807,0.0319108076018141));
#720=CARTESIAN_POINT('',(0.0254337600078659,-0.00287009854133858,0.0321535459830777));
#721=CARTESIAN_POINT('',(0.0253313628613392,-0.0030935813428555,0.0327410398688404));
#722=CARTESIAN_POINT('',(0.0254332307528939,-0.00287138976191992,0.0333290794959668));
#723=CARTESIAN_POINT('',(0.0256418996001311,-0.00232038899012748,0.0335731816677269));
#724=CARTESIAN_POINT('',(0.0257967140798634,-0.00175281902444278,0.033329261757625));
#725=CARTESIAN_POINT('',(0.0256329238722137,-0.00231762745781211,0.0334918446540833));
#726=CARTESIAN_POINT('',(0.0224213409493741,-0.00639825390215914,0.0333290794959668));
#727=CARTESIAN_POINT('',(0.022914027720647,-0.00607513738488425,0.0335731816677269));
#728=CARTESIAN_POINT('',(0.0233728845211993,-0.00570696130517648,0.033329261757625));
#729=CARTESIAN_POINT('',(0.0235530883980788,-0.00554112206735464,0.032742493593823));
#730=CARTESIAN_POINT('',(0.0233730902355327,-0.00570679580140228,0.0321542918380113));
#731=CARTESIAN_POINT('',(0.0229140139644497,-0.006075119137308,0.0319108076018141));
#732=CARTESIAN_POINT('',(0.0224225280860559,-0.00639752037103258,0.0321535459830777));
#733=CARTESIAN_POINT('',(0.0222083271594677,-0.00651813422280505,0.0327410398688404));
#734=CARTESIAN_POINT('',(0.0224213409493741,-0.00639825390215914,0.0333290794959668));
#735=CARTESIAN_POINT('',(0.022914027720647,-0.00607513738488425,0.0335731816677269));
#736=CARTESIAN_POINT('',(0.0233728845211993,-0.00570696130517648,0.033329261757625));
#737=CARTESIAN_POINT('',(0.0229083893921935,-0.0060676274578121,0.0334918446540833));
#738=CARTESIAN_POINT('',(0.0233733400724644,0.00570658605261024,0.0333290794959668));
#739=CARTESIAN_POINT('',(0.0229137894179604,0.00607531052192056,0.0335731816677269));
#740=CARTESIAN_POINT('',(0.0224218386088552,0.00639793660658017,0.0333292617576251));
#741=CARTESIAN_POINT('',(0.0222084300606593,0.00651807353512688,0.0327424935938231));
#742=CARTESIAN_POINT('',(0.0224216176361872,0.00639808110905853,0.0321542918380113));
#743=CARTESIAN_POINT('',(0.0229137763143828,0.00607529180018837,0.0319108076018141));
#744=CARTESIAN_POINT('',(0.0233722755974972,0.00570748841310327,0.0321535459830777));
#745=CARTESIAN_POINT('',(0.0235531779137075,0.00554104295602975,0.0327410398688404));
#746=CARTESIAN_POINT('',(0.0233733400724644,0.00570658605261024,0.0333290794959668));
#747=CARTESIAN_POINT('',(0.0229137894179604,0.00607531052192056,0.0335731816677269));
#748=CARTESIAN_POINT('',(0.0224218386088552,0.00639793660658017,0.0333292617576251));
#749=CARTESIAN_POINT('',(0.0229083893921935,0.00606762745781211,0.0334918446540833));
#750=CARTESIAN_POINT('',(0.0257968620606543,0.00175224767242424,0.0333290794959668));
#751=CARTESIAN_POINT('',(0.0256418085766045,0.00232066913173693,0.0335731816677269));
#752=CARTESIAN_POINT('',(0.0254334468662096,0.00287084054750064,0.033329261757625));
#753=CARTESIAN_POINT('',(0.0253314104388297,0.00309347176168959,0.032742493593823));
#754=CARTESIAN_POINT('',(0.0254333530319917,0.00287108733693666,0.0321542918380112));
#755=CARTESIAN_POINT('',(0.0256417869712295,0.002320661687627,0.0319108076018141));
#756=CARTESIAN_POINT('',(0.0257965312765059,0.00175360338008522,0.0321535459830778));
#757=CARTESIAN_POINT('',(0.0258450501396629,0.0015126144631023,0.0327410398688404));
#758=CARTESIAN_POINT('',(0.0257968620606543,0.00175224767242424,0.0333290794959668));
#759=CARTESIAN_POINT('',(0.0256418085766045,0.00232066913173693,0.0335731816677269));
#760=CARTESIAN_POINT('',(0.0254334468662096,0.00287084054750064,0.033329261757625));
#761=CARTESIAN_POINT('',(0.0256329238722137,0.00231762745781211,0.0334918446540833));
#762=CARTESIAN_POINT('',(0.0190883678153299,0.00748120252042522,0.0333290794959668));
#763=CARTESIAN_POINT('',(0.0184998527208401,0.00750938978494039,0.0335731816677269));
#764=CARTESIAN_POINT('',(0.0179122213013097,0.00748123833981324,0.033329261757625));
#765=CARTESIAN_POINT('',(0.0176689554442189,0.00745299275931684,0.032742493593823));
#766=CARTESIAN_POINT('',(0.0179119575942404,0.00748122536029859,0.0321542918380112));
#767=CARTESIAN_POINT('',(0.0184998531241813,0.00750936693665121,0.0319108076018141));
#768=CARTESIAN_POINT('',(0.0190869762428013,0.00748130686271198,0.0321535459830777));
#769=CARTESIAN_POINT('',(0.0193311634759162,0.00745298137287697,0.0327410398688404));
#770=CARTESIAN_POINT('',(0.0190883678153299,0.00748120252042522,0.0333290794959668));
#771=CARTESIAN_POINT('',(0.0184998527208401,0.00750938978494039,0.0335731816677269));
#772=CARTESIAN_POINT('',(0.0179122213013097,0.00748123833981324,0.033329261757625));
#773=CARTESIAN_POINT('',(0.0185,0.0075,0.0334918446540833));
#774=CARTESIAN_POINT('',(0.0145786590506259,0.00639825390215915,0.0333290794959668));
#775=CARTESIAN_POINT('',(0.014085972279353,0.00607513738488424,0.0335731816677269));
#776=CARTESIAN_POINT('',(0.0136271154788007,0.00570696130517648,0.033329261757625));
#777=CARTESIAN_POINT('',(0.0134469116019213,0.00554112206735466,0.032742493593823));
#778=CARTESIAN_POINT('',(0.0136269097644674,0.00570679580140231,0.0321542918380112));
#779=CARTESIAN_POINT('',(0.0140859860355503,0.00607511913730803,0.0319108076018141));
#780=CARTESIAN_POINT('',(0.0145774719139441,0.00639752037103261,0.0321535459830777));
#781=CARTESIAN_POINT('',(0.0147916728405323,0.00651813422280507,0.0327410398688404));
#782=CARTESIAN_POINT('',(0.0145786590506259,0.00639825390215915,0.0333290794959668));
#783=CARTESIAN_POINT('',(0.014085972279353,0.00607513738488424,0.0335731816677269));
#784=CARTESIAN_POINT('',(0.0136271154788007,0.00570696130517648,0.033329261757625));
#785=CARTESIAN_POINT('',(0.0140916106078065,0.00606762745781211,0.0334918446540833));
#786=CARTESIAN_POINT('',(0.0136266599275356,-0.00570658605261023,0.0333290794959668));
#787=CARTESIAN_POINT('',(0.0140862105820395,-0.00607531052192057,0.0335731816677269));
#788=CARTESIAN_POINT('',(0.0145781613911448,-0.00639793660658016,0.033329261757625));
#789=CARTESIAN_POINT('',(0.0147915699393407,-0.00651807353512688,0.032742493593823));
#790=CARTESIAN_POINT('',(0.0145783823638127,-0.00639808110905851,0.0321542918380113));
#791=CARTESIAN_POINT('',(0.0140862236856171,-0.00607529180018834,0.0319108076018141));
#792=CARTESIAN_POINT('',(0.0136277244025028,-0.00570748841310325,0.0321535459830777));
#793=CARTESIAN_POINT('',(0.0134468220862925,-0.00554104295602974,0.0327410398688404));
#794=CARTESIAN_POINT('',(0.0136266599275356,-0.00570658605261023,0.0333290794959668));
#795=CARTESIAN_POINT('',(0.0140862105820395,-0.00607531052192057,0.0335731816677269));
#796=CARTESIAN_POINT('',(0.0145781613911448,-0.00639793660658016,0.033329261757625));
#797=CARTESIAN_POINT('',(0.0140916106078064,-0.00606762745781211,0.0334918446540833));
#798=CARTESIAN_POINT('',(0.0185,0.,0.035));
#799=CARTESIAN_POINT('',(0.0185,0.,0.02));
#800=CARTESIAN_POINT('',(0.0117214854111406,0.00665595522585753,0.02));
#801=CARTESIAN_POINT('',(0.0117214854111406,-0.00665595522585753,0.02));
#802=CARTESIAN_POINT('',(0.0117214854111406,0.00665595522585752,0.035));
#803=CARTESIAN_POINT('',(0.0117214854111406,0.00665595522585752,0.05));
#804=CARTESIAN_POINT('',(0.0185,0.,0.05));
#805=CARTESIAN_POINT('',(0.0117214854111406,-0.00665595522585752,0.05));
#806=CARTESIAN_POINT('',(0.0117214854111406,-0.00665595522585752,0.035));
#807=CARTESIAN_POINT('',(0.0279598087634956,0.000968273476489922,0.0231900919697906));
#808=CARTESIAN_POINT('',(0.0280200768429093,-2.37797759764977E-7,0.0235918486790611));
#809=CARTESIAN_POINT('',(0.0279598838648672,-0.000967322285450861,0.0231903861544375));
#810=CARTESIAN_POINT('',(0.0278992784765962,-0.00136767818726617,0.0222248141412143));
#811=CARTESIAN_POINT('',(0.027959864149547,-0.000967659978468373,0.0212566641089046));
#812=CARTESIAN_POINT('',(0.0280200263838733,-2.88362341481395E-7,0.0208560773629149));
#813=CARTESIAN_POINT('',(0.02796003024661,0.000966022031618914,0.0212555074766307));
#814=CARTESIAN_POINT('',(0.0278992557871026,0.00136784942268187,0.0222224873484701));
#815=CARTESIAN_POINT('',(0.0279598087634956,0.000968273476489922,0.0231900919697906));
#816=CARTESIAN_POINT('',(0.0280200768429093,-2.37797759764977E-7,0.0235918486790611));
#817=CARTESIAN_POINT('',(0.0279598838648672,-0.000967322285450861,0.0231903861544375));
#818=CARTESIAN_POINT('',(0.028,-2.46123523573316E-19,0.0234579788067454));
#819=CARTESIAN_POINT('',(0.0190883710077692,-0.00948515968099975,0.0333290860829378));
#820=CARTESIAN_POINT('',(0.0184998512623917,-0.00950741301824191,0.0335731777481903));
#821=CARTESIAN_POINT('',(0.0179122239426638,-0.0094851882460326,0.0333292708488004));
#822=CARTESIAN_POINT('',(0.0176689621565516,-0.00946293155511672,0.0327424769711233));
#823=CARTESIAN_POINT('',(0.0179119280889607,-0.00948517636022459,0.0321543223946336));
#824=CARTESIAN_POINT('',(0.0184998683856717,-0.00950739533410652,0.0319107981316195));
#825=CARTESIAN_POINT('',(0.019086968356757,-0.00948524228004288,0.0321535532986032));
#826=CARTESIAN_POINT('',(0.0193311646189673,-0.00946292224615341,0.0327410049664362));
#827=CARTESIAN_POINT('',(0.0190883710077692,-0.00948515968099975,0.0333290860829378));
#828=CARTESIAN_POINT('',(0.0184998512623917,-0.00950741301824191,0.0335731777481903));
#829=CARTESIAN_POINT('',(0.0179122239426638,-0.0094851882460326,0.0333292708488004));
#830=CARTESIAN_POINT('',(0.0185,-0.0095,0.0334918446540833));
#831=CARTESIAN_POINT('',(0.0277027395631131,-0.0023715014548509,0.0333290860829378));
#832=CARTESIAN_POINT('',(0.0275420411416597,-0.00293809365304992,0.0335731777481903));
#833=CARTESIAN_POINT('',(0.0273393172990719,-0.00349009261232143,0.0333292708488004));
#834=CARTESIAN_POINT('',(0.0272429779021545,-0.00371457062343745,0.0327424769711233));
#835=CARTESIAN_POINT('',(0.0273392145711747,-0.00349037031299697,0.0321543223946336));
#836=CARTESIAN_POINT('',(0.027542029614432,-0.00293807190314453,0.0319107981316195));
#837=CARTESIAN_POINT('',(0.0277023846764713,-0.00237286097974417,0.0321535532986031));
#838=CARTESIAN_POINT('',(0.0277566178577827,-0.00213371926352728,0.0327410049664362));
#839=CARTESIAN_POINT('',(0.0277027395631131,-0.0023715014548509,0.0333290860829378));
#840=CARTESIAN_POINT('',(0.0275420411416597,-0.00293809365304992,0.0335731777481903));
#841=CARTESIAN_POINT('',(0.0273393172990719,-0.00349009261232143,0.0333292708488004));
#842=CARTESIAN_POINT('',(0.0275350369048039,-0.002935661446562,0.0334918446540833));
#843=CARTESIAN_POINT('',(0.0245512391204137,-0.00732781957504563,0.0333290860829379));
#844=CARTESIAN_POINT('',(0.0240881968283233,-0.00769174613007192,0.0335731777481903));
#845=CARTESIAN_POINT('',(0.0235997329469642,-0.00801916458403869,0.0333292708488004));
#846=CARTESIAN_POINT('',(0.0233898478732323,-0.00814414423317226,0.0327424769711233));
#847=CARTESIAN_POINT('',(0.0235994866099879,-0.00801932886666153,0.0321543223946336));
#848=CARTESIAN_POINT('',(0.0240882002868738,-0.00769172175849438,0.0319107981316195));
#849=CARTESIAN_POINT('',(0.024550152902407,-0.00732871085665431,0.0321535532986031));
#850=CARTESIAN_POINT('',(0.0247345924417471,-0.00716711860833056,0.0327410049664362));
#851=CARTESIAN_POINT('',(0.0245512391204137,-0.00732781957504563,0.0333290860829379));
#852=CARTESIAN_POINT('',(0.0240881968283233,-0.00769174613007192,0.0335731777481903));
#853=CARTESIAN_POINT('',(0.0235997329469642,-0.00801916458403869,0.0333292708488004));
#854=CARTESIAN_POINT('',(0.0240839598967785,-0.007685661446562,0.0334918446540833));
#855=CARTESIAN_POINT('',(0.023599234831848,0.00801949117753207,0.0333290860829379));
#856=CARTESIAN_POINT('',(0.0240884374908289,0.00769157127852673,0.0335731777481903));
#857=CARTESIAN_POINT('',(0.0245507745855075,0.00732819238773305,0.0333292708488004));
#858=CARTESIAN_POINT('',(0.0247344953498691,0.00716720065622051,0.0327424769711233));
#859=CARTESIAN_POINT('',(0.0245510069498785,0.00732800887346889,0.0321543223946336));
#860=CARTESIAN_POINT('',(0.0240884132433303,0.00769156703657215,0.0319107981316195));
#861=CARTESIAN_POINT('',(0.0236004181508534,0.00801873354398263,0.0321535532986032));
#862=CARTESIAN_POINT('',(0.0233897398380115,0.00814421121884317,0.0327410049664362));
#863=CARTESIAN_POINT('',(0.023599234831848,0.00801949117753207,0.0333290860829379));
#864=CARTESIAN_POINT('',(0.0240884374908289,0.00769157127852673,0.0335731777481903));
#865=CARTESIAN_POINT('',(0.0245507745855075,0.00732819238773305,0.0333292708488004));
#866=CARTESIAN_POINT('',(0.0240839598967785,0.007685661446562,0.0334918446540833));
#867=CARTESIAN_POINT('',(0.0273391062823167,0.00349064961672705,0.0333290860829378));
#868=CARTESIAN_POINT('',(0.027542133066557,0.00293781073730681,0.0335731777481903));
#869=CARTESIAN_POINT('',(0.0277025828802791,0.00237207611341772,0.0333292708488005));
#870=CARTESIAN_POINT('',(0.027756587535343,0.00213384271083856,0.0327424769711233));
#871=CARTESIAN_POINT('',(0.0277026630000261,0.0023717910669088,0.0321543223946337));
#872=CARTESIAN_POINT('',(0.0275421109565603,0.00293782155781541,0.0319107981316195));
#873=CARTESIAN_POINT('',(0.0273396182816748,0.00348934114084983,0.0321535532986031));
#874=CARTESIAN_POINT('',(0.0272429298730145,0.003714688317493,0.0327410049664361));
#875=CARTESIAN_POINT('',(0.0273391062823167,0.00349064961672705,0.0333290860829378));
#876=CARTESIAN_POINT('',(0.027542133066557,0.00293781073730681,0.0335731777481903));
#877=CARTESIAN_POINT('',(0.0277025828802791,0.00237207611341772,0.0333292708488005));
#878=CARTESIAN_POINT('',(0.0275350369048039,0.002935661446562,0.0334918446540833));
#879=CARTESIAN_POINT('',(0.0179116289922308,0.00948515968099975,0.0333290860829379));
#880=CARTESIAN_POINT('',(0.0185001487376083,0.00950741301824191,0.0335731777481903));
#881=CARTESIAN_POINT('',(0.0190877760573362,0.0094851882460326,0.0333292708488004));
#882=CARTESIAN_POINT('',(0.0193310378434484,0.00946293155511672,0.0327424769711233));
#883=CARTESIAN_POINT('',(0.0190880719110393,0.00948517636022459,0.0321543223946336));
#884=CARTESIAN_POINT('',(0.0185001316143283,0.00950739533410652,0.0319107981316195));
#885=CARTESIAN_POINT('',(0.017913031643243,0.00948524228004288,0.0321535532986031));
#886=CARTESIAN_POINT('',(0.0176688353810327,0.00946292224615342,0.0327410049664362));
#887=CARTESIAN_POINT('',(0.0179116289922308,0.00948515968099975,0.0333290860829379));
#888=CARTESIAN_POINT('',(0.0185001487376083,0.00950741301824191,0.0335731777481903));
#889=CARTESIAN_POINT('',(0.0190877760573362,0.0094851882460326,0.0333292708488004));
#890=CARTESIAN_POINT('',(0.0185,0.0095,0.0334918446540833));
#891=CARTESIAN_POINT('',(0.0124487608795864,0.00732781957504564,0.0333290860829378));
#892=CARTESIAN_POINT('',(0.0129118031716767,0.00769174613007191,0.0335731777481903));
#893=CARTESIAN_POINT('',(0.0134002670530358,0.0080191645840387,0.0333292708488004));
#894=CARTESIAN_POINT('',(0.0136101521267678,0.00814414423317228,0.0327424769711233));
#895=CARTESIAN_POINT('',(0.0134005133900122,0.00801932886666157,0.0321543223946336));
#896=CARTESIAN_POINT('',(0.0129117997131262,0.00769172175849442,0.0319107981316195));
#897=CARTESIAN_POINT('',(0.012449847097593,0.00732871085665435,0.0321535532986031));
#898=CARTESIAN_POINT('',(0.0122654075582529,0.00716711860833058,0.0327410049664362));
#899=CARTESIAN_POINT('',(0.0124487608795864,0.00732781957504564,0.0333290860829378));
#900=CARTESIAN_POINT('',(0.0129118031716767,0.00769174613007191,0.0335731777481903));
#901=CARTESIAN_POINT('',(0.0134002670530358,0.0080191645840387,0.0333292708488004));
#902=CARTESIAN_POINT('',(0.0129160401032215,0.00768566144656201,0.0334918446540833));
#903=CARTESIAN_POINT('',(0.013400765168152,-0.00801949117753206,0.0333290860829379));
#904=CARTESIAN_POINT('',(0.0129115625091711,-0.00769157127852674,0.0335731777481903));
#905=CARTESIAN_POINT('',(0.0124492254144924,-0.00732819238773304,0.0333292708488004));
#906=CARTESIAN_POINT('',(0.0122655046501309,-0.0071672006562205,0.0327424769711233));
#907=CARTESIAN_POINT('',(0.0124489930501215,-0.00732800887346887,0.0321543223946336));
#908=CARTESIAN_POINT('',(0.0129115867566697,-0.00769156703657212,0.0319107981316195));
#909=CARTESIAN_POINT('',(0.0133995818491466,-0.00801873354398262,0.0321535532986032));
#910=CARTESIAN_POINT('',(0.0136102601619884,-0.00814421121884316,0.0327410049664362));
#911=CARTESIAN_POINT('',(0.013400765168152,-0.00801949117753206,0.0333290860829379));
#912=CARTESIAN_POINT('',(0.0129115625091711,-0.00769157127852674,0.0335731777481903));
#913=CARTESIAN_POINT('',(0.0124492254144924,-0.00732819238773304,0.0333292708488004));
#914=CARTESIAN_POINT('',(0.0129160401032215,-0.007685661446562,0.0334918446540833));
#915=CARTESIAN_POINT('',(0.0241339745962155,0.,0.043));
#916=CARTESIAN_POINT('',(0.00725,0.002,0.043));
#917=CARTESIAN_POINT('',(0.00725,-0.002,0.043));
#918=CARTESIAN_POINT('',(0.0185,0.,0.043));
#919=CARTESIAN_POINT('',(0.0147320508075689,0.,0.043));
#920=CARTESIAN_POINT('',(0.0185,0.,0.035));
#921=CARTESIAN_POINT('',(0.0185,0.,0.0365));
#922=CARTESIAN_POINT('',(0.0147320508075689,0.,0.0365));
#923=CARTESIAN_POINT('',(0.0224509618943233,0.,0.0365));
#924=CARTESIAN_POINT('',(0.0185,0.,0.0365));
#925=CARTESIAN_POINT('',(0.0143660254037844,0.,0.0365));
#926=CARTESIAN_POINT('',(0.0185,0.,0.036));
#927=CARTESIAN_POINT('',(0.0185,0.,0.0365));
#928=CARTESIAN_POINT('',(0.0126339745962156,0.,0.0365));
#929=CARTESIAN_POINT('',(0.0251830127018922,0.,0.0365));
#930=CARTESIAN_POINT('',(0.027,0.,0.02));
#931=CARTESIAN_POINT('',(0.0055,0.,0.02));
#932=CARTESIAN_POINT('',(0.00689010989010989,0.00532142786227707,0.02));
#933=CARTESIAN_POINT('',(0.00815384615384615,0.0101590895552562,0.02));
#934=CARTESIAN_POINT('',(0.00815384615384615,-0.0101590895552562,0.02));
#935=CARTESIAN_POINT('',(0.00689010989010989,-0.00532142786227707,0.02));
#936=CARTESIAN_POINT('',(0.0055,0.,0.02));
#937=CARTESIAN_POINT('',(0.02325,0.,0.05));
#938=CARTESIAN_POINT('',(0.00815384615384615,0.0101590895552562,0.05));
#939=CARTESIAN_POINT('',(0.00689010989010989,0.00532142786227707,0.05));
#940=CARTESIAN_POINT('',(0.0055,0.,0.05));
#941=CARTESIAN_POINT('',(0.00689010989010989,-0.00532142786227707,0.05));
#942=CARTESIAN_POINT('',(0.00815384615384615,-0.0101590895552562,0.05));
#943=CARTESIAN_POINT('',(0.02225,0.,0.048));
#944=CARTESIAN_POINT('',(0.012,-0.002,0.048));
#945=CARTESIAN_POINT('',(0.012,0.002,0.048));
#946=CARTESIAN_POINT('',(0.0055,0.,0.025));
#947=CARTESIAN_POINT('',(0.0055,0.,0.));
#948=CARTESIAN_POINT('',(0.,0.,0.));
#949=CARTESIAN_POINT('',(0.00689010989010989,0.00532142786227707,0.025));
#950=CARTESIAN_POINT('',(0.00689010989010989,-0.00532142786227707,0.025));
#951=CARTESIAN_POINT('',(0.001,0.,0.));
#952=CARTESIAN_POINT('',(0.00815384615384615,0.0101590895552562,0.025));
#953=CARTESIAN_POINT('',(0.00815384615384615,-0.0101590895552562,0.025));
#954=CARTESIAN_POINT('',(0.0355,-7.55780175294006E-20,0.0222236961126327));
#955=CARTESIAN_POINT('',(0.0355,-7.55780175294006E-20,0.0222236961126327));
#956=CARTESIAN_POINT('',(0.0105,-7.55780175294006E-20,0.0222236961126327));
#957=CARTESIAN_POINT('',(0.0105,-7.55780175294006E-20,0.0209894134185201));
#958=CARTESIAN_POINT('',(0.0105,0.,0.0117289894033727));
#959=CARTESIAN_POINT('',(0.0185,-0.029,0.0327418446540833));
#960=CARTESIAN_POINT('',(0.0460806389725595,-0.00896149283687348,0.0327418446540833));
#961=CARTESIAN_POINT('',(0.0355457723164818,-0.0234614928368735,0.0327418446540833));
#962=CARTESIAN_POINT('',(0.0355457723164817,0.0234614928368735,0.0327418446540833));
#963=CARTESIAN_POINT('',(0.0460806389725595,0.00896149283687347,0.0327418446540833));
#964=CARTESIAN_POINT('',(0.0185,0.029,0.0327418446540833));
#965=CARTESIAN_POINT('',(0.00145422768351829,0.0234614928368735,0.0327418446540833));
#966=CARTESIAN_POINT('',(0.00145422768351827,-0.0234614928368735,0.0327418446540833));
#967=CARTESIAN_POINT('',(0.014,0.002,0.025));
#968=CARTESIAN_POINT('',(0.014,-0.002,0.025));
#969=MECHANICAL_DESIGN_GEOMETRIC_PRESENTATION_REPRESENTATION('',(#473),
#970);
#970=(
GEOMETRIC_REPRESENTATION_CONTEXT(3)
GLOBAL_UNCERTAINTY_ASSIGNED_CONTEXT((#971))
GLOBAL_UNIT_ASSIGNED_CONTEXT((#974,#973,#972))
REPRESENTATION_CONTEXT('Float Valve','TOP_LEVEL_ASSEMBLY_PART')
);
#971=UNCERTAINTY_MEASURE_WITH_UNIT(LENGTH_MEASURE(2.E-5),#974,
'DISTANCE_ACCURACY_VALUE','Maximum Tolerance applied to model');
#972=(
NAMED_UNIT(*)
SI_UNIT($,.STERADIAN.)
SOLID_ANGLE_UNIT()
);
#973=(
NAMED_UNIT(*)
PLANE_ANGLE_UNIT()
SI_UNIT($,.RADIAN.)
);
#974=(
LENGTH_UNIT()
NAMED_UNIT(*)
SI_UNIT($,.METRE.)
);
#975=PRODUCT_DEFINITION_SHAPE('','',#976);
#976=PRODUCT_DEFINITION('','',#978,#977);
#977=PRODUCT_DEFINITION_CONTEXT('',#984,'design');
#978=PRODUCT_DEFINITION_FORMATION_WITH_SPECIFIED_SOURCE('','',#980,
 .NOT_KNOWN.);
#979=PRODUCT_RELATED_PRODUCT_CATEGORY('','',(#980));
#980=PRODUCT('Float Valve','Float Valve','Float Valve',(#982));
#981=PRODUCT_CATEGORY('','');
#982=PRODUCT_CONTEXT('',#984,'mechanical');
#983=APPLICATION_PROTOCOL_DEFINITION('international standard',
'ap242_managed_model_based_3d_engineering',2020,#984);
#984=APPLICATION_CONTEXT('managed model based 3d engineering');
ENDSEC;
END-ISO-10303-21;
