ISO-10303-21;
HEADER;
/* Generated by software containing ST-Developer
 * from STEP Tools, Inc. (www.steptools.com) 
 */
/* OPTION: using custom renumber hook */

FILE_DESCRIPTION(
/* description */ ('STEP AP242 Edition 2',
'CAx-IF Rec.Pracs.---Representation and Presentation of Product Manufa
cturing Information (PMI)---4.0---2014-10-13',
'CAx-IF Rec.Pracs.---3D Tessellated Geometry---0.4---2014-09-14','2;1',
'CAx-IF Rec.Pracs.---User Defined Attributes---1.5---2016-08-15'),
/* implementation_level */ '2;1');

FILE_NAME(
/* name */ 'Gps Antenna - GPS',
/* time_stamp */ '2026-08-23T20:35:44Z',
/* author */ (''),
/* organization */ (''),
/* preprocessor_version */ 'ST-DEVELOPER v20',
/* originating_system */ 'ONSHAPE BY PTC INC, 1.219',
/* authorisation */ '  ');

FILE_SCHEMA (('AP242_MANAGED_MODEL_BASED_3D_ENGINEERING_MIM_LF { 1 0 10303 442 3 1 4 }'));
ENDSEC;

DATA;
#10=SHAPE_REPRESENTATION_RELATIONSHIP('','',#455,#11);
#11=ADVANCED_BREP_SHAPE_REPRESENTATION('',(#453),#733);
#12=CYLINDRICAL_SURFACE('',#481,0.003);
#13=CYLINDRICAL_SURFACE('',#482,0.003);
#14=CYLINDRICAL_SURFACE('',#483,0.003);
#15=CYLINDRICAL_SURFACE('',#484,0.003);
#16=CIRCLE('',#458,0.003);
#17=CIRCLE('',#459,0.003);
#18=CIRCLE('',#460,0.003);
#19=CIRCLE('',#461,0.003);
#20=CIRCLE('',#477,0.003);
#21=CIRCLE('',#478,0.003);
#22=CIRCLE('',#479,0.003);
#23=CIRCLE('',#480,0.003);
#24=ORIENTED_EDGE('',*,*,#144,.T.);
#25=ORIENTED_EDGE('',*,*,#145,.T.);
#26=ORIENTED_EDGE('',*,*,#146,.F.);
#27=ORIENTED_EDGE('',*,*,#147,.F.);
#28=ORIENTED_EDGE('',*,*,#148,.F.);
#29=ORIENTED_EDGE('',*,*,#149,.T.);
#30=ORIENTED_EDGE('',*,*,#150,.T.);
#31=ORIENTED_EDGE('',*,*,#151,.T.);
#32=ORIENTED_EDGE('',*,*,#152,.T.);
#33=ORIENTED_EDGE('',*,*,#153,.T.);
#34=ORIENTED_EDGE('',*,*,#154,.F.);
#35=ORIENTED_EDGE('',*,*,#155,.T.);
#36=ORIENTED_EDGE('',*,*,#156,.F.);
#37=ORIENTED_EDGE('',*,*,#157,.T.);
#38=ORIENTED_EDGE('',*,*,#158,.T.);
#39=ORIENTED_EDGE('',*,*,#159,.F.);
#40=ORIENTED_EDGE('',*,*,#160,.F.);
#41=ORIENTED_EDGE('',*,*,#161,.T.);
#42=ORIENTED_EDGE('',*,*,#162,.T.);
#43=ORIENTED_EDGE('',*,*,#163,.T.);
#44=ORIENTED_EDGE('',*,*,#164,.T.);
#45=ORIENTED_EDGE('',*,*,#165,.T.);
#46=ORIENTED_EDGE('',*,*,#166,.F.);
#47=ORIENTED_EDGE('',*,*,#167,.T.);
#48=ORIENTED_EDGE('',*,*,#156,.T.);
#49=ORIENTED_EDGE('',*,*,#168,.F.);
#50=ORIENTED_EDGE('',*,*,#144,.F.);
#51=ORIENTED_EDGE('',*,*,#169,.T.);
#52=ORIENTED_EDGE('',*,*,#159,.T.);
#53=ORIENTED_EDGE('',*,*,#170,.F.);
#54=ORIENTED_EDGE('',*,*,#145,.F.);
#55=ORIENTED_EDGE('',*,*,#168,.T.);
#56=ORIENTED_EDGE('',*,*,#158,.F.);
#57=ORIENTED_EDGE('',*,*,#171,.F.);
#58=ORIENTED_EDGE('',*,*,#146,.T.);
#59=ORIENTED_EDGE('',*,*,#170,.T.);
#60=ORIENTED_EDGE('',*,*,#157,.F.);
#61=ORIENTED_EDGE('',*,*,#169,.F.);
#62=ORIENTED_EDGE('',*,*,#147,.T.);
#63=ORIENTED_EDGE('',*,*,#171,.T.);
#64=ORIENTED_EDGE('',*,*,#160,.T.);
#65=ORIENTED_EDGE('',*,*,#172,.T.);
#66=ORIENTED_EDGE('',*,*,#173,.F.);
#67=ORIENTED_EDGE('',*,*,#174,.T.);
#68=ORIENTED_EDGE('',*,*,#175,.T.);
#69=ORIENTED_EDGE('',*,*,#176,.T.);
#70=ORIENTED_EDGE('',*,*,#162,.F.);
#71=ORIENTED_EDGE('',*,*,#177,.T.);
#72=ORIENTED_EDGE('',*,*,#178,.T.);
#73=ORIENTED_EDGE('',*,*,#179,.T.);
#74=ORIENTED_EDGE('',*,*,#164,.F.);
#75=ORIENTED_EDGE('',*,*,#180,.T.);
#76=ORIENTED_EDGE('',*,*,#166,.T.);
#77=ORIENTED_EDGE('',*,*,#181,.T.);
#78=ORIENTED_EDGE('',*,*,#182,.F.);
#79=ORIENTED_EDGE('',*,*,#183,.T.);
#80=ORIENTED_EDGE('',*,*,#182,.T.);
#81=ORIENTED_EDGE('',*,*,#184,.T.);
#82=ORIENTED_EDGE('',*,*,#178,.F.);
#83=ORIENTED_EDGE('',*,*,#185,.T.);
#84=ORIENTED_EDGE('',*,*,#175,.F.);
#85=ORIENTED_EDGE('',*,*,#186,.T.);
#86=ORIENTED_EDGE('',*,*,#173,.T.);
#87=ORIENTED_EDGE('',*,*,#187,.T.);
#88=ORIENTED_EDGE('',*,*,#150,.F.);
#89=ORIENTED_EDGE('',*,*,#188,.T.);
#90=ORIENTED_EDGE('',*,*,#189,.T.);
#91=ORIENTED_EDGE('',*,*,#190,.T.);
#92=ORIENTED_EDGE('',*,*,#191,.F.);
#93=ORIENTED_EDGE('',*,*,#192,.T.);
#94=ORIENTED_EDGE('',*,*,#148,.T.);
#95=ORIENTED_EDGE('',*,*,#193,.T.);
#96=ORIENTED_EDGE('',*,*,#154,.T.);
#97=ORIENTED_EDGE('',*,*,#194,.T.);
#98=ORIENTED_EDGE('',*,*,#195,.F.);
#99=ORIENTED_EDGE('',*,*,#196,.T.);
#100=ORIENTED_EDGE('',*,*,#152,.F.);
#101=ORIENTED_EDGE('',*,*,#197,.T.);
#102=ORIENTED_EDGE('',*,*,#198,.T.);
#103=ORIENTED_EDGE('',*,*,#199,.T.);
#104=ORIENTED_EDGE('',*,*,#189,.F.);
#105=ORIENTED_EDGE('',*,*,#200,.T.);
#106=ORIENTED_EDGE('',*,*,#191,.T.);
#107=ORIENTED_EDGE('',*,*,#201,.T.);
#108=ORIENTED_EDGE('',*,*,#195,.T.);
#109=ORIENTED_EDGE('',*,*,#202,.T.);
#110=ORIENTED_EDGE('',*,*,#198,.F.);
#111=ORIENTED_EDGE('',*,*,#203,.T.);
#112=ORIENTED_EDGE('',*,*,#200,.F.);
#113=ORIENTED_EDGE('',*,*,#188,.F.);
#114=ORIENTED_EDGE('',*,*,#149,.F.);
#115=ORIENTED_EDGE('',*,*,#192,.F.);
#116=ORIENTED_EDGE('',*,*,#203,.F.);
#117=ORIENTED_EDGE('',*,*,#197,.F.);
#118=ORIENTED_EDGE('',*,*,#151,.F.);
#119=ORIENTED_EDGE('',*,*,#190,.F.);
#120=ORIENTED_EDGE('',*,*,#202,.F.);
#121=ORIENTED_EDGE('',*,*,#194,.F.);
#122=ORIENTED_EDGE('',*,*,#153,.F.);
#123=ORIENTED_EDGE('',*,*,#199,.F.);
#124=ORIENTED_EDGE('',*,*,#201,.F.);
#125=ORIENTED_EDGE('',*,*,#193,.F.);
#126=ORIENTED_EDGE('',*,*,#155,.F.);
#127=ORIENTED_EDGE('',*,*,#196,.F.);
#128=ORIENTED_EDGE('',*,*,#184,.F.);
#129=ORIENTED_EDGE('',*,*,#181,.F.);
#130=ORIENTED_EDGE('',*,*,#165,.F.);
#131=ORIENTED_EDGE('',*,*,#179,.F.);
#132=ORIENTED_EDGE('',*,*,#185,.F.);
#133=ORIENTED_EDGE('',*,*,#180,.F.);
#134=ORIENTED_EDGE('',*,*,#163,.F.);
#135=ORIENTED_EDGE('',*,*,#176,.F.);
#136=ORIENTED_EDGE('',*,*,#187,.F.);
#137=ORIENTED_EDGE('',*,*,#172,.F.);
#138=ORIENTED_EDGE('',*,*,#167,.F.);
#139=ORIENTED_EDGE('',*,*,#183,.F.);
#140=ORIENTED_EDGE('',*,*,#186,.F.);
#141=ORIENTED_EDGE('',*,*,#177,.F.);
#142=ORIENTED_EDGE('',*,*,#161,.F.);
#143=ORIENTED_EDGE('',*,*,#174,.F.);
#144=EDGE_CURVE('',#204,#205,#244,.T.);
#145=EDGE_CURVE('',#205,#206,#245,.T.);
#146=EDGE_CURVE('',#207,#206,#246,.T.);
#147=EDGE_CURVE('',#204,#207,#247,.T.);
#148=EDGE_CURVE('',#208,#209,#248,.T.);
#149=EDGE_CURVE('',#208,#210,#16,.F.);
#150=EDGE_CURVE('',#210,#211,#249,.T.);
#151=EDGE_CURVE('',#211,#212,#17,.F.);
#152=EDGE_CURVE('',#212,#213,#250,.T.);
#153=EDGE_CURVE('',#213,#214,#18,.F.);
#154=EDGE_CURVE('',#215,#214,#251,.T.);
#155=EDGE_CURVE('',#215,#209,#19,.F.);
#156=EDGE_CURVE('',#216,#217,#252,.T.);
#157=EDGE_CURVE('',#216,#218,#253,.T.);
#158=EDGE_CURVE('',#218,#219,#254,.T.);
#159=EDGE_CURVE('',#217,#219,#255,.T.);
#160=EDGE_CURVE('',#220,#221,#256,.T.);
#161=EDGE_CURVE('',#220,#222,#257,.T.);
#162=EDGE_CURVE('',#222,#223,#258,.T.);
#163=EDGE_CURVE('',#223,#224,#259,.F.);
#164=EDGE_CURVE('',#224,#225,#260,.T.);
#165=EDGE_CURVE('',#225,#226,#261,.T.);
#166=EDGE_CURVE('',#227,#226,#262,.T.);
#167=EDGE_CURVE('',#227,#221,#263,.F.);
#168=EDGE_CURVE('',#205,#217,#264,.T.);
#169=EDGE_CURVE('',#204,#216,#265,.T.);
#170=EDGE_CURVE('',#206,#219,#266,.T.);
#171=EDGE_CURVE('',#207,#218,#267,.T.);
#172=EDGE_CURVE('',#221,#228,#268,.T.);
#173=EDGE_CURVE('',#229,#228,#269,.T.);
#174=EDGE_CURVE('',#229,#220,#270,.T.);
#175=EDGE_CURVE('',#230,#231,#271,.T.);
#176=EDGE_CURVE('',#231,#223,#272,.T.);
#177=EDGE_CURVE('',#222,#230,#273,.T.);
#178=EDGE_CURVE('',#232,#233,#274,.T.);
#179=EDGE_CURVE('',#233,#225,#275,.T.);
#180=EDGE_CURVE('',#224,#232,#276,.T.);
#181=EDGE_CURVE('',#226,#234,#277,.T.);
#182=EDGE_CURVE('',#235,#234,#278,.T.);
#183=EDGE_CURVE('',#235,#227,#279,.T.);
#184=EDGE_CURVE('',#234,#233,#280,.T.);
#185=EDGE_CURVE('',#232,#231,#281,.F.);
#186=EDGE_CURVE('',#230,#229,#282,.T.);
#187=EDGE_CURVE('',#228,#235,#283,.F.);
#188=EDGE_CURVE('',#210,#236,#284,.F.);
#189=EDGE_CURVE('',#236,#237,#285,.T.);
#190=EDGE_CURVE('',#237,#211,#286,.T.);
#191=EDGE_CURVE('',#238,#239,#287,.T.);
#192=EDGE_CURVE('',#238,#208,#288,.T.);
#193=EDGE_CURVE('',#209,#239,#289,.F.);
#194=EDGE_CURVE('',#214,#240,#290,.F.);
#195=EDGE_CURVE('',#241,#240,#291,.T.);
#196=EDGE_CURVE('',#241,#215,#292,.T.);
#197=EDGE_CURVE('',#212,#242,#293,.F.);
#198=EDGE_CURVE('',#242,#243,#294,.T.);
#199=EDGE_CURVE('',#243,#213,#295,.T.);
#200=EDGE_CURVE('',#236,#238,#20,.T.);
#201=EDGE_CURVE('',#239,#241,#21,.T.);
#202=EDGE_CURVE('',#240,#243,#22,.T.);
#203=EDGE_CURVE('',#242,#237,#23,.T.);
#204=VERTEX_POINT('',#610);
#205=VERTEX_POINT('',#611);
#206=VERTEX_POINT('',#613);
#207=VERTEX_POINT('',#615);
#208=VERTEX_POINT('',#618);
#209=VERTEX_POINT('',#619);
#210=VERTEX_POINT('',#621);
#211=VERTEX_POINT('',#623);
#212=VERTEX_POINT('',#625);
#213=VERTEX_POINT('',#627);
#214=VERTEX_POINT('',#629);
#215=VERTEX_POINT('',#631);
#216=VERTEX_POINT('',#635);
#217=VERTEX_POINT('',#636);
#218=VERTEX_POINT('',#638);
#219=VERTEX_POINT('',#640);
#220=VERTEX_POINT('',#643);
#221=VERTEX_POINT('',#644);
#222=VERTEX_POINT('',#646);
#223=VERTEX_POINT('',#648);
#224=VERTEX_POINT('',#650);
#225=VERTEX_POINT('',#652);
#226=VERTEX_POINT('',#654);
#227=VERTEX_POINT('',#656);
#228=VERTEX_POINT('',#668);
#229=VERTEX_POINT('',#670);
#230=VERTEX_POINT('',#674);
#231=VERTEX_POINT('',#675);
#232=VERTEX_POINT('',#680);
#233=VERTEX_POINT('',#681);
#234=VERTEX_POINT('',#686);
#235=VERTEX_POINT('',#688);
#236=VERTEX_POINT('',#697);
#237=VERTEX_POINT('',#699);
#238=VERTEX_POINT('',#703);
#239=VERTEX_POINT('',#704);
#240=VERTEX_POINT('',#709);
#241=VERTEX_POINT('',#711);
#242=VERTEX_POINT('',#715);
#243=VERTEX_POINT('',#717);
#244=LINE('',#609,#296);
#245=LINE('',#612,#297);
#246=LINE('',#614,#298);
#247=LINE('',#616,#299);
#248=LINE('',#617,#300);
#249=LINE('',#622,#301);
#250=LINE('',#626,#302);
#251=LINE('',#630,#303);
#252=LINE('',#634,#304);
#253=LINE('',#637,#305);
#254=LINE('',#639,#306);
#255=LINE('',#641,#307);
#256=LINE('',#642,#308);
#257=LINE('',#645,#309);
#258=LINE('',#647,#310);
#259=LINE('',#649,#311);
#260=LINE('',#651,#312);
#261=LINE('',#653,#313);
#262=LINE('',#655,#314);
#263=LINE('',#657,#315);
#264=LINE('',#659,#316);
#265=LINE('',#660,#317);
#266=LINE('',#662,#318);
#267=LINE('',#664,#319);
#268=LINE('',#667,#320);
#269=LINE('',#669,#321);
#270=LINE('',#671,#322);
#271=LINE('',#673,#323);
#272=LINE('',#676,#324);
#273=LINE('',#677,#325);
#274=LINE('',#679,#326);
#275=LINE('',#682,#327);
#276=LINE('',#683,#328);
#277=LINE('',#685,#329);
#278=LINE('',#687,#330);
#279=LINE('',#689,#331);
#280=LINE('',#691,#332);
#281=LINE('',#692,#333);
#282=LINE('',#693,#334);
#283=LINE('',#694,#335);
#284=LINE('',#696,#336);
#285=LINE('',#698,#337);
#286=LINE('',#700,#338);
#287=LINE('',#702,#339);
#288=LINE('',#705,#340);
#289=LINE('',#706,#341);
#290=LINE('',#708,#342);
#291=LINE('',#710,#343);
#292=LINE('',#712,#344);
#293=LINE('',#714,#345);
#294=LINE('',#716,#346);
#295=LINE('',#718,#347);
#296=VECTOR('',#493,1.);
#297=VECTOR('',#494,1.);
#298=VECTOR('',#495,1.);
#299=VECTOR('',#496,1.);
#300=VECTOR('',#497,1.);
#301=VECTOR('',#500,1.);
#302=VECTOR('',#503,1.);
#303=VECTOR('',#506,1.);
#304=VECTOR('',#511,1.);
#305=VECTOR('',#512,1.);
#306=VECTOR('',#513,1.);
#307=VECTOR('',#514,1.);
#308=VECTOR('',#515,1.);
#309=VECTOR('',#516,1.);
#310=VECTOR('',#517,1.);
#311=VECTOR('',#518,1.);
#312=VECTOR('',#519,1.);
#313=VECTOR('',#520,1.);
#314=VECTOR('',#521,1.);
#315=VECTOR('',#522,1.);
#316=VECTOR('',#525,1.);
#317=VECTOR('',#526,1.);
#318=VECTOR('',#529,1.);
#319=VECTOR('',#532,1.);
#320=VECTOR('',#537,1.);
#321=VECTOR('',#538,1.);
#322=VECTOR('',#539,1.);
#323=VECTOR('',#542,1.);
#324=VECTOR('',#543,1.);
#325=VECTOR('',#544,1.);
#326=VECTOR('',#547,1.);
#327=VECTOR('',#548,1.);
#328=VECTOR('',#549,1.);
#329=VECTOR('',#552,1.);
#330=VECTOR('',#553,1.);
#331=VECTOR('',#554,1.);
#332=VECTOR('',#557,1.);
#333=VECTOR('',#558,1.);
#334=VECTOR('',#559,1.);
#335=VECTOR('',#560,1.);
#336=VECTOR('',#563,1.);
#337=VECTOR('',#564,1.);
#338=VECTOR('',#565,1.);
#339=VECTOR('',#568,1.);
#340=VECTOR('',#569,1.);
#341=VECTOR('',#570,1.);
#342=VECTOR('',#573,1.);
#343=VECTOR('',#574,1.);
#344=VECTOR('',#575,1.);
#345=VECTOR('',#578,1.);
#346=VECTOR('',#579,1.);
#347=VECTOR('',#580,1.);
#348=EDGE_LOOP('',(#24,#25,#26,#27));
#349=EDGE_LOOP('',(#28,#29,#30,#31,#32,#33,#34,#35));
#350=EDGE_LOOP('',(#36,#37,#38,#39));
#351=EDGE_LOOP('',(#40,#41,#42,#43,#44,#45,#46,#47));
#352=EDGE_LOOP('',(#48,#49,#50,#51));
#353=EDGE_LOOP('',(#52,#53,#54,#55));
#354=EDGE_LOOP('',(#56,#57,#58,#59));
#355=EDGE_LOOP('',(#60,#61,#62,#63));
#356=EDGE_LOOP('',(#64,#65,#66,#67));
#357=EDGE_LOOP('',(#68,#69,#70,#71));
#358=EDGE_LOOP('',(#72,#73,#74,#75));
#359=EDGE_LOOP('',(#76,#77,#78,#79));
#360=EDGE_LOOP('',(#80,#81,#82,#83,#84,#85,#86,#87));
#361=EDGE_LOOP('',(#88,#89,#90,#91));
#362=EDGE_LOOP('',(#92,#93,#94,#95));
#363=EDGE_LOOP('',(#96,#97,#98,#99));
#364=EDGE_LOOP('',(#100,#101,#102,#103));
#365=EDGE_LOOP('',(#104,#105,#106,#107,#108,#109,#110,#111));
#366=EDGE_LOOP('',(#112,#113,#114,#115));
#367=EDGE_LOOP('',(#116,#117,#118,#119));
#368=EDGE_LOOP('',(#120,#121,#122,#123));
#369=EDGE_LOOP('',(#124,#125,#126,#127));
#370=EDGE_LOOP('',(#128,#129,#130,#131));
#371=EDGE_LOOP('',(#132,#133,#134,#135));
#372=EDGE_LOOP('',(#136,#137,#138,#139));
#373=EDGE_LOOP('',(#140,#141,#142,#143));
#374=FACE_BOUND('',#348,.T.);
#375=FACE_BOUND('',#349,.T.);
#376=FACE_BOUND('',#350,.T.);
#377=FACE_BOUND('',#351,.T.);
#378=FACE_BOUND('',#352,.T.);
#379=FACE_BOUND('',#353,.T.);
#380=FACE_BOUND('',#354,.T.);
#381=FACE_BOUND('',#355,.T.);
#382=FACE_BOUND('',#356,.T.);
#383=FACE_BOUND('',#357,.T.);
#384=FACE_BOUND('',#358,.T.);
#385=FACE_BOUND('',#359,.T.);
#386=FACE_BOUND('',#360,.T.);
#387=FACE_BOUND('',#361,.T.);
#388=FACE_BOUND('',#362,.T.);
#389=FACE_BOUND('',#363,.T.);
#390=FACE_BOUND('',#364,.T.);
#391=FACE_BOUND('',#365,.T.);
#392=FACE_BOUND('',#366,.T.);
#393=FACE_BOUND('',#367,.T.);
#394=FACE_BOUND('',#368,.T.);
#395=FACE_BOUND('',#369,.T.);
#396=FACE_BOUND('',#370,.T.);
#397=FACE_BOUND('',#371,.T.);
#398=FACE_BOUND('',#372,.T.);
#399=FACE_BOUND('',#373,.T.);
#400=PLANE('',#457);
#401=PLANE('',#462);
#402=PLANE('',#463);
#403=PLANE('',#464);
#404=PLANE('',#465);
#405=PLANE('',#466);
#406=PLANE('',#467);
#407=PLANE('',#468);
#408=PLANE('',#469);
#409=PLANE('',#470);
#410=PLANE('',#471);
#411=PLANE('',#472);
#412=PLANE('',#473);
#413=PLANE('',#474);
#414=PLANE('',#475);
#415=PLANE('',#476);
#416=PLANE('',#485);
#417=PLANE('',#486);
#418=PLANE('',#487);
#419=PLANE('',#488);
#420=ADVANCED_FACE('',(#374,#375),#400,.T.);
#421=ADVANCED_FACE('',(#376,#377),#401,.F.);
#422=ADVANCED_FACE('',(#378),#402,.F.);
#423=ADVANCED_FACE('',(#379),#403,.F.);
#424=ADVANCED_FACE('',(#380),#404,.T.);
#425=ADVANCED_FACE('',(#381),#405,.T.);
#426=ADVANCED_FACE('',(#382),#406,.F.);
#427=ADVANCED_FACE('',(#383),#407,.T.);
#428=ADVANCED_FACE('',(#384),#408,.T.);
#429=ADVANCED_FACE('',(#385),#409,.F.);
#430=ADVANCED_FACE('',(#386),#410,.F.);
#431=ADVANCED_FACE('',(#387),#411,.T.);
#432=ADVANCED_FACE('',(#388),#412,.F.);
#433=ADVANCED_FACE('',(#389),#413,.F.);
#434=ADVANCED_FACE('',(#390),#414,.T.);
#435=ADVANCED_FACE('',(#391),#415,.T.);
#436=ADVANCED_FACE('',(#392),#12,.T.);
#437=ADVANCED_FACE('',(#393),#13,.T.);
#438=ADVANCED_FACE('',(#394),#14,.T.);
#439=ADVANCED_FACE('',(#395),#15,.T.);
#440=ADVANCED_FACE('',(#396),#416,.T.);
#441=ADVANCED_FACE('',(#397),#417,.F.);
#442=ADVANCED_FACE('',(#398),#418,.F.);
#443=ADVANCED_FACE('',(#399),#419,.T.);
#444=CLOSED_SHELL('',(#420,#421,#422,#423,#424,#425,#426,#427,#428,#429,
#430,#431,#432,#433,#434,#435,#436,#437,#438,#439,#440,#441,#442,#443));
#445=STYLED_ITEM('',(#446),#453);
#446=PRESENTATION_STYLE_ASSIGNMENT((#447));
#447=SURFACE_STYLE_USAGE(.BOTH.,#448);
#448=SURFACE_SIDE_STYLE('',(#449));
#449=SURFACE_STYLE_FILL_AREA(#450);
#450=FILL_AREA_STYLE('',(#451));
#451=FILL_AREA_STYLE_COLOUR('',#452);
#452=COLOUR_RGB('',0.8,0.776470588235294,0.713725490196078);
#453=MANIFOLD_SOLID_BREP('GPS',#444);
#454=SHAPE_DEFINITION_REPRESENTATION(#738,#455);
#455=SHAPE_REPRESENTATION('GPS',(#456),#733);
#456=AXIS2_PLACEMENT_3D('',#607,#489,#490);
#457=AXIS2_PLACEMENT_3D('',#608,#491,#492);
#458=AXIS2_PLACEMENT_3D('',#620,#498,#499);
#459=AXIS2_PLACEMENT_3D('',#624,#501,#502);
#460=AXIS2_PLACEMENT_3D('',#628,#504,#505);
#461=AXIS2_PLACEMENT_3D('',#632,#507,#508);
#462=AXIS2_PLACEMENT_3D('',#633,#509,#510);
#463=AXIS2_PLACEMENT_3D('',#658,#523,#524);
#464=AXIS2_PLACEMENT_3D('',#661,#527,#528);
#465=AXIS2_PLACEMENT_3D('',#663,#530,#531);
#466=AXIS2_PLACEMENT_3D('',#665,#533,#534);
#467=AXIS2_PLACEMENT_3D('',#666,#535,#536);
#468=AXIS2_PLACEMENT_3D('',#672,#540,#541);
#469=AXIS2_PLACEMENT_3D('',#678,#545,#546);
#470=AXIS2_PLACEMENT_3D('',#684,#550,#551);
#471=AXIS2_PLACEMENT_3D('',#690,#555,#556);
#472=AXIS2_PLACEMENT_3D('',#695,#561,#562);
#473=AXIS2_PLACEMENT_3D('',#701,#566,#567);
#474=AXIS2_PLACEMENT_3D('',#707,#571,#572);
#475=AXIS2_PLACEMENT_3D('',#713,#576,#577);
#476=AXIS2_PLACEMENT_3D('',#719,#581,#582);
#477=AXIS2_PLACEMENT_3D('',#720,#583,#584);
#478=AXIS2_PLACEMENT_3D('',#721,#585,#586);
#479=AXIS2_PLACEMENT_3D('',#722,#587,#588);
#480=AXIS2_PLACEMENT_3D('',#723,#589,#590);
#481=AXIS2_PLACEMENT_3D('',#724,#591,#592);
#482=AXIS2_PLACEMENT_3D('',#725,#593,#594);
#483=AXIS2_PLACEMENT_3D('',#726,#595,#596);
#484=AXIS2_PLACEMENT_3D('',#727,#597,#598);
#485=AXIS2_PLACEMENT_3D('',#728,#599,#600);
#486=AXIS2_PLACEMENT_3D('',#729,#601,#602);
#487=AXIS2_PLACEMENT_3D('',#730,#603,#604);
#488=AXIS2_PLACEMENT_3D('',#731,#605,#606);
#489=DIRECTION('',(0.,0.,1.));
#490=DIRECTION('',(1.,0.,0.));
#491=DIRECTION('',(0.,0.,1.));
#492=DIRECTION('',(1.,0.,0.));
#493=DIRECTION('',(0.,1.,0.));
#494=DIRECTION('',(-1.,0.,0.));
#495=DIRECTION('',(0.,1.,0.));
#496=DIRECTION('',(-1.,0.,0.));
#497=DIRECTION('',(0.,-1.,0.));
#498=DIRECTION('',(0.,0.,1.));
#499=DIRECTION('',(1.,0.,0.));
#500=DIRECTION('',(1.,0.,0.));
#501=DIRECTION('',(0.,0.,1.));
#502=DIRECTION('',(1.,0.,0.));
#503=DIRECTION('',(6.32451267283211E-17,-1.,0.));
#504=DIRECTION('',(0.,0.,1.));
#505=DIRECTION('',(1.,0.,0.));
#506=DIRECTION('',(1.,0.,0.));
#507=DIRECTION('',(0.,0.,1.));
#508=DIRECTION('',(1.,0.,0.));
#509=DIRECTION('',(0.,0.,1.));
#510=DIRECTION('',(1.,0.,0.));
#511=DIRECTION('',(0.,1.,0.));
#512=DIRECTION('',(-1.,0.,0.));
#513=DIRECTION('',(0.,1.,0.));
#514=DIRECTION('',(-1.,0.,0.));
#515=DIRECTION('',(1.,0.,0.));
#516=DIRECTION('',(-0.707106781186546,-0.707106781186549,0.));
#517=DIRECTION('',(0.,-1.,0.));
#518=DIRECTION('',(-0.707106781186548,0.707106781186548,0.));
#519=DIRECTION('',(1.,0.,0.));
#520=DIRECTION('',(0.707106781186547,0.707106781186548,0.));
#521=DIRECTION('',(6.32451267283211E-17,-1.,0.));
#522=DIRECTION('',(0.707106781186548,-0.707106781186548,0.));
#523=DIRECTION('',(-1.,0.,0.));
#524=DIRECTION('',(0.,0.,1.));
#525=DIRECTION('',(0.,0.,-1.));
#526=DIRECTION('',(0.,0.,-1.));
#527=DIRECTION('',(0.,-1.,0.));
#528=DIRECTION('',(0.,0.,-1.));
#529=DIRECTION('',(0.,0.,-1.));
#530=DIRECTION('',(-1.,0.,0.));
#531=DIRECTION('',(0.,0.,1.));
#532=DIRECTION('',(0.,0.,-1.));
#533=DIRECTION('',(0.,-1.,0.));
#534=DIRECTION('',(0.,0.,-1.));
#535=DIRECTION('',(0.,-1.,0.));
#536=DIRECTION('',(0.,0.,-1.));
#537=DIRECTION('',(0.,0.,-1.));
#538=DIRECTION('',(1.,0.,0.));
#539=DIRECTION('',(0.,0.,1.));
#540=DIRECTION('',(-1.,0.,0.));
#541=DIRECTION('',(0.,0.,1.));
#542=DIRECTION('',(0.,-1.,0.));
#543=DIRECTION('',(0.,0.,1.));
#544=DIRECTION('',(0.,0.,-1.));
#545=DIRECTION('',(0.,-1.,0.));
#546=DIRECTION('',(0.,0.,-1.));
#547=DIRECTION('',(1.,0.,0.));
#548=DIRECTION('',(0.,0.,1.));
#549=DIRECTION('',(0.,0.,-1.));
#550=DIRECTION('',(-1.,-6.32451267283211E-17,0.));
#551=DIRECTION('',(6.32451267283211E-17,-1.,0.));
#552=DIRECTION('',(0.,0.,-1.));
#553=DIRECTION('',(6.32451267283211E-17,-1.,0.));
#554=DIRECTION('',(0.,0.,1.));
#555=DIRECTION('',(0.,0.,1.));
#556=DIRECTION('',(1.,0.,0.));
#557=DIRECTION('',(-0.707106781186547,-0.707106781186548,0.));
#558=DIRECTION('',(0.707106781186548,-0.707106781186548,0.));
#559=DIRECTION('',(0.707106781186546,0.707106781186549,0.));
#560=DIRECTION('',(-0.707106781186548,0.707106781186548,0.));
#561=DIRECTION('',(0.,1.,0.));
#562=DIRECTION('',(0.,0.,1.));
#563=DIRECTION('',(0.,0.,-1.));
#564=DIRECTION('',(1.,0.,0.));
#565=DIRECTION('',(0.,0.,-1.));
#566=DIRECTION('',(1.,0.,0.));
#567=DIRECTION('',(0.,0.,-1.));
#568=DIRECTION('',(0.,-1.,0.));
#569=DIRECTION('',(0.,0.,-1.));
#570=DIRECTION('',(0.,0.,-1.));
#571=DIRECTION('',(0.,1.,0.));
#572=DIRECTION('',(0.,0.,1.));
#573=DIRECTION('',(0.,0.,-1.));
#574=DIRECTION('',(1.,0.,0.));
#575=DIRECTION('',(0.,0.,-1.));
#576=DIRECTION('',(1.,6.32451267283211E-17,0.));
#577=DIRECTION('',(-6.32451267283211E-17,1.,0.));
#578=DIRECTION('',(0.,0.,-1.));
#579=DIRECTION('',(6.32451267283211E-17,-1.,0.));
#580=DIRECTION('',(0.,0.,-1.));
#581=DIRECTION('',(0.,0.,1.));
#582=DIRECTION('',(1.,0.,0.));
#583=DIRECTION('',(0.,0.,1.));
#584=DIRECTION('',(1.,0.,0.));
#585=DIRECTION('',(0.,0.,1.));
#586=DIRECTION('',(1.,0.,0.));
#587=DIRECTION('',(0.,0.,1.));
#588=DIRECTION('',(1.,0.,0.));
#589=DIRECTION('',(0.,0.,1.));
#590=DIRECTION('',(1.,0.,0.));
#591=DIRECTION('',(0.,0.,1.));
#592=DIRECTION('',(1.,0.,0.));
#593=DIRECTION('',(0.,0.,-1.));
#594=DIRECTION('',(-1.,0.,0.));
#595=DIRECTION('',(0.,0.,1.));
#596=DIRECTION('',(1.,0.,0.));
#597=DIRECTION('',(0.,0.,-1.));
#598=DIRECTION('',(-1.,0.,0.));
#599=DIRECTION('',(0.707106781186548,-0.707106781186547,0.));
#600=DIRECTION('',(0.,0.,-1.));
#601=DIRECTION('',(0.707106781186548,0.707106781186548,0.));
#602=DIRECTION('',(0.,0.,1.));
#603=DIRECTION('',(-0.707106781186548,-0.707106781186548,0.));
#604=DIRECTION('',(0.,0.,1.));
#605=DIRECTION('',(-0.707106781186549,0.707106781186546,0.));
#606=DIRECTION('',(0.,0.,-1.));
#607=CARTESIAN_POINT('',(0.,0.,0.));
#608=CARTESIAN_POINT('',(-0.0125,0.0125,0.0016));
#609=CARTESIAN_POINT('',(0.,0.00025,0.0016));
#610=CARTESIAN_POINT('',(0.,0.,0.0016));
#611=CARTESIAN_POINT('',(0.,0.025,0.0016));
#612=CARTESIAN_POINT('',(-0.02475,0.025,0.0016));
#613=CARTESIAN_POINT('',(-0.025,0.025,0.0016));
#614=CARTESIAN_POINT('',(-0.025,0.02475,0.0016));
#615=CARTESIAN_POINT('',(-0.025,0.,0.0016));
#616=CARTESIAN_POINT('',(-0.00025,0.,0.0016));
#617=CARTESIAN_POINT('',(-0.0245,0.0125,0.0016));
#618=CARTESIAN_POINT('',(-0.0245,0.0215,0.0016));
#619=CARTESIAN_POINT('',(-0.0245,0.0035,0.0016));
#620=CARTESIAN_POINT('',(-0.0215,0.0215,0.0016));
#621=CARTESIAN_POINT('',(-0.0215,0.0245,0.0016));
#622=CARTESIAN_POINT('',(-0.0125,0.0245,0.0016));
#623=CARTESIAN_POINT('',(-0.0035,0.0245,0.0016));
#624=CARTESIAN_POINT('',(-0.0035,0.0215,0.0016));
#625=CARTESIAN_POINT('',(-0.0005,0.0215,0.0016));
#626=CARTESIAN_POINT('',(-0.0005,0.0125,0.0016));
#627=CARTESIAN_POINT('',(-0.0005,0.0035,0.0016));
#628=CARTESIAN_POINT('',(-0.0035,0.0035,0.0016));
#629=CARTESIAN_POINT('',(-0.0035,0.0005,0.0016));
#630=CARTESIAN_POINT('',(-0.0125,0.0005,0.0016));
#631=CARTESIAN_POINT('',(-0.0215,0.0005,0.0016));
#632=CARTESIAN_POINT('',(-0.0215,0.0035,0.0016));
#633=CARTESIAN_POINT('',(-0.0125,0.0125,0.));
#634=CARTESIAN_POINT('',(0.,0.00025,0.));
#635=CARTESIAN_POINT('',(0.,0.,0.));
#636=CARTESIAN_POINT('',(0.,0.025,0.));
#637=CARTESIAN_POINT('',(-0.00025,0.,0.));
#638=CARTESIAN_POINT('',(-0.025,0.,0.));
#639=CARTESIAN_POINT('',(-0.025,0.02475,0.));
#640=CARTESIAN_POINT('',(-0.025,0.025,0.));
#641=CARTESIAN_POINT('',(-0.02475,0.025,0.));
#642=CARTESIAN_POINT('',(-0.0125,0.0245,0.));
#643=CARTESIAN_POINT('',(-0.0225,0.0245,0.));
#644=CARTESIAN_POINT('',(-0.0025,0.0245,0.));
#645=CARTESIAN_POINT('',(-0.0235,0.0235,0.));
#646=CARTESIAN_POINT('',(-0.0245,0.0225,0.));
#647=CARTESIAN_POINT('',(-0.0245,0.0125,0.));
#648=CARTESIAN_POINT('',(-0.0245,0.0025,0.));
#649=CARTESIAN_POINT('',(-0.0235,0.0015,0.));
#650=CARTESIAN_POINT('',(-0.0225,0.0005,0.));
#651=CARTESIAN_POINT('',(-0.0125,0.0005,0.));
#652=CARTESIAN_POINT('',(-0.0025,0.0005,0.));
#653=CARTESIAN_POINT('',(-0.0015,0.0015,0.));
#654=CARTESIAN_POINT('',(-0.0005,0.0025,0.));
#655=CARTESIAN_POINT('',(-0.0005,0.0125,0.));
#656=CARTESIAN_POINT('',(-0.0005,0.0225,0.));
#657=CARTESIAN_POINT('',(-0.0015,0.0235,0.));
#658=CARTESIAN_POINT('',(0.,0.00025,0.0016));
#659=CARTESIAN_POINT('',(0.,0.025,0.0016));
#660=CARTESIAN_POINT('',(0.,0.,0.0016));
#661=CARTESIAN_POINT('',(-0.02475,0.025,0.0016));
#662=CARTESIAN_POINT('',(-0.025,0.025,0.0016));
#663=CARTESIAN_POINT('',(-0.025,0.02475,0.0016));
#664=CARTESIAN_POINT('',(-0.025,0.,0.0016));
#665=CARTESIAN_POINT('',(-0.00025,0.,0.0016));
#666=CARTESIAN_POINT('',(-0.0125,0.0245,-0.0025));
#667=CARTESIAN_POINT('',(-0.0025,0.0245,-0.0025));
#668=CARTESIAN_POINT('',(-0.0025,0.0245,-0.0025));
#669=CARTESIAN_POINT('',(-0.0125,0.0245,-0.0025));
#670=CARTESIAN_POINT('',(-0.0225,0.0245,-0.0025));
#671=CARTESIAN_POINT('',(-0.0225,0.0245,0.));
#672=CARTESIAN_POINT('',(-0.0245,0.0125,-0.0025));
#673=CARTESIAN_POINT('',(-0.0245,0.0125,-0.0025));
#674=CARTESIAN_POINT('',(-0.0245,0.0225,-0.0025));
#675=CARTESIAN_POINT('',(-0.0245,0.0025,-0.0025));
#676=CARTESIAN_POINT('',(-0.0245,0.0025,-0.0025));
#677=CARTESIAN_POINT('',(-0.0245,0.0225,-0.0025));
#678=CARTESIAN_POINT('',(-0.0125,0.0005,-0.0025));
#679=CARTESIAN_POINT('',(-0.0125,0.0005,-0.0025));
#680=CARTESIAN_POINT('',(-0.0225,0.0005,-0.0025));
#681=CARTESIAN_POINT('',(-0.0025,0.0005,-0.0025));
#682=CARTESIAN_POINT('',(-0.0025,0.0005,0.));
#683=CARTESIAN_POINT('',(-0.0225,0.0005,-0.0025));
#684=CARTESIAN_POINT('',(-0.0005,0.0125,-0.0025));
#685=CARTESIAN_POINT('',(-0.0005,0.0025,-0.0025));
#686=CARTESIAN_POINT('',(-0.0005,0.0025,-0.0025));
#687=CARTESIAN_POINT('',(-0.0005,0.0125,-0.0025));
#688=CARTESIAN_POINT('',(-0.0005,0.0225,-0.0025));
#689=CARTESIAN_POINT('',(-0.0005,0.0225,-0.0025));
#690=CARTESIAN_POINT('',(-0.0125,0.0125,-0.0025));
#691=CARTESIAN_POINT('',(-0.0025,0.0005,-0.0025));
#692=CARTESIAN_POINT('',(-0.0245,0.0025,-0.0025));
#693=CARTESIAN_POINT('',(-0.0225,0.0245,-0.0025));
#694=CARTESIAN_POINT('',(-0.0005,0.0225,-0.0025));
#695=CARTESIAN_POINT('',(-0.0125,0.0245,0.0056));
#696=CARTESIAN_POINT('',(-0.0215,0.0245,0.0056));
#697=CARTESIAN_POINT('',(-0.0215,0.0245,0.0056));
#698=CARTESIAN_POINT('',(-0.0125,0.0245,0.0056));
#699=CARTESIAN_POINT('',(-0.0035,0.0245,0.0056));
#700=CARTESIAN_POINT('',(-0.0035,0.0245,0.0056));
#701=CARTESIAN_POINT('',(-0.0245,0.0125,0.0056));
#702=CARTESIAN_POINT('',(-0.0245,0.0125,0.0056));
#703=CARTESIAN_POINT('',(-0.0245,0.0215,0.0056));
#704=CARTESIAN_POINT('',(-0.0245,0.0035,0.0056));
#705=CARTESIAN_POINT('',(-0.0245,0.0215,0.0016));
#706=CARTESIAN_POINT('',(-0.0245,0.0035,0.0056));
#707=CARTESIAN_POINT('',(-0.0125,0.0005,0.0056));
#708=CARTESIAN_POINT('',(-0.0035,0.0005,0.0056));
#709=CARTESIAN_POINT('',(-0.0035,0.0005,0.0056));
#710=CARTESIAN_POINT('',(-0.0125,0.0005,0.0056));
#711=CARTESIAN_POINT('',(-0.0215,0.0005,0.0056));
#712=CARTESIAN_POINT('',(-0.0215,0.0005,0.0056));
#713=CARTESIAN_POINT('',(-0.0005,0.0125,0.0056));
#714=CARTESIAN_POINT('',(-0.0005,0.0215,0.0056));
#715=CARTESIAN_POINT('',(-0.0005,0.0215,0.0056));
#716=CARTESIAN_POINT('',(-0.0005,0.0125,0.0056));
#717=CARTESIAN_POINT('',(-0.0005,0.0035,0.0056));
#718=CARTESIAN_POINT('',(-0.0005,0.0035,0.0016));
#719=CARTESIAN_POINT('',(-0.0125,0.0125,0.0056));
#720=CARTESIAN_POINT('',(-0.0215,0.0215,0.0056));
#721=CARTESIAN_POINT('',(-0.0215,0.0035,0.0056));
#722=CARTESIAN_POINT('',(-0.0035,0.0035,0.0056));
#723=CARTESIAN_POINT('',(-0.0035,0.0215,0.0056));
#724=CARTESIAN_POINT('',(-0.0215,0.0215,0.0056));
#725=CARTESIAN_POINT('',(-0.0035,0.0215,0.0056));
#726=CARTESIAN_POINT('',(-0.0035,0.0035,0.0056));
#727=CARTESIAN_POINT('',(-0.0215,0.0035,0.0056));
#728=CARTESIAN_POINT('',(-0.0025,0.0005,-0.0025));
#729=CARTESIAN_POINT('',(-0.0245,0.0025,-0.0025));
#730=CARTESIAN_POINT('',(-0.0005,0.0225,-0.0025));
#731=CARTESIAN_POINT('',(-0.0225,0.0245,-0.0025));
#732=MECHANICAL_DESIGN_GEOMETRIC_PRESENTATION_REPRESENTATION('',(#445),
#733);
#733=(
GEOMETRIC_REPRESENTATION_CONTEXT(3)
GLOBAL_UNCERTAINTY_ASSIGNED_CONTEXT((#734))
GLOBAL_UNIT_ASSIGNED_CONTEXT((#737,#736,#735))
REPRESENTATION_CONTEXT('GPS','TOP_LEVEL_ASSEMBLY_PART')
);
#734=UNCERTAINTY_MEASURE_WITH_UNIT(LENGTH_MEASURE(1.E-8),#737,
'DISTANCE_ACCURACY_VALUE','Maximum Tolerance applied to model');
#735=(
NAMED_UNIT(*)
SI_UNIT($,.STERADIAN.)
SOLID_ANGLE_UNIT()
);
#736=(
NAMED_UNIT(*)
PLANE_ANGLE_UNIT()
SI_UNIT($,.RADIAN.)
);
#737=(
LENGTH_UNIT()
NAMED_UNIT(*)
SI_UNIT($,.METRE.)
);
#738=PRODUCT_DEFINITION_SHAPE('','',#739);
#739=PRODUCT_DEFINITION('','',#741,#740);
#740=PRODUCT_DEFINITION_CONTEXT('',#747,'design');
#741=PRODUCT_DEFINITION_FORMATION_WITH_SPECIFIED_SOURCE('','',#743,
 .NOT_KNOWN.);
#742=PRODUCT_RELATED_PRODUCT_CATEGORY('','',(#743));
#743=PRODUCT('GPS','GPS','GPS',(#745));
#744=PRODUCT_CATEGORY('','');
#745=PRODUCT_CONTEXT('',#747,'mechanical');
#746=APPLICATION_PROTOCOL_DEFINITION('international standard',
'ap242_managed_model_based_3d_engineering',2020,#747);
#747=APPLICATION_CONTEXT('managed model based 3d engineering');
ENDSEC;
END-ISO-10303-21;
