ISO-10303-21;
HEADER;
/* Generated by software containing ST-Developer
 * from STEP Tools, Inc. (www.steptools.com) 
 */
/* OPTION: using custom renumber hook */

FILE_DESCRIPTION(
/* description */ ('STEP AP242 Edition 2',
'CAx-IF Rec.Pracs.---Representation and Presentation of Product Manufa
cturing Information (PMI)---4.0---2014-10-13',
'CAx-IF Rec.Pracs.---3D Tessellated Geometry---0.4---2014-09-14','2;1',
'CAx-IF Rec.Pracs.---User Defined Attributes---1.5---2016-08-15'),
/* implementation_level */ '2;1');

FILE_NAME(
/* name */ 'MG90S Servo Horn (1 spork) - Servo Horn2',
/* time_stamp */ '2026-08-23T20:37:01Z',
/* author */ (''),
/* organization */ (''),
/* preprocessor_version */ 'ST-DEVELOPER v20',
/* originating_system */ 'ONSHAPE BY PTC INC, 1.219',
/* authorisation */ '  ');

FILE_SCHEMA (('AP242_MANAGED_MODEL_BASED_3D_ENGINEERING_MIM_LF { 1 0 10303 442 3 1 4 }'));
ENDSEC;

DATA;
#10=SHAPE_REPRESENTATION_RELATIONSHIP('','',#337,#11);
#11=ADVANCED_BREP_SHAPE_REPRESENTATION('',(#335),#573);
#12=LINE('',#538,#20);
#13=LINE('',#541,#21);
#14=LINE('',#543,#22);
#15=LINE('',#545,#23);
#16=LINE('',#551,#24);
#17=LINE('',#553,#25);
#18=LINE('',#555,#26);
#19=LINE('',#557,#27);
#20=VECTOR('',#449,1.);
#21=VECTOR('',#450,1.);
#22=VECTOR('',#451,1.);
#23=VECTOR('',#452,1.);
#24=VECTOR('',#459,1.);
#25=VECTOR('',#462,1.);
#26=VECTOR('',#463,1.);
#27=VECTOR('',#464,1.);
#28=PLANE('',#342);
#29=PLANE('',#344);
#30=PLANE('',#369);
#31=PLANE('',#373);
#32=PLANE('',#374);
#33=PLANE('',#376);
#34=PLANE('',#383);
#35=PLANE('',#384);
#36=ORIENTED_EDGE('',*,*,#104,.T.);
#37=ORIENTED_EDGE('',*,*,#105,.F.);
#38=ORIENTED_EDGE('',*,*,#106,.F.);
#39=ORIENTED_EDGE('',*,*,#105,.T.);
#40=ORIENTED_EDGE('',*,*,#107,.F.);
#41=ORIENTED_EDGE('',*,*,#104,.F.);
#42=ORIENTED_EDGE('',*,*,#108,.T.);
#43=ORIENTED_EDGE('',*,*,#107,.T.);
#44=ORIENTED_EDGE('',*,*,#109,.T.);
#45=ORIENTED_EDGE('',*,*,#110,.F.);
#46=ORIENTED_EDGE('',*,*,#111,.T.);
#47=ORIENTED_EDGE('',*,*,#112,.F.);
#48=ORIENTED_EDGE('',*,*,#113,.T.);
#49=ORIENTED_EDGE('',*,*,#114,.F.);
#50=ORIENTED_EDGE('',*,*,#115,.T.);
#51=ORIENTED_EDGE('',*,*,#116,.F.);
#52=ORIENTED_EDGE('',*,*,#117,.T.);
#53=ORIENTED_EDGE('',*,*,#118,.F.);
#54=ORIENTED_EDGE('',*,*,#119,.T.);
#55=ORIENTED_EDGE('',*,*,#120,.F.);
#56=ORIENTED_EDGE('',*,*,#121,.T.);
#57=ORIENTED_EDGE('',*,*,#122,.F.);
#58=ORIENTED_EDGE('',*,*,#123,.T.);
#59=ORIENTED_EDGE('',*,*,#124,.T.);
#60=ORIENTED_EDGE('',*,*,#125,.F.);
#61=ORIENTED_EDGE('',*,*,#126,.F.);
#62=ORIENTED_EDGE('',*,*,#127,.T.);
#63=ORIENTED_EDGE('',*,*,#126,.T.);
#64=ORIENTED_EDGE('',*,*,#128,.F.);
#65=ORIENTED_EDGE('',*,*,#129,.F.);
#66=ORIENTED_EDGE('',*,*,#130,.T.);
#67=ORIENTED_EDGE('',*,*,#129,.T.);
#68=ORIENTED_EDGE('',*,*,#131,.F.);
#69=ORIENTED_EDGE('',*,*,#132,.F.);
#70=ORIENTED_EDGE('',*,*,#131,.T.);
#71=ORIENTED_EDGE('',*,*,#128,.T.);
#72=ORIENTED_EDGE('',*,*,#125,.T.);
#73=ORIENTED_EDGE('',*,*,#133,.F.);
#74=ORIENTED_EDGE('',*,*,#122,.T.);
#75=ORIENTED_EDGE('',*,*,#120,.T.);
#76=ORIENTED_EDGE('',*,*,#118,.T.);
#77=ORIENTED_EDGE('',*,*,#116,.T.);
#78=ORIENTED_EDGE('',*,*,#114,.T.);
#79=ORIENTED_EDGE('',*,*,#112,.T.);
#80=ORIENTED_EDGE('',*,*,#110,.T.);
#81=ORIENTED_EDGE('',*,*,#130,.F.);
#82=ORIENTED_EDGE('',*,*,#134,.F.);
#83=ORIENTED_EDGE('',*,*,#123,.F.);
#84=ORIENTED_EDGE('',*,*,#127,.F.);
#85=ORIENTED_EDGE('',*,*,#121,.F.);
#86=ORIENTED_EDGE('',*,*,#119,.F.);
#87=ORIENTED_EDGE('',*,*,#117,.F.);
#88=ORIENTED_EDGE('',*,*,#115,.F.);
#89=ORIENTED_EDGE('',*,*,#113,.F.);
#90=ORIENTED_EDGE('',*,*,#111,.F.);
#91=ORIENTED_EDGE('',*,*,#109,.F.);
#92=ORIENTED_EDGE('',*,*,#106,.T.);
#93=ORIENTED_EDGE('',*,*,#135,.F.);
#94=ORIENTED_EDGE('',*,*,#136,.T.);
#95=ORIENTED_EDGE('',*,*,#137,.F.);
#96=ORIENTED_EDGE('',*,*,#132,.T.);
#97=ORIENTED_EDGE('',*,*,#133,.T.);
#98=ORIENTED_EDGE('',*,*,#124,.F.);
#99=ORIENTED_EDGE('',*,*,#134,.T.);
#100=ORIENTED_EDGE('',*,*,#137,.T.);
#101=ORIENTED_EDGE('',*,*,#135,.T.);
#102=ORIENTED_EDGE('',*,*,#136,.F.);
#103=ORIENTED_EDGE('',*,*,#108,.F.);
#104=EDGE_CURVE('',#138,#138,#168,.F.);
#105=EDGE_CURVE('',#139,#139,#169,.F.);
#106=EDGE_CURVE('',#140,#140,#170,.F.);
#107=EDGE_CURVE('',#141,#141,#171,.T.);
#108=EDGE_CURVE('',#142,#142,#172,.F.);
#109=EDGE_CURVE('',#143,#143,#173,.F.);
#110=EDGE_CURVE('',#144,#144,#174,.F.);
#111=EDGE_CURVE('',#145,#145,#175,.F.);
#112=EDGE_CURVE('',#146,#146,#176,.F.);
#113=EDGE_CURVE('',#147,#147,#177,.F.);
#114=EDGE_CURVE('',#148,#148,#178,.F.);
#115=EDGE_CURVE('',#149,#149,#179,.F.);
#116=EDGE_CURVE('',#150,#150,#180,.F.);
#117=EDGE_CURVE('',#151,#151,#181,.F.);
#118=EDGE_CURVE('',#152,#152,#182,.F.);
#119=EDGE_CURVE('',#153,#153,#183,.F.);
#120=EDGE_CURVE('',#154,#154,#184,.F.);
#121=EDGE_CURVE('',#155,#155,#185,.F.);
#122=EDGE_CURVE('',#156,#156,#186,.F.);
#123=EDGE_CURVE('',#157,#158,#12,.T.);
#124=EDGE_CURVE('',#158,#159,#13,.T.);
#125=EDGE_CURVE('',#160,#159,#14,.T.);
#126=EDGE_CURVE('',#157,#160,#15,.T.);
#127=EDGE_CURVE('',#161,#157,#187,.T.);
#128=EDGE_CURVE('',#162,#160,#188,.T.);
#129=EDGE_CURVE('',#161,#162,#16,.T.);
#130=EDGE_CURVE('',#163,#161,#17,.T.);
#131=EDGE_CURVE('',#164,#162,#18,.T.);
#132=EDGE_CURVE('',#163,#164,#19,.T.);
#133=EDGE_CURVE('',#164,#159,#189,.T.);
#134=EDGE_CURVE('',#158,#163,#190,.F.);
#135=EDGE_CURVE('',#165,#165,#191,.F.);
#136=EDGE_CURVE('',#166,#166,#192,.T.);
#137=EDGE_CURVE('',#167,#167,#193,.T.);
#138=VERTEX_POINT('',#490);
#139=VERTEX_POINT('',#492);
#140=VERTEX_POINT('',#495);
#141=VERTEX_POINT('',#498);
#142=VERTEX_POINT('',#501);
#143=VERTEX_POINT('',#504);
#144=VERTEX_POINT('',#506);
#145=VERTEX_POINT('',#509);
#146=VERTEX_POINT('',#511);
#147=VERTEX_POINT('',#514);
#148=VERTEX_POINT('',#516);
#149=VERTEX_POINT('',#519);
#150=VERTEX_POINT('',#521);
#151=VERTEX_POINT('',#524);
#152=VERTEX_POINT('',#526);
#153=VERTEX_POINT('',#529);
#154=VERTEX_POINT('',#531);
#155=VERTEX_POINT('',#534);
#156=VERTEX_POINT('',#536);
#157=VERTEX_POINT('',#539);
#158=VERTEX_POINT('',#540);
#159=VERTEX_POINT('',#542);
#160=VERTEX_POINT('',#544);
#161=VERTEX_POINT('',#548);
#162=VERTEX_POINT('',#550);
#163=VERTEX_POINT('',#554);
#164=VERTEX_POINT('',#556);
#165=VERTEX_POINT('',#564);
#166=VERTEX_POINT('',#567);
#167=VERTEX_POINT('',#569);
#168=CIRCLE('',#340,0.0013);
#169=CIRCLE('',#341,0.0013);
#170=CIRCLE('',#343,0.0024);
#171=CIRCLE('',#345,0.0024);
#172=CIRCLE('',#347,0.0024);
#173=CIRCLE('',#349,0.0005);
#174=CIRCLE('',#350,0.0005);
#175=CIRCLE('',#352,0.0005);
#176=CIRCLE('',#353,0.0005);
#177=CIRCLE('',#355,0.0005);
#178=CIRCLE('',#356,0.0005);
#179=CIRCLE('',#358,0.0005);
#180=CIRCLE('',#359,0.0005);
#181=CIRCLE('',#361,0.0005);
#182=CIRCLE('',#362,0.0005);
#183=CIRCLE('',#364,0.0005);
#184=CIRCLE('',#365,0.0005);
#185=CIRCLE('',#367,0.0005);
#186=CIRCLE('',#368,0.0005);
#187=CIRCLE('',#371,0.00180000000000018);
#188=CIRCLE('',#372,0.00180000000000018);
#189=CIRCLE('',#375,0.0034);
#190=CIRCLE('',#377,0.0034);
#191=CIRCLE('',#379,0.0024);
#192=CIRCLE('',#381,0.0034);
#193=CIRCLE('',#382,0.0034);
#194=EDGE_LOOP('',(#36));
#195=EDGE_LOOP('',(#37));
#196=EDGE_LOOP('',(#38));
#197=EDGE_LOOP('',(#39));
#198=EDGE_LOOP('',(#40));
#199=EDGE_LOOP('',(#41));
#200=EDGE_LOOP('',(#42));
#201=EDGE_LOOP('',(#43));
#202=EDGE_LOOP('',(#44));
#203=EDGE_LOOP('',(#45));
#204=EDGE_LOOP('',(#46));
#205=EDGE_LOOP('',(#47));
#206=EDGE_LOOP('',(#48));
#207=EDGE_LOOP('',(#49));
#208=EDGE_LOOP('',(#50));
#209=EDGE_LOOP('',(#51));
#210=EDGE_LOOP('',(#52));
#211=EDGE_LOOP('',(#53));
#212=EDGE_LOOP('',(#54));
#213=EDGE_LOOP('',(#55));
#214=EDGE_LOOP('',(#56));
#215=EDGE_LOOP('',(#57));
#216=EDGE_LOOP('',(#58,#59,#60,#61));
#217=EDGE_LOOP('',(#62,#63,#64,#65));
#218=EDGE_LOOP('',(#66,#67,#68,#69));
#219=EDGE_LOOP('',(#70,#71,#72,#73));
#220=EDGE_LOOP('',(#74));
#221=EDGE_LOOP('',(#75));
#222=EDGE_LOOP('',(#76));
#223=EDGE_LOOP('',(#77));
#224=EDGE_LOOP('',(#78));
#225=EDGE_LOOP('',(#79));
#226=EDGE_LOOP('',(#80));
#227=EDGE_LOOP('',(#81,#82,#83,#84));
#228=EDGE_LOOP('',(#85));
#229=EDGE_LOOP('',(#86));
#230=EDGE_LOOP('',(#87));
#231=EDGE_LOOP('',(#88));
#232=EDGE_LOOP('',(#89));
#233=EDGE_LOOP('',(#90));
#234=EDGE_LOOP('',(#91));
#235=EDGE_LOOP('',(#92));
#236=EDGE_LOOP('',(#93));
#237=EDGE_LOOP('',(#94));
#238=EDGE_LOOP('',(#95));
#239=EDGE_LOOP('',(#96,#97,#98,#99));
#240=EDGE_LOOP('',(#100));
#241=EDGE_LOOP('',(#101));
#242=EDGE_LOOP('',(#102));
#243=EDGE_LOOP('',(#103));
#244=FACE_BOUND('',#194,.T.);
#245=FACE_BOUND('',#195,.T.);
#246=FACE_BOUND('',#196,.T.);
#247=FACE_BOUND('',#197,.T.);
#248=FACE_BOUND('',#198,.T.);
#249=FACE_BOUND('',#199,.T.);
#250=FACE_BOUND('',#200,.T.);
#251=FACE_BOUND('',#201,.T.);
#252=FACE_BOUND('',#202,.T.);
#253=FACE_BOUND('',#203,.T.);
#254=FACE_BOUND('',#204,.T.);
#255=FACE_BOUND('',#205,.T.);
#256=FACE_BOUND('',#206,.T.);
#257=FACE_BOUND('',#207,.T.);
#258=FACE_BOUND('',#208,.T.);
#259=FACE_BOUND('',#209,.T.);
#260=FACE_BOUND('',#210,.T.);
#261=FACE_BOUND('',#211,.T.);
#262=FACE_BOUND('',#212,.T.);
#263=FACE_BOUND('',#213,.T.);
#264=FACE_BOUND('',#214,.T.);
#265=FACE_BOUND('',#215,.T.);
#266=FACE_BOUND('',#216,.T.);
#267=FACE_BOUND('',#217,.T.);
#268=FACE_BOUND('',#218,.T.);
#269=FACE_BOUND('',#219,.T.);
#270=FACE_BOUND('',#220,.T.);
#271=FACE_BOUND('',#221,.T.);
#272=FACE_BOUND('',#222,.T.);
#273=FACE_BOUND('',#223,.T.);
#274=FACE_BOUND('',#224,.T.);
#275=FACE_BOUND('',#225,.T.);
#276=FACE_BOUND('',#226,.T.);
#277=FACE_BOUND('',#227,.T.);
#278=FACE_BOUND('',#228,.T.);
#279=FACE_BOUND('',#229,.T.);
#280=FACE_BOUND('',#230,.T.);
#281=FACE_BOUND('',#231,.T.);
#282=FACE_BOUND('',#232,.T.);
#283=FACE_BOUND('',#233,.T.);
#284=FACE_BOUND('',#234,.T.);
#285=FACE_BOUND('',#235,.T.);
#286=FACE_BOUND('',#236,.T.);
#287=FACE_BOUND('',#237,.T.);
#288=FACE_BOUND('',#238,.T.);
#289=FACE_BOUND('',#239,.T.);
#290=FACE_BOUND('',#240,.T.);
#291=FACE_BOUND('',#241,.T.);
#292=FACE_BOUND('',#242,.T.);
#293=FACE_BOUND('',#243,.T.);
#294=CYLINDRICAL_SURFACE('',#339,0.0013);
#295=CYLINDRICAL_SURFACE('',#346,0.0024);
#296=CYLINDRICAL_SURFACE('',#348,0.0005);
#297=CYLINDRICAL_SURFACE('',#351,0.0005);
#298=CYLINDRICAL_SURFACE('',#354,0.0005);
#299=CYLINDRICAL_SURFACE('',#357,0.0005);
#300=CYLINDRICAL_SURFACE('',#360,0.0005);
#301=CYLINDRICAL_SURFACE('',#363,0.0005);
#302=CYLINDRICAL_SURFACE('',#366,0.0005);
#303=CYLINDRICAL_SURFACE('',#370,0.00180000000000018);
#304=CYLINDRICAL_SURFACE('',#378,0.0024);
#305=CYLINDRICAL_SURFACE('',#380,0.0034);
#306=ADVANCED_FACE('',(#244,#245),#294,.F.);
#307=ADVANCED_FACE('',(#246,#247),#28,.T.);
#308=ADVANCED_FACE('',(#248,#249),#29,.F.);
#309=ADVANCED_FACE('',(#250,#251),#295,.F.);
#310=ADVANCED_FACE('',(#252,#253),#296,.F.);
#311=ADVANCED_FACE('',(#254,#255),#297,.F.);
#312=ADVANCED_FACE('',(#256,#257),#298,.F.);
#313=ADVANCED_FACE('',(#258,#259),#299,.F.);
#314=ADVANCED_FACE('',(#260,#261),#300,.F.);
#315=ADVANCED_FACE('',(#262,#263),#301,.F.);
#316=ADVANCED_FACE('',(#264,#265),#302,.F.);
#317=ADVANCED_FACE('',(#266),#30,.T.);
#318=ADVANCED_FACE('',(#267),#303,.T.);
#319=ADVANCED_FACE('',(#268),#31,.T.);
#320=ADVANCED_FACE('',(#269,#270,#271,#272,#273,#274,#275,#276),#32,.T.);
#321=ADVANCED_FACE('',(#277,#278,#279,#280,#281,#282,#283,#284),#33,.F.);
#322=ADVANCED_FACE('',(#285,#286),#304,.F.);
#323=ADVANCED_FACE('',(#287,#288,#289),#305,.T.);
#324=ADVANCED_FACE('',(#290,#291),#34,.T.);
#325=ADVANCED_FACE('',(#292,#293),#35,.F.);
#326=CLOSED_SHELL('',(#306,#307,#308,#309,#310,#311,#312,#313,#314,#315,
#316,#317,#318,#319,#320,#321,#322,#323,#324,#325));
#327=STYLED_ITEM('',(#328),#335);
#328=PRESENTATION_STYLE_ASSIGNMENT((#329));
#329=SURFACE_STYLE_USAGE(.BOTH.,#330);
#330=SURFACE_SIDE_STYLE('',(#331));
#331=SURFACE_STYLE_FILL_AREA(#332);
#332=FILL_AREA_STYLE('',(#333));
#333=FILL_AREA_STYLE_COLOUR('',#334);
#334=COLOUR_RGB('',0.627450980392157,0.627450980392157,0.627450980392157);
#335=MANIFOLD_SOLID_BREP('Servo Horn2',#326);
#336=SHAPE_DEFINITION_REPRESENTATION(#578,#337);
#337=SHAPE_REPRESENTATION('Servo Horn2',(#338),#573);
#338=AXIS2_PLACEMENT_3D('',#487,#385,#386);
#339=AXIS2_PLACEMENT_3D('',#488,#387,#388);
#340=AXIS2_PLACEMENT_3D('',#489,#389,#390);
#341=AXIS2_PLACEMENT_3D('',#491,#391,#392);
#342=AXIS2_PLACEMENT_3D('',#493,#393,#394);
#343=AXIS2_PLACEMENT_3D('',#494,#395,#396);
#344=AXIS2_PLACEMENT_3D('',#496,#397,#398);
#345=AXIS2_PLACEMENT_3D('',#497,#399,#400);
#346=AXIS2_PLACEMENT_3D('',#499,#401,#402);
#347=AXIS2_PLACEMENT_3D('',#500,#403,#404);
#348=AXIS2_PLACEMENT_3D('',#502,#405,#406);
#349=AXIS2_PLACEMENT_3D('',#503,#407,#408);
#350=AXIS2_PLACEMENT_3D('',#505,#409,#410);
#351=AXIS2_PLACEMENT_3D('',#507,#411,#412);
#352=AXIS2_PLACEMENT_3D('',#508,#413,#414);
#353=AXIS2_PLACEMENT_3D('',#510,#415,#416);
#354=AXIS2_PLACEMENT_3D('',#512,#417,#418);
#355=AXIS2_PLACEMENT_3D('',#513,#419,#420);
#356=AXIS2_PLACEMENT_3D('',#515,#421,#422);
#357=AXIS2_PLACEMENT_3D('',#517,#423,#424);
#358=AXIS2_PLACEMENT_3D('',#518,#425,#426);
#359=AXIS2_PLACEMENT_3D('',#520,#427,#428);
#360=AXIS2_PLACEMENT_3D('',#522,#429,#430);
#361=AXIS2_PLACEMENT_3D('',#523,#431,#432);
#362=AXIS2_PLACEMENT_3D('',#525,#433,#434);
#363=AXIS2_PLACEMENT_3D('',#527,#435,#436);
#364=AXIS2_PLACEMENT_3D('',#528,#437,#438);
#365=AXIS2_PLACEMENT_3D('',#530,#439,#440);
#366=AXIS2_PLACEMENT_3D('',#532,#441,#442);
#367=AXIS2_PLACEMENT_3D('',#533,#443,#444);
#368=AXIS2_PLACEMENT_3D('',#535,#445,#446);
#369=AXIS2_PLACEMENT_3D('',#537,#447,#448);
#370=AXIS2_PLACEMENT_3D('',#546,#453,#454);
#371=AXIS2_PLACEMENT_3D('',#547,#455,#456);
#372=AXIS2_PLACEMENT_3D('',#549,#457,#458);
#373=AXIS2_PLACEMENT_3D('',#552,#460,#461);
#374=AXIS2_PLACEMENT_3D('',#558,#465,#466);
#375=AXIS2_PLACEMENT_3D('',#559,#467,#468);
#376=AXIS2_PLACEMENT_3D('',#560,#469,#470);
#377=AXIS2_PLACEMENT_3D('',#561,#471,#472);
#378=AXIS2_PLACEMENT_3D('',#562,#473,#474);
#379=AXIS2_PLACEMENT_3D('',#563,#475,#476);
#380=AXIS2_PLACEMENT_3D('',#565,#477,#478);
#381=AXIS2_PLACEMENT_3D('',#566,#479,#480);
#382=AXIS2_PLACEMENT_3D('',#568,#481,#482);
#383=AXIS2_PLACEMENT_3D('',#570,#483,#484);
#384=AXIS2_PLACEMENT_3D('',#571,#485,#486);
#385=DIRECTION('',(0.,0.,1.));
#386=DIRECTION('',(1.,0.,0.));
#387=DIRECTION('',(0.,-1.,0.));
#388=DIRECTION('',(1.,0.,0.));
#389=DIRECTION('',(0.,-1.,0.));
#390=DIRECTION('',(0.,0.,-1.));
#391=DIRECTION('',(0.,-1.,0.));
#392=DIRECTION('',(0.,0.,-1.));
#393=DIRECTION('',(0.,-1.,0.));
#394=DIRECTION('',(1.,0.,0.));
#395=DIRECTION('',(0.,-1.,0.));
#396=DIRECTION('',(0.,0.,-1.));
#397=DIRECTION('',(0.,-1.,0.));
#398=DIRECTION('',(1.,0.,0.));
#399=DIRECTION('',(0.,-1.,0.));
#400=DIRECTION('',(0.,0.,-1.));
#401=DIRECTION('',(0.,-1.,0.));
#402=DIRECTION('',(1.,0.,0.));
#403=DIRECTION('',(0.,-1.,0.));
#404=DIRECTION('',(0.,0.,-1.));
#405=DIRECTION('',(0.,-1.,0.));
#406=DIRECTION('',(1.,0.,0.));
#407=DIRECTION('',(0.,-1.,0.));
#408=DIRECTION('',(0.,0.,-1.));
#409=DIRECTION('',(0.,-1.,0.));
#410=DIRECTION('',(0.,0.,-1.));
#411=DIRECTION('',(0.,-1.,0.));
#412=DIRECTION('',(1.,0.,0.));
#413=DIRECTION('',(0.,-1.,0.));
#414=DIRECTION('',(0.,0.,-1.));
#415=DIRECTION('',(0.,-1.,0.));
#416=DIRECTION('',(0.,0.,-1.));
#417=DIRECTION('',(0.,-1.,0.));
#418=DIRECTION('',(1.,0.,0.));
#419=DIRECTION('',(0.,-1.,0.));
#420=DIRECTION('',(0.,0.,-1.));
#421=DIRECTION('',(0.,-1.,0.));
#422=DIRECTION('',(0.,0.,-1.));
#423=DIRECTION('',(0.,-1.,0.));
#424=DIRECTION('',(1.,0.,0.));
#425=DIRECTION('',(0.,-1.,0.));
#426=DIRECTION('',(0.,0.,-1.));
#427=DIRECTION('',(0.,-1.,0.));
#428=DIRECTION('',(0.,0.,-1.));
#429=DIRECTION('',(0.,-1.,0.));
#430=DIRECTION('',(1.,0.,0.));
#431=DIRECTION('',(0.,-1.,0.));
#432=DIRECTION('',(0.,0.,-1.));
#433=DIRECTION('',(0.,-1.,0.));
#434=DIRECTION('',(0.,0.,-1.));
#435=DIRECTION('',(0.,-1.,0.));
#436=DIRECTION('',(1.,0.,0.));
#437=DIRECTION('',(0.,-1.,0.));
#438=DIRECTION('',(0.,0.,-1.));
#439=DIRECTION('',(0.,-1.,0.));
#440=DIRECTION('',(0.,0.,-1.));
#441=DIRECTION('',(0.,-1.,0.));
#442=DIRECTION('',(1.,0.,0.));
#443=DIRECTION('',(0.,-1.,0.));
#444=DIRECTION('',(0.,0.,-1.));
#445=DIRECTION('',(0.,-1.,0.));
#446=DIRECTION('',(0.,0.,-1.));
#447=DIRECTION('',(0.0975609756097562,0.,0.995229549419667));
#448=DIRECTION('',(-0.995229549419667,0.,0.0975609756097562));
#449=DIRECTION('',(-0.995229549419667,0.,0.0975609756097562));
#450=DIRECTION('',(0.,-1.,0.));
#451=DIRECTION('',(-0.995229549419668,0.,0.0975609756097453));
#452=DIRECTION('',(0.,-1.,0.));
#453=DIRECTION('',(0.,-1.,0.));
#454=DIRECTION('',(0.0975609756097438,0.,-0.995229549419668));
#455=DIRECTION('',(0.,-1.,0.));
#456=DIRECTION('',(0.,0.,-1.));
#457=DIRECTION('',(0.,-1.,0.));
#458=DIRECTION('',(0.,0.,-1.));
#459=DIRECTION('',(0.,-1.,0.));
#460=DIRECTION('',(0.0975609756097661,0.,-0.995229549419666));
#461=DIRECTION('',(0.995229549419666,0.,0.0975609756097661));
#462=DIRECTION('',(0.995229549419666,0.,0.0975609756097661));
#463=DIRECTION('',(0.995229549419667,0.,0.0975609756097555));
#464=DIRECTION('',(0.,-1.,0.));
#465=DIRECTION('',(0.,-1.,0.));
#466=DIRECTION('',(1.,0.,0.));
#467=DIRECTION('',(0.,-1.,0.));
#468=DIRECTION('',(0.,0.,-1.));
#469=DIRECTION('',(0.,-1.,0.));
#470=DIRECTION('',(1.,0.,0.));
#471=DIRECTION('',(0.,-1.,0.));
#472=DIRECTION('',(0.,0.,-1.));
#473=DIRECTION('',(0.,-1.,0.));
#474=DIRECTION('',(1.,0.,0.));
#475=DIRECTION('',(0.,-1.,0.));
#476=DIRECTION('',(0.,0.,-1.));
#477=DIRECTION('',(0.,-1.,0.));
#478=DIRECTION('',(1.,0.,0.));
#479=DIRECTION('',(0.,-1.,0.));
#480=DIRECTION('',(0.,0.,-1.));
#481=DIRECTION('',(0.,-1.,0.));
#482=DIRECTION('',(0.,0.,-1.));
#483=DIRECTION('',(0.,-1.,0.));
#484=DIRECTION('',(1.,0.,0.));
#485=DIRECTION('',(0.,-1.,0.));
#486=DIRECTION('',(1.,0.,0.));
#487=CARTESIAN_POINT('',(0.,0.,0.));
#488=CARTESIAN_POINT('',(0.03,-0.0007,0.));
#489=CARTESIAN_POINT('',(0.03,-0.0007,0.));
#490=CARTESIAN_POINT('',(0.03,-0.0007,-0.0013));
#491=CARTESIAN_POINT('',(0.03,-0.0019,0.));
#492=CARTESIAN_POINT('',(0.03,-0.0019,-0.0013));
#493=CARTESIAN_POINT('',(0.03,-0.0019,0.));
#494=CARTESIAN_POINT('',(0.03,-0.0019,0.));
#495=CARTESIAN_POINT('',(0.03,-0.0019,-0.0024));
#496=CARTESIAN_POINT('',(0.03,-0.0007,0.));
#497=CARTESIAN_POINT('',(0.03,-0.0007,0.));
#498=CARTESIAN_POINT('',(0.03,-0.0007,-0.0024));
#499=CARTESIAN_POINT('',(0.03,-2.77436787862763E-35,0.));
#500=CARTESIAN_POINT('',(0.03,-2.77436787862763E-35,0.));
#501=CARTESIAN_POINT('',(0.03,-2.77436787862763E-35,-0.0024));
#502=CARTESIAN_POINT('',(0.0351,-0.0002,0.));
#503=CARTESIAN_POINT('',(0.0351,-0.0002,0.));
#504=CARTESIAN_POINT('',(0.0351,-0.0002,-0.0005));
#505=CARTESIAN_POINT('',(0.0351,-0.0023,0.));
#506=CARTESIAN_POINT('',(0.0351,-0.0023,-0.0005));
#507=CARTESIAN_POINT('',(0.0447666666666667,-0.0002,0.));
#508=CARTESIAN_POINT('',(0.0447666666666667,-0.0002,0.));
#509=CARTESIAN_POINT('',(0.0447666666666667,-0.0002,-0.0005));
#510=CARTESIAN_POINT('',(0.0447666666666667,-0.0023,0.));
#511=CARTESIAN_POINT('',(0.0447666666666667,-0.0023,-0.0005));
#512=CARTESIAN_POINT('',(0.0389666666666667,-0.0002,0.));
#513=CARTESIAN_POINT('',(0.0389666666666667,-0.0002,0.));
#514=CARTESIAN_POINT('',(0.0389666666666667,-0.0002,-0.0005));
#515=CARTESIAN_POINT('',(0.0389666666666667,-0.0023,0.));
#516=CARTESIAN_POINT('',(0.0389666666666667,-0.0023,-0.0005));
#517=CARTESIAN_POINT('',(0.0467,-0.0002,0.));
#518=CARTESIAN_POINT('',(0.0467,-0.0002,0.));
#519=CARTESIAN_POINT('',(0.0467,-0.0002,-0.0005));
#520=CARTESIAN_POINT('',(0.0467,-0.0023,0.));
#521=CARTESIAN_POINT('',(0.0467,-0.0023,-0.0005));
#522=CARTESIAN_POINT('',(0.0370333333333333,-0.0002,0.));
#523=CARTESIAN_POINT('',(0.0370333333333333,-0.0002,0.));
#524=CARTESIAN_POINT('',(0.0370333333333333,-0.0002,-0.0005));
#525=CARTESIAN_POINT('',(0.0370333333333333,-0.0023,0.));
#526=CARTESIAN_POINT('',(0.0370333333333333,-0.0023,-0.0005));
#527=CARTESIAN_POINT('',(0.0428333333333333,-0.0002,0.));
#528=CARTESIAN_POINT('',(0.0428333333333333,-0.0002,0.));
#529=CARTESIAN_POINT('',(0.0428333333333333,-0.0002,-0.0005));
#530=CARTESIAN_POINT('',(0.0428333333333333,-0.0023,0.));
#531=CARTESIAN_POINT('',(0.0428333333333333,-0.0023,-0.0005));
#532=CARTESIAN_POINT('',(0.0409,-0.0002,0.));
#533=CARTESIAN_POINT('',(0.0409,-0.0002,0.));
#534=CARTESIAN_POINT('',(0.0409,-0.0002,-0.0005));
#535=CARTESIAN_POINT('',(0.0409,-0.0023,0.));
#536=CARTESIAN_POINT('',(0.0409,-0.0023,-0.0005));
#537=CARTESIAN_POINT('',(0.0465756097560976,-0.0002,0.0017914131889554));
#538=CARTESIAN_POINT('',(0.0465756097560976,-0.0002,0.0017914131889554));
#539=CARTESIAN_POINT('',(0.0465756097560976,-0.0002,0.00179141318895549));
#540=CARTESIAN_POINT('',(0.0303317073170732,-0.0002,0.00338378046802687));
#541=CARTESIAN_POINT('',(0.0303317073170732,-0.0002,0.00338378046802687));
#542=CARTESIAN_POINT('',(0.0303317073170731,-0.0023,0.00338378046802687));
#543=CARTESIAN_POINT('',(0.0465756097560976,-0.0023,0.00179141318895558));
#544=CARTESIAN_POINT('',(0.0465756097560976,-0.0023,0.00179141318895558));
#545=CARTESIAN_POINT('',(0.0465756097560976,-0.0002,0.00179141318895558));
#546=CARTESIAN_POINT('',(0.0464,-0.0002,0.));
#547=CARTESIAN_POINT('',(0.0464,-0.0002,0.));
#548=CARTESIAN_POINT('',(0.0465756097560976,-0.0002,-0.00179141318895558));
#549=CARTESIAN_POINT('',(0.0464,-0.0023,0.));
#550=CARTESIAN_POINT('',(0.0465756097560976,-0.0023,-0.00179141318895558));
#551=CARTESIAN_POINT('',(0.0465756097560976,-0.0002,-0.00179141318895558));
#552=CARTESIAN_POINT('',(0.0303317073170732,-0.0002,-0.00338378046802721));
#553=CARTESIAN_POINT('',(0.0303317073170732,-0.0002,-0.00338378046802721));
#554=CARTESIAN_POINT('',(0.0303317073170732,-0.0002,-0.00338378046802704));
#555=CARTESIAN_POINT('',(0.0303317073170732,-0.0023,-0.00338378046802704));
#556=CARTESIAN_POINT('',(0.0303317073170732,-0.0023,-0.00338378046802696));
#557=CARTESIAN_POINT('',(0.0303317073170731,-2.77436787862763E-35,-0.00338378046802687));
#558=CARTESIAN_POINT('',(0.0392658536585367,-0.0023,-1.73194791841524E-16));
#559=CARTESIAN_POINT('',(0.03,-0.0023,0.));
#560=CARTESIAN_POINT('',(0.0392658536585367,-0.0002,-1.73194791841524E-16));
#561=CARTESIAN_POINT('',(0.03,-0.0002,0.));
#562=CARTESIAN_POINT('',(0.03,-2.77436787862763E-35,0.));
#563=CARTESIAN_POINT('',(0.03,-0.0047,0.));
#564=CARTESIAN_POINT('',(0.03,-0.0047,-0.0024));
#565=CARTESIAN_POINT('',(0.03,-2.77436787862763E-35,0.));
#566=CARTESIAN_POINT('',(0.03,-2.77436787862763E-35,0.));
#567=CARTESIAN_POINT('',(0.03,-2.77436787862763E-35,-0.0034));
#568=CARTESIAN_POINT('',(0.03,-0.0047,0.));
#569=CARTESIAN_POINT('',(0.03,-0.0047,-0.0034));
#570=CARTESIAN_POINT('',(0.03,-0.0047,0.));
#571=CARTESIAN_POINT('',(0.03,-2.77436787862763E-35,0.));
#572=MECHANICAL_DESIGN_GEOMETRIC_PRESENTATION_REPRESENTATION('',(#327),
#573);
#573=(
GEOMETRIC_REPRESENTATION_CONTEXT(3)
GLOBAL_UNCERTAINTY_ASSIGNED_CONTEXT((#574))
GLOBAL_UNIT_ASSIGNED_CONTEXT((#577,#576,#575))
REPRESENTATION_CONTEXT('Servo Horn2','TOP_LEVEL_ASSEMBLY_PART')
);
#574=UNCERTAINTY_MEASURE_WITH_UNIT(LENGTH_MEASURE(1.E-8),#577,
'DISTANCE_ACCURACY_VALUE','Maximum Tolerance applied to model');
#575=(
NAMED_UNIT(*)
SI_UNIT($,.STERADIAN.)
SOLID_ANGLE_UNIT()
);
#576=(
NAMED_UNIT(*)
PLANE_ANGLE_UNIT()
SI_UNIT($,.RADIAN.)
);
#577=(
LENGTH_UNIT()
NAMED_UNIT(*)
SI_UNIT($,.METRE.)
);
#578=PRODUCT_DEFINITION_SHAPE('','',#579);
#579=PRODUCT_DEFINITION('','',#581,#580);
#580=PRODUCT_DEFINITION_CONTEXT('',#587,'design');
#581=PRODUCT_DEFINITION_FORMATION_WITH_SPECIFIED_SOURCE('','',#583,
 .NOT_KNOWN.);
#582=PRODUCT_RELATED_PRODUCT_CATEGORY('','',(#583));
#583=PRODUCT('Servo Horn2','Servo Horn2','Servo Horn2',(#585));
#584=PRODUCT_CATEGORY('','');
#585=PRODUCT_CONTEXT('',#587,'mechanical');
#586=APPLICATION_PROTOCOL_DEFINITION('international standard',
'ap242_managed_model_based_3d_engineering',2020,#587);
#587=APPLICATION_CONTEXT('managed model based 3d engineering');
ENDSEC;
END-ISO-10303-21;
