ISO-10303-21;
HEADER;
/* Generated by software containing ST-Developer
 * from STEP Tools, Inc. (www.steptools.com) 
 */
/* OPTION: using custom renumber hook */

FILE_DESCRIPTION(
/* description */ ('STEP AP242 Edition 2',
'CAx-IF Rec.Pracs.---Representation and Presentation of Product Manufa
cturing Information (PMI)---4.0---2014-10-13',
'CAx-IF Rec.Pracs.---3D Tessellated Geometry---0.4---2014-09-14','2;1',
'CAx-IF Rec.Pracs.---User Defined Attributes---1.5---2016-08-15'),
/* implementation_level */ '2;1');

FILE_NAME(
/* name */ 'Mounts - Motor Mount',
/* time_stamp */ '2026-08-23T20:33:32Z',
/* author */ (''),
/* organization */ (''),
/* preprocessor_version */ 'ST-DEVELOPER v20',
/* originating_system */ 'ONSHAPE BY PTC INC, 1.219',
/* authorisation */ '  ');

FILE_SCHEMA (('AP242_MANAGED_MODEL_BASED_3D_ENGINEERING_MIM_LF { 1 0 10303 442 3 1 4 }'));
ENDSEC;

DATA;
#10=SHAPE_REPRESENTATION_RELATIONSHIP('','',#370,#11);
#11=ADVANCED_BREP_SHAPE_REPRESENTATION('',(#368),#602);
#12=ELLIPSE('',#377,0.0271903317038839,0.021);
#13=CYLINDRICAL_SURFACE('',#375,0.021);
#14=CYLINDRICAL_SURFACE('',#380,0.0065);
#15=CYLINDRICAL_SURFACE('',#383,0.0065);
#16=CYLINDRICAL_SURFACE('',#386,0.0331);
#17=CYLINDRICAL_SURFACE('',#396,0.0381);
#18=CIRCLE('',#373,0.0065);
#19=CIRCLE('',#376,0.021);
#20=CIRCLE('',#381,0.0065);
#21=CIRCLE('',#384,0.0065);
#22=CIRCLE('',#385,0.0065);
#23=CIRCLE('',#387,0.0331);
#24=CIRCLE('',#388,0.0331);
#25=CIRCLE('',#392,0.0381);
#26=CIRCLE('',#397,0.0381);
#27=ORIENTED_EDGE('',*,*,#125,.F.);
#28=ORIENTED_EDGE('',*,*,#126,.T.);
#29=ORIENTED_EDGE('',*,*,#127,.T.);
#30=ORIENTED_EDGE('',*,*,#128,.F.);
#31=ORIENTED_EDGE('',*,*,#129,.F.);
#32=ORIENTED_EDGE('',*,*,#130,.F.);
#33=ORIENTED_EDGE('',*,*,#131,.T.);
#34=ORIENTED_EDGE('',*,*,#132,.T.);
#35=ORIENTED_EDGE('',*,*,#133,.T.);
#36=ORIENTED_EDGE('',*,*,#134,.F.);
#37=ORIENTED_EDGE('',*,*,#135,.F.);
#38=ORIENTED_EDGE('',*,*,#136,.T.);
#39=ORIENTED_EDGE('',*,*,#130,.T.);
#40=ORIENTED_EDGE('',*,*,#137,.T.);
#41=ORIENTED_EDGE('',*,*,#138,.F.);
#42=ORIENTED_EDGE('',*,*,#139,.T.);
#43=ORIENTED_EDGE('',*,*,#140,.F.);
#44=ORIENTED_EDGE('',*,*,#135,.T.);
#45=ORIENTED_EDGE('',*,*,#141,.F.);
#46=ORIENTED_EDGE('',*,*,#142,.F.);
#47=ORIENTED_EDGE('',*,*,#127,.F.);
#48=ORIENTED_EDGE('',*,*,#143,.F.);
#49=ORIENTED_EDGE('',*,*,#144,.T.);
#50=ORIENTED_EDGE('',*,*,#145,.T.);
#51=ORIENTED_EDGE('',*,*,#146,.F.);
#52=ORIENTED_EDGE('',*,*,#147,.T.);
#53=ORIENTED_EDGE('',*,*,#148,.F.);
#54=ORIENTED_EDGE('',*,*,#149,.F.);
#55=ORIENTED_EDGE('',*,*,#128,.T.);
#56=ORIENTED_EDGE('',*,*,#142,.T.);
#57=ORIENTED_EDGE('',*,*,#150,.T.);
#58=ORIENTED_EDGE('',*,*,#151,.F.);
#59=ORIENTED_EDGE('',*,*,#152,.T.);
#60=ORIENTED_EDGE('',*,*,#153,.F.);
#61=ORIENTED_EDGE('',*,*,#154,.F.);
#62=ORIENTED_EDGE('',*,*,#155,.T.);
#63=ORIENTED_EDGE('',*,*,#125,.T.);
#64=ORIENTED_EDGE('',*,*,#149,.T.);
#65=ORIENTED_EDGE('',*,*,#156,.F.);
#66=ORIENTED_EDGE('',*,*,#147,.F.);
#67=ORIENTED_EDGE('',*,*,#157,.T.);
#68=ORIENTED_EDGE('',*,*,#151,.T.);
#69=ORIENTED_EDGE('',*,*,#158,.T.);
#70=ORIENTED_EDGE('',*,*,#133,.F.);
#71=ORIENTED_EDGE('',*,*,#159,.F.);
#72=ORIENTED_EDGE('',*,*,#138,.T.);
#73=ORIENTED_EDGE('',*,*,#152,.F.);
#74=ORIENTED_EDGE('',*,*,#157,.F.);
#75=ORIENTED_EDGE('',*,*,#146,.T.);
#76=ORIENTED_EDGE('',*,*,#160,.F.);
#77=ORIENTED_EDGE('',*,*,#141,.T.);
#78=ORIENTED_EDGE('',*,*,#156,.T.);
#79=ORIENTED_EDGE('',*,*,#150,.F.);
#80=ORIENTED_EDGE('',*,*,#148,.T.);
#81=ORIENTED_EDGE('',*,*,#129,.T.);
#82=ORIENTED_EDGE('',*,*,#158,.F.);
#83=ORIENTED_EDGE('',*,*,#137,.F.);
#84=ORIENTED_EDGE('',*,*,#134,.T.);
#85=ORIENTED_EDGE('',*,*,#161,.T.);
#86=ORIENTED_EDGE('',*,*,#159,.T.);
#87=ORIENTED_EDGE('',*,*,#162,.F.);
#88=ORIENTED_EDGE('',*,*,#163,.F.);
#89=ORIENTED_EDGE('',*,*,#131,.F.);
#90=ORIENTED_EDGE('',*,*,#136,.F.);
#91=ORIENTED_EDGE('',*,*,#140,.T.);
#92=ORIENTED_EDGE('',*,*,#164,.T.);
#93=ORIENTED_EDGE('',*,*,#165,.T.);
#94=ORIENTED_EDGE('',*,*,#166,.F.);
#95=ORIENTED_EDGE('',*,*,#167,.F.);
#96=ORIENTED_EDGE('',*,*,#154,.T.);
#97=ORIENTED_EDGE('',*,*,#168,.T.);
#98=ORIENTED_EDGE('',*,*,#144,.F.);
#99=ORIENTED_EDGE('',*,*,#139,.F.);
#100=ORIENTED_EDGE('',*,*,#161,.F.);
#101=ORIENTED_EDGE('',*,*,#169,.F.);
#102=ORIENTED_EDGE('',*,*,#170,.F.);
#103=ORIENTED_EDGE('',*,*,#164,.F.);
#104=ORIENTED_EDGE('',*,*,#132,.F.);
#105=ORIENTED_EDGE('',*,*,#166,.T.);
#106=ORIENTED_EDGE('',*,*,#171,.T.);
#107=ORIENTED_EDGE('',*,*,#172,.T.);
#108=ORIENTED_EDGE('',*,*,#162,.T.);
#109=ORIENTED_EDGE('',*,*,#173,.F.);
#110=ORIENTED_EDGE('',*,*,#169,.T.);
#111=ORIENTED_EDGE('',*,*,#163,.T.);
#112=ORIENTED_EDGE('',*,*,#172,.F.);
#113=ORIENTED_EDGE('',*,*,#171,.F.);
#114=ORIENTED_EDGE('',*,*,#165,.F.);
#115=ORIENTED_EDGE('',*,*,#170,.T.);
#116=ORIENTED_EDGE('',*,*,#173,.T.);
#117=ORIENTED_EDGE('',*,*,#168,.F.);
#118=ORIENTED_EDGE('',*,*,#153,.T.);
#119=ORIENTED_EDGE('',*,*,#160,.T.);
#120=ORIENTED_EDGE('',*,*,#145,.F.);
#121=ORIENTED_EDGE('',*,*,#155,.F.);
#122=ORIENTED_EDGE('',*,*,#167,.T.);
#123=ORIENTED_EDGE('',*,*,#143,.T.);
#124=ORIENTED_EDGE('',*,*,#126,.F.);
#125=EDGE_CURVE('',#174,#175,#206,.T.);
#126=EDGE_CURVE('',#174,#176,#207,.T.);
#127=EDGE_CURVE('',#176,#177,#208,.T.);
#128=EDGE_CURVE('',#175,#177,#18,.T.);
#129=EDGE_CURVE('',#178,#179,#209,.T.);
#130=EDGE_CURVE('',#180,#178,#210,.T.);
#131=EDGE_CURVE('',#180,#181,#211,.T.);
#132=EDGE_CURVE('',#181,#182,#212,.T.);
#133=EDGE_CURVE('',#182,#179,#213,.T.);
#134=EDGE_CURVE('',#183,#178,#19,.T.);
#135=EDGE_CURVE('',#184,#183,#214,.T.);
#136=EDGE_CURVE('',#184,#180,#12,.T.);
#137=EDGE_CURVE('',#183,#185,#215,.T.);
#138=EDGE_CURVE('',#186,#185,#216,.T.);
#139=EDGE_CURVE('',#186,#187,#217,.T.);
#140=EDGE_CURVE('',#184,#187,#218,.T.);
#141=EDGE_CURVE('',#188,#189,#219,.T.);
#142=EDGE_CURVE('',#177,#188,#220,.T.);
#143=EDGE_CURVE('',#190,#176,#221,.T.);
#144=EDGE_CURVE('',#190,#191,#222,.T.);
#145=EDGE_CURVE('',#191,#192,#223,.T.);
#146=EDGE_CURVE('',#193,#192,#224,.T.);
#147=EDGE_CURVE('',#193,#189,#225,.T.);
#148=EDGE_CURVE('',#194,#188,#20,.T.);
#149=EDGE_CURVE('',#175,#194,#226,.T.);
#150=EDGE_CURVE('',#194,#195,#227,.T.);
#151=EDGE_CURVE('',#196,#195,#228,.T.);
#152=EDGE_CURVE('',#196,#197,#229,.T.);
#153=EDGE_CURVE('',#198,#197,#230,.T.);
#154=EDGE_CURVE('',#199,#198,#231,.T.);
#155=EDGE_CURVE('',#199,#174,#232,.T.);
#156=EDGE_CURVE('',#189,#195,#21,.T.);
#157=EDGE_CURVE('',#193,#196,#22,.T.);
#158=EDGE_CURVE('',#185,#179,#23,.T.);
#159=EDGE_CURVE('',#186,#182,#24,.T.);
#160=EDGE_CURVE('',#197,#192,#233,.T.);
#161=EDGE_CURVE('',#200,#186,#234,.T.);
#162=EDGE_CURVE('',#201,#182,#235,.T.);
#163=EDGE_CURVE('',#200,#201,#25,.T.);
#164=EDGE_CURVE('',#187,#202,#236,.T.);
#165=EDGE_CURVE('',#202,#203,#237,.T.);
#166=EDGE_CURVE('',#181,#203,#238,.T.);
#167=EDGE_CURVE('',#199,#190,#239,.T.);
#168=EDGE_CURVE('',#198,#191,#240,.T.);
#169=EDGE_CURVE('',#204,#200,#241,.T.);
#170=EDGE_CURVE('',#202,#204,#242,.T.);
#171=EDGE_CURVE('',#203,#205,#243,.T.);
#172=EDGE_CURVE('',#205,#201,#244,.T.);
#173=EDGE_CURVE('',#204,#205,#26,.T.);
#174=VERTEX_POINT('',#503);
#175=VERTEX_POINT('',#504);
#176=VERTEX_POINT('',#506);
#177=VERTEX_POINT('',#508);
#178=VERTEX_POINT('',#512);
#179=VERTEX_POINT('',#513);
#180=VERTEX_POINT('',#515);
#181=VERTEX_POINT('',#517);
#182=VERTEX_POINT('',#519);
#183=VERTEX_POINT('',#523);
#184=VERTEX_POINT('',#525);
#185=VERTEX_POINT('',#529);
#186=VERTEX_POINT('',#531);
#187=VERTEX_POINT('',#533);
#188=VERTEX_POINT('',#537);
#189=VERTEX_POINT('',#538);
#190=VERTEX_POINT('',#541);
#191=VERTEX_POINT('',#543);
#192=VERTEX_POINT('',#545);
#193=VERTEX_POINT('',#547);
#194=VERTEX_POINT('',#551);
#195=VERTEX_POINT('',#555);
#196=VERTEX_POINT('',#557);
#197=VERTEX_POINT('',#559);
#198=VERTEX_POINT('',#561);
#199=VERTEX_POINT('',#563);
#200=VERTEX_POINT('',#576);
#201=VERTEX_POINT('',#578);
#202=VERTEX_POINT('',#582);
#203=VERTEX_POINT('',#584);
#204=VERTEX_POINT('',#590);
#205=VERTEX_POINT('',#594);
#206=LINE('',#502,#245);
#207=LINE('',#505,#246);
#208=LINE('',#507,#247);
#209=LINE('',#511,#248);
#210=LINE('',#514,#249);
#211=LINE('',#516,#250);
#212=LINE('',#518,#251);
#213=LINE('',#520,#252);
#214=LINE('',#524,#253);
#215=LINE('',#528,#254);
#216=LINE('',#530,#255);
#217=LINE('',#532,#256);
#218=LINE('',#534,#257);
#219=LINE('',#536,#258);
#220=LINE('',#539,#259);
#221=LINE('',#540,#260);
#222=LINE('',#542,#261);
#223=LINE('',#544,#262);
#224=LINE('',#546,#263);
#225=LINE('',#548,#264);
#226=LINE('',#552,#265);
#227=LINE('',#554,#266);
#228=LINE('',#556,#267);
#229=LINE('',#558,#268);
#230=LINE('',#560,#269);
#231=LINE('',#562,#270);
#232=LINE('',#564,#271);
#233=LINE('',#572,#272);
#234=LINE('',#575,#273);
#235=LINE('',#577,#274);
#236=LINE('',#581,#275);
#237=LINE('',#583,#276);
#238=LINE('',#585,#277);
#239=LINE('',#586,#278);
#240=LINE('',#587,#279);
#241=LINE('',#589,#280);
#242=LINE('',#591,#281);
#243=LINE('',#593,#282);
#244=LINE('',#595,#283);
#245=VECTOR('',#405,1.);
#246=VECTOR('',#406,1.);
#247=VECTOR('',#407,1.);
#248=VECTOR('',#412,1.);
#249=VECTOR('',#413,1.);
#250=VECTOR('',#414,1.);
#251=VECTOR('',#415,1.);
#252=VECTOR('',#416,1.);
#253=VECTOR('',#421,1.);
#254=VECTOR('',#426,1.);
#255=VECTOR('',#427,1.);
#256=VECTOR('',#428,1.);
#257=VECTOR('',#429,1.);
#258=VECTOR('',#432,1.);
#259=VECTOR('',#433,1.);
#260=VECTOR('',#434,1.);
#261=VECTOR('',#435,1.);
#262=VECTOR('',#436,1.);
#263=VECTOR('',#437,1.);
#264=VECTOR('',#438,1.);
#265=VECTOR('',#443,1.);
#266=VECTOR('',#446,1.);
#267=VECTOR('',#447,1.);
#268=VECTOR('',#448,1.);
#269=VECTOR('',#449,1.);
#270=VECTOR('',#450,1.);
#271=VECTOR('',#451,1.);
#272=VECTOR('',#466,1.);
#273=VECTOR('',#471,1.);
#274=VECTOR('',#472,1.);
#275=VECTOR('',#477,1.);
#276=VECTOR('',#478,1.);
#277=VECTOR('',#479,1.);
#278=VECTOR('',#480,1.);
#279=VECTOR('',#481,1.);
#280=VECTOR('',#484,1.);
#281=VECTOR('',#485,1.);
#282=VECTOR('',#488,1.);
#283=VECTOR('',#489,1.);
#284=EDGE_LOOP('',(#27,#28,#29,#30));
#285=EDGE_LOOP('',(#31,#32,#33,#34,#35));
#286=EDGE_LOOP('',(#36,#37,#38,#39));
#287=EDGE_LOOP('',(#40,#41,#42,#43,#44));
#288=EDGE_LOOP('',(#45,#46,#47,#48,#49,#50,#51,#52));
#289=EDGE_LOOP('',(#53,#54,#55,#56));
#290=EDGE_LOOP('',(#57,#58,#59,#60,#61,#62,#63,#64));
#291=EDGE_LOOP('',(#65,#66,#67,#68));
#292=EDGE_LOOP('',(#69,#70,#71,#72));
#293=EDGE_LOOP('',(#73,#74,#75,#76));
#294=EDGE_LOOP('',(#77,#78,#79,#80));
#295=EDGE_LOOP('',(#81,#82,#83,#84));
#296=EDGE_LOOP('',(#85,#86,#87,#88));
#297=EDGE_LOOP('',(#89,#90,#91,#92,#93,#94));
#298=EDGE_LOOP('',(#95,#96,#97,#98));
#299=EDGE_LOOP('',(#99,#100,#101,#102,#103));
#300=EDGE_LOOP('',(#104,#105,#106,#107,#108));
#301=EDGE_LOOP('',(#109,#110,#111,#112));
#302=EDGE_LOOP('',(#113,#114,#115,#116));
#303=EDGE_LOOP('',(#117,#118,#119,#120));
#304=EDGE_LOOP('',(#121,#122,#123,#124));
#305=FACE_BOUND('',#284,.T.);
#306=FACE_BOUND('',#285,.T.);
#307=FACE_BOUND('',#286,.T.);
#308=FACE_BOUND('',#287,.T.);
#309=FACE_BOUND('',#288,.T.);
#310=FACE_BOUND('',#289,.T.);
#311=FACE_BOUND('',#290,.T.);
#312=FACE_BOUND('',#291,.T.);
#313=FACE_BOUND('',#292,.T.);
#314=FACE_BOUND('',#293,.T.);
#315=FACE_BOUND('',#294,.T.);
#316=FACE_BOUND('',#295,.T.);
#317=FACE_BOUND('',#296,.T.);
#318=FACE_BOUND('',#297,.T.);
#319=FACE_BOUND('',#298,.T.);
#320=FACE_BOUND('',#299,.T.);
#321=FACE_BOUND('',#300,.T.);
#322=FACE_BOUND('',#301,.T.);
#323=FACE_BOUND('',#302,.T.);
#324=FACE_BOUND('',#303,.T.);
#325=FACE_BOUND('',#304,.T.);
#326=PLANE('',#372);
#327=PLANE('',#374);
#328=PLANE('',#378);
#329=PLANE('',#379);
#330=PLANE('',#382);
#331=PLANE('',#389);
#332=PLANE('',#390);
#333=PLANE('',#391);
#334=PLANE('',#393);
#335=PLANE('',#394);
#336=PLANE('',#395);
#337=PLANE('',#398);
#338=PLANE('',#399);
#339=PLANE('',#400);
#340=ADVANCED_FACE('',(#305),#326,.T.);
#341=ADVANCED_FACE('',(#306),#327,.T.);
#342=ADVANCED_FACE('',(#307),#13,.F.);
#343=ADVANCED_FACE('',(#308),#328,.F.);
#344=ADVANCED_FACE('',(#309),#329,.T.);
#345=ADVANCED_FACE('',(#310),#14,.F.);
#346=ADVANCED_FACE('',(#311),#330,.F.);
#347=ADVANCED_FACE('',(#312),#15,.F.);
#348=ADVANCED_FACE('',(#313),#16,.T.);
#349=ADVANCED_FACE('',(#314),#331,.T.);
#350=ADVANCED_FACE('',(#315,#316),#332,.F.);
#351=ADVANCED_FACE('',(#317),#333,.F.);
#352=ADVANCED_FACE('',(#318,#319),#334,.T.);
#353=ADVANCED_FACE('',(#320),#335,.F.);
#354=ADVANCED_FACE('',(#321),#336,.T.);
#355=ADVANCED_FACE('',(#322),#17,.T.);
#356=ADVANCED_FACE('',(#323),#337,.T.);
#357=ADVANCED_FACE('',(#324),#338,.F.);
#358=ADVANCED_FACE('',(#325),#339,.T.);
#359=CLOSED_SHELL('',(#340,#341,#342,#343,#344,#345,#346,#347,#348,#349,
#350,#351,#352,#353,#354,#355,#356,#357,#358));
#360=STYLED_ITEM('',(#361),#368);
#361=PRESENTATION_STYLE_ASSIGNMENT((#362));
#362=SURFACE_STYLE_USAGE(.BOTH.,#363);
#363=SURFACE_SIDE_STYLE('',(#364));
#364=SURFACE_STYLE_FILL_AREA(#365);
#365=FILL_AREA_STYLE('',(#366));
#366=FILL_AREA_STYLE_COLOUR('',#367);
#367=COLOUR_RGB('',0.917647058823529,0.917647058823529,0.917647058823529);
#368=MANIFOLD_SOLID_BREP('Motor Mount',#359);
#369=SHAPE_DEFINITION_REPRESENTATION(#607,#370);
#370=SHAPE_REPRESENTATION('Motor Mount',(#371),#602);
#371=AXIS2_PLACEMENT_3D('',#500,#401,#402);
#372=AXIS2_PLACEMENT_3D('',#501,#403,#404);
#373=AXIS2_PLACEMENT_3D('',#509,#408,#409);
#374=AXIS2_PLACEMENT_3D('',#510,#410,#411);
#375=AXIS2_PLACEMENT_3D('',#521,#417,#418);
#376=AXIS2_PLACEMENT_3D('',#522,#419,#420);
#377=AXIS2_PLACEMENT_3D('',#526,#422,#423);
#378=AXIS2_PLACEMENT_3D('',#527,#424,#425);
#379=AXIS2_PLACEMENT_3D('',#535,#430,#431);
#380=AXIS2_PLACEMENT_3D('',#549,#439,#440);
#381=AXIS2_PLACEMENT_3D('',#550,#441,#442);
#382=AXIS2_PLACEMENT_3D('',#553,#444,#445);
#383=AXIS2_PLACEMENT_3D('',#565,#452,#453);
#384=AXIS2_PLACEMENT_3D('',#566,#454,#455);
#385=AXIS2_PLACEMENT_3D('',#567,#456,#457);
#386=AXIS2_PLACEMENT_3D('',#568,#458,#459);
#387=AXIS2_PLACEMENT_3D('',#569,#460,#461);
#388=AXIS2_PLACEMENT_3D('',#570,#462,#463);
#389=AXIS2_PLACEMENT_3D('',#571,#464,#465);
#390=AXIS2_PLACEMENT_3D('',#573,#467,#468);
#391=AXIS2_PLACEMENT_3D('',#574,#469,#470);
#392=AXIS2_PLACEMENT_3D('',#579,#473,#474);
#393=AXIS2_PLACEMENT_3D('',#580,#475,#476);
#394=AXIS2_PLACEMENT_3D('',#588,#482,#483);
#395=AXIS2_PLACEMENT_3D('',#592,#486,#487);
#396=AXIS2_PLACEMENT_3D('',#596,#490,#491);
#397=AXIS2_PLACEMENT_3D('',#597,#492,#493);
#398=AXIS2_PLACEMENT_3D('',#598,#494,#495);
#399=AXIS2_PLACEMENT_3D('',#599,#496,#497);
#400=AXIS2_PLACEMENT_3D('',#600,#498,#499);
#401=DIRECTION('',(0.,0.,1.));
#402=DIRECTION('',(1.,0.,0.));
#403=DIRECTION('',(0.,-1.,0.));
#404=DIRECTION('',(1.,0.,0.));
#405=DIRECTION('',(-1.,0.,0.));
#406=DIRECTION('',(0.,0.,1.));
#407=DIRECTION('',(-1.,0.,0.));
#408=DIRECTION('',(0.,-1.,0.));
#409=DIRECTION('',(0.,0.,-1.));
#410=DIRECTION('',(0.699771811741546,0.,0.714366440625506));
#411=DIRECTION('',(0.714366440625506,0.,-0.699771811741546));
#412=DIRECTION('',(0.714366440625506,0.,-0.699771811741546));
#413=DIRECTION('',(0.,1.,0.));
#414=DIRECTION('',(0.619144754884217,-0.49882156635298,-0.606495521368891));
#415=DIRECTION('',(0.,1.,0.));
#416=DIRECTION('',(0.,1.,0.));
#417=DIRECTION('',(0.,1.,0.));
#418=DIRECTION('',(0.,0.,1.));
#419=DIRECTION('',(0.,-1.,0.));
#420=DIRECTION('',(0.,0.,-1.));
#421=DIRECTION('',(0.,1.,0.));
#422=DIRECTION('',(0.,-0.772333351012423,0.635217439082022));
#423=DIRECTION('',(0.,0.635217439082022,0.772333351012423));
#424=DIRECTION('',(0.699771811741547,0.,-0.714366440625505));
#425=DIRECTION('',(-0.714366440625505,0.,-0.699771811741547));
#426=DIRECTION('',(-0.714366440625505,0.,-0.699771811741547));
#427=DIRECTION('',(0.,1.,0.));
#428=DIRECTION('',(0.,-1.,0.));
#429=DIRECTION('',(-0.619144754884217,-0.49882156635298,-0.606495521368891));
#430=DIRECTION('',(0.,0.,-1.));
#431=DIRECTION('',(-1.,0.,0.));
#432=DIRECTION('',(-1.,0.,0.));
#433=DIRECTION('',(0.,1.,0.));
#434=DIRECTION('',(0.,1.,0.));
#435=DIRECTION('',(-1.,0.,0.));
#436=DIRECTION('',(0.,1.,0.));
#437=DIRECTION('',(-1.,0.,0.));
#438=DIRECTION('',(0.,1.,0.));
#439=DIRECTION('',(0.,1.,0.));
#440=DIRECTION('',(0.,0.,1.));
#441=DIRECTION('',(0.,-1.,0.));
#442=DIRECTION('',(0.,0.,-1.));
#443=DIRECTION('',(0.,1.,0.));
#444=DIRECTION('',(0.,0.,-1.));
#445=DIRECTION('',(-1.,0.,0.));
#446=DIRECTION('',(-1.,0.,0.));
#447=DIRECTION('',(0.,1.,0.));
#448=DIRECTION('',(-1.,0.,0.));
#449=DIRECTION('',(0.,1.,0.));
#450=DIRECTION('',(-1.,0.,0.));
#451=DIRECTION('',(0.,1.,0.));
#452=DIRECTION('',(0.,1.,0.));
#453=DIRECTION('',(0.,0.,1.));
#454=DIRECTION('',(0.,-1.,0.));
#455=DIRECTION('',(0.,0.,-1.));
#456=DIRECTION('',(0.,-1.,0.));
#457=DIRECTION('',(0.,0.,-1.));
#458=DIRECTION('',(0.,1.,0.));
#459=DIRECTION('',(0.,0.,1.));
#460=DIRECTION('',(0.,-1.,0.));
#461=DIRECTION('',(0.,0.,-1.));
#462=DIRECTION('',(0.,-1.,0.));
#463=DIRECTION('',(0.,0.,-1.));
#464=DIRECTION('',(0.,-1.,0.));
#465=DIRECTION('',(1.,0.,0.));
#466=DIRECTION('',(0.,0.,1.));
#467=DIRECTION('',(0.,-1.,0.));
#468=DIRECTION('',(1.,0.,0.));
#469=DIRECTION('',(0.,-1.,0.));
#470=DIRECTION('',(1.,0.,0.));
#471=DIRECTION('',(0.,0.,1.));
#472=DIRECTION('',(0.,0.,1.));
#473=DIRECTION('',(0.,-1.,0.));
#474=DIRECTION('',(0.,0.,-1.));
#475=DIRECTION('',(0.,-0.772333351012423,0.635217439082022));
#476=DIRECTION('',(0.,-0.635217439082022,-0.772333351012423));
#477=DIRECTION('',(0.,-0.635217439082022,-0.772333351012423));
#478=DIRECTION('',(1.,0.,0.));
#479=DIRECTION('',(0.,-0.635217439082022,-0.772333351012423));
#480=DIRECTION('',(0.,0.635217439082022,0.772333351012423));
#481=DIRECTION('',(0.,0.635217439082022,0.772333351012423));
#482=DIRECTION('',(1.,0.,0.));
#483=DIRECTION('',(0.,1.,0.));
#484=DIRECTION('',(0.,1.,0.));
#485=DIRECTION('',(0.,0.,-1.));
#486=DIRECTION('',(1.,0.,0.));
#487=DIRECTION('',(0.,1.,0.));
#488=DIRECTION('',(0.,0.,-1.));
#489=DIRECTION('',(0.,1.,0.));
#490=DIRECTION('',(0.,1.,0.));
#491=DIRECTION('',(0.,0.,1.));
#492=DIRECTION('',(0.,-1.,0.));
#493=DIRECTION('',(0.,0.,-1.));
#494=DIRECTION('',(0.,-1.,0.));
#495=DIRECTION('',(1.,0.,0.));
#496=DIRECTION('',(-1.,0.,0.));
#497=DIRECTION('',(0.,0.,1.));
#498=DIRECTION('',(-1.,0.,0.));
#499=DIRECTION('',(0.,0.,1.));
#500=CARTESIAN_POINT('',(0.,0.,0.));
#501=CARTESIAN_POINT('',(0.,-0.004,0.));
#502=CARTESIAN_POINT('',(-6.50521303491303E-19,-0.004,-0.022));
#503=CARTESIAN_POINT('',(0.006,-0.004,-0.022));
#504=CARTESIAN_POINT('',(0.0035,-0.004,-0.022));
#505=CARTESIAN_POINT('',(0.006,-0.004,-0.017));
#506=CARTESIAN_POINT('',(0.006,-0.004,-0.012));
#507=CARTESIAN_POINT('',(-0.00475,-0.004,-0.012));
#508=CARTESIAN_POINT('',(0.0035,-0.004,-0.012));
#509=CARTESIAN_POINT('',(-0.000653311931459039,-0.004,-0.017));
#510=CARTESIAN_POINT('',(0.0175,-0.004,-0.0143467737138746));
#511=CARTESIAN_POINT('',(0.0175,0.,-0.0143467737138746));
#512=CARTESIAN_POINT('',(0.00603354484150918,0.,-0.00311458020057834));
#513=CARTESIAN_POINT('',(0.025,0.,-0.0216935474277491));
#514=CARTESIAN_POINT('',(0.00603354484150918,-0.004,-0.00311458020057834));
#515=CARTESIAN_POINT('',(0.00603354484150918,-0.006,-0.00311458020057834));
#516=CARTESIAN_POINT('',(0.0271835459553507,-0.0230397578284364,-0.0238324831647901));
#517=CARTESIAN_POINT('',(0.025,-0.0212805572456011,-0.0216935474277491));
#518=CARTESIAN_POINT('',(0.025,-0.024,-0.0216935474277491));
#519=CARTESIAN_POINT('',(0.025,-0.004,-0.0216935474277491));
#520=CARTESIAN_POINT('',(0.025,-0.004,-0.0216935474277491));
#521=CARTESIAN_POINT('',(-8.67361737988404E-19,-0.004,0.017));
#522=CARTESIAN_POINT('',(-8.67361737988404E-19,0.,0.017));
#523=CARTESIAN_POINT('',(-0.00603354484150918,0.,-0.00311458020057834));
#524=CARTESIAN_POINT('',(-0.00603354484150918,-0.004,-0.00311458020057834));
#525=CARTESIAN_POINT('',(-0.00603354484150918,-0.006,-0.00311458020057833));
#526=CARTESIAN_POINT('',(-8.67361737988404E-19,0.0105435457454637,0.017));
#527=CARTESIAN_POINT('',(-0.0175,-0.004,-0.0143467737138746));
#528=CARTESIAN_POINT('',(-0.0175,0.,-0.0143467737138746));
#529=CARTESIAN_POINT('',(-0.025,0.,-0.0216935474277491));
#530=CARTESIAN_POINT('',(-0.025,-0.004,-0.0216935474277491));
#531=CARTESIAN_POINT('',(-0.025,-0.004,-0.0216935474277491));
#532=CARTESIAN_POINT('',(-0.025,-0.024,-0.0216935474277491));
#533=CARTESIAN_POINT('',(-0.025,-0.0212805572456011,-0.0216935474277491));
#534=CARTESIAN_POINT('',(-0.0271835459553507,-0.0230397578284364,-0.0238324831647901));
#535=CARTESIAN_POINT('',(-4.33680868994202E-19,-0.004,-0.012));
#536=CARTESIAN_POINT('',(-4.33680868994202E-19,0.,-0.012));
#537=CARTESIAN_POINT('',(0.0035,0.,-0.012));
#538=CARTESIAN_POINT('',(-0.0035,0.,-0.012));
#539=CARTESIAN_POINT('',(0.0035,-0.004,-0.012));
#540=CARTESIAN_POINT('',(0.006,-0.024,-0.012));
#541=CARTESIAN_POINT('',(0.006,-0.0133079501264041,-0.012));
#542=CARTESIAN_POINT('',(-0.00475,-0.0133079501264041,-0.012));
#543=CARTESIAN_POINT('',(-0.006,-0.0133079501264041,-0.012));
#544=CARTESIAN_POINT('',(-0.006,-0.024,-0.012));
#545=CARTESIAN_POINT('',(-0.006,-0.004,-0.012));
#546=CARTESIAN_POINT('',(-0.00475,-0.004,-0.012));
#547=CARTESIAN_POINT('',(-0.0035,-0.004,-0.012));
#548=CARTESIAN_POINT('',(-0.0035,-0.004,-0.012));
#549=CARTESIAN_POINT('',(-0.000653311931459039,-0.004,-0.017));
#550=CARTESIAN_POINT('',(-0.000653311931459039,0.,-0.017));
#551=CARTESIAN_POINT('',(0.0035,0.,-0.022));
#552=CARTESIAN_POINT('',(0.0035,-0.004,-0.022));
#553=CARTESIAN_POINT('',(-6.50521303491303E-19,-0.004,-0.022));
#554=CARTESIAN_POINT('',(-6.50521303491303E-19,0.,-0.022));
#555=CARTESIAN_POINT('',(-0.0035,0.,-0.022));
#556=CARTESIAN_POINT('',(-0.0035,-0.004,-0.022));
#557=CARTESIAN_POINT('',(-0.0035,-0.004,-0.022));
#558=CARTESIAN_POINT('',(-6.50521303491303E-19,-0.004,-0.022));
#559=CARTESIAN_POINT('',(-0.006,-0.004,-0.022));
#560=CARTESIAN_POINT('',(-0.006,-0.024,-0.022));
#561=CARTESIAN_POINT('',(-0.006,-0.021532603875324,-0.022));
#562=CARTESIAN_POINT('',(-6.50521303491303E-19,-0.021532603875324,-0.022));
#563=CARTESIAN_POINT('',(0.006,-0.021532603875324,-0.022));
#564=CARTESIAN_POINT('',(0.006,-0.024,-0.022));
#565=CARTESIAN_POINT('',(0.000653311931459037,-0.004,-0.017));
#566=CARTESIAN_POINT('',(0.000653311931459037,0.,-0.017));
#567=CARTESIAN_POINT('',(0.000653311931459037,-0.004,-0.017));
#568=CARTESIAN_POINT('',(-6.93889390390723E-18,-0.004,8.67361737988404E-18));
#569=CARTESIAN_POINT('',(-6.93889390390723E-18,0.,8.67361737988404E-18));
#570=CARTESIAN_POINT('',(-6.93889390390723E-18,-0.004,8.67361737988404E-18));
#571=CARTESIAN_POINT('',(0.,-0.004,0.));
#572=CARTESIAN_POINT('',(-0.006,-0.004,-0.017));
#573=CARTESIAN_POINT('',(0.,0.,0.));
#574=CARTESIAN_POINT('',(0.,-0.004,0.));
#575=CARTESIAN_POINT('',(-0.025,-0.004,0.));
#576=CARTESIAN_POINT('',(-0.025,-0.004,-0.0287508260750887));
#577=CARTESIAN_POINT('',(0.025,-0.004,0.));
#578=CARTESIAN_POINT('',(0.025,-0.004,-0.0287508260750887));
#579=CARTESIAN_POINT('',(0.,-0.004,6.93889390390723E-18));
#580=CARTESIAN_POINT('',(-0.025,-0.015,-0.0140572901002892));
#581=CARTESIAN_POINT('',(-0.025,-0.015,-0.0140572901002892));
#582=CARTESIAN_POINT('',(-0.025,-0.024,-0.025));
#583=CARTESIAN_POINT('',(-0.025,-0.024,-0.025));
#584=CARTESIAN_POINT('',(0.025,-0.024,-0.025));
#585=CARTESIAN_POINT('',(0.025,-0.015,-0.0140572901002892));
#586=CARTESIAN_POINT('',(0.006,-0.020075203093218,-0.0202280095593114));
#587=CARTESIAN_POINT('',(-0.006,-0.020075203093218,-0.0202280095593114));
#588=CARTESIAN_POINT('',(-0.025,-0.012,-0.0215572901002892));
#589=CARTESIAN_POINT('',(-0.025,-0.024,-0.0287508260750887));
#590=CARTESIAN_POINT('',(-0.025,-0.024,-0.0287508260750887));
#591=CARTESIAN_POINT('',(-0.025,-0.024,-0.0325));
#592=CARTESIAN_POINT('',(0.025,-0.012,-0.0215572901002892));
#593=CARTESIAN_POINT('',(0.025,-0.024,-0.0325));
#594=CARTESIAN_POINT('',(0.025,-0.024,-0.0287508260750887));
#595=CARTESIAN_POINT('',(0.025,-0.024,-0.0287508260750887));
#596=CARTESIAN_POINT('',(0.,-0.024,6.93889390390723E-18));
#597=CARTESIAN_POINT('',(0.,-0.024,6.93889390390723E-18));
#598=CARTESIAN_POINT('',(0.,-0.024,0.));
#599=CARTESIAN_POINT('',(-0.006,-0.024,-0.017));
#600=CARTESIAN_POINT('',(0.006,-0.024,-0.017));
#601=MECHANICAL_DESIGN_GEOMETRIC_PRESENTATION_REPRESENTATION('',(#360),
#602);
#602=(
GEOMETRIC_REPRESENTATION_CONTEXT(3)
GLOBAL_UNCERTAINTY_ASSIGNED_CONTEXT((#603))
GLOBAL_UNIT_ASSIGNED_CONTEXT((#606,#605,#604))
REPRESENTATION_CONTEXT('Motor Mount','TOP_LEVEL_ASSEMBLY_PART')
);
#603=UNCERTAINTY_MEASURE_WITH_UNIT(LENGTH_MEASURE(1.E-8),#606,
'DISTANCE_ACCURACY_VALUE','Maximum Tolerance applied to model');
#604=(
NAMED_UNIT(*)
SI_UNIT($,.STERADIAN.)
SOLID_ANGLE_UNIT()
);
#605=(
NAMED_UNIT(*)
PLANE_ANGLE_UNIT()
SI_UNIT($,.RADIAN.)
);
#606=(
LENGTH_UNIT()
NAMED_UNIT(*)
SI_UNIT($,.METRE.)
);
#607=PRODUCT_DEFINITION_SHAPE('','',#608);
#608=PRODUCT_DEFINITION('','',#610,#609);
#609=PRODUCT_DEFINITION_CONTEXT('',#616,'design');
#610=PRODUCT_DEFINITION_FORMATION_WITH_SPECIFIED_SOURCE('','',#612,
 .NOT_KNOWN.);
#611=PRODUCT_RELATED_PRODUCT_CATEGORY('','',(#612));
#612=PRODUCT('Motor Mount','Motor Mount','Motor Mount',(#614));
#613=PRODUCT_CATEGORY('','');
#614=PRODUCT_CONTEXT('',#616,'mechanical');
#615=APPLICATION_PROTOCOL_DEFINITION('international standard',
'ap242_managed_model_based_3d_engineering',2020,#616);
#616=APPLICATION_CONTEXT('managed model based 3d engineering');
ENDSEC;
END-ISO-10303-21;
