ISO-10303-21;
HEADER;
/* Generated by software containing ST-Developer
 * from STEP Tools, Inc. (www.steptools.com) 
 */
/* OPTION: using custom renumber hook */

FILE_DESCRIPTION(
/* description */ ('STEP AP242 Edition 2',
'CAx-IF Rec.Pracs.---Representation and Presentation of Product Manufa
cturing Information (PMI)---4.0---2014-10-13',
'CAx-IF Rec.Pracs.---3D Tessellated Geometry---0.4---2014-09-14','2;1',
'CAx-IF Rec.Pracs.---User Defined Attributes---1.5---2016-08-15'),
/* implementation_level */ '2;1');

FILE_NAME(
/* name */ 'Mounts - Motor Mount2',
/* time_stamp */ '2026-08-23T20:33:27Z',
/* author */ (''),
/* organization */ (''),
/* preprocessor_version */ 'ST-DEVELOPER v20',
/* originating_system */ 'ONSHAPE BY PTC INC, 1.219',
/* authorisation */ '  ');

FILE_SCHEMA (('AP242_MANAGED_MODEL_BASED_3D_ENGINEERING_MIM_LF { 1 0 10303 442 3 1 4 }'));
ENDSEC;

DATA;
#10=SHAPE_REPRESENTATION_RELATIONSHIP('','',#262,#11);
#11=ADVANCED_BREP_SHAPE_REPRESENTATION('',(#260),#416);
#12=CIRCLE('',#269,0.0381);
#13=CIRCLE('',#270,0.0381);
#14=CIRCLE('',#273,0.021);
#15=CYLINDRICAL_SURFACE('',#268,0.0381);
#16=CYLINDRICAL_SURFACE('',#278,0.021);
#17=ELLIPSE('',#265,0.0271903317038839,0.021);
#18=ORIENTED_EDGE('',*,*,#84,.F.);
#19=ORIENTED_EDGE('',*,*,#85,.F.);
#20=ORIENTED_EDGE('',*,*,#86,.T.);
#21=ORIENTED_EDGE('',*,*,#87,.T.);
#22=ORIENTED_EDGE('',*,*,#88,.T.);
#23=ORIENTED_EDGE('',*,*,#89,.F.);
#24=ORIENTED_EDGE('',*,*,#90,.F.);
#25=ORIENTED_EDGE('',*,*,#91,.T.);
#26=ORIENTED_EDGE('',*,*,#92,.T.);
#27=ORIENTED_EDGE('',*,*,#93,.F.);
#28=ORIENTED_EDGE('',*,*,#94,.F.);
#29=ORIENTED_EDGE('',*,*,#95,.F.);
#30=ORIENTED_EDGE('',*,*,#96,.F.);
#31=ORIENTED_EDGE('',*,*,#97,.F.);
#32=ORIENTED_EDGE('',*,*,#87,.F.);
#33=ORIENTED_EDGE('',*,*,#98,.F.);
#34=ORIENTED_EDGE('',*,*,#89,.T.);
#35=ORIENTED_EDGE('',*,*,#99,.T.);
#36=ORIENTED_EDGE('',*,*,#100,.T.);
#37=ORIENTED_EDGE('',*,*,#101,.T.);
#38=ORIENTED_EDGE('',*,*,#102,.F.);
#39=ORIENTED_EDGE('',*,*,#96,.T.);
#40=ORIENTED_EDGE('',*,*,#103,.T.);
#41=ORIENTED_EDGE('',*,*,#100,.F.);
#42=ORIENTED_EDGE('',*,*,#99,.F.);
#43=ORIENTED_EDGE('',*,*,#88,.F.);
#44=ORIENTED_EDGE('',*,*,#97,.T.);
#45=ORIENTED_EDGE('',*,*,#102,.T.);
#46=ORIENTED_EDGE('',*,*,#104,.F.);
#47=ORIENTED_EDGE('',*,*,#105,.T.);
#48=ORIENTED_EDGE('',*,*,#106,.T.);
#49=ORIENTED_EDGE('',*,*,#107,.F.);
#50=ORIENTED_EDGE('',*,*,#103,.F.);
#51=ORIENTED_EDGE('',*,*,#95,.T.);
#52=ORIENTED_EDGE('',*,*,#108,.F.);
#53=ORIENTED_EDGE('',*,*,#109,.T.);
#54=ORIENTED_EDGE('',*,*,#110,.T.);
#55=ORIENTED_EDGE('',*,*,#101,.F.);
#56=ORIENTED_EDGE('',*,*,#91,.F.);
#57=ORIENTED_EDGE('',*,*,#111,.T.);
#58=ORIENTED_EDGE('',*,*,#104,.T.);
#59=ORIENTED_EDGE('',*,*,#112,.F.);
#60=ORIENTED_EDGE('',*,*,#92,.F.);
#61=ORIENTED_EDGE('',*,*,#112,.T.);
#62=ORIENTED_EDGE('',*,*,#107,.T.);
#63=ORIENTED_EDGE('',*,*,#113,.F.);
#64=ORIENTED_EDGE('',*,*,#114,.F.);
#65=ORIENTED_EDGE('',*,*,#93,.T.);
#66=ORIENTED_EDGE('',*,*,#113,.T.);
#67=ORIENTED_EDGE('',*,*,#106,.F.);
#68=ORIENTED_EDGE('',*,*,#115,.F.);
#69=ORIENTED_EDGE('',*,*,#84,.T.);
#70=ORIENTED_EDGE('',*,*,#98,.T.);
#71=ORIENTED_EDGE('',*,*,#110,.F.);
#72=ORIENTED_EDGE('',*,*,#116,.F.);
#73=ORIENTED_EDGE('',*,*,#85,.T.);
#74=ORIENTED_EDGE('',*,*,#115,.T.);
#75=ORIENTED_EDGE('',*,*,#109,.F.);
#76=ORIENTED_EDGE('',*,*,#86,.F.);
#77=ORIENTED_EDGE('',*,*,#116,.T.);
#78=ORIENTED_EDGE('',*,*,#108,.T.);
#79=ORIENTED_EDGE('',*,*,#94,.T.);
#80=ORIENTED_EDGE('',*,*,#111,.F.);
#81=ORIENTED_EDGE('',*,*,#90,.T.);
#82=ORIENTED_EDGE('',*,*,#114,.T.);
#83=ORIENTED_EDGE('',*,*,#105,.F.);
#84=EDGE_CURVE('',#117,#118,#139,.T.);
#85=EDGE_CURVE('',#119,#117,#17,.T.);
#86=EDGE_CURVE('',#119,#120,#140,.T.);
#87=EDGE_CURVE('',#120,#121,#141,.T.);
#88=EDGE_CURVE('',#121,#122,#142,.T.);
#89=EDGE_CURVE('',#118,#122,#143,.T.);
#90=EDGE_CURVE('',#123,#124,#144,.T.);
#91=EDGE_CURVE('',#123,#125,#145,.T.);
#92=EDGE_CURVE('',#125,#126,#146,.T.);
#93=EDGE_CURVE('',#124,#126,#147,.T.);
#94=EDGE_CURVE('',#127,#120,#148,.T.);
#95=EDGE_CURVE('',#128,#127,#149,.T.);
#96=EDGE_CURVE('',#129,#128,#150,.T.);
#97=EDGE_CURVE('',#121,#129,#151,.T.);
#98=EDGE_CURVE('',#118,#130,#152,.T.);
#99=EDGE_CURVE('',#122,#131,#153,.T.);
#100=EDGE_CURVE('',#131,#132,#154,.T.);
#101=EDGE_CURVE('',#132,#130,#155,.T.);
#102=EDGE_CURVE('',#129,#131,#12,.T.);
#103=EDGE_CURVE('',#128,#132,#13,.T.);
#104=EDGE_CURVE('',#133,#134,#156,.T.);
#105=EDGE_CURVE('',#133,#135,#157,.T.);
#106=EDGE_CURVE('',#135,#136,#158,.T.);
#107=EDGE_CURVE('',#134,#136,#159,.T.);
#108=EDGE_CURVE('',#137,#127,#160,.T.);
#109=EDGE_CURVE('',#137,#138,#14,.T.);
#110=EDGE_CURVE('',#138,#130,#161,.T.);
#111=EDGE_CURVE('',#123,#133,#162,.T.);
#112=EDGE_CURVE('',#125,#134,#163,.T.);
#113=EDGE_CURVE('',#126,#136,#164,.T.);
#114=EDGE_CURVE('',#124,#135,#165,.T.);
#115=EDGE_CURVE('',#117,#138,#166,.T.);
#116=EDGE_CURVE('',#119,#137,#167,.T.);
#117=VERTEX_POINT('',#349);
#118=VERTEX_POINT('',#350);
#119=VERTEX_POINT('',#352);
#120=VERTEX_POINT('',#354);
#121=VERTEX_POINT('',#356);
#122=VERTEX_POINT('',#358);
#123=VERTEX_POINT('',#361);
#124=VERTEX_POINT('',#362);
#125=VERTEX_POINT('',#364);
#126=VERTEX_POINT('',#366);
#127=VERTEX_POINT('',#370);
#128=VERTEX_POINT('',#372);
#129=VERTEX_POINT('',#374);
#130=VERTEX_POINT('',#378);
#131=VERTEX_POINT('',#380);
#132=VERTEX_POINT('',#382);
#133=VERTEX_POINT('',#390);
#134=VERTEX_POINT('',#391);
#135=VERTEX_POINT('',#393);
#136=VERTEX_POINT('',#395);
#137=VERTEX_POINT('',#398);
#138=VERTEX_POINT('',#400);
#139=LINE('',#348,#168);
#140=LINE('',#353,#169);
#141=LINE('',#355,#170);
#142=LINE('',#357,#171);
#143=LINE('',#359,#172);
#144=LINE('',#360,#173);
#145=LINE('',#363,#174);
#146=LINE('',#365,#175);
#147=LINE('',#367,#176);
#148=LINE('',#369,#177);
#149=LINE('',#371,#178);
#150=LINE('',#373,#179);
#151=LINE('',#375,#180);
#152=LINE('',#377,#181);
#153=LINE('',#379,#182);
#154=LINE('',#381,#183);
#155=LINE('',#383,#184);
#156=LINE('',#389,#185);
#157=LINE('',#392,#186);
#158=LINE('',#394,#187);
#159=LINE('',#396,#188);
#160=LINE('',#397,#189);
#161=LINE('',#401,#190);
#162=LINE('',#403,#191);
#163=LINE('',#404,#192);
#164=LINE('',#406,#193);
#165=LINE('',#408,#194);
#166=LINE('',#410,#195);
#167=LINE('',#412,#196);
#168=VECTOR('',#285,1.);
#169=VECTOR('',#288,1.);
#170=VECTOR('',#289,1.);
#171=VECTOR('',#290,1.);
#172=VECTOR('',#291,1.);
#173=VECTOR('',#292,1.);
#174=VECTOR('',#293,1.);
#175=VECTOR('',#294,1.);
#176=VECTOR('',#295,1.);
#177=VECTOR('',#298,1.);
#178=VECTOR('',#299,1.);
#179=VECTOR('',#300,1.);
#180=VECTOR('',#301,1.);
#181=VECTOR('',#304,1.);
#182=VECTOR('',#305,1.);
#183=VECTOR('',#306,1.);
#184=VECTOR('',#307,1.);
#185=VECTOR('',#318,1.);
#186=VECTOR('',#319,1.);
#187=VECTOR('',#320,1.);
#188=VECTOR('',#321,1.);
#189=VECTOR('',#322,1.);
#190=VECTOR('',#325,1.);
#191=VECTOR('',#328,1.);
#192=VECTOR('',#329,1.);
#193=VECTOR('',#332,1.);
#194=VECTOR('',#335,1.);
#195=VECTOR('',#338,1.);
#196=VECTOR('',#341,1.);
#197=EDGE_LOOP('',(#18,#19,#20,#21,#22,#23));
#198=EDGE_LOOP('',(#24,#25,#26,#27));
#199=EDGE_LOOP('',(#28,#29,#30,#31,#32));
#200=EDGE_LOOP('',(#33,#34,#35,#36,#37));
#201=EDGE_LOOP('',(#38,#39,#40,#41));
#202=EDGE_LOOP('',(#42,#43,#44,#45));
#203=EDGE_LOOP('',(#46,#47,#48,#49));
#204=EDGE_LOOP('',(#50,#51,#52,#53,#54,#55));
#205=EDGE_LOOP('',(#56,#57,#58,#59));
#206=EDGE_LOOP('',(#60,#61,#62,#63));
#207=EDGE_LOOP('',(#64,#65,#66,#67));
#208=EDGE_LOOP('',(#68,#69,#70,#71));
#209=EDGE_LOOP('',(#72,#73,#74,#75));
#210=EDGE_LOOP('',(#76,#77,#78,#79));
#211=EDGE_LOOP('',(#80,#81,#82,#83));
#212=FACE_BOUND('',#197,.T.);
#213=FACE_BOUND('',#198,.T.);
#214=FACE_BOUND('',#199,.T.);
#215=FACE_BOUND('',#200,.T.);
#216=FACE_BOUND('',#201,.T.);
#217=FACE_BOUND('',#202,.T.);
#218=FACE_BOUND('',#203,.T.);
#219=FACE_BOUND('',#204,.T.);
#220=FACE_BOUND('',#205,.T.);
#221=FACE_BOUND('',#206,.T.);
#222=FACE_BOUND('',#207,.T.);
#223=FACE_BOUND('',#208,.T.);
#224=FACE_BOUND('',#209,.T.);
#225=FACE_BOUND('',#210,.T.);
#226=FACE_BOUND('',#211,.T.);
#227=PLANE('',#264);
#228=PLANE('',#266);
#229=PLANE('',#267);
#230=PLANE('',#271);
#231=PLANE('',#272);
#232=PLANE('',#274);
#233=PLANE('',#275);
#234=PLANE('',#276);
#235=PLANE('',#277);
#236=PLANE('',#279);
#237=PLANE('',#280);
#238=ADVANCED_FACE('',(#212,#213),#227,.T.);
#239=ADVANCED_FACE('',(#214),#228,.F.);
#240=ADVANCED_FACE('',(#215),#229,.T.);
#241=ADVANCED_FACE('',(#216),#15,.T.);
#242=ADVANCED_FACE('',(#217),#230,.T.);
#243=ADVANCED_FACE('',(#218,#219),#231,.F.);
#244=ADVANCED_FACE('',(#220),#232,.F.);
#245=ADVANCED_FACE('',(#221),#233,.F.);
#246=ADVANCED_FACE('',(#222),#234,.T.);
#247=ADVANCED_FACE('',(#223),#235,.T.);
#248=ADVANCED_FACE('',(#224),#16,.F.);
#249=ADVANCED_FACE('',(#225),#236,.F.);
#250=ADVANCED_FACE('',(#226),#237,.T.);
#251=CLOSED_SHELL('',(#238,#239,#240,#241,#242,#243,#244,#245,#246,#247,
#248,#249,#250));
#252=STYLED_ITEM('',(#253),#260);
#253=PRESENTATION_STYLE_ASSIGNMENT((#254));
#254=SURFACE_STYLE_USAGE(.BOTH.,#255);
#255=SURFACE_SIDE_STYLE('',(#256));
#256=SURFACE_STYLE_FILL_AREA(#257);
#257=FILL_AREA_STYLE('',(#258));
#258=FILL_AREA_STYLE_COLOUR('',#259);
#259=COLOUR_RGB('',0.231372549019608,0.380392156862745,0.705882352941177);
#260=MANIFOLD_SOLID_BREP('Motor Mount2',#251);
#261=SHAPE_DEFINITION_REPRESENTATION(#421,#262);
#262=SHAPE_REPRESENTATION('Motor Mount2',(#263),#416);
#263=AXIS2_PLACEMENT_3D('',#346,#281,#282);
#264=AXIS2_PLACEMENT_3D('',#347,#283,#284);
#265=AXIS2_PLACEMENT_3D('',#351,#286,#287);
#266=AXIS2_PLACEMENT_3D('',#368,#296,#297);
#267=AXIS2_PLACEMENT_3D('',#376,#302,#303);
#268=AXIS2_PLACEMENT_3D('',#384,#308,#309);
#269=AXIS2_PLACEMENT_3D('',#385,#310,#311);
#270=AXIS2_PLACEMENT_3D('',#386,#312,#313);
#271=AXIS2_PLACEMENT_3D('',#387,#314,#315);
#272=AXIS2_PLACEMENT_3D('',#388,#316,#317);
#273=AXIS2_PLACEMENT_3D('',#399,#323,#324);
#274=AXIS2_PLACEMENT_3D('',#402,#326,#327);
#275=AXIS2_PLACEMENT_3D('',#405,#330,#331);
#276=AXIS2_PLACEMENT_3D('',#407,#333,#334);
#277=AXIS2_PLACEMENT_3D('',#409,#336,#337);
#278=AXIS2_PLACEMENT_3D('',#411,#339,#340);
#279=AXIS2_PLACEMENT_3D('',#413,#342,#343);
#280=AXIS2_PLACEMENT_3D('',#414,#344,#345);
#281=DIRECTION('',(0.,0.,1.));
#282=DIRECTION('',(1.,0.,0.));
#283=DIRECTION('',(0.,-0.772333351012423,0.635217439082022));
#284=DIRECTION('',(0.,-0.635217439082022,-0.772333351012423));
#285=DIRECTION('',(0.619144754884217,-0.49882156635298,-0.606495521368891));
#286=DIRECTION('',(0.,-0.772333351012423,0.635217439082022));
#287=DIRECTION('',(0.,0.635217439082022,0.772333351012423));
#288=DIRECTION('',(-0.619144754884217,-0.49882156635298,-0.606495521368891));
#289=DIRECTION('',(0.,-0.635217439082022,-0.772333351012423));
#290=DIRECTION('',(1.,0.,0.));
#291=DIRECTION('',(0.,-0.635217439082022,-0.772333351012423));
#292=DIRECTION('',(0.,0.635217439082022,0.772333351012423));
#293=DIRECTION('',(-1.,0.,0.));
#294=DIRECTION('',(0.,0.635217439082022,0.772333351012423));
#295=DIRECTION('',(-1.,0.,0.));
#296=DIRECTION('',(1.,0.,0.));
#297=DIRECTION('',(0.,1.,0.));
#298=DIRECTION('',(0.,-1.,0.));
#299=DIRECTION('',(0.,0.,1.));
#300=DIRECTION('',(0.,1.,0.));
#301=DIRECTION('',(0.,0.,-1.));
#302=DIRECTION('',(1.,0.,0.));
#303=DIRECTION('',(0.,1.,0.));
#304=DIRECTION('',(0.,1.,0.));
#305=DIRECTION('',(0.,0.,-1.));
#306=DIRECTION('',(0.,1.,0.));
#307=DIRECTION('',(0.,0.,1.));
#308=DIRECTION('',(0.,1.,0.));
#309=DIRECTION('',(0.,0.,1.));
#310=DIRECTION('',(0.,-1.,0.));
#311=DIRECTION('',(0.,0.,-1.));
#312=DIRECTION('',(0.,-1.,0.));
#313=DIRECTION('',(0.,0.,-1.));
#314=DIRECTION('',(0.,-1.,0.));
#315=DIRECTION('',(1.,0.,0.));
#316=DIRECTION('',(0.,-1.,0.));
#317=DIRECTION('',(1.,0.,0.));
#318=DIRECTION('',(-1.,0.,0.));
#319=DIRECTION('',(0.,0.,1.));
#320=DIRECTION('',(-1.,0.,0.));
#321=DIRECTION('',(0.,0.,1.));
#322=DIRECTION('',(-0.714366440625506,0.,-0.699771811741547));
#323=DIRECTION('',(0.,-1.,0.));
#324=DIRECTION('',(0.,0.,-1.));
#325=DIRECTION('',(0.714366440625506,0.,-0.699771811741547));
#326=DIRECTION('',(0.,0.,-1.));
#327=DIRECTION('',(-1.,0.,0.));
#328=DIRECTION('',(0.,1.,0.));
#329=DIRECTION('',(0.,1.,0.));
#330=DIRECTION('',(-1.,0.,0.));
#331=DIRECTION('',(0.,0.,1.));
#332=DIRECTION('',(0.,1.,0.));
#333=DIRECTION('',(0.,0.,-1.));
#334=DIRECTION('',(-1.,0.,0.));
#335=DIRECTION('',(0.,1.,0.));
#336=DIRECTION('',(0.699771811741547,0.,0.714366440625506));
#337=DIRECTION('',(0.714366440625506,0.,-0.699771811741547));
#338=DIRECTION('',(0.,1.,0.));
#339=DIRECTION('',(0.,1.,0.));
#340=DIRECTION('',(0.,0.,1.));
#341=DIRECTION('',(0.,1.,0.));
#342=DIRECTION('',(0.699771811741547,0.,-0.714366440625506));
#343=DIRECTION('',(-0.714366440625506,0.,-0.699771811741547));
#344=DIRECTION('',(-1.,0.,0.));
#345=DIRECTION('',(0.,0.,1.));
#346=CARTESIAN_POINT('',(0.,0.,0.));
#347=CARTESIAN_POINT('',(-0.025,-0.015,-0.0140572901002892));
#348=CARTESIAN_POINT('',(0.0271835459553507,-0.0230397578284364,-0.0238324831647901));
#349=CARTESIAN_POINT('',(0.00603354484150918,-0.006,-0.00311458020057834));
#350=CARTESIAN_POINT('',(0.025,-0.0212805572456011,-0.0216935474277491));
#351=CARTESIAN_POINT('',(-8.67361737988404E-19,0.0105435457454637,0.017));
#352=CARTESIAN_POINT('',(-0.00603354484150918,-0.006,-0.00311458020057833));
#353=CARTESIAN_POINT('',(-0.0271835459553507,-0.0230397578284364,-0.0238324831647901));
#354=CARTESIAN_POINT('',(-0.025,-0.0212805572456011,-0.0216935474277491));
#355=CARTESIAN_POINT('',(-0.025,-0.015,-0.0140572901002892));
#356=CARTESIAN_POINT('',(-0.025,-0.024,-0.025));
#357=CARTESIAN_POINT('',(-0.025,-0.024,-0.025));
#358=CARTESIAN_POINT('',(0.025,-0.024,-0.025));
#359=CARTESIAN_POINT('',(0.025,-0.015,-0.0140572901002892));
#360=CARTESIAN_POINT('',(0.006,-0.020075203093218,-0.0202280095593114));
#361=CARTESIAN_POINT('',(0.006,-0.021532603875324,-0.022));
#362=CARTESIAN_POINT('',(0.006,-0.0133079501264041,-0.012));
#363=CARTESIAN_POINT('',(-6.50521303491303E-19,-0.021532603875324,-0.022));
#364=CARTESIAN_POINT('',(-0.006,-0.021532603875324,-0.022));
#365=CARTESIAN_POINT('',(-0.006,-0.020075203093218,-0.0202280095593114));
#366=CARTESIAN_POINT('',(-0.006,-0.0133079501264041,-0.012));
#367=CARTESIAN_POINT('',(-0.00475,-0.0133079501264041,-0.012));
#368=CARTESIAN_POINT('',(-0.025,-0.012,-0.0215572901002892));
#369=CARTESIAN_POINT('',(-0.025,-0.024,-0.0216935474277491));
#370=CARTESIAN_POINT('',(-0.025,-0.004,-0.0216935474277491));
#371=CARTESIAN_POINT('',(-0.025,-0.004,0.));
#372=CARTESIAN_POINT('',(-0.025,-0.004,-0.0287508260750887));
#373=CARTESIAN_POINT('',(-0.025,-0.024,-0.0287508260750887));
#374=CARTESIAN_POINT('',(-0.025,-0.024,-0.0287508260750887));
#375=CARTESIAN_POINT('',(-0.025,-0.024,-0.0325));
#376=CARTESIAN_POINT('',(0.025,-0.012,-0.0215572901002892));
#377=CARTESIAN_POINT('',(0.025,-0.024,-0.0216935474277491));
#378=CARTESIAN_POINT('',(0.025,-0.004,-0.0216935474277491));
#379=CARTESIAN_POINT('',(0.025,-0.024,-0.0325));
#380=CARTESIAN_POINT('',(0.025,-0.024,-0.0287508260750887));
#381=CARTESIAN_POINT('',(0.025,-0.024,-0.0287508260750887));
#382=CARTESIAN_POINT('',(0.025,-0.004,-0.0287508260750887));
#383=CARTESIAN_POINT('',(0.025,-0.004,0.));
#384=CARTESIAN_POINT('',(0.,-0.024,6.93889390390723E-18));
#385=CARTESIAN_POINT('',(0.,-0.024,6.93889390390723E-18));
#386=CARTESIAN_POINT('',(0.,-0.004,6.93889390390723E-18));
#387=CARTESIAN_POINT('',(0.,-0.024,0.));
#388=CARTESIAN_POINT('',(0.,-0.004,0.));
#389=CARTESIAN_POINT('',(-6.50521303491303E-19,-0.004,-0.022));
#390=CARTESIAN_POINT('',(0.006,-0.004,-0.022));
#391=CARTESIAN_POINT('',(-0.006,-0.004,-0.022));
#392=CARTESIAN_POINT('',(0.006,-0.004,-0.017));
#393=CARTESIAN_POINT('',(0.006,-0.004,-0.012));
#394=CARTESIAN_POINT('',(-0.00475,-0.004,-0.012));
#395=CARTESIAN_POINT('',(-0.006,-0.004,-0.012));
#396=CARTESIAN_POINT('',(-0.006,-0.004,-0.017));
#397=CARTESIAN_POINT('',(-0.0267887470978725,-0.004,-0.0234457501156717));
#398=CARTESIAN_POINT('',(-0.00603354484150918,-0.004,-0.00311458020057834));
#399=CARTESIAN_POINT('',(-8.67361737988404E-19,-0.004,0.017));
#400=CARTESIAN_POINT('',(0.00603354484150918,-0.004,-0.00311458020057834));
#401=CARTESIAN_POINT('',(0.0267887470978725,-0.004,-0.0234457501156717));
#402=CARTESIAN_POINT('',(-6.50521303491303E-19,-0.024,-0.022));
#403=CARTESIAN_POINT('',(0.006,-0.024,-0.022));
#404=CARTESIAN_POINT('',(-0.006,-0.024,-0.022));
#405=CARTESIAN_POINT('',(-0.006,-0.024,-0.017));
#406=CARTESIAN_POINT('',(-0.006,-0.024,-0.012));
#407=CARTESIAN_POINT('',(-0.00475,-0.024,-0.012));
#408=CARTESIAN_POINT('',(0.006,-0.024,-0.012));
#409=CARTESIAN_POINT('',(0.0267887470978725,-0.024,-0.0234457501156717));
#410=CARTESIAN_POINT('',(0.00603354484150918,-0.024,-0.00311458020057834));
#411=CARTESIAN_POINT('',(-8.67361737988404E-19,-0.024,0.017));
#412=CARTESIAN_POINT('',(-0.00603354484150918,-0.024,-0.00311458020057834));
#413=CARTESIAN_POINT('',(-0.0267887470978725,-0.024,-0.0234457501156717));
#414=CARTESIAN_POINT('',(0.006,-0.024,-0.017));
#415=MECHANICAL_DESIGN_GEOMETRIC_PRESENTATION_REPRESENTATION('',(#252),
#416);
#416=(
GEOMETRIC_REPRESENTATION_CONTEXT(3)
GLOBAL_UNCERTAINTY_ASSIGNED_CONTEXT((#417))
GLOBAL_UNIT_ASSIGNED_CONTEXT((#420,#419,#418))
REPRESENTATION_CONTEXT('Motor Mount2','TOP_LEVEL_ASSEMBLY_PART')
);
#417=UNCERTAINTY_MEASURE_WITH_UNIT(LENGTH_MEASURE(1.E-8),#420,
'DISTANCE_ACCURACY_VALUE','Maximum Tolerance applied to model');
#418=(
NAMED_UNIT(*)
SI_UNIT($,.STERADIAN.)
SOLID_ANGLE_UNIT()
);
#419=(
NAMED_UNIT(*)
PLANE_ANGLE_UNIT()
SI_UNIT($,.RADIAN.)
);
#420=(
LENGTH_UNIT()
NAMED_UNIT(*)
SI_UNIT($,.METRE.)
);
#421=PRODUCT_DEFINITION_SHAPE('','',#422);
#422=PRODUCT_DEFINITION('','',#424,#423);
#423=PRODUCT_DEFINITION_CONTEXT('',#430,'design');
#424=PRODUCT_DEFINITION_FORMATION_WITH_SPECIFIED_SOURCE('','',#426,
 .NOT_KNOWN.);
#425=PRODUCT_RELATED_PRODUCT_CATEGORY('','',(#426));
#426=PRODUCT('Motor Mount2','Motor Mount2','Motor Mount2',(#428));
#427=PRODUCT_CATEGORY('','');
#428=PRODUCT_CONTEXT('',#430,'mechanical');
#429=APPLICATION_PROTOCOL_DEFINITION('international standard',
'ap242_managed_model_based_3d_engineering',2020,#430);
#430=APPLICATION_CONTEXT('managed model based 3d engineering');
ENDSEC;
END-ISO-10303-21;
