ISO-10303-21;
HEADER;
/* Generated by software containing ST-Developer
 * from STEP Tools, Inc. (www.steptools.com) 
 */
/* OPTION: using custom renumber hook */

FILE_DESCRIPTION(
/* description */ ('STEP AP242 Edition 2',
'CAx-IF Rec.Pracs.---Representation and Presentation of Product Manufa
cturing Information (PMI)---4.0---2014-10-13',
'CAx-IF Rec.Pracs.---3D Tessellated Geometry---0.4---2014-09-14','2;1',
'CAx-IF Rec.Pracs.---User Defined Attributes---1.5---2016-08-15'),
/* implementation_level */ '2;1');

FILE_NAME(
/* name */ 'Mounts - Ballast Mounting Ring',
/* time_stamp */ '2026-08-23T20:33:17Z',
/* author */ (''),
/* organization */ (''),
/* preprocessor_version */ 'ST-DEVELOPER v20',
/* originating_system */ 'ONSHAPE BY PTC INC, 1.219',
/* authorisation */ '  ');

FILE_SCHEMA (('AP242_MANAGED_MODEL_BASED_3D_ENGINEERING_MIM_LF { 1 0 10303 442 3 1 4 }'));
ENDSEC;

DATA;
#10=SHAPE_REPRESENTATION_RELATIONSHIP('','',#778,#11);
#11=ADVANCED_BREP_SHAPE_REPRESENTATION('',(#776),#1281);
#12=CYLINDRICAL_SURFACE('',#796,0.0331);
#13=CYLINDRICAL_SURFACE('',#799,0.0331);
#14=CYLINDRICAL_SURFACE('',#803,0.021);
#15=CYLINDRICAL_SURFACE('',#807,0.026);
#16=CYLINDRICAL_SURFACE('',#810,0.026);
#17=CYLINDRICAL_SURFACE('',#813,0.0331);
#18=CYLINDRICAL_SURFACE('',#815,0.0381);
#19=CIRCLE('',#782,0.026);
#20=CIRCLE('',#783,0.0331);
#21=CIRCLE('',#784,0.0331);
#22=CIRCLE('',#785,0.026);
#23=CIRCLE('',#786,0.021);
#24=CIRCLE('',#787,0.0381);
#25=CIRCLE('',#788,0.0381);
#26=CIRCLE('',#789,0.0381);
#27=CIRCLE('',#790,0.0381);
#28=CIRCLE('',#791,0.0381);
#29=CIRCLE('',#792,0.0381);
#30=CIRCLE('',#793,0.021);
#31=CIRCLE('',#794,0.0331);
#32=CIRCLE('',#797,0.0331);
#33=CIRCLE('',#800,0.0331);
#34=CIRCLE('',#804,0.021);
#35=CIRCLE('',#805,0.0210000000000003);
#36=CIRCLE('',#808,0.026);
#37=CIRCLE('',#811,0.026);
#38=CIRCLE('',#814,0.0331);
#39=CIRCLE('',#816,0.0381);
#40=CIRCLE('',#817,0.0381);
#41=CIRCLE('',#818,0.0381);
#42=CIRCLE('',#819,0.0381);
#43=CIRCLE('',#820,0.0381);
#44=CIRCLE('',#821,0.0381);
#45=CIRCLE('',#822,0.0381);
#46=ORIENTED_EDGE('',*,*,#264,.F.);
#47=ORIENTED_EDGE('',*,*,#265,.F.);
#48=ORIENTED_EDGE('',*,*,#266,.T.);
#49=ORIENTED_EDGE('',*,*,#267,.F.);
#50=ORIENTED_EDGE('',*,*,#268,.F.);
#51=ORIENTED_EDGE('',*,*,#269,.T.);
#52=ORIENTED_EDGE('',*,*,#270,.T.);
#53=ORIENTED_EDGE('',*,*,#271,.F.);
#54=ORIENTED_EDGE('',*,*,#272,.T.);
#55=ORIENTED_EDGE('',*,*,#273,.F.);
#56=ORIENTED_EDGE('',*,*,#274,.F.);
#57=ORIENTED_EDGE('',*,*,#275,.T.);
#58=ORIENTED_EDGE('',*,*,#276,.F.);
#59=ORIENTED_EDGE('',*,*,#267,.T.);
#60=ORIENTED_EDGE('',*,*,#277,.T.);
#61=ORIENTED_EDGE('',*,*,#278,.T.);
#62=ORIENTED_EDGE('',*,*,#279,.T.);
#63=ORIENTED_EDGE('',*,*,#280,.T.);
#64=ORIENTED_EDGE('',*,*,#281,.T.);
#65=ORIENTED_EDGE('',*,*,#282,.T.);
#66=ORIENTED_EDGE('',*,*,#283,.T.);
#67=ORIENTED_EDGE('',*,*,#284,.T.);
#68=ORIENTED_EDGE('',*,*,#285,.T.);
#69=ORIENTED_EDGE('',*,*,#286,.T.);
#70=ORIENTED_EDGE('',*,*,#287,.T.);
#71=ORIENTED_EDGE('',*,*,#288,.T.);
#72=ORIENTED_EDGE('',*,*,#289,.T.);
#73=ORIENTED_EDGE('',*,*,#290,.T.);
#74=ORIENTED_EDGE('',*,*,#291,.T.);
#75=ORIENTED_EDGE('',*,*,#292,.T.);
#76=ORIENTED_EDGE('',*,*,#293,.T.);
#77=ORIENTED_EDGE('',*,*,#294,.T.);
#78=ORIENTED_EDGE('',*,*,#295,.T.);
#79=ORIENTED_EDGE('',*,*,#296,.T.);
#80=ORIENTED_EDGE('',*,*,#297,.T.);
#81=ORIENTED_EDGE('',*,*,#298,.T.);
#82=ORIENTED_EDGE('',*,*,#299,.F.);
#83=ORIENTED_EDGE('',*,*,#300,.F.);
#84=ORIENTED_EDGE('',*,*,#301,.F.);
#85=ORIENTED_EDGE('',*,*,#302,.T.);
#86=ORIENTED_EDGE('',*,*,#303,.T.);
#87=ORIENTED_EDGE('',*,*,#304,.F.);
#88=ORIENTED_EDGE('',*,*,#272,.F.);
#89=ORIENTED_EDGE('',*,*,#305,.T.);
#90=ORIENTED_EDGE('',*,*,#306,.F.);
#91=ORIENTED_EDGE('',*,*,#307,.F.);
#92=ORIENTED_EDGE('',*,*,#273,.T.);
#93=ORIENTED_EDGE('',*,*,#304,.T.);
#94=ORIENTED_EDGE('',*,*,#308,.F.);
#95=ORIENTED_EDGE('',*,*,#309,.F.);
#96=ORIENTED_EDGE('',*,*,#274,.T.);
#97=ORIENTED_EDGE('',*,*,#307,.T.);
#98=ORIENTED_EDGE('',*,*,#310,.F.);
#99=ORIENTED_EDGE('',*,*,#311,.F.);
#100=ORIENTED_EDGE('',*,*,#301,.T.);
#101=ORIENTED_EDGE('',*,*,#312,.T.);
#102=ORIENTED_EDGE('',*,*,#313,.T.);
#103=ORIENTED_EDGE('',*,*,#314,.F.);
#104=ORIENTED_EDGE('',*,*,#302,.F.);
#105=ORIENTED_EDGE('',*,*,#311,.T.);
#106=ORIENTED_EDGE('',*,*,#315,.F.);
#107=ORIENTED_EDGE('',*,*,#316,.T.);
#108=ORIENTED_EDGE('',*,*,#298,.F.);
#109=ORIENTED_EDGE('',*,*,#317,.F.);
#110=ORIENTED_EDGE('',*,*,#318,.F.);
#111=ORIENTED_EDGE('',*,*,#319,.F.);
#112=ORIENTED_EDGE('',*,*,#299,.T.);
#113=ORIENTED_EDGE('',*,*,#316,.F.);
#114=ORIENTED_EDGE('',*,*,#320,.F.);
#115=ORIENTED_EDGE('',*,*,#264,.T.);
#116=ORIENTED_EDGE('',*,*,#276,.T.);
#117=ORIENTED_EDGE('',*,*,#314,.T.);
#118=ORIENTED_EDGE('',*,*,#321,.F.);
#119=ORIENTED_EDGE('',*,*,#322,.F.);
#120=ORIENTED_EDGE('',*,*,#268,.T.);
#121=ORIENTED_EDGE('',*,*,#323,.T.);
#122=ORIENTED_EDGE('',*,*,#324,.T.);
#123=ORIENTED_EDGE('',*,*,#325,.F.);
#124=ORIENTED_EDGE('',*,*,#269,.F.);
#125=ORIENTED_EDGE('',*,*,#322,.T.);
#126=ORIENTED_EDGE('',*,*,#326,.T.);
#127=ORIENTED_EDGE('',*,*,#327,.F.);
#128=ORIENTED_EDGE('',*,*,#270,.F.);
#129=ORIENTED_EDGE('',*,*,#325,.T.);
#130=ORIENTED_EDGE('',*,*,#328,.T.);
#131=ORIENTED_EDGE('',*,*,#305,.F.);
#132=ORIENTED_EDGE('',*,*,#275,.F.);
#133=ORIENTED_EDGE('',*,*,#309,.T.);
#134=ORIENTED_EDGE('',*,*,#329,.F.);
#135=ORIENTED_EDGE('',*,*,#312,.F.);
#136=ORIENTED_EDGE('',*,*,#300,.T.);
#137=ORIENTED_EDGE('',*,*,#319,.T.);
#138=ORIENTED_EDGE('',*,*,#330,.F.);
#139=ORIENTED_EDGE('',*,*,#323,.F.);
#140=ORIENTED_EDGE('',*,*,#271,.T.);
#141=ORIENTED_EDGE('',*,*,#327,.T.);
#142=ORIENTED_EDGE('',*,*,#331,.T.);
#143=ORIENTED_EDGE('',*,*,#277,.F.);
#144=ORIENTED_EDGE('',*,*,#266,.F.);
#145=ORIENTED_EDGE('',*,*,#332,.F.);
#146=ORIENTED_EDGE('',*,*,#317,.T.);
#147=ORIENTED_EDGE('',*,*,#297,.F.);
#148=ORIENTED_EDGE('',*,*,#333,.F.);
#149=ORIENTED_EDGE('',*,*,#334,.F.);
#150=ORIENTED_EDGE('',*,*,#335,.T.);
#151=ORIENTED_EDGE('',*,*,#293,.F.);
#152=ORIENTED_EDGE('',*,*,#336,.F.);
#153=ORIENTED_EDGE('',*,*,#337,.F.);
#154=ORIENTED_EDGE('',*,*,#338,.T.);
#155=ORIENTED_EDGE('',*,*,#289,.F.);
#156=ORIENTED_EDGE('',*,*,#339,.F.);
#157=ORIENTED_EDGE('',*,*,#340,.F.);
#158=ORIENTED_EDGE('',*,*,#341,.T.);
#159=ORIENTED_EDGE('',*,*,#285,.F.);
#160=ORIENTED_EDGE('',*,*,#342,.F.);
#161=ORIENTED_EDGE('',*,*,#343,.F.);
#162=ORIENTED_EDGE('',*,*,#344,.T.);
#163=ORIENTED_EDGE('',*,*,#281,.F.);
#164=ORIENTED_EDGE('',*,*,#345,.F.);
#165=ORIENTED_EDGE('',*,*,#346,.F.);
#166=ORIENTED_EDGE('',*,*,#347,.T.);
#167=ORIENTED_EDGE('',*,*,#331,.F.);
#168=ORIENTED_EDGE('',*,*,#318,.T.);
#169=ORIENTED_EDGE('',*,*,#313,.F.);
#170=ORIENTED_EDGE('',*,*,#310,.T.);
#171=ORIENTED_EDGE('',*,*,#329,.T.);
#172=ORIENTED_EDGE('',*,*,#321,.T.);
#173=ORIENTED_EDGE('',*,*,#330,.T.);
#174=ORIENTED_EDGE('',*,*,#326,.F.);
#175=ORIENTED_EDGE('',*,*,#324,.F.);
#176=ORIENTED_EDGE('',*,*,#303,.F.);
#177=ORIENTED_EDGE('',*,*,#328,.F.);
#178=ORIENTED_EDGE('',*,*,#308,.T.);
#179=ORIENTED_EDGE('',*,*,#306,.T.);
#180=ORIENTED_EDGE('',*,*,#280,.F.);
#181=ORIENTED_EDGE('',*,*,#348,.F.);
#182=ORIENTED_EDGE('',*,*,#349,.F.);
#183=ORIENTED_EDGE('',*,*,#345,.T.);
#184=ORIENTED_EDGE('',*,*,#279,.F.);
#185=ORIENTED_EDGE('',*,*,#350,.F.);
#186=ORIENTED_EDGE('',*,*,#351,.F.);
#187=ORIENTED_EDGE('',*,*,#348,.T.);
#188=ORIENTED_EDGE('',*,*,#278,.F.);
#189=ORIENTED_EDGE('',*,*,#347,.F.);
#190=ORIENTED_EDGE('',*,*,#352,.F.);
#191=ORIENTED_EDGE('',*,*,#350,.T.);
#192=ORIENTED_EDGE('',*,*,#346,.T.);
#193=ORIENTED_EDGE('',*,*,#349,.T.);
#194=ORIENTED_EDGE('',*,*,#351,.T.);
#195=ORIENTED_EDGE('',*,*,#352,.T.);
#196=ORIENTED_EDGE('',*,*,#284,.F.);
#197=ORIENTED_EDGE('',*,*,#353,.F.);
#198=ORIENTED_EDGE('',*,*,#354,.F.);
#199=ORIENTED_EDGE('',*,*,#342,.T.);
#200=ORIENTED_EDGE('',*,*,#283,.F.);
#201=ORIENTED_EDGE('',*,*,#355,.F.);
#202=ORIENTED_EDGE('',*,*,#356,.F.);
#203=ORIENTED_EDGE('',*,*,#353,.T.);
#204=ORIENTED_EDGE('',*,*,#282,.F.);
#205=ORIENTED_EDGE('',*,*,#344,.F.);
#206=ORIENTED_EDGE('',*,*,#357,.F.);
#207=ORIENTED_EDGE('',*,*,#355,.T.);
#208=ORIENTED_EDGE('',*,*,#343,.T.);
#209=ORIENTED_EDGE('',*,*,#354,.T.);
#210=ORIENTED_EDGE('',*,*,#356,.T.);
#211=ORIENTED_EDGE('',*,*,#357,.T.);
#212=ORIENTED_EDGE('',*,*,#288,.F.);
#213=ORIENTED_EDGE('',*,*,#358,.F.);
#214=ORIENTED_EDGE('',*,*,#359,.F.);
#215=ORIENTED_EDGE('',*,*,#339,.T.);
#216=ORIENTED_EDGE('',*,*,#287,.F.);
#217=ORIENTED_EDGE('',*,*,#360,.F.);
#218=ORIENTED_EDGE('',*,*,#361,.F.);
#219=ORIENTED_EDGE('',*,*,#358,.T.);
#220=ORIENTED_EDGE('',*,*,#286,.F.);
#221=ORIENTED_EDGE('',*,*,#341,.F.);
#222=ORIENTED_EDGE('',*,*,#362,.F.);
#223=ORIENTED_EDGE('',*,*,#360,.T.);
#224=ORIENTED_EDGE('',*,*,#340,.T.);
#225=ORIENTED_EDGE('',*,*,#359,.T.);
#226=ORIENTED_EDGE('',*,*,#361,.T.);
#227=ORIENTED_EDGE('',*,*,#362,.T.);
#228=ORIENTED_EDGE('',*,*,#292,.F.);
#229=ORIENTED_EDGE('',*,*,#363,.F.);
#230=ORIENTED_EDGE('',*,*,#364,.F.);
#231=ORIENTED_EDGE('',*,*,#336,.T.);
#232=ORIENTED_EDGE('',*,*,#291,.F.);
#233=ORIENTED_EDGE('',*,*,#365,.F.);
#234=ORIENTED_EDGE('',*,*,#366,.F.);
#235=ORIENTED_EDGE('',*,*,#363,.T.);
#236=ORIENTED_EDGE('',*,*,#290,.F.);
#237=ORIENTED_EDGE('',*,*,#338,.F.);
#238=ORIENTED_EDGE('',*,*,#367,.F.);
#239=ORIENTED_EDGE('',*,*,#365,.T.);
#240=ORIENTED_EDGE('',*,*,#337,.T.);
#241=ORIENTED_EDGE('',*,*,#364,.T.);
#242=ORIENTED_EDGE('',*,*,#366,.T.);
#243=ORIENTED_EDGE('',*,*,#367,.T.);
#244=ORIENTED_EDGE('',*,*,#296,.F.);
#245=ORIENTED_EDGE('',*,*,#368,.F.);
#246=ORIENTED_EDGE('',*,*,#369,.F.);
#247=ORIENTED_EDGE('',*,*,#333,.T.);
#248=ORIENTED_EDGE('',*,*,#295,.F.);
#249=ORIENTED_EDGE('',*,*,#370,.F.);
#250=ORIENTED_EDGE('',*,*,#371,.F.);
#251=ORIENTED_EDGE('',*,*,#368,.T.);
#252=ORIENTED_EDGE('',*,*,#294,.F.);
#253=ORIENTED_EDGE('',*,*,#335,.F.);
#254=ORIENTED_EDGE('',*,*,#372,.F.);
#255=ORIENTED_EDGE('',*,*,#370,.T.);
#256=ORIENTED_EDGE('',*,*,#334,.T.);
#257=ORIENTED_EDGE('',*,*,#369,.T.);
#258=ORIENTED_EDGE('',*,*,#371,.T.);
#259=ORIENTED_EDGE('',*,*,#372,.T.);
#260=ORIENTED_EDGE('',*,*,#265,.T.);
#261=ORIENTED_EDGE('',*,*,#320,.T.);
#262=ORIENTED_EDGE('',*,*,#315,.T.);
#263=ORIENTED_EDGE('',*,*,#332,.T.);
#264=EDGE_CURVE('',#373,#374,#446,.T.);
#265=EDGE_CURVE('',#375,#373,#447,.T.);
#266=EDGE_CURVE('',#375,#376,#448,.T.);
#267=EDGE_CURVE('',#374,#376,#449,.T.);
#268=EDGE_CURVE('',#377,#378,#450,.T.);
#269=EDGE_CURVE('',#377,#379,#19,.T.);
#270=EDGE_CURVE('',#379,#380,#451,.T.);
#271=EDGE_CURVE('',#378,#380,#20,.T.);
#272=EDGE_CURVE('',#381,#382,#452,.T.);
#273=EDGE_CURVE('',#383,#382,#21,.T.);
#274=EDGE_CURVE('',#384,#383,#453,.T.);
#275=EDGE_CURVE('',#384,#381,#22,.T.);
#276=EDGE_CURVE('',#374,#385,#23,.T.);
#277=EDGE_CURVE('',#376,#386,#24,.T.);
#278=EDGE_CURVE('',#386,#387,#454,.T.);
#279=EDGE_CURVE('',#387,#388,#455,.T.);
#280=EDGE_CURVE('',#388,#389,#456,.T.);
#281=EDGE_CURVE('',#389,#390,#25,.T.);
#282=EDGE_CURVE('',#390,#391,#457,.T.);
#283=EDGE_CURVE('',#391,#392,#458,.T.);
#284=EDGE_CURVE('',#392,#393,#459,.T.);
#285=EDGE_CURVE('',#393,#394,#26,.T.);
#286=EDGE_CURVE('',#394,#395,#460,.T.);
#287=EDGE_CURVE('',#395,#396,#461,.T.);
#288=EDGE_CURVE('',#396,#397,#462,.T.);
#289=EDGE_CURVE('',#397,#398,#27,.T.);
#290=EDGE_CURVE('',#398,#399,#463,.T.);
#291=EDGE_CURVE('',#399,#400,#464,.T.);
#292=EDGE_CURVE('',#400,#401,#465,.T.);
#293=EDGE_CURVE('',#401,#402,#28,.T.);
#294=EDGE_CURVE('',#402,#403,#466,.T.);
#295=EDGE_CURVE('',#403,#404,#467,.T.);
#296=EDGE_CURVE('',#404,#405,#468,.T.);
#297=EDGE_CURVE('',#405,#406,#29,.T.);
#298=EDGE_CURVE('',#406,#407,#469,.T.);
#299=EDGE_CURVE('',#408,#407,#30,.T.);
#300=EDGE_CURVE('',#409,#408,#470,.T.);
#301=EDGE_CURVE('',#410,#409,#31,.T.);
#302=EDGE_CURVE('',#410,#385,#471,.T.);
#303=EDGE_CURVE('',#411,#412,#472,.T.);
#304=EDGE_CURVE('',#382,#412,#473,.T.);
#305=EDGE_CURVE('',#381,#411,#474,.T.);
#306=EDGE_CURVE('',#413,#412,#32,.T.);
#307=EDGE_CURVE('',#383,#413,#475,.T.);
#308=EDGE_CURVE('',#414,#413,#476,.T.);
#309=EDGE_CURVE('',#384,#414,#477,.T.);
#310=EDGE_CURVE('',#415,#416,#33,.T.);
#311=EDGE_CURVE('',#410,#415,#478,.T.);
#312=EDGE_CURVE('',#409,#416,#479,.T.);
#313=EDGE_CURVE('',#415,#417,#480,.T.);
#314=EDGE_CURVE('',#385,#417,#481,.T.);
#315=EDGE_CURVE('',#418,#419,#482,.T.);
#316=EDGE_CURVE('',#418,#407,#483,.T.);
#317=EDGE_CURVE('',#419,#406,#484,.T.);
#318=EDGE_CURVE('',#420,#417,#34,.T.);
#319=EDGE_CURVE('',#408,#420,#485,.T.);
#320=EDGE_CURVE('',#373,#418,#35,.F.);
#321=EDGE_CURVE('',#421,#422,#486,.T.);
#322=EDGE_CURVE('',#377,#421,#487,.T.);
#323=EDGE_CURVE('',#378,#422,#488,.T.);
#324=EDGE_CURVE('',#421,#423,#36,.T.);
#325=EDGE_CURVE('',#379,#423,#489,.T.);
#326=EDGE_CURVE('',#423,#424,#490,.T.);
#327=EDGE_CURVE('',#380,#424,#491,.T.);
#328=EDGE_CURVE('',#414,#411,#37,.T.);
#329=EDGE_CURVE('',#416,#420,#492,.T.);
#330=EDGE_CURVE('',#422,#424,#38,.T.);
#331=EDGE_CURVE('',#425,#425,#39,.T.);
#332=EDGE_CURVE('',#419,#375,#40,.T.);
#333=EDGE_CURVE('',#426,#405,#493,.T.);
#334=EDGE_CURVE('',#427,#426,#41,.T.);
#335=EDGE_CURVE('',#427,#402,#494,.T.);
#336=EDGE_CURVE('',#428,#401,#495,.T.);
#337=EDGE_CURVE('',#429,#428,#42,.T.);
#338=EDGE_CURVE('',#429,#398,#496,.T.);
#339=EDGE_CURVE('',#430,#397,#497,.T.);
#340=EDGE_CURVE('',#431,#430,#43,.T.);
#341=EDGE_CURVE('',#431,#394,#498,.T.);
#342=EDGE_CURVE('',#432,#393,#499,.T.);
#343=EDGE_CURVE('',#433,#432,#44,.T.);
#344=EDGE_CURVE('',#433,#390,#500,.T.);
#345=EDGE_CURVE('',#434,#389,#501,.T.);
#346=EDGE_CURVE('',#435,#434,#45,.T.);
#347=EDGE_CURVE('',#435,#386,#502,.T.);
#348=EDGE_CURVE('',#436,#388,#503,.T.);
#349=EDGE_CURVE('',#434,#436,#504,.T.);
#350=EDGE_CURVE('',#437,#387,#505,.T.);
#351=EDGE_CURVE('',#436,#437,#506,.T.);
#352=EDGE_CURVE('',#437,#435,#507,.T.);
#353=EDGE_CURVE('',#438,#392,#508,.T.);
#354=EDGE_CURVE('',#432,#438,#509,.T.);
#355=EDGE_CURVE('',#439,#391,#510,.T.);
#356=EDGE_CURVE('',#438,#439,#511,.T.);
#357=EDGE_CURVE('',#439,#433,#512,.T.);
#358=EDGE_CURVE('',#440,#396,#513,.T.);
#359=EDGE_CURVE('',#430,#440,#514,.T.);
#360=EDGE_CURVE('',#441,#395,#515,.T.);
#361=EDGE_CURVE('',#440,#441,#516,.T.);
#362=EDGE_CURVE('',#441,#431,#517,.T.);
#363=EDGE_CURVE('',#442,#400,#518,.T.);
#364=EDGE_CURVE('',#428,#442,#519,.T.);
#365=EDGE_CURVE('',#443,#399,#520,.T.);
#366=EDGE_CURVE('',#442,#443,#521,.T.);
#367=EDGE_CURVE('',#443,#429,#522,.T.);
#368=EDGE_CURVE('',#444,#404,#523,.T.);
#369=EDGE_CURVE('',#426,#444,#524,.T.);
#370=EDGE_CURVE('',#445,#403,#525,.T.);
#371=EDGE_CURVE('',#444,#445,#526,.T.);
#372=EDGE_CURVE('',#445,#427,#527,.T.);
#373=VERTEX_POINT('',#1062);
#374=VERTEX_POINT('',#1063);
#375=VERTEX_POINT('',#1065);
#376=VERTEX_POINT('',#1067);
#377=VERTEX_POINT('',#1071);
#378=VERTEX_POINT('',#1072);
#379=VERTEX_POINT('',#1074);
#380=VERTEX_POINT('',#1076);
#381=VERTEX_POINT('',#1079);
#382=VERTEX_POINT('',#1080);
#383=VERTEX_POINT('',#1082);
#384=VERTEX_POINT('',#1084);
#385=VERTEX_POINT('',#1087);
#386=VERTEX_POINT('',#1089);
#387=VERTEX_POINT('',#1091);
#388=VERTEX_POINT('',#1093);
#389=VERTEX_POINT('',#1095);
#390=VERTEX_POINT('',#1097);
#391=VERTEX_POINT('',#1099);
#392=VERTEX_POINT('',#1101);
#393=VERTEX_POINT('',#1103);
#394=VERTEX_POINT('',#1105);
#395=VERTEX_POINT('',#1107);
#396=VERTEX_POINT('',#1109);
#397=VERTEX_POINT('',#1111);
#398=VERTEX_POINT('',#1113);
#399=VERTEX_POINT('',#1115);
#400=VERTEX_POINT('',#1117);
#401=VERTEX_POINT('',#1119);
#402=VERTEX_POINT('',#1121);
#403=VERTEX_POINT('',#1123);
#404=VERTEX_POINT('',#1125);
#405=VERTEX_POINT('',#1127);
#406=VERTEX_POINT('',#1129);
#407=VERTEX_POINT('',#1131);
#408=VERTEX_POINT('',#1133);
#409=VERTEX_POINT('',#1135);
#410=VERTEX_POINT('',#1137);
#411=VERTEX_POINT('',#1141);
#412=VERTEX_POINT('',#1142);
#413=VERTEX_POINT('',#1147);
#414=VERTEX_POINT('',#1151);
#415=VERTEX_POINT('',#1155);
#416=VERTEX_POINT('',#1156);
#417=VERTEX_POINT('',#1161);
#418=VERTEX_POINT('',#1165);
#419=VERTEX_POINT('',#1166);
#420=VERTEX_POINT('',#1171);
#421=VERTEX_POINT('',#1176);
#422=VERTEX_POINT('',#1177);
#423=VERTEX_POINT('',#1182);
#424=VERTEX_POINT('',#1186);
#425=VERTEX_POINT('',#1196);
#426=VERTEX_POINT('',#1199);
#427=VERTEX_POINT('',#1201);
#428=VERTEX_POINT('',#1204);
#429=VERTEX_POINT('',#1206);
#430=VERTEX_POINT('',#1209);
#431=VERTEX_POINT('',#1211);
#432=VERTEX_POINT('',#1214);
#433=VERTEX_POINT('',#1216);
#434=VERTEX_POINT('',#1219);
#435=VERTEX_POINT('',#1221);
#436=VERTEX_POINT('',#1226);
#437=VERTEX_POINT('',#1230);
#438=VERTEX_POINT('',#1237);
#439=VERTEX_POINT('',#1241);
#440=VERTEX_POINT('',#1248);
#441=VERTEX_POINT('',#1252);
#442=VERTEX_POINT('',#1259);
#443=VERTEX_POINT('',#1263);
#444=VERTEX_POINT('',#1270);
#445=VERTEX_POINT('',#1274);
#446=LINE('',#1061,#528);
#447=LINE('',#1064,#529);
#448=LINE('',#1066,#530);
#449=LINE('',#1068,#531);
#450=LINE('',#1070,#532);
#451=LINE('',#1075,#533);
#452=LINE('',#1078,#534);
#453=LINE('',#1083,#535);
#454=LINE('',#1090,#536);
#455=LINE('',#1092,#537);
#456=LINE('',#1094,#538);
#457=LINE('',#1098,#539);
#458=LINE('',#1100,#540);
#459=LINE('',#1102,#541);
#460=LINE('',#1106,#542);
#461=LINE('',#1108,#543);
#462=LINE('',#1110,#544);
#463=LINE('',#1114,#545);
#464=LINE('',#1116,#546);
#465=LINE('',#1118,#547);
#466=LINE('',#1122,#548);
#467=LINE('',#1124,#549);
#468=LINE('',#1126,#550);
#469=LINE('',#1130,#551);
#470=LINE('',#1134,#552);
#471=LINE('',#1138,#553);
#472=LINE('',#1140,#554);
#473=LINE('',#1143,#555);
#474=LINE('',#1144,#556);
#475=LINE('',#1148,#557);
#476=LINE('',#1150,#558);
#477=LINE('',#1152,#559);
#478=LINE('',#1157,#560);
#479=LINE('',#1158,#561);
#480=LINE('',#1160,#562);
#481=LINE('',#1162,#563);
#482=LINE('',#1164,#564);
#483=LINE('',#1167,#565);
#484=LINE('',#1168,#566);
#485=LINE('',#1172,#567);
#486=LINE('',#1175,#568);
#487=LINE('',#1178,#569);
#488=LINE('',#1179,#570);
#489=LINE('',#1183,#571);
#490=LINE('',#1185,#572);
#491=LINE('',#1187,#573);
#492=LINE('',#1191,#574);
#493=LINE('',#1198,#575);
#494=LINE('',#1202,#576);
#495=LINE('',#1203,#577);
#496=LINE('',#1207,#578);
#497=LINE('',#1208,#579);
#498=LINE('',#1212,#580);
#499=LINE('',#1213,#581);
#500=LINE('',#1217,#582);
#501=LINE('',#1218,#583);
#502=LINE('',#1222,#584);
#503=LINE('',#1225,#585);
#504=LINE('',#1227,#586);
#505=LINE('',#1229,#587);
#506=LINE('',#1231,#588);
#507=LINE('',#1233,#589);
#508=LINE('',#1236,#590);
#509=LINE('',#1238,#591);
#510=LINE('',#1240,#592);
#511=LINE('',#1242,#593);
#512=LINE('',#1244,#594);
#513=LINE('',#1247,#595);
#514=LINE('',#1249,#596);
#515=LINE('',#1251,#597);
#516=LINE('',#1253,#598);
#517=LINE('',#1255,#599);
#518=LINE('',#1258,#600);
#519=LINE('',#1260,#601);
#520=LINE('',#1262,#602);
#521=LINE('',#1264,#603);
#522=LINE('',#1266,#604);
#523=LINE('',#1269,#605);
#524=LINE('',#1271,#606);
#525=LINE('',#1273,#607);
#526=LINE('',#1275,#608);
#527=LINE('',#1277,#609);
#528=VECTOR('',#849,1.);
#529=VECTOR('',#850,1.);
#530=VECTOR('',#851,1.);
#531=VECTOR('',#852,1.);
#532=VECTOR('',#855,1.);
#533=VECTOR('',#858,1.);
#534=VECTOR('',#861,1.);
#535=VECTOR('',#864,1.);
#536=VECTOR('',#871,1.);
#537=VECTOR('',#872,1.);
#538=VECTOR('',#873,1.);
#539=VECTOR('',#876,1.);
#540=VECTOR('',#877,1.);
#541=VECTOR('',#878,1.);
#542=VECTOR('',#881,1.);
#543=VECTOR('',#882,1.);
#544=VECTOR('',#883,1.);
#545=VECTOR('',#886,1.);
#546=VECTOR('',#887,1.);
#547=VECTOR('',#888,1.);
#548=VECTOR('',#891,1.);
#549=VECTOR('',#892,1.);
#550=VECTOR('',#893,1.);
#551=VECTOR('',#896,1.);
#552=VECTOR('',#899,1.);
#553=VECTOR('',#902,1.);
#554=VECTOR('',#905,1.);
#555=VECTOR('',#906,1.);
#556=VECTOR('',#907,1.);
#557=VECTOR('',#912,1.);
#558=VECTOR('',#915,1.);
#559=VECTOR('',#916,1.);
#560=VECTOR('',#921,1.);
#561=VECTOR('',#922,1.);
#562=VECTOR('',#925,1.);
#563=VECTOR('',#926,1.);
#564=VECTOR('',#929,1.);
#565=VECTOR('',#930,1.);
#566=VECTOR('',#931,1.);
#567=VECTOR('',#936,1.);
#568=VECTOR('',#941,1.);
#569=VECTOR('',#942,1.);
#570=VECTOR('',#943,1.);
#571=VECTOR('',#948,1.);
#572=VECTOR('',#951,1.);
#573=VECTOR('',#952,1.);
#574=VECTOR('',#959,1.);
#575=VECTOR('',#970,1.);
#576=VECTOR('',#973,1.);
#577=VECTOR('',#974,1.);
#578=VECTOR('',#977,1.);
#579=VECTOR('',#978,1.);
#580=VECTOR('',#981,1.);
#581=VECTOR('',#982,1.);
#582=VECTOR('',#985,1.);
#583=VECTOR('',#986,1.);
#584=VECTOR('',#989,1.);
#585=VECTOR('',#994,1.);
#586=VECTOR('',#995,1.);
#587=VECTOR('',#998,1.);
#588=VECTOR('',#999,1.);
#589=VECTOR('',#1002,1.);
#590=VECTOR('',#1007,1.);
#591=VECTOR('',#1008,1.);
#592=VECTOR('',#1011,1.);
#593=VECTOR('',#1012,1.);
#594=VECTOR('',#1015,1.);
#595=VECTOR('',#1020,1.);
#596=VECTOR('',#1021,1.);
#597=VECTOR('',#1024,1.);
#598=VECTOR('',#1025,1.);
#599=VECTOR('',#1028,1.);
#600=VECTOR('',#1033,1.);
#601=VECTOR('',#1034,1.);
#602=VECTOR('',#1037,1.);
#603=VECTOR('',#1038,1.);
#604=VECTOR('',#1041,1.);
#605=VECTOR('',#1046,1.);
#606=VECTOR('',#1047,1.);
#607=VECTOR('',#1050,1.);
#608=VECTOR('',#1051,1.);
#609=VECTOR('',#1054,1.);
#610=EDGE_LOOP('',(#46,#47,#48,#49));
#611=EDGE_LOOP('',(#50,#51,#52,#53));
#612=EDGE_LOOP('',(#54,#55,#56,#57));
#613=EDGE_LOOP('',(#58,#59,#60,#61,#62,#63,#64,#65,#66,#67,#68,#69,#70,
#71,#72,#73,#74,#75,#76,#77,#78,#79,#80,#81,#82,#83,#84,#85));
#614=EDGE_LOOP('',(#86,#87,#88,#89));
#615=EDGE_LOOP('',(#90,#91,#92,#93));
#616=EDGE_LOOP('',(#94,#95,#96,#97));
#617=EDGE_LOOP('',(#98,#99,#100,#101));
#618=EDGE_LOOP('',(#102,#103,#104,#105));
#619=EDGE_LOOP('',(#106,#107,#108,#109));
#620=EDGE_LOOP('',(#110,#111,#112,#113,#114,#115,#116,#117));
#621=EDGE_LOOP('',(#118,#119,#120,#121));
#622=EDGE_LOOP('',(#122,#123,#124,#125));
#623=EDGE_LOOP('',(#126,#127,#128,#129));
#624=EDGE_LOOP('',(#130,#131,#132,#133));
#625=EDGE_LOOP('',(#134,#135,#136,#137));
#626=EDGE_LOOP('',(#138,#139,#140,#141));
#627=EDGE_LOOP('',(#142));
#628=EDGE_LOOP('',(#143,#144,#145,#146,#147,#148,#149,#150,#151,#152,#153,
#154,#155,#156,#157,#158,#159,#160,#161,#162,#163,#164,#165,#166));
#629=EDGE_LOOP('',(#167));
#630=EDGE_LOOP('',(#168,#169,#170,#171));
#631=EDGE_LOOP('',(#172,#173,#174,#175));
#632=EDGE_LOOP('',(#176,#177,#178,#179));
#633=EDGE_LOOP('',(#180,#181,#182,#183));
#634=EDGE_LOOP('',(#184,#185,#186,#187));
#635=EDGE_LOOP('',(#188,#189,#190,#191));
#636=EDGE_LOOP('',(#192,#193,#194,#195));
#637=EDGE_LOOP('',(#196,#197,#198,#199));
#638=EDGE_LOOP('',(#200,#201,#202,#203));
#639=EDGE_LOOP('',(#204,#205,#206,#207));
#640=EDGE_LOOP('',(#208,#209,#210,#211));
#641=EDGE_LOOP('',(#212,#213,#214,#215));
#642=EDGE_LOOP('',(#216,#217,#218,#219));
#643=EDGE_LOOP('',(#220,#221,#222,#223));
#644=EDGE_LOOP('',(#224,#225,#226,#227));
#645=EDGE_LOOP('',(#228,#229,#230,#231));
#646=EDGE_LOOP('',(#232,#233,#234,#235));
#647=EDGE_LOOP('',(#236,#237,#238,#239));
#648=EDGE_LOOP('',(#240,#241,#242,#243));
#649=EDGE_LOOP('',(#244,#245,#246,#247));
#650=EDGE_LOOP('',(#248,#249,#250,#251));
#651=EDGE_LOOP('',(#252,#253,#254,#255));
#652=EDGE_LOOP('',(#256,#257,#258,#259));
#653=EDGE_LOOP('',(#260,#261,#262,#263));
#654=FACE_BOUND('',#610,.T.);
#655=FACE_BOUND('',#611,.T.);
#656=FACE_BOUND('',#612,.T.);
#657=FACE_BOUND('',#613,.T.);
#658=FACE_BOUND('',#614,.T.);
#659=FACE_BOUND('',#615,.T.);
#660=FACE_BOUND('',#616,.T.);
#661=FACE_BOUND('',#617,.T.);
#662=FACE_BOUND('',#618,.T.);
#663=FACE_BOUND('',#619,.T.);
#664=FACE_BOUND('',#620,.T.);
#665=FACE_BOUND('',#621,.T.);
#666=FACE_BOUND('',#622,.T.);
#667=FACE_BOUND('',#623,.T.);
#668=FACE_BOUND('',#624,.T.);
#669=FACE_BOUND('',#625,.T.);
#670=FACE_BOUND('',#626,.T.);
#671=FACE_BOUND('',#627,.T.);
#672=FACE_BOUND('',#628,.T.);
#673=FACE_BOUND('',#629,.T.);
#674=FACE_BOUND('',#630,.T.);
#675=FACE_BOUND('',#631,.T.);
#676=FACE_BOUND('',#632,.T.);
#677=FACE_BOUND('',#633,.T.);
#678=FACE_BOUND('',#634,.T.);
#679=FACE_BOUND('',#635,.T.);
#680=FACE_BOUND('',#636,.T.);
#681=FACE_BOUND('',#637,.T.);
#682=FACE_BOUND('',#638,.T.);
#683=FACE_BOUND('',#639,.T.);
#684=FACE_BOUND('',#640,.T.);
#685=FACE_BOUND('',#641,.T.);
#686=FACE_BOUND('',#642,.T.);
#687=FACE_BOUND('',#643,.T.);
#688=FACE_BOUND('',#644,.T.);
#689=FACE_BOUND('',#645,.T.);
#690=FACE_BOUND('',#646,.T.);
#691=FACE_BOUND('',#647,.T.);
#692=FACE_BOUND('',#648,.T.);
#693=FACE_BOUND('',#649,.T.);
#694=FACE_BOUND('',#650,.T.);
#695=FACE_BOUND('',#651,.T.);
#696=FACE_BOUND('',#652,.T.);
#697=FACE_BOUND('',#653,.T.);
#698=PLANE('',#780);
#699=PLANE('',#781);
#700=PLANE('',#795);
#701=PLANE('',#798);
#702=PLANE('',#801);
#703=PLANE('',#802);
#704=PLANE('',#806);
#705=PLANE('',#809);
#706=PLANE('',#812);
#707=PLANE('',#823);
#708=PLANE('',#824);
#709=PLANE('',#825);
#710=PLANE('',#826);
#711=PLANE('',#827);
#712=PLANE('',#828);
#713=PLANE('',#829);
#714=PLANE('',#830);
#715=PLANE('',#831);
#716=PLANE('',#832);
#717=PLANE('',#833);
#718=PLANE('',#834);
#719=PLANE('',#835);
#720=PLANE('',#836);
#721=PLANE('',#837);
#722=PLANE('',#838);
#723=PLANE('',#839);
#724=PLANE('',#840);
#725=PLANE('',#841);
#726=PLANE('',#842);
#727=PLANE('',#843);
#728=PLANE('',#844);
#729=ADVANCED_FACE('',(#654),#698,.F.);
#730=ADVANCED_FACE('',(#655,#656,#657),#699,.T.);
#731=ADVANCED_FACE('',(#658),#700,.F.);
#732=ADVANCED_FACE('',(#659),#12,.F.);
#733=ADVANCED_FACE('',(#660),#701,.T.);
#734=ADVANCED_FACE('',(#661),#13,.F.);
#735=ADVANCED_FACE('',(#662),#702,.F.);
#736=ADVANCED_FACE('',(#663),#703,.F.);
#737=ADVANCED_FACE('',(#664),#14,.F.);
#738=ADVANCED_FACE('',(#665),#704,.T.);
#739=ADVANCED_FACE('',(#666),#15,.T.);
#740=ADVANCED_FACE('',(#667),#705,.F.);
#741=ADVANCED_FACE('',(#668),#16,.T.);
#742=ADVANCED_FACE('',(#669),#706,.T.);
#743=ADVANCED_FACE('',(#670),#17,.F.);
#744=ADVANCED_FACE('',(#671,#672),#18,.T.);
#745=ADVANCED_FACE('',(#673,#674,#675,#676),#707,.F.);
#746=ADVANCED_FACE('',(#677),#708,.F.);
#747=ADVANCED_FACE('',(#678),#709,.F.);
#748=ADVANCED_FACE('',(#679),#710,.F.);
#749=ADVANCED_FACE('',(#680),#711,.T.);
#750=ADVANCED_FACE('',(#681),#712,.F.);
#751=ADVANCED_FACE('',(#682),#713,.F.);
#752=ADVANCED_FACE('',(#683),#714,.F.);
#753=ADVANCED_FACE('',(#684),#715,.T.);
#754=ADVANCED_FACE('',(#685),#716,.F.);
#755=ADVANCED_FACE('',(#686),#717,.F.);
#756=ADVANCED_FACE('',(#687),#718,.F.);
#757=ADVANCED_FACE('',(#688),#719,.T.);
#758=ADVANCED_FACE('',(#689),#720,.F.);
#759=ADVANCED_FACE('',(#690),#721,.F.);
#760=ADVANCED_FACE('',(#691),#722,.F.);
#761=ADVANCED_FACE('',(#692),#723,.T.);
#762=ADVANCED_FACE('',(#693),#724,.F.);
#763=ADVANCED_FACE('',(#694),#725,.F.);
#764=ADVANCED_FACE('',(#695),#726,.F.);
#765=ADVANCED_FACE('',(#696),#727,.T.);
#766=ADVANCED_FACE('',(#697),#728,.T.);
#767=CLOSED_SHELL('',(#729,#730,#731,#732,#733,#734,#735,#736,#737,#738,
#739,#740,#741,#742,#743,#744,#745,#746,#747,#748,#749,#750,#751,#752,#753,
#754,#755,#756,#757,#758,#759,#760,#761,#762,#763,#764,#765,#766));
#768=STYLED_ITEM('',(#769),#776);
#769=PRESENTATION_STYLE_ASSIGNMENT((#770));
#770=SURFACE_STYLE_USAGE(.BOTH.,#771);
#771=SURFACE_SIDE_STYLE('',(#772));
#772=SURFACE_STYLE_FILL_AREA(#773);
#773=FILL_AREA_STYLE('',(#774));
#774=FILL_AREA_STYLE_COLOUR('',#775);
#775=COLOUR_RGB('',0.615686274509804,0.811764705882353,0.929411764705882);
#776=MANIFOLD_SOLID_BREP('Ballast Mounting Ring',#767);
#777=SHAPE_DEFINITION_REPRESENTATION(#1286,#778);
#778=SHAPE_REPRESENTATION('Ballast Mounting Ring',(#779),#1281);
#779=AXIS2_PLACEMENT_3D('',#1059,#845,#846);
#780=AXIS2_PLACEMENT_3D('',#1060,#847,#848);
#781=AXIS2_PLACEMENT_3D('',#1069,#853,#854);
#782=AXIS2_PLACEMENT_3D('',#1073,#856,#857);
#783=AXIS2_PLACEMENT_3D('',#1077,#859,#860);
#784=AXIS2_PLACEMENT_3D('',#1081,#862,#863);
#785=AXIS2_PLACEMENT_3D('',#1085,#865,#866);
#786=AXIS2_PLACEMENT_3D('',#1086,#867,#868);
#787=AXIS2_PLACEMENT_3D('',#1088,#869,#870);
#788=AXIS2_PLACEMENT_3D('',#1096,#874,#875);
#789=AXIS2_PLACEMENT_3D('',#1104,#879,#880);
#790=AXIS2_PLACEMENT_3D('',#1112,#884,#885);
#791=AXIS2_PLACEMENT_3D('',#1120,#889,#890);
#792=AXIS2_PLACEMENT_3D('',#1128,#894,#895);
#793=AXIS2_PLACEMENT_3D('',#1132,#897,#898);
#794=AXIS2_PLACEMENT_3D('',#1136,#900,#901);
#795=AXIS2_PLACEMENT_3D('',#1139,#903,#904);
#796=AXIS2_PLACEMENT_3D('',#1145,#908,#909);
#797=AXIS2_PLACEMENT_3D('',#1146,#910,#911);
#798=AXIS2_PLACEMENT_3D('',#1149,#913,#914);
#799=AXIS2_PLACEMENT_3D('',#1153,#917,#918);
#800=AXIS2_PLACEMENT_3D('',#1154,#919,#920);
#801=AXIS2_PLACEMENT_3D('',#1159,#923,#924);
#802=AXIS2_PLACEMENT_3D('',#1163,#927,#928);
#803=AXIS2_PLACEMENT_3D('',#1169,#932,#933);
#804=AXIS2_PLACEMENT_3D('',#1170,#934,#935);
#805=AXIS2_PLACEMENT_3D('',#1173,#937,#938);
#806=AXIS2_PLACEMENT_3D('',#1174,#939,#940);
#807=AXIS2_PLACEMENT_3D('',#1180,#944,#945);
#808=AXIS2_PLACEMENT_3D('',#1181,#946,#947);
#809=AXIS2_PLACEMENT_3D('',#1184,#949,#950);
#810=AXIS2_PLACEMENT_3D('',#1188,#953,#954);
#811=AXIS2_PLACEMENT_3D('',#1189,#955,#956);
#812=AXIS2_PLACEMENT_3D('',#1190,#957,#958);
#813=AXIS2_PLACEMENT_3D('',#1192,#960,#961);
#814=AXIS2_PLACEMENT_3D('',#1193,#962,#963);
#815=AXIS2_PLACEMENT_3D('',#1194,#964,#965);
#816=AXIS2_PLACEMENT_3D('',#1195,#966,#967);
#817=AXIS2_PLACEMENT_3D('',#1197,#968,#969);
#818=AXIS2_PLACEMENT_3D('',#1200,#971,#972);
#819=AXIS2_PLACEMENT_3D('',#1205,#975,#976);
#820=AXIS2_PLACEMENT_3D('',#1210,#979,#980);
#821=AXIS2_PLACEMENT_3D('',#1215,#983,#984);
#822=AXIS2_PLACEMENT_3D('',#1220,#987,#988);
#823=AXIS2_PLACEMENT_3D('',#1223,#990,#991);
#824=AXIS2_PLACEMENT_3D('',#1224,#992,#993);
#825=AXIS2_PLACEMENT_3D('',#1228,#996,#997);
#826=AXIS2_PLACEMENT_3D('',#1232,#1000,#1001);
#827=AXIS2_PLACEMENT_3D('',#1234,#1003,#1004);
#828=AXIS2_PLACEMENT_3D('',#1235,#1005,#1006);
#829=AXIS2_PLACEMENT_3D('',#1239,#1009,#1010);
#830=AXIS2_PLACEMENT_3D('',#1243,#1013,#1014);
#831=AXIS2_PLACEMENT_3D('',#1245,#1016,#1017);
#832=AXIS2_PLACEMENT_3D('',#1246,#1018,#1019);
#833=AXIS2_PLACEMENT_3D('',#1250,#1022,#1023);
#834=AXIS2_PLACEMENT_3D('',#1254,#1026,#1027);
#835=AXIS2_PLACEMENT_3D('',#1256,#1029,#1030);
#836=AXIS2_PLACEMENT_3D('',#1257,#1031,#1032);
#837=AXIS2_PLACEMENT_3D('',#1261,#1035,#1036);
#838=AXIS2_PLACEMENT_3D('',#1265,#1039,#1040);
#839=AXIS2_PLACEMENT_3D('',#1267,#1042,#1043);
#840=AXIS2_PLACEMENT_3D('',#1268,#1044,#1045);
#841=AXIS2_PLACEMENT_3D('',#1272,#1048,#1049);
#842=AXIS2_PLACEMENT_3D('',#1276,#1052,#1053);
#843=AXIS2_PLACEMENT_3D('',#1278,#1055,#1056);
#844=AXIS2_PLACEMENT_3D('',#1279,#1057,#1058);
#845=DIRECTION('',(0.,0.,1.));
#846=DIRECTION('',(1.,0.,0.));
#847=DIRECTION('',(1.,0.,3.89635727881384E-16));
#848=DIRECTION('',(3.89635727881384E-16,0.,-1.));
#849=DIRECTION('',(0.,1.,0.));
#850=DIRECTION('',(0.,0.,-1.));
#851=DIRECTION('',(0.,1.,0.));
#852=DIRECTION('',(0.,0.,1.));
#853=DIRECTION('',(0.,-1.,0.));
#854=DIRECTION('',(1.,0.,0.));
#855=DIRECTION('',(0.714366440625506,0.,-0.699771811741546));
#856=DIRECTION('',(0.,-1.,0.));
#857=DIRECTION('',(0.,0.,-1.));
#858=DIRECTION('',(0.968245836551854,0.,0.25));
#859=DIRECTION('',(0.,-1.,0.));
#860=DIRECTION('',(0.,0.,-1.));
#861=DIRECTION('',(-0.714366440625505,0.,-0.699771811741547));
#862=DIRECTION('',(0.,-1.,0.));
#863=DIRECTION('',(0.,0.,-1.));
#864=DIRECTION('',(-0.968245836551854,0.,0.25));
#865=DIRECTION('',(0.,-1.,0.));
#866=DIRECTION('',(0.,0.,-1.));
#867=DIRECTION('',(0.,-1.,0.));
#868=DIRECTION('',(0.,0.,-1.));
#869=DIRECTION('',(0.,-1.,0.));
#870=DIRECTION('',(0.,0.,-1.));
#871=DIRECTION('',(0.866025403784439,0.,-0.5));
#872=DIRECTION('',(-0.5,0.,-0.866025403784439));
#873=DIRECTION('',(-0.866025403784439,0.,0.5));
#874=DIRECTION('',(0.,-1.,0.));
#875=DIRECTION('',(0.,0.,-1.));
#876=DIRECTION('',(0.866025403784439,0.,0.5));
#877=DIRECTION('',(0.5,0.,-0.866025403784439));
#878=DIRECTION('',(-0.866025403784439,0.,-0.5));
#879=DIRECTION('',(0.,-1.,0.));
#880=DIRECTION('',(0.,0.,-1.));
#881=DIRECTION('',(1.22464679914735E-16,0.,1.));
#882=DIRECTION('',(1.,0.,-1.22464679914735E-16));
#883=DIRECTION('',(-1.22464679914735E-16,0.,-1.));
#884=DIRECTION('',(0.,-1.,0.));
#885=DIRECTION('',(0.,0.,-1.));
#886=DIRECTION('',(-0.866025403784438,0.,0.5));
#887=DIRECTION('',(0.5,0.,0.866025403784438));
#888=DIRECTION('',(0.866025403784438,0.,-0.5));
#889=DIRECTION('',(0.,-1.,0.));
#890=DIRECTION('',(0.,0.,-1.));
#891=DIRECTION('',(-0.866025403784439,0.,-0.5));
#892=DIRECTION('',(-0.5,0.,0.866025403784439));
#893=DIRECTION('',(0.866025403784439,0.,0.5));
#894=DIRECTION('',(0.,-1.,0.));
#895=DIRECTION('',(0.,0.,-1.));
#896=DIRECTION('',(0.,0.,-1.));
#897=DIRECTION('',(0.,-1.,0.));
#898=DIRECTION('',(0.,0.,-1.));
#899=DIRECTION('',(-0.714366440625506,0.,0.699771811741546));
#900=DIRECTION('',(0.,-1.,0.));
#901=DIRECTION('',(0.,0.,-1.));
#902=DIRECTION('',(0.714366440625505,0.,0.699771811741547));
#903=DIRECTION('',(0.699771811741547,0.,-0.714366440625505));
#904=DIRECTION('',(-0.714366440625505,0.,-0.699771811741547));
#905=DIRECTION('',(-0.714366440625505,0.,-0.699771811741547));
#906=DIRECTION('',(0.,1.,0.));
#907=DIRECTION('',(0.,1.,0.));
#908=DIRECTION('',(0.,1.,0.));
#909=DIRECTION('',(0.,0.,1.));
#910=DIRECTION('',(0.,-1.,0.));
#911=DIRECTION('',(0.,0.,-1.));
#912=DIRECTION('',(0.,1.,0.));
#913=DIRECTION('',(-0.25,0.,-0.968245836551854));
#914=DIRECTION('',(-0.968245836551854,0.,0.25));
#915=DIRECTION('',(-0.968245836551854,0.,0.25));
#916=DIRECTION('',(0.,1.,0.));
#917=DIRECTION('',(0.,1.,0.));
#918=DIRECTION('',(0.,0.,1.));
#919=DIRECTION('',(0.,-1.,0.));
#920=DIRECTION('',(0.,0.,-1.));
#921=DIRECTION('',(0.,1.,0.));
#922=DIRECTION('',(0.,1.,0.));
#923=DIRECTION('',(-0.699771811741547,0.,0.714366440625505));
#924=DIRECTION('',(0.714366440625505,0.,0.699771811741547));
#925=DIRECTION('',(0.714366440625505,0.,0.699771811741547));
#926=DIRECTION('',(0.,1.,0.));
#927=DIRECTION('',(-1.,0.,0.));
#928=DIRECTION('',(0.,0.,1.));
#929=DIRECTION('',(0.,0.,1.));
#930=DIRECTION('',(0.,1.,0.));
#931=DIRECTION('',(0.,1.,0.));
#932=DIRECTION('',(0.,1.,0.));
#933=DIRECTION('',(0.,0.,1.));
#934=DIRECTION('',(0.,-1.,0.));
#935=DIRECTION('',(0.,0.,-1.));
#936=DIRECTION('',(0.,1.,0.));
#937=DIRECTION('',(0.,-1.,0.));
#938=DIRECTION('',(0.,0.,-1.));
#939=DIRECTION('',(0.699771811741546,0.,0.714366440625506));
#940=DIRECTION('',(0.714366440625506,0.,-0.699771811741546));
#941=DIRECTION('',(0.714366440625506,0.,-0.699771811741546));
#942=DIRECTION('',(0.,1.,0.));
#943=DIRECTION('',(0.,1.,0.));
#944=DIRECTION('',(0.,1.,0.));
#945=DIRECTION('',(0.,0.,1.));
#946=DIRECTION('',(0.,-1.,0.));
#947=DIRECTION('',(0.,0.,-1.));
#948=DIRECTION('',(0.,1.,0.));
#949=DIRECTION('',(-0.25,0.,0.968245836551854));
#950=DIRECTION('',(0.968245836551854,0.,0.25));
#951=DIRECTION('',(0.968245836551854,0.,0.25));
#952=DIRECTION('',(0.,1.,0.));
#953=DIRECTION('',(0.,1.,0.));
#954=DIRECTION('',(0.,0.,1.));
#955=DIRECTION('',(0.,-1.,0.));
#956=DIRECTION('',(0.,0.,-1.));
#957=DIRECTION('',(-0.699771811741546,0.,-0.714366440625506));
#958=DIRECTION('',(-0.714366440625506,0.,0.699771811741546));
#959=DIRECTION('',(-0.714366440625506,0.,0.699771811741546));
#960=DIRECTION('',(0.,1.,0.));
#961=DIRECTION('',(0.,0.,1.));
#962=DIRECTION('',(0.,-1.,0.));
#963=DIRECTION('',(0.,0.,-1.));
#964=DIRECTION('',(0.,1.,0.));
#965=DIRECTION('',(0.,0.,1.));
#966=DIRECTION('',(0.,-1.,0.));
#967=DIRECTION('',(0.,0.,-1.));
#968=DIRECTION('',(0.,-1.,0.));
#969=DIRECTION('',(0.,0.,-1.));
#970=DIRECTION('',(0.,1.,0.));
#971=DIRECTION('',(0.,-1.,0.));
#972=DIRECTION('',(-0.866025403784439,0.,-0.5));
#973=DIRECTION('',(0.,1.,0.));
#974=DIRECTION('',(0.,1.,0.));
#975=DIRECTION('',(0.,-1.,0.));
#976=DIRECTION('',(-0.866025403784438,0.,0.5));
#977=DIRECTION('',(0.,1.,0.));
#978=DIRECTION('',(0.,1.,0.));
#979=DIRECTION('',(0.,-1.,0.));
#980=DIRECTION('',(1.22464679914735E-16,0.,1.));
#981=DIRECTION('',(0.,1.,0.));
#982=DIRECTION('',(0.,1.,0.));
#983=DIRECTION('',(0.,-1.,0.));
#984=DIRECTION('',(0.866025403784439,0.,0.5));
#985=DIRECTION('',(0.,1.,0.));
#986=DIRECTION('',(0.,1.,0.));
#987=DIRECTION('',(0.,-1.,0.));
#988=DIRECTION('',(0.866025403784439,0.,-0.5));
#989=DIRECTION('',(0.,1.,0.));
#990=DIRECTION('',(0.,-1.,0.));
#991=DIRECTION('',(1.,0.,0.));
#992=DIRECTION('',(0.5,0.,0.866025403784439));
#993=DIRECTION('',(0.866025403784439,0.,-0.5));
#994=DIRECTION('',(0.,1.,0.));
#995=DIRECTION('',(0.866025403784439,0.,-0.5));
#996=DIRECTION('',(-0.866025403784439,0.,0.5));
#997=DIRECTION('',(0.5,0.,0.866025403784439));
#998=DIRECTION('',(0.,1.,0.));
#999=DIRECTION('',(0.5,0.,0.866025403784439));
#1000=DIRECTION('',(-0.5,0.,-0.866025403784439));
#1001=DIRECTION('',(-0.866025403784439,0.,0.5));
#1002=DIRECTION('',(-0.866025403784439,0.,0.5));
#1003=DIRECTION('',(0.,-1.,0.));
#1004=DIRECTION('',(0.5,0.,0.866025403784439));
#1005=DIRECTION('',(-0.5,0.,0.866025403784439));
#1006=DIRECTION('',(0.866025403784439,0.,0.5));
#1007=DIRECTION('',(0.,1.,0.));
#1008=DIRECTION('',(0.866025403784439,0.,0.5));
#1009=DIRECTION('',(-0.866025403784439,0.,-0.5));
#1010=DIRECTION('',(-0.5,0.,0.866025403784439));
#1011=DIRECTION('',(0.,1.,0.));
#1012=DIRECTION('',(-0.5,0.,0.866025403784439));
#1013=DIRECTION('',(0.5,0.,-0.866025403784439));
#1014=DIRECTION('',(-0.866025403784439,0.,-0.5));
#1015=DIRECTION('',(-0.866025403784439,0.,-0.5));
#1016=DIRECTION('',(0.,-1.,0.));
#1017=DIRECTION('',(-0.5,0.,0.866025403784439));
#1018=DIRECTION('',(-1.,0.,1.22464679914735E-16));
#1019=DIRECTION('',(1.22464679914735E-16,0.,1.));
#1020=DIRECTION('',(0.,1.,0.));
#1021=DIRECTION('',(1.22464679914735E-16,0.,1.));
#1022=DIRECTION('',(-1.22464679914735E-16,0.,-1.));
#1023=DIRECTION('',(-1.,0.,1.22464679914735E-16));
#1024=DIRECTION('',(0.,1.,0.));
#1025=DIRECTION('',(-1.,0.,1.22464679914735E-16));
#1026=DIRECTION('',(1.,0.,-1.22464679914735E-16));
#1027=DIRECTION('',(-1.22464679914735E-16,0.,-1.));
#1028=DIRECTION('',(-1.22464679914735E-16,0.,-1.));
#1029=DIRECTION('',(0.,-1.,0.));
#1030=DIRECTION('',(-1.,0.,1.22464679914735E-16));
#1031=DIRECTION('',(-0.5,0.,-0.866025403784438));
#1032=DIRECTION('',(-0.866025403784438,0.,0.5));
#1033=DIRECTION('',(0.,1.,0.));
#1034=DIRECTION('',(-0.866025403784438,0.,0.5));
#1035=DIRECTION('',(0.866025403784438,0.,-0.5));
#1036=DIRECTION('',(-0.5,0.,-0.866025403784438));
#1037=DIRECTION('',(0.,1.,0.));
#1038=DIRECTION('',(-0.5,0.,-0.866025403784438));
#1039=DIRECTION('',(0.5,0.,0.866025403784438));
#1040=DIRECTION('',(0.866025403784438,0.,-0.5));
#1041=DIRECTION('',(0.866025403784438,0.,-0.5));
#1042=DIRECTION('',(0.,-1.,0.));
#1043=DIRECTION('',(-0.5,0.,-0.866025403784438));
#1044=DIRECTION('',(0.5,0.,-0.866025403784439));
#1045=DIRECTION('',(-0.866025403784439,0.,-0.5));
#1046=DIRECTION('',(0.,1.,0.));
#1047=DIRECTION('',(-0.866025403784439,0.,-0.5));
#1048=DIRECTION('',(0.866025403784439,0.,0.5));
#1049=DIRECTION('',(0.5,0.,-0.866025403784439));
#1050=DIRECTION('',(0.,1.,0.));
#1051=DIRECTION('',(0.5,0.,-0.866025403784439));
#1052=DIRECTION('',(-0.5,0.,0.866025403784439));
#1053=DIRECTION('',(0.866025403784439,0.,0.5));
#1054=DIRECTION('',(0.866025403784439,0.,0.5));
#1055=DIRECTION('',(0.,-1.,0.));
#1056=DIRECTION('',(0.5,0.,-0.866025403784439));
#1057=DIRECTION('',(0.,-1.,0.));
#1058=DIRECTION('',(1.,0.,0.));
#1059=CARTESIAN_POINT('',(0.,0.,0.));
#1060=CARTESIAN_POINT('',(-0.004,-0.004,0.0365024862842299));
#1061=CARTESIAN_POINT('',(-0.004,-0.025,0.0376155281280883));
#1062=CARTESIAN_POINT('',(-0.004,-0.01,0.0376155281280883));
#1063=CARTESIAN_POINT('',(-0.004,-0.004,0.0376155281280883));
#1064=CARTESIAN_POINT('',(-0.004,-0.01,0.0377524862842299));
#1065=CARTESIAN_POINT('',(-0.004,-0.01,0.0378894444403715));
#1066=CARTESIAN_POINT('',(-0.004,-0.01,0.0378894444403715));
#1067=CARTESIAN_POINT('',(-0.004,-0.004,0.0378894444403715));
#1068=CARTESIAN_POINT('',(-0.004,-0.004,0.));
#1069=CARTESIAN_POINT('',(0.,-0.004,0.));
#1070=CARTESIAN_POINT('',(0.0213058671138675,-0.004,-0.0110756773386932));
#1071=CARTESIAN_POINT('',(0.0146041633691851,-0.004,-0.00451089055074548));
#1072=CARTESIAN_POINT('',(0.02800757085855,-0.004,-0.0176404641266409));
#1073=CARTESIAN_POINT('',(3.46944695195361E-18,-0.004,0.017));
#1074=CARTESIAN_POINT('',(0.0251193727339045,-0.004,0.0102905206271144));
#1075=CARTESIAN_POINT('',(0.0280241102435601,-0.004,0.0110405206271144));
#1076=CARTESIAN_POINT('',(0.0309288477532157,-0.004,0.0117905206271144));
#1077=CARTESIAN_POINT('',(-2.77555756156289E-17,-0.004,1.82145964977565E-17));
#1078=CARTESIAN_POINT('',(-0.0213058671138675,-0.004,-0.0110756773386932));
#1079=CARTESIAN_POINT('',(-0.0146041633691851,-0.004,-0.00451089055074548));
#1080=CARTESIAN_POINT('',(-0.02800757085855,-0.004,-0.0176404641266409));
#1081=CARTESIAN_POINT('',(-1.56125112837912E-17,-0.004,-6.07153216591882E-18));
#1082=CARTESIAN_POINT('',(-0.0309288477532156,-0.004,0.0117905206271144));
#1083=CARTESIAN_POINT('',(-0.0280241102435601,-0.004,0.0110405206271144));
#1084=CARTESIAN_POINT('',(-0.0251193727339044,-0.004,0.0102905206271144));
#1085=CARTESIAN_POINT('',(-7.80625564189563E-18,-0.004,0.017));
#1086=CARTESIAN_POINT('',(2.16840434497101E-18,-0.004,0.017));
#1087=CARTESIAN_POINT('',(-0.00603354484150918,-0.004,-0.00311458020057834));
#1088=CARTESIAN_POINT('',(6.41160989984015E-18,-0.004,-1.2490009027033E-16));
#1089=CARTESIAN_POINT('',(-0.0308132214206408,-0.004,0.0224088238353236));
#1090=CARTESIAN_POINT('',(0.002,-0.004,0.00346410161513774));
#1091=CARTESIAN_POINT('',(-0.0286481579111797,-0.004,0.0211588238353235));
#1092=CARTESIAN_POINT('',(-0.0306481579111797,-0.004,0.0176947222201858));
#1093=CARTESIAN_POINT('',(-0.0326481579111797,-0.004,0.014230620605048));
#1094=CARTESIAN_POINT('',(-0.002,-0.004,-0.00346410161513777));
#1095=CARTESIAN_POINT('',(-0.0348132214206408,-0.004,0.015480620605048));
#1096=CARTESIAN_POINT('',(6.41160989984015E-18,-0.004,-1.2490009027033E-16));
#1097=CARTESIAN_POINT('',(-0.0348132214206408,-0.004,-0.015480620605048));
#1098=CARTESIAN_POINT('',(-0.002,-0.004,0.00346410161513774));
#1099=CARTESIAN_POINT('',(-0.0326481579111797,-0.004,-0.014230620605048));
#1100=CARTESIAN_POINT('',(-0.0306481579111797,-0.004,-0.0176947222201858));
#1101=CARTESIAN_POINT('',(-0.0286481579111797,-0.004,-0.0211588238353235));
#1102=CARTESIAN_POINT('',(0.002,-0.004,-0.00346410161513777));
#1103=CARTESIAN_POINT('',(-0.0308132214206408,-0.004,-0.0224088238353235));
#1104=CARTESIAN_POINT('',(6.41160989984015E-18,-0.004,-1.2490009027033E-16));
#1105=CARTESIAN_POINT('',(-0.004,-0.004,-0.0378894444403715));
#1106=CARTESIAN_POINT('',(-0.004,-0.004,4.8985871965894E-19));
#1107=CARTESIAN_POINT('',(-0.004,-0.004,-0.0353894444403715));
#1108=CARTESIAN_POINT('',(-4.3339569857504E-18,-0.004,-0.0353894444403715));
#1109=CARTESIAN_POINT('',(0.004,-0.004,-0.0353894444403715));
#1110=CARTESIAN_POINT('',(0.004,-0.004,-4.89858719658943E-19));
#1111=CARTESIAN_POINT('',(0.004,-0.004,-0.0378894444403715));
#1112=CARTESIAN_POINT('',(6.41160989984015E-18,-0.004,-1.2490009027033E-16));
#1113=CARTESIAN_POINT('',(0.0308132214206408,-0.004,-0.0224088238353236));
#1114=CARTESIAN_POINT('',(-0.002,-0.004,-0.00346410161513774));
#1115=CARTESIAN_POINT('',(0.0286481579111797,-0.004,-0.0211588238353235));
#1116=CARTESIAN_POINT('',(0.0306481579111797,-0.004,-0.0176947222201858));
#1117=CARTESIAN_POINT('',(0.0326481579111797,-0.004,-0.014230620605048));
#1118=CARTESIAN_POINT('',(0.002,-0.004,0.00346410161513776));
#1119=CARTESIAN_POINT('',(0.0348132214206408,-0.004,-0.015480620605048));
#1120=CARTESIAN_POINT('',(6.41160989984015E-18,-0.004,-1.2490009027033E-16));
#1121=CARTESIAN_POINT('',(0.0348132214206408,-0.004,0.0154806206050479));
#1122=CARTESIAN_POINT('',(0.002,-0.004,-0.00346410161513775));
#1123=CARTESIAN_POINT('',(0.0326481579111797,-0.004,0.014230620605048));
#1124=CARTESIAN_POINT('',(0.0306481579111797,-0.004,0.0176947222201858));
#1125=CARTESIAN_POINT('',(0.0286481579111797,-0.004,0.0211588238353235));
#1126=CARTESIAN_POINT('',(-0.002,-0.004,0.00346410161513777));
#1127=CARTESIAN_POINT('',(0.0308132214206408,-0.004,0.0224088238353235));
#1128=CARTESIAN_POINT('',(6.41160989984015E-18,-0.004,-1.2490009027033E-16));
#1129=CARTESIAN_POINT('',(0.004,-0.004,0.0378894444403715));
#1130=CARTESIAN_POINT('',(0.004,-0.004,0.));
#1131=CARTESIAN_POINT('',(0.004,-0.004,0.0376155281280883));
#1132=CARTESIAN_POINT('',(4.77048955893622E-18,-0.004,0.017));
#1133=CARTESIAN_POINT('',(0.00603354484150917,-0.004,-0.00311458020057834));
#1134=CARTESIAN_POINT('',(0.00801677242075459,-0.004,-0.00505729010028917));
#1135=CARTESIAN_POINT('',(0.025,-0.004,-0.0216935474277491));
#1136=CARTESIAN_POINT('',(0.,-0.004,-1.7347234759768E-18));
#1137=CARTESIAN_POINT('',(-0.025,-0.004,-0.0216935474277491));
#1138=CARTESIAN_POINT('',(-0.00801677242075459,-0.004,-0.00505729010028917));
#1139=CARTESIAN_POINT('',(-0.0213058671138675,-0.004,-0.0110756773386932));
#1140=CARTESIAN_POINT('',(-0.0213058671138675,0.,-0.0110756773386932));
#1141=CARTESIAN_POINT('',(-0.0146041633691851,0.,-0.00451089055074548));
#1142=CARTESIAN_POINT('',(-0.02800757085855,0.,-0.0176404641266409));
#1143=CARTESIAN_POINT('',(-0.02800757085855,-0.004,-0.0176404641266409));
#1144=CARTESIAN_POINT('',(-0.0146041633691851,-0.004,-0.00451089055074548));
#1145=CARTESIAN_POINT('',(-1.56125112837912E-17,-0.004,-6.07153216591882E-18));
#1146=CARTESIAN_POINT('',(-1.56125112837912E-17,0.,-6.07153216591882E-18));
#1147=CARTESIAN_POINT('',(-0.0309288477532156,0.,0.0117905206271144));
#1148=CARTESIAN_POINT('',(-0.0309288477532156,-0.004,0.0117905206271144));
#1149=CARTESIAN_POINT('',(-0.0280241102435601,-0.004,0.0110405206271144));
#1150=CARTESIAN_POINT('',(-0.0280241102435601,0.,0.0110405206271144));
#1151=CARTESIAN_POINT('',(-0.0251193727339044,0.,0.0102905206271144));
#1152=CARTESIAN_POINT('',(-0.0251193727339044,-0.004,0.0102905206271144));
#1153=CARTESIAN_POINT('',(0.,-0.004,-1.7347234759768E-18));
#1154=CARTESIAN_POINT('',(0.,0.,-1.7347234759768E-18));
#1155=CARTESIAN_POINT('',(-0.025,0.,-0.0216935474277491));
#1156=CARTESIAN_POINT('',(0.025,0.,-0.0216935474277491));
#1157=CARTESIAN_POINT('',(-0.025,-0.004,-0.0216935474277491));
#1158=CARTESIAN_POINT('',(0.025,-0.004,-0.0216935474277491));
#1159=CARTESIAN_POINT('',(-0.00801677242075459,-0.004,-0.00505729010028917));
#1160=CARTESIAN_POINT('',(-0.00801677242075459,0.,-0.00505729010028917));
#1161=CARTESIAN_POINT('',(-0.00603354484150918,0.,-0.00311458020057834));
#1162=CARTESIAN_POINT('',(-0.00603354484150918,-0.004,-0.00311458020057834));
#1163=CARTESIAN_POINT('',(0.004,-0.004,0.0365024862842299));
#1164=CARTESIAN_POINT('',(0.004,-0.01,0.0377524862842299));
#1165=CARTESIAN_POINT('',(0.004,-0.01,0.0376155281280883));
#1166=CARTESIAN_POINT('',(0.004,-0.01,0.0378894444403715));
#1167=CARTESIAN_POINT('',(0.004,-0.025,0.0376155281280883));
#1168=CARTESIAN_POINT('',(0.004,-0.01,0.0378894444403715));
#1169=CARTESIAN_POINT('',(4.77048955893622E-18,-0.004,0.017));
#1170=CARTESIAN_POINT('',(4.77048955893622E-18,0.,0.017));
#1171=CARTESIAN_POINT('',(0.00603354484150917,0.,-0.00311458020057834));
#1172=CARTESIAN_POINT('',(0.00603354484150917,-0.004,-0.00311458020057834));
#1173=CARTESIAN_POINT('',(-1.30104260698261E-17,-0.01,0.0169999999999998));
#1174=CARTESIAN_POINT('',(0.0213058671138675,-0.004,-0.0110756773386932));
#1175=CARTESIAN_POINT('',(0.0213058671138675,0.,-0.0110756773386932));
#1176=CARTESIAN_POINT('',(0.0146041633691851,0.,-0.00451089055074548));
#1177=CARTESIAN_POINT('',(0.02800757085855,0.,-0.0176404641266409));
#1178=CARTESIAN_POINT('',(0.0146041633691851,-0.004,-0.00451089055074548));
#1179=CARTESIAN_POINT('',(0.02800757085855,-0.004,-0.0176404641266409));
#1180=CARTESIAN_POINT('',(3.46944695195361E-18,-0.004,0.017));
#1181=CARTESIAN_POINT('',(3.46944695195361E-18,0.,0.017));
#1182=CARTESIAN_POINT('',(0.0251193727339045,0.,0.0102905206271144));
#1183=CARTESIAN_POINT('',(0.0251193727339045,-0.004,0.0102905206271144));
#1184=CARTESIAN_POINT('',(0.0280241102435601,-0.004,0.0110405206271144));
#1185=CARTESIAN_POINT('',(0.0280241102435601,0.,0.0110405206271144));
#1186=CARTESIAN_POINT('',(0.0309288477532157,0.,0.0117905206271144));
#1187=CARTESIAN_POINT('',(0.0309288477532157,-0.004,0.0117905206271144));
#1188=CARTESIAN_POINT('',(-7.80625564189563E-18,-0.004,0.017));
#1189=CARTESIAN_POINT('',(-7.80625564189563E-18,0.,0.017));
#1190=CARTESIAN_POINT('',(0.00801677242075459,-0.004,-0.00505729010028917));
#1191=CARTESIAN_POINT('',(0.00801677242075459,0.,-0.00505729010028917));
#1192=CARTESIAN_POINT('',(-2.77555756156289E-17,-0.004,1.82145964977565E-17));
#1193=CARTESIAN_POINT('',(-2.77555756156289E-17,0.,1.82145964977565E-17));
#1194=CARTESIAN_POINT('',(6.41160989984015E-18,-0.004,-1.2490009027033E-16));
#1195=CARTESIAN_POINT('',(6.41160989984015E-18,0.,-1.2490009027033E-16));
#1196=CARTESIAN_POINT('',(6.41160989984015E-18,0.,-0.0381000000000001));
#1197=CARTESIAN_POINT('',(-9.97465998686664E-18,-0.01,-1.38777878078145E-17));
#1198=CARTESIAN_POINT('',(0.0308132214206408,-0.01,0.0224088238353235));
#1199=CARTESIAN_POINT('',(0.0308132214206408,-0.01,0.0224088238353235));
#1200=CARTESIAN_POINT('',(-1.70058467833306E-17,-0.01,1.69941503883145E-18));
#1201=CARTESIAN_POINT('',(0.0348132214206408,-0.01,0.0154806206050479));
#1202=CARTESIAN_POINT('',(0.0348132214206408,-0.01,0.0154806206050479));
#1203=CARTESIAN_POINT('',(0.0348132214206408,-0.01,-0.015480620605048));
#1204=CARTESIAN_POINT('',(0.0348132214206408,-0.01,-0.015480620605048));
#1205=CARTESIAN_POINT('',(-7.03118679646395E-18,-0.01,1.55772028466459E-17));
#1206=CARTESIAN_POINT('',(0.0308132214206408,-0.01,-0.0224088238353236));
#1207=CARTESIAN_POINT('',(0.0308132214206408,-0.01,-0.0224088238353236));
#1208=CARTESIAN_POINT('',(0.004,-0.01,-0.0378894444403715));
#1209=CARTESIAN_POINT('',(0.004,-0.01,-0.0378894444403715));
#1210=CARTESIAN_POINT('',(9.97465998686664E-18,-0.01,1.38777878078145E-17));
#1211=CARTESIAN_POINT('',(-0.004,-0.01,-0.0378894444403715));
#1212=CARTESIAN_POINT('',(-0.004,-0.01,-0.0378894444403715));
#1213=CARTESIAN_POINT('',(-0.0308132214206408,-0.01,-0.0224088238353235));
#1214=CARTESIAN_POINT('',(-0.0308132214206408,-0.01,-0.0224088238353235));
#1215=CARTESIAN_POINT('',(1.70058467833306E-17,-0.01,-1.69941503883144E-18));
#1216=CARTESIAN_POINT('',(-0.0348132214206408,-0.01,-0.015480620605048));
#1217=CARTESIAN_POINT('',(-0.0348132214206408,-0.01,-0.015480620605048));
#1218=CARTESIAN_POINT('',(-0.0348132214206408,-0.01,0.015480620605048));
#1219=CARTESIAN_POINT('',(-0.0348132214206408,-0.01,0.015480620605048));
#1220=CARTESIAN_POINT('',(7.03118679646395E-18,-0.01,-1.55772028466459E-17));
#1221=CARTESIAN_POINT('',(-0.0308132214206408,-0.01,0.0224088238353236));
#1222=CARTESIAN_POINT('',(-0.0308132214206408,-0.01,0.0224088238353236));
#1223=CARTESIAN_POINT('',(0.,0.,0.));
#1224=CARTESIAN_POINT('',(-0.0346946121781667,-0.01,0.0154121415269772));
#1225=CARTESIAN_POINT('',(-0.0326481579111797,-0.01,0.014230620605048));
#1226=CARTESIAN_POINT('',(-0.0326481579111797,-0.01,0.014230620605048));
#1227=CARTESIAN_POINT('',(-0.0346946121781667,-0.01,0.0154121415269772));
#1228=CARTESIAN_POINT('',(-0.0306481579111797,-0.01,0.0176947222201858));
#1229=CARTESIAN_POINT('',(-0.0286481579111797,-0.01,0.0211588238353235));
#1230=CARTESIAN_POINT('',(-0.0286481579111797,-0.01,0.0211588238353235));
#1231=CARTESIAN_POINT('',(-0.0306481579111797,-0.01,0.0176947222201858));
#1232=CARTESIAN_POINT('',(-0.0306946121781667,-0.01,0.0223403447572527));
#1233=CARTESIAN_POINT('',(-0.0306946121781667,-0.01,0.0223403447572527));
#1234=CARTESIAN_POINT('',(0.,-0.01,0.));
#1235=CARTESIAN_POINT('',(-0.0306946121781667,-0.01,-0.0223403447572527));
#1236=CARTESIAN_POINT('',(-0.0286481579111797,-0.01,-0.0211588238353235));
#1237=CARTESIAN_POINT('',(-0.0286481579111797,-0.01,-0.0211588238353235));
#1238=CARTESIAN_POINT('',(-0.0306946121781667,-0.01,-0.0223403447572527));
#1239=CARTESIAN_POINT('',(-0.0306481579111797,-0.01,-0.0176947222201858));
#1240=CARTESIAN_POINT('',(-0.0326481579111797,-0.01,-0.014230620605048));
#1241=CARTESIAN_POINT('',(-0.0326481579111797,-0.01,-0.014230620605048));
#1242=CARTESIAN_POINT('',(-0.0306481579111797,-0.01,-0.0176947222201858));
#1243=CARTESIAN_POINT('',(-0.0346946121781667,-0.01,-0.0154121415269772));
#1244=CARTESIAN_POINT('',(-0.0346946121781667,-0.01,-0.0154121415269772));
#1245=CARTESIAN_POINT('',(0.,-0.01,0.));
#1246=CARTESIAN_POINT('',(0.004,-0.01,-0.0377524862842299));
#1247=CARTESIAN_POINT('',(0.004,-0.01,-0.0353894444403715));
#1248=CARTESIAN_POINT('',(0.004,-0.01,-0.0353894444403715));
#1249=CARTESIAN_POINT('',(0.004,-0.01,-0.0377524862842299));
#1250=CARTESIAN_POINT('',(-4.3339569857504E-18,-0.01,-0.0353894444403715));
#1251=CARTESIAN_POINT('',(-0.004,-0.01,-0.0353894444403715));
#1252=CARTESIAN_POINT('',(-0.004,-0.01,-0.0353894444403715));
#1253=CARTESIAN_POINT('',(-4.3339569857504E-18,-0.01,-0.0353894444403715));
#1254=CARTESIAN_POINT('',(-0.004,-0.01,-0.0377524862842299));
#1255=CARTESIAN_POINT('',(-0.004,-0.01,-0.0377524862842299));
#1256=CARTESIAN_POINT('',(0.,-0.01,0.));
#1257=CARTESIAN_POINT('',(0.0346946121781667,-0.01,-0.0154121415269772));
#1258=CARTESIAN_POINT('',(0.0326481579111797,-0.01,-0.014230620605048));
#1259=CARTESIAN_POINT('',(0.0326481579111797,-0.01,-0.014230620605048));
#1260=CARTESIAN_POINT('',(0.0346946121781667,-0.01,-0.0154121415269772));
#1261=CARTESIAN_POINT('',(0.0306481579111797,-0.01,-0.0176947222201858));
#1262=CARTESIAN_POINT('',(0.0286481579111797,-0.01,-0.0211588238353235));
#1263=CARTESIAN_POINT('',(0.0286481579111797,-0.01,-0.0211588238353235));
#1264=CARTESIAN_POINT('',(0.0306481579111797,-0.01,-0.0176947222201858));
#1265=CARTESIAN_POINT('',(0.0306946121781667,-0.01,-0.0223403447572527));
#1266=CARTESIAN_POINT('',(0.0306946121781667,-0.01,-0.0223403447572527));
#1267=CARTESIAN_POINT('',(0.,-0.01,0.));
#1268=CARTESIAN_POINT('',(0.0306946121781667,-0.01,0.0223403447572527));
#1269=CARTESIAN_POINT('',(0.0286481579111797,-0.01,0.0211588238353235));
#1270=CARTESIAN_POINT('',(0.0286481579111797,-0.01,0.0211588238353235));
#1271=CARTESIAN_POINT('',(0.0306946121781667,-0.01,0.0223403447572527));
#1272=CARTESIAN_POINT('',(0.0306481579111797,-0.01,0.0176947222201858));
#1273=CARTESIAN_POINT('',(0.0326481579111797,-0.01,0.014230620605048));
#1274=CARTESIAN_POINT('',(0.0326481579111797,-0.01,0.014230620605048));
#1275=CARTESIAN_POINT('',(0.0306481579111797,-0.01,0.0176947222201858));
#1276=CARTESIAN_POINT('',(0.0346946121781667,-0.01,0.0154121415269772));
#1277=CARTESIAN_POINT('',(0.0346946121781667,-0.01,0.0154121415269772));
#1278=CARTESIAN_POINT('',(0.,-0.01,0.));
#1279=CARTESIAN_POINT('',(0.,-0.01,0.));
#1280=MECHANICAL_DESIGN_GEOMETRIC_PRESENTATION_REPRESENTATION('',(#768),
#1281);
#1281=(
GEOMETRIC_REPRESENTATION_CONTEXT(3)
GLOBAL_UNCERTAINTY_ASSIGNED_CONTEXT((#1282))
GLOBAL_UNIT_ASSIGNED_CONTEXT((#1285,#1284,#1283))
REPRESENTATION_CONTEXT('Ballast Mounting Ring',
'TOP_LEVEL_ASSEMBLY_PART')
);
#1282=UNCERTAINTY_MEASURE_WITH_UNIT(LENGTH_MEASURE(1.E-8),#1285,
'DISTANCE_ACCURACY_VALUE','Maximum Tolerance applied to model');
#1283=(
NAMED_UNIT(*)
SI_UNIT($,.STERADIAN.)
SOLID_ANGLE_UNIT()
);
#1284=(
NAMED_UNIT(*)
PLANE_ANGLE_UNIT()
SI_UNIT($,.RADIAN.)
);
#1285=(
LENGTH_UNIT()
NAMED_UNIT(*)
SI_UNIT($,.METRE.)
);
#1286=PRODUCT_DEFINITION_SHAPE('','',#1287);
#1287=PRODUCT_DEFINITION('','',#1289,#1288);
#1288=PRODUCT_DEFINITION_CONTEXT('',#1295,'design');
#1289=PRODUCT_DEFINITION_FORMATION_WITH_SPECIFIED_SOURCE('','',#1291,
 .NOT_KNOWN.);
#1290=PRODUCT_RELATED_PRODUCT_CATEGORY('','',(#1291));
#1291=PRODUCT('Ballast Mounting Ring','Ballast Mounting Ring',
'Ballast Mounting Ring',(#1293));
#1292=PRODUCT_CATEGORY('','');
#1293=PRODUCT_CONTEXT('',#1295,'mechanical');
#1294=APPLICATION_PROTOCOL_DEFINITION('international standard',
'ap242_managed_model_based_3d_engineering',2020,#1295);
#1295=APPLICATION_CONTEXT('managed model based 3d engineering');
ENDSEC;
END-ISO-10303-21;
