ISO-10303-21;
HEADER;
/* Generated by software containing ST-Developer
 * from STEP Tools, Inc. (www.steptools.com) 
 */
/* OPTION: using custom renumber hook */

FILE_DESCRIPTION(
/* description */ ('STEP AP242 Edition 2',
'CAx-IF Rec.Pracs.---Representation and Presentation of Product Manufa
cturing Information (PMI)---4.0---2014-10-13',
'CAx-IF Rec.Pracs.---3D Tessellated Geometry---0.4---2014-09-14','2;1',
'CAx-IF Rec.Pracs.---User Defined Attributes---1.5---2016-08-15'),
/* implementation_level */ '2;1');

FILE_NAME(
/* name */ 'Nose V2 - Cone V1.5',
/* time_stamp */ '2026-08-23T20:26:21Z',
/* author */ (''),
/* organization */ (''),
/* preprocessor_version */ 'ST-DEVELOPER v20',
/* originating_system */ 'ONSHAPE BY PTC INC, 1.219',
/* authorisation */ '  ');

FILE_SCHEMA (('AP242_MANAGED_MODEL_BASED_3D_ENGINEERING_MIM_LF { 1 0 10303 442 3 1 4 }'));
ENDSEC;

DATA;
#10=SHAPE_REPRESENTATION_RELATIONSHIP('','',#124,#11);
#11=ADVANCED_BREP_SHAPE_REPRESENTATION('',(#122),#215);
#12=CONICAL_SURFACE('',#138,0.061,0.0996686524911628);
#13=PLANE('',#132);
#14=PLANE('',#136);
#15=PLANE('',#142);
#16=CYLINDRICAL_SURFACE('',#130,0.061);
#17=CYLINDRICAL_SURFACE('',#134,0.057);
#18=CYLINDRICAL_SURFACE('',#140,0.061);
#19=CYLINDRICAL_SURFACE('',#144,0.064);
#20=ORIENTED_EDGE('',*,*,#38,.T.);
#21=ORIENTED_EDGE('',*,*,#39,.F.);
#22=ORIENTED_EDGE('',*,*,#39,.T.);
#23=ORIENTED_EDGE('',*,*,#40,.F.);
#24=ORIENTED_EDGE('',*,*,#41,.F.);
#25=ORIENTED_EDGE('',*,*,#40,.T.);
#26=ORIENTED_EDGE('',*,*,#42,.F.);
#27=ORIENTED_EDGE('',*,*,#41,.T.);
#28=ORIENTED_EDGE('',*,*,#43,.F.);
#29=ORIENTED_EDGE('',*,*,#42,.T.);
#30=ORIENTED_EDGE('',*,*,#43,.T.);
#31=ORIENTED_EDGE('',*,*,#44,.F.);
#32=ORIENTED_EDGE('',*,*,#44,.T.);
#33=ORIENTED_EDGE('',*,*,#45,.F.);
#34=ORIENTED_EDGE('',*,*,#45,.T.);
#35=ORIENTED_EDGE('',*,*,#46,.F.);
#36=ORIENTED_EDGE('',*,*,#46,.T.);
#37=ORIENTED_EDGE('',*,*,#38,.F.);
#38=EDGE_CURVE('',#47,#47,#56,.T.);
#39=EDGE_CURVE('',#48,#48,#57,.T.);
#40=EDGE_CURVE('',#49,#49,#58,.T.);
#41=EDGE_CURVE('',#50,#50,#59,.T.);
#42=EDGE_CURVE('',#51,#51,#60,.T.);
#43=EDGE_CURVE('',#52,#52,#61,.T.);
#44=EDGE_CURVE('',#53,#53,#62,.T.);
#45=EDGE_CURVE('',#54,#54,#63,.T.);
#46=EDGE_CURVE('',#55,#55,#64,.T.);
#47=VERTEX_POINT('',#188);
#48=VERTEX_POINT('',#191);
#49=VERTEX_POINT('',#194);
#50=VERTEX_POINT('',#197);
#51=VERTEX_POINT('',#200);
#52=VERTEX_POINT('',#203);
#53=VERTEX_POINT('',#206);
#54=VERTEX_POINT('',#209);
#55=VERTEX_POINT('',#212);
#56=CIRCLE('',#127,0.064);
#57=CIRCLE('',#129,0.061);
#58=CIRCLE('',#131,0.061);
#59=CIRCLE('',#133,0.057);
#60=CIRCLE('',#135,0.057);
#61=CIRCLE('',#137,0.06);
#62=CIRCLE('',#139,0.061);
#63=CIRCLE('',#141,0.061);
#64=CIRCLE('',#143,0.064);
#65=EDGE_LOOP('',(#20));
#66=EDGE_LOOP('',(#21));
#67=EDGE_LOOP('',(#22));
#68=EDGE_LOOP('',(#23));
#69=EDGE_LOOP('',(#24));
#70=EDGE_LOOP('',(#25));
#71=EDGE_LOOP('',(#26));
#72=EDGE_LOOP('',(#27));
#73=EDGE_LOOP('',(#28));
#74=EDGE_LOOP('',(#29));
#75=EDGE_LOOP('',(#30));
#76=EDGE_LOOP('',(#31));
#77=EDGE_LOOP('',(#32));
#78=EDGE_LOOP('',(#33));
#79=EDGE_LOOP('',(#34));
#80=EDGE_LOOP('',(#35));
#81=EDGE_LOOP('',(#36));
#82=EDGE_LOOP('',(#37));
#83=FACE_BOUND('',#65,.T.);
#84=FACE_BOUND('',#66,.T.);
#85=FACE_BOUND('',#67,.T.);
#86=FACE_BOUND('',#68,.T.);
#87=FACE_BOUND('',#69,.T.);
#88=FACE_BOUND('',#70,.T.);
#89=FACE_BOUND('',#71,.T.);
#90=FACE_BOUND('',#72,.T.);
#91=FACE_BOUND('',#73,.T.);
#92=FACE_BOUND('',#74,.T.);
#93=FACE_BOUND('',#75,.T.);
#94=FACE_BOUND('',#76,.T.);
#95=FACE_BOUND('',#77,.T.);
#96=FACE_BOUND('',#78,.T.);
#97=FACE_BOUND('',#79,.T.);
#98=FACE_BOUND('',#80,.T.);
#99=FACE_BOUND('',#81,.T.);
#100=FACE_BOUND('',#82,.T.);
#101=SPHERICAL_SURFACE('',#126,0.064);
#102=SPHERICAL_SURFACE('',#128,0.061);
#103=ADVANCED_FACE('',(#83),#101,.T.);
#104=ADVANCED_FACE('',(#84),#102,.F.);
#105=ADVANCED_FACE('',(#85,#86),#16,.F.);
#106=ADVANCED_FACE('',(#87,#88),#13,.F.);
#107=ADVANCED_FACE('',(#89,#90),#17,.F.);
#108=ADVANCED_FACE('',(#91,#92),#14,.F.);
#109=ADVANCED_FACE('',(#93,#94),#12,.T.);
#110=ADVANCED_FACE('',(#95,#96),#18,.T.);
#111=ADVANCED_FACE('',(#97,#98),#15,.T.);
#112=ADVANCED_FACE('',(#99,#100),#19,.T.);
#113=CLOSED_SHELL('',(#103,#104,#105,#106,#107,#108,#109,#110,#111,#112));
#114=STYLED_ITEM('',(#115),#122);
#115=PRESENTATION_STYLE_ASSIGNMENT((#116));
#116=SURFACE_STYLE_USAGE(.BOTH.,#117);
#117=SURFACE_SIDE_STYLE('',(#118));
#118=SURFACE_STYLE_FILL_AREA(#119);
#119=FILL_AREA_STYLE('',(#120));
#120=FILL_AREA_STYLE_COLOUR('',#121);
#121=COLOUR_RGB('',0.615686274509804,0.811764705882353,0.929411764705882);
#122=MANIFOLD_SOLID_BREP('Cone V1.5',#113);
#123=SHAPE_DEFINITION_REPRESENTATION(#220,#124);
#124=SHAPE_REPRESENTATION('Cone V1.5',(#125),#215);
#125=AXIS2_PLACEMENT_3D('',#185,#145,#146);
#126=AXIS2_PLACEMENT_3D('',#186,#147,#148);
#127=AXIS2_PLACEMENT_3D('',#187,#149,#150);
#128=AXIS2_PLACEMENT_3D('',#189,#151,#152);
#129=AXIS2_PLACEMENT_3D('',#190,#153,#154);
#130=AXIS2_PLACEMENT_3D('',#192,#155,#156);
#131=AXIS2_PLACEMENT_3D('',#193,#157,#158);
#132=AXIS2_PLACEMENT_3D('',#195,#159,#160);
#133=AXIS2_PLACEMENT_3D('',#196,#161,#162);
#134=AXIS2_PLACEMENT_3D('',#198,#163,#164);
#135=AXIS2_PLACEMENT_3D('',#199,#165,#166);
#136=AXIS2_PLACEMENT_3D('',#201,#167,#168);
#137=AXIS2_PLACEMENT_3D('',#202,#169,#170);
#138=AXIS2_PLACEMENT_3D('',#204,#171,#172);
#139=AXIS2_PLACEMENT_3D('',#205,#173,#174);
#140=AXIS2_PLACEMENT_3D('',#207,#175,#176);
#141=AXIS2_PLACEMENT_3D('',#208,#177,#178);
#142=AXIS2_PLACEMENT_3D('',#210,#179,#180);
#143=AXIS2_PLACEMENT_3D('',#211,#181,#182);
#144=AXIS2_PLACEMENT_3D('',#213,#183,#184);
#145=DIRECTION('',(0.,0.,1.));
#146=DIRECTION('',(1.,0.,0.));
#147=DIRECTION('',(0.,-1.,-1.22464679914736E-16));
#148=DIRECTION('',(0.,-1.22464679914736E-16,1.));
#149=DIRECTION('',(0.,-1.,-1.22464679914736E-16));
#150=DIRECTION('',(0.,1.22464679914736E-16,-1.));
#151=DIRECTION('',(0.,-1.,-1.22464679914736E-16));
#152=DIRECTION('',(0.,-1.22464679914736E-16,1.));
#153=DIRECTION('',(0.,-1.,-1.22464679914736E-16));
#154=DIRECTION('',(0.,1.22464679914736E-16,-1.));
#155=DIRECTION('',(0.,-1.,-1.22464679914736E-16));
#156=DIRECTION('',(0.,1.22464679914736E-16,-1.));
#157=DIRECTION('',(0.,-1.,-1.22464679914736E-16));
#158=DIRECTION('',(0.,1.22464679914736E-16,-1.));
#159=DIRECTION('',(0.,1.,1.22464679914736E-16));
#160=DIRECTION('',(0.,-1.22464679914736E-16,1.));
#161=DIRECTION('',(0.,-1.,-1.22464679914736E-16));
#162=DIRECTION('',(0.,1.22464679914736E-16,-1.));
#163=DIRECTION('',(0.,-1.,-1.22464679914736E-16));
#164=DIRECTION('',(0.,1.22464679914736E-16,-1.));
#165=DIRECTION('',(0.,-1.,-1.22464679914736E-16));
#166=DIRECTION('',(0.,1.22464679914736E-16,-1.));
#167=DIRECTION('',(0.,-1.,-1.22464679914736E-16));
#168=DIRECTION('',(0.,1.22464679914736E-16,-1.));
#169=DIRECTION('',(0.,-1.,-1.22464679914736E-16));
#170=DIRECTION('',(0.,1.22464679914736E-16,-1.));
#171=DIRECTION('',(0.,-1.,-1.22464679914736E-16));
#172=DIRECTION('',(0.,1.22464679914736E-16,-1.));
#173=DIRECTION('',(0.,-1.,-1.22464679914736E-16));
#174=DIRECTION('',(0.,1.22464679914736E-16,-1.));
#175=DIRECTION('',(0.,-1.,-1.22464679914736E-16));
#176=DIRECTION('',(0.,1.22464679914736E-16,-1.));
#177=DIRECTION('',(0.,-1.,-1.22464679914736E-16));
#178=DIRECTION('',(0.,1.22464679914736E-16,-1.));
#179=DIRECTION('',(0.,1.,1.22464679914736E-16));
#180=DIRECTION('',(0.,-1.22464679914736E-16,1.));
#181=DIRECTION('',(0.,-1.,-1.22464679914736E-16));
#182=DIRECTION('',(0.,1.22464679914736E-16,-1.));
#183=DIRECTION('',(0.,-1.,-1.22464679914736E-16));
#184=DIRECTION('',(0.,1.22464679914736E-16,-1.));
#185=CARTESIAN_POINT('',(0.,0.,0.));
#186=CARTESIAN_POINT('',(0.,-1.28171985398145E-17,-1.08577636611788E-17));
#187=CARTESIAN_POINT('',(0.,-6.93889390390723E-18,3.85185988877447E-32));
#188=CARTESIAN_POINT('',(0.,8.98845610635873E-19,-0.064));
#189=CARTESIAN_POINT('',(0.,5.26215724596205E-18,-1.51240300784931E-17));
#190=CARTESIAN_POINT('',(0.,1.38777878078145E-17,4.16000867987643E-32));
#191=CARTESIAN_POINT('',(0.,2.13481332826134E-17,-0.061));
#192=CARTESIAN_POINT('',(0.,-0.0625,-7.65404249467096E-18));
#193=CARTESIAN_POINT('',(0.,0.01,1.2246467991474E-18));
#194=CARTESIAN_POINT('',(0.,0.01,-0.061));
#195=CARTESIAN_POINT('',(0.,0.01,0.059));
#196=CARTESIAN_POINT('',(0.,0.01,1.2246467991474E-18));
#197=CARTESIAN_POINT('',(0.,0.01,-0.057));
#198=CARTESIAN_POINT('',(0.,-0.0625,-7.65404249467096E-18));
#199=CARTESIAN_POINT('',(0.,0.045,5.51091059616316E-18));
#200=CARTESIAN_POINT('',(0.,0.045,-0.057));
#201=CARTESIAN_POINT('',(0.,0.045,0.0585));
#202=CARTESIAN_POINT('',(0.,0.045,5.51091059616316E-18));
#203=CARTESIAN_POINT('',(0.,0.045,-0.06));
#204=CARTESIAN_POINT('',(0.,0.035,4.2862637970158E-18));
#205=CARTESIAN_POINT('',(0.,0.035,4.2862637970158E-18));
#206=CARTESIAN_POINT('',(0.,0.035,-0.061));
#207=CARTESIAN_POINT('',(0.,-0.0625,-7.65404249467096E-18));
#208=CARTESIAN_POINT('',(0.,0.02,2.44929359829476E-18));
#209=CARTESIAN_POINT('',(0.,0.02,-0.061));
#210=CARTESIAN_POINT('',(0.,0.02,0.0625));
#211=CARTESIAN_POINT('',(0.,0.02,2.44929359829476E-18));
#212=CARTESIAN_POINT('',(0.,0.02,-0.064));
#213=CARTESIAN_POINT('',(0.,-0.0625,-7.65404249467096E-18));
#214=MECHANICAL_DESIGN_GEOMETRIC_PRESENTATION_REPRESENTATION('',(#114),
#215);
#215=(
GEOMETRIC_REPRESENTATION_CONTEXT(3)
GLOBAL_UNCERTAINTY_ASSIGNED_CONTEXT((#216))
GLOBAL_UNIT_ASSIGNED_CONTEXT((#219,#218,#217))
REPRESENTATION_CONTEXT('Cone V1.5','TOP_LEVEL_ASSEMBLY_PART')
);
#216=UNCERTAINTY_MEASURE_WITH_UNIT(LENGTH_MEASURE(1.E-8),#219,
'DISTANCE_ACCURACY_VALUE','Maximum Tolerance applied to model');
#217=(
NAMED_UNIT(*)
SI_UNIT($,.STERADIAN.)
SOLID_ANGLE_UNIT()
);
#218=(
NAMED_UNIT(*)
PLANE_ANGLE_UNIT()
SI_UNIT($,.RADIAN.)
);
#219=(
LENGTH_UNIT()
NAMED_UNIT(*)
SI_UNIT($,.METRE.)
);
#220=PRODUCT_DEFINITION_SHAPE('','',#221);
#221=PRODUCT_DEFINITION('','',#223,#222);
#222=PRODUCT_DEFINITION_CONTEXT('',#229,'design');
#223=PRODUCT_DEFINITION_FORMATION_WITH_SPECIFIED_SOURCE('','',#225,
 .NOT_KNOWN.);
#224=PRODUCT_RELATED_PRODUCT_CATEGORY('','',(#225));
#225=PRODUCT('Cone V1.5','Cone V1.5','Cone V1.5',(#227));
#226=PRODUCT_CATEGORY('','');
#227=PRODUCT_CONTEXT('',#229,'mechanical');
#228=APPLICATION_PROTOCOL_DEFINITION('international standard',
'ap242_managed_model_based_3d_engineering',2020,#229);
#229=APPLICATION_CONTEXT('managed model based 3d engineering');
ENDSEC;
END-ISO-10303-21;
