ISO-10303-21;
HEADER;
/* Generated by software containing ST-Developer
 * from STEP Tools, Inc. (www.steptools.com) 
 */
/* OPTION: using custom renumber hook */

FILE_DESCRIPTION(
/* description */ ('STEP AP242 Edition 2',
'CAx-IF Rec.Pracs.---Representation and Presentation of Product Manufa
cturing Information (PMI)---4.0---2014-10-13',
'CAx-IF Rec.Pracs.---3D Tessellated Geometry---0.4---2014-09-14','2;1',
'CAx-IF Rec.Pracs.---User Defined Attributes---1.5---2016-08-15'),
/* implementation_level */ '2;1');

FILE_NAME(
/* name */ 'Nose - Nose Cone V1',
/* time_stamp */ '2026-08-23T20:25:06Z',
/* author */ (''),
/* organization */ (''),
/* preprocessor_version */ 'ST-DEVELOPER v20',
/* originating_system */ 'ONSHAPE BY PTC INC, 1.219',
/* authorisation */ '  ');

FILE_SCHEMA (('AP242_MANAGED_MODEL_BASED_3D_ENGINEERING_MIM_LF { 1 0 10303 442 3 1 4 }'));
ENDSEC;

DATA;
#10=SHAPE_REPRESENTATION_RELATIONSHIP('','',#102,#11);
#11=ADVANCED_BREP_SHAPE_REPRESENTATION('',(#100),#175);
#12=SPHERICAL_SURFACE('',#109,0.0535305);
#13=SPHERICAL_SURFACE('',#118,0.0505305);
#14=CYLINDRICAL_SURFACE('',#107,0.0535305);
#15=CYLINDRICAL_SURFACE('',#110,0.0508);
#16=CYLINDRICAL_SURFACE('',#115,0.0475);
#17=ORIENTED_EDGE('',*,*,#31,.F.);
#18=ORIENTED_EDGE('',*,*,#32,.T.);
#19=ORIENTED_EDGE('',*,*,#33,.T.);
#20=ORIENTED_EDGE('',*,*,#32,.F.);
#21=ORIENTED_EDGE('',*,*,#33,.F.);
#22=ORIENTED_EDGE('',*,*,#34,.T.);
#23=ORIENTED_EDGE('',*,*,#31,.T.);
#24=ORIENTED_EDGE('',*,*,#35,.F.);
#25=ORIENTED_EDGE('',*,*,#36,.F.);
#26=ORIENTED_EDGE('',*,*,#35,.T.);
#27=ORIENTED_EDGE('',*,*,#37,.F.);
#28=ORIENTED_EDGE('',*,*,#37,.T.);
#29=ORIENTED_EDGE('',*,*,#34,.F.);
#30=ORIENTED_EDGE('',*,*,#36,.T.);
#31=EDGE_CURVE('',#38,#38,#45,.F.);
#32=EDGE_CURVE('',#39,#39,#46,.T.);
#33=EDGE_CURVE('',#40,#40,#47,.T.);
#34=EDGE_CURVE('',#41,#41,#48,.T.);
#35=EDGE_CURVE('',#42,#42,#49,.T.);
#36=EDGE_CURVE('',#43,#43,#50,.F.);
#37=EDGE_CURVE('',#44,#44,#51,.T.);
#38=VERTEX_POINT('',#154);
#39=VERTEX_POINT('',#156);
#40=VERTEX_POINT('',#159);
#41=VERTEX_POINT('',#163);
#42=VERTEX_POINT('',#166);
#43=VERTEX_POINT('',#168);
#44=VERTEX_POINT('',#171);
#45=CIRCLE('',#105,0.0508);
#46=CIRCLE('',#106,0.0535305);
#47=CIRCLE('',#108,0.0535305);
#48=CIRCLE('',#111,0.0508);
#49=CIRCLE('',#113,0.0475);
#50=CIRCLE('',#114,0.0505305);
#51=CIRCLE('',#116,0.0475);
#52=EDGE_LOOP('',(#17));
#53=EDGE_LOOP('',(#18));
#54=EDGE_LOOP('',(#19));
#55=EDGE_LOOP('',(#20));
#56=EDGE_LOOP('',(#21));
#57=EDGE_LOOP('',(#22));
#58=EDGE_LOOP('',(#23));
#59=EDGE_LOOP('',(#24));
#60=EDGE_LOOP('',(#25));
#61=EDGE_LOOP('',(#26));
#62=EDGE_LOOP('',(#27));
#63=EDGE_LOOP('',(#28));
#64=EDGE_LOOP('',(#29));
#65=EDGE_LOOP('',(#30));
#66=FACE_BOUND('',#52,.T.);
#67=FACE_BOUND('',#53,.T.);
#68=FACE_BOUND('',#54,.T.);
#69=FACE_BOUND('',#55,.T.);
#70=FACE_BOUND('',#56,.T.);
#71=FACE_BOUND('',#57,.T.);
#72=FACE_BOUND('',#58,.T.);
#73=FACE_BOUND('',#59,.T.);
#74=FACE_BOUND('',#60,.T.);
#75=FACE_BOUND('',#61,.T.);
#76=FACE_BOUND('',#62,.T.);
#77=FACE_BOUND('',#63,.T.);
#78=FACE_BOUND('',#64,.T.);
#79=FACE_BOUND('',#65,.T.);
#80=PLANE('',#104);
#81=PLANE('',#112);
#82=PLANE('',#117);
#83=ADVANCED_FACE('',(#66,#67),#80,.F.);
#84=ADVANCED_FACE('',(#68,#69),#14,.T.);
#85=ADVANCED_FACE('',(#70),#12,.T.);
#86=ADVANCED_FACE('',(#71,#72),#15,.T.);
#87=ADVANCED_FACE('',(#73,#74),#81,.T.);
#88=ADVANCED_FACE('',(#75,#76),#16,.F.);
#89=ADVANCED_FACE('',(#77,#78),#82,.F.);
#90=ADVANCED_FACE('',(#79),#13,.F.);
#91=CLOSED_SHELL('',(#83,#84,#85,#86,#87,#88,#89,#90));
#92=STYLED_ITEM('',(#93),#100);
#93=PRESENTATION_STYLE_ASSIGNMENT((#94));
#94=SURFACE_STYLE_USAGE(.BOTH.,#95);
#95=SURFACE_SIDE_STYLE('',(#96));
#96=SURFACE_STYLE_FILL_AREA(#97);
#97=FILL_AREA_STYLE('',(#98));
#98=FILL_AREA_STYLE_COLOUR('',#99);
#99=COLOUR_RGB('',0.615686274509804,0.811764705882353,0.929411764705882);
#100=MANIFOLD_SOLID_BREP('Nose Cone V1',#91);
#101=SHAPE_DEFINITION_REPRESENTATION(#180,#102);
#102=SHAPE_REPRESENTATION('Nose Cone V1',(#103),#175);
#103=AXIS2_PLACEMENT_3D('',#151,#119,#120);
#104=AXIS2_PLACEMENT_3D('',#152,#121,#122);
#105=AXIS2_PLACEMENT_3D('',#153,#123,#124);
#106=AXIS2_PLACEMENT_3D('',#155,#125,#126);
#107=AXIS2_PLACEMENT_3D('',#157,#127,#128);
#108=AXIS2_PLACEMENT_3D('',#158,#129,#130);
#109=AXIS2_PLACEMENT_3D('',#160,#131,#132);
#110=AXIS2_PLACEMENT_3D('',#161,#133,#134);
#111=AXIS2_PLACEMENT_3D('',#162,#135,#136);
#112=AXIS2_PLACEMENT_3D('',#164,#137,#138);
#113=AXIS2_PLACEMENT_3D('',#165,#139,#140);
#114=AXIS2_PLACEMENT_3D('',#167,#141,#142);
#115=AXIS2_PLACEMENT_3D('',#169,#143,#144);
#116=AXIS2_PLACEMENT_3D('',#170,#145,#146);
#117=AXIS2_PLACEMENT_3D('',#172,#147,#148);
#118=AXIS2_PLACEMENT_3D('',#173,#149,#150);
#119=DIRECTION('',(0.,0.,1.));
#120=DIRECTION('',(1.,0.,0.));
#121=DIRECTION('',(0.,-1.,-2.3042402947298E-16));
#122=DIRECTION('',(0.,2.3042402947298E-16,-1.));
#123=DIRECTION('',(0.,-1.,-2.3042402947298E-16));
#124=DIRECTION('',(0.,2.3042402947298E-16,-1.));
#125=DIRECTION('',(0.,1.,2.3042402947298E-16));
#126=DIRECTION('',(0.,-2.3042402947298E-16,1.));
#127=DIRECTION('',(0.,1.,2.3042402947298E-16));
#128=DIRECTION('',(0.,-2.3042402947298E-16,1.));
#129=DIRECTION('',(0.,1.,2.3042402947298E-16));
#130=DIRECTION('',(0.,-2.3042402947298E-16,1.));
#131=DIRECTION('',(0.,1.,2.3042402947298E-16));
#132=DIRECTION('',(0.,-2.3042402947298E-16,1.));
#133=DIRECTION('',(0.,1.,0.));
#134=DIRECTION('',(0.,0.,1.));
#135=DIRECTION('',(0.,-1.,0.));
#136=DIRECTION('',(0.,0.,-1.));
#137=DIRECTION('',(0.,-1.,0.));
#138=DIRECTION('',(1.,0.,0.));
#139=DIRECTION('',(0.,-1.,0.));
#140=DIRECTION('',(0.,0.,-1.));
#141=DIRECTION('',(0.,-1.,0.));
#142=DIRECTION('',(0.,0.,-1.));
#143=DIRECTION('',(0.,1.,0.));
#144=DIRECTION('',(0.,0.,1.));
#145=DIRECTION('',(0.,-1.,0.));
#146=DIRECTION('',(0.,0.,-1.));
#147=DIRECTION('',(0.,-1.,0.));
#148=DIRECTION('',(1.,0.,0.));
#149=DIRECTION('',(0.,1.,2.3042402947298E-16));
#150=DIRECTION('',(0.,-2.3042402947298E-16,1.));
#151=CARTESIAN_POINT('',(0.,0.,0.));
#152=CARTESIAN_POINT('',(0.,0.,0.0520305));
#153=CARTESIAN_POINT('',(0.,1.21430643318376E-17,3.11060286983428E-18));
#154=CARTESIAN_POINT('',(0.,2.38486050290651E-17,-0.0508));
#155=CARTESIAN_POINT('',(0.,1.38777878078145E-17,2.73399451974824E-18));
#156=CARTESIAN_POINT('',(0.,1.54307429811108E-18,0.0535305));
#157=CARTESIAN_POINT('',(0.,-0.04176525,-6.88972267719816E-18));
#158=CARTESIAN_POINT('',(0.,-0.015,-7.22365922346467E-19));
#159=CARTESIAN_POINT('',(0.,-0.015,0.0535305));
#160=CARTESIAN_POINT('',(0.,-0.015,1.22557870251763E-17));
#161=CARTESIAN_POINT('',(0.,-0.015,3.11060286983428E-18));
#162=CARTESIAN_POINT('',(0.,0.015,3.11060286983428E-18));
#163=CARTESIAN_POINT('',(0.,0.015,-0.0508));
#164=CARTESIAN_POINT('',(0.,-0.015,0.));
#165=CARTESIAN_POINT('',(0.,-0.015,2.90853614797496E-18));
#166=CARTESIAN_POINT('',(0.,-0.015,-0.0475));
#167=CARTESIAN_POINT('',(0.,-0.015,-6.62038822596098E-18));
#168=CARTESIAN_POINT('',(0.,-0.015,-0.0505305));
#169=CARTESIAN_POINT('',(0.,-0.015,2.90853614797496E-18));
#170=CARTESIAN_POINT('',(0.,0.015,2.90853614797496E-18));
#171=CARTESIAN_POINT('',(0.,0.015,-0.0475));
#172=CARTESIAN_POINT('',(0.,0.015,0.));
#173=CARTESIAN_POINT('',(0.,-0.015,-6.62038822596098E-18));
#174=MECHANICAL_DESIGN_GEOMETRIC_PRESENTATION_REPRESENTATION('',(#92),#175);
#175=(
GEOMETRIC_REPRESENTATION_CONTEXT(3)
GLOBAL_UNCERTAINTY_ASSIGNED_CONTEXT((#176))
GLOBAL_UNIT_ASSIGNED_CONTEXT((#179,#178,#177))
REPRESENTATION_CONTEXT('Nose Cone V1','TOP_LEVEL_ASSEMBLY_PART')
);
#176=UNCERTAINTY_MEASURE_WITH_UNIT(LENGTH_MEASURE(1.E-8),#179,
'DISTANCE_ACCURACY_VALUE','Maximum Tolerance applied to model');
#177=(
NAMED_UNIT(*)
SI_UNIT($,.STERADIAN.)
SOLID_ANGLE_UNIT()
);
#178=(
NAMED_UNIT(*)
PLANE_ANGLE_UNIT()
SI_UNIT($,.RADIAN.)
);
#179=(
LENGTH_UNIT()
NAMED_UNIT(*)
SI_UNIT($,.METRE.)
);
#180=PRODUCT_DEFINITION_SHAPE('','',#181);
#181=PRODUCT_DEFINITION('','',#183,#182);
#182=PRODUCT_DEFINITION_CONTEXT('',#189,'design');
#183=PRODUCT_DEFINITION_FORMATION_WITH_SPECIFIED_SOURCE('','',#185,
 .NOT_KNOWN.);
#184=PRODUCT_RELATED_PRODUCT_CATEGORY('','',(#185));
#185=PRODUCT('Nose Cone V1','Nose Cone V1','Nose Cone V1',(#187));
#186=PRODUCT_CATEGORY('','');
#187=PRODUCT_CONTEXT('',#189,'mechanical');
#188=APPLICATION_PROTOCOL_DEFINITION('international standard',
'ap242_managed_model_based_3d_engineering',2020,#189);
#189=APPLICATION_CONTEXT('managed model based 3d engineering');
ENDSEC;
END-ISO-10303-21;
