ISO-10303-21;
HEADER;
/* Generated by software containing ST-Developer
 * from STEP Tools, Inc. (www.steptools.com) 
 */
/* OPTION: using custom renumber hook */

FILE_DESCRIPTION(
/* description */ ('STEP AP242 Edition 2',
'CAx-IF Rec.Pracs.---Representation and Presentation of Product Manufa
cturing Information (PMI)---4.0---2014-10-13',
'CAx-IF Rec.Pracs.---3D Tessellated Geometry---0.4---2014-09-14','2;1',
'CAx-IF Rec.Pracs.---User Defined Attributes---1.5---2016-08-15'),
/* implementation_level */ '2;1');

FILE_NAME(
/* name */ 'Nose V2 - Nose Ring1',
/* time_stamp */ '2026-08-23T20:26:32Z',
/* author */ (''),
/* organization */ (''),
/* preprocessor_version */ 'ST-DEVELOPER v20',
/* originating_system */ 'ONSHAPE BY PTC INC, 1.219',
/* authorisation */ '  ');

FILE_SCHEMA (('AP242_MANAGED_MODEL_BASED_3D_ENGINEERING_MIM_LF { 1 0 10303 442 3 1 4 }'));
ENDSEC;

DATA;
#10=SHAPE_REPRESENTATION_RELATIONSHIP('','',#1235,#11);
#11=ADVANCED_BREP_SHAPE_REPRESENTATION('',(#1233),#2073);
#12=SPHERICAL_SURFACE('',#1284,0.0661);
#13=SPHERICAL_SURFACE('',#1287,0.0661);
#14=SPHERICAL_SURFACE('',#1290,0.0661);
#15=SPHERICAL_SURFACE('',#1293,0.0661);
#16=SPHERICAL_SURFACE('',#1296,0.0661);
#17=SPHERICAL_SURFACE('',#1299,0.0661);
#18=CYLINDRICAL_SURFACE('',#1255,0.05);
#19=CYLINDRICAL_SURFACE('',#1258,0.05);
#20=CYLINDRICAL_SURFACE('',#1261,0.05);
#21=CYLINDRICAL_SURFACE('',#1264,0.05);
#22=CYLINDRICAL_SURFACE('',#1267,0.05);
#23=CYLINDRICAL_SURFACE('',#1270,0.05);
#24=CYLINDRICAL_SURFACE('',#1302,0.0475);
#25=CYLINDRICAL_SURFACE('',#1303,0.0475);
#26=CYLINDRICAL_SURFACE('',#1304,0.0475);
#27=CYLINDRICAL_SURFACE('',#1305,0.0475);
#28=CYLINDRICAL_SURFACE('',#1306,0.0475);
#29=CYLINDRICAL_SURFACE('',#1307,0.0475);
#30=CYLINDRICAL_SURFACE('',#1326,0.0615);
#31=CYLINDRICAL_SURFACE('',#1331,0.0615);
#32=CYLINDRICAL_SURFACE('',#1336,0.0615);
#33=CYLINDRICAL_SURFACE('',#1341,0.0615);
#34=CYLINDRICAL_SURFACE('',#1346,0.0615);
#35=CYLINDRICAL_SURFACE('',#1347,0.0615);
#36=CIRCLE('',#1238,0.0484170424540781);
#37=CIRCLE('',#1239,0.0475);
#38=CIRCLE('',#1241,0.0484170424540781);
#39=CIRCLE('',#1242,0.0475);
#40=CIRCLE('',#1244,0.0484170424540781);
#41=CIRCLE('',#1245,0.0475);
#42=CIRCLE('',#1247,0.0484170424540781);
#43=CIRCLE('',#1248,0.0475);
#44=CIRCLE('',#1250,0.0484170424540781);
#45=CIRCLE('',#1251,0.0475);
#46=CIRCLE('',#1253,0.0475);
#47=CIRCLE('',#1254,0.0484170424540781);
#48=CIRCLE('',#1256,0.05);
#49=CIRCLE('',#1257,0.05);
#50=CIRCLE('',#1259,0.05);
#51=CIRCLE('',#1260,0.05);
#52=CIRCLE('',#1262,0.05);
#53=CIRCLE('',#1263,0.05);
#54=CIRCLE('',#1265,0.05);
#55=CIRCLE('',#1266,0.05);
#56=CIRCLE('',#1268,0.05);
#57=CIRCLE('',#1269,0.05);
#58=CIRCLE('',#1271,0.05);
#59=CIRCLE('',#1272,0.05);
#60=CIRCLE('',#1274,0.0475);
#61=CIRCLE('',#1275,0.0475);
#62=CIRCLE('',#1276,0.0475);
#63=CIRCLE('',#1277,0.0475);
#64=CIRCLE('',#1278,0.0475);
#65=CIRCLE('',#1279,0.0475);
#66=CIRCLE('',#1285,0.066082978141122);
#67=CIRCLE('',#1286,0.066082978141122);
#68=CIRCLE('',#1288,0.066082978141122);
#69=CIRCLE('',#1289,0.066082978141122);
#70=CIRCLE('',#1291,0.066082978141122);
#71=CIRCLE('',#1292,0.066082978141122);
#72=CIRCLE('',#1294,0.066082978141122);
#73=CIRCLE('',#1295,0.066082978141122);
#74=CIRCLE('',#1297,0.066082978141122);
#75=CIRCLE('',#1298,0.066082978141122);
#76=CIRCLE('',#1300,0.066082978141122);
#77=CIRCLE('',#1301,0.066082978141122);
#78=CIRCLE('',#1323,0.0615);
#79=CIRCLE('',#1325,0.0615);
#80=CIRCLE('',#1328,0.0615);
#81=CIRCLE('',#1330,0.0615);
#82=CIRCLE('',#1333,0.0615);
#83=CIRCLE('',#1335,0.0615);
#84=CIRCLE('',#1338,0.0615);
#85=CIRCLE('',#1340,0.0615);
#86=CIRCLE('',#1343,0.0615);
#87=CIRCLE('',#1345,0.0615);
#88=CIRCLE('',#1348,0.0615);
#89=CIRCLE('',#1349,0.0615);
#90=ORIENTED_EDGE('',*,*,#450,.F.);
#91=ORIENTED_EDGE('',*,*,#451,.T.);
#92=ORIENTED_EDGE('',*,*,#452,.F.);
#93=ORIENTED_EDGE('',*,*,#453,.F.);
#94=ORIENTED_EDGE('',*,*,#454,.F.);
#95=ORIENTED_EDGE('',*,*,#455,.F.);
#96=ORIENTED_EDGE('',*,*,#456,.F.);
#97=ORIENTED_EDGE('',*,*,#457,.F.);
#98=ORIENTED_EDGE('',*,*,#458,.F.);
#99=ORIENTED_EDGE('',*,*,#459,.T.);
#100=ORIENTED_EDGE('',*,*,#460,.F.);
#101=ORIENTED_EDGE('',*,*,#461,.T.);
#102=ORIENTED_EDGE('',*,*,#462,.F.);
#103=ORIENTED_EDGE('',*,*,#463,.F.);
#104=ORIENTED_EDGE('',*,*,#464,.F.);
#105=ORIENTED_EDGE('',*,*,#465,.F.);
#106=ORIENTED_EDGE('',*,*,#466,.F.);
#107=ORIENTED_EDGE('',*,*,#467,.T.);
#108=ORIENTED_EDGE('',*,*,#468,.F.);
#109=ORIENTED_EDGE('',*,*,#469,.F.);
#110=ORIENTED_EDGE('',*,*,#470,.F.);
#111=ORIENTED_EDGE('',*,*,#471,.F.);
#112=ORIENTED_EDGE('',*,*,#472,.F.);
#113=ORIENTED_EDGE('',*,*,#473,.F.);
#114=ORIENTED_EDGE('',*,*,#474,.F.);
#115=ORIENTED_EDGE('',*,*,#475,.T.);
#116=ORIENTED_EDGE('',*,*,#476,.F.);
#117=ORIENTED_EDGE('',*,*,#477,.F.);
#118=ORIENTED_EDGE('',*,*,#478,.F.);
#119=ORIENTED_EDGE('',*,*,#479,.F.);
#120=ORIENTED_EDGE('',*,*,#480,.F.);
#121=ORIENTED_EDGE('',*,*,#481,.F.);
#122=ORIENTED_EDGE('',*,*,#482,.F.);
#123=ORIENTED_EDGE('',*,*,#483,.T.);
#124=ORIENTED_EDGE('',*,*,#484,.F.);
#125=ORIENTED_EDGE('',*,*,#485,.F.);
#126=ORIENTED_EDGE('',*,*,#486,.F.);
#127=ORIENTED_EDGE('',*,*,#487,.F.);
#128=ORIENTED_EDGE('',*,*,#488,.F.);
#129=ORIENTED_EDGE('',*,*,#489,.F.);
#130=ORIENTED_EDGE('',*,*,#490,.F.);
#131=ORIENTED_EDGE('',*,*,#491,.F.);
#132=ORIENTED_EDGE('',*,*,#492,.F.);
#133=ORIENTED_EDGE('',*,*,#493,.F.);
#134=ORIENTED_EDGE('',*,*,#494,.F.);
#135=ORIENTED_EDGE('',*,*,#495,.F.);
#136=ORIENTED_EDGE('',*,*,#496,.T.);
#137=ORIENTED_EDGE('',*,*,#497,.F.);
#138=ORIENTED_EDGE('',*,*,#498,.F.);
#139=ORIENTED_EDGE('',*,*,#499,.T.);
#140=ORIENTED_EDGE('',*,*,#500,.T.);
#141=ORIENTED_EDGE('',*,*,#501,.T.);
#142=ORIENTED_EDGE('',*,*,#502,.F.);
#143=ORIENTED_EDGE('',*,*,#503,.T.);
#144=ORIENTED_EDGE('',*,*,#504,.F.);
#145=ORIENTED_EDGE('',*,*,#505,.T.);
#146=ORIENTED_EDGE('',*,*,#506,.F.);
#147=ORIENTED_EDGE('',*,*,#507,.T.);
#148=ORIENTED_EDGE('',*,*,#508,.T.);
#149=ORIENTED_EDGE('',*,*,#509,.T.);
#150=ORIENTED_EDGE('',*,*,#510,.F.);
#151=ORIENTED_EDGE('',*,*,#511,.T.);
#152=ORIENTED_EDGE('',*,*,#512,.T.);
#153=ORIENTED_EDGE('',*,*,#513,.T.);
#154=ORIENTED_EDGE('',*,*,#514,.F.);
#155=ORIENTED_EDGE('',*,*,#515,.T.);
#156=ORIENTED_EDGE('',*,*,#516,.T.);
#157=ORIENTED_EDGE('',*,*,#517,.T.);
#158=ORIENTED_EDGE('',*,*,#518,.T.);
#159=ORIENTED_EDGE('',*,*,#519,.T.);
#160=ORIENTED_EDGE('',*,*,#520,.T.);
#161=ORIENTED_EDGE('',*,*,#521,.F.);
#162=ORIENTED_EDGE('',*,*,#522,.T.);
#163=ORIENTED_EDGE('',*,*,#523,.T.);
#164=ORIENTED_EDGE('',*,*,#518,.F.);
#165=ORIENTED_EDGE('',*,*,#524,.F.);
#166=ORIENTED_EDGE('',*,*,#525,.T.);
#167=ORIENTED_EDGE('',*,*,#526,.T.);
#168=ORIENTED_EDGE('',*,*,#515,.F.);
#169=ORIENTED_EDGE('',*,*,#527,.F.);
#170=ORIENTED_EDGE('',*,*,#528,.T.);
#171=ORIENTED_EDGE('',*,*,#529,.T.);
#172=ORIENTED_EDGE('',*,*,#511,.F.);
#173=ORIENTED_EDGE('',*,*,#530,.F.);
#174=ORIENTED_EDGE('',*,*,#531,.T.);
#175=ORIENTED_EDGE('',*,*,#532,.T.);
#176=ORIENTED_EDGE('',*,*,#507,.F.);
#177=ORIENTED_EDGE('',*,*,#533,.F.);
#178=ORIENTED_EDGE('',*,*,#534,.T.);
#179=ORIENTED_EDGE('',*,*,#535,.F.);
#180=ORIENTED_EDGE('',*,*,#503,.F.);
#181=ORIENTED_EDGE('',*,*,#536,.F.);
#182=ORIENTED_EDGE('',*,*,#537,.T.);
#183=ORIENTED_EDGE('',*,*,#538,.T.);
#184=ORIENTED_EDGE('',*,*,#499,.F.);
#185=ORIENTED_EDGE('',*,*,#539,.F.);
#186=ORIENTED_EDGE('',*,*,#540,.T.);
#187=ORIENTED_EDGE('',*,*,#541,.T.);
#188=ORIENTED_EDGE('',*,*,#542,.T.);
#189=ORIENTED_EDGE('',*,*,#543,.T.);
#190=ORIENTED_EDGE('',*,*,#544,.T.);
#191=ORIENTED_EDGE('',*,*,#545,.T.);
#192=ORIENTED_EDGE('',*,*,#546,.T.);
#193=ORIENTED_EDGE('',*,*,#547,.T.);
#194=ORIENTED_EDGE('',*,*,#548,.T.);
#195=ORIENTED_EDGE('',*,*,#549,.T.);
#196=ORIENTED_EDGE('',*,*,#550,.T.);
#197=ORIENTED_EDGE('',*,*,#551,.T.);
#198=ORIENTED_EDGE('',*,*,#552,.T.);
#199=ORIENTED_EDGE('',*,*,#553,.T.);
#200=ORIENTED_EDGE('',*,*,#554,.T.);
#201=ORIENTED_EDGE('',*,*,#555,.T.);
#202=ORIENTED_EDGE('',*,*,#556,.T.);
#203=ORIENTED_EDGE('',*,*,#557,.T.);
#204=ORIENTED_EDGE('',*,*,#558,.T.);
#205=ORIENTED_EDGE('',*,*,#559,.T.);
#206=ORIENTED_EDGE('',*,*,#560,.T.);
#207=ORIENTED_EDGE('',*,*,#561,.T.);
#208=ORIENTED_EDGE('',*,*,#562,.T.);
#209=ORIENTED_EDGE('',*,*,#563,.T.);
#210=ORIENTED_EDGE('',*,*,#564,.F.);
#211=ORIENTED_EDGE('',*,*,#565,.T.);
#212=ORIENTED_EDGE('',*,*,#495,.T.);
#213=ORIENTED_EDGE('',*,*,#566,.T.);
#214=ORIENTED_EDGE('',*,*,#546,.F.);
#215=ORIENTED_EDGE('',*,*,#567,.F.);
#216=ORIENTED_EDGE('',*,*,#486,.T.);
#217=ORIENTED_EDGE('',*,*,#568,.F.);
#218=ORIENTED_EDGE('',*,*,#569,.F.);
#219=ORIENTED_EDGE('',*,*,#570,.T.);
#220=ORIENTED_EDGE('',*,*,#482,.T.);
#221=ORIENTED_EDGE('',*,*,#571,.T.);
#222=ORIENTED_EDGE('',*,*,#542,.F.);
#223=ORIENTED_EDGE('',*,*,#572,.F.);
#224=ORIENTED_EDGE('',*,*,#478,.T.);
#225=ORIENTED_EDGE('',*,*,#573,.F.);
#226=ORIENTED_EDGE('',*,*,#574,.F.);
#227=ORIENTED_EDGE('',*,*,#575,.T.);
#228=ORIENTED_EDGE('',*,*,#466,.T.);
#229=ORIENTED_EDGE('',*,*,#576,.T.);
#230=ORIENTED_EDGE('',*,*,#558,.F.);
#231=ORIENTED_EDGE('',*,*,#577,.F.);
#232=ORIENTED_EDGE('',*,*,#462,.T.);
#233=ORIENTED_EDGE('',*,*,#578,.T.);
#234=ORIENTED_EDGE('',*,*,#579,.F.);
#235=ORIENTED_EDGE('',*,*,#580,.T.);
#236=ORIENTED_EDGE('',*,*,#458,.T.);
#237=ORIENTED_EDGE('',*,*,#581,.T.);
#238=ORIENTED_EDGE('',*,*,#554,.F.);
#239=ORIENTED_EDGE('',*,*,#582,.F.);
#240=ORIENTED_EDGE('',*,*,#454,.T.);
#241=ORIENTED_EDGE('',*,*,#583,.F.);
#242=ORIENTED_EDGE('',*,*,#584,.F.);
#243=ORIENTED_EDGE('',*,*,#501,.F.);
#244=ORIENTED_EDGE('',*,*,#585,.T.);
#245=ORIENTED_EDGE('',*,*,#452,.T.);
#246=ORIENTED_EDGE('',*,*,#586,.F.);
#247=ORIENTED_EDGE('',*,*,#505,.F.);
#248=ORIENTED_EDGE('',*,*,#587,.F.);
#249=ORIENTED_EDGE('',*,*,#460,.T.);
#250=ORIENTED_EDGE('',*,*,#588,.F.);
#251=ORIENTED_EDGE('',*,*,#509,.F.);
#252=ORIENTED_EDGE('',*,*,#589,.T.);
#253=ORIENTED_EDGE('',*,*,#468,.T.);
#254=ORIENTED_EDGE('',*,*,#590,.F.);
#255=ORIENTED_EDGE('',*,*,#513,.F.);
#256=ORIENTED_EDGE('',*,*,#591,.T.);
#257=ORIENTED_EDGE('',*,*,#476,.T.);
#258=ORIENTED_EDGE('',*,*,#592,.F.);
#259=ORIENTED_EDGE('',*,*,#517,.F.);
#260=ORIENTED_EDGE('',*,*,#593,.T.);
#261=ORIENTED_EDGE('',*,*,#484,.T.);
#262=ORIENTED_EDGE('',*,*,#520,.F.);
#263=ORIENTED_EDGE('',*,*,#594,.T.);
#264=ORIENTED_EDGE('',*,*,#497,.T.);
#265=ORIENTED_EDGE('',*,*,#595,.F.);
#266=ORIENTED_EDGE('',*,*,#493,.T.);
#267=ORIENTED_EDGE('',*,*,#596,.T.);
#268=ORIENTED_EDGE('',*,*,#548,.F.);
#269=ORIENTED_EDGE('',*,*,#597,.F.);
#270=ORIENTED_EDGE('',*,*,#598,.F.);
#271=ORIENTED_EDGE('',*,*,#456,.T.);
#272=ORIENTED_EDGE('',*,*,#599,.T.);
#273=ORIENTED_EDGE('',*,*,#552,.F.);
#274=ORIENTED_EDGE('',*,*,#600,.F.);
#275=ORIENTED_EDGE('',*,*,#464,.T.);
#276=ORIENTED_EDGE('',*,*,#601,.T.);
#277=ORIENTED_EDGE('',*,*,#556,.F.);
#278=ORIENTED_EDGE('',*,*,#602,.F.);
#279=ORIENTED_EDGE('',*,*,#472,.T.);
#280=ORIENTED_EDGE('',*,*,#603,.T.);
#281=ORIENTED_EDGE('',*,*,#560,.F.);
#282=ORIENTED_EDGE('',*,*,#604,.F.);
#283=ORIENTED_EDGE('',*,*,#480,.T.);
#284=ORIENTED_EDGE('',*,*,#605,.T.);
#285=ORIENTED_EDGE('',*,*,#540,.F.);
#286=ORIENTED_EDGE('',*,*,#606,.F.);
#287=ORIENTED_EDGE('',*,*,#488,.T.);
#288=ORIENTED_EDGE('',*,*,#607,.T.);
#289=ORIENTED_EDGE('',*,*,#544,.F.);
#290=ORIENTED_EDGE('',*,*,#545,.F.);
#291=ORIENTED_EDGE('',*,*,#607,.F.);
#292=ORIENTED_EDGE('',*,*,#487,.T.);
#293=ORIENTED_EDGE('',*,*,#567,.T.);
#294=ORIENTED_EDGE('',*,*,#547,.F.);
#295=ORIENTED_EDGE('',*,*,#566,.F.);
#296=ORIENTED_EDGE('',*,*,#494,.T.);
#297=ORIENTED_EDGE('',*,*,#597,.T.);
#298=ORIENTED_EDGE('',*,*,#541,.F.);
#299=ORIENTED_EDGE('',*,*,#605,.F.);
#300=ORIENTED_EDGE('',*,*,#479,.T.);
#301=ORIENTED_EDGE('',*,*,#572,.T.);
#302=ORIENTED_EDGE('',*,*,#543,.F.);
#303=ORIENTED_EDGE('',*,*,#571,.F.);
#304=ORIENTED_EDGE('',*,*,#489,.T.);
#305=ORIENTED_EDGE('',*,*,#606,.T.);
#306=ORIENTED_EDGE('',*,*,#561,.F.);
#307=ORIENTED_EDGE('',*,*,#603,.F.);
#308=ORIENTED_EDGE('',*,*,#471,.T.);
#309=ORIENTED_EDGE('',*,*,#608,.T.);
#310=ORIENTED_EDGE('',*,*,#563,.F.);
#311=ORIENTED_EDGE('',*,*,#609,.F.);
#312=ORIENTED_EDGE('',*,*,#481,.T.);
#313=ORIENTED_EDGE('',*,*,#604,.T.);
#314=ORIENTED_EDGE('',*,*,#610,.F.);
#315=ORIENTED_EDGE('',*,*,#611,.F.);
#316=ORIENTED_EDGE('',*,*,#612,.T.);
#317=ORIENTED_EDGE('',*,*,#474,.T.);
#318=ORIENTED_EDGE('',*,*,#609,.T.);
#319=ORIENTED_EDGE('',*,*,#562,.F.);
#320=ORIENTED_EDGE('',*,*,#608,.F.);
#321=ORIENTED_EDGE('',*,*,#470,.T.);
#322=ORIENTED_EDGE('',*,*,#557,.F.);
#323=ORIENTED_EDGE('',*,*,#601,.F.);
#324=ORIENTED_EDGE('',*,*,#463,.T.);
#325=ORIENTED_EDGE('',*,*,#577,.T.);
#326=ORIENTED_EDGE('',*,*,#559,.F.);
#327=ORIENTED_EDGE('',*,*,#576,.F.);
#328=ORIENTED_EDGE('',*,*,#473,.T.);
#329=ORIENTED_EDGE('',*,*,#602,.T.);
#330=ORIENTED_EDGE('',*,*,#553,.F.);
#331=ORIENTED_EDGE('',*,*,#599,.F.);
#332=ORIENTED_EDGE('',*,*,#455,.T.);
#333=ORIENTED_EDGE('',*,*,#582,.T.);
#334=ORIENTED_EDGE('',*,*,#555,.F.);
#335=ORIENTED_EDGE('',*,*,#581,.F.);
#336=ORIENTED_EDGE('',*,*,#465,.T.);
#337=ORIENTED_EDGE('',*,*,#600,.T.);
#338=ORIENTED_EDGE('',*,*,#549,.F.);
#339=ORIENTED_EDGE('',*,*,#596,.F.);
#340=ORIENTED_EDGE('',*,*,#492,.T.);
#341=ORIENTED_EDGE('',*,*,#613,.T.);
#342=ORIENTED_EDGE('',*,*,#551,.F.);
#343=ORIENTED_EDGE('',*,*,#614,.F.);
#344=ORIENTED_EDGE('',*,*,#457,.T.);
#345=ORIENTED_EDGE('',*,*,#598,.T.);
#346=ORIENTED_EDGE('',*,*,#615,.F.);
#347=ORIENTED_EDGE('',*,*,#616,.F.);
#348=ORIENTED_EDGE('',*,*,#617,.T.);
#349=ORIENTED_EDGE('',*,*,#450,.T.);
#350=ORIENTED_EDGE('',*,*,#614,.T.);
#351=ORIENTED_EDGE('',*,*,#550,.F.);
#352=ORIENTED_EDGE('',*,*,#613,.F.);
#353=ORIENTED_EDGE('',*,*,#491,.T.);
#354=ORIENTED_EDGE('',*,*,#618,.T.);
#355=ORIENTED_EDGE('',*,*,#583,.T.);
#356=ORIENTED_EDGE('',*,*,#453,.T.);
#357=ORIENTED_EDGE('',*,*,#585,.F.);
#358=ORIENTED_EDGE('',*,*,#500,.F.);
#359=ORIENTED_EDGE('',*,*,#538,.F.);
#360=ORIENTED_EDGE('',*,*,#536,.T.);
#361=ORIENTED_EDGE('',*,*,#502,.T.);
#362=ORIENTED_EDGE('',*,*,#586,.T.);
#363=ORIENTED_EDGE('',*,*,#459,.F.);
#364=ORIENTED_EDGE('',*,*,#580,.F.);
#365=ORIENTED_EDGE('',*,*,#619,.F.);
#366=ORIENTED_EDGE('',*,*,#619,.T.);
#367=ORIENTED_EDGE('',*,*,#579,.T.);
#368=ORIENTED_EDGE('',*,*,#618,.F.);
#369=ORIENTED_EDGE('',*,*,#537,.F.);
#370=ORIENTED_EDGE('',*,*,#535,.T.);
#371=ORIENTED_EDGE('',*,*,#620,.F.);
#372=ORIENTED_EDGE('',*,*,#578,.F.);
#373=ORIENTED_EDGE('',*,*,#461,.F.);
#374=ORIENTED_EDGE('',*,*,#587,.T.);
#375=ORIENTED_EDGE('',*,*,#504,.T.);
#376=ORIENTED_EDGE('',*,*,#533,.T.);
#377=ORIENTED_EDGE('',*,*,#506,.T.);
#378=ORIENTED_EDGE('',*,*,#588,.T.);
#379=ORIENTED_EDGE('',*,*,#467,.F.);
#380=ORIENTED_EDGE('',*,*,#575,.F.);
#381=ORIENTED_EDGE('',*,*,#621,.F.);
#382=ORIENTED_EDGE('',*,*,#621,.T.);
#383=ORIENTED_EDGE('',*,*,#574,.T.);
#384=ORIENTED_EDGE('',*,*,#620,.T.);
#385=ORIENTED_EDGE('',*,*,#534,.F.);
#386=ORIENTED_EDGE('',*,*,#622,.T.);
#387=ORIENTED_EDGE('',*,*,#573,.T.);
#388=ORIENTED_EDGE('',*,*,#477,.T.);
#389=ORIENTED_EDGE('',*,*,#591,.F.);
#390=ORIENTED_EDGE('',*,*,#512,.F.);
#391=ORIENTED_EDGE('',*,*,#529,.F.);
#392=ORIENTED_EDGE('',*,*,#527,.T.);
#393=ORIENTED_EDGE('',*,*,#514,.T.);
#394=ORIENTED_EDGE('',*,*,#592,.T.);
#395=ORIENTED_EDGE('',*,*,#483,.F.);
#396=ORIENTED_EDGE('',*,*,#570,.F.);
#397=ORIENTED_EDGE('',*,*,#623,.F.);
#398=ORIENTED_EDGE('',*,*,#623,.T.);
#399=ORIENTED_EDGE('',*,*,#569,.T.);
#400=ORIENTED_EDGE('',*,*,#622,.F.);
#401=ORIENTED_EDGE('',*,*,#528,.F.);
#402=ORIENTED_EDGE('',*,*,#624,.T.);
#403=ORIENTED_EDGE('',*,*,#568,.T.);
#404=ORIENTED_EDGE('',*,*,#485,.T.);
#405=ORIENTED_EDGE('',*,*,#593,.F.);
#406=ORIENTED_EDGE('',*,*,#516,.F.);
#407=ORIENTED_EDGE('',*,*,#526,.F.);
#408=ORIENTED_EDGE('',*,*,#524,.T.);
#409=ORIENTED_EDGE('',*,*,#521,.T.);
#410=ORIENTED_EDGE('',*,*,#595,.T.);
#411=ORIENTED_EDGE('',*,*,#496,.F.);
#412=ORIENTED_EDGE('',*,*,#565,.F.);
#413=ORIENTED_EDGE('',*,*,#625,.F.);
#414=ORIENTED_EDGE('',*,*,#625,.T.);
#415=ORIENTED_EDGE('',*,*,#564,.T.);
#416=ORIENTED_EDGE('',*,*,#624,.F.);
#417=ORIENTED_EDGE('',*,*,#525,.F.);
#418=ORIENTED_EDGE('',*,*,#626,.T.);
#419=ORIENTED_EDGE('',*,*,#610,.T.);
#420=ORIENTED_EDGE('',*,*,#469,.T.);
#421=ORIENTED_EDGE('',*,*,#589,.F.);
#422=ORIENTED_EDGE('',*,*,#508,.F.);
#423=ORIENTED_EDGE('',*,*,#532,.F.);
#424=ORIENTED_EDGE('',*,*,#530,.T.);
#425=ORIENTED_EDGE('',*,*,#510,.T.);
#426=ORIENTED_EDGE('',*,*,#590,.T.);
#427=ORIENTED_EDGE('',*,*,#475,.F.);
#428=ORIENTED_EDGE('',*,*,#612,.F.);
#429=ORIENTED_EDGE('',*,*,#627,.F.);
#430=ORIENTED_EDGE('',*,*,#627,.T.);
#431=ORIENTED_EDGE('',*,*,#611,.T.);
#432=ORIENTED_EDGE('',*,*,#626,.F.);
#433=ORIENTED_EDGE('',*,*,#531,.F.);
#434=ORIENTED_EDGE('',*,*,#628,.T.);
#435=ORIENTED_EDGE('',*,*,#616,.T.);
#436=ORIENTED_EDGE('',*,*,#629,.F.);
#437=ORIENTED_EDGE('',*,*,#522,.F.);
#438=ORIENTED_EDGE('',*,*,#629,.T.);
#439=ORIENTED_EDGE('',*,*,#615,.T.);
#440=ORIENTED_EDGE('',*,*,#490,.T.);
#441=ORIENTED_EDGE('',*,*,#594,.F.);
#442=ORIENTED_EDGE('',*,*,#519,.F.);
#443=ORIENTED_EDGE('',*,*,#523,.F.);
#444=ORIENTED_EDGE('',*,*,#539,.T.);
#445=ORIENTED_EDGE('',*,*,#498,.T.);
#446=ORIENTED_EDGE('',*,*,#584,.T.);
#447=ORIENTED_EDGE('',*,*,#451,.F.);
#448=ORIENTED_EDGE('',*,*,#617,.F.);
#449=ORIENTED_EDGE('',*,*,#628,.F.);
#450=EDGE_CURVE('',#630,#631,#750,.T.);
#451=EDGE_CURVE('',#630,#632,#751,.T.);
#452=EDGE_CURVE('',#633,#632,#36,.F.);
#453=EDGE_CURVE('',#634,#633,#752,.T.);
#454=EDGE_CURVE('',#635,#634,#753,.T.);
#455=EDGE_CURVE('',#636,#635,#754,.T.);
#456=EDGE_CURVE('',#637,#636,#37,.T.);
#457=EDGE_CURVE('',#631,#637,#755,.T.);
#458=EDGE_CURVE('',#638,#639,#756,.T.);
#459=EDGE_CURVE('',#638,#640,#757,.T.);
#460=EDGE_CURVE('',#641,#640,#38,.F.);
#461=EDGE_CURVE('',#641,#642,#758,.T.);
#462=EDGE_CURVE('',#643,#642,#759,.T.);
#463=EDGE_CURVE('',#644,#643,#760,.T.);
#464=EDGE_CURVE('',#645,#644,#39,.T.);
#465=EDGE_CURVE('',#639,#645,#761,.T.);
#466=EDGE_CURVE('',#646,#647,#762,.T.);
#467=EDGE_CURVE('',#646,#648,#763,.T.);
#468=EDGE_CURVE('',#649,#648,#40,.F.);
#469=EDGE_CURVE('',#650,#649,#764,.T.);
#470=EDGE_CURVE('',#651,#650,#765,.T.);
#471=EDGE_CURVE('',#652,#651,#766,.T.);
#472=EDGE_CURVE('',#653,#652,#41,.T.);
#473=EDGE_CURVE('',#647,#653,#767,.T.);
#474=EDGE_CURVE('',#654,#655,#768,.T.);
#475=EDGE_CURVE('',#654,#656,#769,.T.);
#476=EDGE_CURVE('',#657,#656,#42,.F.);
#477=EDGE_CURVE('',#658,#657,#770,.T.);
#478=EDGE_CURVE('',#659,#658,#771,.T.);
#479=EDGE_CURVE('',#660,#659,#772,.T.);
#480=EDGE_CURVE('',#661,#660,#43,.T.);
#481=EDGE_CURVE('',#655,#661,#773,.T.);
#482=EDGE_CURVE('',#662,#663,#774,.T.);
#483=EDGE_CURVE('',#662,#664,#775,.T.);
#484=EDGE_CURVE('',#665,#664,#44,.F.);
#485=EDGE_CURVE('',#666,#665,#776,.T.);
#486=EDGE_CURVE('',#667,#666,#777,.T.);
#487=EDGE_CURVE('',#668,#667,#778,.T.);
#488=EDGE_CURVE('',#669,#668,#45,.T.);
#489=EDGE_CURVE('',#663,#669,#779,.T.);
#490=EDGE_CURVE('',#670,#671,#780,.T.);
#491=EDGE_CURVE('',#672,#670,#781,.T.);
#492=EDGE_CURVE('',#673,#672,#782,.T.);
#493=EDGE_CURVE('',#674,#673,#46,.T.);
#494=EDGE_CURVE('',#675,#674,#783,.T.);
#495=EDGE_CURVE('',#676,#675,#784,.T.);
#496=EDGE_CURVE('',#676,#677,#785,.T.);
#497=EDGE_CURVE('',#671,#677,#47,.F.);
#498=EDGE_CURVE('',#678,#679,#786,.F.);
#499=EDGE_CURVE('',#678,#680,#48,.T.);
#500=EDGE_CURVE('',#680,#681,#787,.F.);
#501=EDGE_CURVE('',#681,#679,#49,.T.);
#502=EDGE_CURVE('',#682,#683,#788,.F.);
#503=EDGE_CURVE('',#682,#684,#50,.T.);
#504=EDGE_CURVE('',#685,#684,#789,.T.);
#505=EDGE_CURVE('',#685,#683,#51,.T.);
#506=EDGE_CURVE('',#686,#687,#790,.F.);
#507=EDGE_CURVE('',#686,#688,#52,.T.);
#508=EDGE_CURVE('',#688,#689,#791,.F.);
#509=EDGE_CURVE('',#689,#687,#53,.T.);
#510=EDGE_CURVE('',#690,#691,#792,.F.);
#511=EDGE_CURVE('',#690,#692,#54,.T.);
#512=EDGE_CURVE('',#692,#693,#793,.F.);
#513=EDGE_CURVE('',#693,#691,#55,.T.);
#514=EDGE_CURVE('',#694,#695,#794,.F.);
#515=EDGE_CURVE('',#694,#696,#56,.T.);
#516=EDGE_CURVE('',#696,#697,#795,.F.);
#517=EDGE_CURVE('',#697,#695,#57,.T.);
#518=EDGE_CURVE('',#698,#699,#58,.T.);
#519=EDGE_CURVE('',#699,#700,#796,.F.);
#520=EDGE_CURVE('',#700,#701,#59,.T.);
#521=EDGE_CURVE('',#698,#701,#797,.F.);
#522=EDGE_CURVE('',#702,#703,#798,.F.);
#523=EDGE_CURVE('',#703,#699,#799,.T.);
#524=EDGE_CURVE('',#704,#698,#800,.T.);
#525=EDGE_CURVE('',#704,#705,#801,.F.);
#526=EDGE_CURVE('',#705,#696,#802,.T.);
#527=EDGE_CURVE('',#706,#694,#803,.T.);
#528=EDGE_CURVE('',#706,#707,#804,.F.);
#529=EDGE_CURVE('',#707,#692,#805,.T.);
#530=EDGE_CURVE('',#708,#690,#806,.T.);
#531=EDGE_CURVE('',#708,#709,#807,.F.);
#532=EDGE_CURVE('',#709,#688,#808,.T.);
#533=EDGE_CURVE('',#710,#686,#809,.T.);
#534=EDGE_CURVE('',#710,#711,#810,.T.);
#535=EDGE_CURVE('',#684,#711,#811,.T.);
#536=EDGE_CURVE('',#712,#682,#812,.T.);
#537=EDGE_CURVE('',#712,#713,#813,.F.);
#538=EDGE_CURVE('',#713,#680,#814,.T.);
#539=EDGE_CURVE('',#702,#678,#815,.T.);
#540=EDGE_CURVE('',#714,#715,#60,.T.);
#541=EDGE_CURVE('',#715,#716,#816,.T.);
#542=EDGE_CURVE('',#716,#717,#817,.T.);
#543=EDGE_CURVE('',#717,#718,#818,.T.);
#544=EDGE_CURVE('',#718,#719,#61,.T.);
#545=EDGE_CURVE('',#719,#720,#819,.T.);
#546=EDGE_CURVE('',#720,#721,#820,.T.);
#547=EDGE_CURVE('',#721,#722,#821,.T.);
#548=EDGE_CURVE('',#722,#723,#62,.T.);
#549=EDGE_CURVE('',#723,#724,#822,.T.);
#550=EDGE_CURVE('',#724,#725,#823,.T.);
#551=EDGE_CURVE('',#725,#726,#824,.T.);
#552=EDGE_CURVE('',#726,#727,#63,.T.);
#553=EDGE_CURVE('',#727,#728,#825,.T.);
#554=EDGE_CURVE('',#728,#729,#826,.T.);
#555=EDGE_CURVE('',#729,#730,#827,.T.);
#556=EDGE_CURVE('',#730,#731,#64,.T.);
#557=EDGE_CURVE('',#731,#732,#828,.T.);
#558=EDGE_CURVE('',#732,#733,#829,.T.);
#559=EDGE_CURVE('',#733,#734,#830,.T.);
#560=EDGE_CURVE('',#734,#735,#65,.T.);
#561=EDGE_CURVE('',#735,#736,#831,.T.);
#562=EDGE_CURVE('',#736,#737,#832,.T.);
#563=EDGE_CURVE('',#737,#714,#833,.T.);
#564=EDGE_CURVE('',#738,#739,#834,.F.);
#565=EDGE_CURVE('',#738,#676,#835,.T.);
#566=EDGE_CURVE('',#675,#721,#836,.T.);
#567=EDGE_CURVE('',#667,#720,#837,.T.);
#568=EDGE_CURVE('',#739,#666,#838,.T.);
#569=EDGE_CURVE('',#740,#741,#839,.F.);
#570=EDGE_CURVE('',#740,#662,#840,.T.);
#571=EDGE_CURVE('',#663,#717,#841,.T.);
#572=EDGE_CURVE('',#659,#716,#842,.T.);
#573=EDGE_CURVE('',#741,#658,#843,.T.);
#574=EDGE_CURVE('',#742,#743,#844,.T.);
#575=EDGE_CURVE('',#742,#646,#845,.T.);
#576=EDGE_CURVE('',#647,#733,#846,.T.);
#577=EDGE_CURVE('',#643,#732,#847,.T.);
#578=EDGE_CURVE('',#642,#743,#848,.T.);
#579=EDGE_CURVE('',#744,#745,#849,.F.);
#580=EDGE_CURVE('',#744,#638,#850,.T.);
#581=EDGE_CURVE('',#639,#729,#851,.T.);
#582=EDGE_CURVE('',#635,#728,#852,.T.);
#583=EDGE_CURVE('',#745,#634,#853,.T.);
#584=EDGE_CURVE('',#679,#632,#66,.T.);
#585=EDGE_CURVE('',#681,#633,#67,.T.);
#586=EDGE_CURVE('',#683,#640,#68,.T.);
#587=EDGE_CURVE('',#641,#685,#69,.T.);
#588=EDGE_CURVE('',#687,#648,#70,.T.);
#589=EDGE_CURVE('',#689,#649,#71,.T.);
#590=EDGE_CURVE('',#691,#656,#72,.T.);
#591=EDGE_CURVE('',#693,#657,#73,.T.);
#592=EDGE_CURVE('',#695,#664,#74,.T.);
#593=EDGE_CURVE('',#697,#665,#75,.T.);
#594=EDGE_CURVE('',#700,#671,#76,.T.);
#595=EDGE_CURVE('',#701,#677,#77,.T.);
#596=EDGE_CURVE('',#673,#723,#854,.T.);
#597=EDGE_CURVE('',#674,#722,#855,.T.);
#598=EDGE_CURVE('',#637,#726,#856,.T.);
#599=EDGE_CURVE('',#636,#727,#857,.T.);
#600=EDGE_CURVE('',#645,#730,#858,.T.);
#601=EDGE_CURVE('',#644,#731,#859,.T.);
#602=EDGE_CURVE('',#653,#734,#860,.T.);
#603=EDGE_CURVE('',#652,#735,#861,.T.);
#604=EDGE_CURVE('',#661,#714,#862,.T.);
#605=EDGE_CURVE('',#660,#715,#863,.T.);
#606=EDGE_CURVE('',#669,#718,#864,.T.);
#607=EDGE_CURVE('',#668,#719,#865,.T.);
#608=EDGE_CURVE('',#651,#736,#866,.T.);
#609=EDGE_CURVE('',#655,#737,#867,.T.);
#610=EDGE_CURVE('',#746,#650,#868,.T.);
#611=EDGE_CURVE('',#747,#746,#869,.F.);
#612=EDGE_CURVE('',#747,#654,#870,.T.);
#613=EDGE_CURVE('',#672,#724,#871,.T.);
#614=EDGE_CURVE('',#631,#725,#872,.T.);
#615=EDGE_CURVE('',#748,#670,#873,.T.);
#616=EDGE_CURVE('',#749,#748,#874,.F.);
#617=EDGE_CURVE('',#749,#630,#875,.T.);
#618=EDGE_CURVE('',#713,#745,#78,.T.);
#619=EDGE_CURVE('',#712,#744,#79,.T.);
#620=EDGE_CURVE('',#743,#711,#80,.T.);
#621=EDGE_CURVE('',#710,#742,#81,.T.);
#622=EDGE_CURVE('',#707,#741,#82,.T.);
#623=EDGE_CURVE('',#706,#740,#83,.T.);
#624=EDGE_CURVE('',#705,#739,#84,.T.);
#625=EDGE_CURVE('',#704,#738,#85,.T.);
#626=EDGE_CURVE('',#709,#746,#86,.T.);
#627=EDGE_CURVE('',#708,#747,#87,.T.);
#628=EDGE_CURVE('',#702,#749,#88,.T.);
#629=EDGE_CURVE('',#703,#748,#89,.T.);
#630=VERTEX_POINT('',#1713);
#631=VERTEX_POINT('',#1714);
#632=VERTEX_POINT('',#1716);
#633=VERTEX_POINT('',#1718);
#634=VERTEX_POINT('',#1720);
#635=VERTEX_POINT('',#1722);
#636=VERTEX_POINT('',#1724);
#637=VERTEX_POINT('',#1726);
#638=VERTEX_POINT('',#1730);
#639=VERTEX_POINT('',#1731);
#640=VERTEX_POINT('',#1733);
#641=VERTEX_POINT('',#1735);
#642=VERTEX_POINT('',#1737);
#643=VERTEX_POINT('',#1739);
#644=VERTEX_POINT('',#1741);
#645=VERTEX_POINT('',#1743);
#646=VERTEX_POINT('',#1747);
#647=VERTEX_POINT('',#1748);
#648=VERTEX_POINT('',#1750);
#649=VERTEX_POINT('',#1752);
#650=VERTEX_POINT('',#1754);
#651=VERTEX_POINT('',#1756);
#652=VERTEX_POINT('',#1758);
#653=VERTEX_POINT('',#1760);
#654=VERTEX_POINT('',#1764);
#655=VERTEX_POINT('',#1765);
#656=VERTEX_POINT('',#1767);
#657=VERTEX_POINT('',#1769);
#658=VERTEX_POINT('',#1771);
#659=VERTEX_POINT('',#1773);
#660=VERTEX_POINT('',#1775);
#661=VERTEX_POINT('',#1777);
#662=VERTEX_POINT('',#1781);
#663=VERTEX_POINT('',#1782);
#664=VERTEX_POINT('',#1784);
#665=VERTEX_POINT('',#1786);
#666=VERTEX_POINT('',#1788);
#667=VERTEX_POINT('',#1790);
#668=VERTEX_POINT('',#1792);
#669=VERTEX_POINT('',#1794);
#670=VERTEX_POINT('',#1798);
#671=VERTEX_POINT('',#1799);
#672=VERTEX_POINT('',#1801);
#673=VERTEX_POINT('',#1803);
#674=VERTEX_POINT('',#1805);
#675=VERTEX_POINT('',#1807);
#676=VERTEX_POINT('',#1809);
#677=VERTEX_POINT('',#1811);
#678=VERTEX_POINT('',#1815);
#679=VERTEX_POINT('',#1816);
#680=VERTEX_POINT('',#1818);
#681=VERTEX_POINT('',#1820);
#682=VERTEX_POINT('',#1824);
#683=VERTEX_POINT('',#1825);
#684=VERTEX_POINT('',#1827);
#685=VERTEX_POINT('',#1829);
#686=VERTEX_POINT('',#1833);
#687=VERTEX_POINT('',#1834);
#688=VERTEX_POINT('',#1836);
#689=VERTEX_POINT('',#1838);
#690=VERTEX_POINT('',#1842);
#691=VERTEX_POINT('',#1843);
#692=VERTEX_POINT('',#1845);
#693=VERTEX_POINT('',#1847);
#694=VERTEX_POINT('',#1851);
#695=VERTEX_POINT('',#1852);
#696=VERTEX_POINT('',#1854);
#697=VERTEX_POINT('',#1856);
#698=VERTEX_POINT('',#1860);
#699=VERTEX_POINT('',#1861);
#700=VERTEX_POINT('',#1863);
#701=VERTEX_POINT('',#1865);
#702=VERTEX_POINT('',#1869);
#703=VERTEX_POINT('',#1870);
#704=VERTEX_POINT('',#1873);
#705=VERTEX_POINT('',#1875);
#706=VERTEX_POINT('',#1878);
#707=VERTEX_POINT('',#1880);
#708=VERTEX_POINT('',#1883);
#709=VERTEX_POINT('',#1885);
#710=VERTEX_POINT('',#1888);
#711=VERTEX_POINT('',#1890);
#712=VERTEX_POINT('',#1893);
#713=VERTEX_POINT('',#1895);
#714=VERTEX_POINT('',#1899);
#715=VERTEX_POINT('',#1900);
#716=VERTEX_POINT('',#1902);
#717=VERTEX_POINT('',#1904);
#718=VERTEX_POINT('',#1906);
#719=VERTEX_POINT('',#1908);
#720=VERTEX_POINT('',#1910);
#721=VERTEX_POINT('',#1912);
#722=VERTEX_POINT('',#1914);
#723=VERTEX_POINT('',#1916);
#724=VERTEX_POINT('',#1918);
#725=VERTEX_POINT('',#1920);
#726=VERTEX_POINT('',#1922);
#727=VERTEX_POINT('',#1924);
#728=VERTEX_POINT('',#1926);
#729=VERTEX_POINT('',#1928);
#730=VERTEX_POINT('',#1930);
#731=VERTEX_POINT('',#1932);
#732=VERTEX_POINT('',#1934);
#733=VERTEX_POINT('',#1936);
#734=VERTEX_POINT('',#1938);
#735=VERTEX_POINT('',#1940);
#736=VERTEX_POINT('',#1942);
#737=VERTEX_POINT('',#1944);
#738=VERTEX_POINT('',#1948);
#739=VERTEX_POINT('',#1949);
#740=VERTEX_POINT('',#1956);
#741=VERTEX_POINT('',#1957);
#742=VERTEX_POINT('',#1964);
#743=VERTEX_POINT('',#1965);
#744=VERTEX_POINT('',#1972);
#745=VERTEX_POINT('',#1973);
#746=VERTEX_POINT('',#2024);
#747=VERTEX_POINT('',#2026);
#748=VERTEX_POINT('',#2038);
#749=VERTEX_POINT('',#2040);
#750=LINE('',#1712,#876);
#751=LINE('',#1715,#877);
#752=LINE('',#1719,#878);
#753=LINE('',#1721,#879);
#754=LINE('',#1723,#880);
#755=LINE('',#1727,#881);
#756=LINE('',#1729,#882);
#757=LINE('',#1732,#883);
#758=LINE('',#1736,#884);
#759=LINE('',#1738,#885);
#760=LINE('',#1740,#886);
#761=LINE('',#1744,#887);
#762=LINE('',#1746,#888);
#763=LINE('',#1749,#889);
#764=LINE('',#1753,#890);
#765=LINE('',#1755,#891);
#766=LINE('',#1757,#892);
#767=LINE('',#1761,#893);
#768=LINE('',#1763,#894);
#769=LINE('',#1766,#895);
#770=LINE('',#1770,#896);
#771=LINE('',#1772,#897);
#772=LINE('',#1774,#898);
#773=LINE('',#1778,#899);
#774=LINE('',#1780,#900);
#775=LINE('',#1783,#901);
#776=LINE('',#1787,#902);
#777=LINE('',#1789,#903);
#778=LINE('',#1791,#904);
#779=LINE('',#1795,#905);
#780=LINE('',#1797,#906);
#781=LINE('',#1800,#907);
#782=LINE('',#1802,#908);
#783=LINE('',#1806,#909);
#784=LINE('',#1808,#910);
#785=LINE('',#1810,#911);
#786=LINE('',#1814,#912);
#787=LINE('',#1819,#913);
#788=LINE('',#1823,#914);
#789=LINE('',#1828,#915);
#790=LINE('',#1832,#916);
#791=LINE('',#1837,#917);
#792=LINE('',#1841,#918);
#793=LINE('',#1846,#919);
#794=LINE('',#1850,#920);
#795=LINE('',#1855,#921);
#796=LINE('',#1862,#922);
#797=LINE('',#1866,#923);
#798=LINE('',#1868,#924);
#799=LINE('',#1871,#925);
#800=LINE('',#1872,#926);
#801=LINE('',#1874,#927);
#802=LINE('',#1876,#928);
#803=LINE('',#1877,#929);
#804=LINE('',#1879,#930);
#805=LINE('',#1881,#931);
#806=LINE('',#1882,#932);
#807=LINE('',#1884,#933);
#808=LINE('',#1886,#934);
#809=LINE('',#1887,#935);
#810=LINE('',#1889,#936);
#811=LINE('',#1891,#937);
#812=LINE('',#1892,#938);
#813=LINE('',#1894,#939);
#814=LINE('',#1896,#940);
#815=LINE('',#1897,#941);
#816=LINE('',#1901,#942);
#817=LINE('',#1903,#943);
#818=LINE('',#1905,#944);
#819=LINE('',#1909,#945);
#820=LINE('',#1911,#946);
#821=LINE('',#1913,#947);
#822=LINE('',#1917,#948);
#823=LINE('',#1919,#949);
#824=LINE('',#1921,#950);
#825=LINE('',#1925,#951);
#826=LINE('',#1927,#952);
#827=LINE('',#1929,#953);
#828=LINE('',#1933,#954);
#829=LINE('',#1935,#955);
#830=LINE('',#1937,#956);
#831=LINE('',#1941,#957);
#832=LINE('',#1943,#958);
#833=LINE('',#1945,#959);
#834=LINE('',#1947,#960);
#835=LINE('',#1950,#961);
#836=LINE('',#1951,#962);
#837=LINE('',#1952,#963);
#838=LINE('',#1953,#964);
#839=LINE('',#1955,#965);
#840=LINE('',#1958,#966);
#841=LINE('',#1959,#967);
#842=LINE('',#1960,#968);
#843=LINE('',#1961,#969);
#844=LINE('',#1963,#970);
#845=LINE('',#1966,#971);
#846=LINE('',#1967,#972);
#847=LINE('',#1968,#973);
#848=LINE('',#1969,#974);
#849=LINE('',#1971,#975);
#850=LINE('',#1974,#976);
#851=LINE('',#1975,#977);
#852=LINE('',#1976,#978);
#853=LINE('',#1977,#979);
#854=LINE('',#1997,#980);
#855=LINE('',#1998,#981);
#856=LINE('',#2000,#982);
#857=LINE('',#2001,#983);
#858=LINE('',#2003,#984);
#859=LINE('',#2004,#985);
#860=LINE('',#2006,#986);
#861=LINE('',#2007,#987);
#862=LINE('',#2009,#988);
#863=LINE('',#2010,#989);
#864=LINE('',#2012,#990);
#865=LINE('',#2013,#991);
#866=LINE('',#2019,#992);
#867=LINE('',#2021,#993);
#868=LINE('',#2023,#994);
#869=LINE('',#2025,#995);
#870=LINE('',#2027,#996);
#871=LINE('',#2033,#997);
#872=LINE('',#2035,#998);
#873=LINE('',#2037,#999);
#874=LINE('',#2039,#1000);
#875=LINE('',#2041,#1001);
#876=VECTOR('',#1356,1.);
#877=VECTOR('',#1357,1.);
#878=VECTOR('',#1360,1.);
#879=VECTOR('',#1361,1.);
#880=VECTOR('',#1362,1.);
#881=VECTOR('',#1365,1.);
#882=VECTOR('',#1368,1.);
#883=VECTOR('',#1369,1.);
#884=VECTOR('',#1372,1.);
#885=VECTOR('',#1373,1.);
#886=VECTOR('',#1374,1.);
#887=VECTOR('',#1377,1.);
#888=VECTOR('',#1380,1.);
#889=VECTOR('',#1381,1.);
#890=VECTOR('',#1384,1.);
#891=VECTOR('',#1385,1.);
#892=VECTOR('',#1386,1.);
#893=VECTOR('',#1389,1.);
#894=VECTOR('',#1392,1.);
#895=VECTOR('',#1393,1.);
#896=VECTOR('',#1396,1.);
#897=VECTOR('',#1397,1.);
#898=VECTOR('',#1398,1.);
#899=VECTOR('',#1401,1.);
#900=VECTOR('',#1404,1.);
#901=VECTOR('',#1405,1.);
#902=VECTOR('',#1408,1.);
#903=VECTOR('',#1409,1.);
#904=VECTOR('',#1410,1.);
#905=VECTOR('',#1413,1.);
#906=VECTOR('',#1416,1.);
#907=VECTOR('',#1417,1.);
#908=VECTOR('',#1418,1.);
#909=VECTOR('',#1421,1.);
#910=VECTOR('',#1422,1.);
#911=VECTOR('',#1423,1.);
#912=VECTOR('',#1428,1.);
#913=VECTOR('',#1431,1.);
#914=VECTOR('',#1436,1.);
#915=VECTOR('',#1439,1.);
#916=VECTOR('',#1444,1.);
#917=VECTOR('',#1447,1.);
#918=VECTOR('',#1452,1.);
#919=VECTOR('',#1455,1.);
#920=VECTOR('',#1460,1.);
#921=VECTOR('',#1463,1.);
#922=VECTOR('',#1470,1.);
#923=VECTOR('',#1473,1.);
#924=VECTOR('',#1476,1.);
#925=VECTOR('',#1477,1.);
#926=VECTOR('',#1478,1.);
#927=VECTOR('',#1479,1.);
#928=VECTOR('',#1480,1.);
#929=VECTOR('',#1481,1.);
#930=VECTOR('',#1482,1.);
#931=VECTOR('',#1483,1.);
#932=VECTOR('',#1484,1.);
#933=VECTOR('',#1485,1.);
#934=VECTOR('',#1486,1.);
#935=VECTOR('',#1487,1.);
#936=VECTOR('',#1488,1.);
#937=VECTOR('',#1489,1.);
#938=VECTOR('',#1490,1.);
#939=VECTOR('',#1491,1.);
#940=VECTOR('',#1492,1.);
#941=VECTOR('',#1493,1.);
#942=VECTOR('',#1496,1.);
#943=VECTOR('',#1497,1.);
#944=VECTOR('',#1498,1.);
#945=VECTOR('',#1501,1.);
#946=VECTOR('',#1502,1.);
#947=VECTOR('',#1503,1.);
#948=VECTOR('',#1506,1.);
#949=VECTOR('',#1507,1.);
#950=VECTOR('',#1508,1.);
#951=VECTOR('',#1511,1.);
#952=VECTOR('',#1512,1.);
#953=VECTOR('',#1513,1.);
#954=VECTOR('',#1516,1.);
#955=VECTOR('',#1517,1.);
#956=VECTOR('',#1518,1.);
#957=VECTOR('',#1521,1.);
#958=VECTOR('',#1522,1.);
#959=VECTOR('',#1523,1.);
#960=VECTOR('',#1526,1.);
#961=VECTOR('',#1527,1.);
#962=VECTOR('',#1528,1.);
#963=VECTOR('',#1529,1.);
#964=VECTOR('',#1530,1.);
#965=VECTOR('',#1533,1.);
#966=VECTOR('',#1534,1.);
#967=VECTOR('',#1535,1.);
#968=VECTOR('',#1536,1.);
#969=VECTOR('',#1537,1.);
#970=VECTOR('',#1540,1.);
#971=VECTOR('',#1541,1.);
#972=VECTOR('',#1542,1.);
#973=VECTOR('',#1543,1.);
#974=VECTOR('',#1544,1.);
#975=VECTOR('',#1547,1.);
#976=VECTOR('',#1548,1.);
#977=VECTOR('',#1549,1.);
#978=VECTOR('',#1550,1.);
#979=VECTOR('',#1551,1.);
#980=VECTOR('',#1590,1.);
#981=VECTOR('',#1591,1.);
#982=VECTOR('',#1594,1.);
#983=VECTOR('',#1595,1.);
#984=VECTOR('',#1598,1.);
#985=VECTOR('',#1599,1.);
#986=VECTOR('',#1602,1.);
#987=VECTOR('',#1603,1.);
#988=VECTOR('',#1606,1.);
#989=VECTOR('',#1607,1.);
#990=VECTOR('',#1610,1.);
#991=VECTOR('',#1611,1.);
#992=VECTOR('',#1622,1.);
#993=VECTOR('',#1625,1.);
#994=VECTOR('',#1628,1.);
#995=VECTOR('',#1629,1.);
#996=VECTOR('',#1630,1.);
#997=VECTOR('',#1641,1.);
#998=VECTOR('',#1644,1.);
#999=VECTOR('',#1647,1.);
#1000=VECTOR('',#1648,1.);
#1001=VECTOR('',#1649,1.);
#1002=EDGE_LOOP('',(#90,#91,#92,#93,#94,#95,#96,#97));
#1003=EDGE_LOOP('',(#98,#99,#100,#101,#102,#103,#104,#105));
#1004=EDGE_LOOP('',(#106,#107,#108,#109,#110,#111,#112,#113));
#1005=EDGE_LOOP('',(#114,#115,#116,#117,#118,#119,#120,#121));
#1006=EDGE_LOOP('',(#122,#123,#124,#125,#126,#127,#128,#129));
#1007=EDGE_LOOP('',(#130,#131,#132,#133,#134,#135,#136,#137));
#1008=EDGE_LOOP('',(#138,#139,#140,#141));
#1009=EDGE_LOOP('',(#142,#143,#144,#145));
#1010=EDGE_LOOP('',(#146,#147,#148,#149));
#1011=EDGE_LOOP('',(#150,#151,#152,#153));
#1012=EDGE_LOOP('',(#154,#155,#156,#157));
#1013=EDGE_LOOP('',(#158,#159,#160,#161));
#1014=EDGE_LOOP('',(#162,#163,#164,#165,#166,#167,#168,#169,#170,#171,#172,
#173,#174,#175,#176,#177,#178,#179,#180,#181,#182,#183,#184,#185));
#1015=EDGE_LOOP('',(#186,#187,#188,#189,#190,#191,#192,#193,#194,#195,#196,
#197,#198,#199,#200,#201,#202,#203,#204,#205,#206,#207,#208,#209));
#1016=EDGE_LOOP('',(#210,#211,#212,#213,#214,#215,#216,#217));
#1017=EDGE_LOOP('',(#218,#219,#220,#221,#222,#223,#224,#225));
#1018=EDGE_LOOP('',(#226,#227,#228,#229,#230,#231,#232,#233));
#1019=EDGE_LOOP('',(#234,#235,#236,#237,#238,#239,#240,#241));
#1020=EDGE_LOOP('',(#242,#243,#244,#245));
#1021=EDGE_LOOP('',(#246,#247,#248,#249));
#1022=EDGE_LOOP('',(#250,#251,#252,#253));
#1023=EDGE_LOOP('',(#254,#255,#256,#257));
#1024=EDGE_LOOP('',(#258,#259,#260,#261));
#1025=EDGE_LOOP('',(#262,#263,#264,#265));
#1026=EDGE_LOOP('',(#266,#267,#268,#269));
#1027=EDGE_LOOP('',(#270,#271,#272,#273));
#1028=EDGE_LOOP('',(#274,#275,#276,#277));
#1029=EDGE_LOOP('',(#278,#279,#280,#281));
#1030=EDGE_LOOP('',(#282,#283,#284,#285));
#1031=EDGE_LOOP('',(#286,#287,#288,#289));
#1032=EDGE_LOOP('',(#290,#291,#292,#293));
#1033=EDGE_LOOP('',(#294,#295,#296,#297));
#1034=EDGE_LOOP('',(#298,#299,#300,#301));
#1035=EDGE_LOOP('',(#302,#303,#304,#305));
#1036=EDGE_LOOP('',(#306,#307,#308,#309));
#1037=EDGE_LOOP('',(#310,#311,#312,#313));
#1038=EDGE_LOOP('',(#314,#315,#316,#317,#318,#319,#320,#321));
#1039=EDGE_LOOP('',(#322,#323,#324,#325));
#1040=EDGE_LOOP('',(#326,#327,#328,#329));
#1041=EDGE_LOOP('',(#330,#331,#332,#333));
#1042=EDGE_LOOP('',(#334,#335,#336,#337));
#1043=EDGE_LOOP('',(#338,#339,#340,#341));
#1044=EDGE_LOOP('',(#342,#343,#344,#345));
#1045=EDGE_LOOP('',(#346,#347,#348,#349,#350,#351,#352,#353));
#1046=EDGE_LOOP('',(#354,#355,#356,#357,#358,#359));
#1047=EDGE_LOOP('',(#360,#361,#362,#363,#364,#365));
#1048=EDGE_LOOP('',(#366,#367,#368,#369));
#1049=EDGE_LOOP('',(#370,#371,#372,#373,#374,#375));
#1050=EDGE_LOOP('',(#376,#377,#378,#379,#380,#381));
#1051=EDGE_LOOP('',(#382,#383,#384,#385));
#1052=EDGE_LOOP('',(#386,#387,#388,#389,#390,#391));
#1053=EDGE_LOOP('',(#392,#393,#394,#395,#396,#397));
#1054=EDGE_LOOP('',(#398,#399,#400,#401));
#1055=EDGE_LOOP('',(#402,#403,#404,#405,#406,#407));
#1056=EDGE_LOOP('',(#408,#409,#410,#411,#412,#413));
#1057=EDGE_LOOP('',(#414,#415,#416,#417));
#1058=EDGE_LOOP('',(#418,#419,#420,#421,#422,#423));
#1059=EDGE_LOOP('',(#424,#425,#426,#427,#428,#429));
#1060=EDGE_LOOP('',(#430,#431,#432,#433));
#1061=EDGE_LOOP('',(#434,#435,#436,#437));
#1062=EDGE_LOOP('',(#438,#439,#440,#441,#442,#443));
#1063=EDGE_LOOP('',(#444,#445,#446,#447,#448,#449));
#1064=FACE_BOUND('',#1002,.T.);
#1065=FACE_BOUND('',#1003,.T.);
#1066=FACE_BOUND('',#1004,.T.);
#1067=FACE_BOUND('',#1005,.T.);
#1068=FACE_BOUND('',#1006,.T.);
#1069=FACE_BOUND('',#1007,.T.);
#1070=FACE_BOUND('',#1008,.T.);
#1071=FACE_BOUND('',#1009,.T.);
#1072=FACE_BOUND('',#1010,.T.);
#1073=FACE_BOUND('',#1011,.T.);
#1074=FACE_BOUND('',#1012,.T.);
#1075=FACE_BOUND('',#1013,.T.);
#1076=FACE_BOUND('',#1014,.T.);
#1077=FACE_BOUND('',#1015,.T.);
#1078=FACE_BOUND('',#1016,.T.);
#1079=FACE_BOUND('',#1017,.T.);
#1080=FACE_BOUND('',#1018,.T.);
#1081=FACE_BOUND('',#1019,.T.);
#1082=FACE_BOUND('',#1020,.T.);
#1083=FACE_BOUND('',#1021,.T.);
#1084=FACE_BOUND('',#1022,.T.);
#1085=FACE_BOUND('',#1023,.T.);
#1086=FACE_BOUND('',#1024,.T.);
#1087=FACE_BOUND('',#1025,.T.);
#1088=FACE_BOUND('',#1026,.T.);
#1089=FACE_BOUND('',#1027,.T.);
#1090=FACE_BOUND('',#1028,.T.);
#1091=FACE_BOUND('',#1029,.T.);
#1092=FACE_BOUND('',#1030,.T.);
#1093=FACE_BOUND('',#1031,.T.);
#1094=FACE_BOUND('',#1032,.T.);
#1095=FACE_BOUND('',#1033,.T.);
#1096=FACE_BOUND('',#1034,.T.);
#1097=FACE_BOUND('',#1035,.T.);
#1098=FACE_BOUND('',#1036,.T.);
#1099=FACE_BOUND('',#1037,.T.);
#1100=FACE_BOUND('',#1038,.T.);
#1101=FACE_BOUND('',#1039,.T.);
#1102=FACE_BOUND('',#1040,.T.);
#1103=FACE_BOUND('',#1041,.T.);
#1104=FACE_BOUND('',#1042,.T.);
#1105=FACE_BOUND('',#1043,.T.);
#1106=FACE_BOUND('',#1044,.T.);
#1107=FACE_BOUND('',#1045,.T.);
#1108=FACE_BOUND('',#1046,.T.);
#1109=FACE_BOUND('',#1047,.T.);
#1110=FACE_BOUND('',#1048,.T.);
#1111=FACE_BOUND('',#1049,.T.);
#1112=FACE_BOUND('',#1050,.T.);
#1113=FACE_BOUND('',#1051,.T.);
#1114=FACE_BOUND('',#1052,.T.);
#1115=FACE_BOUND('',#1053,.T.);
#1116=FACE_BOUND('',#1054,.T.);
#1117=FACE_BOUND('',#1055,.T.);
#1118=FACE_BOUND('',#1056,.T.);
#1119=FACE_BOUND('',#1057,.T.);
#1120=FACE_BOUND('',#1058,.T.);
#1121=FACE_BOUND('',#1059,.T.);
#1122=FACE_BOUND('',#1060,.T.);
#1123=FACE_BOUND('',#1061,.T.);
#1124=FACE_BOUND('',#1062,.T.);
#1125=FACE_BOUND('',#1063,.T.);
#1126=PLANE('',#1237);
#1127=PLANE('',#1240);
#1128=PLANE('',#1243);
#1129=PLANE('',#1246);
#1130=PLANE('',#1249);
#1131=PLANE('',#1252);
#1132=PLANE('',#1273);
#1133=PLANE('',#1280);
#1134=PLANE('',#1281);
#1135=PLANE('',#1282);
#1136=PLANE('',#1283);
#1137=PLANE('',#1308);
#1138=PLANE('',#1309);
#1139=PLANE('',#1310);
#1140=PLANE('',#1311);
#1141=PLANE('',#1312);
#1142=PLANE('',#1313);
#1143=PLANE('',#1314);
#1144=PLANE('',#1315);
#1145=PLANE('',#1316);
#1146=PLANE('',#1317);
#1147=PLANE('',#1318);
#1148=PLANE('',#1319);
#1149=PLANE('',#1320);
#1150=PLANE('',#1321);
#1151=PLANE('',#1322);
#1152=PLANE('',#1324);
#1153=PLANE('',#1327);
#1154=PLANE('',#1329);
#1155=PLANE('',#1332);
#1156=PLANE('',#1334);
#1157=PLANE('',#1337);
#1158=PLANE('',#1339);
#1159=PLANE('',#1342);
#1160=PLANE('',#1344);
#1161=PLANE('',#1350);
#1162=PLANE('',#1351);
#1163=ADVANCED_FACE('',(#1064),#1126,.T.);
#1164=ADVANCED_FACE('',(#1065),#1127,.T.);
#1165=ADVANCED_FACE('',(#1066),#1128,.T.);
#1166=ADVANCED_FACE('',(#1067),#1129,.T.);
#1167=ADVANCED_FACE('',(#1068),#1130,.T.);
#1168=ADVANCED_FACE('',(#1069),#1131,.T.);
#1169=ADVANCED_FACE('',(#1070),#18,.T.);
#1170=ADVANCED_FACE('',(#1071),#19,.T.);
#1171=ADVANCED_FACE('',(#1072),#20,.T.);
#1172=ADVANCED_FACE('',(#1073),#21,.T.);
#1173=ADVANCED_FACE('',(#1074),#22,.T.);
#1174=ADVANCED_FACE('',(#1075),#23,.T.);
#1175=ADVANCED_FACE('',(#1076,#1077),#1132,.F.);
#1176=ADVANCED_FACE('',(#1078),#1133,.T.);
#1177=ADVANCED_FACE('',(#1079),#1134,.T.);
#1178=ADVANCED_FACE('',(#1080),#1135,.T.);
#1179=ADVANCED_FACE('',(#1081),#1136,.T.);
#1180=ADVANCED_FACE('',(#1082),#12,.T.);
#1181=ADVANCED_FACE('',(#1083),#13,.T.);
#1182=ADVANCED_FACE('',(#1084),#14,.T.);
#1183=ADVANCED_FACE('',(#1085),#15,.T.);
#1184=ADVANCED_FACE('',(#1086),#16,.T.);
#1185=ADVANCED_FACE('',(#1087),#17,.T.);
#1186=ADVANCED_FACE('',(#1088),#24,.F.);
#1187=ADVANCED_FACE('',(#1089),#25,.F.);
#1188=ADVANCED_FACE('',(#1090),#26,.F.);
#1189=ADVANCED_FACE('',(#1091),#27,.F.);
#1190=ADVANCED_FACE('',(#1092),#28,.F.);
#1191=ADVANCED_FACE('',(#1093),#29,.F.);
#1192=ADVANCED_FACE('',(#1094),#1137,.T.);
#1193=ADVANCED_FACE('',(#1095),#1138,.T.);
#1194=ADVANCED_FACE('',(#1096),#1139,.T.);
#1195=ADVANCED_FACE('',(#1097),#1140,.T.);
#1196=ADVANCED_FACE('',(#1098),#1141,.T.);
#1197=ADVANCED_FACE('',(#1099),#1142,.T.);
#1198=ADVANCED_FACE('',(#1100),#1143,.T.);
#1199=ADVANCED_FACE('',(#1101),#1144,.T.);
#1200=ADVANCED_FACE('',(#1102),#1145,.T.);
#1201=ADVANCED_FACE('',(#1103),#1146,.T.);
#1202=ADVANCED_FACE('',(#1104),#1147,.T.);
#1203=ADVANCED_FACE('',(#1105),#1148,.T.);
#1204=ADVANCED_FACE('',(#1106),#1149,.T.);
#1205=ADVANCED_FACE('',(#1107),#1150,.T.);
#1206=ADVANCED_FACE('',(#1108),#1151,.F.);
#1207=ADVANCED_FACE('',(#1109),#1152,.T.);
#1208=ADVANCED_FACE('',(#1110),#30,.T.);
#1209=ADVANCED_FACE('',(#1111),#1153,.T.);
#1210=ADVANCED_FACE('',(#1112),#1154,.T.);
#1211=ADVANCED_FACE('',(#1113),#31,.T.);
#1212=ADVANCED_FACE('',(#1114),#1155,.F.);
#1213=ADVANCED_FACE('',(#1115),#1156,.T.);
#1214=ADVANCED_FACE('',(#1116),#32,.T.);
#1215=ADVANCED_FACE('',(#1117),#1157,.F.);
#1216=ADVANCED_FACE('',(#1118),#1158,.T.);
#1217=ADVANCED_FACE('',(#1119),#33,.T.);
#1218=ADVANCED_FACE('',(#1120),#1159,.F.);
#1219=ADVANCED_FACE('',(#1121),#1160,.T.);
#1220=ADVANCED_FACE('',(#1122),#34,.T.);
#1221=ADVANCED_FACE('',(#1123),#35,.T.);
#1222=ADVANCED_FACE('',(#1124),#1161,.F.);
#1223=ADVANCED_FACE('',(#1125),#1162,.T.);
#1224=CLOSED_SHELL('',(#1163,#1164,#1165,#1166,#1167,#1168,#1169,#1170,
#1171,#1172,#1173,#1174,#1175,#1176,#1177,#1178,#1179,#1180,#1181,#1182,
#1183,#1184,#1185,#1186,#1187,#1188,#1189,#1190,#1191,#1192,#1193,#1194,
#1195,#1196,#1197,#1198,#1199,#1200,#1201,#1202,#1203,#1204,#1205,#1206,
#1207,#1208,#1209,#1210,#1211,#1212,#1213,#1214,#1215,#1216,#1217,#1218,
#1219,#1220,#1221,#1222,#1223));
#1225=STYLED_ITEM('',(#1226),#1233);
#1226=PRESENTATION_STYLE_ASSIGNMENT((#1227));
#1227=SURFACE_STYLE_USAGE(.BOTH.,#1228);
#1228=SURFACE_SIDE_STYLE('',(#1229));
#1229=SURFACE_STYLE_FILL_AREA(#1230);
#1230=FILL_AREA_STYLE('',(#1231));
#1231=FILL_AREA_STYLE_COLOUR('',#1232);
#1232=COLOUR_RGB('',0.231372549019608,0.380392156862745,0.705882352941177);
#1233=MANIFOLD_SOLID_BREP('Nose Ring1',#1224);
#1234=SHAPE_DEFINITION_REPRESENTATION(#2078,#1235);
#1235=SHAPE_REPRESENTATION('Nose Ring1',(#1236),#2073);
#1236=AXIS2_PLACEMENT_3D('',#1710,#1352,#1353);
#1237=AXIS2_PLACEMENT_3D('',#1711,#1354,#1355);
#1238=AXIS2_PLACEMENT_3D('',#1717,#1358,#1359);
#1239=AXIS2_PLACEMENT_3D('',#1725,#1363,#1364);
#1240=AXIS2_PLACEMENT_3D('',#1728,#1366,#1367);
#1241=AXIS2_PLACEMENT_3D('',#1734,#1370,#1371);
#1242=AXIS2_PLACEMENT_3D('',#1742,#1375,#1376);
#1243=AXIS2_PLACEMENT_3D('',#1745,#1378,#1379);
#1244=AXIS2_PLACEMENT_3D('',#1751,#1382,#1383);
#1245=AXIS2_PLACEMENT_3D('',#1759,#1387,#1388);
#1246=AXIS2_PLACEMENT_3D('',#1762,#1390,#1391);
#1247=AXIS2_PLACEMENT_3D('',#1768,#1394,#1395);
#1248=AXIS2_PLACEMENT_3D('',#1776,#1399,#1400);
#1249=AXIS2_PLACEMENT_3D('',#1779,#1402,#1403);
#1250=AXIS2_PLACEMENT_3D('',#1785,#1406,#1407);
#1251=AXIS2_PLACEMENT_3D('',#1793,#1411,#1412);
#1252=AXIS2_PLACEMENT_3D('',#1796,#1414,#1415);
#1253=AXIS2_PLACEMENT_3D('',#1804,#1419,#1420);
#1254=AXIS2_PLACEMENT_3D('',#1812,#1424,#1425);
#1255=AXIS2_PLACEMENT_3D('',#1813,#1426,#1427);
#1256=AXIS2_PLACEMENT_3D('',#1817,#1429,#1430);
#1257=AXIS2_PLACEMENT_3D('',#1821,#1432,#1433);
#1258=AXIS2_PLACEMENT_3D('',#1822,#1434,#1435);
#1259=AXIS2_PLACEMENT_3D('',#1826,#1437,#1438);
#1260=AXIS2_PLACEMENT_3D('',#1830,#1440,#1441);
#1261=AXIS2_PLACEMENT_3D('',#1831,#1442,#1443);
#1262=AXIS2_PLACEMENT_3D('',#1835,#1445,#1446);
#1263=AXIS2_PLACEMENT_3D('',#1839,#1448,#1449);
#1264=AXIS2_PLACEMENT_3D('',#1840,#1450,#1451);
#1265=AXIS2_PLACEMENT_3D('',#1844,#1453,#1454);
#1266=AXIS2_PLACEMENT_3D('',#1848,#1456,#1457);
#1267=AXIS2_PLACEMENT_3D('',#1849,#1458,#1459);
#1268=AXIS2_PLACEMENT_3D('',#1853,#1461,#1462);
#1269=AXIS2_PLACEMENT_3D('',#1857,#1464,#1465);
#1270=AXIS2_PLACEMENT_3D('',#1858,#1466,#1467);
#1271=AXIS2_PLACEMENT_3D('',#1859,#1468,#1469);
#1272=AXIS2_PLACEMENT_3D('',#1864,#1471,#1472);
#1273=AXIS2_PLACEMENT_3D('',#1867,#1474,#1475);
#1274=AXIS2_PLACEMENT_3D('',#1898,#1494,#1495);
#1275=AXIS2_PLACEMENT_3D('',#1907,#1499,#1500);
#1276=AXIS2_PLACEMENT_3D('',#1915,#1504,#1505);
#1277=AXIS2_PLACEMENT_3D('',#1923,#1509,#1510);
#1278=AXIS2_PLACEMENT_3D('',#1931,#1514,#1515);
#1279=AXIS2_PLACEMENT_3D('',#1939,#1519,#1520);
#1280=AXIS2_PLACEMENT_3D('',#1946,#1524,#1525);
#1281=AXIS2_PLACEMENT_3D('',#1954,#1531,#1532);
#1282=AXIS2_PLACEMENT_3D('',#1962,#1538,#1539);
#1283=AXIS2_PLACEMENT_3D('',#1970,#1545,#1546);
#1284=AXIS2_PLACEMENT_3D('',#1978,#1552,#1553);
#1285=AXIS2_PLACEMENT_3D('',#1979,#1554,#1555);
#1286=AXIS2_PLACEMENT_3D('',#1980,#1556,#1557);
#1287=AXIS2_PLACEMENT_3D('',#1981,#1558,#1559);
#1288=AXIS2_PLACEMENT_3D('',#1982,#1560,#1561);
#1289=AXIS2_PLACEMENT_3D('',#1983,#1562,#1563);
#1290=AXIS2_PLACEMENT_3D('',#1984,#1564,#1565);
#1291=AXIS2_PLACEMENT_3D('',#1985,#1566,#1567);
#1292=AXIS2_PLACEMENT_3D('',#1986,#1568,#1569);
#1293=AXIS2_PLACEMENT_3D('',#1987,#1570,#1571);
#1294=AXIS2_PLACEMENT_3D('',#1988,#1572,#1573);
#1295=AXIS2_PLACEMENT_3D('',#1989,#1574,#1575);
#1296=AXIS2_PLACEMENT_3D('',#1990,#1576,#1577);
#1297=AXIS2_PLACEMENT_3D('',#1991,#1578,#1579);
#1298=AXIS2_PLACEMENT_3D('',#1992,#1580,#1581);
#1299=AXIS2_PLACEMENT_3D('',#1993,#1582,#1583);
#1300=AXIS2_PLACEMENT_3D('',#1994,#1584,#1585);
#1301=AXIS2_PLACEMENT_3D('',#1995,#1586,#1587);
#1302=AXIS2_PLACEMENT_3D('',#1996,#1588,#1589);
#1303=AXIS2_PLACEMENT_3D('',#1999,#1592,#1593);
#1304=AXIS2_PLACEMENT_3D('',#2002,#1596,#1597);
#1305=AXIS2_PLACEMENT_3D('',#2005,#1600,#1601);
#1306=AXIS2_PLACEMENT_3D('',#2008,#1604,#1605);
#1307=AXIS2_PLACEMENT_3D('',#2011,#1608,#1609);
#1308=AXIS2_PLACEMENT_3D('',#2014,#1612,#1613);
#1309=AXIS2_PLACEMENT_3D('',#2015,#1614,#1615);
#1310=AXIS2_PLACEMENT_3D('',#2016,#1616,#1617);
#1311=AXIS2_PLACEMENT_3D('',#2017,#1618,#1619);
#1312=AXIS2_PLACEMENT_3D('',#2018,#1620,#1621);
#1313=AXIS2_PLACEMENT_3D('',#2020,#1623,#1624);
#1314=AXIS2_PLACEMENT_3D('',#2022,#1626,#1627);
#1315=AXIS2_PLACEMENT_3D('',#2028,#1631,#1632);
#1316=AXIS2_PLACEMENT_3D('',#2029,#1633,#1634);
#1317=AXIS2_PLACEMENT_3D('',#2030,#1635,#1636);
#1318=AXIS2_PLACEMENT_3D('',#2031,#1637,#1638);
#1319=AXIS2_PLACEMENT_3D('',#2032,#1639,#1640);
#1320=AXIS2_PLACEMENT_3D('',#2034,#1642,#1643);
#1321=AXIS2_PLACEMENT_3D('',#2036,#1645,#1646);
#1322=AXIS2_PLACEMENT_3D('',#2042,#1650,#1651);
#1323=AXIS2_PLACEMENT_3D('',#2043,#1652,#1653);
#1324=AXIS2_PLACEMENT_3D('',#2044,#1654,#1655);
#1325=AXIS2_PLACEMENT_3D('',#2045,#1656,#1657);
#1326=AXIS2_PLACEMENT_3D('',#2046,#1658,#1659);
#1327=AXIS2_PLACEMENT_3D('',#2047,#1660,#1661);
#1328=AXIS2_PLACEMENT_3D('',#2048,#1662,#1663);
#1329=AXIS2_PLACEMENT_3D('',#2049,#1664,#1665);
#1330=AXIS2_PLACEMENT_3D('',#2050,#1666,#1667);
#1331=AXIS2_PLACEMENT_3D('',#2051,#1668,#1669);
#1332=AXIS2_PLACEMENT_3D('',#2052,#1670,#1671);
#1333=AXIS2_PLACEMENT_3D('',#2053,#1672,#1673);
#1334=AXIS2_PLACEMENT_3D('',#2054,#1674,#1675);
#1335=AXIS2_PLACEMENT_3D('',#2055,#1676,#1677);
#1336=AXIS2_PLACEMENT_3D('',#2056,#1678,#1679);
#1337=AXIS2_PLACEMENT_3D('',#2057,#1680,#1681);
#1338=AXIS2_PLACEMENT_3D('',#2058,#1682,#1683);
#1339=AXIS2_PLACEMENT_3D('',#2059,#1684,#1685);
#1340=AXIS2_PLACEMENT_3D('',#2060,#1686,#1687);
#1341=AXIS2_PLACEMENT_3D('',#2061,#1688,#1689);
#1342=AXIS2_PLACEMENT_3D('',#2062,#1690,#1691);
#1343=AXIS2_PLACEMENT_3D('',#2063,#1692,#1693);
#1344=AXIS2_PLACEMENT_3D('',#2064,#1694,#1695);
#1345=AXIS2_PLACEMENT_3D('',#2065,#1696,#1697);
#1346=AXIS2_PLACEMENT_3D('',#2066,#1698,#1699);
#1347=AXIS2_PLACEMENT_3D('',#2067,#1700,#1701);
#1348=AXIS2_PLACEMENT_3D('',#2068,#1702,#1703);
#1349=AXIS2_PLACEMENT_3D('',#2069,#1704,#1705);
#1350=AXIS2_PLACEMENT_3D('',#2070,#1706,#1707);
#1351=AXIS2_PLACEMENT_3D('',#2071,#1708,#1709);
#1352=DIRECTION('',(0.,0.,1.));
#1353=DIRECTION('',(1.,0.,0.));
#1354=DIRECTION('',(0.,-1.,0.));
#1355=DIRECTION('',(1.,0.,0.));
#1356=DIRECTION('',(-1.,0.,0.));
#1357=DIRECTION('',(0.,0.,1.));
#1358=DIRECTION('',(0.,-1.,0.));
#1359=DIRECTION('',(0.,0.,-1.));
#1360=DIRECTION('',(-0.866025403784439,0.,0.5));
#1361=DIRECTION('',(-0.5,-1.04108905263127E-15,-0.866025403784439));
#1362=DIRECTION('',(0.205676537465067,-3.74094529221062E-16,-0.978620029396691));
#1363=DIRECTION('',(0.,-1.,0.));
#1364=DIRECTION('',(0.,0.,-1.));
#1365=DIRECTION('',(-0.744671537377276,0.,0.667431121105515));
#1366=DIRECTION('',(0.,-1.,0.));
#1367=DIRECTION('',(1.,0.,0.));
#1368=DIRECTION('',(-0.5,-1.04108905263127E-15,-0.866025403784439));
#1369=DIRECTION('',(-0.866025403784439,0.,0.5));
#1370=DIRECTION('',(0.,-1.,0.));
#1371=DIRECTION('',(0.,0.,-1.));
#1372=DIRECTION('',(0.866025403784439,0.,0.5));
#1373=DIRECTION('',(0.5,-1.04108905263127E-15,-0.866025403784438));
#1374=DIRECTION('',(0.950348074842342,4.28255183075971E-16,-0.311188908291176));
#1375=DIRECTION('',(0.,-1.,0.));
#1376=DIRECTION('',(0.,0.,-1.));
#1377=DIRECTION('',(-0.950348074842342,-1.1764442415181E-15,-0.311188908291178));
#1378=DIRECTION('',(0.,-1.,0.));
#1379=DIRECTION('',(1.,0.,0.));
#1380=DIRECTION('',(0.5,-1.04108905263127E-15,-0.866025403784438));
#1381=DIRECTION('',(-0.866025403784438,0.,-0.5));
#1382=DIRECTION('',(0.,-1.,0.));
#1383=DIRECTION('',(0.,0.,-1.));
#1384=DIRECTION('',(1.22464679914735E-16,0.,-1.));
#1385=DIRECTION('',(1.,1.47220436070439E-31,1.22464679914735E-16));
#1386=DIRECTION('',(0.744671537377276,1.60469942459406E-15,0.667431121105515));
#1387=DIRECTION('',(0.,-1.,0.));
#1388=DIRECTION('',(0.,0.,-1.));
#1389=DIRECTION('',(-0.205676537465066,-1.97879395381513E-15,-0.978620029396692));
#1390=DIRECTION('',(0.,-1.,0.));
#1391=DIRECTION('',(1.,0.,0.));
#1392=DIRECTION('',(1.,1.47220436070439E-31,1.22464679914735E-16));
#1393=DIRECTION('',(1.22464679914735E-16,0.,-1.));
#1394=DIRECTION('',(0.,-1.,0.));
#1395=DIRECTION('',(0.,0.,-1.));
#1396=DIRECTION('',(0.866025403784439,0.,-0.5));
#1397=DIRECTION('',(0.5,1.04108905263127E-15,0.866025403784439));
#1398=DIRECTION('',(-0.205676537465067,1.97879395381513E-15,0.978620029396691));
#1399=DIRECTION('',(0.,-1.,0.));
#1400=DIRECTION('',(0.,0.,-1.));
#1401=DIRECTION('',(0.744671537377276,-1.60469942459406E-15,-0.667431121105515));
#1402=DIRECTION('',(0.,-1.,0.));
#1403=DIRECTION('',(1.,0.,0.));
#1404=DIRECTION('',(0.5,1.04108905263127E-15,0.866025403784439));
#1405=DIRECTION('',(0.866025403784439,0.,-0.5));
#1406=DIRECTION('',(0.,-1.,0.));
#1407=DIRECTION('',(0.,0.,-1.));
#1408=DIRECTION('',(0.866025403784439,0.,0.5));
#1409=DIRECTION('',(-0.5,1.04108905263127E-15,0.866025403784439));
#1410=DIRECTION('',(-0.950348074842342,1.17644424151809E-15,0.311188908291177));
#1411=DIRECTION('',(0.,-1.,0.));
#1412=DIRECTION('',(0.,0.,-1.));
#1413=DIRECTION('',(0.950348074842342,-4.2825518307597E-16,0.311188908291178));
#1414=DIRECTION('',(0.,-1.,0.));
#1415=DIRECTION('',(1.,0.,0.));
#1416=DIRECTION('',(0.,0.,1.));
#1417=DIRECTION('',(-1.,0.,0.));
#1418=DIRECTION('',(-0.744671537377276,0.,-0.667431121105515));
#1419=DIRECTION('',(0.,-1.,0.));
#1420=DIRECTION('',(0.,0.,-1.));
#1421=DIRECTION('',(0.205676537465066,3.74094529221062E-16,0.978620029396692));
#1422=DIRECTION('',(-0.5,1.04108905263127E-15,0.866025403784439));
#1423=DIRECTION('',(0.866025403784439,0.,0.5));
#1424=DIRECTION('',(0.,-1.,0.));
#1425=DIRECTION('',(0.,0.,-1.));
#1426=DIRECTION('',(0.,1.,0.));
#1427=DIRECTION('',(0.,0.,1.));
#1428=DIRECTION('',(0.,1.,0.));
#1429=DIRECTION('',(0.,-1.,0.));
#1430=DIRECTION('',(0.,0.,-1.));
#1431=DIRECTION('',(0.,1.,0.));
#1432=DIRECTION('',(0.,1.,0.));
#1433=DIRECTION('',(0.,0.,1.));
#1434=DIRECTION('',(0.,1.,0.));
#1435=DIRECTION('',(0.,0.,1.));
#1436=DIRECTION('',(0.,1.,0.));
#1437=DIRECTION('',(0.,-1.,0.));
#1438=DIRECTION('',(0.,0.,-1.));
#1439=DIRECTION('',(0.,1.,0.));
#1440=DIRECTION('',(0.,1.,0.));
#1441=DIRECTION('',(0.,0.,1.));
#1442=DIRECTION('',(0.,1.,0.));
#1443=DIRECTION('',(0.,0.,1.));
#1444=DIRECTION('',(0.,1.,0.));
#1445=DIRECTION('',(0.,-1.,0.));
#1446=DIRECTION('',(0.,0.,-1.));
#1447=DIRECTION('',(0.,1.,0.));
#1448=DIRECTION('',(0.,1.,0.));
#1449=DIRECTION('',(0.,0.,1.));
#1450=DIRECTION('',(0.,1.,0.));
#1451=DIRECTION('',(0.,0.,1.));
#1452=DIRECTION('',(0.,1.,0.));
#1453=DIRECTION('',(0.,-1.,0.));
#1454=DIRECTION('',(0.,0.,-1.));
#1455=DIRECTION('',(0.,1.,0.));
#1456=DIRECTION('',(0.,1.,0.));
#1457=DIRECTION('',(0.,0.,1.));
#1458=DIRECTION('',(0.,1.,0.));
#1459=DIRECTION('',(0.,0.,1.));
#1460=DIRECTION('',(0.,1.,0.));
#1461=DIRECTION('',(0.,-1.,0.));
#1462=DIRECTION('',(0.,0.,-1.));
#1463=DIRECTION('',(0.,1.,0.));
#1464=DIRECTION('',(0.,1.,0.));
#1465=DIRECTION('',(0.,0.,1.));
#1466=DIRECTION('',(0.,1.,0.));
#1467=DIRECTION('',(0.,0.,1.));
#1468=DIRECTION('',(0.,-1.,0.));
#1469=DIRECTION('',(0.,0.,-1.));
#1470=DIRECTION('',(0.,1.,0.));
#1471=DIRECTION('',(0.,1.,0.));
#1472=DIRECTION('',(0.,0.,1.));
#1473=DIRECTION('',(0.,1.,0.));
#1474=DIRECTION('',(0.,-1.,0.));
#1475=DIRECTION('',(1.,0.,0.));
#1476=DIRECTION('',(-1.,0.,0.));
#1477=DIRECTION('',(0.,0.,1.));
#1478=DIRECTION('',(0.866025403784439,0.,0.5));
#1479=DIRECTION('',(-0.5,1.04108905263127E-15,0.866025403784439));
#1480=DIRECTION('',(0.866025403784439,0.,0.5));
#1481=DIRECTION('',(0.866025403784439,0.,-0.5));
#1482=DIRECTION('',(0.5,1.04108905263127E-15,0.866025403784439));
#1483=DIRECTION('',(0.866025403784439,0.,-0.5));
#1484=DIRECTION('',(1.22464679914735E-16,0.,-1.));
#1485=DIRECTION('',(1.,1.47220436070439E-31,1.22464679914735E-16));
#1486=DIRECTION('',(1.22464679914735E-16,0.,-1.));
#1487=DIRECTION('',(-0.866025403784438,0.,-0.5));
#1488=DIRECTION('',(-0.5,1.04108905263127E-15,0.866025403784439));
#1489=DIRECTION('',(0.866025403784439,0.,0.5));
#1490=DIRECTION('',(-0.866025403784439,0.,0.5));
#1491=DIRECTION('',(-0.5,-1.04108905263127E-15,-0.866025403784439));
#1492=DIRECTION('',(-0.866025403784439,0.,0.5));
#1493=DIRECTION('',(0.,0.,1.));
#1494=DIRECTION('',(0.,-1.,0.));
#1495=DIRECTION('',(0.,0.,-1.));
#1496=DIRECTION('',(-0.205676537465067,1.97879395381513E-15,0.978620029396691));
#1497=DIRECTION('',(0.5,1.04108905263127E-15,0.866025403784439));
#1498=DIRECTION('',(0.950348074842342,-4.2825518307597E-16,0.311188908291178));
#1499=DIRECTION('',(0.,-1.,0.));
#1500=DIRECTION('',(0.,0.,-1.));
#1501=DIRECTION('',(-0.950348074842342,1.17644424151809E-15,0.311188908291177));
#1502=DIRECTION('',(-0.5,1.04108905263127E-15,0.866025403784439));
#1503=DIRECTION('',(0.205676537465066,3.74094529221062E-16,0.978620029396692));
#1504=DIRECTION('',(0.,-1.,0.));
#1505=DIRECTION('',(0.,0.,-1.));
#1506=DIRECTION('',(-0.744671537377276,0.,-0.667431121105515));
#1507=DIRECTION('',(-1.,0.,0.));
#1508=DIRECTION('',(-0.744671537377276,0.,0.667431121105515));
#1509=DIRECTION('',(0.,-1.,0.));
#1510=DIRECTION('',(0.,0.,-1.));
#1511=DIRECTION('',(0.205676537465067,-3.74094529221062E-16,-0.978620029396691));
#1512=DIRECTION('',(-0.5,-1.04108905263127E-15,-0.866025403784439));
#1513=DIRECTION('',(-0.950348074842342,-1.1764442415181E-15,-0.311188908291178));
#1514=DIRECTION('',(0.,-1.,0.));
#1515=DIRECTION('',(0.,0.,-1.));
#1516=DIRECTION('',(0.950348074842342,4.28255183075971E-16,-0.311188908291176));
#1517=DIRECTION('',(0.5,-1.04108905263127E-15,-0.866025403784438));
#1518=DIRECTION('',(-0.205676537465066,-1.97879395381513E-15,-0.978620029396692));
#1519=DIRECTION('',(0.,-1.,0.));
#1520=DIRECTION('',(0.,0.,-1.));
#1521=DIRECTION('',(0.744671537377276,1.60469942459406E-15,0.667431121105515));
#1522=DIRECTION('',(1.,1.47220436070439E-31,1.22464679914735E-16));
#1523=DIRECTION('',(0.744671537377276,-1.60469942459406E-15,-0.667431121105515));
#1524=DIRECTION('',(-0.866025403784439,6.01073044787035E-16,-0.5));
#1525=DIRECTION('',(-0.5,1.04108905263127E-15,0.866025403784439));
#1526=DIRECTION('',(-0.5,1.04108905263127E-15,0.866025403784439));
#1527=DIRECTION('',(-1.04108905263127E-15,-1.,6.01073044787035E-16));
#1528=DIRECTION('',(1.04108905263127E-15,1.,-6.01073044787035E-16));
#1529=DIRECTION('',(1.04108905263127E-15,1.,-6.01073044787035E-16));
#1530=DIRECTION('',(-1.04108905263127E-15,-1.,6.01073044787035E-16));
#1531=DIRECTION('',(-0.866025403784439,1.80321913436111E-15,0.5));
#1532=DIRECTION('',(0.5,1.04108905263127E-15,0.866025403784439));
#1533=DIRECTION('',(0.5,1.04108905263127E-15,0.866025403784439));
#1534=DIRECTION('',(-1.04108905263127E-15,-1.,1.80321913436111E-15));
#1535=DIRECTION('',(1.04108905263127E-15,1.,-1.80321913436111E-15));
#1536=DIRECTION('',(1.04108905263127E-15,1.,-1.80321913436111E-15));
#1537=DIRECTION('',(-1.04108905263127E-15,-1.,1.80321913436111E-15));
#1538=DIRECTION('',(0.866025403784438,1.80321913436111E-15,0.5));
#1539=DIRECTION('',(0.5,-1.04108905263127E-15,-0.866025403784438));
#1540=DIRECTION('',(-0.5,1.04108905263127E-15,0.866025403784439));
#1541=DIRECTION('',(1.04108905263127E-15,-1.,1.80321913436111E-15));
#1542=DIRECTION('',(-1.04108905263127E-15,1.,-1.80321913436111E-15));
#1543=DIRECTION('',(-1.04108905263127E-15,1.,-1.80321913436111E-15));
#1544=DIRECTION('',(-1.04108905263127E-15,1.,-1.80321913436111E-15));
#1545=DIRECTION('',(0.866025403784439,6.01073044787036E-16,-0.5));
#1546=DIRECTION('',(-0.5,-1.04108905263127E-15,-0.866025403784439));
#1547=DIRECTION('',(-0.5,-1.04108905263127E-15,-0.866025403784439));
#1548=DIRECTION('',(1.04108905263127E-15,-1.,6.01073044787036E-16));
#1549=DIRECTION('',(-1.04108905263127E-15,1.,-6.01073044787036E-16));
#1550=DIRECTION('',(-1.04108905263127E-15,1.,-6.01073044787036E-16));
#1551=DIRECTION('',(1.04108905263127E-15,-1.,6.01073044787036E-16));
#1552=DIRECTION('',(0.,-1.,1.20214608957407E-15));
#1553=DIRECTION('',(0.,1.20214608957407E-15,1.));
#1554=DIRECTION('',(1.,0.,0.));
#1555=DIRECTION('',(0.,0.,-1.));
#1556=DIRECTION('',(0.5,1.04108905263127E-15,0.866025403784439));
#1557=DIRECTION('',(0.866025403784439,0.,-0.5));
#1558=DIRECTION('',(0.,-1.,1.20214608957407E-15));
#1559=DIRECTION('',(0.,1.20214608957407E-15,1.));
#1560=DIRECTION('',(0.5,1.04108905263127E-15,0.866025403784439));
#1561=DIRECTION('',(0.866025403784439,0.,-0.5));
#1562=DIRECTION('',(0.5,-1.04108905263127E-15,-0.866025403784439));
#1563=DIRECTION('',(-0.866025403784439,0.,-0.5));
#1564=DIRECTION('',(0.,-1.,1.20214608957407E-15));
#1565=DIRECTION('',(0.,1.20214608957407E-15,1.));
#1566=DIRECTION('',(-0.5,1.04108905263127E-15,0.866025403784438));
#1567=DIRECTION('',(0.866025403784438,0.,0.5));
#1568=DIRECTION('',(-1.,-1.47220436070439E-31,-1.22464679914735E-16));
#1569=DIRECTION('',(-1.22464679914735E-16,0.,1.));
#1570=DIRECTION('',(0.,-1.,1.20214608957407E-15));
#1571=DIRECTION('',(0.,1.20214608957407E-15,1.));
#1572=DIRECTION('',(-1.,-1.47220436070439E-31,-1.22464679914735E-16));
#1573=DIRECTION('',(-1.22464679914735E-16,0.,1.));
#1574=DIRECTION('',(-0.5,-1.04108905263127E-15,-0.866025403784439));
#1575=DIRECTION('',(-0.866025403784439,0.,0.5));
#1576=DIRECTION('',(0.,-1.,1.20214608957407E-15));
#1577=DIRECTION('',(0.,1.20214608957407E-15,1.));
#1578=DIRECTION('',(-0.5,-1.04108905263127E-15,-0.866025403784439));
#1579=DIRECTION('',(-0.866025403784439,0.,0.5));
#1580=DIRECTION('',(0.5,-1.04108905263127E-15,-0.866025403784439));
#1581=DIRECTION('',(-0.866025403784439,0.,-0.5));
#1582=DIRECTION('',(0.,-1.,1.20214608957407E-15));
#1583=DIRECTION('',(0.,1.20214608957407E-15,1.));
#1584=DIRECTION('',(1.,0.,0.));
#1585=DIRECTION('',(0.,0.,-1.));
#1586=DIRECTION('',(0.5,-1.04108905263127E-15,-0.866025403784439));
#1587=DIRECTION('',(-0.866025403784439,0.,-0.5));
#1588=DIRECTION('',(0.,1.,0.));
#1589=DIRECTION('',(0.,0.,1.));
#1590=DIRECTION('',(0.,1.,0.));
#1591=DIRECTION('',(1.04108905263127E-15,1.,-6.01073044787035E-16));
#1592=DIRECTION('',(0.,1.,0.));
#1593=DIRECTION('',(0.,0.,1.));
#1594=DIRECTION('',(0.,1.,0.));
#1595=DIRECTION('',(-1.04108905263127E-15,1.,-6.01073044787036E-16));
#1596=DIRECTION('',(0.,1.,0.));
#1597=DIRECTION('',(0.,0.,1.));
#1598=DIRECTION('',(-1.04108905263127E-15,1.,-6.01073044787036E-16));
#1599=DIRECTION('',(-1.04108905263127E-15,1.,-1.80321913436111E-15));
#1600=DIRECTION('',(0.,1.,0.));
#1601=DIRECTION('',(0.,0.,1.));
#1602=DIRECTION('',(-1.04108905263127E-15,1.,-1.80321913436111E-15));
#1603=DIRECTION('',(1.47220436070439E-31,1.,-2.40429217914814E-15));
#1604=DIRECTION('',(0.,1.,0.));
#1605=DIRECTION('',(0.,0.,1.));
#1606=DIRECTION('',(1.47220436070439E-31,1.,-2.40429217914814E-15));
#1607=DIRECTION('',(1.04108905263127E-15,1.,-1.80321913436111E-15));
#1608=DIRECTION('',(0.,1.,0.));
#1609=DIRECTION('',(0.,0.,1.));
#1610=DIRECTION('',(1.04108905263127E-15,1.,-1.80321913436111E-15));
#1611=DIRECTION('',(1.04108905263127E-15,1.,-6.01073044787035E-16));
#1612=DIRECTION('',(-0.311188908291177,-2.47253245230764E-16,-0.950348074842342));
#1613=DIRECTION('',(-0.950348074842342,1.17644424151809E-15,0.311188908291177));
#1614=DIRECTION('',(-0.978620029396692,1.14245722190597E-15,0.205676537465066));
#1615=DIRECTION('',(0.205676537465066,3.74094529221062E-16,0.978620029396692));
#1616=DIRECTION('',(-0.978620029396691,6.47950731444439E-16,-0.205676537465067));
#1617=DIRECTION('',(-0.205676537465067,1.97879395381513E-15,0.978620029396691));
#1618=DIRECTION('',(-0.311188908291178,2.03766119858117E-15,0.950348074842342));
#1619=DIRECTION('',(0.950348074842342,-4.2825518307597E-16,0.311188908291178));
#1620=DIRECTION('',(-0.667431121105515,1.7904079533504E-15,0.744671537377276));
#1621=DIRECTION('',(0.744671537377276,1.60469942459406E-15,0.667431121105515));
#1622=DIRECTION('',(1.47220436070439E-31,1.,-2.40429217914814E-15));
#1623=DIRECTION('',(0.667431121105515,1.7904079533504E-15,0.744671537377276));
#1624=DIRECTION('',(0.744671537377276,-1.60469942459406E-15,-0.667431121105515));
#1625=DIRECTION('',(1.47220436070439E-31,1.,-2.40429217914814E-15));
#1626=DIRECTION('',(-1.22464679914735E-16,2.40429217914814E-15,1.));
#1627=DIRECTION('',(1.,1.47220436070439E-31,1.22464679914735E-16));
#1628=DIRECTION('',(-1.47220436070439E-31,-1.,2.40429217914814E-15));
#1629=DIRECTION('',(1.,1.47220436070439E-31,1.22464679914735E-16));
#1630=DIRECTION('',(-1.47220436070439E-31,-1.,2.40429217914814E-15));
#1631=DIRECTION('',(0.311188908291176,2.03766119858117E-15,0.950348074842342));
#1632=DIRECTION('',(0.950348074842342,4.28255183075971E-16,-0.311188908291176));
#1633=DIRECTION('',(0.978620029396692,6.47950731444441E-16,-0.205676537465066));
#1634=DIRECTION('',(-0.205676537465066,-1.97879395381513E-15,-0.978620029396692));
#1635=DIRECTION('',(0.978620029396691,1.14245722190597E-15,0.205676537465067));
#1636=DIRECTION('',(0.205676537465067,-3.74094529221062E-16,-0.978620029396691));
#1637=DIRECTION('',(0.311188908291178,-2.47253245230763E-16,-0.950348074842342));
#1638=DIRECTION('',(-0.950348074842342,-1.1764442415181E-15,-0.311188908291178));
#1639=DIRECTION('',(0.667431121105515,0.,-0.744671537377276));
#1640=DIRECTION('',(-0.744671537377276,0.,-0.667431121105515));
#1641=DIRECTION('',(0.,1.,0.));
#1642=DIRECTION('',(-0.667431121105515,0.,-0.744671537377276));
#1643=DIRECTION('',(-0.744671537377276,0.,0.667431121105515));
#1644=DIRECTION('',(0.,1.,0.));
#1645=DIRECTION('',(0.,0.,-1.));
#1646=DIRECTION('',(-1.,0.,0.));
#1647=DIRECTION('',(0.,-1.,0.));
#1648=DIRECTION('',(-1.,0.,0.));
#1649=DIRECTION('',(0.,-1.,0.));
#1650=DIRECTION('',(0.5,1.04108905263127E-15,0.866025403784439));
#1651=DIRECTION('',(-1.04108905263127E-15,1.,-6.01073044787036E-16));
#1652=DIRECTION('',(0.5,1.04108905263127E-15,0.866025403784439));
#1653=DIRECTION('',(0.866025403784439,6.01073044787036E-16,-0.5));
#1654=DIRECTION('',(0.5,1.04108905263127E-15,0.866025403784439));
#1655=DIRECTION('',(-1.04108905263127E-15,1.,-6.01073044787036E-16));
#1656=DIRECTION('',(0.5,1.04108905263127E-15,0.866025403784439));
#1657=DIRECTION('',(0.866025403784439,6.01073044787036E-16,-0.5));
#1658=DIRECTION('',(-0.5,-1.04108905263127E-15,-0.866025403784439));
#1659=DIRECTION('',(-0.866025403784439,-6.01073044787036E-16,0.5));
#1660=DIRECTION('',(0.5,-1.04108905263127E-15,-0.866025403784439));
#1661=DIRECTION('',(1.04108905263127E-15,1.,-6.01073044787035E-16));
#1662=DIRECTION('',(0.5,-1.04108905263127E-15,-0.866025403784439));
#1663=DIRECTION('',(-0.866025403784439,6.01073044787035E-16,-0.5));
#1664=DIRECTION('',(-0.5,1.04108905263127E-15,0.866025403784438));
#1665=DIRECTION('',(-1.04108905263127E-15,1.,-1.80321913436111E-15));
#1666=DIRECTION('',(-0.5,1.04108905263127E-15,0.866025403784438));
#1667=DIRECTION('',(0.866025403784438,1.80321913436111E-15,0.5));
#1668=DIRECTION('',(-0.5,1.04108905263127E-15,0.866025403784439));
#1669=DIRECTION('',(0.866025403784439,-6.01073044787035E-16,0.5));
#1670=DIRECTION('',(-0.5,-1.04108905263127E-15,-0.866025403784439));
#1671=DIRECTION('',(1.04108905263127E-15,1.,-1.80321913436111E-15));
#1672=DIRECTION('',(-0.5,-1.04108905263127E-15,-0.866025403784439));
#1673=DIRECTION('',(-0.866025403784439,1.80321913436111E-15,0.5));
#1674=DIRECTION('',(-0.5,-1.04108905263127E-15,-0.866025403784439));
#1675=DIRECTION('',(1.04108905263127E-15,1.,-1.80321913436111E-15));
#1676=DIRECTION('',(-0.5,-1.04108905263127E-15,-0.866025403784439));
#1677=DIRECTION('',(-0.866025403784439,1.80321913436111E-15,0.5));
#1678=DIRECTION('',(0.5,1.04108905263127E-15,0.866025403784439));
#1679=DIRECTION('',(0.866025403784439,-1.80321913436111E-15,-0.5));
#1680=DIRECTION('',(0.5,-1.04108905263127E-15,-0.866025403784439));
#1681=DIRECTION('',(1.04108905263127E-15,1.,-6.01073044787035E-16));
#1682=DIRECTION('',(0.5,-1.04108905263127E-15,-0.866025403784439));
#1683=DIRECTION('',(-0.866025403784439,6.01073044787035E-16,-0.5));
#1684=DIRECTION('',(0.5,-1.04108905263127E-15,-0.866025403784439));
#1685=DIRECTION('',(1.04108905263127E-15,1.,-6.01073044787035E-16));
#1686=DIRECTION('',(0.5,-1.04108905263127E-15,-0.866025403784439));
#1687=DIRECTION('',(-0.866025403784439,6.01073044787035E-16,-0.5));
#1688=DIRECTION('',(-0.5,1.04108905263127E-15,0.866025403784439));
#1689=DIRECTION('',(0.866025403784439,-6.01073044787035E-16,0.5));
#1690=DIRECTION('',(-1.,-1.47220436070439E-31,-1.22464679914735E-16));
#1691=DIRECTION('',(1.47220436070439E-31,1.,-2.40429217914814E-15));
#1692=DIRECTION('',(-1.,-1.47220436070439E-31,-1.22464679914735E-16));
#1693=DIRECTION('',(-1.22464679914735E-16,2.40429217914814E-15,1.));
#1694=DIRECTION('',(-1.,-1.47220436070439E-31,-1.22464679914735E-16));
#1695=DIRECTION('',(1.47220436070439E-31,1.,-2.40429217914814E-15));
#1696=DIRECTION('',(-1.,-1.47220436070439E-31,-1.22464679914735E-16));
#1697=DIRECTION('',(-1.22464679914735E-16,2.40429217914814E-15,1.));
#1698=DIRECTION('',(1.,1.47220436070439E-31,1.22464679914735E-16));
#1699=DIRECTION('',(1.22464679914735E-16,-2.40429217914814E-15,-1.));
#1700=DIRECTION('',(-1.,0.,0.));
#1701=DIRECTION('',(0.,0.,1.));
#1702=DIRECTION('',(1.,0.,0.));
#1703=DIRECTION('',(0.,0.,-1.));
#1704=DIRECTION('',(1.,0.,0.));
#1705=DIRECTION('',(0.,0.,-1.));
#1706=DIRECTION('',(1.,0.,0.));
#1707=DIRECTION('',(0.,1.,0.));
#1708=DIRECTION('',(1.,0.,0.));
#1709=DIRECTION('',(0.,1.,0.));
#1710=CARTESIAN_POINT('',(0.,0.,0.));
#1711=CARTESIAN_POINT('',(0.,-0.045,0.));
#1712=CARTESIAN_POINT('',(-2.16840434497101E-19,-0.045,0.0425));
#1713=CARTESIAN_POINT('',(-0.0015,-0.045,0.0425));
#1714=CARTESIAN_POINT('',(-0.002,-0.045,0.0425));
#1715=CARTESIAN_POINT('',(-0.0015,-0.045,0.));
#1716=CARTESIAN_POINT('',(-0.0015,-0.045,0.048393801255946));
#1717=CARTESIAN_POINT('',(0.,-0.045,-1.09863515750892E-17));
#1718=CARTESIAN_POINT('',(-0.0411602612733445,-0.045,0.0254959387336497));
#1719=CARTESIAN_POINT('',(0.000750000000000023,-0.045,0.0012990381056767));
#1720=CARTESIAN_POINT('',(-0.0360560796608386,-0.045,0.0225490381056766));
#1721=CARTESIAN_POINT('',(-0.0368060796608386,-0.045,0.02125));
#1722=CARTESIAN_POINT('',(-0.0358060796608386,-0.045,0.0229820508075688));
#1723=CARTESIAN_POINT('',(-0.0364965738154476,-0.045,0.0262674591395544));
#1724=CARTESIAN_POINT('',(-0.0371870679700566,-0.045,0.0295528674715398));
#1725=CARTESIAN_POINT('',(3.03576608295941E-18,-0.045,2.77555756156289E-17));
#1726=CARTESIAN_POINT('',(-0.007,-0.045,0.0469813792900975));
#1727=CARTESIAN_POINT('',(-0.0045,-0.045,0.0447406896450488));
#1728=CARTESIAN_POINT('',(0.,-0.045,0.));
#1729=CARTESIAN_POINT('',(-0.0368060796608386,-0.045,0.02125));
#1730=CARTESIAN_POINT('',(-0.0375560796608386,-0.045,0.0199509618943234));
#1731=CARTESIAN_POINT('',(-0.0378060796608386,-0.045,0.0195179491924312));
#1732=CARTESIAN_POINT('',(-0.000749999999999976,-0.045,-0.00129903810567662));
#1733=CARTESIAN_POINT('',(-0.0426602612733445,-0.045,0.0228978625222963));
#1734=CARTESIAN_POINT('',(0.,-0.045,-1.09863515750892E-17));
#1735=CARTESIAN_POINT('',(-0.0426602612733446,-0.045,-0.0228978625222963));
#1736=CARTESIAN_POINT('',(-0.000750000000000024,-0.045,0.0012990381056767));
#1737=CARTESIAN_POINT('',(-0.0375560796608386,-0.045,-0.0199509618943233));
#1738=CARTESIAN_POINT('',(-0.0368060796608386,-0.045,-0.02125));
#1739=CARTESIAN_POINT('',(-0.0378060796608386,-0.045,-0.019517949192431));
#1740=CARTESIAN_POINT('',(-0.0409965738154476,-0.045,-0.0184732305054944));
#1741=CARTESIAN_POINT('',(-0.0441870679700564,-0.045,-0.0174285118185576));
#1742=CARTESIAN_POINT('',(3.03576608295941E-18,-0.045,2.77555756156289E-17));
#1743=CARTESIAN_POINT('',(-0.0441870679700565,-0.045,0.0174285118185576));
#1744=CARTESIAN_POINT('',(-0.0409965738154476,-0.045,0.0184732305054944));
#1745=CARTESIAN_POINT('',(0.,-0.045,0.));
#1746=CARTESIAN_POINT('',(-0.0368060796608386,-0.045,-0.02125));
#1747=CARTESIAN_POINT('',(-0.0360560796608386,-0.045,-0.0225490381056766));
#1748=CARTESIAN_POINT('',(-0.0358060796608386,-0.045,-0.0229820508075688));
#1749=CARTESIAN_POINT('',(0.000749999999999977,-0.045,-0.00129903810567662));
#1750=CARTESIAN_POINT('',(-0.0411602612733446,-0.045,-0.0254959387336497));
#1751=CARTESIAN_POINT('',(0.,-0.045,-1.09863515750892E-17));
#1752=CARTESIAN_POINT('',(-0.0015,-0.045,-0.048393801255946));
#1753=CARTESIAN_POINT('',(-0.0015,-0.045,-1.83697019872103E-19));
#1754=CARTESIAN_POINT('',(-0.0015,-0.045,-0.0425));
#1755=CARTESIAN_POINT('',(5.42158933087335E-18,-0.045,-0.0425));
#1756=CARTESIAN_POINT('',(-0.002,-0.045,-0.0425));
#1757=CARTESIAN_POINT('',(-0.0045,-0.045,-0.0447406896450487));
#1758=CARTESIAN_POINT('',(-0.007,-0.045,-0.0469813792900974));
#1759=CARTESIAN_POINT('',(3.03576608295941E-18,-0.045,2.77555756156289E-17));
#1760=CARTESIAN_POINT('',(-0.0371870679700565,-0.045,-0.0295528674715397));
#1761=CARTESIAN_POINT('',(-0.0364965738154476,-0.045,-0.0262674591395543));
#1762=CARTESIAN_POINT('',(0.,-0.045,0.));
#1763=CARTESIAN_POINT('',(5.42158933087335E-18,-0.045,-0.0425));
#1764=CARTESIAN_POINT('',(0.0015,-0.045,-0.0425));
#1765=CARTESIAN_POINT('',(0.002,-0.045,-0.0425));
#1766=CARTESIAN_POINT('',(0.0015,-0.045,1.83697019872103E-19));
#1767=CARTESIAN_POINT('',(0.0015,-0.045,-0.048393801255946));
#1768=CARTESIAN_POINT('',(0.,-0.045,-1.09863515750892E-17));
#1769=CARTESIAN_POINT('',(0.0411602612733446,-0.045,-0.0254959387336496));
#1770=CARTESIAN_POINT('',(-0.000749999999999976,-0.045,-0.00129903810567662));
#1771=CARTESIAN_POINT('',(0.0360560796608386,-0.045,-0.0225490381056765));
#1772=CARTESIAN_POINT('',(0.0368060796608386,-0.045,-0.02125));
#1773=CARTESIAN_POINT('',(0.0358060796608386,-0.045,-0.0229820508075688));
#1774=CARTESIAN_POINT('',(0.0364965738154476,-0.045,-0.0262674591395543));
#1775=CARTESIAN_POINT('',(0.0371870679700565,-0.045,-0.0295528674715397));
#1776=CARTESIAN_POINT('',(3.03576608295941E-18,-0.045,2.77555756156289E-17));
#1777=CARTESIAN_POINT('',(0.007,-0.045,-0.0469813792900974));
#1778=CARTESIAN_POINT('',(0.0045,-0.045,-0.0447406896450487));
#1779=CARTESIAN_POINT('',(0.,-0.045,0.));
#1780=CARTESIAN_POINT('',(0.0368060796608386,-0.045,-0.02125));
#1781=CARTESIAN_POINT('',(0.0375560796608386,-0.045,-0.0199509618943233));
#1782=CARTESIAN_POINT('',(0.0378060796608386,-0.045,-0.019517949192431));
#1783=CARTESIAN_POINT('',(0.000750000000000023,-0.045,0.0012990381056767));
#1784=CARTESIAN_POINT('',(0.0426602612733446,-0.045,-0.0228978625222963));
#1785=CARTESIAN_POINT('',(0.,-0.045,-1.09863515750892E-17));
#1786=CARTESIAN_POINT('',(0.0426602612733445,-0.045,0.0228978625222964));
#1787=CARTESIAN_POINT('',(0.000749999999999977,-0.045,-0.00129903810567662));
#1788=CARTESIAN_POINT('',(0.0375560796608386,-0.045,0.0199509618943234));
#1789=CARTESIAN_POINT('',(0.0368060796608386,-0.045,0.02125));
#1790=CARTESIAN_POINT('',(0.0378060796608386,-0.045,0.0195179491924312));
#1791=CARTESIAN_POINT('',(0.0409965738154476,-0.045,0.0184732305054944));
#1792=CARTESIAN_POINT('',(0.0441870679700565,-0.045,0.0174285118185577));
#1793=CARTESIAN_POINT('',(3.03576608295941E-18,-0.045,2.77555756156289E-17));
#1794=CARTESIAN_POINT('',(0.0441870679700565,-0.045,-0.0174285118185576));
#1795=CARTESIAN_POINT('',(0.0409965738154476,-0.045,-0.0184732305054943));
#1796=CARTESIAN_POINT('',(0.,-0.045,0.));
#1797=CARTESIAN_POINT('',(0.0015,-0.045,0.));
#1798=CARTESIAN_POINT('',(0.0015,-0.045,0.0425));
#1799=CARTESIAN_POINT('',(0.0015,-0.045,0.048393801255946));
#1800=CARTESIAN_POINT('',(-2.16840434497101E-19,-0.045,0.0425));
#1801=CARTESIAN_POINT('',(0.002,-0.045,0.0425));
#1802=CARTESIAN_POINT('',(0.0045,-0.045,0.0447406896450488));
#1803=CARTESIAN_POINT('',(0.007,-0.045,0.0469813792900975));
#1804=CARTESIAN_POINT('',(3.03576608295941E-18,-0.045,2.77555756156289E-17));
#1805=CARTESIAN_POINT('',(0.0371870679700565,-0.045,0.0295528674715398));
#1806=CARTESIAN_POINT('',(0.0364965738154476,-0.045,0.0262674591395544));
#1807=CARTESIAN_POINT('',(0.0358060796608386,-0.045,0.0229820508075689));
#1808=CARTESIAN_POINT('',(0.0368060796608386,-0.045,0.02125));
#1809=CARTESIAN_POINT('',(0.0360560796608386,-0.045,0.0225490381056767));
#1810=CARTESIAN_POINT('',(-0.000750000000000024,-0.045,0.0012990381056767));
#1811=CARTESIAN_POINT('',(0.0411602612733445,-0.045,0.0254959387336497));
#1812=CARTESIAN_POINT('',(0.,-0.045,-1.09863515750892E-17));
#1813=CARTESIAN_POINT('',(0.,-0.045,3.06161699786838E-18));
#1814=CARTESIAN_POINT('',(-0.0015,-0.045,0.0499774949352206));
#1815=CARTESIAN_POINT('',(-0.0015,-0.041,0.0499774949352206));
#1816=CARTESIAN_POINT('',(-0.0015,-0.0432343613344757,0.0499774949352206));
#1817=CARTESIAN_POINT('',(0.,-0.041,3.06161699786838E-18));
#1818=CARTESIAN_POINT('',(-0.0425317802314092,-0.041,0.026287785573287));
#1819=CARTESIAN_POINT('',(-0.0425317802314092,-0.045,0.026287785573287));
#1820=CARTESIAN_POINT('',(-0.0425317802314092,-0.0432343613344757,0.026287785573287));
#1821=CARTESIAN_POINT('',(0.,-0.0432343613344757,3.06161699786838E-18));
#1822=CARTESIAN_POINT('',(0.,-0.045,3.06161699786838E-18));
#1823=CARTESIAN_POINT('',(-0.0440317802314092,-0.045,0.0236897093619336));
#1824=CARTESIAN_POINT('',(-0.0440317802314092,-0.041,0.0236897093619336));
#1825=CARTESIAN_POINT('',(-0.0440317802314092,-0.0432343613344757,0.0236897093619336));
#1826=CARTESIAN_POINT('',(0.,-0.041,3.06161699786838E-18));
#1827=CARTESIAN_POINT('',(-0.0440317802314092,-0.041,-0.0236897093619336));
#1828=CARTESIAN_POINT('',(-0.0440317802314092,-0.045,-0.0236897093619336));
#1829=CARTESIAN_POINT('',(-0.0440317802314092,-0.0432343613344757,-0.0236897093619336));
#1830=CARTESIAN_POINT('',(0.,-0.0432343613344757,3.06161699786838E-18));
#1831=CARTESIAN_POINT('',(0.,-0.045,3.06161699786838E-18));
#1832=CARTESIAN_POINT('',(-0.0425317802314092,-0.045,-0.026287785573287));
#1833=CARTESIAN_POINT('',(-0.0425317802314092,-0.041,-0.026287785573287));
#1834=CARTESIAN_POINT('',(-0.0425317802314092,-0.0432343613344757,-0.026287785573287));
#1835=CARTESIAN_POINT('',(0.,-0.041,3.06161699786838E-18));
#1836=CARTESIAN_POINT('',(-0.0015,-0.041,-0.0499774949352206));
#1837=CARTESIAN_POINT('',(-0.0015,-0.045,-0.0499774949352206));
#1838=CARTESIAN_POINT('',(-0.0015,-0.0432343613344757,-0.0499774949352206));
#1839=CARTESIAN_POINT('',(0.,-0.0432343613344757,3.06161699786838E-18));
#1840=CARTESIAN_POINT('',(0.,-0.045,3.06161699786838E-18));
#1841=CARTESIAN_POINT('',(0.0015,-0.045,-0.0499774949352206));
#1842=CARTESIAN_POINT('',(0.0015,-0.041,-0.0499774949352206));
#1843=CARTESIAN_POINT('',(0.0015,-0.0432343613344757,-0.0499774949352206));
#1844=CARTESIAN_POINT('',(0.,-0.041,3.06161699786838E-18));
#1845=CARTESIAN_POINT('',(0.0425317802314092,-0.041,-0.0262877855732869));
#1846=CARTESIAN_POINT('',(0.0425317802314092,-0.045,-0.0262877855732869));
#1847=CARTESIAN_POINT('',(0.0425317802314092,-0.0432343613344757,-0.0262877855732869));
#1848=CARTESIAN_POINT('',(0.,-0.0432343613344757,3.06161699786838E-18));
#1849=CARTESIAN_POINT('',(0.,-0.045,3.06161699786838E-18));
#1850=CARTESIAN_POINT('',(0.0440317802314092,-0.045,-0.0236897093619336));
#1851=CARTESIAN_POINT('',(0.0440317802314092,-0.041,-0.0236897093619336));
#1852=CARTESIAN_POINT('',(0.0440317802314092,-0.0432343613344757,-0.0236897093619336));
#1853=CARTESIAN_POINT('',(0.,-0.041,3.06161699786838E-18));
#1854=CARTESIAN_POINT('',(0.0440317802314092,-0.041,0.0236897093619337));
#1855=CARTESIAN_POINT('',(0.0440317802314092,-0.045,0.0236897093619337));
#1856=CARTESIAN_POINT('',(0.0440317802314092,-0.0432343613344757,0.0236897093619337));
#1857=CARTESIAN_POINT('',(0.,-0.0432343613344757,3.06161699786838E-18));
#1858=CARTESIAN_POINT('',(0.,-0.045,3.06161699786838E-18));
#1859=CARTESIAN_POINT('',(0.,-0.041,3.06161699786838E-18));
#1860=CARTESIAN_POINT('',(0.0425317802314092,-0.041,0.026287785573287));
#1861=CARTESIAN_POINT('',(0.0015,-0.041,0.0499774949352206));
#1862=CARTESIAN_POINT('',(0.0015,-0.045,0.0499774949352206));
#1863=CARTESIAN_POINT('',(0.0015,-0.0432343613344757,0.0499774949352206));
#1864=CARTESIAN_POINT('',(0.,-0.0432343613344757,3.06161699786838E-18));
#1865=CARTESIAN_POINT('',(0.0425317802314092,-0.0432343613344757,0.026287785573287));
#1866=CARTESIAN_POINT('',(0.0425317802314092,-0.045,0.026287785573287));
#1867=CARTESIAN_POINT('',(0.,-0.041,0.));
#1868=CARTESIAN_POINT('',(0.0015,-0.041,0.0458393935387457));
#1869=CARTESIAN_POINT('',(-0.0015,-0.041,0.0458393935387457));
#1870=CARTESIAN_POINT('',(0.0015,-0.041,0.0458393935387457));
#1871=CARTESIAN_POINT('',(0.0015,-0.041,0.));
#1872=CARTESIAN_POINT('',(-0.000750000000000022,-0.041,0.00129903810567669));
#1873=CARTESIAN_POINT('',(0.038948079298626,-0.041,0.0242187348750495));
#1874=CARTESIAN_POINT('',(0.040448079298626,-0.041,0.0216206586636962));
#1875=CARTESIAN_POINT('',(0.040448079298626,-0.041,0.0216206586636962));
#1876=CARTESIAN_POINT('',(0.000749999999999979,-0.041,-0.00129903810567662));
#1877=CARTESIAN_POINT('',(0.000750000000000021,-0.041,0.00129903810567669));
#1878=CARTESIAN_POINT('',(0.0404480792986261,-0.041,-0.0216206586636961));
#1879=CARTESIAN_POINT('',(0.0389480792986261,-0.041,-0.0242187348750495));
#1880=CARTESIAN_POINT('',(0.0389480792986261,-0.041,-0.0242187348750494));
#1881=CARTESIAN_POINT('',(-0.000749999999999978,-0.041,-0.00129903810567662));
#1882=CARTESIAN_POINT('',(0.0015,-0.041,1.83697019872103E-19));
#1883=CARTESIAN_POINT('',(0.0015,-0.041,-0.0458393935387457));
#1884=CARTESIAN_POINT('',(-0.0015,-0.041,-0.0458393935387457));
#1885=CARTESIAN_POINT('',(-0.0015,-0.041,-0.0458393935387457));
#1886=CARTESIAN_POINT('',(-0.0015,-0.041,-1.83697019872103E-19));
#1887=CARTESIAN_POINT('',(0.000749999999999979,-0.041,-0.00129903810567662));
#1888=CARTESIAN_POINT('',(-0.0389480792986261,-0.041,-0.0242187348750495));
#1889=CARTESIAN_POINT('',(-0.0389480792986261,-0.041,-0.0242187348750495));
#1890=CARTESIAN_POINT('',(-0.0404480792986261,-0.041,-0.0216206586636961));
#1891=CARTESIAN_POINT('',(-0.000750000000000022,-0.041,0.00129903810567669));
#1892=CARTESIAN_POINT('',(-0.000749999999999978,-0.041,-0.00129903810567662));
#1893=CARTESIAN_POINT('',(-0.040448079298626,-0.041,0.0216206586636962));
#1894=CARTESIAN_POINT('',(-0.0389480792986261,-0.041,0.0242187348750495));
#1895=CARTESIAN_POINT('',(-0.0389480792986261,-0.041,0.0242187348750495));
#1896=CARTESIAN_POINT('',(0.00075000000000002,-0.041,0.0012990381056767));
#1897=CARTESIAN_POINT('',(-0.0015,-0.041,0.));
#1898=CARTESIAN_POINT('',(3.03576608295941E-18,-0.041,2.77555756156289E-17));
#1899=CARTESIAN_POINT('',(0.007,-0.041,-0.0469813792900974));
#1900=CARTESIAN_POINT('',(0.0371870679700566,-0.041,-0.0295528674715397));
#1901=CARTESIAN_POINT('',(0.0364965738154476,-0.041,-0.0262674591395543));
#1902=CARTESIAN_POINT('',(0.0358060796608386,-0.041,-0.0229820508075688));
#1903=CARTESIAN_POINT('',(0.0368060796608386,-0.041,-0.02125));
#1904=CARTESIAN_POINT('',(0.0378060796608386,-0.041,-0.019517949192431));
#1905=CARTESIAN_POINT('',(0.0409965738154476,-0.041,-0.0184732305054943));
#1906=CARTESIAN_POINT('',(0.0441870679700565,-0.041,-0.0174285118185576));
#1907=CARTESIAN_POINT('',(3.03576608295941E-18,-0.041,2.77555756156289E-17));
#1908=CARTESIAN_POINT('',(0.0441870679700565,-0.041,0.0174285118185577));
#1909=CARTESIAN_POINT('',(0.0409965738154476,-0.041,0.0184732305054944));
#1910=CARTESIAN_POINT('',(0.0378060796608386,-0.041,0.0195179491924312));
#1911=CARTESIAN_POINT('',(0.0368060796608386,-0.041,0.02125));
#1912=CARTESIAN_POINT('',(0.0358060796608386,-0.041,0.0229820508075689));
#1913=CARTESIAN_POINT('',(0.0364965738154476,-0.041,0.0262674591395544));
#1914=CARTESIAN_POINT('',(0.0371870679700565,-0.041,0.0295528674715398));
#1915=CARTESIAN_POINT('',(3.03576608295941E-18,-0.041,2.77555756156289E-17));
#1916=CARTESIAN_POINT('',(0.007,-0.041,0.0469813792900975));
#1917=CARTESIAN_POINT('',(0.0045,-0.041,0.0447406896450488));
#1918=CARTESIAN_POINT('',(0.002,-0.041,0.0425));
#1919=CARTESIAN_POINT('',(-2.16840434497101E-19,-0.041,0.0425));
#1920=CARTESIAN_POINT('',(-0.002,-0.041,0.0425));
#1921=CARTESIAN_POINT('',(-0.0045,-0.041,0.0447406896450488));
#1922=CARTESIAN_POINT('',(-0.007,-0.041,0.0469813792900975));
#1923=CARTESIAN_POINT('',(3.03576608295941E-18,-0.041,2.77555756156289E-17));
#1924=CARTESIAN_POINT('',(-0.0371870679700566,-0.041,0.0295528674715398));
#1925=CARTESIAN_POINT('',(-0.0364965738154476,-0.041,0.0262674591395544));
#1926=CARTESIAN_POINT('',(-0.0358060796608386,-0.041,0.0229820508075688));
#1927=CARTESIAN_POINT('',(-0.0368060796608386,-0.041,0.02125));
#1928=CARTESIAN_POINT('',(-0.0378060796608386,-0.041,0.0195179491924312));
#1929=CARTESIAN_POINT('',(-0.0409965738154476,-0.041,0.0184732305054944));
#1930=CARTESIAN_POINT('',(-0.0441870679700565,-0.041,0.0174285118185576));
#1931=CARTESIAN_POINT('',(3.03576608295941E-18,-0.041,2.77555756156289E-17));
#1932=CARTESIAN_POINT('',(-0.0441870679700565,-0.041,-0.0174285118185576));
#1933=CARTESIAN_POINT('',(-0.0409965738154476,-0.041,-0.0184732305054944));
#1934=CARTESIAN_POINT('',(-0.0378060796608386,-0.041,-0.0195179491924311));
#1935=CARTESIAN_POINT('',(-0.0368060796608386,-0.041,-0.02125));
#1936=CARTESIAN_POINT('',(-0.0358060796608386,-0.041,-0.0229820508075688));
#1937=CARTESIAN_POINT('',(-0.0364965738154476,-0.041,-0.0262674591395543));
#1938=CARTESIAN_POINT('',(-0.0371870679700565,-0.041,-0.0295528674715397));
#1939=CARTESIAN_POINT('',(3.03576608295941E-18,-0.041,2.77555756156289E-17));
#1940=CARTESIAN_POINT('',(-0.007,-0.041,-0.0469813792900974));
#1941=CARTESIAN_POINT('',(-0.0045,-0.041,-0.0447406896450487));
#1942=CARTESIAN_POINT('',(-0.002,-0.041,-0.0425));
#1943=CARTESIAN_POINT('',(5.42158933087335E-18,-0.041,-0.0425));
#1944=CARTESIAN_POINT('',(0.002,-0.041,-0.0425));
#1945=CARTESIAN_POINT('',(0.0045,-0.041,-0.0447406896450487));
#1946=CARTESIAN_POINT('',(0.0368060796608386,-0.045,0.02125));
#1947=CARTESIAN_POINT('',(0.0375560796608386,-0.0444522215417857,0.0199509618943234));
#1948=CARTESIAN_POINT('',(0.0360560796608386,-0.0444522215417857,0.0225490381056767));
#1949=CARTESIAN_POINT('',(0.0375560796608386,-0.0444522215417857,0.0199509618943234));
#1950=CARTESIAN_POINT('',(0.0360560796608386,-0.045,0.0225490381056767));
#1951=CARTESIAN_POINT('',(0.0358060796608386,-0.045,0.0229820508075689));
#1952=CARTESIAN_POINT('',(0.0378060796608386,-0.045,0.0195179491924312));
#1953=CARTESIAN_POINT('',(0.0375560796608386,-0.045,0.0199509618943234));
#1954=CARTESIAN_POINT('',(0.0368060796608386,-0.045,-0.02125));
#1955=CARTESIAN_POINT('',(0.0360560796608386,-0.0444522215417859,-0.0225490381056765));
#1956=CARTESIAN_POINT('',(0.0375560796608386,-0.0444522215417858,-0.0199509618943233));
#1957=CARTESIAN_POINT('',(0.0360560796608386,-0.0444522215417858,-0.0225490381056765));
#1958=CARTESIAN_POINT('',(0.0375560796608386,-0.045,-0.0199509618943233));
#1959=CARTESIAN_POINT('',(0.0378060796608386,-0.045,-0.019517949192431));
#1960=CARTESIAN_POINT('',(0.0358060796608386,-0.045,-0.0229820508075688));
#1961=CARTESIAN_POINT('',(0.0360560796608386,-0.045,-0.0225490381056765));
#1962=CARTESIAN_POINT('',(-0.0368060796608386,-0.045,-0.02125));
#1963=CARTESIAN_POINT('',(-0.0360560796608386,-0.0444522215417859,-0.0225490381056766));
#1964=CARTESIAN_POINT('',(-0.0360560796608386,-0.0444522215417859,-0.0225490381056766));
#1965=CARTESIAN_POINT('',(-0.0375560796608386,-0.0444522215417859,-0.0199509618943233));
#1966=CARTESIAN_POINT('',(-0.0360560796608386,-0.045,-0.0225490381056766));
#1967=CARTESIAN_POINT('',(-0.0358060796608386,-0.045,-0.0229820508075688));
#1968=CARTESIAN_POINT('',(-0.0378060796608386,-0.045,-0.019517949192431));
#1969=CARTESIAN_POINT('',(-0.0375560796608386,-0.045,-0.0199509618943233));
#1970=CARTESIAN_POINT('',(-0.0368060796608386,-0.045,0.02125));
#1971=CARTESIAN_POINT('',(-0.0360560796608386,-0.0444522215417857,0.0225490381056766));
#1972=CARTESIAN_POINT('',(-0.0375560796608386,-0.0444522215417857,0.0199509618943234));
#1973=CARTESIAN_POINT('',(-0.0360560796608386,-0.0444522215417857,0.0225490381056766));
#1974=CARTESIAN_POINT('',(-0.0375560796608386,-0.045,0.0199509618943234));
#1975=CARTESIAN_POINT('',(-0.0378060796608386,-0.045,0.0195179491924312));
#1976=CARTESIAN_POINT('',(-0.0358060796608386,-0.045,0.0229820508075688));
#1977=CARTESIAN_POINT('',(-0.0360560796608386,-0.045,0.0225490381056766));
#1978=CARTESIAN_POINT('',(0.,1.27131402344282E-17,-1.09863515750892E-17));
#1979=CARTESIAN_POINT('',(-0.0015,1.27131402344282E-17,-1.09863515750892E-17));
#1980=CARTESIAN_POINT('',(0.00075,1.42747738133752E-17,0.00129903810567666));
#1981=CARTESIAN_POINT('',(0.,1.27131402344282E-17,-1.09863515750892E-17));
#1982=CARTESIAN_POINT('',(-0.00075,1.11515066554814E-17,-0.00129903810567666));
#1983=CARTESIAN_POINT('',(-0.00075,1.42747738133752E-17,0.00129903810567665));
#1984=CARTESIAN_POINT('',(0.,1.27131402344282E-17,-1.09863515750892E-17));
#1985=CARTESIAN_POINT('',(0.00075,1.11515066554814E-17,-0.00129903810567666));
#1986=CARTESIAN_POINT('',(-0.0015,1.27131402344282E-17,-1.11700485949613E-17));
#1987=CARTESIAN_POINT('',(0.,1.27131402344282E-17,-1.09863515750892E-17));
#1988=CARTESIAN_POINT('',(0.0015,1.27131402344282E-17,-1.08026545552171E-17));
#1989=CARTESIAN_POINT('',(-0.00075,1.11515066554814E-17,-0.00129903810567666));
#1990=CARTESIAN_POINT('',(0.,1.27131402344282E-17,-1.09863515750892E-17));
#1991=CARTESIAN_POINT('',(0.00075,1.42747738133752E-17,0.00129903810567665));
#1992=CARTESIAN_POINT('',(0.00075,1.11515066554814E-17,-0.00129903810567666));
#1993=CARTESIAN_POINT('',(0.,1.27131402344282E-17,-1.09863515750892E-17));
#1994=CARTESIAN_POINT('',(0.0015,1.27131402344282E-17,-1.09863515750892E-17));
#1995=CARTESIAN_POINT('',(-0.00075,1.42747738133752E-17,0.00129903810567665));
#1996=CARTESIAN_POINT('',(3.03576608295941E-18,-0.045,2.77555756156289E-17));
#1997=CARTESIAN_POINT('',(0.007,-0.045,0.0469813792900975));
#1998=CARTESIAN_POINT('',(0.0371870679700565,-0.045,0.0295528674715398));
#1999=CARTESIAN_POINT('',(3.03576608295941E-18,-0.045,2.77555756156289E-17));
#2000=CARTESIAN_POINT('',(-0.007,-0.045,0.0469813792900975));
#2001=CARTESIAN_POINT('',(-0.0371870679700566,-0.045,0.0295528674715398));
#2002=CARTESIAN_POINT('',(3.03576608295941E-18,-0.045,2.77555756156289E-17));
#2003=CARTESIAN_POINT('',(-0.0441870679700565,-0.045,0.0174285118185576));
#2004=CARTESIAN_POINT('',(-0.0441870679700564,-0.045,-0.0174285118185576));
#2005=CARTESIAN_POINT('',(3.03576608295941E-18,-0.045,2.77555756156289E-17));
#2006=CARTESIAN_POINT('',(-0.0371870679700565,-0.045,-0.0295528674715397));
#2007=CARTESIAN_POINT('',(-0.007,-0.045,-0.0469813792900974));
#2008=CARTESIAN_POINT('',(3.03576608295941E-18,-0.045,2.77555756156289E-17));
#2009=CARTESIAN_POINT('',(0.007,-0.045,-0.0469813792900974));
#2010=CARTESIAN_POINT('',(0.0371870679700565,-0.045,-0.0295528674715397));
#2011=CARTESIAN_POINT('',(3.03576608295941E-18,-0.045,2.77555756156289E-17));
#2012=CARTESIAN_POINT('',(0.0441870679700565,-0.045,-0.0174285118185576));
#2013=CARTESIAN_POINT('',(0.0441870679700565,-0.045,0.0174285118185577));
#2014=CARTESIAN_POINT('',(0.0409965738154476,-0.045,0.0184732305054944));
#2015=CARTESIAN_POINT('',(0.0364965738154476,-0.045,0.0262674591395544));
#2016=CARTESIAN_POINT('',(0.0364965738154476,-0.045,-0.0262674591395543));
#2017=CARTESIAN_POINT('',(0.0409965738154476,-0.045,-0.0184732305054943));
#2018=CARTESIAN_POINT('',(-0.0045,-0.045,-0.0447406896450487));
#2019=CARTESIAN_POINT('',(-0.002,-0.045,-0.0425));
#2020=CARTESIAN_POINT('',(0.0045,-0.045,-0.0447406896450487));
#2021=CARTESIAN_POINT('',(0.002,-0.045,-0.0425));
#2022=CARTESIAN_POINT('',(5.42158933087335E-18,-0.045,-0.0425));
#2023=CARTESIAN_POINT('',(-0.0015,-0.045,-0.0425));
#2024=CARTESIAN_POINT('',(-0.0015,-0.0444522215417859,-0.0425));
#2025=CARTESIAN_POINT('',(-0.0015,-0.0444522215417859,-0.0425));
#2026=CARTESIAN_POINT('',(0.0015,-0.0444522215417859,-0.0425));
#2027=CARTESIAN_POINT('',(0.0015,-0.045,-0.0425));
#2028=CARTESIAN_POINT('',(-0.0409965738154476,-0.045,-0.0184732305054944));
#2029=CARTESIAN_POINT('',(-0.0364965738154476,-0.045,-0.0262674591395543));
#2030=CARTESIAN_POINT('',(-0.0364965738154476,-0.045,0.0262674591395544));
#2031=CARTESIAN_POINT('',(-0.0409965738154476,-0.045,0.0184732305054944));
#2032=CARTESIAN_POINT('',(0.0045,-0.045,0.0447406896450488));
#2033=CARTESIAN_POINT('',(0.002,-0.045,0.0425));
#2034=CARTESIAN_POINT('',(-0.0045,-0.045,0.0447406896450488));
#2035=CARTESIAN_POINT('',(-0.002,-0.045,0.0425));
#2036=CARTESIAN_POINT('',(-2.16840434497101E-19,-0.045,0.0425));
#2037=CARTESIAN_POINT('',(0.0015,-0.045,0.0425));
#2038=CARTESIAN_POINT('',(0.0015,-0.0444522215417857,0.0425));
#2039=CARTESIAN_POINT('',(0.0015,-0.0444522215417857,0.0425));
#2040=CARTESIAN_POINT('',(-0.0015,-0.0444522215417857,0.0425));
#2041=CARTESIAN_POINT('',(-0.0015,-0.045,0.0425));
#2042=CARTESIAN_POINT('',(0.000750000000000013,-0.01375,0.00129903810567667));
#2043=CARTESIAN_POINT('',(0.00075,1.4697276959081E-17,0.00129903810567666));
#2044=CARTESIAN_POINT('',(-0.000749999999999985,-0.01375,-0.00129903810567665));
#2045=CARTESIAN_POINT('',(-0.00075,1.15740098011872E-17,-0.00129903810567666));
#2046=CARTESIAN_POINT('',(0.00075,1.4697276959081E-17,0.00129903810567666));
#2047=CARTESIAN_POINT('',(-0.000750000000000015,-0.01375,0.00129903810567667));
#2048=CARTESIAN_POINT('',(-0.00075,1.4697276959081E-17,0.00129903810567666));
#2049=CARTESIAN_POINT('',(0.000750000000000015,-0.01375,-0.00129903810567663));
#2050=CARTESIAN_POINT('',(0.00075,1.15740098011872E-17,-0.00129903810567665));
#2051=CARTESIAN_POINT('',(0.00075,1.15740098011872E-17,-0.00129903810567666));
#2052=CARTESIAN_POINT('',(-0.000750000000000014,-0.01375,-0.00129903810567663));
#2053=CARTESIAN_POINT('',(-0.00075,1.15740098011872E-17,-0.00129903810567666));
#2054=CARTESIAN_POINT('',(0.000749999999999985,-0.01375,0.00129903810567668));
#2055=CARTESIAN_POINT('',(0.00075,1.4697276959081E-17,0.00129903810567666));
#2056=CARTESIAN_POINT('',(-0.00075,1.15740098011872E-17,-0.00129903810567666));
#2057=CARTESIAN_POINT('',(0.000749999999999986,-0.01375,-0.00129903810567665));
#2058=CARTESIAN_POINT('',(0.00075,1.15740098011872E-17,-0.00129903810567666));
#2059=CARTESIAN_POINT('',(-0.000750000000000015,-0.01375,0.00129903810567667));
#2060=CARTESIAN_POINT('',(-0.00075,1.4697276959081E-17,0.00129903810567666));
#2061=CARTESIAN_POINT('',(0.00075,1.15740098011872E-17,-0.00129903810567666));
#2062=CARTESIAN_POINT('',(-0.0015,-0.01375,3.28753204434148E-17));
#2063=CARTESIAN_POINT('',(-0.0015,1.31356433801341E-17,4.74944315200338E-18));
#2064=CARTESIAN_POINT('',(0.0015,-0.01375,3.3242714483159E-17));
#2065=CARTESIAN_POINT('',(0.0015,1.31356433801341E-17,5.11683719174759E-18));
#2066=CARTESIAN_POINT('',(-0.0015,1.31356433801341E-17,4.74944315200338E-18));
#2067=CARTESIAN_POINT('',(0.0015,1.31356433801341E-17,-4.93314017187552E-18));
#2068=CARTESIAN_POINT('',(-0.0015,1.31356433801341E-17,-4.93314017187552E-18));
#2069=CARTESIAN_POINT('',(0.0015,1.31356433801341E-17,-4.93314017187552E-18));
#2070=CARTESIAN_POINT('',(0.0015,-0.01375,0.));
#2071=CARTESIAN_POINT('',(-0.0015,-0.01375,0.));
#2072=MECHANICAL_DESIGN_GEOMETRIC_PRESENTATION_REPRESENTATION('',(#1225),
#2073);
#2073=(
GEOMETRIC_REPRESENTATION_CONTEXT(3)
GLOBAL_UNCERTAINTY_ASSIGNED_CONTEXT((#2074))
GLOBAL_UNIT_ASSIGNED_CONTEXT((#2077,#2076,#2075))
REPRESENTATION_CONTEXT('Nose Ring1','TOP_LEVEL_ASSEMBLY_PART')
);
#2074=UNCERTAINTY_MEASURE_WITH_UNIT(LENGTH_MEASURE(1.E-8),#2077,
'DISTANCE_ACCURACY_VALUE','Maximum Tolerance applied to model');
#2075=(
NAMED_UNIT(*)
SI_UNIT($,.STERADIAN.)
SOLID_ANGLE_UNIT()
);
#2076=(
NAMED_UNIT(*)
PLANE_ANGLE_UNIT()
SI_UNIT($,.RADIAN.)
);
#2077=(
LENGTH_UNIT()
NAMED_UNIT(*)
SI_UNIT($,.METRE.)
);
#2078=PRODUCT_DEFINITION_SHAPE('','',#2079);
#2079=PRODUCT_DEFINITION('','',#2081,#2080);
#2080=PRODUCT_DEFINITION_CONTEXT('',#2087,'design');
#2081=PRODUCT_DEFINITION_FORMATION_WITH_SPECIFIED_SOURCE('','',#2083,
 .NOT_KNOWN.);
#2082=PRODUCT_RELATED_PRODUCT_CATEGORY('','',(#2083));
#2083=PRODUCT('Nose Ring1','Nose Ring1','Nose Ring1',(#2085));
#2084=PRODUCT_CATEGORY('','');
#2085=PRODUCT_CONTEXT('',#2087,'mechanical');
#2086=APPLICATION_PROTOCOL_DEFINITION('international standard',
'ap242_managed_model_based_3d_engineering',2020,#2087);
#2087=APPLICATION_CONTEXT('managed model based 3d engineering');
ENDSEC;
END-ISO-10303-21;
