ISO-10303-21;
HEADER;
/* Generated by software containing ST-Developer
 * from STEP Tools, Inc. (www.steptools.com) 
 */
/* OPTION: using custom renumber hook */

FILE_DESCRIPTION(
/* description */ ('STEP AP242 Edition 2',
'CAx-IF Rec.Pracs.---Representation and Presentation of Product Manufa
cturing Information (PMI)---4.0---2014-10-13',
'CAx-IF Rec.Pracs.---3D Tessellated Geometry---0.4---2014-09-14','2;1',
'CAx-IF Rec.Pracs.---User Defined Attributes---1.5---2016-08-15'),
/* implementation_level */ '2;1');

FILE_NAME(
/* name */ 'Nose V2 - Nose V2 Shell',
/* time_stamp */ '2026-08-23T20:26:28Z',
/* author */ (''),
/* organization */ (''),
/* preprocessor_version */ 'ST-DEVELOPER v20',
/* originating_system */ 'ONSHAPE BY PTC INC, 1.219',
/* authorisation */ '  ');

FILE_SCHEMA (('AP242_MANAGED_MODEL_BASED_3D_ENGINEERING_MIM_LF { 1 0 10303 442 3 1 4 }'));
ENDSEC;

DATA;
#10=SHAPE_REPRESENTATION_RELATIONSHIP('','',#692,#11);
#11=ADVANCED_BREP_SHAPE_REPRESENTATION('',(#690),#1201);
#12=ELLIPSE('',#740,0.071014083110324,0.0615);
#13=ELLIPSE('',#741,0.071014083110324,0.0615);
#14=ELLIPSE('',#744,0.071014083110324,0.0615);
#15=ELLIPSE('',#745,0.071014083110324,0.0615);
#16=ELLIPSE('',#751,0.071014083110324,0.0615);
#17=ELLIPSE('',#758,0.071014083110324,0.0615);
#18=PLANE('',#730);
#19=PLANE('',#735);
#20=PLANE('',#737);
#21=PLANE('',#742);
#22=PLANE('',#748);
#23=PLANE('',#753);
#24=PLANE('',#754);
#25=PLANE('',#755);
#26=PLANE('',#760);
#27=PLANE('',#761);
#28=PLANE('',#762);
#29=PLANE('',#763);
#30=PLANE('',#764);
#31=PLANE('',#766);
#32=PLANE('',#769);
#33=PLANE('',#770);
#34=PLANE('',#772);
#35=PLANE('',#775);
#36=PLANE('',#776);
#37=LINE('',#1036,#91);
#38=LINE('',#1038,#92);
#39=LINE('',#1042,#93);
#40=LINE('',#1044,#94);
#41=LINE('',#1048,#95);
#42=LINE('',#1050,#96);
#43=LINE('',#1054,#97);
#44=LINE('',#1058,#98);
#45=LINE('',#1060,#99);
#46=LINE('',#1064,#100);
#47=LINE('',#1069,#101);
#48=LINE('',#1073,#102);
#49=LINE('',#1079,#103);
#50=LINE('',#1081,#104);
#51=LINE('',#1083,#105);
#52=LINE('',#1084,#106);
#53=LINE('',#1086,#107);
#54=LINE('',#1088,#108);
#55=LINE('',#1089,#109);
#56=LINE('',#1091,#110);
#57=LINE('',#1093,#111);
#58=LINE('',#1094,#112);
#59=LINE('',#1096,#113);
#60=LINE('',#1098,#114);
#61=LINE('',#1099,#115);
#62=LINE('',#1101,#116);
#63=LINE('',#1103,#117);
#64=LINE('',#1104,#118);
#65=LINE('',#1106,#119);
#66=LINE('',#1108,#120);
#67=LINE('',#1116,#121);
#68=LINE('',#1120,#122);
#69=LINE('',#1122,#123);
#70=LINE('',#1126,#124);
#71=LINE('',#1131,#125);
#72=LINE('',#1140,#126);
#73=LINE('',#1144,#127);
#74=LINE('',#1145,#128);
#75=LINE('',#1153,#129);
#76=LINE('',#1155,#130);
#77=LINE('',#1157,#131);
#78=LINE('',#1159,#132);
#79=LINE('',#1162,#133);
#80=LINE('',#1168,#134);
#81=LINE('',#1170,#135);
#82=LINE('',#1172,#136);
#83=LINE('',#1174,#137);
#84=LINE('',#1176,#138);
#85=LINE('',#1178,#139);
#86=LINE('',#1182,#140);
#87=LINE('',#1184,#141);
#88=LINE('',#1189,#142);
#89=LINE('',#1193,#143);
#90=LINE('',#1195,#144);
#91=VECTOR('',#821,1.);
#92=VECTOR('',#822,1.);
#93=VECTOR('',#827,1.);
#94=VECTOR('',#828,1.);
#95=VECTOR('',#833,1.);
#96=VECTOR('',#834,1.);
#97=VECTOR('',#839,1.);
#98=VECTOR('',#842,1.);
#99=VECTOR('',#845,1.);
#100=VECTOR('',#848,1.);
#101=VECTOR('',#853,1.);
#102=VECTOR('',#856,1.);
#103=VECTOR('',#865,1.);
#104=VECTOR('',#866,1.);
#105=VECTOR('',#867,1.);
#106=VECTOR('',#868,1.);
#107=VECTOR('',#869,1.);
#108=VECTOR('',#870,1.);
#109=VECTOR('',#871,1.);
#110=VECTOR('',#872,1.);
#111=VECTOR('',#873,1.);
#112=VECTOR('',#874,1.);
#113=VECTOR('',#875,1.);
#114=VECTOR('',#876,1.);
#115=VECTOR('',#877,1.);
#116=VECTOR('',#878,1.);
#117=VECTOR('',#879,1.);
#118=VECTOR('',#880,1.);
#119=VECTOR('',#881,1.);
#120=VECTOR('',#882,1.);
#121=VECTOR('',#893,1.);
#122=VECTOR('',#896,1.);
#123=VECTOR('',#899,1.);
#124=VECTOR('',#902,1.);
#125=VECTOR('',#909,1.);
#126=VECTOR('',#920,1.);
#127=VECTOR('',#925,1.);
#128=VECTOR('',#926,1.);
#129=VECTOR('',#935,1.);
#130=VECTOR('',#938,1.);
#131=VECTOR('',#941,1.);
#132=VECTOR('',#944,1.);
#133=VECTOR('',#947,1.);
#134=VECTOR('',#954,1.);
#135=VECTOR('',#957,1.);
#136=VECTOR('',#960,1.);
#137=VECTOR('',#963,1.);
#138=VECTOR('',#966,1.);
#139=VECTOR('',#969,1.);
#140=VECTOR('',#974,1.);
#141=VECTOR('',#975,1.);
#142=VECTOR('',#984,1.);
#143=VECTOR('',#989,1.);
#144=VECTOR('',#990,1.);
#145=CYLINDRICAL_SURFACE('',#714,0.0661);
#146=CYLINDRICAL_SURFACE('',#716,0.0661);
#147=CYLINDRICAL_SURFACE('',#718,0.0661);
#148=CYLINDRICAL_SURFACE('',#720,0.0661);
#149=CYLINDRICAL_SURFACE('',#722,0.0661);
#150=CYLINDRICAL_SURFACE('',#724,0.0661);
#151=CYLINDRICAL_SURFACE('',#732,0.0675);
#152=CYLINDRICAL_SURFACE('',#739,0.0615);
#153=CYLINDRICAL_SURFACE('',#743,0.0615);
#154=CYLINDRICAL_SURFACE('',#749,0.0615);
#155=CYLINDRICAL_SURFACE('',#757,0.0615);
#156=CYLINDRICAL_SURFACE('',#767,0.0615);
#157=CYLINDRICAL_SURFACE('',#773,0.0615);
#158=ORIENTED_EDGE('',*,*,#354,.F.);
#159=ORIENTED_EDGE('',*,*,#355,.F.);
#160=ORIENTED_EDGE('',*,*,#356,.T.);
#161=ORIENTED_EDGE('',*,*,#357,.F.);
#162=ORIENTED_EDGE('',*,*,#358,.T.);
#163=ORIENTED_EDGE('',*,*,#359,.F.);
#164=ORIENTED_EDGE('',*,*,#360,.F.);
#165=ORIENTED_EDGE('',*,*,#361,.F.);
#166=ORIENTED_EDGE('',*,*,#362,.T.);
#167=ORIENTED_EDGE('',*,*,#363,.F.);
#168=ORIENTED_EDGE('',*,*,#364,.T.);
#169=ORIENTED_EDGE('',*,*,#365,.F.);
#170=ORIENTED_EDGE('',*,*,#366,.F.);
#171=ORIENTED_EDGE('',*,*,#367,.T.);
#172=ORIENTED_EDGE('',*,*,#368,.T.);
#173=ORIENTED_EDGE('',*,*,#369,.F.);
#174=ORIENTED_EDGE('',*,*,#366,.T.);
#175=ORIENTED_EDGE('',*,*,#370,.F.);
#176=ORIENTED_EDGE('',*,*,#371,.F.);
#177=ORIENTED_EDGE('',*,*,#372,.F.);
#178=ORIENTED_EDGE('',*,*,#363,.T.);
#179=ORIENTED_EDGE('',*,*,#373,.T.);
#180=ORIENTED_EDGE('',*,*,#374,.F.);
#181=ORIENTED_EDGE('',*,*,#375,.F.);
#182=ORIENTED_EDGE('',*,*,#357,.T.);
#183=ORIENTED_EDGE('',*,*,#376,.T.);
#184=ORIENTED_EDGE('',*,*,#377,.F.);
#185=ORIENTED_EDGE('',*,*,#355,.T.);
#186=ORIENTED_EDGE('',*,*,#378,.T.);
#187=ORIENTED_EDGE('',*,*,#379,.F.);
#188=ORIENTED_EDGE('',*,*,#380,.F.);
#189=ORIENTED_EDGE('',*,*,#361,.T.);
#190=ORIENTED_EDGE('',*,*,#381,.T.);
#191=ORIENTED_EDGE('',*,*,#382,.F.);
#192=ORIENTED_EDGE('',*,*,#383,.F.);
#193=ORIENTED_EDGE('',*,*,#384,.T.);
#194=ORIENTED_EDGE('',*,*,#385,.T.);
#195=ORIENTED_EDGE('',*,*,#386,.F.);
#196=ORIENTED_EDGE('',*,*,#387,.F.);
#197=ORIENTED_EDGE('',*,*,#388,.F.);
#198=ORIENTED_EDGE('',*,*,#384,.F.);
#199=ORIENTED_EDGE('',*,*,#389,.T.);
#200=ORIENTED_EDGE('',*,*,#386,.T.);
#201=ORIENTED_EDGE('',*,*,#390,.T.);
#202=ORIENTED_EDGE('',*,*,#391,.T.);
#203=ORIENTED_EDGE('',*,*,#392,.F.);
#204=ORIENTED_EDGE('',*,*,#371,.T.);
#205=ORIENTED_EDGE('',*,*,#393,.T.);
#206=ORIENTED_EDGE('',*,*,#394,.T.);
#207=ORIENTED_EDGE('',*,*,#395,.F.);
#208=ORIENTED_EDGE('',*,*,#379,.T.);
#209=ORIENTED_EDGE('',*,*,#396,.T.);
#210=ORIENTED_EDGE('',*,*,#397,.T.);
#211=ORIENTED_EDGE('',*,*,#398,.F.);
#212=ORIENTED_EDGE('',*,*,#377,.T.);
#213=ORIENTED_EDGE('',*,*,#399,.T.);
#214=ORIENTED_EDGE('',*,*,#400,.T.);
#215=ORIENTED_EDGE('',*,*,#401,.F.);
#216=ORIENTED_EDGE('',*,*,#382,.T.);
#217=ORIENTED_EDGE('',*,*,#402,.T.);
#218=ORIENTED_EDGE('',*,*,#403,.T.);
#219=ORIENTED_EDGE('',*,*,#404,.F.);
#220=ORIENTED_EDGE('',*,*,#374,.T.);
#221=ORIENTED_EDGE('',*,*,#405,.T.);
#222=ORIENTED_EDGE('',*,*,#406,.T.);
#223=ORIENTED_EDGE('',*,*,#407,.F.);
#224=ORIENTED_EDGE('',*,*,#408,.F.);
#225=ORIENTED_EDGE('',*,*,#408,.T.);
#226=ORIENTED_EDGE('',*,*,#409,.F.);
#227=ORIENTED_EDGE('',*,*,#409,.T.);
#228=ORIENTED_EDGE('',*,*,#385,.F.);
#229=ORIENTED_EDGE('',*,*,#388,.T.);
#230=ORIENTED_EDGE('',*,*,#410,.T.);
#231=ORIENTED_EDGE('',*,*,#411,.F.);
#232=ORIENTED_EDGE('',*,*,#412,.F.);
#233=ORIENTED_EDGE('',*,*,#390,.F.);
#234=ORIENTED_EDGE('',*,*,#367,.F.);
#235=ORIENTED_EDGE('',*,*,#369,.T.);
#236=ORIENTED_EDGE('',*,*,#392,.T.);
#237=ORIENTED_EDGE('',*,*,#413,.T.);
#238=ORIENTED_EDGE('',*,*,#414,.T.);
#239=ORIENTED_EDGE('',*,*,#415,.F.);
#240=ORIENTED_EDGE('',*,*,#416,.F.);
#241=ORIENTED_EDGE('',*,*,#417,.F.);
#242=ORIENTED_EDGE('',*,*,#414,.F.);
#243=ORIENTED_EDGE('',*,*,#418,.F.);
#244=ORIENTED_EDGE('',*,*,#411,.T.);
#245=ORIENTED_EDGE('',*,*,#413,.F.);
#246=ORIENTED_EDGE('',*,*,#391,.F.);
#247=ORIENTED_EDGE('',*,*,#412,.T.);
#248=ORIENTED_EDGE('',*,*,#418,.T.);
#249=ORIENTED_EDGE('',*,*,#419,.F.);
#250=ORIENTED_EDGE('',*,*,#420,.T.);
#251=ORIENTED_EDGE('',*,*,#421,.F.);
#252=ORIENTED_EDGE('',*,*,#422,.F.);
#253=ORIENTED_EDGE('',*,*,#423,.T.);
#254=ORIENTED_EDGE('',*,*,#381,.F.);
#255=ORIENTED_EDGE('',*,*,#360,.T.);
#256=ORIENTED_EDGE('',*,*,#424,.T.);
#257=ORIENTED_EDGE('',*,*,#423,.F.);
#258=ORIENTED_EDGE('',*,*,#425,.F.);
#259=ORIENTED_EDGE('',*,*,#402,.F.);
#260=ORIENTED_EDGE('',*,*,#426,.F.);
#261=ORIENTED_EDGE('',*,*,#417,.T.);
#262=ORIENTED_EDGE('',*,*,#427,.T.);
#263=ORIENTED_EDGE('',*,*,#428,.F.);
#264=ORIENTED_EDGE('',*,*,#429,.F.);
#265=ORIENTED_EDGE('',*,*,#430,.F.);
#266=ORIENTED_EDGE('',*,*,#403,.F.);
#267=ORIENTED_EDGE('',*,*,#425,.T.);
#268=ORIENTED_EDGE('',*,*,#422,.T.);
#269=ORIENTED_EDGE('',*,*,#364,.F.);
#270=ORIENTED_EDGE('',*,*,#372,.T.);
#271=ORIENTED_EDGE('',*,*,#404,.T.);
#272=ORIENTED_EDGE('',*,*,#430,.T.);
#273=ORIENTED_EDGE('',*,*,#421,.T.);
#274=ORIENTED_EDGE('',*,*,#431,.F.);
#275=ORIENTED_EDGE('',*,*,#378,.F.);
#276=ORIENTED_EDGE('',*,*,#354,.T.);
#277=ORIENTED_EDGE('',*,*,#432,.T.);
#278=ORIENTED_EDGE('',*,*,#433,.F.);
#279=ORIENTED_EDGE('',*,*,#434,.F.);
#280=ORIENTED_EDGE('',*,*,#396,.F.);
#281=ORIENTED_EDGE('',*,*,#427,.F.);
#282=ORIENTED_EDGE('',*,*,#435,.T.);
#283=ORIENTED_EDGE('',*,*,#436,.F.);
#284=ORIENTED_EDGE('',*,*,#437,.F.);
#285=ORIENTED_EDGE('',*,*,#433,.T.);
#286=ORIENTED_EDGE('',*,*,#438,.F.);
#287=ORIENTED_EDGE('',*,*,#397,.F.);
#288=ORIENTED_EDGE('',*,*,#434,.T.);
#289=ORIENTED_EDGE('',*,*,#437,.T.);
#290=ORIENTED_EDGE('',*,*,#358,.F.);
#291=ORIENTED_EDGE('',*,*,#375,.T.);
#292=ORIENTED_EDGE('',*,*,#398,.T.);
#293=ORIENTED_EDGE('',*,*,#438,.T.);
#294=ORIENTED_EDGE('',*,*,#436,.T.);
#295=ORIENTED_EDGE('',*,*,#439,.F.);
#296=ORIENTED_EDGE('',*,*,#356,.F.);
#297=ORIENTED_EDGE('',*,*,#380,.T.);
#298=ORIENTED_EDGE('',*,*,#395,.T.);
#299=ORIENTED_EDGE('',*,*,#440,.T.);
#300=ORIENTED_EDGE('',*,*,#428,.T.);
#301=ORIENTED_EDGE('',*,*,#432,.F.);
#302=ORIENTED_EDGE('',*,*,#440,.F.);
#303=ORIENTED_EDGE('',*,*,#394,.F.);
#304=ORIENTED_EDGE('',*,*,#441,.T.);
#305=ORIENTED_EDGE('',*,*,#429,.T.);
#306=ORIENTED_EDGE('',*,*,#362,.F.);
#307=ORIENTED_EDGE('',*,*,#383,.T.);
#308=ORIENTED_EDGE('',*,*,#401,.T.);
#309=ORIENTED_EDGE('',*,*,#442,.T.);
#310=ORIENTED_EDGE('',*,*,#443,.T.);
#311=ORIENTED_EDGE('',*,*,#424,.F.);
#312=ORIENTED_EDGE('',*,*,#442,.F.);
#313=ORIENTED_EDGE('',*,*,#400,.F.);
#314=ORIENTED_EDGE('',*,*,#444,.T.);
#315=ORIENTED_EDGE('',*,*,#445,.T.);
#316=ORIENTED_EDGE('',*,*,#435,.F.);
#317=ORIENTED_EDGE('',*,*,#419,.T.);
#318=ORIENTED_EDGE('',*,*,#443,.F.);
#319=ORIENTED_EDGE('',*,*,#445,.F.);
#320=ORIENTED_EDGE('',*,*,#446,.T.);
#321=ORIENTED_EDGE('',*,*,#376,.F.);
#322=ORIENTED_EDGE('',*,*,#359,.T.);
#323=ORIENTED_EDGE('',*,*,#439,.T.);
#324=ORIENTED_EDGE('',*,*,#446,.F.);
#325=ORIENTED_EDGE('',*,*,#444,.F.);
#326=ORIENTED_EDGE('',*,*,#399,.F.);
#327=ORIENTED_EDGE('',*,*,#389,.F.);
#328=ORIENTED_EDGE('',*,*,#387,.T.);
#329=ORIENTED_EDGE('',*,*,#407,.T.);
#330=ORIENTED_EDGE('',*,*,#447,.T.);
#331=ORIENTED_EDGE('',*,*,#448,.T.);
#332=ORIENTED_EDGE('',*,*,#410,.F.);
#333=ORIENTED_EDGE('',*,*,#447,.F.);
#334=ORIENTED_EDGE('',*,*,#406,.F.);
#335=ORIENTED_EDGE('',*,*,#449,.T.);
#336=ORIENTED_EDGE('',*,*,#450,.T.);
#337=ORIENTED_EDGE('',*,*,#420,.F.);
#338=ORIENTED_EDGE('',*,*,#416,.T.);
#339=ORIENTED_EDGE('',*,*,#448,.F.);
#340=ORIENTED_EDGE('',*,*,#450,.F.);
#341=ORIENTED_EDGE('',*,*,#451,.T.);
#342=ORIENTED_EDGE('',*,*,#373,.F.);
#343=ORIENTED_EDGE('',*,*,#365,.T.);
#344=ORIENTED_EDGE('',*,*,#431,.T.);
#345=ORIENTED_EDGE('',*,*,#451,.F.);
#346=ORIENTED_EDGE('',*,*,#449,.F.);
#347=ORIENTED_EDGE('',*,*,#405,.F.);
#348=ORIENTED_EDGE('',*,*,#368,.F.);
#349=ORIENTED_EDGE('',*,*,#415,.T.);
#350=ORIENTED_EDGE('',*,*,#426,.T.);
#351=ORIENTED_EDGE('',*,*,#441,.F.);
#352=ORIENTED_EDGE('',*,*,#393,.F.);
#353=ORIENTED_EDGE('',*,*,#370,.T.);
#354=EDGE_CURVE('',#452,#453,#515,.T.);
#355=EDGE_CURVE('',#454,#452,#516,.T.);
#356=EDGE_CURVE('',#454,#453,#517,.T.);
#357=EDGE_CURVE('',#455,#456,#518,.T.);
#358=EDGE_CURVE('',#455,#457,#519,.T.);
#359=EDGE_CURVE('',#456,#457,#520,.T.);
#360=EDGE_CURVE('',#458,#459,#521,.T.);
#361=EDGE_CURVE('',#460,#458,#522,.T.);
#362=EDGE_CURVE('',#460,#459,#523,.T.);
#363=EDGE_CURVE('',#461,#462,#524,.T.);
#364=EDGE_CURVE('',#461,#463,#525,.T.);
#365=EDGE_CURVE('',#462,#463,#526,.T.);
#366=EDGE_CURVE('',#464,#465,#527,.T.);
#367=EDGE_CURVE('',#464,#466,#528,.T.);
#368=EDGE_CURVE('',#466,#465,#529,.T.);
#369=EDGE_CURVE('',#464,#467,#37,.F.);
#370=EDGE_CURVE('',#468,#465,#38,.T.);
#371=EDGE_CURVE('',#467,#468,#530,.T.);
#372=EDGE_CURVE('',#461,#469,#39,.F.);
#373=EDGE_CURVE('',#462,#470,#40,.F.);
#374=EDGE_CURVE('',#469,#470,#531,.T.);
#375=EDGE_CURVE('',#455,#471,#41,.F.);
#376=EDGE_CURVE('',#456,#472,#42,.F.);
#377=EDGE_CURVE('',#471,#472,#532,.T.);
#378=EDGE_CURVE('',#452,#473,#43,.F.);
#379=EDGE_CURVE('',#474,#473,#533,.T.);
#380=EDGE_CURVE('',#454,#474,#44,.F.);
#381=EDGE_CURVE('',#458,#475,#45,.F.);
#382=EDGE_CURVE('',#476,#475,#534,.T.);
#383=EDGE_CURVE('',#460,#476,#46,.F.);
#384=EDGE_CURVE('',#477,#478,#535,.T.);
#385=EDGE_CURVE('',#478,#479,#47,.F.);
#386=EDGE_CURVE('',#480,#479,#536,.T.);
#387=EDGE_CURVE('',#477,#480,#48,.F.);
#388=EDGE_CURVE('',#478,#481,#537,.T.);
#389=EDGE_CURVE('',#477,#481,#538,.T.);
#390=EDGE_CURVE('',#479,#482,#49,.T.);
#391=EDGE_CURVE('',#482,#483,#50,.T.);
#392=EDGE_CURVE('',#467,#483,#51,.T.);
#393=EDGE_CURVE('',#468,#484,#52,.T.);
#394=EDGE_CURVE('',#484,#485,#53,.T.);
#395=EDGE_CURVE('',#474,#485,#54,.T.);
#396=EDGE_CURVE('',#473,#486,#55,.T.);
#397=EDGE_CURVE('',#486,#487,#56,.T.);
#398=EDGE_CURVE('',#471,#487,#57,.T.);
#399=EDGE_CURVE('',#472,#488,#58,.T.);
#400=EDGE_CURVE('',#488,#489,#59,.T.);
#401=EDGE_CURVE('',#476,#489,#60,.T.);
#402=EDGE_CURVE('',#475,#490,#61,.T.);
#403=EDGE_CURVE('',#490,#491,#62,.T.);
#404=EDGE_CURVE('',#469,#491,#63,.T.);
#405=EDGE_CURVE('',#470,#492,#64,.T.);
#406=EDGE_CURVE('',#492,#493,#65,.T.);
#407=EDGE_CURVE('',#480,#493,#66,.T.);
#408=EDGE_CURVE('',#494,#494,#539,.T.);
#409=EDGE_CURVE('',#495,#495,#540,.T.);
#410=EDGE_CURVE('',#481,#496,#67,.T.);
#411=EDGE_CURVE('',#497,#496,#541,.T.);
#412=EDGE_CURVE('',#482,#497,#68,.T.);
#413=EDGE_CURVE('',#483,#498,#69,.T.);
#414=EDGE_CURVE('',#498,#499,#542,.T.);
#415=EDGE_CURVE('',#466,#499,#70,.T.);
#416=EDGE_CURVE('',#500,#496,#12,.T.);
#417=EDGE_CURVE('',#499,#500,#13,.F.);
#418=EDGE_CURVE('',#497,#498,#71,.T.);
#419=EDGE_CURVE('',#500,#501,#14,.T.);
#420=EDGE_CURVE('',#500,#502,#15,.T.);
#421=EDGE_CURVE('',#503,#502,#543,.T.);
#422=EDGE_CURVE('',#504,#503,#72,.T.);
#423=EDGE_CURVE('',#504,#501,#544,.T.);
#424=EDGE_CURVE('',#459,#501,#73,.T.);
#425=EDGE_CURVE('',#490,#504,#74,.T.);
#426=EDGE_CURVE('',#499,#505,#545,.T.);
#427=EDGE_CURVE('',#500,#506,#16,.T.);
#428=EDGE_CURVE('',#507,#506,#546,.T.);
#429=EDGE_CURVE('',#505,#507,#75,.T.);
#430=EDGE_CURVE('',#491,#503,#76,.T.);
#431=EDGE_CURVE('',#463,#502,#77,.T.);
#432=EDGE_CURVE('',#453,#506,#78,.T.);
#433=EDGE_CURVE('',#508,#506,#547,.T.);
#434=EDGE_CURVE('',#486,#508,#79,.T.);
#435=EDGE_CURVE('',#500,#509,#17,.T.);
#436=EDGE_CURVE('',#510,#509,#548,.T.);
#437=EDGE_CURVE('',#508,#510,#80,.T.);
#438=EDGE_CURVE('',#487,#510,#81,.T.);
#439=EDGE_CURVE('',#457,#509,#82,.T.);
#440=EDGE_CURVE('',#485,#507,#83,.T.);
#441=EDGE_CURVE('',#484,#505,#84,.T.);
#442=EDGE_CURVE('',#489,#511,#85,.T.);
#443=EDGE_CURVE('',#511,#501,#549,.T.);
#444=EDGE_CURVE('',#488,#512,#86,.T.);
#445=EDGE_CURVE('',#512,#511,#87,.T.);
#446=EDGE_CURVE('',#512,#509,#550,.T.);
#447=EDGE_CURVE('',#493,#513,#88,.T.);
#448=EDGE_CURVE('',#513,#496,#551,.T.);
#449=EDGE_CURVE('',#492,#514,#89,.T.);
#450=EDGE_CURVE('',#514,#513,#90,.T.);
#451=EDGE_CURVE('',#514,#502,#552,.T.);
#452=VERTEX_POINT('',#1002);
#453=VERTEX_POINT('',#1003);
#454=VERTEX_POINT('',#1005);
#455=VERTEX_POINT('',#1009);
#456=VERTEX_POINT('',#1010);
#457=VERTEX_POINT('',#1012);
#458=VERTEX_POINT('',#1016);
#459=VERTEX_POINT('',#1017);
#460=VERTEX_POINT('',#1019);
#461=VERTEX_POINT('',#1023);
#462=VERTEX_POINT('',#1024);
#463=VERTEX_POINT('',#1026);
#464=VERTEX_POINT('',#1030);
#465=VERTEX_POINT('',#1031);
#466=VERTEX_POINT('',#1033);
#467=VERTEX_POINT('',#1037);
#468=VERTEX_POINT('',#1039);
#469=VERTEX_POINT('',#1043);
#470=VERTEX_POINT('',#1045);
#471=VERTEX_POINT('',#1049);
#472=VERTEX_POINT('',#1051);
#473=VERTEX_POINT('',#1055);
#474=VERTEX_POINT('',#1057);
#475=VERTEX_POINT('',#1061);
#476=VERTEX_POINT('',#1063);
#477=VERTEX_POINT('',#1067);
#478=VERTEX_POINT('',#1068);
#479=VERTEX_POINT('',#1070);
#480=VERTEX_POINT('',#1072);
#481=VERTEX_POINT('',#1076);
#482=VERTEX_POINT('',#1080);
#483=VERTEX_POINT('',#1082);
#484=VERTEX_POINT('',#1085);
#485=VERTEX_POINT('',#1087);
#486=VERTEX_POINT('',#1090);
#487=VERTEX_POINT('',#1092);
#488=VERTEX_POINT('',#1095);
#489=VERTEX_POINT('',#1097);
#490=VERTEX_POINT('',#1100);
#491=VERTEX_POINT('',#1102);
#492=VERTEX_POINT('',#1105);
#493=VERTEX_POINT('',#1107);
#494=VERTEX_POINT('',#1110);
#495=VERTEX_POINT('',#1113);
#496=VERTEX_POINT('',#1117);
#497=VERTEX_POINT('',#1119);
#498=VERTEX_POINT('',#1123);
#499=VERTEX_POINT('',#1125);
#500=VERTEX_POINT('',#1129);
#501=VERTEX_POINT('',#1135);
#502=VERTEX_POINT('',#1137);
#503=VERTEX_POINT('',#1139);
#504=VERTEX_POINT('',#1141);
#505=VERTEX_POINT('',#1148);
#506=VERTEX_POINT('',#1150);
#507=VERTEX_POINT('',#1152);
#508=VERTEX_POINT('',#1161);
#509=VERTEX_POINT('',#1165);
#510=VERTEX_POINT('',#1167);
#511=VERTEX_POINT('',#1179);
#512=VERTEX_POINT('',#1183);
#513=VERTEX_POINT('',#1190);
#514=VERTEX_POINT('',#1194);
#515=CIRCLE('',#695,0.066082978141122);
#516=CIRCLE('',#696,0.0661);
#517=CIRCLE('',#697,0.066082978141122);
#518=CIRCLE('',#699,0.0661);
#519=CIRCLE('',#700,0.066082978141122);
#520=CIRCLE('',#701,0.066082978141122);
#521=CIRCLE('',#703,0.066082978141122);
#522=CIRCLE('',#704,0.0661);
#523=CIRCLE('',#705,0.066082978141122);
#524=CIRCLE('',#707,0.0661);
#525=CIRCLE('',#708,0.066082978141122);
#526=CIRCLE('',#709,0.066082978141122);
#527=CIRCLE('',#711,0.0661);
#528=CIRCLE('',#712,0.066082978141122);
#529=CIRCLE('',#713,0.066082978141122);
#530=CIRCLE('',#715,0.0661);
#531=CIRCLE('',#717,0.0661);
#532=CIRCLE('',#719,0.0661);
#533=CIRCLE('',#721,0.0661);
#534=CIRCLE('',#723,0.0661);
#535=CIRCLE('',#725,0.0661);
#536=CIRCLE('',#726,0.0661);
#537=CIRCLE('',#728,0.066082978141122);
#538=CIRCLE('',#729,0.066082978141122);
#539=CIRCLE('',#731,0.0675);
#540=CIRCLE('',#733,0.0675);
#541=CIRCLE('',#736,0.0615);
#542=CIRCLE('',#738,0.0615);
#543=CIRCLE('',#746,0.0615);
#544=CIRCLE('',#747,0.0615);
#545=CIRCLE('',#750,0.0615);
#546=CIRCLE('',#752,0.0615);
#547=CIRCLE('',#756,0.0615);
#548=CIRCLE('',#759,0.0615);
#549=CIRCLE('',#765,0.0615);
#550=CIRCLE('',#768,0.0615);
#551=CIRCLE('',#771,0.0615);
#552=CIRCLE('',#774,0.0615);
#553=EDGE_LOOP('',(#158,#159,#160));
#554=EDGE_LOOP('',(#161,#162,#163));
#555=EDGE_LOOP('',(#164,#165,#166));
#556=EDGE_LOOP('',(#167,#168,#169));
#557=EDGE_LOOP('',(#170,#171,#172));
#558=EDGE_LOOP('',(#173,#174,#175,#176));
#559=EDGE_LOOP('',(#177,#178,#179,#180));
#560=EDGE_LOOP('',(#181,#182,#183,#184));
#561=EDGE_LOOP('',(#185,#186,#187,#188));
#562=EDGE_LOOP('',(#189,#190,#191,#192));
#563=EDGE_LOOP('',(#193,#194,#195,#196));
#564=EDGE_LOOP('',(#197,#198,#199));
#565=EDGE_LOOP('',(#200,#201,#202,#203,#204,#205,#206,#207,#208,#209,#210,
#211,#212,#213,#214,#215,#216,#217,#218,#219,#220,#221,#222,#223));
#566=EDGE_LOOP('',(#224));
#567=EDGE_LOOP('',(#225));
#568=EDGE_LOOP('',(#226));
#569=EDGE_LOOP('',(#227));
#570=EDGE_LOOP('',(#228,#229,#230,#231,#232,#233));
#571=EDGE_LOOP('',(#234,#235,#236,#237,#238,#239));
#572=EDGE_LOOP('',(#240,#241,#242,#243,#244));
#573=EDGE_LOOP('',(#245,#246,#247,#248));
#574=EDGE_LOOP('',(#249,#250,#251,#252,#253));
#575=EDGE_LOOP('',(#254,#255,#256,#257,#258,#259));
#576=EDGE_LOOP('',(#260,#261,#262,#263,#264));
#577=EDGE_LOOP('',(#265,#266,#267,#268));
#578=EDGE_LOOP('',(#269,#270,#271,#272,#273,#274));
#579=EDGE_LOOP('',(#275,#276,#277,#278,#279,#280));
#580=EDGE_LOOP('',(#281,#282,#283,#284,#285));
#581=EDGE_LOOP('',(#286,#287,#288,#289));
#582=EDGE_LOOP('',(#290,#291,#292,#293,#294,#295));
#583=EDGE_LOOP('',(#296,#297,#298,#299,#300,#301));
#584=EDGE_LOOP('',(#302,#303,#304,#305));
#585=EDGE_LOOP('',(#306,#307,#308,#309,#310,#311));
#586=EDGE_LOOP('',(#312,#313,#314,#315));
#587=EDGE_LOOP('',(#316,#317,#318,#319,#320));
#588=EDGE_LOOP('',(#321,#322,#323,#324,#325,#326));
#589=EDGE_LOOP('',(#327,#328,#329,#330,#331,#332));
#590=EDGE_LOOP('',(#333,#334,#335,#336));
#591=EDGE_LOOP('',(#337,#338,#339,#340,#341));
#592=EDGE_LOOP('',(#342,#343,#344,#345,#346,#347));
#593=EDGE_LOOP('',(#348,#349,#350,#351,#352,#353));
#594=FACE_BOUND('',#553,.T.);
#595=FACE_BOUND('',#554,.T.);
#596=FACE_BOUND('',#555,.T.);
#597=FACE_BOUND('',#556,.T.);
#598=FACE_BOUND('',#557,.T.);
#599=FACE_BOUND('',#558,.T.);
#600=FACE_BOUND('',#559,.T.);
#601=FACE_BOUND('',#560,.T.);
#602=FACE_BOUND('',#561,.T.);
#603=FACE_BOUND('',#562,.T.);
#604=FACE_BOUND('',#563,.T.);
#605=FACE_BOUND('',#564,.T.);
#606=FACE_BOUND('',#565,.T.);
#607=FACE_BOUND('',#566,.T.);
#608=FACE_BOUND('',#567,.T.);
#609=FACE_BOUND('',#568,.T.);
#610=FACE_BOUND('',#569,.T.);
#611=FACE_BOUND('',#570,.T.);
#612=FACE_BOUND('',#571,.T.);
#613=FACE_BOUND('',#572,.T.);
#614=FACE_BOUND('',#573,.T.);
#615=FACE_BOUND('',#574,.T.);
#616=FACE_BOUND('',#575,.T.);
#617=FACE_BOUND('',#576,.T.);
#618=FACE_BOUND('',#577,.T.);
#619=FACE_BOUND('',#578,.T.);
#620=FACE_BOUND('',#579,.T.);
#621=FACE_BOUND('',#580,.T.);
#622=FACE_BOUND('',#581,.T.);
#623=FACE_BOUND('',#582,.T.);
#624=FACE_BOUND('',#583,.T.);
#625=FACE_BOUND('',#584,.T.);
#626=FACE_BOUND('',#585,.T.);
#627=FACE_BOUND('',#586,.T.);
#628=FACE_BOUND('',#587,.T.);
#629=FACE_BOUND('',#588,.T.);
#630=FACE_BOUND('',#589,.T.);
#631=FACE_BOUND('',#590,.T.);
#632=FACE_BOUND('',#591,.T.);
#633=FACE_BOUND('',#592,.T.);
#634=FACE_BOUND('',#593,.T.);
#635=SPHERICAL_SURFACE('',#694,0.0661);
#636=SPHERICAL_SURFACE('',#698,0.0661);
#637=SPHERICAL_SURFACE('',#702,0.0661);
#638=SPHERICAL_SURFACE('',#706,0.0661);
#639=SPHERICAL_SURFACE('',#710,0.0661);
#640=SPHERICAL_SURFACE('',#727,0.0661);
#641=SPHERICAL_SURFACE('',#734,0.0675);
#642=ADVANCED_FACE('',(#594),#635,.F.);
#643=ADVANCED_FACE('',(#595),#636,.F.);
#644=ADVANCED_FACE('',(#596),#637,.F.);
#645=ADVANCED_FACE('',(#597),#638,.F.);
#646=ADVANCED_FACE('',(#598),#639,.F.);
#647=ADVANCED_FACE('',(#599),#145,.F.);
#648=ADVANCED_FACE('',(#600),#146,.F.);
#649=ADVANCED_FACE('',(#601),#147,.F.);
#650=ADVANCED_FACE('',(#602),#148,.F.);
#651=ADVANCED_FACE('',(#603),#149,.F.);
#652=ADVANCED_FACE('',(#604),#150,.F.);
#653=ADVANCED_FACE('',(#605),#640,.F.);
#654=ADVANCED_FACE('',(#606,#607),#18,.T.);
#655=ADVANCED_FACE('',(#608,#609),#151,.T.);
#656=ADVANCED_FACE('',(#610),#641,.T.);
#657=ADVANCED_FACE('',(#611),#19,.T.);
#658=ADVANCED_FACE('',(#612),#20,.F.);
#659=ADVANCED_FACE('',(#613),#152,.F.);
#660=ADVANCED_FACE('',(#614),#21,.T.);
#661=ADVANCED_FACE('',(#615),#153,.F.);
#662=ADVANCED_FACE('',(#616),#22,.T.);
#663=ADVANCED_FACE('',(#617),#154,.F.);
#664=ADVANCED_FACE('',(#618),#23,.T.);
#665=ADVANCED_FACE('',(#619),#24,.F.);
#666=ADVANCED_FACE('',(#620),#25,.T.);
#667=ADVANCED_FACE('',(#621),#155,.F.);
#668=ADVANCED_FACE('',(#622),#26,.T.);
#669=ADVANCED_FACE('',(#623),#27,.F.);
#670=ADVANCED_FACE('',(#624),#28,.F.);
#671=ADVANCED_FACE('',(#625),#29,.T.);
#672=ADVANCED_FACE('',(#626),#30,.F.);
#673=ADVANCED_FACE('',(#627),#31,.T.);
#674=ADVANCED_FACE('',(#628),#156,.F.);
#675=ADVANCED_FACE('',(#629),#32,.T.);
#676=ADVANCED_FACE('',(#630),#33,.F.);
#677=ADVANCED_FACE('',(#631),#34,.T.);
#678=ADVANCED_FACE('',(#632),#157,.F.);
#679=ADVANCED_FACE('',(#633),#35,.T.);
#680=ADVANCED_FACE('',(#634),#36,.F.);
#681=CLOSED_SHELL('',(#642,#643,#644,#645,#646,#647,#648,#649,#650,#651,
#652,#653,#654,#655,#656,#657,#658,#659,#660,#661,#662,#663,#664,#665,#666,
#667,#668,#669,#670,#671,#672,#673,#674,#675,#676,#677,#678,#679,#680));
#682=STYLED_ITEM('',(#683),#690);
#683=PRESENTATION_STYLE_ASSIGNMENT((#684));
#684=SURFACE_STYLE_USAGE(.BOTH.,#685);
#685=SURFACE_SIDE_STYLE('',(#686));
#686=SURFACE_STYLE_FILL_AREA(#687);
#687=FILL_AREA_STYLE('',(#688));
#688=FILL_AREA_STYLE_COLOUR('',#689);
#689=COLOUR_RGB('',0.647058823529412,0.647058823529412,0.647058823529412);
#690=MANIFOLD_SOLID_BREP('Nose V2 Shell',#681);
#691=SHAPE_DEFINITION_REPRESENTATION(#1206,#692);
#692=SHAPE_REPRESENTATION('Nose V2 Shell',(#693),#1201);
#693=AXIS2_PLACEMENT_3D('',#999,#777,#778);
#694=AXIS2_PLACEMENT_3D('',#1000,#779,#780);
#695=AXIS2_PLACEMENT_3D('',#1001,#781,#782);
#696=AXIS2_PLACEMENT_3D('',#1004,#783,#784);
#697=AXIS2_PLACEMENT_3D('',#1006,#785,#786);
#698=AXIS2_PLACEMENT_3D('',#1007,#787,#788);
#699=AXIS2_PLACEMENT_3D('',#1008,#789,#790);
#700=AXIS2_PLACEMENT_3D('',#1011,#791,#792);
#701=AXIS2_PLACEMENT_3D('',#1013,#793,#794);
#702=AXIS2_PLACEMENT_3D('',#1014,#795,#796);
#703=AXIS2_PLACEMENT_3D('',#1015,#797,#798);
#704=AXIS2_PLACEMENT_3D('',#1018,#799,#800);
#705=AXIS2_PLACEMENT_3D('',#1020,#801,#802);
#706=AXIS2_PLACEMENT_3D('',#1021,#803,#804);
#707=AXIS2_PLACEMENT_3D('',#1022,#805,#806);
#708=AXIS2_PLACEMENT_3D('',#1025,#807,#808);
#709=AXIS2_PLACEMENT_3D('',#1027,#809,#810);
#710=AXIS2_PLACEMENT_3D('',#1028,#811,#812);
#711=AXIS2_PLACEMENT_3D('',#1029,#813,#814);
#712=AXIS2_PLACEMENT_3D('',#1032,#815,#816);
#713=AXIS2_PLACEMENT_3D('',#1034,#817,#818);
#714=AXIS2_PLACEMENT_3D('',#1035,#819,#820);
#715=AXIS2_PLACEMENT_3D('',#1040,#823,#824);
#716=AXIS2_PLACEMENT_3D('',#1041,#825,#826);
#717=AXIS2_PLACEMENT_3D('',#1046,#829,#830);
#718=AXIS2_PLACEMENT_3D('',#1047,#831,#832);
#719=AXIS2_PLACEMENT_3D('',#1052,#835,#836);
#720=AXIS2_PLACEMENT_3D('',#1053,#837,#838);
#721=AXIS2_PLACEMENT_3D('',#1056,#840,#841);
#722=AXIS2_PLACEMENT_3D('',#1059,#843,#844);
#723=AXIS2_PLACEMENT_3D('',#1062,#846,#847);
#724=AXIS2_PLACEMENT_3D('',#1065,#849,#850);
#725=AXIS2_PLACEMENT_3D('',#1066,#851,#852);
#726=AXIS2_PLACEMENT_3D('',#1071,#854,#855);
#727=AXIS2_PLACEMENT_3D('',#1074,#857,#858);
#728=AXIS2_PLACEMENT_3D('',#1075,#859,#860);
#729=AXIS2_PLACEMENT_3D('',#1077,#861,#862);
#730=AXIS2_PLACEMENT_3D('',#1078,#863,#864);
#731=AXIS2_PLACEMENT_3D('',#1109,#883,#884);
#732=AXIS2_PLACEMENT_3D('',#1111,#885,#886);
#733=AXIS2_PLACEMENT_3D('',#1112,#887,#888);
#734=AXIS2_PLACEMENT_3D('',#1114,#889,#890);
#735=AXIS2_PLACEMENT_3D('',#1115,#891,#892);
#736=AXIS2_PLACEMENT_3D('',#1118,#894,#895);
#737=AXIS2_PLACEMENT_3D('',#1121,#897,#898);
#738=AXIS2_PLACEMENT_3D('',#1124,#900,#901);
#739=AXIS2_PLACEMENT_3D('',#1127,#903,#904);
#740=AXIS2_PLACEMENT_3D('',#1128,#905,#906);
#741=AXIS2_PLACEMENT_3D('',#1130,#907,#908);
#742=AXIS2_PLACEMENT_3D('',#1132,#910,#911);
#743=AXIS2_PLACEMENT_3D('',#1133,#912,#913);
#744=AXIS2_PLACEMENT_3D('',#1134,#914,#915);
#745=AXIS2_PLACEMENT_3D('',#1136,#916,#917);
#746=AXIS2_PLACEMENT_3D('',#1138,#918,#919);
#747=AXIS2_PLACEMENT_3D('',#1142,#921,#922);
#748=AXIS2_PLACEMENT_3D('',#1143,#923,#924);
#749=AXIS2_PLACEMENT_3D('',#1146,#927,#928);
#750=AXIS2_PLACEMENT_3D('',#1147,#929,#930);
#751=AXIS2_PLACEMENT_3D('',#1149,#931,#932);
#752=AXIS2_PLACEMENT_3D('',#1151,#933,#934);
#753=AXIS2_PLACEMENT_3D('',#1154,#936,#937);
#754=AXIS2_PLACEMENT_3D('',#1156,#939,#940);
#755=AXIS2_PLACEMENT_3D('',#1158,#942,#943);
#756=AXIS2_PLACEMENT_3D('',#1160,#945,#946);
#757=AXIS2_PLACEMENT_3D('',#1163,#948,#949);
#758=AXIS2_PLACEMENT_3D('',#1164,#950,#951);
#759=AXIS2_PLACEMENT_3D('',#1166,#952,#953);
#760=AXIS2_PLACEMENT_3D('',#1169,#955,#956);
#761=AXIS2_PLACEMENT_3D('',#1171,#958,#959);
#762=AXIS2_PLACEMENT_3D('',#1173,#961,#962);
#763=AXIS2_PLACEMENT_3D('',#1175,#964,#965);
#764=AXIS2_PLACEMENT_3D('',#1177,#967,#968);
#765=AXIS2_PLACEMENT_3D('',#1180,#970,#971);
#766=AXIS2_PLACEMENT_3D('',#1181,#972,#973);
#767=AXIS2_PLACEMENT_3D('',#1185,#976,#977);
#768=AXIS2_PLACEMENT_3D('',#1186,#978,#979);
#769=AXIS2_PLACEMENT_3D('',#1187,#980,#981);
#770=AXIS2_PLACEMENT_3D('',#1188,#982,#983);
#771=AXIS2_PLACEMENT_3D('',#1191,#985,#986);
#772=AXIS2_PLACEMENT_3D('',#1192,#987,#988);
#773=AXIS2_PLACEMENT_3D('',#1196,#991,#992);
#774=AXIS2_PLACEMENT_3D('',#1197,#993,#994);
#775=AXIS2_PLACEMENT_3D('',#1198,#995,#996);
#776=AXIS2_PLACEMENT_3D('',#1199,#997,#998);
#777=DIRECTION('',(0.,0.,1.));
#778=DIRECTION('',(1.,0.,0.));
#779=DIRECTION('',(0.,-1.,1.20214608957407E-15));
#780=DIRECTION('',(0.,1.20214608957407E-15,1.));
#781=DIRECTION('',(-0.5,1.04108905263127E-15,0.866025403784438));
#782=DIRECTION('',(0.866025403784438,0.,0.5));
#783=DIRECTION('',(0.,-1.,1.20214608957407E-15));
#784=DIRECTION('',(0.,-1.20214608957407E-15,-1.));
#785=DIRECTION('',(0.5,1.04108905263127E-15,0.866025403784439));
#786=DIRECTION('',(0.866025403784439,0.,-0.5));
#787=DIRECTION('',(0.,-1.,1.20214608957407E-15));
#788=DIRECTION('',(0.,1.20214608957407E-15,1.));
#789=DIRECTION('',(0.,-1.,1.20214608957407E-15));
#790=DIRECTION('',(0.,-1.20214608957407E-15,-1.));
#791=DIRECTION('',(-0.5,1.04108905263127E-15,0.866025403784438));
#792=DIRECTION('',(0.866025403784438,0.,0.5));
#793=DIRECTION('',(-1.,-1.47220436070439E-31,-1.22464679914735E-16));
#794=DIRECTION('',(-1.22464679914735E-16,0.,1.));
#795=DIRECTION('',(0.,-1.,1.20214608957407E-15));
#796=DIRECTION('',(0.,1.20214608957407E-15,1.));
#797=DIRECTION('',(-0.5,-1.04108905263127E-15,-0.866025403784439));
#798=DIRECTION('',(-0.866025403784439,0.,0.5));
#799=DIRECTION('',(0.,-1.,1.20214608957407E-15));
#800=DIRECTION('',(0.,-1.20214608957407E-15,-1.));
#801=DIRECTION('',(-1.,-1.47220436070439E-31,-1.22464679914735E-16));
#802=DIRECTION('',(-1.22464679914735E-16,0.,1.));
#803=DIRECTION('',(0.,-1.,1.20214608957407E-15));
#804=DIRECTION('',(0.,1.20214608957407E-15,1.));
#805=DIRECTION('',(0.,-1.,1.20214608957407E-15));
#806=DIRECTION('',(0.,-1.20214608957407E-15,-1.));
#807=DIRECTION('',(-0.5,-1.04108905263127E-15,-0.866025403784439));
#808=DIRECTION('',(-0.866025403784439,0.,0.5));
#809=DIRECTION('',(0.5,-1.04108905263127E-15,-0.866025403784439));
#810=DIRECTION('',(-0.866025403784439,0.,-0.5));
#811=DIRECTION('',(0.,-1.,1.20214608957407E-15));
#812=DIRECTION('',(0.,1.20214608957407E-15,1.));
#813=DIRECTION('',(0.,-1.,1.20214608957407E-15));
#814=DIRECTION('',(0.,-1.20214608957407E-15,-1.));
#815=DIRECTION('',(1.,0.,0.));
#816=DIRECTION('',(0.,0.,-1.));
#817=DIRECTION('',(-0.5,-1.04108905263127E-15,-0.866025403784439));
#818=DIRECTION('',(-0.866025403784439,0.,0.5));
#819=DIRECTION('',(0.,-1.,1.20214608957407E-15));
#820=DIRECTION('',(0.,-1.20214608957407E-15,-1.));
#821=DIRECTION('',(0.,-1.,1.20214608957407E-15));
#822=DIRECTION('',(0.,-1.,1.20214608957407E-15));
#823=DIRECTION('',(0.,-1.,1.20214608957407E-15));
#824=DIRECTION('',(0.,-1.20214608957407E-15,-1.));
#825=DIRECTION('',(0.,-1.,1.20214608957407E-15));
#826=DIRECTION('',(0.,-1.20214608957407E-15,-1.));
#827=DIRECTION('',(0.,-1.,1.20214608957407E-15));
#828=DIRECTION('',(0.,-1.,1.20214608957407E-15));
#829=DIRECTION('',(0.,-1.,1.20214608957407E-15));
#830=DIRECTION('',(0.,-1.20214608957407E-15,-1.));
#831=DIRECTION('',(0.,-1.,1.20214608957407E-15));
#832=DIRECTION('',(0.,-1.20214608957407E-15,-1.));
#833=DIRECTION('',(0.,-1.,1.20214608957407E-15));
#834=DIRECTION('',(0.,-1.,1.20214608957407E-15));
#835=DIRECTION('',(0.,-1.,1.20214608957407E-15));
#836=DIRECTION('',(0.,-1.20214608957407E-15,-1.));
#837=DIRECTION('',(0.,-1.,1.20214608957407E-15));
#838=DIRECTION('',(0.,-1.20214608957407E-15,-1.));
#839=DIRECTION('',(0.,-1.,1.20214608957407E-15));
#840=DIRECTION('',(0.,-1.,1.20214608957407E-15));
#841=DIRECTION('',(0.,-1.20214608957407E-15,-1.));
#842=DIRECTION('',(0.,-1.,1.20214608957407E-15));
#843=DIRECTION('',(0.,-1.,1.20214608957407E-15));
#844=DIRECTION('',(0.,-1.20214608957407E-15,-1.));
#845=DIRECTION('',(0.,-1.,1.20214608957407E-15));
#846=DIRECTION('',(0.,-1.,1.20214608957407E-15));
#847=DIRECTION('',(0.,-1.20214608957407E-15,-1.));
#848=DIRECTION('',(0.,-1.,1.20214608957407E-15));
#849=DIRECTION('',(0.,-1.,1.20214608957407E-15));
#850=DIRECTION('',(0.,-1.20214608957407E-15,-1.));
#851=DIRECTION('',(0.,-1.,1.20214608957407E-15));
#852=DIRECTION('',(0.,-1.20214608957407E-15,-1.));
#853=DIRECTION('',(0.,-1.,1.20214608957407E-15));
#854=DIRECTION('',(0.,-1.,1.20214608957407E-15));
#855=DIRECTION('',(0.,-1.20214608957407E-15,-1.));
#856=DIRECTION('',(0.,-1.,1.20214608957407E-15));
#857=DIRECTION('',(0.,-1.,1.20214608957407E-15));
#858=DIRECTION('',(0.,1.20214608957407E-15,1.));
#859=DIRECTION('',(1.,0.,0.));
#860=DIRECTION('',(0.,0.,-1.));
#861=DIRECTION('',(0.5,-1.04108905263127E-15,-0.866025403784439));
#862=DIRECTION('',(-0.866025403784439,0.,-0.5));
#863=DIRECTION('',(0.,1.,-1.20214608957407E-15));
#864=DIRECTION('',(0.,1.20214608957407E-15,1.));
#865=DIRECTION('',(0.,0.,-1.));
#866=DIRECTION('',(-1.,0.,0.));
#867=DIRECTION('',(0.,0.,-1.));
#868=DIRECTION('',(0.866025403784439,6.01073044787036E-16,-0.5));
#869=DIRECTION('',(-0.5,-1.04108905263127E-15,-0.866025403784439));
#870=DIRECTION('',(0.866025403784439,6.01073044787036E-16,-0.5));
#871=DIRECTION('',(0.866025403784438,1.80321913436111E-15,0.5));
#872=DIRECTION('',(0.5,-1.04108905263127E-15,-0.866025403784438));
#873=DIRECTION('',(0.866025403784438,1.80321913436111E-15,0.5));
#874=DIRECTION('',(-1.22464679914735E-16,2.40429217914814E-15,1.));
#875=DIRECTION('',(1.,1.47220436070439E-31,1.22464679914735E-16));
#876=DIRECTION('',(-1.22464679914735E-16,2.40429217914814E-15,1.));
#877=DIRECTION('',(-0.866025403784439,1.80321913436111E-15,0.5));
#878=DIRECTION('',(0.5,1.04108905263127E-15,0.866025403784439));
#879=DIRECTION('',(-0.866025403784439,1.80321913436111E-15,0.5));
#880=DIRECTION('',(-0.866025403784439,6.01073044787035E-16,-0.5));
#881=DIRECTION('',(-0.5,1.04108905263127E-15,0.866025403784439));
#882=DIRECTION('',(-0.866025403784439,6.01073044787035E-16,-0.5));
#883=DIRECTION('',(0.,-1.,1.20214608957407E-15));
#884=DIRECTION('',(0.,-1.20214608957407E-15,-1.));
#885=DIRECTION('',(0.,-1.,1.20214608957407E-15));
#886=DIRECTION('',(0.,-1.20214608957407E-15,-1.));
#887=DIRECTION('',(0.,-1.,1.20214608957407E-15));
#888=DIRECTION('',(0.,-1.20214608957407E-15,-1.));
#889=DIRECTION('',(0.,-1.,1.20214608957407E-15));
#890=DIRECTION('',(0.,1.20214608957407E-15,1.));
#891=DIRECTION('',(1.,0.,0.));
#892=DIRECTION('',(0.,1.,0.));
#893=DIRECTION('',(0.,1.,-1.20214608957407E-15));
#894=DIRECTION('',(1.,0.,0.));
#895=DIRECTION('',(0.,0.,-1.));
#896=DIRECTION('',(0.,-1.,0.));
#897=DIRECTION('',(1.,0.,0.));
#898=DIRECTION('',(0.,1.,0.));
#899=DIRECTION('',(0.,-1.,0.));
#900=DIRECTION('',(1.,0.,0.));
#901=DIRECTION('',(0.,0.,-1.));
#902=DIRECTION('',(0.,1.,-1.20214608957407E-15));
#903=DIRECTION('',(-1.,0.,0.));
#904=DIRECTION('',(0.,0.,1.));
#905=DIRECTION('',(-0.866025403784439,6.01073044787035E-16,0.5));
#906=DIRECTION('',(-0.5,-1.04108905263127E-15,-0.866025403784439));
#907=DIRECTION('',(-0.866025403784439,-6.01073044787035E-16,-0.5));
#908=DIRECTION('',(-0.5,1.04108905263127E-15,0.866025403784439));
#909=DIRECTION('',(-1.,0.,0.));
#910=DIRECTION('',(0.,0.,-1.));
#911=DIRECTION('',(-1.,0.,0.));
#912=DIRECTION('',(0.5,1.04108905263127E-15,0.866025403784439));
#913=DIRECTION('',(0.866025403784439,-1.80321913436111E-15,-0.5));
#914=DIRECTION('',(0.866025403784439,6.01073044787035E-16,0.5));
#915=DIRECTION('',(-0.5,1.04108905263127E-15,0.866025403784439));
#916=DIRECTION('',(-1.92296268638356E-16,1.20214608957407E-15,1.));
#917=DIRECTION('',(-1.,-1.97215226305253E-31,-1.11022302462516E-16));
#918=DIRECTION('',(-0.5,-1.04108905263127E-15,-0.866025403784439));
#919=DIRECTION('',(-0.866025403784439,1.80321913436111E-15,0.5));
#920=DIRECTION('',(0.5,1.04108905263127E-15,0.866025403784439));
#921=DIRECTION('',(-0.5,-1.04108905263127E-15,-0.866025403784439));
#922=DIRECTION('',(-0.866025403784439,1.80321913436111E-15,0.5));
#923=DIRECTION('',(-0.5,-1.04108905263127E-15,-0.866025403784439));
#924=DIRECTION('',(1.04108905263127E-15,1.,-1.80321913436111E-15));
#925=DIRECTION('',(0.,1.,-1.20214608957407E-15));
#926=DIRECTION('',(-1.04108905263127E-15,-1.,1.80321913436111E-15));
#927=DIRECTION('',(0.5,1.04108905263127E-15,0.866025403784439));
#928=DIRECTION('',(0.866025403784439,-1.80321913436111E-15,-0.5));
#929=DIRECTION('',(-0.5,-1.04108905263127E-15,-0.866025403784439));
#930=DIRECTION('',(-0.866025403784439,1.80321913436111E-15,0.5));
#931=DIRECTION('',(6.40987562127855E-16,-1.20214608957407E-15,-1.));
#932=DIRECTION('',(1.,9.86076131526265E-31,6.66133814775094E-16));
#933=DIRECTION('',(0.5,1.04108905263127E-15,0.866025403784439));
#934=DIRECTION('',(0.866025403784439,6.01073044787036E-16,-0.5));
#935=DIRECTION('',(-0.5,-1.04108905263127E-15,-0.866025403784439));
#936=DIRECTION('',(-0.866025403784439,1.80321913436111E-15,0.5));
#937=DIRECTION('',(0.5,1.04108905263127E-15,0.866025403784439));
#938=DIRECTION('',(-1.04108905263127E-15,-1.,1.80321913436111E-15));
#939=DIRECTION('',(-0.5,-1.04108905263127E-15,-0.866025403784439));
#940=DIRECTION('',(1.04108905263127E-15,1.,-1.80321913436111E-15));
#941=DIRECTION('',(0.,1.,-1.20214608957407E-15));
#942=DIRECTION('',(-0.5,1.04108905263127E-15,0.866025403784438));
#943=DIRECTION('',(-1.04108905263127E-15,1.,-1.80321913436111E-15));
#944=DIRECTION('',(-1.13862263995631E-31,1.,-1.20214608957407E-15));
#945=DIRECTION('',(-0.5,1.04108905263127E-15,0.866025403784438));
#946=DIRECTION('',(0.866025403784438,1.80321913436111E-15,0.5));
#947=DIRECTION('',(1.04108905263127E-15,-1.,1.80321913436111E-15));
#948=DIRECTION('',(0.5,-1.04108905263127E-15,-0.866025403784438));
#949=DIRECTION('',(-0.866025403784438,-1.80321913436111E-15,-0.5));
#950=DIRECTION('',(0.866025403784439,-6.01073044787035E-16,-0.5));
#951=DIRECTION('',(0.5,1.04108905263127E-15,0.866025403784439));
#952=DIRECTION('',(-0.5,1.04108905263127E-15,0.866025403784438));
#953=DIRECTION('',(0.866025403784438,1.80321913436111E-15,0.5));
#954=DIRECTION('',(0.5,-1.04108905263127E-15,-0.866025403784438));
#955=DIRECTION('',(0.866025403784438,1.80321913436111E-15,0.5));
#956=DIRECTION('',(0.5,-1.04108905263127E-15,-0.866025403784438));
#957=DIRECTION('',(1.04108905263127E-15,-1.,1.80321913436111E-15));
#958=DIRECTION('',(-0.5,1.04108905263127E-15,0.866025403784438));
#959=DIRECTION('',(-1.04108905263127E-15,1.,-1.80321913436111E-15));
#960=DIRECTION('',(-2.52825014247794E-47,1.,-1.20214608957407E-15));
#961=DIRECTION('',(0.5,1.04108905263127E-15,0.866025403784439));
#962=DIRECTION('',(-1.04108905263127E-15,1.,-6.01073044787036E-16));
#963=DIRECTION('',(1.04108905263127E-15,-1.,6.01073044787036E-16));
#964=DIRECTION('',(0.866025403784439,6.01073044787036E-16,-0.5));
#965=DIRECTION('',(-0.5,-1.04108905263127E-15,-0.866025403784439));
#966=DIRECTION('',(1.04108905263127E-15,-1.,6.01073044787036E-16));
#967=DIRECTION('',(-1.,-1.47220436070439E-31,-1.22464679914735E-16));
#968=DIRECTION('',(1.47220436070439E-31,1.,-2.40429217914814E-15));
#969=DIRECTION('',(-1.47220436070439E-31,-1.,2.40429217914814E-15));
#970=DIRECTION('',(-1.,-1.47220436070439E-31,-1.22464679914735E-16));
#971=DIRECTION('',(-1.22464679914735E-16,2.40429217914814E-15,1.));
#972=DIRECTION('',(-1.22464679914735E-16,2.40429217914814E-15,1.));
#973=DIRECTION('',(1.,1.47220436070439E-31,1.22464679914735E-16));
#974=DIRECTION('',(-1.47220436070439E-31,-1.,2.40429217914814E-15));
#975=DIRECTION('',(1.,1.47220436070439E-31,1.22464679914735E-16));
#976=DIRECTION('',(1.,1.47220436070439E-31,1.22464679914735E-16));
#977=DIRECTION('',(1.22464679914735E-16,-2.40429217914814E-15,-1.));
#978=DIRECTION('',(-1.,-1.47220436070439E-31,-1.22464679914735E-16));
#979=DIRECTION('',(-1.22464679914735E-16,2.40429217914814E-15,1.));
#980=DIRECTION('',(-1.,-1.47220436070439E-31,-1.22464679914735E-16));
#981=DIRECTION('',(1.47220436070439E-31,1.,-2.40429217914814E-15));
#982=DIRECTION('',(0.5,-1.04108905263127E-15,-0.866025403784439));
#983=DIRECTION('',(1.04108905263127E-15,1.,-6.01073044787035E-16));
#984=DIRECTION('',(-1.04108905263127E-15,-1.,6.01073044787035E-16));
#985=DIRECTION('',(0.5,-1.04108905263127E-15,-0.866025403784439));
#986=DIRECTION('',(-0.866025403784439,6.01073044787035E-16,-0.5));
#987=DIRECTION('',(-0.866025403784439,6.01073044787035E-16,-0.5));
#988=DIRECTION('',(-0.5,1.04108905263127E-15,0.866025403784439));
#989=DIRECTION('',(-1.04108905263127E-15,-1.,6.01073044787035E-16));
#990=DIRECTION('',(-0.5,1.04108905263127E-15,0.866025403784439));
#991=DIRECTION('',(-0.5,1.04108905263127E-15,0.866025403784439));
#992=DIRECTION('',(0.866025403784439,-6.01073044787035E-16,0.5));
#993=DIRECTION('',(0.5,-1.04108905263127E-15,-0.866025403784439));
#994=DIRECTION('',(-0.866025403784439,6.01073044787035E-16,-0.5));
#995=DIRECTION('',(0.5,-1.04108905263127E-15,-0.866025403784439));
#996=DIRECTION('',(1.04108905263127E-15,1.,-6.01073044787035E-16));
#997=DIRECTION('',(-0.5,-1.04108905263127E-15,-0.866025403784439));
#998=DIRECTION('',(1.04108905263127E-15,1.,-1.80321913436111E-15));
#999=CARTESIAN_POINT('',(0.,0.,0.));
#1000=CARTESIAN_POINT('',(0.,1.27131402344282E-17,-1.09863515750892E-17));
#1001=CARTESIAN_POINT('',(-0.00075,1.42747738133752E-17,0.00129903810567665));
#1002=CARTESIAN_POINT('',(-0.0579795378279435,-1.21425790147819E-16,-0.0317424509648844));
#1003=CARTESIAN_POINT('',(-0.003,-0.066031886236878,7.72115694818918E-17));
#1004=CARTESIAN_POINT('',(0.,-8.32667268468867E-17,-1.10785986047823E-16));
#1005=CARTESIAN_POINT('',(-0.0579795378279434,-4.51076635459543E-17,0.0317424509648843));
#1006=CARTESIAN_POINT('',(-0.00075,1.11515066554814E-17,-0.00129903810567666));
#1007=CARTESIAN_POINT('',(0.,1.27131402344282E-17,-1.09863515750892E-17));
#1008=CARTESIAN_POINT('',(0.,-8.32667268468867E-17,-1.10785986047823E-16));
#1009=CARTESIAN_POINT('',(-0.0564795378279435,-1.24549057305713E-16,-0.0343405271762377));
#1010=CARTESIAN_POINT('',(-0.0015,-1.62708120606646E-16,-0.0660829781411222));
#1011=CARTESIAN_POINT('',(0.00075,1.11515066554814E-17,-0.00129903810567666));
#1012=CARTESIAN_POINT('',(-0.0015,-0.066031886236878,-0.00259807621135324));
#1013=CARTESIAN_POINT('',(-0.0015,1.27131402344282E-17,-1.11700485949613E-17));
#1014=CARTESIAN_POINT('',(0.,1.27131402344282E-17,-1.09863515750892E-17));
#1015=CARTESIAN_POINT('',(-0.00075,1.11515066554814E-17,-0.00129903810567666));
#1016=CARTESIAN_POINT('',(0.0564795378279435,-1.24549057305713E-16,-0.0343405271762377));
#1017=CARTESIAN_POINT('',(0.0015,-0.066031886236878,-0.00259807621135323));
#1018=CARTESIAN_POINT('',(0.,-8.32667268468867E-17,-1.10785986047823E-16));
#1019=CARTESIAN_POINT('',(0.0015,-1.62708120606646E-16,-0.0660829781411222));
#1020=CARTESIAN_POINT('',(0.0015,1.27131402344282E-17,-1.08026545552171E-17));
#1021=CARTESIAN_POINT('',(0.,1.27131402344282E-17,-1.09863515750892E-17));
#1022=CARTESIAN_POINT('',(0.,-8.32667268468867E-17,-1.10785986047823E-16));
#1023=CARTESIAN_POINT('',(0.0579795378279435,-1.21425790147819E-16,-0.0317424509648844));
#1024=CARTESIAN_POINT('',(0.0579795378279434,-4.51076635459542E-17,0.0317424509648843));
#1025=CARTESIAN_POINT('',(0.00075,1.42747738133752E-17,0.00129903810567665));
#1026=CARTESIAN_POINT('',(0.003,-0.066031886236878,7.95968142613599E-17));
#1027=CARTESIAN_POINT('',(0.00075,1.11515066554814E-17,-0.00129903810567666));
#1028=CARTESIAN_POINT('',(0.,1.27131402344282E-17,-1.09863515750892E-17));
#1029=CARTESIAN_POINT('',(0.,-8.32667268468867E-17,-1.10785986047823E-16));
#1030=CARTESIAN_POINT('',(-0.0015,-3.82533308712809E-18,0.066082978141122));
#1031=CARTESIAN_POINT('',(-0.0564795378279434,-1.66533453693773E-16,0.0343405271762376));
#1032=CARTESIAN_POINT('',(-0.0015,1.27131402344282E-17,-1.09863515750892E-17));
#1033=CARTESIAN_POINT('',(-0.0015,-0.066031886236878,0.00259807621135339));
#1034=CARTESIAN_POINT('',(0.00075,1.42747738133752E-17,0.00129903810567665));
#1035=CARTESIAN_POINT('',(0.,-0.0645,-3.32475632702958E-17));
#1036=CARTESIAN_POINT('',(-0.0015,-0.0645,0.0660829781411221));
#1037=CARTESIAN_POINT('',(-0.0015,0.02,0.0660829781411219));
#1038=CARTESIAN_POINT('',(-0.0564795378279434,-0.0645,0.0343405271762377));
#1039=CARTESIAN_POINT('',(-0.0564795378279435,0.02,0.0343405271762376));
#1040=CARTESIAN_POINT('',(0.,0.02,-1.34828907839305E-16));
#1041=CARTESIAN_POINT('',(0.,-0.0645,-3.32475632702958E-17));
#1042=CARTESIAN_POINT('',(0.0579795378279435,-0.0645,-0.0317424509648843));
#1043=CARTESIAN_POINT('',(0.0579795378279435,0.02,-0.0317424509648844));
#1044=CARTESIAN_POINT('',(0.0579795378279434,-0.0645,0.0317424509648844));
#1045=CARTESIAN_POINT('',(0.0579795378279434,0.02,0.0317424509648843));
#1046=CARTESIAN_POINT('',(0.,0.02,-1.34828907839305E-16));
#1047=CARTESIAN_POINT('',(0.,-0.0645,-3.32475632702958E-17));
#1048=CARTESIAN_POINT('',(-0.0564795378279435,-0.0645,-0.0343405271762377));
#1049=CARTESIAN_POINT('',(-0.0564795378279435,0.02,-0.0343405271762377));
#1050=CARTESIAN_POINT('',(-0.0015,-0.0645,-0.0660829781411221));
#1051=CARTESIAN_POINT('',(-0.0015,0.02,-0.0660829781411222));
#1052=CARTESIAN_POINT('',(0.,0.02,-1.34828907839305E-16));
#1053=CARTESIAN_POINT('',(0.,-0.0645,-3.32475632702958E-17));
#1054=CARTESIAN_POINT('',(-0.0579795378279435,-0.0645,-0.0317424509648843));
#1055=CARTESIAN_POINT('',(-0.0579795378279435,0.02,-0.0317424509648844));
#1056=CARTESIAN_POINT('',(0.,0.02,-1.34828907839305E-16));
#1057=CARTESIAN_POINT('',(-0.0579795378279435,0.02,0.0317424509648843));
#1058=CARTESIAN_POINT('',(-0.0579795378279435,-0.0645,0.0317424509648844));
#1059=CARTESIAN_POINT('',(0.,-0.0645,-3.32475632702958E-17));
#1060=CARTESIAN_POINT('',(0.0564795378279435,-0.0645,-0.0343405271762376));
#1061=CARTESIAN_POINT('',(0.0564795378279435,0.02,-0.0343405271762377));
#1062=CARTESIAN_POINT('',(0.,0.02,-1.34828907839305E-16));
#1063=CARTESIAN_POINT('',(0.0015,0.02,-0.0660829781411222));
#1064=CARTESIAN_POINT('',(0.0015,-0.0645,-0.0660829781411221));
#1065=CARTESIAN_POINT('',(0.,-0.0645,-3.32475632702958E-17));
#1066=CARTESIAN_POINT('',(0.,-8.32667268468867E-17,-1.10785986047823E-16));
#1067=CARTESIAN_POINT('',(0.0564795378279434,-4.19843963880604E-17,0.0343405271762376));
#1068=CARTESIAN_POINT('',(0.0015,-3.82533308712809E-18,0.066082978141122));
#1069=CARTESIAN_POINT('',(0.0015,-0.0645,0.0660829781411221));
#1070=CARTESIAN_POINT('',(0.0015,0.02,0.0660829781411219));
#1071=CARTESIAN_POINT('',(0.,0.02,-1.34828907839305E-16));
#1072=CARTESIAN_POINT('',(0.0564795378279434,0.02,0.0343405271762376));
#1073=CARTESIAN_POINT('',(0.0564795378279434,-0.0645,0.0343405271762377));
#1074=CARTESIAN_POINT('',(0.,1.27131402344282E-17,-1.09863515750892E-17));
#1075=CARTESIAN_POINT('',(0.0015,1.27131402344282E-17,-1.09863515750892E-17));
#1076=CARTESIAN_POINT('',(0.0015,-0.066031886236878,0.00259807621135339));
#1077=CARTESIAN_POINT('',(-0.00075,1.42747738133752E-17,0.00129903810567665));
#1078=CARTESIAN_POINT('',(0.,0.02,0.0668));
#1079=CARTESIAN_POINT('',(0.0015,0.02,0.0625));
#1080=CARTESIAN_POINT('',(0.0015,0.02,0.0615));
#1081=CARTESIAN_POINT('',(0.0015,0.02,0.0615));
#1082=CARTESIAN_POINT('',(-0.0015,0.02,0.0615));
#1083=CARTESIAN_POINT('',(-0.0015,0.02,0.0625));
#1084=CARTESIAN_POINT('',(-0.0533765877365275,0.02,0.0325490381056766));
#1085=CARTESIAN_POINT('',(-0.052510562332743,0.02,0.0320490381056766));
#1086=CARTESIAN_POINT('',(-0.052510562332743,0.02,0.0320490381056766));
#1087=CARTESIAN_POINT('',(-0.054010562332743,0.02,0.0294509618943233));
#1088=CARTESIAN_POINT('',(-0.0548765877365275,0.02,0.0299509618943233));
#1089=CARTESIAN_POINT('',(-0.0548765877365274,0.02,-0.0299509618943234));
#1090=CARTESIAN_POINT('',(-0.054010562332743,0.02,-0.0294509618943234));
#1091=CARTESIAN_POINT('',(-0.054010562332743,0.02,-0.0294509618943234));
#1092=CARTESIAN_POINT('',(-0.052510562332743,0.02,-0.0320490381056768));
#1093=CARTESIAN_POINT('',(-0.0533765877365274,0.02,-0.0325490381056767));
#1094=CARTESIAN_POINT('',(-0.0015,0.02,-0.0625));
#1095=CARTESIAN_POINT('',(-0.0015,0.02,-0.0615));
#1096=CARTESIAN_POINT('',(-0.0015,0.02,-0.0615));
#1097=CARTESIAN_POINT('',(0.0015,0.02,-0.0615));
#1098=CARTESIAN_POINT('',(0.0015,0.02,-0.0625));
#1099=CARTESIAN_POINT('',(0.0533765877365274,0.02,-0.0325490381056767));
#1100=CARTESIAN_POINT('',(0.052510562332743,0.02,-0.0320490381056767));
#1101=CARTESIAN_POINT('',(0.052510562332743,0.02,-0.0320490381056767));
#1102=CARTESIAN_POINT('',(0.054010562332743,0.02,-0.0294509618943234));
#1103=CARTESIAN_POINT('',(0.0548765877365274,0.02,-0.0299509618943233));
#1104=CARTESIAN_POINT('',(0.0548765877365274,0.02,0.0299509618943233));
#1105=CARTESIAN_POINT('',(0.054010562332743,0.02,0.0294509618943234));
#1106=CARTESIAN_POINT('',(0.054010562332743,0.02,0.0294509618943234));
#1107=CARTESIAN_POINT('',(0.052510562332743,0.02,0.0320490381056766));
#1108=CARTESIAN_POINT('',(0.0533765877365274,0.02,0.0325490381056766));
#1109=CARTESIAN_POINT('',(0.,0.02,-1.34828907839305E-16));
#1110=CARTESIAN_POINT('',(0.,0.0199999999999999,-0.0675000000000001));
#1111=CARTESIAN_POINT('',(0.,-0.0645,-3.32475632702958E-17));
#1112=CARTESIAN_POINT('',(0.,-8.32667268468867E-17,-1.10785986047823E-16));
#1113=CARTESIAN_POINT('',(0.,-1.64411587893136E-16,-0.0675000000000001));
#1114=CARTESIAN_POINT('',(0.,9.81648805512689E-22,9.0064670262739E-18));
#1115=CARTESIAN_POINT('',(0.0015,-0.01375,0.));
#1116=CARTESIAN_POINT('',(0.0015,-0.01375,0.00259807621135333));
#1117=CARTESIAN_POINT('',(0.0015,-0.0614450974447921,0.00259807621135339));
#1118=CARTESIAN_POINT('',(0.0015,1.31356433801341E-17,-4.93314017187552E-18));
#1119=CARTESIAN_POINT('',(0.0015,-1.49150553456432E-17,0.0615));
#1120=CARTESIAN_POINT('',(0.0015,0.0125,0.0615));
#1121=CARTESIAN_POINT('',(-0.0015,-0.01375,0.));
#1122=CARTESIAN_POINT('',(-0.0015,0.0125,0.0615));
#1123=CARTESIAN_POINT('',(-0.0015,-1.49150553456432E-17,0.0615));
#1124=CARTESIAN_POINT('',(-0.0015,1.31356433801341E-17,-4.93314017187552E-18));
#1125=CARTESIAN_POINT('',(-0.0015,-0.0614450974447921,0.00259807621135339));
#1126=CARTESIAN_POINT('',(-0.0015,-0.01375,0.00259807621135333));
#1127=CARTESIAN_POINT('',(0.0015,1.31356433801341E-17,-4.93314017187552E-18));
#1128=CARTESIAN_POINT('',(-2.71050543121376E-18,1.31356433801341E-17,-4.85181486540587E-18));
#1129=CARTESIAN_POINT('',(6.68410639337314E-17,-0.0615,-6.21545506263139E-17));
#1130=CARTESIAN_POINT('',(-8.61940727125976E-18,1.31356433801341E-17,-5.06865529990297E-18));
#1131=CARTESIAN_POINT('',(0.0015,-1.49150553456432E-17,0.0615));
#1132=CARTESIAN_POINT('',(0.0015,0.0125,0.0615));
#1133=CARTESIAN_POINT('',(-0.00075,1.15740098011872E-17,-0.00129903810567666));
#1134=CARTESIAN_POINT('',(-2.60208521396521E-18,1.31356433801341E-17,5.06865529990295E-18));
#1135=CARTESIAN_POINT('',(0.0015,-0.0614450974447921,-0.00259807621135324));
#1136=CARTESIAN_POINT('',(-5.63785129692462E-18,1.31356433801341E-17,1.0842021724855E-19));
#1137=CARTESIAN_POINT('',(0.003,-0.0614450974447921,7.40828240512517E-17));
#1138=CARTESIAN_POINT('',(0.00075,1.4697276959081E-17,0.00129903810567666));
#1139=CARTESIAN_POINT('',(0.054010562332743,-1.24251398529904E-16,-0.0294509618943234));
#1140=CARTESIAN_POINT('',(0.052510562332743,-1.27374665687798E-16,-0.0320490381056766));
#1141=CARTESIAN_POINT('',(0.052510562332743,-1.27374665687798E-16,-0.0320490381056766));
#1142=CARTESIAN_POINT('',(-0.00075,1.15740098011872E-17,-0.00129903810567666));
#1143=CARTESIAN_POINT('',(-0.000750000000000014,-0.01375,-0.00129903810567663));
#1144=CARTESIAN_POINT('',(0.0015,-0.01375,-0.0025980762113533));
#1145=CARTESIAN_POINT('',(0.052510562332743,0.0125,-0.0320490381056766));
#1146=CARTESIAN_POINT('',(-0.00075,1.15740098011872E-17,-0.00129903810567666));
#1147=CARTESIAN_POINT('',(0.00075,1.4697276959081E-17,0.00129903810567666));
#1148=CARTESIAN_POINT('',(-0.052510562332743,-5.0319414021099E-17,0.0320490381056766));
#1149=CARTESIAN_POINT('',(5.52943107967607E-18,1.31356433801341E-17,1.0842021724855E-19));
#1150=CARTESIAN_POINT('',(-0.003,-0.0614450974447921,7.21312601407778E-17));
#1151=CARTESIAN_POINT('',(-0.00075,1.15740098011872E-17,-0.00129903810567666));
#1152=CARTESIAN_POINT('',(-0.054010562332743,-5.34426811789928E-17,0.0294509618943233));
#1153=CARTESIAN_POINT('',(-0.052510562332743,-5.0319414021099E-17,0.0320490381056766));
#1154=CARTESIAN_POINT('',(0.052510562332743,0.0125,-0.0320490381056766));
#1155=CARTESIAN_POINT('',(0.054010562332743,0.0125,-0.0294509618943234));
#1156=CARTESIAN_POINT('',(0.000749999999999985,-0.01375,0.00129903810567668));
#1157=CARTESIAN_POINT('',(0.003,-0.01375,1.66967134562767E-17));
#1158=CARTESIAN_POINT('',(-0.000749999999999986,-0.01375,0.00129903810567668));
#1159=CARTESIAN_POINT('',(-0.003,-0.01375,1.47451495458029E-17));
#1160=CARTESIAN_POINT('',(-0.00075,1.4697276959081E-17,0.00129903810567666));
#1161=CARTESIAN_POINT('',(-0.054010562332743,-1.24251398529904E-16,-0.0294509618943234));
#1162=CARTESIAN_POINT('',(-0.054010562332743,0.0125,-0.0294509618943234));
#1163=CARTESIAN_POINT('',(-0.00075,1.4697276959081E-17,0.00129903810567666));
#1164=CARTESIAN_POINT('',(2.60208521396521E-18,1.31356433801341E-17,5.06865529990295E-18));
#1165=CARTESIAN_POINT('',(-0.0015,-0.0614450974447921,-0.00259807621135325));
#1166=CARTESIAN_POINT('',(0.00075,1.15740098011872E-17,-0.00129903810567665));
#1167=CARTESIAN_POINT('',(-0.052510562332743,-1.27374665687798E-16,-0.0320490381056767));
#1168=CARTESIAN_POINT('',(-0.054010562332743,-1.24251398529904E-16,-0.0294509618943234));
#1169=CARTESIAN_POINT('',(-0.054010562332743,0.0125,-0.0294509618943234));
#1170=CARTESIAN_POINT('',(-0.052510562332743,0.0125,-0.0320490381056767));
#1171=CARTESIAN_POINT('',(0.000750000000000015,-0.01375,-0.00129903810567663));
#1172=CARTESIAN_POINT('',(-0.0015,-0.01375,-0.0025980762113533));
#1173=CARTESIAN_POINT('',(-0.000749999999999985,-0.01375,-0.00129903810567665));
#1174=CARTESIAN_POINT('',(-0.054010562332743,0.0125,0.0294509618943233));
#1175=CARTESIAN_POINT('',(-0.052510562332743,0.0125,0.0320490381056766));
#1176=CARTESIAN_POINT('',(-0.052510562332743,0.0125,0.0320490381056766));
#1177=CARTESIAN_POINT('',(0.0015,-0.01375,3.3242714483159E-17));
#1178=CARTESIAN_POINT('',(0.0015,0.0124999999999998,-0.0615));
#1179=CARTESIAN_POINT('',(0.0015,-1.62779024363254E-16,-0.0615));
#1180=CARTESIAN_POINT('',(0.0015,1.31356433801341E-17,5.11683719174759E-18));
#1181=CARTESIAN_POINT('',(-0.0015,0.0124999999999998,-0.0615));
#1182=CARTESIAN_POINT('',(-0.0015,0.0124999999999998,-0.0615));
#1183=CARTESIAN_POINT('',(-0.0015,-1.62779024363254E-16,-0.0615));
#1184=CARTESIAN_POINT('',(-0.0015,-1.62779024363254E-16,-0.0615));
#1185=CARTESIAN_POINT('',(-0.0015,1.31356433801341E-17,4.74944315200338E-18));
#1186=CARTESIAN_POINT('',(-0.0015,1.31356433801341E-17,4.74944315200338E-18));
#1187=CARTESIAN_POINT('',(-0.0015,-0.01375,3.28753204434148E-17));
#1188=CARTESIAN_POINT('',(-0.000750000000000015,-0.01375,0.00129903810567667));
#1189=CARTESIAN_POINT('',(0.052510562332743,0.0125,0.0320490381056766));
#1190=CARTESIAN_POINT('',(0.052510562332743,-5.03194140210989E-17,0.0320490381056766));
#1191=CARTESIAN_POINT('',(-0.00075,1.4697276959081E-17,0.00129903810567666));
#1192=CARTESIAN_POINT('',(0.054010562332743,0.0125,0.0294509618943234));
#1193=CARTESIAN_POINT('',(0.054010562332743,0.0125,0.0294509618943234));
#1194=CARTESIAN_POINT('',(0.054010562332743,-5.34426811789927E-17,0.0294509618943234));
#1195=CARTESIAN_POINT('',(0.054010562332743,-5.34426811789927E-17,0.0294509618943234));
#1196=CARTESIAN_POINT('',(0.00075,1.15740098011872E-17,-0.00129903810567666));
#1197=CARTESIAN_POINT('',(0.00075,1.15740098011872E-17,-0.00129903810567666));
#1198=CARTESIAN_POINT('',(0.000749999999999986,-0.01375,-0.00129903810567665));
#1199=CARTESIAN_POINT('',(0.000749999999999985,-0.01375,0.00129903810567668));
#1200=MECHANICAL_DESIGN_GEOMETRIC_PRESENTATION_REPRESENTATION('',(#682),
#1201);
#1201=(
GEOMETRIC_REPRESENTATION_CONTEXT(3)
GLOBAL_UNCERTAINTY_ASSIGNED_CONTEXT((#1202))
GLOBAL_UNIT_ASSIGNED_CONTEXT((#1205,#1204,#1203))
REPRESENTATION_CONTEXT('Nose V2 Shell','TOP_LEVEL_ASSEMBLY_PART')
);
#1202=UNCERTAINTY_MEASURE_WITH_UNIT(LENGTH_MEASURE(1.E-8),#1205,
'DISTANCE_ACCURACY_VALUE','Maximum Tolerance applied to model');
#1203=(
NAMED_UNIT(*)
SI_UNIT($,.STERADIAN.)
SOLID_ANGLE_UNIT()
);
#1204=(
NAMED_UNIT(*)
PLANE_ANGLE_UNIT()
SI_UNIT($,.RADIAN.)
);
#1205=(
LENGTH_UNIT()
NAMED_UNIT(*)
SI_UNIT($,.METRE.)
);
#1206=PRODUCT_DEFINITION_SHAPE('','',#1207);
#1207=PRODUCT_DEFINITION('','',#1209,#1208);
#1208=PRODUCT_DEFINITION_CONTEXT('',#1215,'design');
#1209=PRODUCT_DEFINITION_FORMATION_WITH_SPECIFIED_SOURCE('','',#1211,
 .NOT_KNOWN.);
#1210=PRODUCT_RELATED_PRODUCT_CATEGORY('','',(#1211));
#1211=PRODUCT('Nose V2 Shell','Nose V2 Shell','Nose V2 Shell',(#1213));
#1212=PRODUCT_CATEGORY('','');
#1213=PRODUCT_CONTEXT('',#1215,'mechanical');
#1214=APPLICATION_PROTOCOL_DEFINITION('international standard',
'ap242_managed_model_based_3d_engineering',2020,#1215);
#1215=APPLICATION_CONTEXT('managed model based 3d engineering');
ENDSEC;
END-ISO-10303-21;
