ISO-10303-21;
HEADER;
/* Generated by software containing ST-Developer
 * from STEP Tools, Inc. (www.steptools.com) 
 */
/* OPTION: using custom renumber hook */

FILE_DESCRIPTION(
/* description */ ('STEP AP242 Edition 2',
'CAx-IF Rec.Pracs.---Representation and Presentation of Product Manufa
cturing Information (PMI)---4.0---2014-10-13',
'CAx-IF Rec.Pracs.---3D Tessellated Geometry---0.4---2014-09-14','2;1',
'CAx-IF Rec.Pracs.---User Defined Attributes---1.5---2016-08-15'),
/* implementation_level */ '2;1');

FILE_NAME(
/* name */ 'Nose V2 - Nose Ring2',
/* time_stamp */ '2026-08-23T20:26:37Z',
/* author */ (''),
/* organization */ (''),
/* preprocessor_version */ 'ST-DEVELOPER v20',
/* originating_system */ 'ONSHAPE BY PTC INC, 1.219',
/* authorisation */ '  ');

FILE_SCHEMA (('AP242_MANAGED_MODEL_BASED_3D_ENGINEERING_MIM_LF { 1 0 10303 442 3 1 4 }'));
ENDSEC;

DATA;
#10=SHAPE_REPRESENTATION_RELATIONSHIP('','',#1115,#11);
#11=ADVANCED_BREP_SHAPE_REPRESENTATION('',(#1113),#1885);
#12=SPHERICAL_SURFACE('',#1155,0.0661);
#13=SPHERICAL_SURFACE('',#1158,0.0661);
#14=SPHERICAL_SURFACE('',#1161,0.0661);
#15=SPHERICAL_SURFACE('',#1164,0.0661);
#16=SPHERICAL_SURFACE('',#1167,0.0661);
#17=SPHERICAL_SURFACE('',#1170,0.0661);
#18=CYLINDRICAL_SURFACE('',#1130,0.0635);
#19=CYLINDRICAL_SURFACE('',#1133,0.0635);
#20=CYLINDRICAL_SURFACE('',#1136,0.0635);
#21=CYLINDRICAL_SURFACE('',#1139,0.0635);
#22=CYLINDRICAL_SURFACE('',#1142,0.0635);
#23=CYLINDRICAL_SURFACE('',#1145,0.0635);
#24=CYLINDRICAL_SURFACE('',#1173,0.061);
#25=CYLINDRICAL_SURFACE('',#1174,0.061);
#26=CYLINDRICAL_SURFACE('',#1175,0.061);
#27=CYLINDRICAL_SURFACE('',#1176,0.061);
#28=CYLINDRICAL_SURFACE('',#1177,0.061);
#29=CYLINDRICAL_SURFACE('',#1178,0.061);
#30=CYLINDRICAL_SURFACE('',#1201,0.0615);
#31=CYLINDRICAL_SURFACE('',#1206,0.0615);
#32=CYLINDRICAL_SURFACE('',#1211,0.0615);
#33=CYLINDRICAL_SURFACE('',#1216,0.0615);
#34=CYLINDRICAL_SURFACE('',#1221,0.0615);
#35=CYLINDRICAL_SURFACE('',#1222,0.0615);
#36=CIRCLE('',#1118,0.0626754337838998);
#37=CIRCLE('',#1119,0.0626754337838998);
#38=CIRCLE('',#1120,0.0626754337838998);
#39=CIRCLE('',#1121,0.0626754337838998);
#40=CIRCLE('',#1122,0.0626754337838998);
#41=CIRCLE('',#1123,0.0626754337838998);
#42=CIRCLE('',#1124,0.061);
#43=CIRCLE('',#1125,0.061);
#44=CIRCLE('',#1126,0.061);
#45=CIRCLE('',#1127,0.061);
#46=CIRCLE('',#1128,0.061);
#47=CIRCLE('',#1129,0.061);
#48=CIRCLE('',#1131,0.0635);
#49=CIRCLE('',#1132,0.0635);
#50=CIRCLE('',#1134,0.0635);
#51=CIRCLE('',#1135,0.0635);
#52=CIRCLE('',#1137,0.0635);
#53=CIRCLE('',#1138,0.0635);
#54=CIRCLE('',#1140,0.0635);
#55=CIRCLE('',#1141,0.0635);
#56=CIRCLE('',#1143,0.0635);
#57=CIRCLE('',#1144,0.0635);
#58=CIRCLE('',#1146,0.0635);
#59=CIRCLE('',#1147,0.0635);
#60=CIRCLE('',#1149,0.061);
#61=CIRCLE('',#1150,0.061);
#62=CIRCLE('',#1151,0.061);
#63=CIRCLE('',#1152,0.061);
#64=CIRCLE('',#1153,0.061);
#65=CIRCLE('',#1154,0.061);
#66=CIRCLE('',#1156,0.066082978141122);
#67=CIRCLE('',#1157,0.066082978141122);
#68=CIRCLE('',#1159,0.066082978141122);
#69=CIRCLE('',#1160,0.066082978141122);
#70=CIRCLE('',#1162,0.066082978141122);
#71=CIRCLE('',#1163,0.066082978141122);
#72=CIRCLE('',#1165,0.066082978141122);
#73=CIRCLE('',#1166,0.066082978141122);
#74=CIRCLE('',#1168,0.066082978141122);
#75=CIRCLE('',#1169,0.066082978141122);
#76=CIRCLE('',#1171,0.066082978141122);
#77=CIRCLE('',#1172,0.066082978141122);
#78=CIRCLE('',#1198,0.0615);
#79=CIRCLE('',#1200,0.0615);
#80=CIRCLE('',#1203,0.0615);
#81=CIRCLE('',#1205,0.0615);
#82=CIRCLE('',#1208,0.0615);
#83=CIRCLE('',#1210,0.0615);
#84=CIRCLE('',#1213,0.0615);
#85=CIRCLE('',#1215,0.0615);
#86=CIRCLE('',#1218,0.0615);
#87=CIRCLE('',#1220,0.0615);
#88=CIRCLE('',#1223,0.0615);
#89=CIRCLE('',#1224,0.0615);
#90=ORIENTED_EDGE('',*,*,#414,.F.);
#91=ORIENTED_EDGE('',*,*,#415,.F.);
#92=ORIENTED_EDGE('',*,*,#416,.T.);
#93=ORIENTED_EDGE('',*,*,#417,.F.);
#94=ORIENTED_EDGE('',*,*,#418,.F.);
#95=ORIENTED_EDGE('',*,*,#419,.F.);
#96=ORIENTED_EDGE('',*,*,#420,.T.);
#97=ORIENTED_EDGE('',*,*,#421,.F.);
#98=ORIENTED_EDGE('',*,*,#422,.T.);
#99=ORIENTED_EDGE('',*,*,#423,.F.);
#100=ORIENTED_EDGE('',*,*,#424,.T.);
#101=ORIENTED_EDGE('',*,*,#425,.F.);
#102=ORIENTED_EDGE('',*,*,#426,.F.);
#103=ORIENTED_EDGE('',*,*,#427,.F.);
#104=ORIENTED_EDGE('',*,*,#428,.T.);
#105=ORIENTED_EDGE('',*,*,#429,.F.);
#106=ORIENTED_EDGE('',*,*,#430,.F.);
#107=ORIENTED_EDGE('',*,*,#431,.F.);
#108=ORIENTED_EDGE('',*,*,#432,.T.);
#109=ORIENTED_EDGE('',*,*,#433,.F.);
#110=ORIENTED_EDGE('',*,*,#434,.F.);
#111=ORIENTED_EDGE('',*,*,#435,.F.);
#112=ORIENTED_EDGE('',*,*,#436,.T.);
#113=ORIENTED_EDGE('',*,*,#437,.F.);
#114=ORIENTED_EDGE('',*,*,#438,.F.);
#115=ORIENTED_EDGE('',*,*,#439,.F.);
#116=ORIENTED_EDGE('',*,*,#440,.F.);
#117=ORIENTED_EDGE('',*,*,#441,.T.);
#118=ORIENTED_EDGE('',*,*,#442,.F.);
#119=ORIENTED_EDGE('',*,*,#443,.F.);
#120=ORIENTED_EDGE('',*,*,#444,.F.);
#121=ORIENTED_EDGE('',*,*,#445,.T.);
#122=ORIENTED_EDGE('',*,*,#446,.F.);
#123=ORIENTED_EDGE('',*,*,#447,.F.);
#124=ORIENTED_EDGE('',*,*,#448,.F.);
#125=ORIENTED_EDGE('',*,*,#449,.T.);
#126=ORIENTED_EDGE('',*,*,#450,.F.);
#127=ORIENTED_EDGE('',*,*,#451,.F.);
#128=ORIENTED_EDGE('',*,*,#452,.F.);
#129=ORIENTED_EDGE('',*,*,#453,.T.);
#130=ORIENTED_EDGE('',*,*,#454,.F.);
#131=ORIENTED_EDGE('',*,*,#455,.F.);
#132=ORIENTED_EDGE('',*,*,#456,.F.);
#133=ORIENTED_EDGE('',*,*,#457,.T.);
#134=ORIENTED_EDGE('',*,*,#458,.F.);
#135=ORIENTED_EDGE('',*,*,#459,.F.);
#136=ORIENTED_EDGE('',*,*,#460,.F.);
#137=ORIENTED_EDGE('',*,*,#461,.T.);
#138=ORIENTED_EDGE('',*,*,#462,.F.);
#139=ORIENTED_EDGE('',*,*,#463,.T.);
#140=ORIENTED_EDGE('',*,*,#464,.T.);
#141=ORIENTED_EDGE('',*,*,#465,.T.);
#142=ORIENTED_EDGE('',*,*,#466,.F.);
#143=ORIENTED_EDGE('',*,*,#467,.T.);
#144=ORIENTED_EDGE('',*,*,#468,.F.);
#145=ORIENTED_EDGE('',*,*,#469,.T.);
#146=ORIENTED_EDGE('',*,*,#470,.F.);
#147=ORIENTED_EDGE('',*,*,#471,.T.);
#148=ORIENTED_EDGE('',*,*,#472,.T.);
#149=ORIENTED_EDGE('',*,*,#473,.T.);
#150=ORIENTED_EDGE('',*,*,#474,.F.);
#151=ORIENTED_EDGE('',*,*,#475,.T.);
#152=ORIENTED_EDGE('',*,*,#476,.T.);
#153=ORIENTED_EDGE('',*,*,#477,.T.);
#154=ORIENTED_EDGE('',*,*,#478,.F.);
#155=ORIENTED_EDGE('',*,*,#479,.T.);
#156=ORIENTED_EDGE('',*,*,#480,.T.);
#157=ORIENTED_EDGE('',*,*,#481,.T.);
#158=ORIENTED_EDGE('',*,*,#482,.T.);
#159=ORIENTED_EDGE('',*,*,#483,.T.);
#160=ORIENTED_EDGE('',*,*,#484,.T.);
#161=ORIENTED_EDGE('',*,*,#485,.F.);
#162=ORIENTED_EDGE('',*,*,#486,.T.);
#163=ORIENTED_EDGE('',*,*,#487,.T.);
#164=ORIENTED_EDGE('',*,*,#482,.F.);
#165=ORIENTED_EDGE('',*,*,#488,.F.);
#166=ORIENTED_EDGE('',*,*,#489,.T.);
#167=ORIENTED_EDGE('',*,*,#490,.T.);
#168=ORIENTED_EDGE('',*,*,#479,.F.);
#169=ORIENTED_EDGE('',*,*,#491,.F.);
#170=ORIENTED_EDGE('',*,*,#492,.T.);
#171=ORIENTED_EDGE('',*,*,#493,.T.);
#172=ORIENTED_EDGE('',*,*,#475,.F.);
#173=ORIENTED_EDGE('',*,*,#494,.F.);
#174=ORIENTED_EDGE('',*,*,#495,.T.);
#175=ORIENTED_EDGE('',*,*,#496,.T.);
#176=ORIENTED_EDGE('',*,*,#471,.F.);
#177=ORIENTED_EDGE('',*,*,#497,.F.);
#178=ORIENTED_EDGE('',*,*,#498,.T.);
#179=ORIENTED_EDGE('',*,*,#499,.F.);
#180=ORIENTED_EDGE('',*,*,#467,.F.);
#181=ORIENTED_EDGE('',*,*,#500,.F.);
#182=ORIENTED_EDGE('',*,*,#501,.T.);
#183=ORIENTED_EDGE('',*,*,#502,.T.);
#184=ORIENTED_EDGE('',*,*,#463,.F.);
#185=ORIENTED_EDGE('',*,*,#503,.F.);
#186=ORIENTED_EDGE('',*,*,#504,.T.);
#187=ORIENTED_EDGE('',*,*,#505,.F.);
#188=ORIENTED_EDGE('',*,*,#506,.T.);
#189=ORIENTED_EDGE('',*,*,#507,.T.);
#190=ORIENTED_EDGE('',*,*,#508,.T.);
#191=ORIENTED_EDGE('',*,*,#509,.F.);
#192=ORIENTED_EDGE('',*,*,#510,.T.);
#193=ORIENTED_EDGE('',*,*,#511,.T.);
#194=ORIENTED_EDGE('',*,*,#512,.T.);
#195=ORIENTED_EDGE('',*,*,#513,.F.);
#196=ORIENTED_EDGE('',*,*,#514,.T.);
#197=ORIENTED_EDGE('',*,*,#515,.T.);
#198=ORIENTED_EDGE('',*,*,#516,.T.);
#199=ORIENTED_EDGE('',*,*,#517,.F.);
#200=ORIENTED_EDGE('',*,*,#518,.T.);
#201=ORIENTED_EDGE('',*,*,#519,.T.);
#202=ORIENTED_EDGE('',*,*,#520,.T.);
#203=ORIENTED_EDGE('',*,*,#521,.F.);
#204=ORIENTED_EDGE('',*,*,#522,.T.);
#205=ORIENTED_EDGE('',*,*,#523,.T.);
#206=ORIENTED_EDGE('',*,*,#524,.T.);
#207=ORIENTED_EDGE('',*,*,#525,.F.);
#208=ORIENTED_EDGE('',*,*,#526,.T.);
#209=ORIENTED_EDGE('',*,*,#527,.T.);
#210=ORIENTED_EDGE('',*,*,#528,.F.);
#211=ORIENTED_EDGE('',*,*,#465,.F.);
#212=ORIENTED_EDGE('',*,*,#529,.T.);
#213=ORIENTED_EDGE('',*,*,#417,.T.);
#214=ORIENTED_EDGE('',*,*,#530,.F.);
#215=ORIENTED_EDGE('',*,*,#469,.F.);
#216=ORIENTED_EDGE('',*,*,#531,.F.);
#217=ORIENTED_EDGE('',*,*,#421,.T.);
#218=ORIENTED_EDGE('',*,*,#532,.F.);
#219=ORIENTED_EDGE('',*,*,#473,.F.);
#220=ORIENTED_EDGE('',*,*,#533,.T.);
#221=ORIENTED_EDGE('',*,*,#425,.T.);
#222=ORIENTED_EDGE('',*,*,#534,.F.);
#223=ORIENTED_EDGE('',*,*,#477,.F.);
#224=ORIENTED_EDGE('',*,*,#535,.T.);
#225=ORIENTED_EDGE('',*,*,#429,.T.);
#226=ORIENTED_EDGE('',*,*,#536,.F.);
#227=ORIENTED_EDGE('',*,*,#481,.F.);
#228=ORIENTED_EDGE('',*,*,#537,.T.);
#229=ORIENTED_EDGE('',*,*,#433,.T.);
#230=ORIENTED_EDGE('',*,*,#484,.F.);
#231=ORIENTED_EDGE('',*,*,#538,.T.);
#232=ORIENTED_EDGE('',*,*,#437,.T.);
#233=ORIENTED_EDGE('',*,*,#539,.F.);
#234=ORIENTED_EDGE('',*,*,#454,.T.);
#235=ORIENTED_EDGE('',*,*,#540,.T.);
#236=ORIENTED_EDGE('',*,*,#512,.F.);
#237=ORIENTED_EDGE('',*,*,#541,.F.);
#238=ORIENTED_EDGE('',*,*,#542,.F.);
#239=ORIENTED_EDGE('',*,*,#450,.T.);
#240=ORIENTED_EDGE('',*,*,#543,.T.);
#241=ORIENTED_EDGE('',*,*,#516,.F.);
#242=ORIENTED_EDGE('',*,*,#544,.F.);
#243=ORIENTED_EDGE('',*,*,#446,.T.);
#244=ORIENTED_EDGE('',*,*,#545,.T.);
#245=ORIENTED_EDGE('',*,*,#520,.F.);
#246=ORIENTED_EDGE('',*,*,#546,.F.);
#247=ORIENTED_EDGE('',*,*,#442,.T.);
#248=ORIENTED_EDGE('',*,*,#547,.T.);
#249=ORIENTED_EDGE('',*,*,#524,.F.);
#250=ORIENTED_EDGE('',*,*,#548,.F.);
#251=ORIENTED_EDGE('',*,*,#438,.T.);
#252=ORIENTED_EDGE('',*,*,#549,.T.);
#253=ORIENTED_EDGE('',*,*,#504,.F.);
#254=ORIENTED_EDGE('',*,*,#550,.F.);
#255=ORIENTED_EDGE('',*,*,#458,.T.);
#256=ORIENTED_EDGE('',*,*,#551,.T.);
#257=ORIENTED_EDGE('',*,*,#508,.F.);
#258=ORIENTED_EDGE('',*,*,#510,.F.);
#259=ORIENTED_EDGE('',*,*,#552,.F.);
#260=ORIENTED_EDGE('',*,*,#456,.T.);
#261=ORIENTED_EDGE('',*,*,#553,.T.);
#262=ORIENTED_EDGE('',*,*,#509,.T.);
#263=ORIENTED_EDGE('',*,*,#551,.F.);
#264=ORIENTED_EDGE('',*,*,#457,.F.);
#265=ORIENTED_EDGE('',*,*,#552,.T.);
#266=ORIENTED_EDGE('',*,*,#511,.F.);
#267=ORIENTED_EDGE('',*,*,#553,.F.);
#268=ORIENTED_EDGE('',*,*,#455,.T.);
#269=ORIENTED_EDGE('',*,*,#541,.T.);
#270=ORIENTED_EDGE('',*,*,#506,.F.);
#271=ORIENTED_EDGE('',*,*,#554,.F.);
#272=ORIENTED_EDGE('',*,*,#460,.T.);
#273=ORIENTED_EDGE('',*,*,#555,.T.);
#274=ORIENTED_EDGE('',*,*,#505,.T.);
#275=ORIENTED_EDGE('',*,*,#549,.F.);
#276=ORIENTED_EDGE('',*,*,#461,.F.);
#277=ORIENTED_EDGE('',*,*,#554,.T.);
#278=ORIENTED_EDGE('',*,*,#507,.F.);
#279=ORIENTED_EDGE('',*,*,#555,.F.);
#280=ORIENTED_EDGE('',*,*,#459,.T.);
#281=ORIENTED_EDGE('',*,*,#550,.T.);
#282=ORIENTED_EDGE('',*,*,#526,.F.);
#283=ORIENTED_EDGE('',*,*,#556,.F.);
#284=ORIENTED_EDGE('',*,*,#440,.T.);
#285=ORIENTED_EDGE('',*,*,#557,.T.);
#286=ORIENTED_EDGE('',*,*,#525,.T.);
#287=ORIENTED_EDGE('',*,*,#547,.F.);
#288=ORIENTED_EDGE('',*,*,#441,.F.);
#289=ORIENTED_EDGE('',*,*,#556,.T.);
#290=ORIENTED_EDGE('',*,*,#527,.F.);
#291=ORIENTED_EDGE('',*,*,#557,.F.);
#292=ORIENTED_EDGE('',*,*,#439,.T.);
#293=ORIENTED_EDGE('',*,*,#548,.T.);
#294=ORIENTED_EDGE('',*,*,#522,.F.);
#295=ORIENTED_EDGE('',*,*,#558,.F.);
#296=ORIENTED_EDGE('',*,*,#444,.T.);
#297=ORIENTED_EDGE('',*,*,#559,.T.);
#298=ORIENTED_EDGE('',*,*,#521,.T.);
#299=ORIENTED_EDGE('',*,*,#545,.F.);
#300=ORIENTED_EDGE('',*,*,#445,.F.);
#301=ORIENTED_EDGE('',*,*,#558,.T.);
#302=ORIENTED_EDGE('',*,*,#523,.F.);
#303=ORIENTED_EDGE('',*,*,#559,.F.);
#304=ORIENTED_EDGE('',*,*,#443,.T.);
#305=ORIENTED_EDGE('',*,*,#546,.T.);
#306=ORIENTED_EDGE('',*,*,#518,.F.);
#307=ORIENTED_EDGE('',*,*,#560,.F.);
#308=ORIENTED_EDGE('',*,*,#448,.T.);
#309=ORIENTED_EDGE('',*,*,#561,.T.);
#310=ORIENTED_EDGE('',*,*,#517,.T.);
#311=ORIENTED_EDGE('',*,*,#543,.F.);
#312=ORIENTED_EDGE('',*,*,#449,.F.);
#313=ORIENTED_EDGE('',*,*,#560,.T.);
#314=ORIENTED_EDGE('',*,*,#519,.F.);
#315=ORIENTED_EDGE('',*,*,#561,.F.);
#316=ORIENTED_EDGE('',*,*,#447,.T.);
#317=ORIENTED_EDGE('',*,*,#544,.T.);
#318=ORIENTED_EDGE('',*,*,#514,.F.);
#319=ORIENTED_EDGE('',*,*,#562,.F.);
#320=ORIENTED_EDGE('',*,*,#452,.T.);
#321=ORIENTED_EDGE('',*,*,#563,.T.);
#322=ORIENTED_EDGE('',*,*,#513,.T.);
#323=ORIENTED_EDGE('',*,*,#540,.F.);
#324=ORIENTED_EDGE('',*,*,#453,.F.);
#325=ORIENTED_EDGE('',*,*,#562,.T.);
#326=ORIENTED_EDGE('',*,*,#515,.F.);
#327=ORIENTED_EDGE('',*,*,#563,.F.);
#328=ORIENTED_EDGE('',*,*,#451,.T.);
#329=ORIENTED_EDGE('',*,*,#542,.T.);
#330=ORIENTED_EDGE('',*,*,#564,.T.);
#331=ORIENTED_EDGE('',*,*,#418,.T.);
#332=ORIENTED_EDGE('',*,*,#529,.F.);
#333=ORIENTED_EDGE('',*,*,#464,.F.);
#334=ORIENTED_EDGE('',*,*,#502,.F.);
#335=ORIENTED_EDGE('',*,*,#500,.T.);
#336=ORIENTED_EDGE('',*,*,#466,.T.);
#337=ORIENTED_EDGE('',*,*,#530,.T.);
#338=ORIENTED_EDGE('',*,*,#420,.F.);
#339=ORIENTED_EDGE('',*,*,#565,.F.);
#340=ORIENTED_EDGE('',*,*,#419,.T.);
#341=ORIENTED_EDGE('',*,*,#564,.F.);
#342=ORIENTED_EDGE('',*,*,#501,.F.);
#343=ORIENTED_EDGE('',*,*,#565,.T.);
#344=ORIENTED_EDGE('',*,*,#499,.T.);
#345=ORIENTED_EDGE('',*,*,#566,.F.);
#346=ORIENTED_EDGE('',*,*,#422,.F.);
#347=ORIENTED_EDGE('',*,*,#531,.T.);
#348=ORIENTED_EDGE('',*,*,#468,.T.);
#349=ORIENTED_EDGE('',*,*,#497,.T.);
#350=ORIENTED_EDGE('',*,*,#470,.T.);
#351=ORIENTED_EDGE('',*,*,#532,.T.);
#352=ORIENTED_EDGE('',*,*,#424,.F.);
#353=ORIENTED_EDGE('',*,*,#567,.F.);
#354=ORIENTED_EDGE('',*,*,#423,.T.);
#355=ORIENTED_EDGE('',*,*,#566,.T.);
#356=ORIENTED_EDGE('',*,*,#498,.F.);
#357=ORIENTED_EDGE('',*,*,#567,.T.);
#358=ORIENTED_EDGE('',*,*,#568,.T.);
#359=ORIENTED_EDGE('',*,*,#430,.T.);
#360=ORIENTED_EDGE('',*,*,#535,.F.);
#361=ORIENTED_EDGE('',*,*,#476,.F.);
#362=ORIENTED_EDGE('',*,*,#493,.F.);
#363=ORIENTED_EDGE('',*,*,#491,.T.);
#364=ORIENTED_EDGE('',*,*,#478,.T.);
#365=ORIENTED_EDGE('',*,*,#536,.T.);
#366=ORIENTED_EDGE('',*,*,#432,.F.);
#367=ORIENTED_EDGE('',*,*,#569,.F.);
#368=ORIENTED_EDGE('',*,*,#431,.T.);
#369=ORIENTED_EDGE('',*,*,#568,.F.);
#370=ORIENTED_EDGE('',*,*,#492,.F.);
#371=ORIENTED_EDGE('',*,*,#569,.T.);
#372=ORIENTED_EDGE('',*,*,#570,.T.);
#373=ORIENTED_EDGE('',*,*,#434,.T.);
#374=ORIENTED_EDGE('',*,*,#537,.F.);
#375=ORIENTED_EDGE('',*,*,#480,.F.);
#376=ORIENTED_EDGE('',*,*,#490,.F.);
#377=ORIENTED_EDGE('',*,*,#488,.T.);
#378=ORIENTED_EDGE('',*,*,#485,.T.);
#379=ORIENTED_EDGE('',*,*,#539,.T.);
#380=ORIENTED_EDGE('',*,*,#436,.F.);
#381=ORIENTED_EDGE('',*,*,#571,.F.);
#382=ORIENTED_EDGE('',*,*,#435,.T.);
#383=ORIENTED_EDGE('',*,*,#570,.F.);
#384=ORIENTED_EDGE('',*,*,#489,.F.);
#385=ORIENTED_EDGE('',*,*,#571,.T.);
#386=ORIENTED_EDGE('',*,*,#572,.T.);
#387=ORIENTED_EDGE('',*,*,#426,.T.);
#388=ORIENTED_EDGE('',*,*,#533,.F.);
#389=ORIENTED_EDGE('',*,*,#472,.F.);
#390=ORIENTED_EDGE('',*,*,#496,.F.);
#391=ORIENTED_EDGE('',*,*,#494,.T.);
#392=ORIENTED_EDGE('',*,*,#474,.T.);
#393=ORIENTED_EDGE('',*,*,#534,.T.);
#394=ORIENTED_EDGE('',*,*,#428,.F.);
#395=ORIENTED_EDGE('',*,*,#573,.F.);
#396=ORIENTED_EDGE('',*,*,#427,.T.);
#397=ORIENTED_EDGE('',*,*,#572,.F.);
#398=ORIENTED_EDGE('',*,*,#495,.F.);
#399=ORIENTED_EDGE('',*,*,#573,.T.);
#400=ORIENTED_EDGE('',*,*,#415,.T.);
#401=ORIENTED_EDGE('',*,*,#574,.F.);
#402=ORIENTED_EDGE('',*,*,#486,.F.);
#403=ORIENTED_EDGE('',*,*,#575,.T.);
#404=ORIENTED_EDGE('',*,*,#574,.T.);
#405=ORIENTED_EDGE('',*,*,#414,.T.);
#406=ORIENTED_EDGE('',*,*,#538,.F.);
#407=ORIENTED_EDGE('',*,*,#483,.F.);
#408=ORIENTED_EDGE('',*,*,#487,.F.);
#409=ORIENTED_EDGE('',*,*,#503,.T.);
#410=ORIENTED_EDGE('',*,*,#462,.T.);
#411=ORIENTED_EDGE('',*,*,#528,.T.);
#412=ORIENTED_EDGE('',*,*,#416,.F.);
#413=ORIENTED_EDGE('',*,*,#575,.F.);
#414=EDGE_CURVE('',#576,#577,#684,.T.);
#415=EDGE_CURVE('',#578,#576,#685,.F.);
#416=EDGE_CURVE('',#578,#579,#686,.T.);
#417=EDGE_CURVE('',#580,#579,#36,.F.);
#418=EDGE_CURVE('',#581,#580,#687,.T.);
#419=EDGE_CURVE('',#582,#581,#688,.F.);
#420=EDGE_CURVE('',#582,#583,#689,.T.);
#421=EDGE_CURVE('',#584,#583,#37,.F.);
#422=EDGE_CURVE('',#584,#585,#690,.T.);
#423=EDGE_CURVE('',#586,#585,#691,.T.);
#424=EDGE_CURVE('',#586,#587,#692,.T.);
#425=EDGE_CURVE('',#588,#587,#38,.F.);
#426=EDGE_CURVE('',#589,#588,#693,.T.);
#427=EDGE_CURVE('',#590,#589,#694,.F.);
#428=EDGE_CURVE('',#590,#591,#695,.T.);
#429=EDGE_CURVE('',#592,#591,#39,.F.);
#430=EDGE_CURVE('',#593,#592,#696,.T.);
#431=EDGE_CURVE('',#594,#593,#697,.F.);
#432=EDGE_CURVE('',#594,#595,#698,.T.);
#433=EDGE_CURVE('',#596,#595,#40,.F.);
#434=EDGE_CURVE('',#597,#596,#699,.T.);
#435=EDGE_CURVE('',#598,#597,#700,.F.);
#436=EDGE_CURVE('',#598,#599,#701,.T.);
#437=EDGE_CURVE('',#577,#599,#41,.F.);
#438=EDGE_CURVE('',#600,#601,#42,.T.);
#439=EDGE_CURVE('',#602,#600,#702,.T.);
#440=EDGE_CURVE('',#603,#602,#703,.T.);
#441=EDGE_CURVE('',#603,#604,#704,.T.);
#442=EDGE_CURVE('',#605,#604,#43,.T.);
#443=EDGE_CURVE('',#606,#605,#705,.T.);
#444=EDGE_CURVE('',#607,#606,#706,.T.);
#445=EDGE_CURVE('',#607,#608,#707,.T.);
#446=EDGE_CURVE('',#609,#608,#44,.T.);
#447=EDGE_CURVE('',#610,#609,#708,.T.);
#448=EDGE_CURVE('',#611,#610,#709,.T.);
#449=EDGE_CURVE('',#611,#612,#710,.T.);
#450=EDGE_CURVE('',#613,#612,#45,.T.);
#451=EDGE_CURVE('',#614,#613,#711,.T.);
#452=EDGE_CURVE('',#615,#614,#712,.T.);
#453=EDGE_CURVE('',#615,#616,#713,.T.);
#454=EDGE_CURVE('',#617,#616,#46,.T.);
#455=EDGE_CURVE('',#618,#617,#714,.T.);
#456=EDGE_CURVE('',#619,#618,#715,.T.);
#457=EDGE_CURVE('',#619,#620,#716,.T.);
#458=EDGE_CURVE('',#621,#620,#47,.T.);
#459=EDGE_CURVE('',#622,#621,#717,.T.);
#460=EDGE_CURVE('',#623,#622,#718,.T.);
#461=EDGE_CURVE('',#623,#601,#719,.T.);
#462=EDGE_CURVE('',#624,#625,#720,.F.);
#463=EDGE_CURVE('',#624,#626,#48,.T.);
#464=EDGE_CURVE('',#626,#627,#721,.F.);
#465=EDGE_CURVE('',#627,#625,#49,.T.);
#466=EDGE_CURVE('',#628,#629,#722,.F.);
#467=EDGE_CURVE('',#628,#630,#50,.T.);
#468=EDGE_CURVE('',#631,#630,#723,.T.);
#469=EDGE_CURVE('',#631,#629,#51,.T.);
#470=EDGE_CURVE('',#632,#633,#724,.F.);
#471=EDGE_CURVE('',#632,#634,#52,.T.);
#472=EDGE_CURVE('',#634,#635,#725,.F.);
#473=EDGE_CURVE('',#635,#633,#53,.T.);
#474=EDGE_CURVE('',#636,#637,#726,.F.);
#475=EDGE_CURVE('',#636,#638,#54,.T.);
#476=EDGE_CURVE('',#638,#639,#727,.F.);
#477=EDGE_CURVE('',#639,#637,#55,.T.);
#478=EDGE_CURVE('',#640,#641,#728,.F.);
#479=EDGE_CURVE('',#640,#642,#56,.T.);
#480=EDGE_CURVE('',#642,#643,#729,.F.);
#481=EDGE_CURVE('',#643,#641,#57,.T.);
#482=EDGE_CURVE('',#644,#645,#58,.T.);
#483=EDGE_CURVE('',#645,#646,#730,.F.);
#484=EDGE_CURVE('',#646,#647,#59,.T.);
#485=EDGE_CURVE('',#644,#647,#731,.F.);
#486=EDGE_CURVE('',#648,#649,#732,.F.);
#487=EDGE_CURVE('',#649,#645,#733,.T.);
#488=EDGE_CURVE('',#650,#644,#734,.T.);
#489=EDGE_CURVE('',#650,#651,#735,.F.);
#490=EDGE_CURVE('',#651,#642,#736,.T.);
#491=EDGE_CURVE('',#652,#640,#737,.T.);
#492=EDGE_CURVE('',#652,#653,#738,.F.);
#493=EDGE_CURVE('',#653,#638,#739,.T.);
#494=EDGE_CURVE('',#654,#636,#740,.T.);
#495=EDGE_CURVE('',#654,#655,#741,.F.);
#496=EDGE_CURVE('',#655,#634,#742,.T.);
#497=EDGE_CURVE('',#656,#632,#743,.T.);
#498=EDGE_CURVE('',#656,#657,#744,.T.);
#499=EDGE_CURVE('',#630,#657,#745,.T.);
#500=EDGE_CURVE('',#658,#628,#746,.T.);
#501=EDGE_CURVE('',#658,#659,#747,.F.);
#502=EDGE_CURVE('',#659,#626,#748,.T.);
#503=EDGE_CURVE('',#648,#624,#749,.T.);
#504=EDGE_CURVE('',#660,#661,#60,.T.);
#505=EDGE_CURVE('',#662,#661,#750,.T.);
#506=EDGE_CURVE('',#662,#663,#751,.T.);
#507=EDGE_CURVE('',#663,#664,#752,.T.);
#508=EDGE_CURVE('',#664,#665,#61,.T.);
#509=EDGE_CURVE('',#666,#665,#753,.T.);
#510=EDGE_CURVE('',#666,#667,#754,.T.);
#511=EDGE_CURVE('',#667,#668,#755,.T.);
#512=EDGE_CURVE('',#668,#669,#62,.T.);
#513=EDGE_CURVE('',#670,#669,#756,.T.);
#514=EDGE_CURVE('',#670,#671,#757,.T.);
#515=EDGE_CURVE('',#671,#672,#758,.T.);
#516=EDGE_CURVE('',#672,#673,#63,.T.);
#517=EDGE_CURVE('',#674,#673,#759,.T.);
#518=EDGE_CURVE('',#674,#675,#760,.T.);
#519=EDGE_CURVE('',#675,#676,#761,.T.);
#520=EDGE_CURVE('',#676,#677,#64,.T.);
#521=EDGE_CURVE('',#678,#677,#762,.T.);
#522=EDGE_CURVE('',#678,#679,#763,.T.);
#523=EDGE_CURVE('',#679,#680,#764,.T.);
#524=EDGE_CURVE('',#680,#681,#65,.T.);
#525=EDGE_CURVE('',#682,#681,#765,.T.);
#526=EDGE_CURVE('',#682,#683,#766,.T.);
#527=EDGE_CURVE('',#683,#660,#767,.T.);
#528=EDGE_CURVE('',#625,#579,#66,.T.);
#529=EDGE_CURVE('',#627,#580,#67,.T.);
#530=EDGE_CURVE('',#629,#583,#68,.T.);
#531=EDGE_CURVE('',#584,#631,#69,.T.);
#532=EDGE_CURVE('',#633,#587,#70,.T.);
#533=EDGE_CURVE('',#635,#588,#71,.T.);
#534=EDGE_CURVE('',#637,#591,#72,.T.);
#535=EDGE_CURVE('',#639,#592,#73,.T.);
#536=EDGE_CURVE('',#641,#595,#74,.T.);
#537=EDGE_CURVE('',#643,#596,#75,.T.);
#538=EDGE_CURVE('',#646,#577,#76,.T.);
#539=EDGE_CURVE('',#647,#599,#77,.T.);
#540=EDGE_CURVE('',#616,#669,#768,.T.);
#541=EDGE_CURVE('',#617,#668,#769,.T.);
#542=EDGE_CURVE('',#613,#672,#770,.T.);
#543=EDGE_CURVE('',#612,#673,#771,.T.);
#544=EDGE_CURVE('',#609,#676,#772,.T.);
#545=EDGE_CURVE('',#608,#677,#773,.T.);
#546=EDGE_CURVE('',#605,#680,#774,.T.);
#547=EDGE_CURVE('',#604,#681,#775,.T.);
#548=EDGE_CURVE('',#600,#660,#776,.T.);
#549=EDGE_CURVE('',#601,#661,#777,.T.);
#550=EDGE_CURVE('',#621,#664,#778,.T.);
#551=EDGE_CURVE('',#620,#665,#779,.T.);
#552=EDGE_CURVE('',#619,#666,#780,.T.);
#553=EDGE_CURVE('',#618,#667,#781,.T.);
#554=EDGE_CURVE('',#623,#662,#782,.T.);
#555=EDGE_CURVE('',#622,#663,#783,.T.);
#556=EDGE_CURVE('',#603,#682,#784,.T.);
#557=EDGE_CURVE('',#602,#683,#785,.T.);
#558=EDGE_CURVE('',#607,#678,#786,.T.);
#559=EDGE_CURVE('',#606,#679,#787,.T.);
#560=EDGE_CURVE('',#611,#674,#788,.T.);
#561=EDGE_CURVE('',#610,#675,#789,.T.);
#562=EDGE_CURVE('',#615,#670,#790,.T.);
#563=EDGE_CURVE('',#614,#671,#791,.T.);
#564=EDGE_CURVE('',#659,#581,#78,.T.);
#565=EDGE_CURVE('',#658,#582,#79,.T.);
#566=EDGE_CURVE('',#585,#657,#80,.T.);
#567=EDGE_CURVE('',#656,#586,#81,.T.);
#568=EDGE_CURVE('',#653,#593,#82,.T.);
#569=EDGE_CURVE('',#652,#594,#83,.T.);
#570=EDGE_CURVE('',#651,#597,#84,.T.);
#571=EDGE_CURVE('',#650,#598,#85,.T.);
#572=EDGE_CURVE('',#655,#589,#86,.T.);
#573=EDGE_CURVE('',#654,#590,#87,.T.);
#574=EDGE_CURVE('',#649,#576,#88,.T.);
#575=EDGE_CURVE('',#648,#578,#89,.T.);
#576=VERTEX_POINT('',#1560);
#577=VERTEX_POINT('',#1561);
#578=VERTEX_POINT('',#1563);
#579=VERTEX_POINT('',#1565);
#580=VERTEX_POINT('',#1567);
#581=VERTEX_POINT('',#1569);
#582=VERTEX_POINT('',#1571);
#583=VERTEX_POINT('',#1573);
#584=VERTEX_POINT('',#1575);
#585=VERTEX_POINT('',#1577);
#586=VERTEX_POINT('',#1579);
#587=VERTEX_POINT('',#1581);
#588=VERTEX_POINT('',#1583);
#589=VERTEX_POINT('',#1585);
#590=VERTEX_POINT('',#1587);
#591=VERTEX_POINT('',#1589);
#592=VERTEX_POINT('',#1591);
#593=VERTEX_POINT('',#1593);
#594=VERTEX_POINT('',#1595);
#595=VERTEX_POINT('',#1597);
#596=VERTEX_POINT('',#1599);
#597=VERTEX_POINT('',#1601);
#598=VERTEX_POINT('',#1603);
#599=VERTEX_POINT('',#1605);
#600=VERTEX_POINT('',#1608);
#601=VERTEX_POINT('',#1609);
#602=VERTEX_POINT('',#1611);
#603=VERTEX_POINT('',#1613);
#604=VERTEX_POINT('',#1615);
#605=VERTEX_POINT('',#1617);
#606=VERTEX_POINT('',#1619);
#607=VERTEX_POINT('',#1621);
#608=VERTEX_POINT('',#1623);
#609=VERTEX_POINT('',#1625);
#610=VERTEX_POINT('',#1627);
#611=VERTEX_POINT('',#1629);
#612=VERTEX_POINT('',#1631);
#613=VERTEX_POINT('',#1633);
#614=VERTEX_POINT('',#1635);
#615=VERTEX_POINT('',#1637);
#616=VERTEX_POINT('',#1639);
#617=VERTEX_POINT('',#1641);
#618=VERTEX_POINT('',#1643);
#619=VERTEX_POINT('',#1645);
#620=VERTEX_POINT('',#1647);
#621=VERTEX_POINT('',#1649);
#622=VERTEX_POINT('',#1651);
#623=VERTEX_POINT('',#1653);
#624=VERTEX_POINT('',#1657);
#625=VERTEX_POINT('',#1658);
#626=VERTEX_POINT('',#1660);
#627=VERTEX_POINT('',#1662);
#628=VERTEX_POINT('',#1666);
#629=VERTEX_POINT('',#1667);
#630=VERTEX_POINT('',#1669);
#631=VERTEX_POINT('',#1671);
#632=VERTEX_POINT('',#1675);
#633=VERTEX_POINT('',#1676);
#634=VERTEX_POINT('',#1678);
#635=VERTEX_POINT('',#1680);
#636=VERTEX_POINT('',#1684);
#637=VERTEX_POINT('',#1685);
#638=VERTEX_POINT('',#1687);
#639=VERTEX_POINT('',#1689);
#640=VERTEX_POINT('',#1693);
#641=VERTEX_POINT('',#1694);
#642=VERTEX_POINT('',#1696);
#643=VERTEX_POINT('',#1698);
#644=VERTEX_POINT('',#1702);
#645=VERTEX_POINT('',#1703);
#646=VERTEX_POINT('',#1705);
#647=VERTEX_POINT('',#1707);
#648=VERTEX_POINT('',#1711);
#649=VERTEX_POINT('',#1712);
#650=VERTEX_POINT('',#1715);
#651=VERTEX_POINT('',#1717);
#652=VERTEX_POINT('',#1720);
#653=VERTEX_POINT('',#1722);
#654=VERTEX_POINT('',#1725);
#655=VERTEX_POINT('',#1727);
#656=VERTEX_POINT('',#1730);
#657=VERTEX_POINT('',#1732);
#658=VERTEX_POINT('',#1735);
#659=VERTEX_POINT('',#1737);
#660=VERTEX_POINT('',#1741);
#661=VERTEX_POINT('',#1742);
#662=VERTEX_POINT('',#1744);
#663=VERTEX_POINT('',#1746);
#664=VERTEX_POINT('',#1748);
#665=VERTEX_POINT('',#1750);
#666=VERTEX_POINT('',#1752);
#667=VERTEX_POINT('',#1754);
#668=VERTEX_POINT('',#1756);
#669=VERTEX_POINT('',#1758);
#670=VERTEX_POINT('',#1760);
#671=VERTEX_POINT('',#1762);
#672=VERTEX_POINT('',#1764);
#673=VERTEX_POINT('',#1766);
#674=VERTEX_POINT('',#1768);
#675=VERTEX_POINT('',#1770);
#676=VERTEX_POINT('',#1772);
#677=VERTEX_POINT('',#1774);
#678=VERTEX_POINT('',#1776);
#679=VERTEX_POINT('',#1778);
#680=VERTEX_POINT('',#1780);
#681=VERTEX_POINT('',#1782);
#682=VERTEX_POINT('',#1784);
#683=VERTEX_POINT('',#1786);
#684=LINE('',#1559,#792);
#685=LINE('',#1562,#793);
#686=LINE('',#1564,#794);
#687=LINE('',#1568,#795);
#688=LINE('',#1570,#796);
#689=LINE('',#1572,#797);
#690=LINE('',#1576,#798);
#691=LINE('',#1578,#799);
#692=LINE('',#1580,#800);
#693=LINE('',#1584,#801);
#694=LINE('',#1586,#802);
#695=LINE('',#1588,#803);
#696=LINE('',#1592,#804);
#697=LINE('',#1594,#805);
#698=LINE('',#1596,#806);
#699=LINE('',#1600,#807);
#700=LINE('',#1602,#808);
#701=LINE('',#1604,#809);
#702=LINE('',#1610,#810);
#703=LINE('',#1612,#811);
#704=LINE('',#1614,#812);
#705=LINE('',#1618,#813);
#706=LINE('',#1620,#814);
#707=LINE('',#1622,#815);
#708=LINE('',#1626,#816);
#709=LINE('',#1628,#817);
#710=LINE('',#1630,#818);
#711=LINE('',#1634,#819);
#712=LINE('',#1636,#820);
#713=LINE('',#1638,#821);
#714=LINE('',#1642,#822);
#715=LINE('',#1644,#823);
#716=LINE('',#1646,#824);
#717=LINE('',#1650,#825);
#718=LINE('',#1652,#826);
#719=LINE('',#1654,#827);
#720=LINE('',#1656,#828);
#721=LINE('',#1661,#829);
#722=LINE('',#1665,#830);
#723=LINE('',#1670,#831);
#724=LINE('',#1674,#832);
#725=LINE('',#1679,#833);
#726=LINE('',#1683,#834);
#727=LINE('',#1688,#835);
#728=LINE('',#1692,#836);
#729=LINE('',#1697,#837);
#730=LINE('',#1704,#838);
#731=LINE('',#1708,#839);
#732=LINE('',#1710,#840);
#733=LINE('',#1713,#841);
#734=LINE('',#1714,#842);
#735=LINE('',#1716,#843);
#736=LINE('',#1718,#844);
#737=LINE('',#1719,#845);
#738=LINE('',#1721,#846);
#739=LINE('',#1723,#847);
#740=LINE('',#1724,#848);
#741=LINE('',#1726,#849);
#742=LINE('',#1728,#850);
#743=LINE('',#1729,#851);
#744=LINE('',#1731,#852);
#745=LINE('',#1733,#853);
#746=LINE('',#1734,#854);
#747=LINE('',#1736,#855);
#748=LINE('',#1738,#856);
#749=LINE('',#1739,#857);
#750=LINE('',#1743,#858);
#751=LINE('',#1745,#859);
#752=LINE('',#1747,#860);
#753=LINE('',#1751,#861);
#754=LINE('',#1753,#862);
#755=LINE('',#1755,#863);
#756=LINE('',#1759,#864);
#757=LINE('',#1761,#865);
#758=LINE('',#1763,#866);
#759=LINE('',#1767,#867);
#760=LINE('',#1769,#868);
#761=LINE('',#1771,#869);
#762=LINE('',#1775,#870);
#763=LINE('',#1777,#871);
#764=LINE('',#1779,#872);
#765=LINE('',#1783,#873);
#766=LINE('',#1785,#874);
#767=LINE('',#1787,#875);
#768=LINE('',#1807,#876);
#769=LINE('',#1808,#877);
#770=LINE('',#1810,#878);
#771=LINE('',#1811,#879);
#772=LINE('',#1813,#880);
#773=LINE('',#1814,#881);
#774=LINE('',#1816,#882);
#775=LINE('',#1817,#883);
#776=LINE('',#1819,#884);
#777=LINE('',#1820,#885);
#778=LINE('',#1822,#886);
#779=LINE('',#1823,#887);
#780=LINE('',#1825,#888);
#781=LINE('',#1826,#889);
#782=LINE('',#1830,#890);
#783=LINE('',#1831,#891);
#784=LINE('',#1835,#892);
#785=LINE('',#1836,#893);
#786=LINE('',#1840,#894);
#787=LINE('',#1841,#895);
#788=LINE('',#1845,#896);
#789=LINE('',#1846,#897);
#790=LINE('',#1850,#898);
#791=LINE('',#1851,#899);
#792=VECTOR('',#1231,1.);
#793=VECTOR('',#1232,1.);
#794=VECTOR('',#1233,1.);
#795=VECTOR('',#1236,1.);
#796=VECTOR('',#1237,1.);
#797=VECTOR('',#1238,1.);
#798=VECTOR('',#1241,1.);
#799=VECTOR('',#1242,1.);
#800=VECTOR('',#1243,1.);
#801=VECTOR('',#1246,1.);
#802=VECTOR('',#1247,1.);
#803=VECTOR('',#1248,1.);
#804=VECTOR('',#1251,1.);
#805=VECTOR('',#1252,1.);
#806=VECTOR('',#1253,1.);
#807=VECTOR('',#1256,1.);
#808=VECTOR('',#1257,1.);
#809=VECTOR('',#1258,1.);
#810=VECTOR('',#1263,1.);
#811=VECTOR('',#1264,1.);
#812=VECTOR('',#1265,1.);
#813=VECTOR('',#1268,1.);
#814=VECTOR('',#1269,1.);
#815=VECTOR('',#1270,1.);
#816=VECTOR('',#1273,1.);
#817=VECTOR('',#1274,1.);
#818=VECTOR('',#1275,1.);
#819=VECTOR('',#1278,1.);
#820=VECTOR('',#1279,1.);
#821=VECTOR('',#1280,1.);
#822=VECTOR('',#1283,1.);
#823=VECTOR('',#1284,1.);
#824=VECTOR('',#1285,1.);
#825=VECTOR('',#1288,1.);
#826=VECTOR('',#1289,1.);
#827=VECTOR('',#1290,1.);
#828=VECTOR('',#1293,1.);
#829=VECTOR('',#1296,1.);
#830=VECTOR('',#1301,1.);
#831=VECTOR('',#1304,1.);
#832=VECTOR('',#1309,1.);
#833=VECTOR('',#1312,1.);
#834=VECTOR('',#1317,1.);
#835=VECTOR('',#1320,1.);
#836=VECTOR('',#1325,1.);
#837=VECTOR('',#1328,1.);
#838=VECTOR('',#1335,1.);
#839=VECTOR('',#1338,1.);
#840=VECTOR('',#1341,1.);
#841=VECTOR('',#1342,1.);
#842=VECTOR('',#1343,1.);
#843=VECTOR('',#1344,1.);
#844=VECTOR('',#1345,1.);
#845=VECTOR('',#1346,1.);
#846=VECTOR('',#1347,1.);
#847=VECTOR('',#1348,1.);
#848=VECTOR('',#1349,1.);
#849=VECTOR('',#1350,1.);
#850=VECTOR('',#1351,1.);
#851=VECTOR('',#1352,1.);
#852=VECTOR('',#1353,1.);
#853=VECTOR('',#1354,1.);
#854=VECTOR('',#1355,1.);
#855=VECTOR('',#1356,1.);
#856=VECTOR('',#1357,1.);
#857=VECTOR('',#1358,1.);
#858=VECTOR('',#1361,1.);
#859=VECTOR('',#1362,1.);
#860=VECTOR('',#1363,1.);
#861=VECTOR('',#1366,1.);
#862=VECTOR('',#1367,1.);
#863=VECTOR('',#1368,1.);
#864=VECTOR('',#1371,1.);
#865=VECTOR('',#1372,1.);
#866=VECTOR('',#1373,1.);
#867=VECTOR('',#1376,1.);
#868=VECTOR('',#1377,1.);
#869=VECTOR('',#1378,1.);
#870=VECTOR('',#1381,1.);
#871=VECTOR('',#1382,1.);
#872=VECTOR('',#1383,1.);
#873=VECTOR('',#1386,1.);
#874=VECTOR('',#1387,1.);
#875=VECTOR('',#1388,1.);
#876=VECTOR('',#1427,1.);
#877=VECTOR('',#1428,1.);
#878=VECTOR('',#1431,1.);
#879=VECTOR('',#1432,1.);
#880=VECTOR('',#1435,1.);
#881=VECTOR('',#1436,1.);
#882=VECTOR('',#1439,1.);
#883=VECTOR('',#1440,1.);
#884=VECTOR('',#1443,1.);
#885=VECTOR('',#1444,1.);
#886=VECTOR('',#1447,1.);
#887=VECTOR('',#1448,1.);
#888=VECTOR('',#1451,1.);
#889=VECTOR('',#1452,1.);
#890=VECTOR('',#1459,1.);
#891=VECTOR('',#1460,1.);
#892=VECTOR('',#1467,1.);
#893=VECTOR('',#1468,1.);
#894=VECTOR('',#1475,1.);
#895=VECTOR('',#1476,1.);
#896=VECTOR('',#1483,1.);
#897=VECTOR('',#1484,1.);
#898=VECTOR('',#1491,1.);
#899=VECTOR('',#1492,1.);
#900=EDGE_LOOP('',(#90,#91,#92,#93,#94,#95,#96,#97,#98,#99,#100,#101,#102,
#103,#104,#105,#106,#107,#108,#109,#110,#111,#112,#113));
#901=EDGE_LOOP('',(#114,#115,#116,#117,#118,#119,#120,#121,#122,#123,#124,
#125,#126,#127,#128,#129,#130,#131,#132,#133,#134,#135,#136,#137));
#902=EDGE_LOOP('',(#138,#139,#140,#141));
#903=EDGE_LOOP('',(#142,#143,#144,#145));
#904=EDGE_LOOP('',(#146,#147,#148,#149));
#905=EDGE_LOOP('',(#150,#151,#152,#153));
#906=EDGE_LOOP('',(#154,#155,#156,#157));
#907=EDGE_LOOP('',(#158,#159,#160,#161));
#908=EDGE_LOOP('',(#162,#163,#164,#165,#166,#167,#168,#169,#170,#171,#172,
#173,#174,#175,#176,#177,#178,#179,#180,#181,#182,#183,#184,#185));
#909=EDGE_LOOP('',(#186,#187,#188,#189,#190,#191,#192,#193,#194,#195,#196,
#197,#198,#199,#200,#201,#202,#203,#204,#205,#206,#207,#208,#209));
#910=EDGE_LOOP('',(#210,#211,#212,#213));
#911=EDGE_LOOP('',(#214,#215,#216,#217));
#912=EDGE_LOOP('',(#218,#219,#220,#221));
#913=EDGE_LOOP('',(#222,#223,#224,#225));
#914=EDGE_LOOP('',(#226,#227,#228,#229));
#915=EDGE_LOOP('',(#230,#231,#232,#233));
#916=EDGE_LOOP('',(#234,#235,#236,#237));
#917=EDGE_LOOP('',(#238,#239,#240,#241));
#918=EDGE_LOOP('',(#242,#243,#244,#245));
#919=EDGE_LOOP('',(#246,#247,#248,#249));
#920=EDGE_LOOP('',(#250,#251,#252,#253));
#921=EDGE_LOOP('',(#254,#255,#256,#257));
#922=EDGE_LOOP('',(#258,#259,#260,#261));
#923=EDGE_LOOP('',(#262,#263,#264,#265));
#924=EDGE_LOOP('',(#266,#267,#268,#269));
#925=EDGE_LOOP('',(#270,#271,#272,#273));
#926=EDGE_LOOP('',(#274,#275,#276,#277));
#927=EDGE_LOOP('',(#278,#279,#280,#281));
#928=EDGE_LOOP('',(#282,#283,#284,#285));
#929=EDGE_LOOP('',(#286,#287,#288,#289));
#930=EDGE_LOOP('',(#290,#291,#292,#293));
#931=EDGE_LOOP('',(#294,#295,#296,#297));
#932=EDGE_LOOP('',(#298,#299,#300,#301));
#933=EDGE_LOOP('',(#302,#303,#304,#305));
#934=EDGE_LOOP('',(#306,#307,#308,#309));
#935=EDGE_LOOP('',(#310,#311,#312,#313));
#936=EDGE_LOOP('',(#314,#315,#316,#317));
#937=EDGE_LOOP('',(#318,#319,#320,#321));
#938=EDGE_LOOP('',(#322,#323,#324,#325));
#939=EDGE_LOOP('',(#326,#327,#328,#329));
#940=EDGE_LOOP('',(#330,#331,#332,#333,#334));
#941=EDGE_LOOP('',(#335,#336,#337,#338,#339));
#942=EDGE_LOOP('',(#340,#341,#342,#343));
#943=EDGE_LOOP('',(#344,#345,#346,#347,#348));
#944=EDGE_LOOP('',(#349,#350,#351,#352,#353));
#945=EDGE_LOOP('',(#354,#355,#356,#357));
#946=EDGE_LOOP('',(#358,#359,#360,#361,#362));
#947=EDGE_LOOP('',(#363,#364,#365,#366,#367));
#948=EDGE_LOOP('',(#368,#369,#370,#371));
#949=EDGE_LOOP('',(#372,#373,#374,#375,#376));
#950=EDGE_LOOP('',(#377,#378,#379,#380,#381));
#951=EDGE_LOOP('',(#382,#383,#384,#385));
#952=EDGE_LOOP('',(#386,#387,#388,#389,#390));
#953=EDGE_LOOP('',(#391,#392,#393,#394,#395));
#954=EDGE_LOOP('',(#396,#397,#398,#399));
#955=EDGE_LOOP('',(#400,#401,#402,#403));
#956=EDGE_LOOP('',(#404,#405,#406,#407,#408));
#957=EDGE_LOOP('',(#409,#410,#411,#412,#413));
#958=FACE_BOUND('',#900,.T.);
#959=FACE_BOUND('',#901,.T.);
#960=FACE_BOUND('',#902,.T.);
#961=FACE_BOUND('',#903,.T.);
#962=FACE_BOUND('',#904,.T.);
#963=FACE_BOUND('',#905,.T.);
#964=FACE_BOUND('',#906,.T.);
#965=FACE_BOUND('',#907,.T.);
#966=FACE_BOUND('',#908,.T.);
#967=FACE_BOUND('',#909,.T.);
#968=FACE_BOUND('',#910,.T.);
#969=FACE_BOUND('',#911,.T.);
#970=FACE_BOUND('',#912,.T.);
#971=FACE_BOUND('',#913,.T.);
#972=FACE_BOUND('',#914,.T.);
#973=FACE_BOUND('',#915,.T.);
#974=FACE_BOUND('',#916,.T.);
#975=FACE_BOUND('',#917,.T.);
#976=FACE_BOUND('',#918,.T.);
#977=FACE_BOUND('',#919,.T.);
#978=FACE_BOUND('',#920,.T.);
#979=FACE_BOUND('',#921,.T.);
#980=FACE_BOUND('',#922,.T.);
#981=FACE_BOUND('',#923,.T.);
#982=FACE_BOUND('',#924,.T.);
#983=FACE_BOUND('',#925,.T.);
#984=FACE_BOUND('',#926,.T.);
#985=FACE_BOUND('',#927,.T.);
#986=FACE_BOUND('',#928,.T.);
#987=FACE_BOUND('',#929,.T.);
#988=FACE_BOUND('',#930,.T.);
#989=FACE_BOUND('',#931,.T.);
#990=FACE_BOUND('',#932,.T.);
#991=FACE_BOUND('',#933,.T.);
#992=FACE_BOUND('',#934,.T.);
#993=FACE_BOUND('',#935,.T.);
#994=FACE_BOUND('',#936,.T.);
#995=FACE_BOUND('',#937,.T.);
#996=FACE_BOUND('',#938,.T.);
#997=FACE_BOUND('',#939,.T.);
#998=FACE_BOUND('',#940,.T.);
#999=FACE_BOUND('',#941,.T.);
#1000=FACE_BOUND('',#942,.T.);
#1001=FACE_BOUND('',#943,.T.);
#1002=FACE_BOUND('',#944,.T.);
#1003=FACE_BOUND('',#945,.T.);
#1004=FACE_BOUND('',#946,.T.);
#1005=FACE_BOUND('',#947,.T.);
#1006=FACE_BOUND('',#948,.T.);
#1007=FACE_BOUND('',#949,.T.);
#1008=FACE_BOUND('',#950,.T.);
#1009=FACE_BOUND('',#951,.T.);
#1010=FACE_BOUND('',#952,.T.);
#1011=FACE_BOUND('',#953,.T.);
#1012=FACE_BOUND('',#954,.T.);
#1013=FACE_BOUND('',#955,.T.);
#1014=FACE_BOUND('',#956,.T.);
#1015=FACE_BOUND('',#957,.T.);
#1016=PLANE('',#1117);
#1017=PLANE('',#1148);
#1018=PLANE('',#1179);
#1019=PLANE('',#1180);
#1020=PLANE('',#1181);
#1021=PLANE('',#1182);
#1022=PLANE('',#1183);
#1023=PLANE('',#1184);
#1024=PLANE('',#1185);
#1025=PLANE('',#1186);
#1026=PLANE('',#1187);
#1027=PLANE('',#1188);
#1028=PLANE('',#1189);
#1029=PLANE('',#1190);
#1030=PLANE('',#1191);
#1031=PLANE('',#1192);
#1032=PLANE('',#1193);
#1033=PLANE('',#1194);
#1034=PLANE('',#1195);
#1035=PLANE('',#1196);
#1036=PLANE('',#1197);
#1037=PLANE('',#1199);
#1038=PLANE('',#1202);
#1039=PLANE('',#1204);
#1040=PLANE('',#1207);
#1041=PLANE('',#1209);
#1042=PLANE('',#1212);
#1043=PLANE('',#1214);
#1044=PLANE('',#1217);
#1045=PLANE('',#1219);
#1046=PLANE('',#1225);
#1047=PLANE('',#1226);
#1048=ADVANCED_FACE('',(#958,#959),#1016,.T.);
#1049=ADVANCED_FACE('',(#960),#18,.T.);
#1050=ADVANCED_FACE('',(#961),#19,.T.);
#1051=ADVANCED_FACE('',(#962),#20,.T.);
#1052=ADVANCED_FACE('',(#963),#21,.T.);
#1053=ADVANCED_FACE('',(#964),#22,.T.);
#1054=ADVANCED_FACE('',(#965),#23,.T.);
#1055=ADVANCED_FACE('',(#966,#967),#1017,.F.);
#1056=ADVANCED_FACE('',(#968),#12,.T.);
#1057=ADVANCED_FACE('',(#969),#13,.T.);
#1058=ADVANCED_FACE('',(#970),#14,.T.);
#1059=ADVANCED_FACE('',(#971),#15,.T.);
#1060=ADVANCED_FACE('',(#972),#16,.T.);
#1061=ADVANCED_FACE('',(#973),#17,.T.);
#1062=ADVANCED_FACE('',(#974),#24,.F.);
#1063=ADVANCED_FACE('',(#975),#25,.F.);
#1064=ADVANCED_FACE('',(#976),#26,.F.);
#1065=ADVANCED_FACE('',(#977),#27,.F.);
#1066=ADVANCED_FACE('',(#978),#28,.F.);
#1067=ADVANCED_FACE('',(#979),#29,.F.);
#1068=ADVANCED_FACE('',(#980),#1018,.T.);
#1069=ADVANCED_FACE('',(#981),#1019,.F.);
#1070=ADVANCED_FACE('',(#982),#1020,.T.);
#1071=ADVANCED_FACE('',(#983),#1021,.T.);
#1072=ADVANCED_FACE('',(#984),#1022,.F.);
#1073=ADVANCED_FACE('',(#985),#1023,.T.);
#1074=ADVANCED_FACE('',(#986),#1024,.T.);
#1075=ADVANCED_FACE('',(#987),#1025,.F.);
#1076=ADVANCED_FACE('',(#988),#1026,.T.);
#1077=ADVANCED_FACE('',(#989),#1027,.T.);
#1078=ADVANCED_FACE('',(#990),#1028,.F.);
#1079=ADVANCED_FACE('',(#991),#1029,.T.);
#1080=ADVANCED_FACE('',(#992),#1030,.T.);
#1081=ADVANCED_FACE('',(#993),#1031,.F.);
#1082=ADVANCED_FACE('',(#994),#1032,.T.);
#1083=ADVANCED_FACE('',(#995),#1033,.T.);
#1084=ADVANCED_FACE('',(#996),#1034,.F.);
#1085=ADVANCED_FACE('',(#997),#1035,.T.);
#1086=ADVANCED_FACE('',(#998),#1036,.F.);
#1087=ADVANCED_FACE('',(#999),#1037,.T.);
#1088=ADVANCED_FACE('',(#1000),#30,.T.);
#1089=ADVANCED_FACE('',(#1001),#1038,.T.);
#1090=ADVANCED_FACE('',(#1002),#1039,.T.);
#1091=ADVANCED_FACE('',(#1003),#31,.T.);
#1092=ADVANCED_FACE('',(#1004),#1040,.F.);
#1093=ADVANCED_FACE('',(#1005),#1041,.T.);
#1094=ADVANCED_FACE('',(#1006),#32,.T.);
#1095=ADVANCED_FACE('',(#1007),#1042,.F.);
#1096=ADVANCED_FACE('',(#1008),#1043,.T.);
#1097=ADVANCED_FACE('',(#1009),#33,.T.);
#1098=ADVANCED_FACE('',(#1010),#1044,.F.);
#1099=ADVANCED_FACE('',(#1011),#1045,.T.);
#1100=ADVANCED_FACE('',(#1012),#34,.T.);
#1101=ADVANCED_FACE('',(#1013),#35,.T.);
#1102=ADVANCED_FACE('',(#1014),#1046,.F.);
#1103=ADVANCED_FACE('',(#1015),#1047,.T.);
#1104=CLOSED_SHELL('',(#1048,#1049,#1050,#1051,#1052,#1053,#1054,#1055,
#1056,#1057,#1058,#1059,#1060,#1061,#1062,#1063,#1064,#1065,#1066,#1067,
#1068,#1069,#1070,#1071,#1072,#1073,#1074,#1075,#1076,#1077,#1078,#1079,
#1080,#1081,#1082,#1083,#1084,#1085,#1086,#1087,#1088,#1089,#1090,#1091,
#1092,#1093,#1094,#1095,#1096,#1097,#1098,#1099,#1100,#1101,#1102,#1103));
#1105=STYLED_ITEM('',(#1106),#1113);
#1106=PRESENTATION_STYLE_ASSIGNMENT((#1107));
#1107=SURFACE_STYLE_USAGE(.BOTH.,#1108);
#1108=SURFACE_SIDE_STYLE('',(#1109));
#1109=SURFACE_STYLE_FILL_AREA(#1110);
#1110=FILL_AREA_STYLE('',(#1111));
#1111=FILL_AREA_STYLE_COLOUR('',#1112);
#1112=COLOUR_RGB('',0.231372549019608,0.380392156862745,0.705882352941177);
#1113=MANIFOLD_SOLID_BREP('Nose Ring2',#1104);
#1114=SHAPE_DEFINITION_REPRESENTATION(#1890,#1115);
#1115=SHAPE_REPRESENTATION('Nose Ring2',(#1116),#1885);
#1116=AXIS2_PLACEMENT_3D('',#1557,#1227,#1228);
#1117=AXIS2_PLACEMENT_3D('',#1558,#1229,#1230);
#1118=AXIS2_PLACEMENT_3D('',#1566,#1234,#1235);
#1119=AXIS2_PLACEMENT_3D('',#1574,#1239,#1240);
#1120=AXIS2_PLACEMENT_3D('',#1582,#1244,#1245);
#1121=AXIS2_PLACEMENT_3D('',#1590,#1249,#1250);
#1122=AXIS2_PLACEMENT_3D('',#1598,#1254,#1255);
#1123=AXIS2_PLACEMENT_3D('',#1606,#1259,#1260);
#1124=AXIS2_PLACEMENT_3D('',#1607,#1261,#1262);
#1125=AXIS2_PLACEMENT_3D('',#1616,#1266,#1267);
#1126=AXIS2_PLACEMENT_3D('',#1624,#1271,#1272);
#1127=AXIS2_PLACEMENT_3D('',#1632,#1276,#1277);
#1128=AXIS2_PLACEMENT_3D('',#1640,#1281,#1282);
#1129=AXIS2_PLACEMENT_3D('',#1648,#1286,#1287);
#1130=AXIS2_PLACEMENT_3D('',#1655,#1291,#1292);
#1131=AXIS2_PLACEMENT_3D('',#1659,#1294,#1295);
#1132=AXIS2_PLACEMENT_3D('',#1663,#1297,#1298);
#1133=AXIS2_PLACEMENT_3D('',#1664,#1299,#1300);
#1134=AXIS2_PLACEMENT_3D('',#1668,#1302,#1303);
#1135=AXIS2_PLACEMENT_3D('',#1672,#1305,#1306);
#1136=AXIS2_PLACEMENT_3D('',#1673,#1307,#1308);
#1137=AXIS2_PLACEMENT_3D('',#1677,#1310,#1311);
#1138=AXIS2_PLACEMENT_3D('',#1681,#1313,#1314);
#1139=AXIS2_PLACEMENT_3D('',#1682,#1315,#1316);
#1140=AXIS2_PLACEMENT_3D('',#1686,#1318,#1319);
#1141=AXIS2_PLACEMENT_3D('',#1690,#1321,#1322);
#1142=AXIS2_PLACEMENT_3D('',#1691,#1323,#1324);
#1143=AXIS2_PLACEMENT_3D('',#1695,#1326,#1327);
#1144=AXIS2_PLACEMENT_3D('',#1699,#1329,#1330);
#1145=AXIS2_PLACEMENT_3D('',#1700,#1331,#1332);
#1146=AXIS2_PLACEMENT_3D('',#1701,#1333,#1334);
#1147=AXIS2_PLACEMENT_3D('',#1706,#1336,#1337);
#1148=AXIS2_PLACEMENT_3D('',#1709,#1339,#1340);
#1149=AXIS2_PLACEMENT_3D('',#1740,#1359,#1360);
#1150=AXIS2_PLACEMENT_3D('',#1749,#1364,#1365);
#1151=AXIS2_PLACEMENT_3D('',#1757,#1369,#1370);
#1152=AXIS2_PLACEMENT_3D('',#1765,#1374,#1375);
#1153=AXIS2_PLACEMENT_3D('',#1773,#1379,#1380);
#1154=AXIS2_PLACEMENT_3D('',#1781,#1384,#1385);
#1155=AXIS2_PLACEMENT_3D('',#1788,#1389,#1390);
#1156=AXIS2_PLACEMENT_3D('',#1789,#1391,#1392);
#1157=AXIS2_PLACEMENT_3D('',#1790,#1393,#1394);
#1158=AXIS2_PLACEMENT_3D('',#1791,#1395,#1396);
#1159=AXIS2_PLACEMENT_3D('',#1792,#1397,#1398);
#1160=AXIS2_PLACEMENT_3D('',#1793,#1399,#1400);
#1161=AXIS2_PLACEMENT_3D('',#1794,#1401,#1402);
#1162=AXIS2_PLACEMENT_3D('',#1795,#1403,#1404);
#1163=AXIS2_PLACEMENT_3D('',#1796,#1405,#1406);
#1164=AXIS2_PLACEMENT_3D('',#1797,#1407,#1408);
#1165=AXIS2_PLACEMENT_3D('',#1798,#1409,#1410);
#1166=AXIS2_PLACEMENT_3D('',#1799,#1411,#1412);
#1167=AXIS2_PLACEMENT_3D('',#1800,#1413,#1414);
#1168=AXIS2_PLACEMENT_3D('',#1801,#1415,#1416);
#1169=AXIS2_PLACEMENT_3D('',#1802,#1417,#1418);
#1170=AXIS2_PLACEMENT_3D('',#1803,#1419,#1420);
#1171=AXIS2_PLACEMENT_3D('',#1804,#1421,#1422);
#1172=AXIS2_PLACEMENT_3D('',#1805,#1423,#1424);
#1173=AXIS2_PLACEMENT_3D('',#1806,#1425,#1426);
#1174=AXIS2_PLACEMENT_3D('',#1809,#1429,#1430);
#1175=AXIS2_PLACEMENT_3D('',#1812,#1433,#1434);
#1176=AXIS2_PLACEMENT_3D('',#1815,#1437,#1438);
#1177=AXIS2_PLACEMENT_3D('',#1818,#1441,#1442);
#1178=AXIS2_PLACEMENT_3D('',#1821,#1445,#1446);
#1179=AXIS2_PLACEMENT_3D('',#1824,#1449,#1450);
#1180=AXIS2_PLACEMENT_3D('',#1827,#1453,#1454);
#1181=AXIS2_PLACEMENT_3D('',#1828,#1455,#1456);
#1182=AXIS2_PLACEMENT_3D('',#1829,#1457,#1458);
#1183=AXIS2_PLACEMENT_3D('',#1832,#1461,#1462);
#1184=AXIS2_PLACEMENT_3D('',#1833,#1463,#1464);
#1185=AXIS2_PLACEMENT_3D('',#1834,#1465,#1466);
#1186=AXIS2_PLACEMENT_3D('',#1837,#1469,#1470);
#1187=AXIS2_PLACEMENT_3D('',#1838,#1471,#1472);
#1188=AXIS2_PLACEMENT_3D('',#1839,#1473,#1474);
#1189=AXIS2_PLACEMENT_3D('',#1842,#1477,#1478);
#1190=AXIS2_PLACEMENT_3D('',#1843,#1479,#1480);
#1191=AXIS2_PLACEMENT_3D('',#1844,#1481,#1482);
#1192=AXIS2_PLACEMENT_3D('',#1847,#1485,#1486);
#1193=AXIS2_PLACEMENT_3D('',#1848,#1487,#1488);
#1194=AXIS2_PLACEMENT_3D('',#1849,#1489,#1490);
#1195=AXIS2_PLACEMENT_3D('',#1852,#1493,#1494);
#1196=AXIS2_PLACEMENT_3D('',#1853,#1495,#1496);
#1197=AXIS2_PLACEMENT_3D('',#1854,#1497,#1498);
#1198=AXIS2_PLACEMENT_3D('',#1855,#1499,#1500);
#1199=AXIS2_PLACEMENT_3D('',#1856,#1501,#1502);
#1200=AXIS2_PLACEMENT_3D('',#1857,#1503,#1504);
#1201=AXIS2_PLACEMENT_3D('',#1858,#1505,#1506);
#1202=AXIS2_PLACEMENT_3D('',#1859,#1507,#1508);
#1203=AXIS2_PLACEMENT_3D('',#1860,#1509,#1510);
#1204=AXIS2_PLACEMENT_3D('',#1861,#1511,#1512);
#1205=AXIS2_PLACEMENT_3D('',#1862,#1513,#1514);
#1206=AXIS2_PLACEMENT_3D('',#1863,#1515,#1516);
#1207=AXIS2_PLACEMENT_3D('',#1864,#1517,#1518);
#1208=AXIS2_PLACEMENT_3D('',#1865,#1519,#1520);
#1209=AXIS2_PLACEMENT_3D('',#1866,#1521,#1522);
#1210=AXIS2_PLACEMENT_3D('',#1867,#1523,#1524);
#1211=AXIS2_PLACEMENT_3D('',#1868,#1525,#1526);
#1212=AXIS2_PLACEMENT_3D('',#1869,#1527,#1528);
#1213=AXIS2_PLACEMENT_3D('',#1870,#1529,#1530);
#1214=AXIS2_PLACEMENT_3D('',#1871,#1531,#1532);
#1215=AXIS2_PLACEMENT_3D('',#1872,#1533,#1534);
#1216=AXIS2_PLACEMENT_3D('',#1873,#1535,#1536);
#1217=AXIS2_PLACEMENT_3D('',#1874,#1537,#1538);
#1218=AXIS2_PLACEMENT_3D('',#1875,#1539,#1540);
#1219=AXIS2_PLACEMENT_3D('',#1876,#1541,#1542);
#1220=AXIS2_PLACEMENT_3D('',#1877,#1543,#1544);
#1221=AXIS2_PLACEMENT_3D('',#1878,#1545,#1546);
#1222=AXIS2_PLACEMENT_3D('',#1879,#1547,#1548);
#1223=AXIS2_PLACEMENT_3D('',#1880,#1549,#1550);
#1224=AXIS2_PLACEMENT_3D('',#1881,#1551,#1552);
#1225=AXIS2_PLACEMENT_3D('',#1882,#1553,#1554);
#1226=AXIS2_PLACEMENT_3D('',#1883,#1555,#1556);
#1227=DIRECTION('',(0.,0.,1.));
#1228=DIRECTION('',(1.,0.,0.));
#1229=DIRECTION('',(0.,-1.,0.));
#1230=DIRECTION('',(1.,0.,0.));
#1231=DIRECTION('',(0.,0.,1.));
#1232=DIRECTION('',(-1.,0.,0.));
#1233=DIRECTION('',(0.,0.,1.));
#1234=DIRECTION('',(0.,-1.,0.));
#1235=DIRECTION('',(0.,0.,-1.));
#1236=DIRECTION('',(-0.866025403784439,0.,0.5));
#1237=DIRECTION('',(-0.5,-1.04108905263127E-15,-0.866025403784439));
#1238=DIRECTION('',(-0.866025403784439,0.,0.5));
#1239=DIRECTION('',(0.,-1.,0.));
#1240=DIRECTION('',(0.,0.,-1.));
#1241=DIRECTION('',(0.866025403784439,0.,0.5));
#1242=DIRECTION('',(-0.5,1.04108905263127E-15,0.866025403784439));
#1243=DIRECTION('',(-0.866025403784438,0.,-0.5));
#1244=DIRECTION('',(0.,-1.,0.));
#1245=DIRECTION('',(0.,0.,-1.));
#1246=DIRECTION('',(1.22464679914735E-16,0.,-1.));
#1247=DIRECTION('',(1.,1.47220436070439E-31,1.22464679914735E-16));
#1248=DIRECTION('',(1.22464679914735E-16,0.,-1.));
#1249=DIRECTION('',(0.,-1.,0.));
#1250=DIRECTION('',(0.,0.,-1.));
#1251=DIRECTION('',(0.866025403784439,0.,-0.5));
#1252=DIRECTION('',(0.5,1.04108905263127E-15,0.866025403784439));
#1253=DIRECTION('',(0.866025403784439,0.,-0.5));
#1254=DIRECTION('',(0.,-1.,0.));
#1255=DIRECTION('',(0.,0.,-1.));
#1256=DIRECTION('',(0.866025403784439,0.,0.5));
#1257=DIRECTION('',(-0.5,1.04108905263127E-15,0.866025403784439));
#1258=DIRECTION('',(0.866025403784439,0.,0.5));
#1259=DIRECTION('',(0.,-1.,0.));
#1260=DIRECTION('',(0.,0.,-1.));
#1261=DIRECTION('',(0.,-1.,0.));
#1262=DIRECTION('',(0.,0.,-1.));
#1263=DIRECTION('',(0.851826232858632,-1.25942706187869E-15,-0.523824463932214));
#1264=DIRECTION('',(1.,1.47220436070439E-31,1.22464679914735E-16));
#1265=DIRECTION('',(-0.851826232858632,-1.25942706187869E-15,-0.523824463932215));
#1266=DIRECTION('',(0.,-1.,0.));
#1267=DIRECTION('',(0.,0.,-1.));
#1268=DIRECTION('',(-0.0277321764597462,-1.83139726218227E-15,-0.999615389231681));
#1269=DIRECTION('',(0.5,-1.04108905263127E-15,-0.866025403784438));
#1270=DIRECTION('',(-0.879558409318379,-5.77433306357632E-17,0.475790925299466));
#1271=DIRECTION('',(0.,-1.,0.));
#1272=DIRECTION('',(0.,0.,-1.));
#1273=DIRECTION('',(-0.879558409318379,-1.20168373124293E-15,-0.475790925299468));
#1274=DIRECTION('',(-0.5,-1.04108905263127E-15,-0.866025403784439));
#1275=DIRECTION('',(-0.0277321764597479,5.71970200303583E-16,0.999615389231681));
#1276=DIRECTION('',(0.,-1.,0.));
#1277=DIRECTION('',(0.,0.,-1.));
#1278=DIRECTION('',(-0.851826232858632,0.,0.523824463932214));
#1279=DIRECTION('',(-1.,0.,0.));
#1280=DIRECTION('',(0.851826232858632,0.,0.523824463932215));
#1281=DIRECTION('',(0.,-1.,0.));
#1282=DIRECTION('',(0.,0.,-1.));
#1283=DIRECTION('',(0.0277321764597466,5.71970200303583E-16,0.999615389231681));
#1284=DIRECTION('',(-0.5,1.04108905263127E-15,0.866025403784439));
#1285=DIRECTION('',(0.879558409318379,-1.20168373124293E-15,-0.475790925299467));
#1286=DIRECTION('',(0.,-1.,0.));
#1287=DIRECTION('',(0.,0.,-1.));
#1288=DIRECTION('',(0.879558409318379,-5.77433306357614E-17,0.475790925299467));
#1289=DIRECTION('',(0.5,1.04108905263127E-15,0.866025403784439));
#1290=DIRECTION('',(0.0277321764597474,-1.83139726218228E-15,-0.999615389231681));
#1291=DIRECTION('',(0.,1.,0.));
#1292=DIRECTION('',(0.,0.,1.));
#1293=DIRECTION('',(0.,1.,0.));
#1294=DIRECTION('',(0.,-1.,0.));
#1295=DIRECTION('',(0.,0.,-1.));
#1296=DIRECTION('',(0.,1.,0.));
#1297=DIRECTION('',(0.,1.,0.));
#1298=DIRECTION('',(0.,0.,1.));
#1299=DIRECTION('',(0.,1.,0.));
#1300=DIRECTION('',(0.,0.,1.));
#1301=DIRECTION('',(0.,1.,0.));
#1302=DIRECTION('',(0.,-1.,0.));
#1303=DIRECTION('',(0.,0.,-1.));
#1304=DIRECTION('',(0.,1.,0.));
#1305=DIRECTION('',(0.,1.,0.));
#1306=DIRECTION('',(0.,0.,1.));
#1307=DIRECTION('',(0.,1.,0.));
#1308=DIRECTION('',(0.,0.,1.));
#1309=DIRECTION('',(0.,1.,0.));
#1310=DIRECTION('',(0.,-1.,0.));
#1311=DIRECTION('',(0.,0.,-1.));
#1312=DIRECTION('',(0.,1.,0.));
#1313=DIRECTION('',(0.,1.,0.));
#1314=DIRECTION('',(0.,0.,1.));
#1315=DIRECTION('',(0.,1.,0.));
#1316=DIRECTION('',(0.,0.,1.));
#1317=DIRECTION('',(0.,1.,0.));
#1318=DIRECTION('',(0.,-1.,0.));
#1319=DIRECTION('',(0.,0.,-1.));
#1320=DIRECTION('',(0.,1.,0.));
#1321=DIRECTION('',(0.,1.,0.));
#1322=DIRECTION('',(0.,0.,1.));
#1323=DIRECTION('',(0.,1.,0.));
#1324=DIRECTION('',(0.,0.,1.));
#1325=DIRECTION('',(0.,1.,0.));
#1326=DIRECTION('',(0.,-1.,0.));
#1327=DIRECTION('',(0.,0.,-1.));
#1328=DIRECTION('',(0.,1.,0.));
#1329=DIRECTION('',(0.,1.,0.));
#1330=DIRECTION('',(0.,0.,1.));
#1331=DIRECTION('',(0.,1.,0.));
#1332=DIRECTION('',(0.,0.,1.));
#1333=DIRECTION('',(0.,-1.,0.));
#1334=DIRECTION('',(0.,0.,-1.));
#1335=DIRECTION('',(0.,1.,0.));
#1336=DIRECTION('',(0.,1.,0.));
#1337=DIRECTION('',(0.,0.,1.));
#1338=DIRECTION('',(0.,1.,0.));
#1339=DIRECTION('',(0.,-1.,0.));
#1340=DIRECTION('',(1.,0.,0.));
#1341=DIRECTION('',(-1.,0.,0.));
#1342=DIRECTION('',(0.,0.,1.));
#1343=DIRECTION('',(0.866025403784439,0.,0.5));
#1344=DIRECTION('',(-0.5,1.04108905263127E-15,0.866025403784439));
#1345=DIRECTION('',(0.866025403784439,0.,0.5));
#1346=DIRECTION('',(0.866025403784439,0.,-0.5));
#1347=DIRECTION('',(0.5,1.04108905263127E-15,0.866025403784439));
#1348=DIRECTION('',(0.866025403784439,0.,-0.5));
#1349=DIRECTION('',(1.22464679914735E-16,0.,-1.));
#1350=DIRECTION('',(1.,1.47220436070439E-31,1.22464679914735E-16));
#1351=DIRECTION('',(1.22464679914735E-16,0.,-1.));
#1352=DIRECTION('',(-0.866025403784438,0.,-0.5));
#1353=DIRECTION('',(-0.5,1.04108905263127E-15,0.866025403784439));
#1354=DIRECTION('',(0.866025403784439,0.,0.5));
#1355=DIRECTION('',(-0.866025403784439,0.,0.5));
#1356=DIRECTION('',(-0.5,-1.04108905263127E-15,-0.866025403784439));
#1357=DIRECTION('',(-0.866025403784439,0.,0.5));
#1358=DIRECTION('',(0.,0.,1.));
#1359=DIRECTION('',(0.,-1.,0.));
#1360=DIRECTION('',(0.,0.,-1.));
#1361=DIRECTION('',(0.0277321764597474,-1.83139726218228E-15,-0.999615389231681));
#1362=DIRECTION('',(0.5,1.04108905263127E-15,0.866025403784439));
#1363=DIRECTION('',(0.879558409318379,-5.77433306357614E-17,0.475790925299467));
#1364=DIRECTION('',(0.,-1.,0.));
#1365=DIRECTION('',(0.,0.,-1.));
#1366=DIRECTION('',(0.879558409318379,-1.20168373124293E-15,-0.475790925299467));
#1367=DIRECTION('',(-0.5,1.04108905263127E-15,0.866025403784439));
#1368=DIRECTION('',(0.0277321764597466,5.71970200303583E-16,0.999615389231681));
#1369=DIRECTION('',(0.,-1.,0.));
#1370=DIRECTION('',(0.,0.,-1.));
#1371=DIRECTION('',(0.851826232858632,0.,0.523824463932215));
#1372=DIRECTION('',(-1.,0.,0.));
#1373=DIRECTION('',(-0.851826232858632,0.,0.523824463932214));
#1374=DIRECTION('',(0.,-1.,0.));
#1375=DIRECTION('',(0.,0.,-1.));
#1376=DIRECTION('',(-0.0277321764597479,5.71970200303583E-16,0.999615389231681));
#1377=DIRECTION('',(-0.5,-1.04108905263127E-15,-0.866025403784439));
#1378=DIRECTION('',(-0.879558409318379,-1.20168373124293E-15,-0.475790925299468));
#1379=DIRECTION('',(0.,-1.,0.));
#1380=DIRECTION('',(0.,0.,-1.));
#1381=DIRECTION('',(-0.879558409318379,-5.77433306357632E-17,0.475790925299466));
#1382=DIRECTION('',(0.5,-1.04108905263127E-15,-0.866025403784438));
#1383=DIRECTION('',(-0.0277321764597462,-1.83139726218227E-15,-0.999615389231681));
#1384=DIRECTION('',(0.,-1.,0.));
#1385=DIRECTION('',(0.,0.,-1.));
#1386=DIRECTION('',(-0.851826232858632,-1.25942706187869E-15,-0.523824463932215));
#1387=DIRECTION('',(1.,1.47220436070439E-31,1.22464679914735E-16));
#1388=DIRECTION('',(0.851826232858632,-1.25942706187869E-15,-0.523824463932214));
#1389=DIRECTION('',(0.,-1.,1.20214608957407E-15));
#1390=DIRECTION('',(0.,1.20214608957407E-15,1.));
#1391=DIRECTION('',(1.,0.,0.));
#1392=DIRECTION('',(0.,0.,-1.));
#1393=DIRECTION('',(0.5,1.04108905263127E-15,0.866025403784439));
#1394=DIRECTION('',(0.866025403784439,0.,-0.5));
#1395=DIRECTION('',(0.,-1.,1.20214608957407E-15));
#1396=DIRECTION('',(0.,1.20214608957407E-15,1.));
#1397=DIRECTION('',(0.5,1.04108905263127E-15,0.866025403784439));
#1398=DIRECTION('',(0.866025403784439,0.,-0.5));
#1399=DIRECTION('',(0.5,-1.04108905263127E-15,-0.866025403784439));
#1400=DIRECTION('',(-0.866025403784439,0.,-0.5));
#1401=DIRECTION('',(0.,-1.,1.20214608957407E-15));
#1402=DIRECTION('',(0.,1.20214608957407E-15,1.));
#1403=DIRECTION('',(-0.5,1.04108905263127E-15,0.866025403784438));
#1404=DIRECTION('',(0.866025403784438,0.,0.5));
#1405=DIRECTION('',(-1.,-1.47220436070439E-31,-1.22464679914735E-16));
#1406=DIRECTION('',(-1.22464679914735E-16,0.,1.));
#1407=DIRECTION('',(0.,-1.,1.20214608957407E-15));
#1408=DIRECTION('',(0.,1.20214608957407E-15,1.));
#1409=DIRECTION('',(-1.,-1.47220436070439E-31,-1.22464679914735E-16));
#1410=DIRECTION('',(-1.22464679914735E-16,0.,1.));
#1411=DIRECTION('',(-0.5,-1.04108905263127E-15,-0.866025403784439));
#1412=DIRECTION('',(-0.866025403784439,0.,0.5));
#1413=DIRECTION('',(0.,-1.,1.20214608957407E-15));
#1414=DIRECTION('',(0.,1.20214608957407E-15,1.));
#1415=DIRECTION('',(-0.5,-1.04108905263127E-15,-0.866025403784439));
#1416=DIRECTION('',(-0.866025403784439,0.,0.5));
#1417=DIRECTION('',(0.5,-1.04108905263127E-15,-0.866025403784439));
#1418=DIRECTION('',(-0.866025403784439,0.,-0.5));
#1419=DIRECTION('',(0.,-1.,1.20214608957407E-15));
#1420=DIRECTION('',(0.,1.20214608957407E-15,1.));
#1421=DIRECTION('',(1.,0.,0.));
#1422=DIRECTION('',(0.,0.,-1.));
#1423=DIRECTION('',(0.5,-1.04108905263127E-15,-0.866025403784439));
#1424=DIRECTION('',(-0.866025403784439,0.,-0.5));
#1425=DIRECTION('',(0.,1.,0.));
#1426=DIRECTION('',(0.,0.,1.));
#1427=DIRECTION('',(0.,1.,0.));
#1428=DIRECTION('',(1.04108905263127E-15,1.,-6.01073044787035E-16));
#1429=DIRECTION('',(0.,1.,0.));
#1430=DIRECTION('',(0.,0.,1.));
#1431=DIRECTION('',(0.,1.,0.));
#1432=DIRECTION('',(-1.04108905263127E-15,1.,-6.01073044787036E-16));
#1433=DIRECTION('',(0.,1.,0.));
#1434=DIRECTION('',(0.,0.,1.));
#1435=DIRECTION('',(-1.04108905263127E-15,1.,-6.01073044787036E-16));
#1436=DIRECTION('',(-1.04108905263127E-15,1.,-1.80321913436111E-15));
#1437=DIRECTION('',(0.,1.,0.));
#1438=DIRECTION('',(0.,0.,1.));
#1439=DIRECTION('',(-1.04108905263127E-15,1.,-1.80321913436111E-15));
#1440=DIRECTION('',(1.47220436070439E-31,1.,-2.40429217914814E-15));
#1441=DIRECTION('',(0.,1.,0.));
#1442=DIRECTION('',(0.,0.,1.));
#1443=DIRECTION('',(1.47220436070439E-31,1.,-2.40429217914814E-15));
#1444=DIRECTION('',(1.04108905263127E-15,1.,-1.80321913436111E-15));
#1445=DIRECTION('',(0.,1.,0.));
#1446=DIRECTION('',(0.,0.,1.));
#1447=DIRECTION('',(1.04108905263127E-15,1.,-1.80321913436111E-15));
#1448=DIRECTION('',(1.04108905263127E-15,1.,-6.01073044787035E-16));
#1449=DIRECTION('',(-0.866025403784439,6.01073044787035E-16,-0.5));
#1450=DIRECTION('',(-0.5,1.04108905263127E-15,0.866025403784439));
#1451=DIRECTION('',(1.04108905263127E-15,1.,-6.01073044787035E-16));
#1452=DIRECTION('',(1.04108905263127E-15,1.,-6.01073044787035E-16));
#1453=DIRECTION('',(0.475790925299467,3.33381274864632E-17,0.879558409318379));
#1454=DIRECTION('',(0.879558409318379,-1.20168373124293E-15,-0.475790925299467));
#1455=DIRECTION('',(-0.999615389231681,1.05735770231408E-15,0.0277321764597465));
#1456=DIRECTION('',(0.0277321764597465,5.71970200303583E-16,0.999615389231681));
#1457=DIRECTION('',(-0.866025403784439,1.80321913436111E-15,0.5));
#1458=DIRECTION('',(0.5,1.04108905263127E-15,0.866025403784439));
#1459=DIRECTION('',(1.04108905263127E-15,1.,-1.80321913436111E-15));
#1460=DIRECTION('',(1.04108905263127E-15,1.,-1.80321913436111E-15));
#1461=DIRECTION('',(0.999615389231681,-9.90681447341152E-16,0.0277321764597474));
#1462=DIRECTION('',(0.0277321764597474,-1.83139726218228E-15,-0.999615389231681));
#1463=DIRECTION('',(-0.475790925299467,2.0813772771417E-15,0.879558409318379));
#1464=DIRECTION('',(0.879558409318379,-5.77433306357613E-17,0.475790925299467));
#1465=DIRECTION('',(-1.22464679914735E-16,2.40429217914814E-15,1.));
#1466=DIRECTION('',(1.,1.47220436070439E-31,1.22464679914735E-16));
#1467=DIRECTION('',(1.47220436070439E-31,1.,-2.40429217914814E-15));
#1468=DIRECTION('',(1.47220436070439E-31,1.,-2.40429217914814E-15));
#1469=DIRECTION('',(0.523824463932215,-2.04803914965523E-15,-0.851826232858632));
#1470=DIRECTION('',(-0.851826232858632,-1.25942706187869E-15,-0.523824463932215));
#1471=DIRECTION('',(0.523824463932214,2.04803914965523E-15,0.851826232858632));
#1472=DIRECTION('',(0.851826232858632,-1.25942706187869E-15,-0.523824463932214));
#1473=DIRECTION('',(0.866025403784438,1.80321913436111E-15,0.5));
#1474=DIRECTION('',(0.5,-1.04108905263127E-15,-0.866025403784438));
#1475=DIRECTION('',(-1.04108905263127E-15,1.,-1.80321913436111E-15));
#1476=DIRECTION('',(-1.04108905263127E-15,1.,-1.80321913436111E-15));
#1477=DIRECTION('',(-0.475790925299466,-2.0813772771417E-15,-0.879558409318379));
#1478=DIRECTION('',(-0.879558409318379,-5.77433306357632E-17,0.475790925299466));
#1479=DIRECTION('',(0.999615389231681,9.90681447341154E-16,-0.0277321764597461));
#1480=DIRECTION('',(-0.0277321764597461,-1.83139726218227E-15,-0.999615389231681));
#1481=DIRECTION('',(0.866025403784439,6.01073044787036E-16,-0.5));
#1482=DIRECTION('',(-0.5,-1.04108905263127E-15,-0.866025403784439));
#1483=DIRECTION('',(-1.04108905263127E-15,1.,-6.01073044787036E-16));
#1484=DIRECTION('',(-1.04108905263127E-15,1.,-6.01073044787036E-16));
#1485=DIRECTION('',(-0.999615389231681,-1.05735770231408E-15,-0.0277321764597479));
#1486=DIRECTION('',(-0.0277321764597479,5.71970200303583E-16,0.999615389231681));
#1487=DIRECTION('',(0.475790925299468,-3.33381274864621E-17,-0.879558409318379));
#1488=DIRECTION('',(-0.879558409318379,-1.20168373124293E-15,-0.475790925299468));
#1489=DIRECTION('',(0.,0.,-1.));
#1490=DIRECTION('',(-1.,0.,0.));
#1491=DIRECTION('',(0.,1.,0.));
#1492=DIRECTION('',(0.,1.,0.));
#1493=DIRECTION('',(-0.523824463932215,0.,0.851826232858632));
#1494=DIRECTION('',(0.851826232858632,0.,0.523824463932215));
#1495=DIRECTION('',(-0.523824463932214,0.,-0.851826232858632));
#1496=DIRECTION('',(-0.851826232858632,0.,0.523824463932214));
#1497=DIRECTION('',(0.5,1.04108905263127E-15,0.866025403784439));
#1498=DIRECTION('',(-1.04108905263127E-15,1.,-6.01073044787036E-16));
#1499=DIRECTION('',(0.5,1.04108905263127E-15,0.866025403784439));
#1500=DIRECTION('',(0.866025403784439,6.01073044787036E-16,-0.5));
#1501=DIRECTION('',(0.5,1.04108905263127E-15,0.866025403784439));
#1502=DIRECTION('',(-1.04108905263127E-15,1.,-6.01073044787036E-16));
#1503=DIRECTION('',(0.5,1.04108905263127E-15,0.866025403784439));
#1504=DIRECTION('',(0.866025403784439,6.01073044787036E-16,-0.5));
#1505=DIRECTION('',(-0.5,-1.04108905263127E-15,-0.866025403784439));
#1506=DIRECTION('',(-0.866025403784439,-6.01073044787036E-16,0.5));
#1507=DIRECTION('',(0.5,-1.04108905263127E-15,-0.866025403784439));
#1508=DIRECTION('',(1.04108905263127E-15,1.,-6.01073044787035E-16));
#1509=DIRECTION('',(0.5,-1.04108905263127E-15,-0.866025403784439));
#1510=DIRECTION('',(-0.866025403784439,6.01073044787035E-16,-0.5));
#1511=DIRECTION('',(-0.5,1.04108905263127E-15,0.866025403784438));
#1512=DIRECTION('',(-1.04108905263127E-15,1.,-1.80321913436111E-15));
#1513=DIRECTION('',(-0.5,1.04108905263127E-15,0.866025403784438));
#1514=DIRECTION('',(0.866025403784438,1.80321913436111E-15,0.5));
#1515=DIRECTION('',(-0.5,1.04108905263127E-15,0.866025403784439));
#1516=DIRECTION('',(0.866025403784439,-6.01073044787035E-16,0.5));
#1517=DIRECTION('',(-0.5,-1.04108905263127E-15,-0.866025403784439));
#1518=DIRECTION('',(1.04108905263127E-15,1.,-1.80321913436111E-15));
#1519=DIRECTION('',(-0.5,-1.04108905263127E-15,-0.866025403784439));
#1520=DIRECTION('',(-0.866025403784439,1.80321913436111E-15,0.5));
#1521=DIRECTION('',(-0.5,-1.04108905263127E-15,-0.866025403784439));
#1522=DIRECTION('',(1.04108905263127E-15,1.,-1.80321913436111E-15));
#1523=DIRECTION('',(-0.5,-1.04108905263127E-15,-0.866025403784439));
#1524=DIRECTION('',(-0.866025403784439,1.80321913436111E-15,0.5));
#1525=DIRECTION('',(0.5,1.04108905263127E-15,0.866025403784439));
#1526=DIRECTION('',(0.866025403784439,-1.80321913436111E-15,-0.5));
#1527=DIRECTION('',(0.5,-1.04108905263127E-15,-0.866025403784439));
#1528=DIRECTION('',(1.04108905263127E-15,1.,-6.01073044787035E-16));
#1529=DIRECTION('',(0.5,-1.04108905263127E-15,-0.866025403784439));
#1530=DIRECTION('',(-0.866025403784439,6.01073044787035E-16,-0.5));
#1531=DIRECTION('',(0.5,-1.04108905263127E-15,-0.866025403784439));
#1532=DIRECTION('',(1.04108905263127E-15,1.,-6.01073044787035E-16));
#1533=DIRECTION('',(0.5,-1.04108905263127E-15,-0.866025403784439));
#1534=DIRECTION('',(-0.866025403784439,6.01073044787035E-16,-0.5));
#1535=DIRECTION('',(-0.5,1.04108905263127E-15,0.866025403784439));
#1536=DIRECTION('',(0.866025403784439,-6.01073044787035E-16,0.5));
#1537=DIRECTION('',(-1.,-1.47220436070439E-31,-1.22464679914735E-16));
#1538=DIRECTION('',(1.47220436070439E-31,1.,-2.40429217914814E-15));
#1539=DIRECTION('',(-1.,-1.47220436070439E-31,-1.22464679914735E-16));
#1540=DIRECTION('',(-1.22464679914735E-16,2.40429217914814E-15,1.));
#1541=DIRECTION('',(-1.,-1.47220436070439E-31,-1.22464679914735E-16));
#1542=DIRECTION('',(1.47220436070439E-31,1.,-2.40429217914814E-15));
#1543=DIRECTION('',(-1.,-1.47220436070439E-31,-1.22464679914735E-16));
#1544=DIRECTION('',(-1.22464679914735E-16,2.40429217914814E-15,1.));
#1545=DIRECTION('',(1.,1.47220436070439E-31,1.22464679914735E-16));
#1546=DIRECTION('',(1.22464679914735E-16,-2.40429217914814E-15,-1.));
#1547=DIRECTION('',(-1.,0.,0.));
#1548=DIRECTION('',(0.,0.,1.));
#1549=DIRECTION('',(1.,0.,0.));
#1550=DIRECTION('',(0.,0.,-1.));
#1551=DIRECTION('',(1.,0.,0.));
#1552=DIRECTION('',(0.,0.,-1.));
#1553=DIRECTION('',(1.,0.,0.));
#1554=DIRECTION('',(0.,1.,0.));
#1555=DIRECTION('',(1.,0.,0.));
#1556=DIRECTION('',(0.,1.,0.));
#1557=CARTESIAN_POINT('',(0.,0.,0.));
#1558=CARTESIAN_POINT('',(0.,-0.021,0.));
#1559=CARTESIAN_POINT('',(0.0015,-0.021,0.));
#1560=CARTESIAN_POINT('',(0.0015,-0.021,0.0578035466039931));
#1561=CARTESIAN_POINT('',(0.0015,-0.021,0.0626574815963744));
#1562=CARTESIAN_POINT('',(0.0015,-0.021,0.0578035466039931));
#1563=CARTESIAN_POINT('',(-0.0015,-0.021,0.0578035466039931));
#1564=CARTESIAN_POINT('',(-0.0015,-0.021,0.));
#1565=CARTESIAN_POINT('',(-0.0015,-0.021,0.0626574815963744));
#1566=CARTESIAN_POINT('',(0.,-0.021,-1.09863515750892E-17));
#1567=CARTESIAN_POINT('',(-0.0535129707996162,-0.021,0.0326277789038638));
#1568=CARTESIAN_POINT('',(0.00075000000000001,-0.021,0.00129903810567668));
#1569=CARTESIAN_POINT('',(-0.0493093397878957,-0.021,0.0302008114076732));
#1570=CARTESIAN_POINT('',(-0.0493093397878958,-0.021,0.0302008114076731));
#1571=CARTESIAN_POINT('',(-0.0508093397878957,-0.021,0.0276027351963199));
#1572=CARTESIAN_POINT('',(-0.000749999999999988,-0.021,-0.00129903810567664));
#1573=CARTESIAN_POINT('',(-0.0550129707996162,-0.021,0.0300297026925106));
#1574=CARTESIAN_POINT('',(0.,-0.021,-1.09863515750892E-17));
#1575=CARTESIAN_POINT('',(-0.0550129707996162,-0.021,-0.0300297026925106));
#1576=CARTESIAN_POINT('',(-0.000750000000000011,-0.021,0.00129903810567668));
#1577=CARTESIAN_POINT('',(-0.0508093397878957,-0.021,-0.0276027351963199));
#1578=CARTESIAN_POINT('',(-0.0493093397878957,-0.021,-0.0302008114076732));
#1579=CARTESIAN_POINT('',(-0.0493093397878957,-0.021,-0.0302008114076732));
#1580=CARTESIAN_POINT('',(0.00074999999999999,-0.021,-0.00129903810567664));
#1581=CARTESIAN_POINT('',(-0.0535129707996162,-0.021,-0.0326277789038639));
#1582=CARTESIAN_POINT('',(0.,-0.021,-1.09863515750892E-17));
#1583=CARTESIAN_POINT('',(-0.0015,-0.021,-0.0626574815963745));
#1584=CARTESIAN_POINT('',(-0.0015,-0.021,-1.83697019872103E-19));
#1585=CARTESIAN_POINT('',(-0.0015,-0.021,-0.0578035466039931));
#1586=CARTESIAN_POINT('',(-0.0015,-0.021,-0.0578035466039931));
#1587=CARTESIAN_POINT('',(0.0015,-0.021,-0.0578035466039931));
#1588=CARTESIAN_POINT('',(0.0015,-0.021,1.83697019872103E-19));
#1589=CARTESIAN_POINT('',(0.0015,-0.021,-0.0626574815963745));
#1590=CARTESIAN_POINT('',(0.,-0.021,-1.09863515750892E-17));
#1591=CARTESIAN_POINT('',(0.0535129707996163,-0.021,-0.0326277789038638));
#1592=CARTESIAN_POINT('',(-0.000749999999999989,-0.021,-0.00129903810567664));
#1593=CARTESIAN_POINT('',(0.0493093397878958,-0.021,-0.0302008114076732));
#1594=CARTESIAN_POINT('',(0.0493093397878957,-0.021,-0.0302008114076732));
#1595=CARTESIAN_POINT('',(0.0508093397878958,-0.021,-0.0276027351963199));
#1596=CARTESIAN_POINT('',(0.00075000000000001,-0.021,0.00129903810567668));
#1597=CARTESIAN_POINT('',(0.0550129707996162,-0.021,-0.0300297026925106));
#1598=CARTESIAN_POINT('',(0.,-0.021,-1.09863515750892E-17));
#1599=CARTESIAN_POINT('',(0.0550129707996162,-0.021,0.0300297026925106));
#1600=CARTESIAN_POINT('',(0.000749999999999989,-0.021,-0.00129903810567664));
#1601=CARTESIAN_POINT('',(0.0508093397878957,-0.021,0.0276027351963199));
#1602=CARTESIAN_POINT('',(0.0508093397878957,-0.021,0.0276027351963199));
#1603=CARTESIAN_POINT('',(0.0493093397878957,-0.021,0.0302008114076733));
#1604=CARTESIAN_POINT('',(-0.000750000000000011,-0.021,0.00129903810567668));
#1605=CARTESIAN_POINT('',(0.0535129707996162,-0.021,0.0326277789038639));
#1606=CARTESIAN_POINT('',(0.,-0.021,-1.09863515750892E-17));
#1607=CARTESIAN_POINT('',(-1.5178830414797E-17,-0.021,-1.6306400674182E-16));
#1608=CARTESIAN_POINT('',(0.00771947623954285,-0.021,-0.060509583427645));
#1609=CARTESIAN_POINT('',(0.048543098300983,-0.021,-0.0369400542411769));
#1610=CARTESIAN_POINT('',(0.00485973811977141,-0.021,-0.0587510078757409));
#1611=CARTESIAN_POINT('',(0.002,-0.021,-0.0569924323238367));
#1612=CARTESIAN_POINT('',(8.71428345807769E-18,-0.021,-0.0569924323238367));
#1613=CARTESIAN_POINT('',(-0.00199999999999997,-0.021,-0.0569924323238367));
#1614=CARTESIAN_POINT('',(-0.00485973811977139,-0.021,-0.0587510078757409));
#1615=CARTESIAN_POINT('',(-0.00771947623954283,-0.021,-0.060509583427645));
#1616=CARTESIAN_POINT('',(-1.5178830414797E-17,-0.021,-1.6306400674182E-16));
#1617=CARTESIAN_POINT('',(-0.048543098300983,-0.021,-0.036940054241177));
#1618=CARTESIAN_POINT('',(-0.0484499962584455,-0.021,-0.0335841606053321));
#1619=CARTESIAN_POINT('',(-0.048356894215908,-0.021,-0.0302282669694872));
#1620=CARTESIAN_POINT('',(-0.049356894215908,-0.021,-0.0284962161619184));
#1621=CARTESIAN_POINT('',(-0.050356894215908,-0.021,-0.0267641653543495));
#1622=CARTESIAN_POINT('',(-0.0533097343782169,-0.021,-0.0251668472704088));
#1623=CARTESIAN_POINT('',(-0.0562625745405258,-0.021,-0.0235695291864681));
#1624=CARTESIAN_POINT('',(-1.5178830414797E-17,-0.021,-1.6306400674182E-16));
#1625=CARTESIAN_POINT('',(-0.0562625745405259,-0.021,0.023569529186468));
#1626=CARTESIAN_POINT('',(-0.053309734378217,-0.021,0.0251668472704088));
#1627=CARTESIAN_POINT('',(-0.050356894215908,-0.021,0.0267641653543495));
#1628=CARTESIAN_POINT('',(-0.0493568942159081,-0.021,0.0284962161619183));
#1629=CARTESIAN_POINT('',(-0.0483568942159081,-0.021,0.0302282669694872));
#1630=CARTESIAN_POINT('',(-0.0484499962584456,-0.021,0.0335841606053321));
#1631=CARTESIAN_POINT('',(-0.0485430983009831,-0.021,0.036940054241177));
#1632=CARTESIAN_POINT('',(-1.5178830414797E-17,-0.021,-1.6306400674182E-16));
#1633=CARTESIAN_POINT('',(-0.00771947623954284,-0.021,0.060509583427645));
#1634=CARTESIAN_POINT('',(-0.0048597381197714,-0.021,0.0587510078757409));
#1635=CARTESIAN_POINT('',(-0.002,-0.021,0.0569924323238368));
#1636=CARTESIAN_POINT('',(-1.7347234759768E-18,-0.021,0.0569924323238368));
#1637=CARTESIAN_POINT('',(0.002,-0.021,0.0569924323238368));
#1638=CARTESIAN_POINT('',(0.0048597381197714,-0.021,0.0587510078757409));
#1639=CARTESIAN_POINT('',(0.00771947623954283,-0.021,0.060509583427645));
#1640=CARTESIAN_POINT('',(-1.5178830414797E-17,-0.021,-1.6306400674182E-16));
#1641=CARTESIAN_POINT('',(0.048543098300983,-0.021,0.036940054241177));
#1642=CARTESIAN_POINT('',(0.0484499962584455,-0.021,0.0335841606053322));
#1643=CARTESIAN_POINT('',(0.048356894215908,-0.021,0.0302282669694873));
#1644=CARTESIAN_POINT('',(0.049356894215908,-0.021,0.0284962161619184));
#1645=CARTESIAN_POINT('',(0.050356894215908,-0.021,0.0267641653543495));
#1646=CARTESIAN_POINT('',(0.0533097343782169,-0.021,0.0251668472704088));
#1647=CARTESIAN_POINT('',(0.0562625745405259,-0.021,0.0235695291864681));
#1648=CARTESIAN_POINT('',(-1.5178830414797E-17,-0.021,-1.6306400674182E-16));
#1649=CARTESIAN_POINT('',(0.0562625745405259,-0.021,-0.023569529186468));
#1650=CARTESIAN_POINT('',(0.053309734378217,-0.021,-0.0251668472704087));
#1651=CARTESIAN_POINT('',(0.050356894215908,-0.021,-0.0267641653543495));
#1652=CARTESIAN_POINT('',(0.049356894215908,-0.021,-0.0284962161619183));
#1653=CARTESIAN_POINT('',(0.048356894215908,-0.021,-0.0302282669694872));
#1654=CARTESIAN_POINT('',(0.0484499962584456,-0.021,-0.0335841606053321));
#1655=CARTESIAN_POINT('',(0.,-0.021,3.88825358729284E-18));
#1656=CARTESIAN_POINT('',(-0.0015,-0.021,0.0634822809924155));
#1657=CARTESIAN_POINT('',(-0.0015,-0.017,0.0634822809924155));
#1658=CARTESIAN_POINT('',(-0.0015,-0.0183564702489341,0.0634822809924155));
#1659=CARTESIAN_POINT('',(0.,-0.017,3.88825358729284E-18));
#1660=CARTESIAN_POINT('',(-0.0542272680296139,-0.017,0.0330401786018844));
#1661=CARTESIAN_POINT('',(-0.0542272680296139,-0.021,0.0330401786018844));
#1662=CARTESIAN_POINT('',(-0.0542272680296139,-0.0183564702489341,0.0330401786018844));
#1663=CARTESIAN_POINT('',(0.,-0.0183564702489341,3.88825358729284E-18));
#1664=CARTESIAN_POINT('',(0.,-0.021,3.88825358729284E-18));
#1665=CARTESIAN_POINT('',(-0.0557272680296139,-0.021,0.0304421023905311));
#1666=CARTESIAN_POINT('',(-0.0557272680296139,-0.017,0.0304421023905311));
#1667=CARTESIAN_POINT('',(-0.0557272680296139,-0.0183564702489341,0.0304421023905311));
#1668=CARTESIAN_POINT('',(0.,-0.017,3.88825358729284E-18));
#1669=CARTESIAN_POINT('',(-0.0557272680296138,-0.017,-0.0304421023905311));
#1670=CARTESIAN_POINT('',(-0.0557272680296138,-0.021,-0.0304421023905311));
#1671=CARTESIAN_POINT('',(-0.0557272680296139,-0.0183564702489341,-0.0304421023905311));
#1672=CARTESIAN_POINT('',(0.,-0.0183564702489341,3.88825358729284E-18));
#1673=CARTESIAN_POINT('',(0.,-0.021,3.88825358729284E-18));
#1674=CARTESIAN_POINT('',(-0.0542272680296138,-0.021,-0.0330401786018844));
#1675=CARTESIAN_POINT('',(-0.0542272680296138,-0.017,-0.0330401786018844));
#1676=CARTESIAN_POINT('',(-0.0542272680296138,-0.0183564702489341,-0.0330401786018844));
#1677=CARTESIAN_POINT('',(0.,-0.017,3.88825358729284E-18));
#1678=CARTESIAN_POINT('',(-0.0015,-0.017,-0.0634822809924155));
#1679=CARTESIAN_POINT('',(-0.0015,-0.021,-0.0634822809924155));
#1680=CARTESIAN_POINT('',(-0.0015,-0.0183564702489341,-0.0634822809924155));
#1681=CARTESIAN_POINT('',(0.,-0.0183564702489341,3.88825358729284E-18));
#1682=CARTESIAN_POINT('',(0.,-0.021,3.88825358729284E-18));
#1683=CARTESIAN_POINT('',(0.0015,-0.021,-0.0634822809924155));
#1684=CARTESIAN_POINT('',(0.0015,-0.017,-0.0634822809924155));
#1685=CARTESIAN_POINT('',(0.0015,-0.0183564702489341,-0.0634822809924155));
#1686=CARTESIAN_POINT('',(0.,-0.017,3.88825358729284E-18));
#1687=CARTESIAN_POINT('',(0.0542272680296139,-0.017,-0.0330401786018844));
#1688=CARTESIAN_POINT('',(0.0542272680296139,-0.021,-0.0330401786018844));
#1689=CARTESIAN_POINT('',(0.0542272680296139,-0.0183564702489341,-0.0330401786018844));
#1690=CARTESIAN_POINT('',(0.,-0.0183564702489341,3.88825358729284E-18));
#1691=CARTESIAN_POINT('',(0.,-0.021,3.88825358729284E-18));
#1692=CARTESIAN_POINT('',(0.0557272680296139,-0.021,-0.0304421023905311));
#1693=CARTESIAN_POINT('',(0.0557272680296139,-0.017,-0.0304421023905311));
#1694=CARTESIAN_POINT('',(0.0557272680296139,-0.0183564702489341,-0.0304421023905311));
#1695=CARTESIAN_POINT('',(0.,-0.017,3.88825358729284E-18));
#1696=CARTESIAN_POINT('',(0.0557272680296138,-0.017,0.0304421023905311));
#1697=CARTESIAN_POINT('',(0.0557272680296138,-0.021,0.0304421023905311));
#1698=CARTESIAN_POINT('',(0.0557272680296138,-0.0183564702489341,0.0304421023905311));
#1699=CARTESIAN_POINT('',(0.,-0.0183564702489341,3.88825358729284E-18));
#1700=CARTESIAN_POINT('',(0.,-0.021,3.88825358729284E-18));
#1701=CARTESIAN_POINT('',(0.,-0.017,3.88825358729284E-18));
#1702=CARTESIAN_POINT('',(0.0542272680296138,-0.017,0.0330401786018844));
#1703=CARTESIAN_POINT('',(0.0015,-0.017,0.0634822809924155));
#1704=CARTESIAN_POINT('',(0.0015,-0.021,0.0634822809924155));
#1705=CARTESIAN_POINT('',(0.0015,-0.0183564702489341,0.0634822809924155));
#1706=CARTESIAN_POINT('',(0.,-0.0183564702489341,3.88825358729284E-18));
#1707=CARTESIAN_POINT('',(0.0542272680296138,-0.0183564702489341,0.0330401786018844));
#1708=CARTESIAN_POINT('',(0.0542272680296138,-0.021,0.0330401786018844));
#1709=CARTESIAN_POINT('',(0.,-0.017,0.));
#1710=CARTESIAN_POINT('',(0.0015,-0.017,0.0591037223870037));
#1711=CARTESIAN_POINT('',(-0.0015,-0.017,0.0591037223870037));
#1712=CARTESIAN_POINT('',(0.0015,-0.017,0.0591037223870037));
#1713=CARTESIAN_POINT('',(0.0015,-0.017,0.));
#1714=CARTESIAN_POINT('',(-0.000750000000000009,-0.017,0.00129903810567667));
#1715=CARTESIAN_POINT('',(0.0504353250453682,-0.017,0.0308508992991786));
#1716=CARTESIAN_POINT('',(0.0519353250453682,-0.017,0.0282528230878252));
#1717=CARTESIAN_POINT('',(0.0519353250453682,-0.017,0.0282528230878252));
#1718=CARTESIAN_POINT('',(0.000749999999999992,-0.017,-0.00129903810567664));
#1719=CARTESIAN_POINT('',(0.00075,-0.017,0.00129903810567667));
#1720=CARTESIAN_POINT('',(0.0519353250453683,-0.017,-0.0282528230878251));
#1721=CARTESIAN_POINT('',(0.0504353250453682,-0.017,-0.0308508992991785));
#1722=CARTESIAN_POINT('',(0.0504353250453683,-0.017,-0.0308508992991785));
#1723=CARTESIAN_POINT('',(-0.000749999999999991,-0.017,-0.00129903810567664));
#1724=CARTESIAN_POINT('',(0.0015,-0.017,1.83697019872103E-19));
#1725=CARTESIAN_POINT('',(0.0015,-0.017,-0.0591037223870037));
#1726=CARTESIAN_POINT('',(-0.0015,-0.017,-0.0591037223870037));
#1727=CARTESIAN_POINT('',(-0.0015,-0.017,-0.0591037223870037));
#1728=CARTESIAN_POINT('',(-0.0015,-0.017,-1.83697019872103E-19));
#1729=CARTESIAN_POINT('',(0.000749999999999992,-0.017,-0.00129903810567664));
#1730=CARTESIAN_POINT('',(-0.0504353250453682,-0.017,-0.0308508992991785));
#1731=CARTESIAN_POINT('',(-0.0504353250453682,-0.017,-0.0308508992991785));
#1732=CARTESIAN_POINT('',(-0.0519353250453683,-0.017,-0.0282528230878252));
#1733=CARTESIAN_POINT('',(-0.000750000000000009,-0.017,0.00129903810567667));
#1734=CARTESIAN_POINT('',(-0.00074999999999999,-0.017,-0.00129903810567664));
#1735=CARTESIAN_POINT('',(-0.0519353250453683,-0.017,0.0282528230878251));
#1736=CARTESIAN_POINT('',(-0.0504353250453683,-0.017,0.0308508992991785));
#1737=CARTESIAN_POINT('',(-0.0504353250453683,-0.017,0.0308508992991785));
#1738=CARTESIAN_POINT('',(0.00075,-0.017,0.00129903810567667));
#1739=CARTESIAN_POINT('',(-0.0015,-0.017,0.));
#1740=CARTESIAN_POINT('',(-1.5178830414797E-17,-0.017,-1.6306400674182E-16));
#1741=CARTESIAN_POINT('',(0.00771947623954285,-0.017,-0.060509583427645));
#1742=CARTESIAN_POINT('',(0.0485430983009831,-0.017,-0.0369400542411774));
#1743=CARTESIAN_POINT('',(0.0484499962584456,-0.017,-0.0335841606053321));
#1744=CARTESIAN_POINT('',(0.0483568942159081,-0.017,-0.0302282669694872));
#1745=CARTESIAN_POINT('',(0.049356894215908,-0.017,-0.0284962161619183));
#1746=CARTESIAN_POINT('',(0.050356894215908,-0.017,-0.0267641653543495));
#1747=CARTESIAN_POINT('',(0.053309734378217,-0.017,-0.0251668472704087));
#1748=CARTESIAN_POINT('',(0.0562625745405259,-0.017,-0.023569529186468));
#1749=CARTESIAN_POINT('',(-1.5178830414797E-17,-0.017,-1.6306400674182E-16));
#1750=CARTESIAN_POINT('',(0.056262574540526,-0.017,0.0235695291864681));
#1751=CARTESIAN_POINT('',(0.0533097343782169,-0.017,0.0251668472704088));
#1752=CARTESIAN_POINT('',(0.050356894215908,-0.017,0.0267641653543495));
#1753=CARTESIAN_POINT('',(0.049356894215908,-0.017,0.0284962161619184));
#1754=CARTESIAN_POINT('',(0.048356894215908,-0.017,0.0302282669694873));
#1755=CARTESIAN_POINT('',(0.0484499962584455,-0.017,0.0335841606053322));
#1756=CARTESIAN_POINT('',(0.048543098300983,-0.017,0.036940054241177));
#1757=CARTESIAN_POINT('',(-1.5178830414797E-17,-0.017,-1.6306400674182E-16));
#1758=CARTESIAN_POINT('',(0.0077194762395428,-0.017,0.060509583427645));
#1759=CARTESIAN_POINT('',(0.0048597381197714,-0.017,0.0587510078757409));
#1760=CARTESIAN_POINT('',(0.002,-0.017,0.0569924323238368));
#1761=CARTESIAN_POINT('',(-1.7347234759768E-18,-0.017,0.0569924323238368));
#1762=CARTESIAN_POINT('',(-0.002,-0.017,0.0569924323238368));
#1763=CARTESIAN_POINT('',(-0.0048597381197714,-0.017,0.0587510078757409));
#1764=CARTESIAN_POINT('',(-0.00771947623954284,-0.017,0.060509583427645));
#1765=CARTESIAN_POINT('',(-1.5178830414797E-17,-0.017,-1.6306400674182E-16));
#1766=CARTESIAN_POINT('',(-0.0485430983009831,-0.017,0.0369400542411771));
#1767=CARTESIAN_POINT('',(-0.0484499962584456,-0.017,0.0335841606053321));
#1768=CARTESIAN_POINT('',(-0.0483568942159081,-0.017,0.0302282669694872));
#1769=CARTESIAN_POINT('',(-0.0493568942159081,-0.017,0.0284962161619183));
#1770=CARTESIAN_POINT('',(-0.0503568942159081,-0.017,0.0267641653543495));
#1771=CARTESIAN_POINT('',(-0.053309734378217,-0.017,0.0251668472704087));
#1772=CARTESIAN_POINT('',(-0.0562625745405259,-0.017,0.023569529186468));
#1773=CARTESIAN_POINT('',(-1.5178830414797E-17,-0.017,-1.6306400674182E-16));
#1774=CARTESIAN_POINT('',(-0.0562625745405262,-0.017,-0.0235695291864679));
#1775=CARTESIAN_POINT('',(-0.0533097343782169,-0.017,-0.0251668472704088));
#1776=CARTESIAN_POINT('',(-0.050356894215908,-0.017,-0.0267641653543495));
#1777=CARTESIAN_POINT('',(-0.049356894215908,-0.017,-0.0284962161619184));
#1778=CARTESIAN_POINT('',(-0.048356894215908,-0.017,-0.0302282669694872));
#1779=CARTESIAN_POINT('',(-0.0484499962584455,-0.017,-0.0335841606053321));
#1780=CARTESIAN_POINT('',(-0.048543098300983,-0.017,-0.036940054241177));
#1781=CARTESIAN_POINT('',(-1.5178830414797E-17,-0.017,-1.6306400674182E-16));
#1782=CARTESIAN_POINT('',(-0.00771947623954329,-0.017,-0.0605095834276453));
#1783=CARTESIAN_POINT('',(-0.00485973811977139,-0.017,-0.0587510078757409));
#1784=CARTESIAN_POINT('',(-0.00199999999999997,-0.017,-0.0569924323238368));
#1785=CARTESIAN_POINT('',(8.71428345807769E-18,-0.017,-0.0569924323238368));
#1786=CARTESIAN_POINT('',(0.002,-0.017,-0.0569924323238368));
#1787=CARTESIAN_POINT('',(0.00485973811977141,-0.017,-0.0587510078757409));
#1788=CARTESIAN_POINT('',(0.,1.27131402344282E-17,-1.09863515750892E-17));
#1789=CARTESIAN_POINT('',(-0.0015,1.27131402344282E-17,-1.09863515750892E-17));
#1790=CARTESIAN_POINT('',(0.00075,1.42747738133752E-17,0.00129903810567666));
#1791=CARTESIAN_POINT('',(0.,1.27131402344282E-17,-1.09863515750892E-17));
#1792=CARTESIAN_POINT('',(-0.00075,1.11515066554814E-17,-0.00129903810567666));
#1793=CARTESIAN_POINT('',(-0.00075,1.42747738133752E-17,0.00129903810567665));
#1794=CARTESIAN_POINT('',(0.,1.27131402344282E-17,-1.09863515750892E-17));
#1795=CARTESIAN_POINT('',(0.00075,1.11515066554814E-17,-0.00129903810567666));
#1796=CARTESIAN_POINT('',(-0.0015,1.27131402344282E-17,-1.11700485949613E-17));
#1797=CARTESIAN_POINT('',(0.,1.27131402344282E-17,-1.09863515750892E-17));
#1798=CARTESIAN_POINT('',(0.0015,1.27131402344282E-17,-1.08026545552171E-17));
#1799=CARTESIAN_POINT('',(-0.00075,1.11515066554814E-17,-0.00129903810567666));
#1800=CARTESIAN_POINT('',(0.,1.27131402344282E-17,-1.09863515750892E-17));
#1801=CARTESIAN_POINT('',(0.00075,1.42747738133752E-17,0.00129903810567665));
#1802=CARTESIAN_POINT('',(0.00075,1.11515066554814E-17,-0.00129903810567666));
#1803=CARTESIAN_POINT('',(0.,1.27131402344282E-17,-1.09863515750892E-17));
#1804=CARTESIAN_POINT('',(0.0015,1.27131402344282E-17,-1.09863515750892E-17));
#1805=CARTESIAN_POINT('',(-0.00075,1.42747738133752E-17,0.00129903810567665));
#1806=CARTESIAN_POINT('',(-1.5178830414797E-17,-0.021,-1.6306400674182E-16));
#1807=CARTESIAN_POINT('',(0.00771947623954283,-0.021,0.060509583427645));
#1808=CARTESIAN_POINT('',(0.048543098300983,-0.021,0.036940054241177));
#1809=CARTESIAN_POINT('',(-1.5178830414797E-17,-0.021,-1.6306400674182E-16));
#1810=CARTESIAN_POINT('',(-0.00771947623954284,-0.021,0.060509583427645));
#1811=CARTESIAN_POINT('',(-0.0485430983009831,-0.021,0.036940054241177));
#1812=CARTESIAN_POINT('',(-1.5178830414797E-17,-0.021,-1.6306400674182E-16));
#1813=CARTESIAN_POINT('',(-0.0562625745405259,-0.021,0.023569529186468));
#1814=CARTESIAN_POINT('',(-0.0562625745405258,-0.021,-0.0235695291864681));
#1815=CARTESIAN_POINT('',(-1.5178830414797E-17,-0.021,-1.6306400674182E-16));
#1816=CARTESIAN_POINT('',(-0.048543098300983,-0.021,-0.036940054241177));
#1817=CARTESIAN_POINT('',(-0.00771947623954283,-0.021,-0.060509583427645));
#1818=CARTESIAN_POINT('',(-1.5178830414797E-17,-0.021,-1.6306400674182E-16));
#1819=CARTESIAN_POINT('',(0.00771947623954285,-0.021,-0.060509583427645));
#1820=CARTESIAN_POINT('',(0.048543098300983,-0.021,-0.0369400542411769));
#1821=CARTESIAN_POINT('',(-1.5178830414797E-17,-0.021,-1.6306400674182E-16));
#1822=CARTESIAN_POINT('',(0.0562625745405259,-0.021,-0.023569529186468));
#1823=CARTESIAN_POINT('',(0.0562625745405259,-0.021,0.0235695291864681));
#1824=CARTESIAN_POINT('',(0.049356894215908,-0.021,0.0284962161619184));
#1825=CARTESIAN_POINT('',(0.050356894215908,-0.021,0.0267641653543495));
#1826=CARTESIAN_POINT('',(0.048356894215908,-0.021,0.0302282669694873));
#1827=CARTESIAN_POINT('',(0.0533097343782169,-0.021,0.0251668472704088));
#1828=CARTESIAN_POINT('',(0.0484499962584455,-0.021,0.0335841606053322));
#1829=CARTESIAN_POINT('',(0.049356894215908,-0.021,-0.0284962161619183));
#1830=CARTESIAN_POINT('',(0.048356894215908,-0.021,-0.0302282669694872));
#1831=CARTESIAN_POINT('',(0.050356894215908,-0.021,-0.0267641653543495));
#1832=CARTESIAN_POINT('',(0.0484499962584456,-0.021,-0.0335841606053321));
#1833=CARTESIAN_POINT('',(0.053309734378217,-0.021,-0.0251668472704087));
#1834=CARTESIAN_POINT('',(8.71428345807769E-18,-0.021,-0.0569924323238367));
#1835=CARTESIAN_POINT('',(-0.00199999999999997,-0.021,-0.0569924323238367));
#1836=CARTESIAN_POINT('',(0.002,-0.021,-0.0569924323238367));
#1837=CARTESIAN_POINT('',(-0.00485973811977139,-0.021,-0.0587510078757409));
#1838=CARTESIAN_POINT('',(0.00485973811977141,-0.021,-0.0587510078757409));
#1839=CARTESIAN_POINT('',(-0.049356894215908,-0.021,-0.0284962161619184));
#1840=CARTESIAN_POINT('',(-0.050356894215908,-0.021,-0.0267641653543495));
#1841=CARTESIAN_POINT('',(-0.048356894215908,-0.021,-0.0302282669694872));
#1842=CARTESIAN_POINT('',(-0.0533097343782169,-0.021,-0.0251668472704088));
#1843=CARTESIAN_POINT('',(-0.0484499962584455,-0.021,-0.0335841606053321));
#1844=CARTESIAN_POINT('',(-0.0493568942159081,-0.021,0.0284962161619183));
#1845=CARTESIAN_POINT('',(-0.0483568942159081,-0.021,0.0302282669694872));
#1846=CARTESIAN_POINT('',(-0.050356894215908,-0.021,0.0267641653543495));
#1847=CARTESIAN_POINT('',(-0.0484499962584456,-0.021,0.0335841606053321));
#1848=CARTESIAN_POINT('',(-0.053309734378217,-0.021,0.0251668472704088));
#1849=CARTESIAN_POINT('',(-1.7347234759768E-18,-0.021,0.0569924323238368));
#1850=CARTESIAN_POINT('',(0.002,-0.021,0.0569924323238368));
#1851=CARTESIAN_POINT('',(-0.002,-0.021,0.0569924323238368));
#1852=CARTESIAN_POINT('',(0.0048597381197714,-0.021,0.0587510078757409));
#1853=CARTESIAN_POINT('',(-0.0048597381197714,-0.021,0.0587510078757409));
#1854=CARTESIAN_POINT('',(0.000750000000000013,-0.01375,0.00129903810567667));
#1855=CARTESIAN_POINT('',(0.00075,1.4697276959081E-17,0.00129903810567666));
#1856=CARTESIAN_POINT('',(-0.000749999999999985,-0.01375,-0.00129903810567665));
#1857=CARTESIAN_POINT('',(-0.00075,1.15740098011872E-17,-0.00129903810567666));
#1858=CARTESIAN_POINT('',(0.00075,1.4697276959081E-17,0.00129903810567666));
#1859=CARTESIAN_POINT('',(-0.000750000000000015,-0.01375,0.00129903810567667));
#1860=CARTESIAN_POINT('',(-0.00075,1.4697276959081E-17,0.00129903810567666));
#1861=CARTESIAN_POINT('',(0.000750000000000015,-0.01375,-0.00129903810567663));
#1862=CARTESIAN_POINT('',(0.00075,1.15740098011872E-17,-0.00129903810567665));
#1863=CARTESIAN_POINT('',(0.00075,1.15740098011872E-17,-0.00129903810567666));
#1864=CARTESIAN_POINT('',(-0.000750000000000014,-0.01375,-0.00129903810567663));
#1865=CARTESIAN_POINT('',(-0.00075,1.15740098011872E-17,-0.00129903810567666));
#1866=CARTESIAN_POINT('',(0.000749999999999985,-0.01375,0.00129903810567668));
#1867=CARTESIAN_POINT('',(0.00075,1.4697276959081E-17,0.00129903810567666));
#1868=CARTESIAN_POINT('',(-0.00075,1.15740098011872E-17,-0.00129903810567666));
#1869=CARTESIAN_POINT('',(0.000749999999999986,-0.01375,-0.00129903810567665));
#1870=CARTESIAN_POINT('',(0.00075,1.15740098011872E-17,-0.00129903810567666));
#1871=CARTESIAN_POINT('',(-0.000750000000000015,-0.01375,0.00129903810567667));
#1872=CARTESIAN_POINT('',(-0.00075,1.4697276959081E-17,0.00129903810567666));
#1873=CARTESIAN_POINT('',(0.00075,1.15740098011872E-17,-0.00129903810567666));
#1874=CARTESIAN_POINT('',(-0.0015,-0.01375,3.28753204434148E-17));
#1875=CARTESIAN_POINT('',(-0.0015,1.31356433801341E-17,4.74944315200338E-18));
#1876=CARTESIAN_POINT('',(0.0015,-0.01375,3.3242714483159E-17));
#1877=CARTESIAN_POINT('',(0.0015,1.31356433801341E-17,5.11683719174759E-18));
#1878=CARTESIAN_POINT('',(-0.0015,1.31356433801341E-17,4.74944315200338E-18));
#1879=CARTESIAN_POINT('',(0.0015,1.31356433801341E-17,-4.93314017187552E-18));
#1880=CARTESIAN_POINT('',(0.0015,1.31356433801341E-17,-4.93314017187552E-18));
#1881=CARTESIAN_POINT('',(-0.0015,1.31356433801341E-17,-4.93314017187552E-18));
#1882=CARTESIAN_POINT('',(0.0015,-0.01375,0.));
#1883=CARTESIAN_POINT('',(-0.0015,-0.01375,0.));
#1884=MECHANICAL_DESIGN_GEOMETRIC_PRESENTATION_REPRESENTATION('',(#1105),
#1885);
#1885=(
GEOMETRIC_REPRESENTATION_CONTEXT(3)
GLOBAL_UNCERTAINTY_ASSIGNED_CONTEXT((#1886))
GLOBAL_UNIT_ASSIGNED_CONTEXT((#1889,#1888,#1887))
REPRESENTATION_CONTEXT('Nose Ring2','TOP_LEVEL_ASSEMBLY_PART')
);
#1886=UNCERTAINTY_MEASURE_WITH_UNIT(LENGTH_MEASURE(1.E-8),#1889,
'DISTANCE_ACCURACY_VALUE','Maximum Tolerance applied to model');
#1887=(
NAMED_UNIT(*)
SI_UNIT($,.STERADIAN.)
SOLID_ANGLE_UNIT()
);
#1888=(
NAMED_UNIT(*)
PLANE_ANGLE_UNIT()
SI_UNIT($,.RADIAN.)
);
#1889=(
LENGTH_UNIT()
NAMED_UNIT(*)
SI_UNIT($,.METRE.)
);
#1890=PRODUCT_DEFINITION_SHAPE('','',#1891);
#1891=PRODUCT_DEFINITION('','',#1893,#1892);
#1892=PRODUCT_DEFINITION_CONTEXT('',#1899,'design');
#1893=PRODUCT_DEFINITION_FORMATION_WITH_SPECIFIED_SOURCE('','',#1895,
 .NOT_KNOWN.);
#1894=PRODUCT_RELATED_PRODUCT_CATEGORY('','',(#1895));
#1895=PRODUCT('Nose Ring2','Nose Ring2','Nose Ring2',(#1897));
#1896=PRODUCT_CATEGORY('','');
#1897=PRODUCT_CONTEXT('',#1899,'mechanical');
#1898=APPLICATION_PROTOCOL_DEFINITION('international standard',
'ap242_managed_model_based_3d_engineering',2020,#1899);
#1899=APPLICATION_CONTEXT('managed model based 3d engineering');
ENDSEC;
END-ISO-10303-21;
