ISO-10303-21;
HEADER;
/* Generated by software containing ST-Developer
 * from STEP Tools, Inc. (www.steptools.com) 
 */
/* OPTION: using custom renumber hook */

FILE_DESCRIPTION(
/* description */ ('STEP AP242 Edition 2',
'CAx-IF Rec.Pracs.---Representation and Presentation of Product Manufa
cturing Information (PMI)---4.0---2014-10-13',
'CAx-IF Rec.Pracs.---3D Tessellated Geometry---0.4---2014-09-14','2;1',
'CAx-IF Rec.Pracs.---User Defined Attributes---1.5---2016-08-15'),
/* implementation_level */ '2;1');

FILE_NAME(
/* name */ 'Part Studio 2 - Air Pump',
/* time_stamp */ '2026-08-23T20:36:14Z',
/* author */ (''),
/* organization */ (''),
/* preprocessor_version */ 'ST-DEVELOPER v20',
/* originating_system */ 'ONSHAPE BY PTC INC, 1.219',
/* authorisation */ '  ');

FILE_SCHEMA (('AP242_MANAGED_MODEL_BASED_3D_ENGINEERING_MIM_LF { 1 0 10303 442 3 1 4 }'));
ENDSEC;

DATA;
#10=SHAPE_REPRESENTATION_RELATIONSHIP('','',#916,#11);
#11=ADVANCED_BREP_SHAPE_REPRESENTATION('',(#914),#1613);
#12=(
BOUNDED_SURFACE()
B_SPLINE_SURFACE(3,2,((#1548,#1549,#1550),(#1551,#1552,#1553),(#1554,#1555,
#1556),(#1557,#1558,#1559),(#1560,#1561,#1562),(#1563,#1564,#1565),(#1566,
#1567,#1568),(#1569,#1570,#1571),(#1572,#1573,#1574),(#1575,#1576,#1577),
(#1578,#1579,#1580),(#1581,#1582,#1583),(#1584,#1585,#1586),(#1587,#1588,
#1589),(#1590,#1591,#1592),(#1593,#1594,#1595),(#1596,#1597,#1598),(#1599,
#1600,#1601),(#1602,#1603,#1604)),.UNSPECIFIED.,.T.,.F.,.F.)
B_SPLINE_SURFACE_WITH_KNOTS((1,3,1,1,1,1,1,1,1,1,1,1,1,1,1,1,1,3,1),(3,
3),(-0.00162898746143852,0.,0.00162898746143852,0.00325797492287703,0.00488696238431555,
0.00651594984575407,0.00814493730719259,0.0097739247686311,0.0114029122300696,
0.0130318996915081,0.0146608871529467,0.0162898746143852,0.0179188620758237,
0.0195478495372622,0.0211768369987007,0.0228058244601392,0.0244348119215778,
0.0260637993830163,0.0276927868444548),(0.,1.),.UNSPECIFIED.)
GEOMETRIC_REPRESENTATION_ITEM()
RATIONAL_B_SPLINE_SURFACE(((1.,0.795043493180174,1.),(1.,0.801319353229017,
1.),(1.,0.805533363267314,1.),(1.,0.783406932965158,1.),(1.,0.744676959668429,
1.),(1.,0.710413047370086,1.),(1.,0.70294925411445,1.),(1.,0.728112661802307,
1.),(1.,0.767901307743824,1.),(1.,0.799198128151029,1.),(1.,0.805540457029316,
1.),(1.,0.783427685834621,1.),(1.,0.74459063904453,1.),(1.,0.710348757528128,
1.),(1.,0.702991577499387,1.),(1.,0.728095723253063,1.),(1.,0.767878202974256,
1.),(1.,0.788767633131331,1.),(1.,0.795043493180174,1.)))
REPRESENTATION_ITEM('')
SURFACE()
);
#13=TOROIDAL_SURFACE('',#1003,0.002,0.001);
#14=TOROIDAL_SURFACE('',#1004,0.00115,0.001);
#15=TOROIDAL_SURFACE('',#1005,0.00115,0.001);
#16=TOROIDAL_SURFACE('',#1006,0.00315,0.001);
#17=CONICAL_SURFACE('',#951,0.011,0.463647609000807);
#18=B_SPLINE_CURVE_WITH_KNOTS('',3,(#1332,#1333,#1334,#1335,#1336,#1337,
#1338,#1339,#1340,#1341,#1342,#1343,#1344,#1345,#1346),.UNSPECIFIED.,.T.,
 .F.,(1,1,1,1,1,1,1,1,1,1,1,1,1,1,1,1,1,1,1),(-0.00637860457925797,-0.00478395343444348,
-0.00318930228962899,0.,0.00318930228962898,0.00478395343444348,0.00637860457925797,
0.00797325572407246,0.00956790686888695,0.0127572091585159,0.0159465114481449,
0.0175411625929594,0.0191358137377739,0.0207304648825884,0.0223251160274029,
0.0255144183170319,0.0287037206066609,0.0302983717514754,0.0318930228962898),
 .UNSPECIFIED.);
#19=B_SPLINE_CURVE_WITH_KNOTS('',3,(#1454,#1455,#1456,#1457,#1458,#1459,
#1460,#1461,#1462,#1463,#1464,#1465),.UNSPECIFIED.,.T.,.F.,(1,1,1,1,1,1,
1,1,1,1,1,1,1,1,1,1),(-0.00748018545668055,-0.0049867903044537,-0.00249339515222685,
0.,0.00124669757611343,0.00249339515222685,0.0049867903044537,0.00748018545668055,
0.00997358060890741,0.0124669757611343,0.0149603709133611,0.017453766065588,
0.0199471612178148,0.0211938587939282,0.0224405563700417,0.0249339515222685),
 .UNSPECIFIED.);
#20=CYLINDRICAL_SURFACE('',#931,0.0135);
#21=CYLINDRICAL_SURFACE('',#946,0.00215);
#22=CYLINDRICAL_SURFACE('',#953,0.0115);
#23=CYLINDRICAL_SURFACE('',#955,0.00203700282801273);
#24=CYLINDRICAL_SURFACE('',#962,0.00203700282801273);
#25=CYLINDRICAL_SURFACE('',#966,0.00203700282801272);
#26=CYLINDRICAL_SURFACE('',#972,0.00215);
#27=CYLINDRICAL_SURFACE('',#977,0.00315);
#28=CYLINDRICAL_SURFACE('',#978,0.011);
#29=CYLINDRICAL_SURFACE('',#981,0.0015);
#30=CYLINDRICAL_SURFACE('',#983,0.00150000000000002);
#31=CYLINDRICAL_SURFACE('',#986,0.00150000000000002);
#32=CYLINDRICAL_SURFACE('',#988,0.0015);
#33=CYLINDRICAL_SURFACE('',#999,0.003);
#34=LINE('',#1280,#110);
#35=LINE('',#1284,#111);
#36=LINE('',#1285,#112);
#37=LINE('',#1288,#113);
#38=LINE('',#1290,#114);
#39=LINE('',#1292,#115);
#40=LINE('',#1294,#116);
#41=LINE('',#1299,#117);
#42=LINE('',#1302,#118);
#43=LINE('',#1305,#119);
#44=LINE('',#1307,#120);
#45=LINE('',#1309,#121);
#46=LINE('',#1315,#122);
#47=LINE('',#1320,#123);
#48=LINE('',#1326,#124);
#49=LINE('',#1330,#125);
#50=LINE('',#1351,#126);
#51=LINE('',#1355,#127);
#52=LINE('',#1359,#128);
#53=LINE('',#1363,#129);
#54=LINE('',#1367,#130);
#55=LINE('',#1371,#131);
#56=LINE('',#1377,#132);
#57=LINE('',#1379,#133);
#58=LINE('',#1383,#134);
#59=LINE('',#1384,#135);
#60=LINE('',#1388,#136);
#61=LINE('',#1389,#137);
#62=LINE('',#1410,#138);
#63=LINE('',#1414,#139);
#64=LINE('',#1416,#140);
#65=LINE('',#1418,#141);
#66=LINE('',#1421,#142);
#67=LINE('',#1423,#143);
#68=LINE('',#1425,#144);
#69=LINE('',#1427,#145);
#70=LINE('',#1432,#146);
#71=LINE('',#1434,#147);
#72=LINE('',#1436,#148);
#73=LINE('',#1440,#149);
#74=LINE('',#1472,#150);
#75=LINE('',#1473,#151);
#76=LINE('',#1475,#152);
#77=LINE('',#1477,#153);
#78=LINE('',#1480,#154);
#79=LINE('',#1481,#155);
#80=LINE('',#1483,#156);
#81=LINE('',#1485,#157);
#82=LINE('',#1488,#158);
#83=LINE('',#1490,#159);
#84=LINE('',#1492,#160);
#85=LINE('',#1494,#161);
#86=LINE('',#1497,#162);
#87=LINE('',#1499,#163);
#88=LINE('',#1500,#164);
#89=LINE('',#1502,#165);
#90=LINE('',#1504,#166);
#91=LINE('',#1506,#167);
#92=LINE('',#1508,#168);
#93=LINE('',#1510,#169);
#94=LINE('',#1512,#170);
#95=LINE('',#1513,#171);
#96=LINE('',#1515,#172);
#97=LINE('',#1517,#173);
#98=LINE('',#1519,#174);
#99=LINE('',#1521,#175);
#100=LINE('',#1524,#176);
#101=LINE('',#1526,#177);
#102=LINE('',#1527,#178);
#103=LINE('',#1529,#179);
#104=LINE('',#1531,#180);
#105=LINE('',#1533,#181);
#106=LINE('',#1535,#182);
#107=LINE('',#1537,#183);
#108=LINE('',#1539,#184);
#109=LINE('',#1540,#185);
#110=VECTOR('',#1017,1.);
#111=VECTOR('',#1020,1.);
#112=VECTOR('',#1021,1.);
#113=VECTOR('',#1022,1.);
#114=VECTOR('',#1023,1.);
#115=VECTOR('',#1024,1.);
#116=VECTOR('',#1027,1.);
#117=VECTOR('',#1030,1.);
#118=VECTOR('',#1033,1.);
#119=VECTOR('',#1034,1.);
#120=VECTOR('',#1035,1.);
#121=VECTOR('',#1036,1.);
#122=VECTOR('',#1043,1.);
#123=VECTOR('',#1046,1.);
#124=VECTOR('',#1051,1.);
#125=VECTOR('',#1054,1.);
#126=VECTOR('',#1059,1.);
#127=VECTOR('',#1062,1.);
#128=VECTOR('',#1065,1.);
#129=VECTOR('',#1068,1.);
#130=VECTOR('',#1071,1.);
#131=VECTOR('',#1074,1.);
#132=VECTOR('',#1081,1.);
#133=VECTOR('',#1082,1.);
#134=VECTOR('',#1085,1.);
#135=VECTOR('',#1086,1.);
#136=VECTOR('',#1089,1.);
#137=VECTOR('',#1090,1.);
#138=VECTOR('',#1117,1.);
#139=VECTOR('',#1120,1.);
#140=VECTOR('',#1123,1.);
#141=VECTOR('',#1126,1.);
#142=VECTOR('',#1131,1.);
#143=VECTOR('',#1132,1.);
#144=VECTOR('',#1135,1.);
#145=VECTOR('',#1136,1.);
#146=VECTOR('',#1145,1.);
#147=VECTOR('',#1146,1.);
#148=VECTOR('',#1149,1.);
#149=VECTOR('',#1154,1.);
#150=VECTOR('',#1181,1.);
#151=VECTOR('',#1182,1.);
#152=VECTOR('',#1185,1.);
#153=VECTOR('',#1188,1.);
#154=VECTOR('',#1193,1.);
#155=VECTOR('',#1194,1.);
#156=VECTOR('',#1197,1.);
#157=VECTOR('',#1200,1.);
#158=VECTOR('',#1205,1.);
#159=VECTOR('',#1206,1.);
#160=VECTOR('',#1207,1.);
#161=VECTOR('',#1210,1.);
#162=VECTOR('',#1211,1.);
#163=VECTOR('',#1212,1.);
#164=VECTOR('',#1213,1.);
#165=VECTOR('',#1216,1.);
#166=VECTOR('',#1217,1.);
#167=VECTOR('',#1220,1.);
#168=VECTOR('',#1221,1.);
#169=VECTOR('',#1222,1.);
#170=VECTOR('',#1225,1.);
#171=VECTOR('',#1226,1.);
#172=VECTOR('',#1229,1.);
#173=VECTOR('',#1230,1.);
#174=VECTOR('',#1231,1.);
#175=VECTOR('',#1234,1.);
#176=VECTOR('',#1235,1.);
#177=VECTOR('',#1236,1.);
#178=VECTOR('',#1237,1.);
#179=VECTOR('',#1240,1.);
#180=VECTOR('',#1241,1.);
#181=VECTOR('',#1244,1.);
#182=VECTOR('',#1245,1.);
#183=VECTOR('',#1246,1.);
#184=VECTOR('',#1249,1.);
#185=VECTOR('',#1250,1.);
#186=ORIENTED_EDGE('',*,*,#416,.T.);
#187=ORIENTED_EDGE('',*,*,#417,.F.);
#188=ORIENTED_EDGE('',*,*,#418,.F.);
#189=ORIENTED_EDGE('',*,*,#419,.T.);
#190=ORIENTED_EDGE('',*,*,#420,.F.);
#191=ORIENTED_EDGE('',*,*,#421,.T.);
#192=ORIENTED_EDGE('',*,*,#422,.T.);
#193=ORIENTED_EDGE('',*,*,#423,.F.);
#194=ORIENTED_EDGE('',*,*,#424,.T.);
#195=ORIENTED_EDGE('',*,*,#425,.F.);
#196=ORIENTED_EDGE('',*,*,#426,.F.);
#197=ORIENTED_EDGE('',*,*,#427,.F.);
#198=ORIENTED_EDGE('',*,*,#428,.F.);
#199=ORIENTED_EDGE('',*,*,#429,.T.);
#200=ORIENTED_EDGE('',*,*,#430,.T.);
#201=ORIENTED_EDGE('',*,*,#431,.F.);
#202=ORIENTED_EDGE('',*,*,#432,.F.);
#203=ORIENTED_EDGE('',*,*,#433,.T.);
#204=ORIENTED_EDGE('',*,*,#434,.F.);
#205=ORIENTED_EDGE('',*,*,#435,.T.);
#206=ORIENTED_EDGE('',*,*,#436,.T.);
#207=ORIENTED_EDGE('',*,*,#437,.F.);
#208=ORIENTED_EDGE('',*,*,#438,.F.);
#209=ORIENTED_EDGE('',*,*,#439,.T.);
#210=ORIENTED_EDGE('',*,*,#440,.F.);
#211=ORIENTED_EDGE('',*,*,#441,.F.);
#212=ORIENTED_EDGE('',*,*,#442,.T.);
#213=ORIENTED_EDGE('',*,*,#443,.F.);
#214=ORIENTED_EDGE('',*,*,#444,.T.);
#215=ORIENTED_EDGE('',*,*,#445,.F.);
#216=ORIENTED_EDGE('',*,*,#446,.F.);
#217=ORIENTED_EDGE('',*,*,#447,.F.);
#218=ORIENTED_EDGE('',*,*,#448,.T.);
#219=ORIENTED_EDGE('',*,*,#449,.F.);
#220=ORIENTED_EDGE('',*,*,#450,.F.);
#221=ORIENTED_EDGE('',*,*,#451,.F.);
#222=ORIENTED_EDGE('',*,*,#452,.T.);
#223=ORIENTED_EDGE('',*,*,#453,.F.);
#224=ORIENTED_EDGE('',*,*,#454,.F.);
#225=ORIENTED_EDGE('',*,*,#455,.T.);
#226=ORIENTED_EDGE('',*,*,#456,.T.);
#227=ORIENTED_EDGE('',*,*,#457,.F.);
#228=ORIENTED_EDGE('',*,*,#453,.T.);
#229=ORIENTED_EDGE('',*,*,#458,.T.);
#230=ORIENTED_EDGE('',*,*,#459,.F.);
#231=ORIENTED_EDGE('',*,*,#460,.F.);
#232=ORIENTED_EDGE('',*,*,#449,.T.);
#233=ORIENTED_EDGE('',*,*,#461,.T.);
#234=ORIENTED_EDGE('',*,*,#462,.T.);
#235=ORIENTED_EDGE('',*,*,#463,.F.);
#236=ORIENTED_EDGE('',*,*,#445,.T.);
#237=ORIENTED_EDGE('',*,*,#464,.T.);
#238=ORIENTED_EDGE('',*,*,#465,.F.);
#239=ORIENTED_EDGE('',*,*,#466,.T.);
#240=ORIENTED_EDGE('',*,*,#467,.T.);
#241=ORIENTED_EDGE('',*,*,#468,.T.);
#242=ORIENTED_EDGE('',*,*,#469,.T.);
#243=ORIENTED_EDGE('',*,*,#455,.F.);
#244=ORIENTED_EDGE('',*,*,#470,.T.);
#245=ORIENTED_EDGE('',*,*,#469,.F.);
#246=ORIENTED_EDGE('',*,*,#470,.F.);
#247=ORIENTED_EDGE('',*,*,#471,.T.);
#248=ORIENTED_EDGE('',*,*,#462,.F.);
#249=ORIENTED_EDGE('',*,*,#472,.F.);
#250=ORIENTED_EDGE('',*,*,#473,.T.);
#251=ORIENTED_EDGE('',*,*,#474,.T.);
#252=ORIENTED_EDGE('',*,*,#461,.F.);
#253=ORIENTED_EDGE('',*,*,#448,.F.);
#254=ORIENTED_EDGE('',*,*,#475,.T.);
#255=ORIENTED_EDGE('',*,*,#472,.T.);
#256=ORIENTED_EDGE('',*,*,#463,.T.);
#257=ORIENTED_EDGE('',*,*,#474,.F.);
#258=ORIENTED_EDGE('',*,*,#476,.F.);
#259=ORIENTED_EDGE('',*,*,#446,.T.);
#260=ORIENTED_EDGE('',*,*,#473,.F.);
#261=ORIENTED_EDGE('',*,*,#475,.F.);
#262=ORIENTED_EDGE('',*,*,#447,.T.);
#263=ORIENTED_EDGE('',*,*,#476,.T.);
#264=ORIENTED_EDGE('',*,*,#458,.F.);
#265=ORIENTED_EDGE('',*,*,#452,.F.);
#266=ORIENTED_EDGE('',*,*,#477,.T.);
#267=ORIENTED_EDGE('',*,*,#478,.T.);
#268=ORIENTED_EDGE('',*,*,#460,.T.);
#269=ORIENTED_EDGE('',*,*,#479,.F.);
#270=ORIENTED_EDGE('',*,*,#480,.F.);
#271=ORIENTED_EDGE('',*,*,#450,.T.);
#272=ORIENTED_EDGE('',*,*,#459,.T.);
#273=ORIENTED_EDGE('',*,*,#478,.F.);
#274=ORIENTED_EDGE('',*,*,#481,.F.);
#275=ORIENTED_EDGE('',*,*,#479,.T.);
#276=ORIENTED_EDGE('',*,*,#477,.F.);
#277=ORIENTED_EDGE('',*,*,#451,.T.);
#278=ORIENTED_EDGE('',*,*,#480,.T.);
#279=ORIENTED_EDGE('',*,*,#481,.T.);
#280=ORIENTED_EDGE('',*,*,#457,.T.);
#281=ORIENTED_EDGE('',*,*,#482,.F.);
#282=ORIENTED_EDGE('',*,*,#483,.F.);
#283=ORIENTED_EDGE('',*,*,#454,.T.);
#284=ORIENTED_EDGE('',*,*,#465,.T.);
#285=ORIENTED_EDGE('',*,*,#484,.F.);
#286=ORIENTED_EDGE('',*,*,#485,.F.);
#287=ORIENTED_EDGE('',*,*,#482,.T.);
#288=ORIENTED_EDGE('',*,*,#464,.F.);
#289=ORIENTED_EDGE('',*,*,#444,.F.);
#290=ORIENTED_EDGE('',*,*,#486,.T.);
#291=ORIENTED_EDGE('',*,*,#484,.T.);
#292=ORIENTED_EDGE('',*,*,#443,.T.);
#293=ORIENTED_EDGE('',*,*,#483,.T.);
#294=ORIENTED_EDGE('',*,*,#485,.T.);
#295=ORIENTED_EDGE('',*,*,#486,.F.);
#296=ORIENTED_EDGE('',*,*,#487,.T.);
#297=ORIENTED_EDGE('',*,*,#488,.T.);
#298=ORIENTED_EDGE('',*,*,#489,.F.);
#299=ORIENTED_EDGE('',*,*,#490,.F.);
#300=ORIENTED_EDGE('',*,*,#489,.T.);
#301=ORIENTED_EDGE('',*,*,#491,.T.);
#302=ORIENTED_EDGE('',*,*,#490,.T.);
#303=ORIENTED_EDGE('',*,*,#433,.F.);
#304=ORIENTED_EDGE('',*,*,#492,.F.);
#305=ORIENTED_EDGE('',*,*,#492,.T.);
#306=ORIENTED_EDGE('',*,*,#471,.F.);
#307=ORIENTED_EDGE('',*,*,#435,.F.);
#308=ORIENTED_EDGE('',*,*,#493,.F.);
#309=ORIENTED_EDGE('',*,*,#416,.F.);
#310=ORIENTED_EDGE('',*,*,#494,.T.);
#311=ORIENTED_EDGE('',*,*,#436,.F.);
#312=ORIENTED_EDGE('',*,*,#494,.F.);
#313=ORIENTED_EDGE('',*,*,#419,.F.);
#314=ORIENTED_EDGE('',*,*,#495,.T.);
#315=ORIENTED_EDGE('',*,*,#496,.T.);
#316=ORIENTED_EDGE('',*,*,#437,.T.);
#317=ORIENTED_EDGE('',*,*,#495,.F.);
#318=ORIENTED_EDGE('',*,*,#418,.T.);
#319=ORIENTED_EDGE('',*,*,#493,.T.);
#320=ORIENTED_EDGE('',*,*,#434,.T.);
#321=ORIENTED_EDGE('',*,*,#496,.F.);
#322=ORIENTED_EDGE('',*,*,#417,.T.);
#323=ORIENTED_EDGE('',*,*,#439,.F.);
#324=ORIENTED_EDGE('',*,*,#497,.F.);
#325=ORIENTED_EDGE('',*,*,#424,.F.);
#326=ORIENTED_EDGE('',*,*,#498,.T.);
#327=ORIENTED_EDGE('',*,*,#499,.T.);
#328=ORIENTED_EDGE('',*,*,#440,.T.);
#329=ORIENTED_EDGE('',*,*,#498,.F.);
#330=ORIENTED_EDGE('',*,*,#427,.T.);
#331=ORIENTED_EDGE('',*,*,#500,.T.);
#332=ORIENTED_EDGE('',*,*,#441,.T.);
#333=ORIENTED_EDGE('',*,*,#499,.F.);
#334=ORIENTED_EDGE('',*,*,#426,.T.);
#335=ORIENTED_EDGE('',*,*,#497,.T.);
#336=ORIENTED_EDGE('',*,*,#438,.T.);
#337=ORIENTED_EDGE('',*,*,#500,.F.);
#338=ORIENTED_EDGE('',*,*,#425,.T.);
#339=ORIENTED_EDGE('',*,*,#501,.F.);
#340=ORIENTED_EDGE('',*,*,#502,.T.);
#341=ORIENTED_EDGE('',*,*,#503,.T.);
#342=ORIENTED_EDGE('',*,*,#428,.T.);
#343=ORIENTED_EDGE('',*,*,#504,.T.);
#344=ORIENTED_EDGE('',*,*,#505,.T.);
#345=ORIENTED_EDGE('',*,*,#506,.T.);
#346=ORIENTED_EDGE('',*,*,#429,.F.);
#347=ORIENTED_EDGE('',*,*,#503,.F.);
#348=ORIENTED_EDGE('',*,*,#507,.T.);
#349=ORIENTED_EDGE('',*,*,#506,.F.);
#350=ORIENTED_EDGE('',*,*,#508,.T.);
#351=ORIENTED_EDGE('',*,*,#509,.T.);
#352=ORIENTED_EDGE('',*,*,#430,.F.);
#353=ORIENTED_EDGE('',*,*,#509,.F.);
#354=ORIENTED_EDGE('',*,*,#510,.T.);
#355=ORIENTED_EDGE('',*,*,#511,.F.);
#356=ORIENTED_EDGE('',*,*,#512,.T.);
#357=ORIENTED_EDGE('',*,*,#501,.T.);
#358=ORIENTED_EDGE('',*,*,#431,.T.);
#359=ORIENTED_EDGE('',*,*,#511,.T.);
#360=ORIENTED_EDGE('',*,*,#513,.T.);
#361=ORIENTED_EDGE('',*,*,#504,.F.);
#362=ORIENTED_EDGE('',*,*,#514,.T.);
#363=ORIENTED_EDGE('',*,*,#515,.F.);
#364=ORIENTED_EDGE('',*,*,#516,.T.);
#365=ORIENTED_EDGE('',*,*,#517,.T.);
#366=ORIENTED_EDGE('',*,*,#420,.T.);
#367=ORIENTED_EDGE('',*,*,#518,.T.);
#368=ORIENTED_EDGE('',*,*,#519,.T.);
#369=ORIENTED_EDGE('',*,*,#520,.T.);
#370=ORIENTED_EDGE('',*,*,#421,.F.);
#371=ORIENTED_EDGE('',*,*,#517,.F.);
#372=ORIENTED_EDGE('',*,*,#521,.T.);
#373=ORIENTED_EDGE('',*,*,#520,.F.);
#374=ORIENTED_EDGE('',*,*,#522,.T.);
#375=ORIENTED_EDGE('',*,*,#523,.T.);
#376=ORIENTED_EDGE('',*,*,#422,.F.);
#377=ORIENTED_EDGE('',*,*,#523,.F.);
#378=ORIENTED_EDGE('',*,*,#524,.T.);
#379=ORIENTED_EDGE('',*,*,#525,.F.);
#380=ORIENTED_EDGE('',*,*,#526,.T.);
#381=ORIENTED_EDGE('',*,*,#515,.T.);
#382=ORIENTED_EDGE('',*,*,#423,.T.);
#383=ORIENTED_EDGE('',*,*,#525,.T.);
#384=ORIENTED_EDGE('',*,*,#527,.T.);
#385=ORIENTED_EDGE('',*,*,#518,.F.);
#386=ORIENTED_EDGE('',*,*,#528,.T.);
#387=ORIENTED_EDGE('',*,*,#529,.T.);
#388=ORIENTED_EDGE('',*,*,#432,.T.);
#389=ORIENTED_EDGE('',*,*,#530,.T.);
#390=ORIENTED_EDGE('',*,*,#530,.F.);
#391=ORIENTED_EDGE('',*,*,#529,.F.);
#392=ORIENTED_EDGE('',*,*,#491,.F.);
#393=ORIENTED_EDGE('',*,*,#442,.F.);
#394=ORIENTED_EDGE('',*,*,#487,.F.);
#395=ORIENTED_EDGE('',*,*,#488,.F.);
#396=ORIENTED_EDGE('',*,*,#467,.F.);
#397=ORIENTED_EDGE('',*,*,#466,.F.);
#398=ORIENTED_EDGE('',*,*,#456,.F.);
#399=ORIENTED_EDGE('',*,*,#468,.F.);
#400=ORIENTED_EDGE('',*,*,#519,.F.);
#401=ORIENTED_EDGE('',*,*,#527,.F.);
#402=ORIENTED_EDGE('',*,*,#524,.F.);
#403=ORIENTED_EDGE('',*,*,#522,.F.);
#404=ORIENTED_EDGE('',*,*,#521,.F.);
#405=ORIENTED_EDGE('',*,*,#516,.F.);
#406=ORIENTED_EDGE('',*,*,#526,.F.);
#407=ORIENTED_EDGE('',*,*,#528,.F.);
#408=ORIENTED_EDGE('',*,*,#505,.F.);
#409=ORIENTED_EDGE('',*,*,#513,.F.);
#410=ORIENTED_EDGE('',*,*,#510,.F.);
#411=ORIENTED_EDGE('',*,*,#508,.F.);
#412=ORIENTED_EDGE('',*,*,#507,.F.);
#413=ORIENTED_EDGE('',*,*,#502,.F.);
#414=ORIENTED_EDGE('',*,*,#512,.F.);
#415=ORIENTED_EDGE('',*,*,#514,.F.);
#416=EDGE_CURVE('',#531,#532,#614,.T.);
#417=EDGE_CURVE('',#533,#532,#34,.T.);
#418=EDGE_CURVE('',#534,#533,#615,.T.);
#419=EDGE_CURVE('',#534,#531,#35,.T.);
#420=EDGE_CURVE('',#535,#536,#36,.T.);
#421=EDGE_CURVE('',#535,#537,#37,.T.);
#422=EDGE_CURVE('',#537,#538,#38,.T.);
#423=EDGE_CURVE('',#536,#538,#39,.T.);
#424=EDGE_CURVE('',#539,#540,#40,.T.);
#425=EDGE_CURVE('',#541,#540,#616,.T.);
#426=EDGE_CURVE('',#542,#541,#41,.T.);
#427=EDGE_CURVE('',#539,#542,#617,.T.);
#428=EDGE_CURVE('',#543,#544,#42,.T.);
#429=EDGE_CURVE('',#543,#545,#43,.T.);
#430=EDGE_CURVE('',#545,#546,#44,.T.);
#431=EDGE_CURVE('',#544,#546,#45,.T.);
#432=EDGE_CURVE('',#547,#547,#618,.T.);
#433=EDGE_CURVE('',#548,#548,#619,.T.);
#434=EDGE_CURVE('',#549,#550,#46,.T.);
#435=EDGE_CURVE('',#549,#551,#620,.F.);
#436=EDGE_CURVE('',#551,#552,#47,.T.);
#437=EDGE_CURVE('',#550,#552,#621,.T.);
#438=EDGE_CURVE('',#553,#554,#622,.T.);
#439=EDGE_CURVE('',#553,#555,#48,.T.);
#440=EDGE_CURVE('',#556,#555,#623,.T.);
#441=EDGE_CURVE('',#554,#556,#49,.T.);
#442=EDGE_CURVE('',#557,#557,#18,.T.);
#443=EDGE_CURVE('',#558,#559,#624,.T.);
#444=EDGE_CURVE('',#558,#560,#50,.T.);
#445=EDGE_CURVE('',#561,#560,#625,.T.);
#446=EDGE_CURVE('',#562,#561,#51,.T.);
#447=EDGE_CURVE('',#563,#562,#626,.T.);
#448=EDGE_CURVE('',#563,#564,#52,.T.);
#449=EDGE_CURVE('',#565,#564,#627,.T.);
#450=EDGE_CURVE('',#566,#565,#53,.T.);
#451=EDGE_CURVE('',#567,#566,#628,.T.);
#452=EDGE_CURVE('',#567,#568,#54,.T.);
#453=EDGE_CURVE('',#569,#568,#629,.T.);
#454=EDGE_CURVE('',#559,#569,#55,.T.);
#455=EDGE_CURVE('',#570,#570,#630,.T.);
#456=EDGE_CURVE('',#571,#571,#631,.F.);
#457=EDGE_CURVE('',#569,#572,#56,.T.);
#458=EDGE_CURVE('',#568,#573,#57,.T.);
#459=EDGE_CURVE('',#574,#573,#632,.T.);
#460=EDGE_CURVE('',#565,#574,#58,.T.);
#461=EDGE_CURVE('',#564,#575,#59,.T.);
#462=EDGE_CURVE('',#575,#576,#633,.T.);
#463=EDGE_CURVE('',#561,#576,#60,.T.);
#464=EDGE_CURVE('',#560,#577,#61,.T.);
#465=EDGE_CURVE('',#572,#577,#634,.T.);
#466=EDGE_CURVE('',#578,#578,#635,.F.);
#467=EDGE_CURVE('',#579,#579,#636,.T.);
#468=EDGE_CURVE('',#580,#580,#637,.T.);
#469=EDGE_CURVE('',#581,#581,#638,.T.);
#470=EDGE_CURVE('',#582,#582,#639,.T.);
#471=EDGE_CURVE('',#583,#583,#640,.T.);
#472=EDGE_CURVE('',#584,#575,#62,.T.);
#473=EDGE_CURVE('',#584,#585,#641,.T.);
#474=EDGE_CURVE('',#585,#576,#63,.T.);
#475=EDGE_CURVE('',#563,#584,#64,.T.);
#476=EDGE_CURVE('',#562,#585,#65,.T.);
#477=EDGE_CURVE('',#567,#586,#66,.T.);
#478=EDGE_CURVE('',#586,#573,#67,.T.);
#479=EDGE_CURVE('',#587,#574,#68,.T.);
#480=EDGE_CURVE('',#566,#587,#69,.T.);
#481=EDGE_CURVE('',#587,#586,#642,.T.);
#482=EDGE_CURVE('',#588,#572,#70,.T.);
#483=EDGE_CURVE('',#559,#588,#71,.T.);
#484=EDGE_CURVE('',#589,#577,#72,.T.);
#485=EDGE_CURVE('',#588,#589,#643,.T.);
#486=EDGE_CURVE('',#558,#589,#73,.T.);
#487=EDGE_CURVE('',#590,#590,#644,.F.);
#488=EDGE_CURVE('',#591,#591,#645,.T.);
#489=EDGE_CURVE('',#592,#592,#646,.T.);
#490=EDGE_CURVE('',#593,#593,#647,.T.);
#491=EDGE_CURVE('',#594,#594,#19,.T.);
#492=EDGE_CURVE('',#595,#595,#648,.T.);
#493=EDGE_CURVE('',#532,#549,#74,.T.);
#494=EDGE_CURVE('',#531,#551,#75,.T.);
#495=EDGE_CURVE('',#534,#552,#76,.T.);
#496=EDGE_CURVE('',#533,#550,#77,.T.);
#497=EDGE_CURVE('',#540,#553,#78,.T.);
#498=EDGE_CURVE('',#539,#555,#79,.T.);
#499=EDGE_CURVE('',#542,#556,#80,.T.);
#500=EDGE_CURVE('',#541,#554,#81,.T.);
#501=EDGE_CURVE('',#596,#544,#82,.T.);
#502=EDGE_CURVE('',#596,#597,#83,.T.);
#503=EDGE_CURVE('',#597,#543,#84,.T.);
#504=EDGE_CURVE('',#598,#599,#85,.T.);
#505=EDGE_CURVE('',#599,#600,#86,.T.);
#506=EDGE_CURVE('',#600,#545,#87,.T.);
#507=EDGE_CURVE('',#597,#598,#88,.F.);
#508=EDGE_CURVE('',#600,#601,#89,.T.);
#509=EDGE_CURVE('',#601,#546,#90,.T.);
#510=EDGE_CURVE('',#601,#602,#91,.T.);
#511=EDGE_CURVE('',#603,#602,#92,.T.);
#512=EDGE_CURVE('',#603,#596,#93,.F.);
#513=EDGE_CURVE('',#602,#599,#94,.T.);
#514=EDGE_CURVE('',#598,#603,#95,.T.);
#515=EDGE_CURVE('',#604,#536,#96,.T.);
#516=EDGE_CURVE('',#604,#605,#97,.T.);
#517=EDGE_CURVE('',#605,#535,#98,.T.);
#518=EDGE_CURVE('',#606,#607,#99,.T.);
#519=EDGE_CURVE('',#607,#608,#100,.T.);
#520=EDGE_CURVE('',#608,#537,#101,.T.);
#521=EDGE_CURVE('',#605,#606,#102,.F.);
#522=EDGE_CURVE('',#608,#609,#103,.T.);
#523=EDGE_CURVE('',#609,#538,#104,.T.);
#524=EDGE_CURVE('',#609,#610,#105,.T.);
#525=EDGE_CURVE('',#611,#610,#106,.T.);
#526=EDGE_CURVE('',#611,#604,#107,.F.);
#527=EDGE_CURVE('',#610,#607,#108,.T.);
#528=EDGE_CURVE('',#606,#611,#109,.T.);
#529=EDGE_CURVE('',#612,#612,#649,.T.);
#530=EDGE_CURVE('',#613,#613,#650,.F.);
#531=VERTEX_POINT('',#1278);
#532=VERTEX_POINT('',#1279);
#533=VERTEX_POINT('',#1281);
#534=VERTEX_POINT('',#1283);
#535=VERTEX_POINT('',#1286);
#536=VERTEX_POINT('',#1287);
#537=VERTEX_POINT('',#1289);
#538=VERTEX_POINT('',#1291);
#539=VERTEX_POINT('',#1295);
#540=VERTEX_POINT('',#1296);
#541=VERTEX_POINT('',#1298);
#542=VERTEX_POINT('',#1300);
#543=VERTEX_POINT('',#1303);
#544=VERTEX_POINT('',#1304);
#545=VERTEX_POINT('',#1306);
#546=VERTEX_POINT('',#1308);
#547=VERTEX_POINT('',#1312);
#548=VERTEX_POINT('',#1314);
#549=VERTEX_POINT('',#1316);
#550=VERTEX_POINT('',#1317);
#551=VERTEX_POINT('',#1319);
#552=VERTEX_POINT('',#1321);
#553=VERTEX_POINT('',#1324);
#554=VERTEX_POINT('',#1325);
#555=VERTEX_POINT('',#1327);
#556=VERTEX_POINT('',#1329);
#557=VERTEX_POINT('',#1347);
#558=VERTEX_POINT('',#1349);
#559=VERTEX_POINT('',#1350);
#560=VERTEX_POINT('',#1352);
#561=VERTEX_POINT('',#1354);
#562=VERTEX_POINT('',#1356);
#563=VERTEX_POINT('',#1358);
#564=VERTEX_POINT('',#1360);
#565=VERTEX_POINT('',#1362);
#566=VERTEX_POINT('',#1364);
#567=VERTEX_POINT('',#1366);
#568=VERTEX_POINT('',#1368);
#569=VERTEX_POINT('',#1370);
#570=VERTEX_POINT('',#1373);
#571=VERTEX_POINT('',#1376);
#572=VERTEX_POINT('',#1378);
#573=VERTEX_POINT('',#1380);
#574=VERTEX_POINT('',#1382);
#575=VERTEX_POINT('',#1385);
#576=VERTEX_POINT('',#1387);
#577=VERTEX_POINT('',#1390);
#578=VERTEX_POINT('',#1394);
#579=VERTEX_POINT('',#1397);
#580=VERTEX_POINT('',#1399);
#581=VERTEX_POINT('',#1402);
#582=VERTEX_POINT('',#1405);
#583=VERTEX_POINT('',#1408);
#584=VERTEX_POINT('',#1411);
#585=VERTEX_POINT('',#1413);
#586=VERTEX_POINT('',#1422);
#587=VERTEX_POINT('',#1426);
#588=VERTEX_POINT('',#1433);
#589=VERTEX_POINT('',#1437);
#590=VERTEX_POINT('',#1444);
#591=VERTEX_POINT('',#1447);
#592=VERTEX_POINT('',#1449);
#593=VERTEX_POINT('',#1452);
#594=VERTEX_POINT('',#1466);
#595=VERTEX_POINT('',#1469);
#596=VERTEX_POINT('',#1489);
#597=VERTEX_POINT('',#1491);
#598=VERTEX_POINT('',#1495);
#599=VERTEX_POINT('',#1496);
#600=VERTEX_POINT('',#1498);
#601=VERTEX_POINT('',#1503);
#602=VERTEX_POINT('',#1507);
#603=VERTEX_POINT('',#1509);
#604=VERTEX_POINT('',#1516);
#605=VERTEX_POINT('',#1518);
#606=VERTEX_POINT('',#1522);
#607=VERTEX_POINT('',#1523);
#608=VERTEX_POINT('',#1525);
#609=VERTEX_POINT('',#1530);
#610=VERTEX_POINT('',#1534);
#611=VERTEX_POINT('',#1536);
#612=VERTEX_POINT('',#1543);
#613=VERTEX_POINT('',#1546);
#614=CIRCLE('',#919,0.0015);
#615=CIRCLE('',#920,0.00150000000000002);
#616=CIRCLE('',#922,0.0015);
#617=CIRCLE('',#923,0.00150000000000002);
#618=CIRCLE('',#925,0.003);
#619=CIRCLE('',#926,0.011);
#620=CIRCLE('',#927,0.0015);
#621=CIRCLE('',#928,0.00150000000000002);
#622=CIRCLE('',#929,0.0015);
#623=CIRCLE('',#930,0.00150000000000002);
#624=CIRCLE('',#932,0.0135);
#625=CIRCLE('',#933,0.0135);
#626=CIRCLE('',#934,0.0135);
#627=CIRCLE('',#935,0.0135);
#628=CIRCLE('',#936,0.0135);
#629=CIRCLE('',#937,0.0135);
#630=CIRCLE('',#938,0.0135);
#631=CIRCLE('',#940,0.00315);
#632=CIRCLE('',#941,0.00203700282801273);
#633=CIRCLE('',#942,0.00203700282801273);
#634=CIRCLE('',#943,0.00203700282801272);
#635=CIRCLE('',#945,0.00115);
#636=CIRCLE('',#947,0.00215);
#637=CIRCLE('',#948,0.00215);
#638=CIRCLE('',#950,0.011);
#639=CIRCLE('',#952,0.0115);
#640=CIRCLE('',#954,0.0115);
#641=CIRCLE('',#956,0.00203700282801273);
#642=CIRCLE('',#963,0.00203700282801273);
#643=CIRCLE('',#967,0.00203700282801272);
#644=CIRCLE('',#971,0.00115);
#645=CIRCLE('',#973,0.00215);
#646=CIRCLE('',#974,0.00215);
#647=CIRCLE('',#976,0.00315);
#648=CIRCLE('',#979,0.011);
#649=CIRCLE('',#1000,0.003);
#650=CIRCLE('',#1002,0.002);
#651=EDGE_LOOP('',(#186,#187,#188,#189));
#652=EDGE_LOOP('',(#190,#191,#192,#193));
#653=EDGE_LOOP('',(#194,#195,#196,#197));
#654=EDGE_LOOP('',(#198,#199,#200,#201));
#655=EDGE_LOOP('',(#202));
#656=EDGE_LOOP('',(#203));
#657=EDGE_LOOP('',(#204,#205,#206,#207));
#658=EDGE_LOOP('',(#208,#209,#210,#211));
#659=EDGE_LOOP('',(#212));
#660=EDGE_LOOP('',(#213,#214,#215,#216,#217,#218,#219,#220,#221,#222,#223,
#224));
#661=EDGE_LOOP('',(#225));
#662=EDGE_LOOP('',(#226));
#663=EDGE_LOOP('',(#227,#228,#229,#230,#231,#232,#233,#234,#235,#236,#237,
#238));
#664=EDGE_LOOP('',(#239));
#665=EDGE_LOOP('',(#240));
#666=EDGE_LOOP('',(#241));
#667=EDGE_LOOP('',(#242));
#668=EDGE_LOOP('',(#243));
#669=EDGE_LOOP('',(#244));
#670=EDGE_LOOP('',(#245));
#671=EDGE_LOOP('',(#246));
#672=EDGE_LOOP('',(#247));
#673=EDGE_LOOP('',(#248,#249,#250,#251));
#674=EDGE_LOOP('',(#252,#253,#254,#255));
#675=EDGE_LOOP('',(#256,#257,#258,#259));
#676=EDGE_LOOP('',(#260,#261,#262,#263));
#677=EDGE_LOOP('',(#264,#265,#266,#267));
#678=EDGE_LOOP('',(#268,#269,#270,#271));
#679=EDGE_LOOP('',(#272,#273,#274,#275));
#680=EDGE_LOOP('',(#276,#277,#278,#279));
#681=EDGE_LOOP('',(#280,#281,#282,#283));
#682=EDGE_LOOP('',(#284,#285,#286,#287));
#683=EDGE_LOOP('',(#288,#289,#290,#291));
#684=EDGE_LOOP('',(#292,#293,#294,#295));
#685=EDGE_LOOP('',(#296));
#686=EDGE_LOOP('',(#297));
#687=EDGE_LOOP('',(#298));
#688=EDGE_LOOP('',(#299));
#689=EDGE_LOOP('',(#300));
#690=EDGE_LOOP('',(#301));
#691=EDGE_LOOP('',(#302));
#692=EDGE_LOOP('',(#303));
#693=EDGE_LOOP('',(#304));
#694=EDGE_LOOP('',(#305));
#695=EDGE_LOOP('',(#306));
#696=EDGE_LOOP('',(#307,#308,#309,#310));
#697=EDGE_LOOP('',(#311,#312,#313,#314));
#698=EDGE_LOOP('',(#315,#316,#317,#318));
#699=EDGE_LOOP('',(#319,#320,#321,#322));
#700=EDGE_LOOP('',(#323,#324,#325,#326));
#701=EDGE_LOOP('',(#327,#328,#329,#330));
#702=EDGE_LOOP('',(#331,#332,#333,#334));
#703=EDGE_LOOP('',(#335,#336,#337,#338));
#704=EDGE_LOOP('',(#339,#340,#341,#342));
#705=EDGE_LOOP('',(#343,#344,#345,#346,#347,#348));
#706=EDGE_LOOP('',(#349,#350,#351,#352));
#707=EDGE_LOOP('',(#353,#354,#355,#356,#357,#358));
#708=EDGE_LOOP('',(#359,#360,#361,#362));
#709=EDGE_LOOP('',(#363,#364,#365,#366));
#710=EDGE_LOOP('',(#367,#368,#369,#370,#371,#372));
#711=EDGE_LOOP('',(#373,#374,#375,#376));
#712=EDGE_LOOP('',(#377,#378,#379,#380,#381,#382));
#713=EDGE_LOOP('',(#383,#384,#385,#386));
#714=EDGE_LOOP('',(#387));
#715=EDGE_LOOP('',(#388));
#716=EDGE_LOOP('',(#389));
#717=EDGE_LOOP('',(#390));
#718=EDGE_LOOP('',(#391));
#719=EDGE_LOOP('',(#392));
#720=EDGE_LOOP('',(#393));
#721=EDGE_LOOP('',(#394));
#722=EDGE_LOOP('',(#395));
#723=EDGE_LOOP('',(#396));
#724=EDGE_LOOP('',(#397));
#725=EDGE_LOOP('',(#398));
#726=EDGE_LOOP('',(#399));
#727=EDGE_LOOP('',(#400,#401,#402,#403));
#728=EDGE_LOOP('',(#404,#405,#406,#407));
#729=EDGE_LOOP('',(#408,#409,#410,#411));
#730=EDGE_LOOP('',(#412,#413,#414,#415));
#731=FACE_BOUND('',#651,.T.);
#732=FACE_BOUND('',#652,.T.);
#733=FACE_BOUND('',#653,.T.);
#734=FACE_BOUND('',#654,.T.);
#735=FACE_BOUND('',#655,.T.);
#736=FACE_BOUND('',#656,.T.);
#737=FACE_BOUND('',#657,.T.);
#738=FACE_BOUND('',#658,.T.);
#739=FACE_BOUND('',#659,.T.);
#740=FACE_BOUND('',#660,.T.);
#741=FACE_BOUND('',#661,.T.);
#742=FACE_BOUND('',#662,.T.);
#743=FACE_BOUND('',#663,.T.);
#744=FACE_BOUND('',#664,.T.);
#745=FACE_BOUND('',#665,.T.);
#746=FACE_BOUND('',#666,.T.);
#747=FACE_BOUND('',#667,.T.);
#748=FACE_BOUND('',#668,.T.);
#749=FACE_BOUND('',#669,.T.);
#750=FACE_BOUND('',#670,.T.);
#751=FACE_BOUND('',#671,.T.);
#752=FACE_BOUND('',#672,.T.);
#753=FACE_BOUND('',#673,.T.);
#754=FACE_BOUND('',#674,.T.);
#755=FACE_BOUND('',#675,.T.);
#756=FACE_BOUND('',#676,.T.);
#757=FACE_BOUND('',#677,.T.);
#758=FACE_BOUND('',#678,.T.);
#759=FACE_BOUND('',#679,.T.);
#760=FACE_BOUND('',#680,.T.);
#761=FACE_BOUND('',#681,.T.);
#762=FACE_BOUND('',#682,.T.);
#763=FACE_BOUND('',#683,.T.);
#764=FACE_BOUND('',#684,.T.);
#765=FACE_BOUND('',#685,.T.);
#766=FACE_BOUND('',#686,.T.);
#767=FACE_BOUND('',#687,.T.);
#768=FACE_BOUND('',#688,.T.);
#769=FACE_BOUND('',#689,.T.);
#770=FACE_BOUND('',#690,.T.);
#771=FACE_BOUND('',#691,.T.);
#772=FACE_BOUND('',#692,.T.);
#773=FACE_BOUND('',#693,.T.);
#774=FACE_BOUND('',#694,.T.);
#775=FACE_BOUND('',#695,.T.);
#776=FACE_BOUND('',#696,.T.);
#777=FACE_BOUND('',#697,.T.);
#778=FACE_BOUND('',#698,.T.);
#779=FACE_BOUND('',#699,.T.);
#780=FACE_BOUND('',#700,.T.);
#781=FACE_BOUND('',#701,.T.);
#782=FACE_BOUND('',#702,.T.);
#783=FACE_BOUND('',#703,.T.);
#784=FACE_BOUND('',#704,.T.);
#785=FACE_BOUND('',#705,.T.);
#786=FACE_BOUND('',#706,.T.);
#787=FACE_BOUND('',#707,.T.);
#788=FACE_BOUND('',#708,.T.);
#789=FACE_BOUND('',#709,.T.);
#790=FACE_BOUND('',#710,.T.);
#791=FACE_BOUND('',#711,.T.);
#792=FACE_BOUND('',#712,.T.);
#793=FACE_BOUND('',#713,.T.);
#794=FACE_BOUND('',#714,.T.);
#795=FACE_BOUND('',#715,.T.);
#796=FACE_BOUND('',#716,.T.);
#797=FACE_BOUND('',#717,.T.);
#798=FACE_BOUND('',#718,.T.);
#799=FACE_BOUND('',#719,.T.);
#800=FACE_BOUND('',#720,.T.);
#801=FACE_BOUND('',#721,.T.);
#802=FACE_BOUND('',#722,.T.);
#803=FACE_BOUND('',#723,.T.);
#804=FACE_BOUND('',#724,.T.);
#805=FACE_BOUND('',#725,.T.);
#806=FACE_BOUND('',#726,.T.);
#807=FACE_BOUND('',#727,.T.);
#808=FACE_BOUND('',#728,.T.);
#809=FACE_BOUND('',#729,.T.);
#810=FACE_BOUND('',#730,.T.);
#811=PLANE('',#918);
#812=PLANE('',#921);
#813=PLANE('',#924);
#814=PLANE('',#939);
#815=PLANE('',#944);
#816=PLANE('',#949);
#817=PLANE('',#957);
#818=PLANE('',#958);
#819=PLANE('',#959);
#820=PLANE('',#960);
#821=PLANE('',#961);
#822=PLANE('',#964);
#823=PLANE('',#965);
#824=PLANE('',#968);
#825=PLANE('',#969);
#826=PLANE('',#970);
#827=PLANE('',#975);
#828=PLANE('',#980);
#829=PLANE('',#982);
#830=PLANE('',#984);
#831=PLANE('',#985);
#832=PLANE('',#987);
#833=PLANE('',#989);
#834=PLANE('',#990);
#835=PLANE('',#991);
#836=PLANE('',#992);
#837=PLANE('',#993);
#838=PLANE('',#994);
#839=PLANE('',#995);
#840=PLANE('',#996);
#841=PLANE('',#997);
#842=PLANE('',#998);
#843=PLANE('',#1001);
#844=PLANE('',#1007);
#845=PLANE('',#1008);
#846=PLANE('',#1009);
#847=PLANE('',#1010);
#848=ADVANCED_FACE('',(#731,#732),#811,.F.);
#849=ADVANCED_FACE('',(#733,#734),#812,.F.);
#850=ADVANCED_FACE('',(#735,#736,#737,#738),#813,.T.);
#851=ADVANCED_FACE('',(#739,#740,#741),#20,.T.);
#852=ADVANCED_FACE('',(#742,#743),#814,.T.);
#853=ADVANCED_FACE('',(#744),#815,.F.);
#854=ADVANCED_FACE('',(#745,#746),#21,.T.);
#855=ADVANCED_FACE('',(#747,#748),#816,.T.);
#856=ADVANCED_FACE('',(#749,#750),#17,.T.);
#857=ADVANCED_FACE('',(#751,#752),#22,.T.);
#858=ADVANCED_FACE('',(#753),#23,.F.);
#859=ADVANCED_FACE('',(#754),#817,.T.);
#860=ADVANCED_FACE('',(#755),#818,.F.);
#861=ADVANCED_FACE('',(#756),#819,.T.);
#862=ADVANCED_FACE('',(#757),#820,.T.);
#863=ADVANCED_FACE('',(#758),#821,.F.);
#864=ADVANCED_FACE('',(#759),#24,.F.);
#865=ADVANCED_FACE('',(#760),#822,.T.);
#866=ADVANCED_FACE('',(#761),#823,.F.);
#867=ADVANCED_FACE('',(#762),#25,.F.);
#868=ADVANCED_FACE('',(#763),#824,.T.);
#869=ADVANCED_FACE('',(#764),#825,.T.);
#870=ADVANCED_FACE('',(#765),#826,.F.);
#871=ADVANCED_FACE('',(#766,#767),#26,.T.);
#872=ADVANCED_FACE('',(#768,#769),#827,.F.);
#873=ADVANCED_FACE('',(#770,#771),#27,.T.);
#874=ADVANCED_FACE('',(#772,#773),#28,.F.);
#875=ADVANCED_FACE('',(#774,#775),#828,.F.);
#876=ADVANCED_FACE('',(#776),#29,.T.);
#877=ADVANCED_FACE('',(#777),#829,.F.);
#878=ADVANCED_FACE('',(#778),#30,.T.);
#879=ADVANCED_FACE('',(#779),#830,.T.);
#880=ADVANCED_FACE('',(#780),#831,.F.);
#881=ADVANCED_FACE('',(#781),#31,.T.);
#882=ADVANCED_FACE('',(#782),#832,.T.);
#883=ADVANCED_FACE('',(#783),#32,.T.);
#884=ADVANCED_FACE('',(#784),#833,.F.);
#885=ADVANCED_FACE('',(#785),#834,.T.);
#886=ADVANCED_FACE('',(#786),#835,.T.);
#887=ADVANCED_FACE('',(#787),#836,.F.);
#888=ADVANCED_FACE('',(#788),#837,.F.);
#889=ADVANCED_FACE('',(#789),#838,.F.);
#890=ADVANCED_FACE('',(#790),#839,.T.);
#891=ADVANCED_FACE('',(#791),#840,.T.);
#892=ADVANCED_FACE('',(#792),#841,.F.);
#893=ADVANCED_FACE('',(#793),#842,.F.);
#894=ADVANCED_FACE('',(#794,#795),#33,.T.);
#895=ADVANCED_FACE('',(#796),#843,.F.);
#896=ADVANCED_FACE('',(#797,#798),#13,.T.);
#897=ADVANCED_FACE('',(#799,#800),#12,.F.);
#898=ADVANCED_FACE('',(#801,#802),#14,.T.);
#899=ADVANCED_FACE('',(#803,#804),#15,.T.);
#900=ADVANCED_FACE('',(#805,#806),#16,.F.);
#901=ADVANCED_FACE('',(#807),#844,.T.);
#902=ADVANCED_FACE('',(#808),#845,.F.);
#903=ADVANCED_FACE('',(#809),#846,.T.);
#904=ADVANCED_FACE('',(#810),#847,.F.);
#905=CLOSED_SHELL('',(#848,#849,#850,#851,#852,#853,#854,#855,#856,#857,
#858,#859,#860,#861,#862,#863,#864,#865,#866,#867,#868,#869,#870,#871,#872,
#873,#874,#875,#876,#877,#878,#879,#880,#881,#882,#883,#884,#885,#886,#887,
#888,#889,#890,#891,#892,#893,#894,#895,#896,#897,#898,#899,#900,#901,#902,
#903,#904));
#906=STYLED_ITEM('',(#907),#914);
#907=PRESENTATION_STYLE_ASSIGNMENT((#908));
#908=SURFACE_STYLE_USAGE(.BOTH.,#909);
#909=SURFACE_SIDE_STYLE('',(#910));
#910=SURFACE_STYLE_FILL_AREA(#911);
#911=FILL_AREA_STYLE('',(#912));
#912=FILL_AREA_STYLE_COLOUR('',#913);
#913=COLOUR_RGB('',0.8,0.8,0.8);
#914=MANIFOLD_SOLID_BREP('Air Pump',#905);
#915=SHAPE_DEFINITION_REPRESENTATION(#1618,#916);
#916=SHAPE_REPRESENTATION('Air Pump',(#917),#1613);
#917=AXIS2_PLACEMENT_3D('',#1275,#1011,#1012);
#918=AXIS2_PLACEMENT_3D('',#1276,#1013,#1014);
#919=AXIS2_PLACEMENT_3D('',#1277,#1015,#1016);
#920=AXIS2_PLACEMENT_3D('',#1282,#1018,#1019);
#921=AXIS2_PLACEMENT_3D('',#1293,#1025,#1026);
#922=AXIS2_PLACEMENT_3D('',#1297,#1028,#1029);
#923=AXIS2_PLACEMENT_3D('',#1301,#1031,#1032);
#924=AXIS2_PLACEMENT_3D('',#1310,#1037,#1038);
#925=AXIS2_PLACEMENT_3D('',#1311,#1039,#1040);
#926=AXIS2_PLACEMENT_3D('',#1313,#1041,#1042);
#927=AXIS2_PLACEMENT_3D('',#1318,#1044,#1045);
#928=AXIS2_PLACEMENT_3D('',#1322,#1047,#1048);
#929=AXIS2_PLACEMENT_3D('',#1323,#1049,#1050);
#930=AXIS2_PLACEMENT_3D('',#1328,#1052,#1053);
#931=AXIS2_PLACEMENT_3D('',#1331,#1055,#1056);
#932=AXIS2_PLACEMENT_3D('',#1348,#1057,#1058);
#933=AXIS2_PLACEMENT_3D('',#1353,#1060,#1061);
#934=AXIS2_PLACEMENT_3D('',#1357,#1063,#1064);
#935=AXIS2_PLACEMENT_3D('',#1361,#1066,#1067);
#936=AXIS2_PLACEMENT_3D('',#1365,#1069,#1070);
#937=AXIS2_PLACEMENT_3D('',#1369,#1072,#1073);
#938=AXIS2_PLACEMENT_3D('',#1372,#1075,#1076);
#939=AXIS2_PLACEMENT_3D('',#1374,#1077,#1078);
#940=AXIS2_PLACEMENT_3D('',#1375,#1079,#1080);
#941=AXIS2_PLACEMENT_3D('',#1381,#1083,#1084);
#942=AXIS2_PLACEMENT_3D('',#1386,#1087,#1088);
#943=AXIS2_PLACEMENT_3D('',#1391,#1091,#1092);
#944=AXIS2_PLACEMENT_3D('',#1392,#1093,#1094);
#945=AXIS2_PLACEMENT_3D('',#1393,#1095,#1096);
#946=AXIS2_PLACEMENT_3D('',#1395,#1097,#1098);
#947=AXIS2_PLACEMENT_3D('',#1396,#1099,#1100);
#948=AXIS2_PLACEMENT_3D('',#1398,#1101,#1102);
#949=AXIS2_PLACEMENT_3D('',#1400,#1103,#1104);
#950=AXIS2_PLACEMENT_3D('',#1401,#1105,#1106);
#951=AXIS2_PLACEMENT_3D('',#1403,#1107,#1108);
#952=AXIS2_PLACEMENT_3D('',#1404,#1109,#1110);
#953=AXIS2_PLACEMENT_3D('',#1406,#1111,#1112);
#954=AXIS2_PLACEMENT_3D('',#1407,#1113,#1114);
#955=AXIS2_PLACEMENT_3D('',#1409,#1115,#1116);
#956=AXIS2_PLACEMENT_3D('',#1412,#1118,#1119);
#957=AXIS2_PLACEMENT_3D('',#1415,#1121,#1122);
#958=AXIS2_PLACEMENT_3D('',#1417,#1124,#1125);
#959=AXIS2_PLACEMENT_3D('',#1419,#1127,#1128);
#960=AXIS2_PLACEMENT_3D('',#1420,#1129,#1130);
#961=AXIS2_PLACEMENT_3D('',#1424,#1133,#1134);
#962=AXIS2_PLACEMENT_3D('',#1428,#1137,#1138);
#963=AXIS2_PLACEMENT_3D('',#1429,#1139,#1140);
#964=AXIS2_PLACEMENT_3D('',#1430,#1141,#1142);
#965=AXIS2_PLACEMENT_3D('',#1431,#1143,#1144);
#966=AXIS2_PLACEMENT_3D('',#1435,#1147,#1148);
#967=AXIS2_PLACEMENT_3D('',#1438,#1150,#1151);
#968=AXIS2_PLACEMENT_3D('',#1439,#1152,#1153);
#969=AXIS2_PLACEMENT_3D('',#1441,#1155,#1156);
#970=AXIS2_PLACEMENT_3D('',#1442,#1157,#1158);
#971=AXIS2_PLACEMENT_3D('',#1443,#1159,#1160);
#972=AXIS2_PLACEMENT_3D('',#1445,#1161,#1162);
#973=AXIS2_PLACEMENT_3D('',#1446,#1163,#1164);
#974=AXIS2_PLACEMENT_3D('',#1448,#1165,#1166);
#975=AXIS2_PLACEMENT_3D('',#1450,#1167,#1168);
#976=AXIS2_PLACEMENT_3D('',#1451,#1169,#1170);
#977=AXIS2_PLACEMENT_3D('',#1453,#1171,#1172);
#978=AXIS2_PLACEMENT_3D('',#1467,#1173,#1174);
#979=AXIS2_PLACEMENT_3D('',#1468,#1175,#1176);
#980=AXIS2_PLACEMENT_3D('',#1470,#1177,#1178);
#981=AXIS2_PLACEMENT_3D('',#1471,#1179,#1180);
#982=AXIS2_PLACEMENT_3D('',#1474,#1183,#1184);
#983=AXIS2_PLACEMENT_3D('',#1476,#1186,#1187);
#984=AXIS2_PLACEMENT_3D('',#1478,#1189,#1190);
#985=AXIS2_PLACEMENT_3D('',#1479,#1191,#1192);
#986=AXIS2_PLACEMENT_3D('',#1482,#1195,#1196);
#987=AXIS2_PLACEMENT_3D('',#1484,#1198,#1199);
#988=AXIS2_PLACEMENT_3D('',#1486,#1201,#1202);
#989=AXIS2_PLACEMENT_3D('',#1487,#1203,#1204);
#990=AXIS2_PLACEMENT_3D('',#1493,#1208,#1209);
#991=AXIS2_PLACEMENT_3D('',#1501,#1214,#1215);
#992=AXIS2_PLACEMENT_3D('',#1505,#1218,#1219);
#993=AXIS2_PLACEMENT_3D('',#1511,#1223,#1224);
#994=AXIS2_PLACEMENT_3D('',#1514,#1227,#1228);
#995=AXIS2_PLACEMENT_3D('',#1520,#1232,#1233);
#996=AXIS2_PLACEMENT_3D('',#1528,#1238,#1239);
#997=AXIS2_PLACEMENT_3D('',#1532,#1242,#1243);
#998=AXIS2_PLACEMENT_3D('',#1538,#1247,#1248);
#999=AXIS2_PLACEMENT_3D('',#1541,#1251,#1252);
#1000=AXIS2_PLACEMENT_3D('',#1542,#1253,#1254);
#1001=AXIS2_PLACEMENT_3D('',#1544,#1255,#1256);
#1002=AXIS2_PLACEMENT_3D('',#1545,#1257,#1258);
#1003=AXIS2_PLACEMENT_3D('',#1547,#1259,#1260);
#1004=AXIS2_PLACEMENT_3D('',#1605,#1261,#1262);
#1005=AXIS2_PLACEMENT_3D('',#1606,#1263,#1264);
#1006=AXIS2_PLACEMENT_3D('',#1607,#1265,#1266);
#1007=AXIS2_PLACEMENT_3D('',#1608,#1267,#1268);
#1008=AXIS2_PLACEMENT_3D('',#1609,#1269,#1270);
#1009=AXIS2_PLACEMENT_3D('',#1610,#1271,#1272);
#1010=AXIS2_PLACEMENT_3D('',#1611,#1273,#1274);
#1011=DIRECTION('',(0.,0.,1.));
#1012=DIRECTION('',(1.,0.,0.));
#1013=DIRECTION('',(0.,-1.,0.));
#1014=DIRECTION('',(1.,0.,0.));
#1015=DIRECTION('',(0.,1.,0.));
#1016=DIRECTION('',(0.,0.,-1.));
#1017=DIRECTION('',(0.,0.,-1.));
#1018=DIRECTION('',(0.,-1.,0.));
#1019=DIRECTION('',(0.,0.,-1.));
#1020=DIRECTION('',(0.,0.,-1.));
#1021=DIRECTION('',(0.,0.,1.));
#1022=DIRECTION('',(1.,0.,0.));
#1023=DIRECTION('',(0.,0.,1.));
#1024=DIRECTION('',(1.,0.,0.));
#1025=DIRECTION('',(0.,-1.,0.));
#1026=DIRECTION('',(1.,0.,0.));
#1027=DIRECTION('',(0.,0.,-1.));
#1028=DIRECTION('',(0.,-1.,0.));
#1029=DIRECTION('',(0.,0.,-1.));
#1030=DIRECTION('',(0.,0.,-1.));
#1031=DIRECTION('',(0.,-1.,0.));
#1032=DIRECTION('',(0.,0.,-1.));
#1033=DIRECTION('',(0.,0.,1.));
#1034=DIRECTION('',(1.,0.,6.77626357803441E-17));
#1035=DIRECTION('',(0.,0.,1.));
#1036=DIRECTION('',(1.,0.,6.77626357803441E-17));
#1037=DIRECTION('',(0.,1.,0.));
#1038=DIRECTION('',(0.,0.,1.));
#1039=DIRECTION('',(0.,1.,0.));
#1040=DIRECTION('',(0.,0.,1.));
#1041=DIRECTION('',(0.,1.,0.));
#1042=DIRECTION('',(0.,0.,1.));
#1043=DIRECTION('',(0.,0.,1.));
#1044=DIRECTION('',(0.,1.,0.));
#1045=DIRECTION('',(0.,0.,1.));
#1046=DIRECTION('',(0.,0.,1.));
#1047=DIRECTION('',(0.,1.,0.));
#1048=DIRECTION('',(0.,0.,1.));
#1049=DIRECTION('',(0.,1.,0.));
#1050=DIRECTION('',(0.,0.,1.));
#1051=DIRECTION('',(0.,0.,1.));
#1052=DIRECTION('',(0.,1.,0.));
#1053=DIRECTION('',(0.,0.,1.));
#1054=DIRECTION('',(0.,0.,1.));
#1055=DIRECTION('',(0.,-1.,0.));
#1056=DIRECTION('',(0.,0.,-1.));
#1057=DIRECTION('',(0.,-1.,0.));
#1058=DIRECTION('',(0.,0.,-1.));
#1059=DIRECTION('',(0.,-1.,0.));
#1060=DIRECTION('',(0.,-1.,0.));
#1061=DIRECTION('',(0.,0.,-1.));
#1062=DIRECTION('',(0.,-1.,0.));
#1063=DIRECTION('',(0.,-1.,0.));
#1064=DIRECTION('',(0.,0.,-1.));
#1065=DIRECTION('',(0.,-1.,0.));
#1066=DIRECTION('',(0.,-1.,0.));
#1067=DIRECTION('',(0.,0.,-1.));
#1068=DIRECTION('',(0.,-1.,0.));
#1069=DIRECTION('',(0.,-1.,0.));
#1070=DIRECTION('',(0.,0.,-1.));
#1071=DIRECTION('',(0.,-1.,0.));
#1072=DIRECTION('',(0.,-1.,0.));
#1073=DIRECTION('',(0.,0.,-1.));
#1074=DIRECTION('',(0.,-1.,0.));
#1075=DIRECTION('',(0.,-1.,0.));
#1076=DIRECTION('',(0.,0.,-1.));
#1077=DIRECTION('',(0.,-1.,0.));
#1078=DIRECTION('',(0.,0.,-1.));
#1079=DIRECTION('',(0.,-1.,0.));
#1080=DIRECTION('',(0.,0.,-1.));
#1081=DIRECTION('',(-0.575265344673924,0.,-0.817966859485879));
#1082=DIRECTION('',(0.99601275210551,0.,-0.0892109726614897));
#1083=DIRECTION('',(0.,-1.,0.));
#1084=DIRECTION('',(0.,0.,-1.));
#1085=DIRECTION('',(0.99601275210551,0.,-0.0892109726614899));
#1086=DIRECTION('',(-0.420747407431586,0.,0.907177832147368));
#1087=DIRECTION('',(0.,1.,0.));
#1088=DIRECTION('',(0.,0.,-1.));
#1089=DIRECTION('',(-0.420747407431587,0.,0.907177832147368));
#1090=DIRECTION('',(-0.575265344673923,0.,-0.817966859485879));
#1091=DIRECTION('',(0.,-1.,0.));
#1092=DIRECTION('',(0.,0.,-1.));
#1093=DIRECTION('',(0.,1.,0.));
#1094=DIRECTION('',(0.,0.,1.));
#1095=DIRECTION('',(0.,1.,0.));
#1096=DIRECTION('',(0.,0.,1.));
#1097=DIRECTION('',(0.,-1.,0.));
#1098=DIRECTION('',(0.,0.,-1.));
#1099=DIRECTION('',(0.,1.,0.));
#1100=DIRECTION('',(0.,0.,1.));
#1101=DIRECTION('',(0.,-1.,0.));
#1102=DIRECTION('',(0.,0.,-1.));
#1103=DIRECTION('',(0.,1.,0.));
#1104=DIRECTION('',(0.,0.,1.));
#1105=DIRECTION('',(0.,-1.,0.));
#1106=DIRECTION('',(0.,0.,-1.));
#1107=DIRECTION('',(0.,1.,0.));
#1108=DIRECTION('',(0.,0.,1.));
#1109=DIRECTION('',(0.,-1.,0.));
#1110=DIRECTION('',(0.,0.,-1.));
#1111=DIRECTION('',(0.,-1.,0.));
#1112=DIRECTION('',(0.,0.,-1.));
#1113=DIRECTION('',(0.,-1.,0.));
#1114=DIRECTION('',(0.,0.,-1.));
#1115=DIRECTION('',(0.,-1.,0.));
#1116=DIRECTION('',(0.,0.,-1.));
#1117=DIRECTION('',(0.,-1.,0.));
#1118=DIRECTION('',(0.,1.,0.));
#1119=DIRECTION('',(0.,0.,-1.));
#1120=DIRECTION('',(0.,-1.,0.));
#1121=DIRECTION('',(0.907177832147368,0.,0.420747407431587));
#1122=DIRECTION('',(0.420747407431587,0.,-0.907177832147368));
#1123=DIRECTION('',(-0.420747407431586,0.,0.907177832147368));
#1124=DIRECTION('',(0.907177832147368,0.,0.420747407431587));
#1125=DIRECTION('',(0.420747407431587,0.,-0.907177832147368));
#1126=DIRECTION('',(-0.420747407431587,0.,0.907177832147368));
#1127=DIRECTION('',(0.,-1.,0.));
#1128=DIRECTION('',(1.,0.,0.));
#1129=DIRECTION('',(-0.0892109726614897,0.,-0.99601275210551));
#1130=DIRECTION('',(-0.99601275210551,0.,0.0892109726614897));
#1131=DIRECTION('',(0.99601275210551,0.,-0.0892109726614897));
#1132=DIRECTION('',(0.,-1.,0.));
#1133=DIRECTION('',(-0.0892109726614899,0.,-0.99601275210551));
#1134=DIRECTION('',(-0.99601275210551,0.,0.0892109726614899));
#1135=DIRECTION('',(0.,-1.,0.));
#1136=DIRECTION('',(0.99601275210551,0.,-0.0892109726614899));
#1137=DIRECTION('',(0.,-1.,0.));
#1138=DIRECTION('',(0.,0.,-1.));
#1139=DIRECTION('',(0.,-1.,0.));
#1140=DIRECTION('',(0.,0.,-1.));
#1141=DIRECTION('',(0.,-1.,0.));
#1142=DIRECTION('',(1.,0.,0.));
#1143=DIRECTION('',(-0.817966859485879,0.,0.575265344673924));
#1144=DIRECTION('',(0.575265344673924,0.,0.817966859485879));
#1145=DIRECTION('',(0.,-1.,0.));
#1146=DIRECTION('',(-0.575265344673924,0.,-0.817966859485879));
#1147=DIRECTION('',(0.,-1.,0.));
#1148=DIRECTION('',(0.,0.,-1.));
#1149=DIRECTION('',(0.,-1.,0.));
#1150=DIRECTION('',(0.,-1.,0.));
#1151=DIRECTION('',(0.,0.,-1.));
#1152=DIRECTION('',(-0.817966859485879,0.,0.575265344673923));
#1153=DIRECTION('',(0.575265344673923,0.,0.81796685948588));
#1154=DIRECTION('',(-0.575265344673923,0.,-0.817966859485879));
#1155=DIRECTION('',(0.,-1.,0.));
#1156=DIRECTION('',(1.,0.,0.));
#1157=DIRECTION('',(0.,0.,-1.));
#1158=DIRECTION('',(-1.,0.,0.));
#1159=DIRECTION('',(0.,0.,-1.));
#1160=DIRECTION('',(-1.,0.,0.));
#1161=DIRECTION('',(0.,0.,-1.));
#1162=DIRECTION('',(-1.,0.,0.));
#1163=DIRECTION('',(0.,0.,-1.));
#1164=DIRECTION('',(-1.,0.,0.));
#1165=DIRECTION('',(0.,0.,-1.));
#1166=DIRECTION('',(-1.,0.,0.));
#1167=DIRECTION('',(0.,0.,-1.));
#1168=DIRECTION('',(-1.,0.,0.));
#1169=DIRECTION('',(0.,0.,-1.));
#1170=DIRECTION('',(-1.,0.,0.));
#1171=DIRECTION('',(0.,0.,-1.));
#1172=DIRECTION('',(-1.,0.,0.));
#1173=DIRECTION('',(0.,-1.,0.));
#1174=DIRECTION('',(0.,0.,-1.));
#1175=DIRECTION('',(0.,-1.,0.));
#1176=DIRECTION('',(0.,0.,-1.));
#1177=DIRECTION('',(0.,-1.,0.));
#1178=DIRECTION('',(1.,0.,0.));
#1179=DIRECTION('',(0.,-1.,0.));
#1180=DIRECTION('',(0.,0.,-1.));
#1181=DIRECTION('',(0.,-1.,0.));
#1182=DIRECTION('',(0.,-1.,0.));
#1183=DIRECTION('',(-1.,0.,0.));
#1184=DIRECTION('',(0.,0.,1.));
#1185=DIRECTION('',(0.,-1.,0.));
#1186=DIRECTION('',(0.,-1.,0.));
#1187=DIRECTION('',(0.,0.,-1.));
#1188=DIRECTION('',(0.,-1.,0.));
#1189=DIRECTION('',(-1.,0.,0.));
#1190=DIRECTION('',(0.,0.,1.));
#1191=DIRECTION('',(-1.,0.,0.));
#1192=DIRECTION('',(0.,0.,1.));
#1193=DIRECTION('',(0.,-1.,0.));
#1194=DIRECTION('',(0.,-1.,0.));
#1195=DIRECTION('',(0.,-1.,0.));
#1196=DIRECTION('',(0.,0.,-1.));
#1197=DIRECTION('',(0.,-1.,0.));
#1198=DIRECTION('',(-1.,0.,0.));
#1199=DIRECTION('',(0.,0.,1.));
#1200=DIRECTION('',(0.,-1.,0.));
#1201=DIRECTION('',(0.,-1.,0.));
#1202=DIRECTION('',(0.,0.,-1.));
#1203=DIRECTION('',(1.,0.,0.));
#1204=DIRECTION('',(0.,0.,-1.));
#1205=DIRECTION('',(0.,-1.,0.));
#1206=DIRECTION('',(0.,0.,-1.));
#1207=DIRECTION('',(0.,-1.,0.));
#1208=DIRECTION('',(6.77626357803441E-17,0.,-1.));
#1209=DIRECTION('',(-1.,0.,-6.77626357803441E-17));
#1210=DIRECTION('',(1.,0.,6.77626357803441E-17));
#1211=DIRECTION('',(0.707106781186548,-0.707106781186548,4.79154192713555E-17));
#1212=DIRECTION('',(0.,-1.,0.));
#1213=DIRECTION('',(-0.707106781186548,-0.707106781186548,-4.79154192713555E-17));
#1214=DIRECTION('',(1.,0.,0.));
#1215=DIRECTION('',(0.,0.,-1.));
#1216=DIRECTION('',(0.,0.,1.));
#1217=DIRECTION('',(0.,-1.,0.));
#1218=DIRECTION('',(6.77626357803441E-17,0.,-1.));
#1219=DIRECTION('',(-1.,0.,-6.77626357803441E-17));
#1220=DIRECTION('',(-0.707106781186548,0.707106781186548,-4.79154192713555E-17));
#1221=DIRECTION('',(1.,0.,6.77626357803441E-17));
#1222=DIRECTION('',(0.707106781186548,0.707106781186548,4.79154192713555E-17));
#1223=DIRECTION('',(0.,-1.,0.));
#1224=DIRECTION('',(1.,0.,0.));
#1225=DIRECTION('',(0.,0.,-1.));
#1226=DIRECTION('',(0.,0.,1.));
#1227=DIRECTION('',(1.,0.,0.));
#1228=DIRECTION('',(0.,0.,-1.));
#1229=DIRECTION('',(0.,-1.,0.));
#1230=DIRECTION('',(0.,0.,-1.));
#1231=DIRECTION('',(0.,-1.,0.));
#1232=DIRECTION('',(0.,0.,-1.));
#1233=DIRECTION('',(-1.,0.,0.));
#1234=DIRECTION('',(1.,0.,0.));
#1235=DIRECTION('',(0.707106781186548,-0.707106781186548,0.));
#1236=DIRECTION('',(0.,-1.,0.));
#1237=DIRECTION('',(-0.707106781186548,-0.707106781186548,0.));
#1238=DIRECTION('',(1.,0.,0.));
#1239=DIRECTION('',(0.,0.,-1.));
#1240=DIRECTION('',(0.,0.,1.));
#1241=DIRECTION('',(0.,-1.,0.));
#1242=DIRECTION('',(0.,0.,-1.));
#1243=DIRECTION('',(-1.,0.,0.));
#1244=DIRECTION('',(-0.707106781186548,0.707106781186548,0.));
#1245=DIRECTION('',(1.,0.,0.));
#1246=DIRECTION('',(0.707106781186548,0.707106781186548,0.));
#1247=DIRECTION('',(0.,-1.,0.));
#1248=DIRECTION('',(1.,0.,0.));
#1249=DIRECTION('',(0.,0.,-1.));
#1250=DIRECTION('',(0.,0.,1.));
#1251=DIRECTION('',(0.,-1.,0.));
#1252=DIRECTION('',(0.,0.,-1.));
#1253=DIRECTION('',(0.,-1.,0.));
#1254=DIRECTION('',(0.,0.,-1.));
#1255=DIRECTION('',(0.,-1.,0.));
#1256=DIRECTION('',(1.,0.,0.));
#1257=DIRECTION('',(0.,-1.,0.));
#1258=DIRECTION('',(0.,0.,-1.));
#1259=DIRECTION('',(0.,-1.,0.));
#1260=DIRECTION('',(0.,0.,-1.));
#1261=DIRECTION('',(0.,0.,-1.));
#1262=DIRECTION('',(-1.,0.,0.));
#1263=DIRECTION('',(0.,1.,0.));
#1264=DIRECTION('',(0.,0.,1.));
#1265=DIRECTION('',(0.,-1.,0.));
#1266=DIRECTION('',(0.,0.,-1.));
#1267=DIRECTION('',(0.707106781186548,0.707106781186548,0.));
#1268=DIRECTION('',(0.,0.,-1.));
#1269=DIRECTION('',(0.707106781186548,-0.707106781186548,0.));
#1270=DIRECTION('',(0.,0.,1.));
#1271=DIRECTION('',(0.707106781186548,0.707106781186548,0.));
#1272=DIRECTION('',(0.,0.,-1.));
#1273=DIRECTION('',(0.707106781186548,-0.707106781186548,0.));
#1274=DIRECTION('',(0.,0.,1.));
#1275=CARTESIAN_POINT('',(0.,0.,0.));
#1276=CARTESIAN_POINT('',(0.,0.059,0.));
#1277=CARTESIAN_POINT('',(-0.009,0.059,-0.0015));
#1278=CARTESIAN_POINT('',(-0.0075,0.059,-0.0015));
#1279=CARTESIAN_POINT('',(-0.0105,0.059,-0.0015));
#1280=CARTESIAN_POINT('',(-0.0105,0.059,0.));
#1281=CARTESIAN_POINT('',(-0.0105,0.059,0.0015));
#1282=CARTESIAN_POINT('',(-0.009,0.059,0.0015));
#1283=CARTESIAN_POINT('',(-0.0075,0.059,0.0015));
#1284=CARTESIAN_POINT('',(-0.0075,0.059,-2.16840434497101E-19));
#1285=CARTESIAN_POINT('',(-0.0102,0.059,0.));
#1286=CARTESIAN_POINT('',(-0.0102,0.059,-0.00025));
#1287=CARTESIAN_POINT('',(-0.0102,0.059,0.00025));
#1288=CARTESIAN_POINT('',(0.,0.059,-0.00025));
#1289=CARTESIAN_POINT('',(-0.0078,0.059,-0.00025));
#1290=CARTESIAN_POINT('',(-0.0078,0.059,0.));
#1291=CARTESIAN_POINT('',(-0.0078,0.059,0.00025));
#1292=CARTESIAN_POINT('',(0.,0.059,0.00025));
#1293=CARTESIAN_POINT('',(0.,0.059,0.));
#1294=CARTESIAN_POINT('',(0.0105,0.059,1.3010426069826E-18));
#1295=CARTESIAN_POINT('',(0.0105,0.059,0.0015));
#1296=CARTESIAN_POINT('',(0.0105,0.059,-0.0015));
#1297=CARTESIAN_POINT('',(0.009,0.059,-0.0015));
#1298=CARTESIAN_POINT('',(0.0075,0.059,-0.0015));
#1299=CARTESIAN_POINT('',(0.0075,0.059,-2.16840434497101E-19));
#1300=CARTESIAN_POINT('',(0.0075,0.059,0.0015));
#1301=CARTESIAN_POINT('',(0.009,0.059,0.0015));
#1302=CARTESIAN_POINT('',(0.0078,0.059,0.));
#1303=CARTESIAN_POINT('',(0.0078,0.059,-0.000249999999999996));
#1304=CARTESIAN_POINT('',(0.0078,0.059,0.000250000000000004));
#1305=CARTESIAN_POINT('',(1.69406589450858E-20,0.059,-0.000249999999999997));
#1306=CARTESIAN_POINT('',(0.0102,0.059,-0.000249999999999996));
#1307=CARTESIAN_POINT('',(0.0102,0.059,0.));
#1308=CARTESIAN_POINT('',(0.0102,0.059,0.000250000000000005));
#1309=CARTESIAN_POINT('',(-1.69406589450863E-20,0.059,0.000250000000000004));
#1310=CARTESIAN_POINT('',(0.,0.0581,-0.00575));
#1311=CARTESIAN_POINT('',(0.,0.0581,1.83697019872103E-19));
#1312=CARTESIAN_POINT('',(0.,0.0581,0.003));
#1313=CARTESIAN_POINT('',(0.,0.0581,6.73555739531044E-19));
#1314=CARTESIAN_POINT('',(0.,0.0581,0.011));
#1315=CARTESIAN_POINT('',(-0.0105,0.0581,-0.00575));
#1316=CARTESIAN_POINT('',(-0.0105,0.0581,-0.0015));
#1317=CARTESIAN_POINT('',(-0.0105,0.0581,0.0015));
#1318=CARTESIAN_POINT('',(-0.009,0.0581,-0.0015));
#1319=CARTESIAN_POINT('',(-0.0075,0.0581,-0.0015));
#1320=CARTESIAN_POINT('',(-0.0075,0.0581,-0.00575));
#1321=CARTESIAN_POINT('',(-0.0075,0.0581,0.0015));
#1322=CARTESIAN_POINT('',(-0.009,0.0581,0.0015));
#1323=CARTESIAN_POINT('',(0.009,0.0581,-0.0015));
#1324=CARTESIAN_POINT('',(0.0105,0.0581,-0.0015));
#1325=CARTESIAN_POINT('',(0.0075,0.0581,-0.0015));
#1326=CARTESIAN_POINT('',(0.0105,0.0581,-0.00575));
#1327=CARTESIAN_POINT('',(0.0105,0.0581,0.0015));
#1328=CARTESIAN_POINT('',(0.009,0.0581,0.0015));
#1329=CARTESIAN_POINT('',(0.0075,0.0581,0.0015));
#1330=CARTESIAN_POINT('',(0.0075,0.0581,-0.00575));
#1331=CARTESIAN_POINT('',(0.,0.02905,0.));
#1332=CARTESIAN_POINT('',(-0.00328121313816391,0.0182165351187806,0.0131319257373755));
#1333=CARTESIAN_POINT('',(-0.00425231658786207,0.0208496454881892,0.0128041033895293));
#1334=CARTESIAN_POINT('',(-0.00328080261549126,0.0234845284166517,0.0131320933911112));
#1335=CARTESIAN_POINT('',(-0.00157686634895917,0.0247623808632694,0.0134349181437381));
#1336=CARTESIAN_POINT('',(-1.47930817098779E-6,0.0251186078365017,0.0135324970495849));
#1337=CARTESIAN_POINT('',(0.00157663389693957,0.0247631869146418,0.013435093424474));
#1338=CARTESIAN_POINT('',(0.00328405509785268,0.0234808895364443,0.013131328931746));
#1339=CARTESIAN_POINT('',(0.00425057141100943,0.0208490610304112,0.0128045621809808));
#1340=CARTESIAN_POINT('',(0.00328319609225935,0.0182198793325711,0.0131313138504945));
#1341=CARTESIAN_POINT('',(0.00158112410990397,0.0169390802583038,0.0134345010835825));
#1342=CARTESIAN_POINT('',(7.9424059458095E-7,0.0165807645280117,0.0135326650734713));
#1343=CARTESIAN_POINT('',(-0.00157794197165567,0.0169378625664139,0.0134348383729139));
#1344=CARTESIAN_POINT('',(-0.00328121313816391,0.0182165351187806,0.0131319257373755));
#1345=CARTESIAN_POINT('',(-0.00425231658786207,0.0208496454881892,0.0128041033895293));
#1346=CARTESIAN_POINT('',(-0.00328080261549126,0.0234845284166517,0.0131320933911112));
#1347=CARTESIAN_POINT('',(-0.00386379310344828,0.02085,0.0129352658594149));
#1348=CARTESIAN_POINT('',(-6.50521303491303E-18,0.002,-7.80625564189563E-18));
#1349=CARTESIAN_POINT('',(0.00934336672925104,0.002,0.00974430593540272));
#1350=CARTESIAN_POINT('',(0.00601096511726421,0.002,0.0120879402033197));
#1351=CARTESIAN_POINT('',(0.00934336672925105,0.002,0.00974430593540272));
#1352=CARTESIAN_POINT('',(0.00934336672925105,0.,0.00974430593540272));
#1353=CARTESIAN_POINT('',(0.,0.,0.));
#1354=CARTESIAN_POINT('',(0.00746298073687,0.,-0.0112496185944728));
#1355=CARTESIAN_POINT('',(0.00746298073687,0.002,-0.0112496185944728));
#1356=CARTESIAN_POINT('',(0.00746298073687,0.002,-0.0112496185944728));
#1357=CARTESIAN_POINT('',(-4.16333634234433E-17,0.002,9.71445146547012E-17));
#1358=CARTESIAN_POINT('',(0.00376713311768072,0.002,-0.0129637459121071));
#1359=CARTESIAN_POINT('',(0.00376713311768072,0.002,-0.0129637459121071));
#1360=CARTESIAN_POINT('',(0.00376713311768072,0.,-0.0129637459121071));
#1361=CARTESIAN_POINT('',(0.,0.,0.));
#1362=CARTESIAN_POINT('',(-0.0134739458541342,0.,-0.000838321608846944));
#1363=CARTESIAN_POINT('',(-0.0134739458541342,0.002,-0.000838321608846944));
#1364=CARTESIAN_POINT('',(-0.0134739458541342,0.002,-0.000838321608846944));
#1365=CARTESIAN_POINT('',(2.42861286636753E-17,0.002,5.09575021068187E-18));
#1366=CARTESIAN_POINT('',(-0.0131104998469318,0.002,0.00321943997670438));
#1367=CARTESIAN_POINT('',(-0.0131104998469318,0.002,0.00321943997670437));
#1368=CARTESIAN_POINT('',(-0.0131104998469318,0.,0.00321943997670437));
#1369=CARTESIAN_POINT('',(0.,0.,0.));
#1370=CARTESIAN_POINT('',(0.00601096511726421,0.,0.0120879402033197));
#1371=CARTESIAN_POINT('',(0.00601096511726421,0.002,0.0120879402033197));
#1372=CARTESIAN_POINT('',(0.,0.0273,0.));
#1373=CARTESIAN_POINT('',(0.,0.0273,-0.0135));
#1374=CARTESIAN_POINT('',(0.,0.,-0.007825));
#1375=CARTESIAN_POINT('',(0.,0.,0.));
#1376=CARTESIAN_POINT('',(0.,0.,-0.00315));
#1377=CARTESIAN_POINT('',(0.00544886022326445,0.,0.0112886861215233));
#1378=CARTESIAN_POINT('',(0.0048867553292647,0.,0.010489432039727));
#1379=CARTESIAN_POINT('',(-0.0121372730610178,0.,0.0031322698998072));
#1380=CARTESIAN_POINT('',(-0.0111640462751039,0.,0.00304509982291004));
#1381=CARTESIAN_POINT('',(-0.0113457692787051,0.,0.00101621903013438));
#1382=CARTESIAN_POINT('',(-0.0115274922823063,0.,-0.00101266176264128));
#1383=CARTESIAN_POINT('',(-0.0125007190682203,0.,-0.00092549168574411));
#1384=CARTESIAN_POINT('',(0.00335601122576654,0.,-0.0120773217534136));
#1385=CARTESIAN_POINT('',(0.00294488933385237,0.,-0.01119089759472));
#1386=CARTESIAN_POINT('',(0.00479281314344701,0.,-0.0103338339359029));
#1387=CARTESIAN_POINT('',(0.00664073695304165,0.,-0.00947677027708571));
#1388=CARTESIAN_POINT('',(0.00705185884495583,0.,-0.0103631944357792));
#1389=CARTESIAN_POINT('',(0.00878126183525129,0.,0.00894505185360636));
#1390=CARTESIAN_POINT('',(0.00821915694125153,0.,0.00814579777181));
#1391=CARTESIAN_POINT('',(0.00655295613525812,0.,0.0093176149057685));
#1392=CARTESIAN_POINT('',(0.,-0.0063,-0.001075));
#1393=CARTESIAN_POINT('',(0.,-0.0063,0.));
#1394=CARTESIAN_POINT('',(0.,-0.0063,0.00115));
#1395=CARTESIAN_POINT('',(0.,0.02905,0.));
#1396=CARTESIAN_POINT('',(0.,-0.0053,0.));
#1397=CARTESIAN_POINT('',(0.,-0.0053,0.00215));
#1398=CARTESIAN_POINT('',(0.,-0.001,0.));
#1399=CARTESIAN_POINT('',(0.,-0.001,-0.00215));
#1400=CARTESIAN_POINT('',(0.,0.0273,-0.01225));
#1401=CARTESIAN_POINT('',(0.,0.0273,0.));
#1402=CARTESIAN_POINT('',(0.,0.0273,-0.011));
#1403=CARTESIAN_POINT('',(0.,0.0273,0.));
#1404=CARTESIAN_POINT('',(0.,0.0283,0.));
#1405=CARTESIAN_POINT('',(0.,0.0283,-0.0115));
#1406=CARTESIAN_POINT('',(0.,0.02905,0.));
#1407=CARTESIAN_POINT('',(0.,0.059,7.04171909509728E-19));
#1408=CARTESIAN_POINT('',(0.,0.059,-0.0115));
#1409=CARTESIAN_POINT('',(0.00479281314344701,0.002,-0.0103338339359029));
#1410=CARTESIAN_POINT('',(0.00294488933385237,0.002,-0.01119089759472));
#1411=CARTESIAN_POINT('',(0.00294488933385237,0.002,-0.01119089759472));
#1412=CARTESIAN_POINT('',(0.00479281314344701,0.002,-0.0103338339359029));
#1413=CARTESIAN_POINT('',(0.00664073695304165,0.002,-0.00947677027708571));
#1414=CARTESIAN_POINT('',(0.00664073695304165,0.002,-0.00947677027708571));
#1415=CARTESIAN_POINT('',(0.00335601122576654,0.002,-0.0120773217534136));
#1416=CARTESIAN_POINT('',(0.00335601122576654,0.002,-0.0120773217534136));
#1417=CARTESIAN_POINT('',(0.00705185884495583,0.002,-0.0103631944357792));
#1418=CARTESIAN_POINT('',(0.00705185884495583,0.002,-0.0103631944357792));
#1419=CARTESIAN_POINT('',(0.,0.002,0.004));
#1420=CARTESIAN_POINT('',(-0.0121372730610178,0.002,0.0031322698998072));
#1421=CARTESIAN_POINT('',(-0.0121372730610178,0.002,0.0031322698998072));
#1422=CARTESIAN_POINT('',(-0.0111640462751039,0.002,0.00304509982291004));
#1423=CARTESIAN_POINT('',(-0.0111640462751039,0.002,0.00304509982291004));
#1424=CARTESIAN_POINT('',(-0.0125007190682203,0.002,-0.00092549168574411));
#1425=CARTESIAN_POINT('',(-0.0115274922823063,0.002,-0.00101266176264128));
#1426=CARTESIAN_POINT('',(-0.0115274922823063,0.002,-0.00101266176264128));
#1427=CARTESIAN_POINT('',(-0.0125007190682203,0.002,-0.00092549168574411));
#1428=CARTESIAN_POINT('',(-0.0113457692787051,0.002,0.00101621903013438));
#1429=CARTESIAN_POINT('',(-0.0113457692787051,0.002,0.00101621903013438));
#1430=CARTESIAN_POINT('',(0.,0.002,0.004));
#1431=CARTESIAN_POINT('',(0.00544886022326445,0.002,0.0112886861215233));
#1432=CARTESIAN_POINT('',(0.0048867553292647,0.002,0.010489432039727));
#1433=CARTESIAN_POINT('',(0.0048867553292647,0.002,0.010489432039727));
#1434=CARTESIAN_POINT('',(0.00544886022326445,0.002,0.0112886861215233));
#1435=CARTESIAN_POINT('',(0.00655295613525812,0.002,0.0093176149057685));
#1436=CARTESIAN_POINT('',(0.00821915694125153,0.002,0.00814579777181));
#1437=CARTESIAN_POINT('',(0.00821915694125153,0.002,0.00814579777181));
#1438=CARTESIAN_POINT('',(0.00655295613525812,0.002,0.0093176149057685));
#1439=CARTESIAN_POINT('',(0.00878126183525129,0.002,0.00894505185360636));
#1440=CARTESIAN_POINT('',(0.00878126183525129,0.002,0.00894505185360636));
#1441=CARTESIAN_POINT('',(0.,0.002,0.004));
#1442=CARTESIAN_POINT('',(0.,0.019775,0.0215));
#1443=CARTESIAN_POINT('',(0.,0.02085,0.0215));
#1444=CARTESIAN_POINT('',(-0.00115,0.02085,0.0215));
#1445=CARTESIAN_POINT('',(0.,0.02085,0.0165));
#1446=CARTESIAN_POINT('',(0.,0.02085,0.0205));
#1447=CARTESIAN_POINT('',(-0.00215,0.02085,0.0205));
#1448=CARTESIAN_POINT('',(0.,0.02085,0.0155));
#1449=CARTESIAN_POINT('',(-0.00215,0.02085,0.0155));
#1450=CARTESIAN_POINT('',(0.,0.0182,0.0155));
#1451=CARTESIAN_POINT('',(0.,0.02085,0.0155));
#1452=CARTESIAN_POINT('',(-0.00315,0.02085,0.0155));
#1453=CARTESIAN_POINT('',(0.,0.02085,0.0165));
#1454=CARTESIAN_POINT('',(-0.00246543929784993,0.0233177469744606,0.0142024127906258));
#1455=CARTESIAN_POINT('',(-0.00332094709571773,0.0212707563198137,0.0138203163576286));
#1456=CARTESIAN_POINT('',(-0.0029792073681381,0.0195990892294433,0.0139632491007025));
#1457=CARTESIAN_POINT('',(-0.00205569930729622,0.0182192781547938,0.0142822347760986));
#1458=CARTESIAN_POINT('',(8.57530587597379E-7,0.0173559388502601,0.0146468798250892));
#1459=CARTESIAN_POINT('',(0.00246973606092187,0.0183842995856474,0.0142031745553761));
#1460=CARTESIAN_POINT('',(0.00349036904594546,0.0208483998627047,0.0137385640613299));
#1461=CARTESIAN_POINT('',(0.0024687874803296,0.0233188770310344,0.01420317151263));
#1462=CARTESIAN_POINT('',(-1.63457065271652E-6,0.0243408439313198,0.0146486038988071));
#1463=CARTESIAN_POINT('',(-0.00246543929784993,0.0233177469744606,0.0142024127906258));
#1464=CARTESIAN_POINT('',(-0.00332094709571773,0.0212707563198137,0.0138203163576286));
#1465=CARTESIAN_POINT('',(-0.0029792073681381,0.0195990892294433,0.0139632491007025));
#1466=CARTESIAN_POINT('',(-0.00315,0.02085,0.0138934337008531));
#1467=CARTESIAN_POINT('',(0.,0.059,6.73555739531044E-19));
#1468=CARTESIAN_POINT('',(0.,0.059,6.73555739531044E-19));
#1469=CARTESIAN_POINT('',(0.,0.059,-0.011));
#1470=CARTESIAN_POINT('',(0.,0.059,0.));
#1471=CARTESIAN_POINT('',(-0.009,0.059,-0.0015));
#1472=CARTESIAN_POINT('',(-0.0105,0.059,-0.0015));
#1473=CARTESIAN_POINT('',(-0.0075,0.059,-0.0015));
#1474=CARTESIAN_POINT('',(-0.0075,0.059,-2.16840434497101E-19));
#1475=CARTESIAN_POINT('',(-0.0075,0.059,0.0015));
#1476=CARTESIAN_POINT('',(-0.009,0.059,0.0015));
#1477=CARTESIAN_POINT('',(-0.0105,0.059,0.0015));
#1478=CARTESIAN_POINT('',(-0.0105,0.059,0.));
#1479=CARTESIAN_POINT('',(0.0105,0.059,1.3010426069826E-18));
#1480=CARTESIAN_POINT('',(0.0105,0.059,-0.0015));
#1481=CARTESIAN_POINT('',(0.0105,0.059,0.0015));
#1482=CARTESIAN_POINT('',(0.009,0.059,0.0015));
#1483=CARTESIAN_POINT('',(0.0075,0.059,0.0015));
#1484=CARTESIAN_POINT('',(0.0075,0.059,-2.16840434497101E-19));
#1485=CARTESIAN_POINT('',(0.0075,0.059,-0.0015));
#1486=CARTESIAN_POINT('',(0.009,0.059,-0.0015));
#1487=CARTESIAN_POINT('',(0.0078,0.062,4.22838847269346E-18));
#1488=CARTESIAN_POINT('',(0.0078,0.062,0.000250000000000004));
#1489=CARTESIAN_POINT('',(0.0078,0.0615,0.000250000000000004));
#1490=CARTESIAN_POINT('',(0.0078,0.0615,4.22838847269346E-18));
#1491=CARTESIAN_POINT('',(0.0078,0.0615,-0.000249999999999996));
#1492=CARTESIAN_POINT('',(0.0078,0.062,-0.000249999999999996));
#1493=CARTESIAN_POINT('',(0.009,0.062,-0.000249999999999996));
#1494=CARTESIAN_POINT('',(0.009,0.062,-0.000249999999999996));
#1495=CARTESIAN_POINT('',(0.0083,0.062,-0.000249999999999996));
#1496=CARTESIAN_POINT('',(0.0097,0.062,-0.000249999999999996));
#1497=CARTESIAN_POINT('',(0.00935,0.06235,-0.000249999999999996));
#1498=CARTESIAN_POINT('',(0.0102,0.0615,-0.000249999999999996));
#1499=CARTESIAN_POINT('',(0.0102,0.062,-0.000249999999999996));
#1500=CARTESIAN_POINT('',(0.00865,0.06235,-0.000249999999999996));
#1501=CARTESIAN_POINT('',(0.0102,0.062,4.3910187985663E-18));
#1502=CARTESIAN_POINT('',(0.0102,0.0615,0.000250000000000005));
#1503=CARTESIAN_POINT('',(0.0102,0.0615,0.000250000000000005));
#1504=CARTESIAN_POINT('',(0.0102,0.062,0.000250000000000005));
#1505=CARTESIAN_POINT('',(0.009,0.062,0.000250000000000005));
#1506=CARTESIAN_POINT('',(0.0102,0.0615,0.000250000000000005));
#1507=CARTESIAN_POINT('',(0.0097,0.062,0.000250000000000005));
#1508=CARTESIAN_POINT('',(0.009,0.062,0.000250000000000005));
#1509=CARTESIAN_POINT('',(0.0083,0.062,0.000250000000000004));
#1510=CARTESIAN_POINT('',(0.0083,0.062,0.000250000000000004));
#1511=CARTESIAN_POINT('',(0.,0.062,0.));
#1512=CARTESIAN_POINT('',(0.0097,0.062,-0.000249999999999996));
#1513=CARTESIAN_POINT('',(0.0083,0.062,0.));
#1514=CARTESIAN_POINT('',(-0.0102,0.062,2.16840434497101E-18));
#1515=CARTESIAN_POINT('',(-0.0102,0.062,0.00025));
#1516=CARTESIAN_POINT('',(-0.0102,0.0615,0.00025));
#1517=CARTESIAN_POINT('',(-0.0102,0.0615,2.16840434497101E-18));
#1518=CARTESIAN_POINT('',(-0.0102,0.0615,-0.00025));
#1519=CARTESIAN_POINT('',(-0.0102,0.062,-0.00025));
#1520=CARTESIAN_POINT('',(-0.009,0.062,-0.00025));
#1521=CARTESIAN_POINT('',(-0.009,0.062,-0.00025));
#1522=CARTESIAN_POINT('',(-0.0097,0.062,-0.00025));
#1523=CARTESIAN_POINT('',(-0.0083,0.062,-0.00025));
#1524=CARTESIAN_POINT('',(-0.00865,0.06235,-0.00025));
#1525=CARTESIAN_POINT('',(-0.0078,0.0615,-0.00025));
#1526=CARTESIAN_POINT('',(-0.0078,0.062,-0.00025));
#1527=CARTESIAN_POINT('',(-0.00935,0.06235,-0.00025));
#1528=CARTESIAN_POINT('',(-0.0078,0.062,2.16840434497101E-18));
#1529=CARTESIAN_POINT('',(-0.0078,0.0615,0.00025));
#1530=CARTESIAN_POINT('',(-0.0078,0.0615,0.00025));
#1531=CARTESIAN_POINT('',(-0.0078,0.062,0.00025));
#1532=CARTESIAN_POINT('',(-0.009,0.062,0.00025));
#1533=CARTESIAN_POINT('',(-0.0078,0.0615,0.00025));
#1534=CARTESIAN_POINT('',(-0.0083,0.062,0.00025));
#1535=CARTESIAN_POINT('',(-0.009,0.062,0.00025));
#1536=CARTESIAN_POINT('',(-0.0097,0.062,0.00025));
#1537=CARTESIAN_POINT('',(-0.0097,0.062,0.00025));
#1538=CARTESIAN_POINT('',(0.,0.062,0.));
#1539=CARTESIAN_POINT('',(-0.0083,0.062,-0.00025));
#1540=CARTESIAN_POINT('',(-0.0097,0.062,0.));
#1541=CARTESIAN_POINT('',(0.,0.062,1.83697019872103E-19));
#1542=CARTESIAN_POINT('',(0.,0.061,1.83697019872103E-19));
#1543=CARTESIAN_POINT('',(0.,0.061,-0.003));
#1544=CARTESIAN_POINT('',(0.,0.062,0.));
#1545=CARTESIAN_POINT('',(0.,0.062,1.83697019872103E-19));
#1546=CARTESIAN_POINT('',(0.,0.062,-0.002));
#1547=CARTESIAN_POINT('',(0.,0.061,1.83697019872103E-19));
#1548=CARTESIAN_POINT('',(-0.00371219358424424,0.0196989273178434,0.0129795846926277));
#1549=CARTESIAN_POINT('',(-0.00300967302525472,0.019918330478519,0.0131805073241016));
#1550=CARTESIAN_POINT('',(-0.00302640681767703,0.0199762942292064,0.0139410354106001));
#1551=CARTESIAN_POINT('',(-0.00385257805314498,0.0202220333672992,0.0129395877763862));
#1552=CARTESIAN_POINT('',(-0.00313752608828138,0.0203345769989863,0.0131523191787567));
#1553=CARTESIAN_POINT('',(-0.00314085680637924,0.0203733506281909,0.0138980757598222));
#1554=CARTESIAN_POINT('',(-0.00394011395577107,0.021333844118951,0.0129118456225908));
#1555=CARTESIAN_POINT('',(-0.00322193870838147,0.0212512466277272,0.0131311360235651));
#1556=CARTESIAN_POINT('',(-0.00321222141775713,0.0212172551746255,0.0138682786316716));
#1557=CARTESIAN_POINT('',(-0.00346434348402585,0.0229184534117739,0.0130551490086516));
#1558=CARTESIAN_POINT('',(-0.00276850660410626,0.0225377485653442,0.0132380363009096));
#1559=CARTESIAN_POINT('',(-0.00282434428617368,0.0224200309029127,0.0140221970833665));
#1560=CARTESIAN_POINT('',(-0.00247212046253082,0.0241766672275024,0.0132904056333663));
#1561=CARTESIAN_POINT('',(-0.00188368263112469,0.0234772419252099,0.0133929529364533));
#1562=CARTESIAN_POINT('',(-0.00201542350961348,0.0233750606666585,0.0142748801247267));
#1563=CARTESIAN_POINT('',(-0.00110436966433842,0.0249399274392825,0.0134825980462039));
#1564=CARTESIAN_POINT('',(-0.000798199306196303,0.0239686930539227,0.0134934315081198));
#1565=CARTESIAN_POINT('',(-0.000900349565705623,0.0239544027551181,0.0144813090125894));
#1566=CARTESIAN_POINT('',(0.000446707659212903,0.0250826870708173,0.0135225557759439));
#1567=CARTESIAN_POINT('',(0.000318588331887163,0.0240499154719934,0.0135105042275012));
#1568=CARTESIAN_POINT('',(0.000364183352691644,0.0240627624754396,0.0145242265741619));
#1569=CARTESIAN_POINT('',(0.0019264345063611,0.0245711506492782,0.0133851535305937));
#1570=CARTESIAN_POINT('',(0.001432828915023,0.0237419256062003,0.0134460284349208));
#1571=CARTESIAN_POINT('',(0.00157054700719399,0.0236744878422232,0.0143766463847117));
#1572=CARTESIAN_POINT('',(0.00309821923177677,0.0235039251798728,0.0131516824604443));
#1573=CARTESIAN_POINT('',(0.0024322578777885,0.0229889468816452,0.0133051050408884));
#1574=CARTESIAN_POINT('',(0.00252585744598668,0.02286442513653,0.014125881161218));
#1575=CARTESIAN_POINT('',(0.00380852858360145,0.0220342330616069,0.0129535497844338));
#1576=CARTESIAN_POINT('',(0.00309471641601474,0.021827639022257,0.0131630591146482));
#1577=CARTESIAN_POINT('',(0.00310494498984376,0.0217488756973642,0.0139130719906882));
#1578=CARTESIAN_POINT('',(0.00394023178858756,0.0203677962342069,0.0129117970557036));
#1579=CARTESIAN_POINT('',(0.00322207122580885,0.0204501292859802,0.0131310953081719));
#1580=CARTESIAN_POINT('',(0.00321231748226214,0.0204839899127113,0.0138682264672372));
#1581=CARTESIAN_POINT('',(0.00346491330481848,0.0187817913560649,0.0130550270253716));
#1582=CARTESIAN_POINT('',(0.00276896327517437,0.0191623328961253,0.0132379691706763));
#1583=CARTESIAN_POINT('',(0.00282480883886809,0.0192801548847239,0.0140220660642881));
#1584=CARTESIAN_POINT('',(0.0024698145802158,0.017520889891078,0.0132909185525508));
#1585=CARTESIAN_POINT('',(0.00188159607862466,0.0182209503336859,0.0133932815451779));
#1586=CARTESIAN_POINT('',(0.00201354361358959,0.0183230850980472,0.014275431037925));
#1587=CARTESIAN_POINT('',(0.00110046988638858,0.0167588506948752,0.0134829444913972));
#1588=CARTESIAN_POINT('',(0.000795337948148726,0.0177306150205269,0.0134935841812097));
#1589=CARTESIAN_POINT('',(0.000897170228662179,0.0177446698045439,0.0144816811203896));
#1590=CARTESIAN_POINT('',(-0.000449751738852102,0.0166181449059002,0.0135223259660922));
#1591=CARTESIAN_POINT('',(-0.00032085559113838,0.0176505857807087,0.0135103960648057));
#1592=CARTESIAN_POINT('',(-0.000366665072236854,0.0176378690249604,0.0145239797413583));
#1593=CARTESIAN_POINT('',(-0.00192528329335172,0.0171285641036312,0.0133852439887106));
#1594=CARTESIAN_POINT('',(-0.0014320242378313,0.0179579426620822,0.0134460640155499));
#1595=CARTESIAN_POINT('',(-0.00156960846807389,0.0180252956449249,0.0143767435434299));
#1596=CARTESIAN_POINT('',(-0.00309780714236663,0.0181952078222165,0.0131518271200401));
#1597=CARTESIAN_POINT('',(-0.00243182134085577,0.018710365565372,0.013305209403465));
#1598=CARTESIAN_POINT('',(-0.00252552148554388,0.0188349167807185,0.0141260365363393));
#1599=CARTESIAN_POINT('',(-0.0035718091153435,0.0191758212683876,0.0130195816088693));
#1600=CARTESIAN_POINT('',(-0.00287978542658874,0.0194954601951117,0.0132091440295744));
#1601=CARTESIAN_POINT('',(-0.00291195682897482,0.0195792378302219,0.0139839950613781));
#1602=CARTESIAN_POINT('',(-0.00371219358424424,0.0196989273178434,0.0129795846926277));
#1603=CARTESIAN_POINT('',(-0.00300967302525472,0.019918330478519,0.0131805073241016));
#1604=CARTESIAN_POINT('',(-0.00302640681767703,0.0199762942292064,0.0139410354106001));
#1605=CARTESIAN_POINT('',(0.,0.02085,0.0205));
#1606=CARTESIAN_POINT('',(0.,-0.0053,0.));
#1607=CARTESIAN_POINT('',(0.,-0.001,0.));
#1608=CARTESIAN_POINT('',(-0.0078,0.0615,2.16840434497101E-18));
#1609=CARTESIAN_POINT('',(-0.0097,0.062,0.));
#1610=CARTESIAN_POINT('',(0.0102,0.0615,4.3910187985663E-18));
#1611=CARTESIAN_POINT('',(0.0083,0.062,0.));
#1612=MECHANICAL_DESIGN_GEOMETRIC_PRESENTATION_REPRESENTATION('',(#906),
#1613);
#1613=(
GEOMETRIC_REPRESENTATION_CONTEXT(3)
GLOBAL_UNCERTAINTY_ASSIGNED_CONTEXT((#1614))
GLOBAL_UNIT_ASSIGNED_CONTEXT((#1617,#1616,#1615))
REPRESENTATION_CONTEXT('Air Pump','TOP_LEVEL_ASSEMBLY_PART')
);
#1614=UNCERTAINTY_MEASURE_WITH_UNIT(LENGTH_MEASURE(2.E-5),#1617,
'DISTANCE_ACCURACY_VALUE','Maximum Tolerance applied to model');
#1615=(
NAMED_UNIT(*)
SI_UNIT($,.STERADIAN.)
SOLID_ANGLE_UNIT()
);
#1616=(
NAMED_UNIT(*)
PLANE_ANGLE_UNIT()
SI_UNIT($,.RADIAN.)
);
#1617=(
LENGTH_UNIT()
NAMED_UNIT(*)
SI_UNIT($,.METRE.)
);
#1618=PRODUCT_DEFINITION_SHAPE('','',#1619);
#1619=PRODUCT_DEFINITION('','',#1621,#1620);
#1620=PRODUCT_DEFINITION_CONTEXT('',#1627,'design');
#1621=PRODUCT_DEFINITION_FORMATION_WITH_SPECIFIED_SOURCE('','',#1623,
 .NOT_KNOWN.);
#1622=PRODUCT_RELATED_PRODUCT_CATEGORY('','',(#1623));
#1623=PRODUCT('Air Pump','Air Pump','Air Pump',(#1625));
#1624=PRODUCT_CATEGORY('','');
#1625=PRODUCT_CONTEXT('',#1627,'mechanical');
#1626=APPLICATION_PROTOCOL_DEFINITION('international standard',
'ap242_managed_model_based_3d_engineering',2020,#1627);
#1627=APPLICATION_CONTEXT('managed model based 3d engineering');
ENDSEC;
END-ISO-10303-21;
