ISO-10303-21;
HEADER;
/* Generated by software containing ST-Developer
 * from STEP Tools, Inc. (www.steptools.com) 
 */
/* OPTION: using custom renumber hook */

FILE_DESCRIPTION(
/* description */ ('STEP AP242 Edition 2',
'CAx-IF Rec.Pracs.---Representation and Presentation of Product Manufa
cturing Information (PMI)---4.0---2014-10-13',
'CAx-IF Rec.Pracs.---3D Tessellated Geometry---0.4---2014-09-14','2;1',
'CAx-IF Rec.Pracs.---User Defined Attributes---1.5---2016-08-15'),
/* implementation_level */ '2;1');

FILE_NAME(
/* name */ 'Part Studio 1 - Syringe',
/* time_stamp */ '2026-08-23T20:36:01Z',
/* author */ (''),
/* organization */ (''),
/* preprocessor_version */ 'ST-DEVELOPER v20',
/* originating_system */ 'ONSHAPE BY PTC INC, 1.219',
/* authorisation */ '  ');

FILE_SCHEMA (('AP242_MANAGED_MODEL_BASED_3D_ENGINEERING_MIM_LF { 1 0 10303 442 3 1 4 }'));
ENDSEC;

DATA;
#10=SHAPE_REPRESENTATION_RELATIONSHIP('','',#113,#11);
#11=ADVANCED_BREP_SHAPE_REPRESENTATION('',(#111),#191);
#12=CYLINDRICAL_SURFACE('',#122,0.019);
#13=CYLINDRICAL_SURFACE('',#126,0.021);
#14=CONICAL_SURFACE('',#118,0.0019,0.106319963234706);
#15=CONICAL_SURFACE('',#120,0.00584096135571599,1.38311498065487);
#16=CONICAL_SURFACE('',#128,0.0073703471571207,1.35414270408411);
#17=CONICAL_SURFACE('',#130,0.0073703471571207,0.124224099243526);
#18=ORIENTED_EDGE('',*,*,#34,.F.);
#19=ORIENTED_EDGE('',*,*,#35,.T.);
#20=ORIENTED_EDGE('',*,*,#36,.F.);
#21=ORIENTED_EDGE('',*,*,#34,.T.);
#22=ORIENTED_EDGE('',*,*,#37,.F.);
#23=ORIENTED_EDGE('',*,*,#36,.T.);
#24=ORIENTED_EDGE('',*,*,#38,.F.);
#25=ORIENTED_EDGE('',*,*,#37,.T.);
#26=ORIENTED_EDGE('',*,*,#39,.F.);
#27=ORIENTED_EDGE('',*,*,#38,.T.);
#28=ORIENTED_EDGE('',*,*,#40,.F.);
#29=ORIENTED_EDGE('',*,*,#39,.T.);
#30=ORIENTED_EDGE('',*,*,#40,.T.);
#31=ORIENTED_EDGE('',*,*,#41,.F.);
#32=ORIENTED_EDGE('',*,*,#35,.F.);
#33=ORIENTED_EDGE('',*,*,#41,.T.);
#34=EDGE_CURVE('',#42,#42,#50,.T.);
#35=EDGE_CURVE('',#43,#43,#51,.T.);
#36=EDGE_CURVE('',#44,#44,#52,.T.);
#37=EDGE_CURVE('',#45,#45,#53,.T.);
#38=EDGE_CURVE('',#46,#46,#54,.T.);
#39=EDGE_CURVE('',#47,#47,#55,.T.);
#40=EDGE_CURVE('',#48,#48,#56,.T.);
#41=EDGE_CURVE('',#49,#49,#57,.T.);
#42=VERTEX_POINT('',#168);
#43=VERTEX_POINT('',#170);
#44=VERTEX_POINT('',#173);
#45=VERTEX_POINT('',#176);
#46=VERTEX_POINT('',#179);
#47=VERTEX_POINT('',#182);
#48=VERTEX_POINT('',#185);
#49=VERTEX_POINT('',#188);
#50=CIRCLE('',#116,0.0019);
#51=CIRCLE('',#117,0.003);
#52=CIRCLE('',#119,0.00584096135571599);
#53=CIRCLE('',#121,0.019);
#54=CIRCLE('',#123,0.019);
#55=CIRCLE('',#125,0.021);
#56=CIRCLE('',#127,0.021);
#57=CIRCLE('',#129,0.0073703471571207);
#58=EDGE_LOOP('',(#18));
#59=EDGE_LOOP('',(#19));
#60=EDGE_LOOP('',(#20));
#61=EDGE_LOOP('',(#21));
#62=EDGE_LOOP('',(#22));
#63=EDGE_LOOP('',(#23));
#64=EDGE_LOOP('',(#24));
#65=EDGE_LOOP('',(#25));
#66=EDGE_LOOP('',(#26));
#67=EDGE_LOOP('',(#27));
#68=EDGE_LOOP('',(#28));
#69=EDGE_LOOP('',(#29));
#70=EDGE_LOOP('',(#30));
#71=EDGE_LOOP('',(#31));
#72=EDGE_LOOP('',(#32));
#73=EDGE_LOOP('',(#33));
#74=FACE_BOUND('',#58,.T.);
#75=FACE_BOUND('',#59,.T.);
#76=FACE_BOUND('',#60,.T.);
#77=FACE_BOUND('',#61,.T.);
#78=FACE_BOUND('',#62,.T.);
#79=FACE_BOUND('',#63,.T.);
#80=FACE_BOUND('',#64,.T.);
#81=FACE_BOUND('',#65,.T.);
#82=FACE_BOUND('',#66,.T.);
#83=FACE_BOUND('',#67,.T.);
#84=FACE_BOUND('',#68,.T.);
#85=FACE_BOUND('',#69,.T.);
#86=FACE_BOUND('',#70,.T.);
#87=FACE_BOUND('',#71,.T.);
#88=FACE_BOUND('',#72,.T.);
#89=FACE_BOUND('',#73,.T.);
#90=PLANE('',#115);
#91=PLANE('',#124);
#92=ADVANCED_FACE('',(#74,#75),#90,.F.);
#93=ADVANCED_FACE('',(#76,#77),#14,.F.);
#94=ADVANCED_FACE('',(#78,#79),#15,.F.);
#95=ADVANCED_FACE('',(#80,#81),#12,.F.);
#96=ADVANCED_FACE('',(#82,#83),#91,.F.);
#97=ADVANCED_FACE('',(#84,#85),#13,.T.);
#98=ADVANCED_FACE('',(#86,#87),#16,.T.);
#99=ADVANCED_FACE('',(#88,#89),#17,.T.);
#100=CLOSED_SHELL('',(#92,#93,#94,#95,#96,#97,#98,#99));
#101=STYLED_ITEM('',(#102),#111);
#102=PRESENTATION_STYLE_ASSIGNMENT((#103));
#103=SURFACE_STYLE_USAGE(.BOTH.,#104);
#104=SURFACE_SIDE_STYLE('',(#107,#105));
#105=SURFACE_STYLE_RENDERING_WITH_PROPERTIES(.CONSTANT_SHADING.,#110,(#106));
#106=SURFACE_STYLE_TRANSPARENT(0.141176470588235);
#107=SURFACE_STYLE_FILL_AREA(#108);
#108=FILL_AREA_STYLE('',(#109));
#109=FILL_AREA_STYLE_COLOUR('',#110);
#110=COLOUR_RGB('',0.8,0.8,0.8);
#111=MANIFOLD_SOLID_BREP('Syringe',#100);
#112=SHAPE_DEFINITION_REPRESENTATION(#196,#113);
#113=SHAPE_REPRESENTATION('Syringe',(#114),#191);
#114=AXIS2_PLACEMENT_3D('',#165,#131,#132);
#115=AXIS2_PLACEMENT_3D('',#166,#133,#134);
#116=AXIS2_PLACEMENT_3D('',#167,#135,#136);
#117=AXIS2_PLACEMENT_3D('',#169,#137,#138);
#118=AXIS2_PLACEMENT_3D('',#171,#139,#140);
#119=AXIS2_PLACEMENT_3D('',#172,#141,#142);
#120=AXIS2_PLACEMENT_3D('',#174,#143,#144);
#121=AXIS2_PLACEMENT_3D('',#175,#145,#146);
#122=AXIS2_PLACEMENT_3D('',#177,#147,#148);
#123=AXIS2_PLACEMENT_3D('',#178,#149,#150);
#124=AXIS2_PLACEMENT_3D('',#180,#151,#152);
#125=AXIS2_PLACEMENT_3D('',#181,#153,#154);
#126=AXIS2_PLACEMENT_3D('',#183,#155,#156);
#127=AXIS2_PLACEMENT_3D('',#184,#157,#158);
#128=AXIS2_PLACEMENT_3D('',#186,#159,#160);
#129=AXIS2_PLACEMENT_3D('',#187,#161,#162);
#130=AXIS2_PLACEMENT_3D('',#189,#163,#164);
#131=DIRECTION('',(0.,0.,1.));
#132=DIRECTION('',(1.,0.,0.));
#133=DIRECTION('',(0.,1.,0.));
#134=DIRECTION('',(0.,0.,1.));
#135=DIRECTION('',(0.,-1.,0.));
#136=DIRECTION('',(0.,0.,-1.));
#137=DIRECTION('',(0.,-1.,0.));
#138=DIRECTION('',(0.,0.,-1.));
#139=DIRECTION('',(0.,1.,0.));
#140=DIRECTION('',(0.,0.,1.));
#141=DIRECTION('',(0.,-1.,0.));
#142=DIRECTION('',(0.,0.,-1.));
#143=DIRECTION('',(0.,1.,0.));
#144=DIRECTION('',(0.,0.,1.));
#145=DIRECTION('',(0.,-1.,0.));
#146=DIRECTION('',(0.,0.,-1.));
#147=DIRECTION('',(0.,-1.,0.));
#148=DIRECTION('',(0.,0.,-1.));
#149=DIRECTION('',(0.,-1.,0.));
#150=DIRECTION('',(0.,0.,-1.));
#151=DIRECTION('',(0.,-1.,0.));
#152=DIRECTION('',(0.,0.,-1.));
#153=DIRECTION('',(0.,-1.,0.));
#154=DIRECTION('',(0.,0.,-1.));
#155=DIRECTION('',(0.,-1.,0.));
#156=DIRECTION('',(0.,0.,-1.));
#157=DIRECTION('',(0.,-1.,0.));
#158=DIRECTION('',(0.,0.,-1.));
#159=DIRECTION('',(0.,1.,0.));
#160=DIRECTION('',(0.,0.,1.));
#161=DIRECTION('',(0.,-1.,0.));
#162=DIRECTION('',(0.,0.,-1.));
#163=DIRECTION('',(0.,1.,0.));
#164=DIRECTION('',(0.,0.,1.));
#165=CARTESIAN_POINT('',(0.,0.,0.));
#166=CARTESIAN_POINT('',(0.,-0.2,0.00245));
#167=CARTESIAN_POINT('',(0.,-0.2,0.));
#168=CARTESIAN_POINT('',(0.,-0.2,-0.0019));
#169=CARTESIAN_POINT('',(0.,-0.2,0.));
#170=CARTESIAN_POINT('',(0.,-0.2,-0.003));
#171=CARTESIAN_POINT('',(0.,-0.2,0.));
#172=CARTESIAN_POINT('',(0.,-0.163072779774666,0.));
#173=CARTESIAN_POINT('',(0.,-0.163072779774666,-0.00584096135571599));
#174=CARTESIAN_POINT('',(0.,-0.163072779774666,0.));
#175=CARTESIAN_POINT('',(0.,-0.160573661327362,0.));
#176=CARTESIAN_POINT('',(0.,-0.160573661327362,-0.019));
#177=CARTESIAN_POINT('',(0.,-0.1,0.));
#178=CARTESIAN_POINT('',(0.,0.,0.));
#179=CARTESIAN_POINT('',(0.,0.,-0.019));
#180=CARTESIAN_POINT('',(0.,0.,0.02));
#181=CARTESIAN_POINT('',(0.,0.,0.));
#182=CARTESIAN_POINT('',(0.,0.,-0.021));
#183=CARTESIAN_POINT('',(0.,-0.1,0.));
#184=CARTESIAN_POINT('',(0.,-0.162,0.));
#185=CARTESIAN_POINT('',(0.,-0.162,-0.021));
#186=CARTESIAN_POINT('',(0.,-0.165,0.));
#187=CARTESIAN_POINT('',(0.,-0.165,0.));
#188=CARTESIAN_POINT('',(0.,-0.165,-0.0073703471571207));
#189=CARTESIAN_POINT('',(0.,-0.165,0.));
#190=MECHANICAL_DESIGN_GEOMETRIC_PRESENTATION_REPRESENTATION('',(#101),
#191);
#191=(
GEOMETRIC_REPRESENTATION_CONTEXT(3)
GLOBAL_UNCERTAINTY_ASSIGNED_CONTEXT((#192))
GLOBAL_UNIT_ASSIGNED_CONTEXT((#195,#194,#193))
REPRESENTATION_CONTEXT('Syringe','TOP_LEVEL_ASSEMBLY_PART')
);
#192=UNCERTAINTY_MEASURE_WITH_UNIT(LENGTH_MEASURE(1.E-8),#195,
'DISTANCE_ACCURACY_VALUE','Maximum Tolerance applied to model');
#193=(
NAMED_UNIT(*)
SI_UNIT($,.STERADIAN.)
SOLID_ANGLE_UNIT()
);
#194=(
NAMED_UNIT(*)
PLANE_ANGLE_UNIT()
SI_UNIT($,.RADIAN.)
);
#195=(
LENGTH_UNIT()
NAMED_UNIT(*)
SI_UNIT($,.METRE.)
);
#196=PRODUCT_DEFINITION_SHAPE('','',#197);
#197=PRODUCT_DEFINITION('','',#199,#198);
#198=PRODUCT_DEFINITION_CONTEXT('',#205,'design');
#199=PRODUCT_DEFINITION_FORMATION_WITH_SPECIFIED_SOURCE('','',#201,
 .NOT_KNOWN.);
#200=PRODUCT_RELATED_PRODUCT_CATEGORY('','',(#201));
#201=PRODUCT('Syringe','Syringe','Syringe',(#203));
#202=PRODUCT_CATEGORY('','');
#203=PRODUCT_CONTEXT('',#205,'mechanical');
#204=APPLICATION_PROTOCOL_DEFINITION('international standard',
'ap242_managed_model_based_3d_engineering',2020,#205);
#205=APPLICATION_CONTEXT('managed model based 3d engineering');
ENDSEC;
END-ISO-10303-21;
