ISO-10303-21;
HEADER;
/* Generated by software containing ST-Developer
 * from STEP Tools, Inc. (www.steptools.com) 
 */
/* OPTION: using custom renumber hook */

FILE_DESCRIPTION(
/* description */ ('STEP AP242 Edition 2',
'CAx-IF Rec.Pracs.---Representation and Presentation of Product Manufa
cturing Information (PMI)---4.0---2014-10-13',
'CAx-IF Rec.Pracs.---3D Tessellated Geometry---0.4---2014-09-14','2;1',
'CAx-IF Rec.Pracs.---User Defined Attributes---1.5---2016-08-15'),
/* implementation_level */ '2;1');

FILE_NAME(
/* name */ 'Part Studio 1 - Syringe head',
/* time_stamp */ '2026-08-23T20:36:04Z',
/* author */ (''),
/* organization */ (''),
/* preprocessor_version */ 'ST-DEVELOPER v20',
/* originating_system */ 'ONSHAPE BY PTC INC, 1.219',
/* authorisation */ '  ');

FILE_SCHEMA (('AP242_MANAGED_MODEL_BASED_3D_ENGINEERING_MIM_LF { 1 0 10303 442 3 1 4 }'));
ENDSEC;

DATA;
#10=SHAPE_REPRESENTATION_RELATIONSHIP('','',#450,#11);
#11=ADVANCED_BREP_SHAPE_REPRESENTATION('',(#448),#745);
#12=VERTEX_LOOP('',#239);
#13=CONICAL_SURFACE('',#466,0.017,0.785398163397455);
#14=CONICAL_SURFACE('',#468,0.019,0.785398163397455);
#15=CONICAL_SURFACE('',#472,0.017,0.785398163397448);
#16=CONICAL_SURFACE('',#474,0.019,0.785398163397448);
#17=CONICAL_SURFACE('',#478,0.,1.31347261182381);
#18=CYLINDRICAL_SURFACE('',#458,0.003);
#19=CYLINDRICAL_SURFACE('',#460,0.003);
#20=CYLINDRICAL_SURFACE('',#462,0.003);
#21=CYLINDRICAL_SURFACE('',#464,0.019);
#22=CYLINDRICAL_SURFACE('',#470,0.019);
#23=CYLINDRICAL_SURFACE('',#476,0.019);
#24=CYLINDRICAL_SURFACE('',#481,0.003);
#25=CIRCLE('',#453,0.003);
#26=CIRCLE('',#454,0.003);
#27=CIRCLE('',#455,0.003);
#28=CIRCLE('',#456,0.003);
#29=CIRCLE('',#457,0.019);
#30=CIRCLE('',#459,0.003);
#31=CIRCLE('',#461,0.003);
#32=CIRCLE('',#463,0.003);
#33=CIRCLE('',#465,0.019);
#34=CIRCLE('',#467,0.017);
#35=CIRCLE('',#469,0.019);
#36=CIRCLE('',#471,0.019);
#37=CIRCLE('',#473,0.017);
#38=CIRCLE('',#475,0.019);
#39=CIRCLE('',#477,0.019);
#40=CIRCLE('',#480,0.003);
#41=ORIENTED_EDGE('',*,*,#153,.F.);
#42=ORIENTED_EDGE('',*,*,#154,.T.);
#43=ORIENTED_EDGE('',*,*,#155,.T.);
#44=ORIENTED_EDGE('',*,*,#156,.T.);
#45=ORIENTED_EDGE('',*,*,#157,.T.);
#46=ORIENTED_EDGE('',*,*,#158,.T.);
#47=ORIENTED_EDGE('',*,*,#159,.T.);
#48=ORIENTED_EDGE('',*,*,#160,.T.);
#49=ORIENTED_EDGE('',*,*,#161,.F.);
#50=ORIENTED_EDGE('',*,*,#162,.T.);
#51=ORIENTED_EDGE('',*,*,#163,.T.);
#52=ORIENTED_EDGE('',*,*,#164,.T.);
#53=ORIENTED_EDGE('',*,*,#165,.F.);
#54=ORIENTED_EDGE('',*,*,#166,.T.);
#55=ORIENTED_EDGE('',*,*,#167,.T.);
#56=ORIENTED_EDGE('',*,*,#168,.T.);
#57=ORIENTED_EDGE('',*,*,#169,.F.);
#58=ORIENTED_EDGE('',*,*,#156,.F.);
#59=ORIENTED_EDGE('',*,*,#170,.T.);
#60=ORIENTED_EDGE('',*,*,#171,.T.);
#61=ORIENTED_EDGE('',*,*,#172,.T.);
#62=ORIENTED_EDGE('',*,*,#173,.F.);
#63=ORIENTED_EDGE('',*,*,#168,.F.);
#64=ORIENTED_EDGE('',*,*,#174,.T.);
#65=ORIENTED_EDGE('',*,*,#175,.T.);
#66=ORIENTED_EDGE('',*,*,#176,.F.);
#67=ORIENTED_EDGE('',*,*,#164,.F.);
#68=ORIENTED_EDGE('',*,*,#177,.T.);
#69=ORIENTED_EDGE('',*,*,#178,.T.);
#70=ORIENTED_EDGE('',*,*,#169,.T.);
#71=ORIENTED_EDGE('',*,*,#179,.F.);
#72=ORIENTED_EDGE('',*,*,#179,.T.);
#73=ORIENTED_EDGE('',*,*,#180,.F.);
#74=ORIENTED_EDGE('',*,*,#180,.T.);
#75=ORIENTED_EDGE('',*,*,#181,.F.);
#76=ORIENTED_EDGE('',*,*,#181,.T.);
#77=ORIENTED_EDGE('',*,*,#182,.F.);
#78=ORIENTED_EDGE('',*,*,#182,.T.);
#79=ORIENTED_EDGE('',*,*,#183,.F.);
#80=ORIENTED_EDGE('',*,*,#183,.T.);
#81=ORIENTED_EDGE('',*,*,#184,.F.);
#82=ORIENTED_EDGE('',*,*,#184,.T.);
#83=ORIENTED_EDGE('',*,*,#185,.F.);
#84=ORIENTED_EDGE('',*,*,#185,.T.);
#85=ORIENTED_EDGE('',*,*,#186,.F.);
#86=ORIENTED_EDGE('',*,*,#187,.T.);
#87=ORIENTED_EDGE('',*,*,#188,.F.);
#88=ORIENTED_EDGE('',*,*,#189,.T.);
#89=ORIENTED_EDGE('',*,*,#171,.F.);
#90=ORIENTED_EDGE('',*,*,#190,.T.);
#91=ORIENTED_EDGE('',*,*,#191,.F.);
#92=ORIENTED_EDGE('',*,*,#192,.F.);
#93=ORIENTED_EDGE('',*,*,#175,.F.);
#94=ORIENTED_EDGE('',*,*,#193,.T.);
#95=ORIENTED_EDGE('',*,*,#194,.F.);
#96=ORIENTED_EDGE('',*,*,#195,.F.);
#97=ORIENTED_EDGE('',*,*,#178,.F.);
#98=ORIENTED_EDGE('',*,*,#196,.T.);
#99=ORIENTED_EDGE('',*,*,#197,.F.);
#100=ORIENTED_EDGE('',*,*,#198,.F.);
#101=ORIENTED_EDGE('',*,*,#199,.F.);
#102=ORIENTED_EDGE('',*,*,#160,.F.);
#103=ORIENTED_EDGE('',*,*,#200,.T.);
#104=ORIENTED_EDGE('',*,*,#186,.T.);
#105=ORIENTED_EDGE('',*,*,#172,.F.);
#106=ORIENTED_EDGE('',*,*,#189,.F.);
#107=ORIENTED_EDGE('',*,*,#201,.F.);
#108=ORIENTED_EDGE('',*,*,#157,.F.);
#109=ORIENTED_EDGE('',*,*,#200,.F.);
#110=ORIENTED_EDGE('',*,*,#159,.F.);
#111=ORIENTED_EDGE('',*,*,#202,.T.);
#112=ORIENTED_EDGE('',*,*,#187,.F.);
#113=ORIENTED_EDGE('',*,*,#202,.F.);
#114=ORIENTED_EDGE('',*,*,#158,.F.);
#115=ORIENTED_EDGE('',*,*,#201,.T.);
#116=ORIENTED_EDGE('',*,*,#188,.T.);
#117=ORIENTED_EDGE('',*,*,#161,.T.);
#118=ORIENTED_EDGE('',*,*,#199,.T.);
#119=ORIENTED_EDGE('',*,*,#198,.T.);
#120=ORIENTED_EDGE('',*,*,#203,.F.);
#121=ORIENTED_EDGE('',*,*,#177,.F.);
#122=ORIENTED_EDGE('',*,*,#163,.F.);
#123=ORIENTED_EDGE('',*,*,#204,.T.);
#124=ORIENTED_EDGE('',*,*,#196,.F.);
#125=ORIENTED_EDGE('',*,*,#204,.F.);
#126=ORIENTED_EDGE('',*,*,#162,.F.);
#127=ORIENTED_EDGE('',*,*,#203,.T.);
#128=ORIENTED_EDGE('',*,*,#197,.T.);
#129=ORIENTED_EDGE('',*,*,#165,.T.);
#130=ORIENTED_EDGE('',*,*,#176,.T.);
#131=ORIENTED_EDGE('',*,*,#195,.T.);
#132=ORIENTED_EDGE('',*,*,#205,.F.);
#133=ORIENTED_EDGE('',*,*,#174,.F.);
#134=ORIENTED_EDGE('',*,*,#167,.F.);
#135=ORIENTED_EDGE('',*,*,#206,.T.);
#136=ORIENTED_EDGE('',*,*,#193,.F.);
#137=ORIENTED_EDGE('',*,*,#206,.F.);
#138=ORIENTED_EDGE('',*,*,#166,.F.);
#139=ORIENTED_EDGE('',*,*,#205,.T.);
#140=ORIENTED_EDGE('',*,*,#194,.T.);
#141=ORIENTED_EDGE('',*,*,#153,.T.);
#142=ORIENTED_EDGE('',*,*,#173,.T.);
#143=ORIENTED_EDGE('',*,*,#192,.T.);
#144=ORIENTED_EDGE('',*,*,#207,.F.);
#145=ORIENTED_EDGE('',*,*,#170,.F.);
#146=ORIENTED_EDGE('',*,*,#155,.F.);
#147=ORIENTED_EDGE('',*,*,#208,.T.);
#148=ORIENTED_EDGE('',*,*,#190,.F.);
#149=ORIENTED_EDGE('',*,*,#208,.F.);
#150=ORIENTED_EDGE('',*,*,#154,.F.);
#151=ORIENTED_EDGE('',*,*,#207,.T.);
#152=ORIENTED_EDGE('',*,*,#191,.T.);
#153=EDGE_CURVE('',#209,#210,#250,.T.);
#154=EDGE_CURVE('',#209,#211,#251,.T.);
#155=EDGE_CURVE('',#211,#212,#252,.T.);
#156=EDGE_CURVE('',#212,#213,#25,.T.);
#157=EDGE_CURVE('',#213,#214,#253,.T.);
#158=EDGE_CURVE('',#214,#215,#254,.T.);
#159=EDGE_CURVE('',#215,#216,#255,.T.);
#160=EDGE_CURVE('',#216,#217,#26,.T.);
#161=EDGE_CURVE('',#218,#217,#256,.T.);
#162=EDGE_CURVE('',#218,#219,#257,.T.);
#163=EDGE_CURVE('',#219,#220,#258,.T.);
#164=EDGE_CURVE('',#220,#221,#27,.T.);
#165=EDGE_CURVE('',#222,#221,#259,.T.);
#166=EDGE_CURVE('',#222,#223,#260,.T.);
#167=EDGE_CURVE('',#223,#224,#261,.T.);
#168=EDGE_CURVE('',#224,#210,#28,.T.);
#169=EDGE_CURVE('',#225,#225,#29,.T.);
#170=EDGE_CURVE('',#212,#226,#262,.F.);
#171=EDGE_CURVE('',#226,#227,#30,.T.);
#172=EDGE_CURVE('',#227,#213,#263,.T.);
#173=EDGE_CURVE('',#210,#228,#264,.F.);
#174=EDGE_CURVE('',#224,#229,#265,.F.);
#175=EDGE_CURVE('',#229,#228,#31,.T.);
#176=EDGE_CURVE('',#221,#230,#266,.F.);
#177=EDGE_CURVE('',#220,#231,#267,.F.);
#178=EDGE_CURVE('',#231,#230,#32,.T.);
#179=EDGE_CURVE('',#232,#232,#33,.T.);
#180=EDGE_CURVE('',#233,#233,#34,.T.);
#181=EDGE_CURVE('',#234,#234,#35,.T.);
#182=EDGE_CURVE('',#235,#235,#36,.T.);
#183=EDGE_CURVE('',#236,#236,#37,.T.);
#184=EDGE_CURVE('',#237,#237,#38,.T.);
#185=EDGE_CURVE('',#238,#238,#39,.T.);
#186=EDGE_CURVE('',#240,#241,#40,.T.);
#187=EDGE_CURVE('',#240,#242,#268,.T.);
#188=EDGE_CURVE('',#243,#242,#269,.T.);
#189=EDGE_CURVE('',#243,#227,#270,.T.);
#190=EDGE_CURVE('',#226,#244,#271,.T.);
#191=EDGE_CURVE('',#245,#244,#272,.T.);
#192=EDGE_CURVE('',#228,#245,#273,.T.);
#193=EDGE_CURVE('',#229,#246,#274,.T.);
#194=EDGE_CURVE('',#247,#246,#275,.T.);
#195=EDGE_CURVE('',#230,#247,#276,.T.);
#196=EDGE_CURVE('',#231,#248,#277,.T.);
#197=EDGE_CURVE('',#249,#248,#278,.T.);
#198=EDGE_CURVE('',#241,#249,#279,.T.);
#199=EDGE_CURVE('',#217,#241,#280,.F.);
#200=EDGE_CURVE('',#216,#240,#281,.F.);
#201=EDGE_CURVE('',#214,#243,#282,.T.);
#202=EDGE_CURVE('',#215,#242,#283,.T.);
#203=EDGE_CURVE('',#218,#249,#284,.T.);
#204=EDGE_CURVE('',#219,#248,#285,.T.);
#205=EDGE_CURVE('',#222,#247,#286,.T.);
#206=EDGE_CURVE('',#223,#246,#287,.T.);
#207=EDGE_CURVE('',#209,#245,#288,.T.);
#208=EDGE_CURVE('',#211,#244,#289,.T.);
#209=VERTEX_POINT('',#623);
#210=VERTEX_POINT('',#624);
#211=VERTEX_POINT('',#626);
#212=VERTEX_POINT('',#628);
#213=VERTEX_POINT('',#630);
#214=VERTEX_POINT('',#632);
#215=VERTEX_POINT('',#634);
#216=VERTEX_POINT('',#636);
#217=VERTEX_POINT('',#638);
#218=VERTEX_POINT('',#640);
#219=VERTEX_POINT('',#642);
#220=VERTEX_POINT('',#644);
#221=VERTEX_POINT('',#646);
#222=VERTEX_POINT('',#648);
#223=VERTEX_POINT('',#650);
#224=VERTEX_POINT('',#652);
#225=VERTEX_POINT('',#655);
#226=VERTEX_POINT('',#658);
#227=VERTEX_POINT('',#660);
#228=VERTEX_POINT('',#664);
#229=VERTEX_POINT('',#666);
#230=VERTEX_POINT('',#670);
#231=VERTEX_POINT('',#672);
#232=VERTEX_POINT('',#676);
#233=VERTEX_POINT('',#679);
#234=VERTEX_POINT('',#682);
#235=VERTEX_POINT('',#685);
#236=VERTEX_POINT('',#688);
#237=VERTEX_POINT('',#691);
#238=VERTEX_POINT('',#694);
#239=VERTEX_POINT('',#696);
#240=VERTEX_POINT('',#699);
#241=VERTEX_POINT('',#700);
#242=VERTEX_POINT('',#702);
#243=VERTEX_POINT('',#704);
#244=VERTEX_POINT('',#707);
#245=VERTEX_POINT('',#709);
#246=VERTEX_POINT('',#712);
#247=VERTEX_POINT('',#714);
#248=VERTEX_POINT('',#717);
#249=VERTEX_POINT('',#719);
#250=LINE('',#622,#290);
#251=LINE('',#625,#291);
#252=LINE('',#627,#292);
#253=LINE('',#631,#293);
#254=LINE('',#633,#294);
#255=LINE('',#635,#295);
#256=LINE('',#639,#296);
#257=LINE('',#641,#297);
#258=LINE('',#643,#298);
#259=LINE('',#647,#299);
#260=LINE('',#649,#300);
#261=LINE('',#651,#301);
#262=LINE('',#657,#302);
#263=LINE('',#661,#303);
#264=LINE('',#663,#304);
#265=LINE('',#665,#305);
#266=LINE('',#669,#306);
#267=LINE('',#671,#307);
#268=LINE('',#701,#308);
#269=LINE('',#703,#309);
#270=LINE('',#705,#310);
#271=LINE('',#706,#311);
#272=LINE('',#708,#312);
#273=LINE('',#710,#313);
#274=LINE('',#711,#314);
#275=LINE('',#713,#315);
#276=LINE('',#715,#316);
#277=LINE('',#716,#317);
#278=LINE('',#718,#318);
#279=LINE('',#720,#319);
#280=LINE('',#722,#320);
#281=LINE('',#723,#321);
#282=LINE('',#725,#322);
#283=LINE('',#727,#323);
#284=LINE('',#730,#324);
#285=LINE('',#732,#325);
#286=LINE('',#735,#326);
#287=LINE('',#737,#327);
#288=LINE('',#740,#328);
#289=LINE('',#742,#329);
#290=VECTOR('',#498,1.);
#291=VECTOR('',#499,1.);
#292=VECTOR('',#500,1.);
#293=VECTOR('',#503,1.);
#294=VECTOR('',#504,1.);
#295=VECTOR('',#505,1.);
#296=VECTOR('',#508,1.);
#297=VECTOR('',#509,1.);
#298=VECTOR('',#510,1.);
#299=VECTOR('',#513,1.);
#300=VECTOR('',#514,1.);
#301=VECTOR('',#515,1.);
#302=VECTOR('',#522,1.);
#303=VECTOR('',#525,1.);
#304=VECTOR('',#528,1.);
#305=VECTOR('',#529,1.);
#306=VECTOR('',#534,1.);
#307=VECTOR('',#535,1.);
#308=VECTOR('',#572,1.);
#309=VECTOR('',#573,1.);
#310=VECTOR('',#574,1.);
#311=VECTOR('',#575,1.);
#312=VECTOR('',#576,1.);
#313=VECTOR('',#577,1.);
#314=VECTOR('',#578,1.);
#315=VECTOR('',#579,1.);
#316=VECTOR('',#580,1.);
#317=VECTOR('',#581,1.);
#318=VECTOR('',#582,1.);
#319=VECTOR('',#583,1.);
#320=VECTOR('',#586,1.);
#321=VECTOR('',#587,1.);
#322=VECTOR('',#590,1.);
#323=VECTOR('',#593,1.);
#324=VECTOR('',#598,1.);
#325=VECTOR('',#601,1.);
#326=VECTOR('',#606,1.);
#327=VECTOR('',#609,1.);
#328=VECTOR('',#614,1.);
#329=VECTOR('',#617,1.);
#330=EDGE_LOOP('',(#41,#42,#43,#44,#45,#46,#47,#48,#49,#50,#51,#52,#53,
#54,#55,#56));
#331=EDGE_LOOP('',(#57));
#332=EDGE_LOOP('',(#58,#59,#60,#61));
#333=EDGE_LOOP('',(#62,#63,#64,#65));
#334=EDGE_LOOP('',(#66,#67,#68,#69));
#335=EDGE_LOOP('',(#70));
#336=EDGE_LOOP('',(#71));
#337=EDGE_LOOP('',(#72));
#338=EDGE_LOOP('',(#73));
#339=EDGE_LOOP('',(#74));
#340=EDGE_LOOP('',(#75));
#341=EDGE_LOOP('',(#76));
#342=EDGE_LOOP('',(#77));
#343=EDGE_LOOP('',(#78));
#344=EDGE_LOOP('',(#79));
#345=EDGE_LOOP('',(#80));
#346=EDGE_LOOP('',(#81));
#347=EDGE_LOOP('',(#82));
#348=EDGE_LOOP('',(#83));
#349=EDGE_LOOP('',(#84));
#350=EDGE_LOOP('',(#85,#86,#87,#88,#89,#90,#91,#92,#93,#94,#95,#96,#97,
#98,#99,#100));
#351=EDGE_LOOP('',(#101,#102,#103,#104));
#352=EDGE_LOOP('',(#105,#106,#107,#108));
#353=EDGE_LOOP('',(#109,#110,#111,#112));
#354=EDGE_LOOP('',(#113,#114,#115,#116));
#355=EDGE_LOOP('',(#117,#118,#119,#120));
#356=EDGE_LOOP('',(#121,#122,#123,#124));
#357=EDGE_LOOP('',(#125,#126,#127,#128));
#358=EDGE_LOOP('',(#129,#130,#131,#132));
#359=EDGE_LOOP('',(#133,#134,#135,#136));
#360=EDGE_LOOP('',(#137,#138,#139,#140));
#361=EDGE_LOOP('',(#141,#142,#143,#144));
#362=EDGE_LOOP('',(#145,#146,#147,#148));
#363=EDGE_LOOP('',(#149,#150,#151,#152));
#364=FACE_BOUND('',#330,.T.);
#365=FACE_BOUND('',#331,.T.);
#366=FACE_BOUND('',#332,.T.);
#367=FACE_BOUND('',#333,.T.);
#368=FACE_BOUND('',#334,.T.);
#369=FACE_BOUND('',#335,.T.);
#370=FACE_BOUND('',#336,.T.);
#371=FACE_BOUND('',#337,.T.);
#372=FACE_BOUND('',#338,.T.);
#373=FACE_BOUND('',#339,.T.);
#374=FACE_BOUND('',#340,.T.);
#375=FACE_BOUND('',#341,.T.);
#376=FACE_BOUND('',#342,.T.);
#377=FACE_BOUND('',#343,.T.);
#378=FACE_BOUND('',#344,.T.);
#379=FACE_BOUND('',#345,.T.);
#380=FACE_BOUND('',#346,.T.);
#381=FACE_BOUND('',#347,.T.);
#382=FACE_BOUND('',#348,.T.);
#383=FACE_BOUND('',#349,.T.);
#384=FACE_BOUND('',#12,.T.);
#385=FACE_BOUND('',#350,.T.);
#386=FACE_BOUND('',#351,.T.);
#387=FACE_BOUND('',#352,.T.);
#388=FACE_BOUND('',#353,.T.);
#389=FACE_BOUND('',#354,.T.);
#390=FACE_BOUND('',#355,.T.);
#391=FACE_BOUND('',#356,.T.);
#392=FACE_BOUND('',#357,.T.);
#393=FACE_BOUND('',#358,.T.);
#394=FACE_BOUND('',#359,.T.);
#395=FACE_BOUND('',#360,.T.);
#396=FACE_BOUND('',#361,.T.);
#397=FACE_BOUND('',#362,.T.);
#398=FACE_BOUND('',#363,.T.);
#399=PLANE('',#452);
#400=PLANE('',#479);
#401=PLANE('',#482);
#402=PLANE('',#483);
#403=PLANE('',#484);
#404=PLANE('',#485);
#405=PLANE('',#486);
#406=PLANE('',#487);
#407=PLANE('',#488);
#408=PLANE('',#489);
#409=PLANE('',#490);
#410=PLANE('',#491);
#411=PLANE('',#492);
#412=PLANE('',#493);
#413=ADVANCED_FACE('',(#364,#365),#399,.T.);
#414=ADVANCED_FACE('',(#366),#18,.T.);
#415=ADVANCED_FACE('',(#367),#19,.T.);
#416=ADVANCED_FACE('',(#368),#20,.T.);
#417=ADVANCED_FACE('',(#369,#370),#21,.T.);
#418=ADVANCED_FACE('',(#371,#372),#13,.T.);
#419=ADVANCED_FACE('',(#373,#374),#14,.T.);
#420=ADVANCED_FACE('',(#375,#376),#22,.T.);
#421=ADVANCED_FACE('',(#377,#378),#15,.T.);
#422=ADVANCED_FACE('',(#379,#380),#16,.T.);
#423=ADVANCED_FACE('',(#381,#382),#23,.T.);
#424=ADVANCED_FACE('',(#383,#384),#17,.T.);
#425=ADVANCED_FACE('',(#385),#400,.T.);
#426=ADVANCED_FACE('',(#386),#24,.T.);
#427=ADVANCED_FACE('',(#387),#401,.F.);
#428=ADVANCED_FACE('',(#388),#402,.F.);
#429=ADVANCED_FACE('',(#389),#403,.T.);
#430=ADVANCED_FACE('',(#390),#404,.T.);
#431=ADVANCED_FACE('',(#391),#405,.F.);
#432=ADVANCED_FACE('',(#392),#406,.T.);
#433=ADVANCED_FACE('',(#393),#407,.T.);
#434=ADVANCED_FACE('',(#394),#408,.F.);
#435=ADVANCED_FACE('',(#395),#409,.T.);
#436=ADVANCED_FACE('',(#396),#410,.T.);
#437=ADVANCED_FACE('',(#397),#411,.F.);
#438=ADVANCED_FACE('',(#398),#412,.T.);
#439=CLOSED_SHELL('',(#413,#414,#415,#416,#417,#418,#419,#420,#421,#422,
#423,#424,#425,#426,#427,#428,#429,#430,#431,#432,#433,#434,#435,#436,#437,
#438));
#440=STYLED_ITEM('',(#441),#448);
#441=PRESENTATION_STYLE_ASSIGNMENT((#442));
#442=SURFACE_STYLE_USAGE(.BOTH.,#443);
#443=SURFACE_SIDE_STYLE('',(#444));
#444=SURFACE_STYLE_FILL_AREA(#445);
#445=FILL_AREA_STYLE('',(#446));
#446=FILL_AREA_STYLE_COLOUR('',#447);
#447=COLOUR_RGB('',0.647058823529412,0.647058823529412,0.647058823529412);
#448=MANIFOLD_SOLID_BREP('Syringe head',#439);
#449=SHAPE_DEFINITION_REPRESENTATION(#750,#450);
#450=SHAPE_REPRESENTATION('Syringe head',(#451),#745);
#451=AXIS2_PLACEMENT_3D('',#620,#494,#495);
#452=AXIS2_PLACEMENT_3D('',#621,#496,#497);
#453=AXIS2_PLACEMENT_3D('',#629,#501,#502);
#454=AXIS2_PLACEMENT_3D('',#637,#506,#507);
#455=AXIS2_PLACEMENT_3D('',#645,#511,#512);
#456=AXIS2_PLACEMENT_3D('',#653,#516,#517);
#457=AXIS2_PLACEMENT_3D('',#654,#518,#519);
#458=AXIS2_PLACEMENT_3D('',#656,#520,#521);
#459=AXIS2_PLACEMENT_3D('',#659,#523,#524);
#460=AXIS2_PLACEMENT_3D('',#662,#526,#527);
#461=AXIS2_PLACEMENT_3D('',#667,#530,#531);
#462=AXIS2_PLACEMENT_3D('',#668,#532,#533);
#463=AXIS2_PLACEMENT_3D('',#673,#536,#537);
#464=AXIS2_PLACEMENT_3D('',#674,#538,#539);
#465=AXIS2_PLACEMENT_3D('',#675,#540,#541);
#466=AXIS2_PLACEMENT_3D('',#677,#542,#543);
#467=AXIS2_PLACEMENT_3D('',#678,#544,#545);
#468=AXIS2_PLACEMENT_3D('',#680,#546,#547);
#469=AXIS2_PLACEMENT_3D('',#681,#548,#549);
#470=AXIS2_PLACEMENT_3D('',#683,#550,#551);
#471=AXIS2_PLACEMENT_3D('',#684,#552,#553);
#472=AXIS2_PLACEMENT_3D('',#686,#554,#555);
#473=AXIS2_PLACEMENT_3D('',#687,#556,#557);
#474=AXIS2_PLACEMENT_3D('',#689,#558,#559);
#475=AXIS2_PLACEMENT_3D('',#690,#560,#561);
#476=AXIS2_PLACEMENT_3D('',#692,#562,#563);
#477=AXIS2_PLACEMENT_3D('',#693,#564,#565);
#478=AXIS2_PLACEMENT_3D('',#695,#566,#567);
#479=AXIS2_PLACEMENT_3D('',#697,#568,#569);
#480=AXIS2_PLACEMENT_3D('',#698,#570,#571);
#481=AXIS2_PLACEMENT_3D('',#721,#584,#585);
#482=AXIS2_PLACEMENT_3D('',#724,#588,#589);
#483=AXIS2_PLACEMENT_3D('',#726,#591,#592);
#484=AXIS2_PLACEMENT_3D('',#728,#594,#595);
#485=AXIS2_PLACEMENT_3D('',#729,#596,#597);
#486=AXIS2_PLACEMENT_3D('',#731,#599,#600);
#487=AXIS2_PLACEMENT_3D('',#733,#602,#603);
#488=AXIS2_PLACEMENT_3D('',#734,#604,#605);
#489=AXIS2_PLACEMENT_3D('',#736,#607,#608);
#490=AXIS2_PLACEMENT_3D('',#738,#610,#611);
#491=AXIS2_PLACEMENT_3D('',#739,#612,#613);
#492=AXIS2_PLACEMENT_3D('',#741,#615,#616);
#493=AXIS2_PLACEMENT_3D('',#743,#618,#619);
#494=DIRECTION('',(0.,0.,1.));
#495=DIRECTION('',(1.,0.,0.));
#496=DIRECTION('',(0.,1.,0.));
#497=DIRECTION('',(0.,0.,1.));
#498=DIRECTION('',(0.,0.,-1.));
#499=DIRECTION('',(-1.,0.,0.));
#500=DIRECTION('',(0.,0.,-1.));
#501=DIRECTION('',(0.,-1.,0.));
#502=DIRECTION('',(0.,0.,-1.));
#503=DIRECTION('',(-1.,0.,-6.12323399573677E-17));
#504=DIRECTION('',(1.83697019872103E-16,0.,-1.));
#505=DIRECTION('',(1.,0.,1.83697019872103E-16));
#506=DIRECTION('',(0.,-1.,0.));
#507=DIRECTION('',(0.,0.,-1.));
#508=DIRECTION('',(-1.22464679914735E-16,0.,1.));
#509=DIRECTION('',(1.,0.,1.22464679914735E-16));
#510=DIRECTION('',(-1.22464679914735E-16,0.,1.));
#511=DIRECTION('',(0.,-1.,0.));
#512=DIRECTION('',(0.,0.,-1.));
#513=DIRECTION('',(-1.,0.,-6.12323399573677E-17));
#514=DIRECTION('',(-6.12323399573677E-17,0.,1.));
#515=DIRECTION('',(-1.,0.,-6.12323399573677E-17));
#516=DIRECTION('',(0.,-1.,0.));
#517=DIRECTION('',(0.,0.,-1.));
#518=DIRECTION('',(0.,-1.,0.));
#519=DIRECTION('',(0.,0.,-1.));
#520=DIRECTION('',(0.,-1.,0.));
#521=DIRECTION('',(0.,0.,-1.));
#522=DIRECTION('',(0.,-1.,0.));
#523=DIRECTION('',(0.,-1.,0.));
#524=DIRECTION('',(0.,0.,-1.));
#525=DIRECTION('',(0.,-1.,0.));
#526=DIRECTION('',(0.,-1.,0.));
#527=DIRECTION('',(0.,0.,-1.));
#528=DIRECTION('',(0.,-1.,0.));
#529=DIRECTION('',(0.,-1.,0.));
#530=DIRECTION('',(0.,-1.,0.));
#531=DIRECTION('',(0.,0.,-1.));
#532=DIRECTION('',(0.,-1.,0.));
#533=DIRECTION('',(0.,0.,-1.));
#534=DIRECTION('',(0.,-1.,0.));
#535=DIRECTION('',(0.,-1.,0.));
#536=DIRECTION('',(0.,-1.,0.));
#537=DIRECTION('',(0.,0.,-1.));
#538=DIRECTION('',(0.,-1.,0.));
#539=DIRECTION('',(0.,0.,-1.));
#540=DIRECTION('',(0.,-1.,0.));
#541=DIRECTION('',(0.,0.,-1.));
#542=DIRECTION('',(0.,1.,0.));
#543=DIRECTION('',(0.,0.,1.));
#544=DIRECTION('',(0.,-1.,0.));
#545=DIRECTION('',(0.,0.,-1.));
#546=DIRECTION('',(0.,-1.,0.));
#547=DIRECTION('',(0.,0.,-1.));
#548=DIRECTION('',(0.,-1.,0.));
#549=DIRECTION('',(0.,0.,-1.));
#550=DIRECTION('',(0.,-1.,0.));
#551=DIRECTION('',(0.,0.,-1.));
#552=DIRECTION('',(0.,-1.,0.));
#553=DIRECTION('',(0.,0.,-1.));
#554=DIRECTION('',(0.,1.,0.));
#555=DIRECTION('',(0.,0.,1.));
#556=DIRECTION('',(0.,-1.,0.));
#557=DIRECTION('',(0.,0.,-1.));
#558=DIRECTION('',(0.,-1.,0.));
#559=DIRECTION('',(0.,0.,-1.));
#560=DIRECTION('',(0.,-1.,0.));
#561=DIRECTION('',(0.,0.,-1.));
#562=DIRECTION('',(0.,-1.,0.));
#563=DIRECTION('',(0.,0.,-1.));
#564=DIRECTION('',(0.,-1.,0.));
#565=DIRECTION('',(0.,0.,-1.));
#566=DIRECTION('',(0.,1.,0.));
#567=DIRECTION('',(0.,0.,1.));
#568=DIRECTION('',(0.,1.,0.));
#569=DIRECTION('',(0.,0.,1.));
#570=DIRECTION('',(0.,-1.,0.));
#571=DIRECTION('',(0.,0.,-1.));
#572=DIRECTION('',(-1.,0.,-1.83697019872103E-16));
#573=DIRECTION('',(1.83697019872103E-16,0.,-1.));
#574=DIRECTION('',(1.,0.,6.12323399573677E-17));
#575=DIRECTION('',(0.,0.,1.));
#576=DIRECTION('',(-1.,0.,0.));
#577=DIRECTION('',(0.,0.,1.));
#578=DIRECTION('',(1.,0.,6.12323399573677E-17));
#579=DIRECTION('',(-6.12323399573677E-17,0.,1.));
#580=DIRECTION('',(1.,0.,6.12323399573677E-17));
#581=DIRECTION('',(1.22464679914735E-16,0.,-1.));
#582=DIRECTION('',(1.,0.,1.22464679914735E-16));
#583=DIRECTION('',(1.22464679914735E-16,0.,-1.));
#584=DIRECTION('',(0.,-1.,0.));
#585=DIRECTION('',(0.,0.,-1.));
#586=DIRECTION('',(0.,-1.,0.));
#587=DIRECTION('',(0.,-1.,0.));
#588=DIRECTION('',(6.12323399573677E-17,0.,-1.));
#589=DIRECTION('',(0.,1.,0.));
#590=DIRECTION('',(-2.31296463463574E-16,1.,-4.24884710452153E-32));
#591=DIRECTION('',(-1.83697019872103E-16,0.,1.));
#592=DIRECTION('',(0.,1.,0.));
#593=DIRECTION('',(-2.31296463463574E-16,1.,-4.24884710452153E-32));
#594=DIRECTION('',(-1.,-2.31296463463574E-16,-1.83697019872103E-16));
#595=DIRECTION('',(2.31296463463574E-16,-1.,4.24884710452153E-32));
#596=DIRECTION('',(-1.,0.,-1.22464679914735E-16));
#597=DIRECTION('',(0.,1.,0.));
#598=DIRECTION('',(2.83256473634769E-32,1.,-2.31296463463574E-16));
#599=DIRECTION('',(-1.,0.,-1.22464679914735E-16));
#600=DIRECTION('',(0.,1.,0.));
#601=DIRECTION('',(2.83256473634769E-32,1.,-2.31296463463574E-16));
#602=DIRECTION('',(1.22464679914735E-16,-2.31296463463574E-16,-1.));
#603=DIRECTION('',(-2.83256473634769E-32,-1.,2.31296463463574E-16));
#604=DIRECTION('',(6.12323399573677E-17,0.,-1.));
#605=DIRECTION('',(0.,1.,0.));
#606=DIRECTION('',(2.31296463463574E-16,1.,1.41628236817384E-32));
#607=DIRECTION('',(6.12323399573677E-17,0.,-1.));
#608=DIRECTION('',(0.,1.,0.));
#609=DIRECTION('',(2.31296463463574E-16,1.,1.41628236817384E-32));
#610=DIRECTION('',(1.,-2.31296463463574E-16,6.12323399573677E-17));
#611=DIRECTION('',(-2.31296463463574E-16,-1.,-1.41628236817384E-32));
#612=DIRECTION('',(1.,0.,0.));
#613=DIRECTION('',(0.,1.,0.));
#614=DIRECTION('',(0.,1.,2.31296463463574E-16));
#615=DIRECTION('',(1.,0.,0.));
#616=DIRECTION('',(0.,1.,0.));
#617=DIRECTION('',(0.,1.,2.31296463463574E-16));
#618=DIRECTION('',(0.,-2.31296463463574E-16,1.));
#619=DIRECTION('',(0.,-1.,-2.31296463463574E-16));
#620=CARTESIAN_POINT('',(0.,0.,0.));
#621=CARTESIAN_POINT('',(0.,-0.143,0.018));
#622=CARTESIAN_POINT('',(0.002,-0.143,0.01));
#623=CARTESIAN_POINT('',(0.002,-0.143,0.017));
#624=CARTESIAN_POINT('',(0.002,-0.143,0.00223606797749976));
#625=CARTESIAN_POINT('',(0.002,-0.143,0.017));
#626=CARTESIAN_POINT('',(-0.002,-0.143,0.017));
#627=CARTESIAN_POINT('',(-0.002,-0.143,0.01));
#628=CARTESIAN_POINT('',(-0.002,-0.143,0.00223606797749976));
#629=CARTESIAN_POINT('',(0.,-0.143,0.));
#630=CARTESIAN_POINT('',(-0.00223606797749976,-0.143,0.002));
#631=CARTESIAN_POINT('',(0.01,-0.143,0.002));
#632=CARTESIAN_POINT('',(-0.017,-0.143,0.002));
#633=CARTESIAN_POINT('',(-0.017,-0.143,0.002));
#634=CARTESIAN_POINT('',(-0.017,-0.143,-0.002));
#635=CARTESIAN_POINT('',(-0.01,-0.143,-0.002));
#636=CARTESIAN_POINT('',(-0.00223606797749976,-0.143,-0.002));
#637=CARTESIAN_POINT('',(0.,-0.143,0.));
#638=CARTESIAN_POINT('',(-0.002,-0.143,-0.00223606797749976));
#639=CARTESIAN_POINT('',(-0.002,-0.143,-0.01));
#640=CARTESIAN_POINT('',(-0.002,-0.143,-0.017));
#641=CARTESIAN_POINT('',(-0.002,-0.143,-0.017));
#642=CARTESIAN_POINT('',(0.002,-0.143,-0.017));
#643=CARTESIAN_POINT('',(0.002,-0.143,-0.01));
#644=CARTESIAN_POINT('',(0.002,-0.143,-0.00223606797749976));
#645=CARTESIAN_POINT('',(0.,-0.143,0.));
#646=CARTESIAN_POINT('',(0.00223606797749976,-0.143,-0.002));
#647=CARTESIAN_POINT('',(0.01,-0.143,-0.002));
#648=CARTESIAN_POINT('',(0.017,-0.143,-0.002));
#649=CARTESIAN_POINT('',(0.017,-0.143,-0.002));
#650=CARTESIAN_POINT('',(0.017,-0.143,0.002));
#651=CARTESIAN_POINT('',(0.01,-0.143,0.002));
#652=CARTESIAN_POINT('',(0.00223606797749976,-0.143,0.002));
#653=CARTESIAN_POINT('',(0.,-0.143,0.));
#654=CARTESIAN_POINT('',(0.,-0.143,0.));
#655=CARTESIAN_POINT('',(0.,-0.143,-0.019));
#656=CARTESIAN_POINT('',(0.,-0.075,0.));
#657=CARTESIAN_POINT('',(-0.002,-0.075,0.00223606797749976));
#658=CARTESIAN_POINT('',(-0.002,-0.128,0.00223606797749976));
#659=CARTESIAN_POINT('',(0.,-0.128,0.));
#660=CARTESIAN_POINT('',(-0.00223606797749976,-0.128,0.002));
#661=CARTESIAN_POINT('',(-0.00223606797749976,-0.075,0.002));
#662=CARTESIAN_POINT('',(0.,-0.075,0.));
#663=CARTESIAN_POINT('',(0.002,-0.075,0.00223606797749976));
#664=CARTESIAN_POINT('',(0.002,-0.128,0.00223606797749976));
#665=CARTESIAN_POINT('',(0.00223606797749976,-0.075,0.002));
#666=CARTESIAN_POINT('',(0.00223606797749976,-0.128,0.002));
#667=CARTESIAN_POINT('',(0.,-0.128,0.));
#668=CARTESIAN_POINT('',(0.,-0.075,0.));
#669=CARTESIAN_POINT('',(0.00223606797749976,-0.075,-0.002));
#670=CARTESIAN_POINT('',(0.00223606797749976,-0.128,-0.002));
#671=CARTESIAN_POINT('',(0.002,-0.075,-0.00223606797749976));
#672=CARTESIAN_POINT('',(0.002,-0.128,-0.00223606797749976));
#673=CARTESIAN_POINT('',(0.,-0.128,0.));
#674=CARTESIAN_POINT('',(0.,-0.075,0.));
#675=CARTESIAN_POINT('',(0.,-0.146,0.));
#676=CARTESIAN_POINT('',(0.,-0.146,-0.019));
#677=CARTESIAN_POINT('',(0.,-0.148,0.));
#678=CARTESIAN_POINT('',(0.,-0.148,0.));
#679=CARTESIAN_POINT('',(0.,-0.148,-0.017));
#680=CARTESIAN_POINT('',(0.,-0.15,0.));
#681=CARTESIAN_POINT('',(0.,-0.15,0.));
#682=CARTESIAN_POINT('',(0.,-0.15,-0.019));
#683=CARTESIAN_POINT('',(0.,-0.075,0.));
#684=CARTESIAN_POINT('',(0.,-0.153,0.));
#685=CARTESIAN_POINT('',(0.,-0.153,-0.019));
#686=CARTESIAN_POINT('',(0.,-0.155,0.));
#687=CARTESIAN_POINT('',(0.,-0.155,0.));
#688=CARTESIAN_POINT('',(0.,-0.155,-0.017));
#689=CARTESIAN_POINT('',(0.,-0.157,0.));
#690=CARTESIAN_POINT('',(0.,-0.157,0.));
#691=CARTESIAN_POINT('',(0.,-0.157,-0.019));
#692=CARTESIAN_POINT('',(0.,-0.075,0.));
#693=CARTESIAN_POINT('',(0.,-0.16,0.));
#694=CARTESIAN_POINT('',(0.,-0.16,-0.019));
#695=CARTESIAN_POINT('',(0.,-0.165,0.));
#696=CARTESIAN_POINT('',(0.,-0.165,0.));
#697=CARTESIAN_POINT('',(0.,-0.128,0.0015));
#698=CARTESIAN_POINT('',(0.,-0.128,0.));
#699=CARTESIAN_POINT('',(-0.00223606797749976,-0.128,-0.002));
#700=CARTESIAN_POINT('',(-0.002,-0.128,-0.00223606797749976));
#701=CARTESIAN_POINT('',(-0.01,-0.128,-0.002));
#702=CARTESIAN_POINT('',(-0.017,-0.128,-0.002));
#703=CARTESIAN_POINT('',(-0.017,-0.128,0.002));
#704=CARTESIAN_POINT('',(-0.017,-0.128,0.002));
#705=CARTESIAN_POINT('',(0.01,-0.128,0.002));
#706=CARTESIAN_POINT('',(-0.002,-0.128,0.01));
#707=CARTESIAN_POINT('',(-0.002,-0.128,0.017));
#708=CARTESIAN_POINT('',(0.002,-0.128,0.017));
#709=CARTESIAN_POINT('',(0.002,-0.128,0.017));
#710=CARTESIAN_POINT('',(0.002,-0.128,0.01));
#711=CARTESIAN_POINT('',(0.01,-0.128,0.002));
#712=CARTESIAN_POINT('',(0.017,-0.128,0.002));
#713=CARTESIAN_POINT('',(0.017,-0.128,-0.002));
#714=CARTESIAN_POINT('',(0.017,-0.128,-0.002));
#715=CARTESIAN_POINT('',(0.01,-0.128,-0.002));
#716=CARTESIAN_POINT('',(0.002,-0.128,-0.01));
#717=CARTESIAN_POINT('',(0.002,-0.128,-0.017));
#718=CARTESIAN_POINT('',(-0.002,-0.128,-0.017));
#719=CARTESIAN_POINT('',(-0.002,-0.128,-0.017));
#720=CARTESIAN_POINT('',(-0.002,-0.128,-0.01));
#721=CARTESIAN_POINT('',(0.,-0.075,0.));
#722=CARTESIAN_POINT('',(-0.002,-0.075,-0.00223606797749976));
#723=CARTESIAN_POINT('',(-0.00223606797749976,-0.075,-0.002));
#724=CARTESIAN_POINT('',(0.0095,-0.075,0.002));
#725=CARTESIAN_POINT('',(-0.017,-0.1355,0.002));
#726=CARTESIAN_POINT('',(-0.0095,-0.075,-0.002));
#727=CARTESIAN_POINT('',(-0.017,-0.1355,-0.002));
#728=CARTESIAN_POINT('',(-0.017,-0.1355,0.002));
#729=CARTESIAN_POINT('',(-0.002,-0.075,-0.0095));
#730=CARTESIAN_POINT('',(-0.002,-0.1355,-0.017));
#731=CARTESIAN_POINT('',(0.002,-0.075,-0.0095));
#732=CARTESIAN_POINT('',(0.002,-0.1355,-0.017));
#733=CARTESIAN_POINT('',(-0.002,-0.1355,-0.017));
#734=CARTESIAN_POINT('',(0.0095,-0.075,-0.002));
#735=CARTESIAN_POINT('',(0.017,-0.1355,-0.002));
#736=CARTESIAN_POINT('',(0.0095,-0.075,0.002));
#737=CARTESIAN_POINT('',(0.017,-0.1355,0.002));
#738=CARTESIAN_POINT('',(0.017,-0.1355,-0.002));
#739=CARTESIAN_POINT('',(0.002,-0.075,0.0095));
#740=CARTESIAN_POINT('',(0.002,-0.1355,0.017));
#741=CARTESIAN_POINT('',(-0.002,-0.075,0.0095));
#742=CARTESIAN_POINT('',(-0.002,-0.1355,0.017));
#743=CARTESIAN_POINT('',(0.002,-0.1355,0.017));
#744=MECHANICAL_DESIGN_GEOMETRIC_PRESENTATION_REPRESENTATION('',(#440),
#745);
#745=(
GEOMETRIC_REPRESENTATION_CONTEXT(3)
GLOBAL_UNCERTAINTY_ASSIGNED_CONTEXT((#746))
GLOBAL_UNIT_ASSIGNED_CONTEXT((#749,#748,#747))
REPRESENTATION_CONTEXT('Syringe head','TOP_LEVEL_ASSEMBLY_PART')
);
#746=UNCERTAINTY_MEASURE_WITH_UNIT(LENGTH_MEASURE(1.E-8),#749,
'DISTANCE_ACCURACY_VALUE','Maximum Tolerance applied to model');
#747=(
NAMED_UNIT(*)
SI_UNIT($,.STERADIAN.)
SOLID_ANGLE_UNIT()
);
#748=(
NAMED_UNIT(*)
PLANE_ANGLE_UNIT()
SI_UNIT($,.RADIAN.)
);
#749=(
LENGTH_UNIT()
NAMED_UNIT(*)
SI_UNIT($,.METRE.)
);
#750=PRODUCT_DEFINITION_SHAPE('','',#751);
#751=PRODUCT_DEFINITION('','',#753,#752);
#752=PRODUCT_DEFINITION_CONTEXT('',#759,'design');
#753=PRODUCT_DEFINITION_FORMATION_WITH_SPECIFIED_SOURCE('','',#755,
 .NOT_KNOWN.);
#754=PRODUCT_RELATED_PRODUCT_CATEGORY('','',(#755));
#755=PRODUCT('Syringe head','Syringe head','Syringe head',(#757));
#756=PRODUCT_CATEGORY('','');
#757=PRODUCT_CONTEXT('',#759,'mechanical');
#758=APPLICATION_PROTOCOL_DEFINITION('international standard',
'ap242_managed_model_based_3d_engineering',2020,#759);
#759=APPLICATION_CONTEXT('managed model based 3d engineering');
ENDSEC;
END-ISO-10303-21;
