ISO-10303-21;
HEADER;
/* Generated by software containing ST-Developer
 * from STEP Tools, Inc. (www.steptools.com) 
 */
/* OPTION: using custom renumber hook */

FILE_DESCRIPTION(
/* description */ ('STEP AP242 Edition 2',
'CAx-IF Rec.Pracs.---Representation and Presentation of Product Manufa
cturing Information (PMI)---4.0---2014-10-13',
'CAx-IF Rec.Pracs.---3D Tessellated Geometry---0.4---2014-09-14','2;1',
'CAx-IF Rec.Pracs.---User Defined Attributes---1.5---2016-08-15'),
/* implementation_level */ '2;1');

FILE_NAME(
/* name */ 'Pipe and caps - Ballast Cap',
/* time_stamp */ '2026-08-23T20:32:00Z',
/* author */ (''),
/* organization */ (''),
/* preprocessor_version */ 'ST-DEVELOPER v20',
/* originating_system */ 'ONSHAPE BY PTC INC, 1.219',
/* authorisation */ '  ');

FILE_SCHEMA (('AP242_MANAGED_MODEL_BASED_3D_ENGINEERING_MIM_LF { 1 0 10303 442 3 1 4 }'));
ENDSEC;

DATA;
#10=SHAPE_REPRESENTATION_RELATIONSHIP('','',#442,#11);
#11=ADVANCED_BREP_SHAPE_REPRESENTATION('',(#440),#785);
#12=LINE('',#691,#22);
#13=LINE('',#695,#23);
#14=LINE('',#699,#24);
#15=LINE('',#703,#25);
#16=LINE('',#707,#26);
#17=LINE('',#711,#27);
#18=LINE('',#715,#28);
#19=LINE('',#719,#29);
#20=LINE('',#723,#30);
#21=LINE('',#727,#31);
#22=VECTOR('',#549,1.);
#23=VECTOR('',#552,1.);
#24=VECTOR('',#555,1.);
#25=VECTOR('',#558,1.);
#26=VECTOR('',#561,1.);
#27=VECTOR('',#564,1.);
#28=VECTOR('',#567,1.);
#29=VECTOR('',#570,1.);
#30=VECTOR('',#573,1.);
#31=VECTOR('',#576,1.);
#32=CYLINDRICAL_SURFACE('',#447,0.0381);
#33=CYLINDRICAL_SURFACE('',#451,0.0361);
#34=CYLINDRICAL_SURFACE('',#455,0.0381);
#35=CYLINDRICAL_SURFACE('',#459,0.0311);
#36=CYLINDRICAL_SURFACE('',#477,0.04245);
#37=CYLINDRICAL_SURFACE('',#492,0.04445);
#38=CYLINDRICAL_SURFACE('',#493,0.003);
#39=CYLINDRICAL_SURFACE('',#494,0.003);
#40=CYLINDRICAL_SURFACE('',#495,0.003);
#41=CYLINDRICAL_SURFACE('',#496,0.003);
#42=CYLINDRICAL_SURFACE('',#497,0.003);
#43=CYLINDRICAL_SURFACE('',#500,0.003);
#44=CYLINDRICAL_SURFACE('',#503,0.003);
#45=CYLINDRICAL_SURFACE('',#506,0.003);
#46=CYLINDRICAL_SURFACE('',#509,0.003);
#47=CYLINDRICAL_SURFACE('',#512,0.003);
#48=ORIENTED_EDGE('',*,*,#150,.F.);
#49=ORIENTED_EDGE('',*,*,#151,.T.);
#50=ORIENTED_EDGE('',*,*,#151,.F.);
#51=ORIENTED_EDGE('',*,*,#152,.T.);
#52=ORIENTED_EDGE('',*,*,#152,.F.);
#53=ORIENTED_EDGE('',*,*,#153,.T.);
#54=ORIENTED_EDGE('',*,*,#153,.F.);
#55=ORIENTED_EDGE('',*,*,#154,.T.);
#56=ORIENTED_EDGE('',*,*,#154,.F.);
#57=ORIENTED_EDGE('',*,*,#155,.T.);
#58=ORIENTED_EDGE('',*,*,#155,.F.);
#59=ORIENTED_EDGE('',*,*,#156,.T.);
#60=ORIENTED_EDGE('',*,*,#156,.F.);
#61=ORIENTED_EDGE('',*,*,#157,.T.);
#62=ORIENTED_EDGE('',*,*,#157,.F.);
#63=ORIENTED_EDGE('',*,*,#158,.T.);
#64=ORIENTED_EDGE('',*,*,#159,.T.);
#65=ORIENTED_EDGE('',*,*,#160,.T.);
#66=ORIENTED_EDGE('',*,*,#161,.T.);
#67=ORIENTED_EDGE('',*,*,#162,.T.);
#68=ORIENTED_EDGE('',*,*,#163,.T.);
#69=ORIENTED_EDGE('',*,*,#164,.T.);
#70=ORIENTED_EDGE('',*,*,#165,.T.);
#71=ORIENTED_EDGE('',*,*,#166,.T.);
#72=ORIENTED_EDGE('',*,*,#167,.T.);
#73=ORIENTED_EDGE('',*,*,#168,.T.);
#74=ORIENTED_EDGE('',*,*,#169,.T.);
#75=ORIENTED_EDGE('',*,*,#170,.T.);
#76=ORIENTED_EDGE('',*,*,#171,.T.);
#77=ORIENTED_EDGE('',*,*,#172,.T.);
#78=ORIENTED_EDGE('',*,*,#173,.T.);
#79=ORIENTED_EDGE('',*,*,#174,.T.);
#80=ORIENTED_EDGE('',*,*,#175,.T.);
#81=ORIENTED_EDGE('',*,*,#176,.T.);
#82=ORIENTED_EDGE('',*,*,#177,.T.);
#83=ORIENTED_EDGE('',*,*,#160,.F.);
#84=ORIENTED_EDGE('',*,*,#178,.T.);
#85=ORIENTED_EDGE('',*,*,#176,.F.);
#86=ORIENTED_EDGE('',*,*,#179,.T.);
#87=ORIENTED_EDGE('',*,*,#172,.F.);
#88=ORIENTED_EDGE('',*,*,#180,.T.);
#89=ORIENTED_EDGE('',*,*,#168,.F.);
#90=ORIENTED_EDGE('',*,*,#181,.T.);
#91=ORIENTED_EDGE('',*,*,#164,.F.);
#92=ORIENTED_EDGE('',*,*,#182,.T.);
#93=ORIENTED_EDGE('',*,*,#183,.T.);
#94=ORIENTED_EDGE('',*,*,#183,.F.);
#95=ORIENTED_EDGE('',*,*,#184,.T.);
#96=ORIENTED_EDGE('',*,*,#185,.T.);
#97=ORIENTED_EDGE('',*,*,#186,.T.);
#98=ORIENTED_EDGE('',*,*,#187,.T.);
#99=ORIENTED_EDGE('',*,*,#188,.T.);
#100=ORIENTED_EDGE('',*,*,#189,.T.);
#101=ORIENTED_EDGE('',*,*,#184,.F.);
#102=ORIENTED_EDGE('',*,*,#190,.T.);
#103=ORIENTED_EDGE('',*,*,#191,.T.);
#104=ORIENTED_EDGE('',*,*,#192,.T.);
#105=ORIENTED_EDGE('',*,*,#193,.T.);
#106=ORIENTED_EDGE('',*,*,#194,.T.);
#107=ORIENTED_EDGE('',*,*,#195,.T.);
#108=ORIENTED_EDGE('',*,*,#195,.F.);
#109=ORIENTED_EDGE('',*,*,#150,.T.);
#110=ORIENTED_EDGE('',*,*,#194,.F.);
#111=ORIENTED_EDGE('',*,*,#189,.F.);
#112=ORIENTED_EDGE('',*,*,#193,.F.);
#113=ORIENTED_EDGE('',*,*,#188,.F.);
#114=ORIENTED_EDGE('',*,*,#192,.F.);
#115=ORIENTED_EDGE('',*,*,#187,.F.);
#116=ORIENTED_EDGE('',*,*,#191,.F.);
#117=ORIENTED_EDGE('',*,*,#186,.F.);
#118=ORIENTED_EDGE('',*,*,#190,.F.);
#119=ORIENTED_EDGE('',*,*,#185,.F.);
#120=ORIENTED_EDGE('',*,*,#196,.F.);
#121=ORIENTED_EDGE('',*,*,#162,.F.);
#122=ORIENTED_EDGE('',*,*,#196,.T.);
#123=ORIENTED_EDGE('',*,*,#161,.F.);
#124=ORIENTED_EDGE('',*,*,#182,.F.);
#125=ORIENTED_EDGE('',*,*,#163,.F.);
#126=ORIENTED_EDGE('',*,*,#197,.F.);
#127=ORIENTED_EDGE('',*,*,#174,.F.);
#128=ORIENTED_EDGE('',*,*,#197,.T.);
#129=ORIENTED_EDGE('',*,*,#173,.F.);
#130=ORIENTED_EDGE('',*,*,#179,.F.);
#131=ORIENTED_EDGE('',*,*,#175,.F.);
#132=ORIENTED_EDGE('',*,*,#198,.F.);
#133=ORIENTED_EDGE('',*,*,#170,.F.);
#134=ORIENTED_EDGE('',*,*,#198,.T.);
#135=ORIENTED_EDGE('',*,*,#169,.F.);
#136=ORIENTED_EDGE('',*,*,#180,.F.);
#137=ORIENTED_EDGE('',*,*,#171,.F.);
#138=ORIENTED_EDGE('',*,*,#199,.F.);
#139=ORIENTED_EDGE('',*,*,#166,.F.);
#140=ORIENTED_EDGE('',*,*,#199,.T.);
#141=ORIENTED_EDGE('',*,*,#165,.F.);
#142=ORIENTED_EDGE('',*,*,#181,.F.);
#143=ORIENTED_EDGE('',*,*,#167,.F.);
#144=ORIENTED_EDGE('',*,*,#200,.F.);
#145=ORIENTED_EDGE('',*,*,#158,.F.);
#146=ORIENTED_EDGE('',*,*,#200,.T.);
#147=ORIENTED_EDGE('',*,*,#177,.F.);
#148=ORIENTED_EDGE('',*,*,#178,.F.);
#149=ORIENTED_EDGE('',*,*,#159,.F.);
#150=EDGE_CURVE('',#201,#201,#242,.T.);
#151=EDGE_CURVE('',#202,#202,#243,.T.);
#152=EDGE_CURVE('',#203,#203,#244,.T.);
#153=EDGE_CURVE('',#204,#204,#245,.T.);
#154=EDGE_CURVE('',#205,#205,#246,.T.);
#155=EDGE_CURVE('',#206,#206,#247,.T.);
#156=EDGE_CURVE('',#207,#207,#248,.T.);
#157=EDGE_CURVE('',#208,#208,#249,.T.);
#158=EDGE_CURVE('',#209,#210,#250,.F.);
#159=EDGE_CURVE('',#210,#211,#12,.F.);
#160=EDGE_CURVE('',#211,#212,#251,.T.);
#161=EDGE_CURVE('',#212,#213,#13,.T.);
#162=EDGE_CURVE('',#213,#214,#252,.F.);
#163=EDGE_CURVE('',#214,#215,#14,.F.);
#164=EDGE_CURVE('',#215,#216,#253,.T.);
#165=EDGE_CURVE('',#216,#217,#15,.T.);
#166=EDGE_CURVE('',#217,#218,#254,.F.);
#167=EDGE_CURVE('',#218,#219,#16,.F.);
#168=EDGE_CURVE('',#219,#220,#255,.T.);
#169=EDGE_CURVE('',#220,#221,#17,.T.);
#170=EDGE_CURVE('',#221,#222,#256,.F.);
#171=EDGE_CURVE('',#222,#223,#18,.F.);
#172=EDGE_CURVE('',#223,#224,#257,.T.);
#173=EDGE_CURVE('',#224,#225,#19,.T.);
#174=EDGE_CURVE('',#225,#226,#258,.F.);
#175=EDGE_CURVE('',#226,#227,#20,.F.);
#176=EDGE_CURVE('',#227,#228,#259,.T.);
#177=EDGE_CURVE('',#228,#209,#21,.T.);
#178=EDGE_CURVE('',#211,#228,#260,.T.);
#179=EDGE_CURVE('',#227,#224,#261,.T.);
#180=EDGE_CURVE('',#223,#220,#262,.T.);
#181=EDGE_CURVE('',#219,#216,#263,.T.);
#182=EDGE_CURVE('',#215,#212,#264,.T.);
#183=EDGE_CURVE('',#229,#229,#265,.T.);
#184=EDGE_CURVE('',#230,#230,#266,.T.);
#185=EDGE_CURVE('',#231,#231,#267,.T.);
#186=EDGE_CURVE('',#232,#232,#268,.T.);
#187=EDGE_CURVE('',#233,#233,#269,.T.);
#188=EDGE_CURVE('',#234,#234,#270,.T.);
#189=EDGE_CURVE('',#235,#235,#271,.T.);
#190=EDGE_CURVE('',#236,#236,#272,.T.);
#191=EDGE_CURVE('',#237,#237,#273,.T.);
#192=EDGE_CURVE('',#238,#238,#274,.T.);
#193=EDGE_CURVE('',#239,#239,#275,.T.);
#194=EDGE_CURVE('',#240,#240,#276,.T.);
#195=EDGE_CURVE('',#241,#241,#277,.T.);
#196=EDGE_CURVE('',#214,#213,#278,.T.);
#197=EDGE_CURVE('',#226,#225,#279,.T.);
#198=EDGE_CURVE('',#222,#221,#280,.T.);
#199=EDGE_CURVE('',#218,#217,#281,.T.);
#200=EDGE_CURVE('',#210,#209,#282,.T.);
#201=VERTEX_POINT('',#666);
#202=VERTEX_POINT('',#668);
#203=VERTEX_POINT('',#671);
#204=VERTEX_POINT('',#674);
#205=VERTEX_POINT('',#677);
#206=VERTEX_POINT('',#680);
#207=VERTEX_POINT('',#683);
#208=VERTEX_POINT('',#686);
#209=VERTEX_POINT('',#689);
#210=VERTEX_POINT('',#690);
#211=VERTEX_POINT('',#692);
#212=VERTEX_POINT('',#694);
#213=VERTEX_POINT('',#696);
#214=VERTEX_POINT('',#698);
#215=VERTEX_POINT('',#700);
#216=VERTEX_POINT('',#702);
#217=VERTEX_POINT('',#704);
#218=VERTEX_POINT('',#706);
#219=VERTEX_POINT('',#708);
#220=VERTEX_POINT('',#710);
#221=VERTEX_POINT('',#712);
#222=VERTEX_POINT('',#714);
#223=VERTEX_POINT('',#716);
#224=VERTEX_POINT('',#718);
#225=VERTEX_POINT('',#720);
#226=VERTEX_POINT('',#722);
#227=VERTEX_POINT('',#724);
#228=VERTEX_POINT('',#726);
#229=VERTEX_POINT('',#735);
#230=VERTEX_POINT('',#738);
#231=VERTEX_POINT('',#741);
#232=VERTEX_POINT('',#743);
#233=VERTEX_POINT('',#745);
#234=VERTEX_POINT('',#747);
#235=VERTEX_POINT('',#749);
#236=VERTEX_POINT('',#752);
#237=VERTEX_POINT('',#754);
#238=VERTEX_POINT('',#756);
#239=VERTEX_POINT('',#758);
#240=VERTEX_POINT('',#760);
#241=VERTEX_POINT('',#762);
#242=CIRCLE('',#445,0.04445);
#243=CIRCLE('',#446,0.0381);
#244=CIRCLE('',#448,0.0381);
#245=CIRCLE('',#450,0.0361);
#246=CIRCLE('',#452,0.0361);
#247=CIRCLE('',#454,0.0381);
#248=CIRCLE('',#456,0.0381);
#249=CIRCLE('',#458,0.0311);
#250=CIRCLE('',#460,0.0311);
#251=CIRCLE('',#461,0.0311);
#252=CIRCLE('',#462,0.0311);
#253=CIRCLE('',#463,0.0311);
#254=CIRCLE('',#464,0.0311);
#255=CIRCLE('',#465,0.0311);
#256=CIRCLE('',#466,0.0311);
#257=CIRCLE('',#467,0.0311);
#258=CIRCLE('',#468,0.0311);
#259=CIRCLE('',#469,0.0311);
#260=CIRCLE('',#471,0.003);
#261=CIRCLE('',#472,0.003);
#262=CIRCLE('',#473,0.003);
#263=CIRCLE('',#474,0.003);
#264=CIRCLE('',#475,0.003);
#265=CIRCLE('',#476,0.04245);
#266=CIRCLE('',#478,0.04245);
#267=CIRCLE('',#480,0.003);
#268=CIRCLE('',#481,0.003);
#269=CIRCLE('',#482,0.003);
#270=CIRCLE('',#483,0.003);
#271=CIRCLE('',#484,0.003);
#272=CIRCLE('',#486,0.003);
#273=CIRCLE('',#487,0.003);
#274=CIRCLE('',#488,0.003);
#275=CIRCLE('',#489,0.003);
#276=CIRCLE('',#490,0.003);
#277=CIRCLE('',#491,0.04445);
#278=CIRCLE('',#499,0.003);
#279=CIRCLE('',#502,0.003);
#280=CIRCLE('',#505,0.003);
#281=CIRCLE('',#508,0.003);
#282=CIRCLE('',#511,0.003);
#283=EDGE_LOOP('',(#48));
#284=EDGE_LOOP('',(#49));
#285=EDGE_LOOP('',(#50));
#286=EDGE_LOOP('',(#51));
#287=EDGE_LOOP('',(#52));
#288=EDGE_LOOP('',(#53));
#289=EDGE_LOOP('',(#54));
#290=EDGE_LOOP('',(#55));
#291=EDGE_LOOP('',(#56));
#292=EDGE_LOOP('',(#57));
#293=EDGE_LOOP('',(#58));
#294=EDGE_LOOP('',(#59));
#295=EDGE_LOOP('',(#60));
#296=EDGE_LOOP('',(#61));
#297=EDGE_LOOP('',(#62));
#298=EDGE_LOOP('',(#63,#64,#65,#66,#67,#68,#69,#70,#71,#72,#73,#74,#75,
#76,#77,#78,#79,#80,#81,#82));
#299=EDGE_LOOP('',(#83,#84,#85,#86,#87,#88,#89,#90,#91,#92));
#300=EDGE_LOOP('',(#93));
#301=EDGE_LOOP('',(#94));
#302=EDGE_LOOP('',(#95));
#303=EDGE_LOOP('',(#96));
#304=EDGE_LOOP('',(#97));
#305=EDGE_LOOP('',(#98));
#306=EDGE_LOOP('',(#99));
#307=EDGE_LOOP('',(#100));
#308=EDGE_LOOP('',(#101));
#309=EDGE_LOOP('',(#102));
#310=EDGE_LOOP('',(#103));
#311=EDGE_LOOP('',(#104));
#312=EDGE_LOOP('',(#105));
#313=EDGE_LOOP('',(#106));
#314=EDGE_LOOP('',(#107));
#315=EDGE_LOOP('',(#108));
#316=EDGE_LOOP('',(#109));
#317=EDGE_LOOP('',(#110));
#318=EDGE_LOOP('',(#111));
#319=EDGE_LOOP('',(#112));
#320=EDGE_LOOP('',(#113));
#321=EDGE_LOOP('',(#114));
#322=EDGE_LOOP('',(#115));
#323=EDGE_LOOP('',(#116));
#324=EDGE_LOOP('',(#117));
#325=EDGE_LOOP('',(#118));
#326=EDGE_LOOP('',(#119));
#327=EDGE_LOOP('',(#120,#121));
#328=EDGE_LOOP('',(#122,#123,#124,#125));
#329=EDGE_LOOP('',(#126,#127));
#330=EDGE_LOOP('',(#128,#129,#130,#131));
#331=EDGE_LOOP('',(#132,#133));
#332=EDGE_LOOP('',(#134,#135,#136,#137));
#333=EDGE_LOOP('',(#138,#139));
#334=EDGE_LOOP('',(#140,#141,#142,#143));
#335=EDGE_LOOP('',(#144,#145));
#336=EDGE_LOOP('',(#146,#147,#148,#149));
#337=FACE_BOUND('',#283,.T.);
#338=FACE_BOUND('',#284,.T.);
#339=FACE_BOUND('',#285,.T.);
#340=FACE_BOUND('',#286,.T.);
#341=FACE_BOUND('',#287,.T.);
#342=FACE_BOUND('',#288,.T.);
#343=FACE_BOUND('',#289,.T.);
#344=FACE_BOUND('',#290,.T.);
#345=FACE_BOUND('',#291,.T.);
#346=FACE_BOUND('',#292,.T.);
#347=FACE_BOUND('',#293,.T.);
#348=FACE_BOUND('',#294,.T.);
#349=FACE_BOUND('',#295,.T.);
#350=FACE_BOUND('',#296,.T.);
#351=FACE_BOUND('',#297,.T.);
#352=FACE_BOUND('',#298,.T.);
#353=FACE_BOUND('',#299,.T.);
#354=FACE_BOUND('',#300,.T.);
#355=FACE_BOUND('',#301,.T.);
#356=FACE_BOUND('',#302,.T.);
#357=FACE_BOUND('',#303,.T.);
#358=FACE_BOUND('',#304,.T.);
#359=FACE_BOUND('',#305,.T.);
#360=FACE_BOUND('',#306,.T.);
#361=FACE_BOUND('',#307,.T.);
#362=FACE_BOUND('',#308,.T.);
#363=FACE_BOUND('',#309,.T.);
#364=FACE_BOUND('',#310,.T.);
#365=FACE_BOUND('',#311,.T.);
#366=FACE_BOUND('',#312,.T.);
#367=FACE_BOUND('',#313,.T.);
#368=FACE_BOUND('',#314,.T.);
#369=FACE_BOUND('',#315,.T.);
#370=FACE_BOUND('',#316,.T.);
#371=FACE_BOUND('',#317,.T.);
#372=FACE_BOUND('',#318,.T.);
#373=FACE_BOUND('',#319,.T.);
#374=FACE_BOUND('',#320,.T.);
#375=FACE_BOUND('',#321,.T.);
#376=FACE_BOUND('',#322,.T.);
#377=FACE_BOUND('',#323,.T.);
#378=FACE_BOUND('',#324,.T.);
#379=FACE_BOUND('',#325,.T.);
#380=FACE_BOUND('',#326,.T.);
#381=FACE_BOUND('',#327,.T.);
#382=FACE_BOUND('',#328,.T.);
#383=FACE_BOUND('',#329,.T.);
#384=FACE_BOUND('',#330,.T.);
#385=FACE_BOUND('',#331,.T.);
#386=FACE_BOUND('',#332,.T.);
#387=FACE_BOUND('',#333,.T.);
#388=FACE_BOUND('',#334,.T.);
#389=FACE_BOUND('',#335,.T.);
#390=FACE_BOUND('',#336,.T.);
#391=PLANE('',#444);
#392=PLANE('',#449);
#393=PLANE('',#453);
#394=PLANE('',#457);
#395=PLANE('',#470);
#396=PLANE('',#479);
#397=PLANE('',#485);
#398=PLANE('',#498);
#399=PLANE('',#501);
#400=PLANE('',#504);
#401=PLANE('',#507);
#402=PLANE('',#510);
#403=ADVANCED_FACE('',(#337,#338),#391,.F.);
#404=ADVANCED_FACE('',(#339,#340),#32,.T.);
#405=ADVANCED_FACE('',(#341,#342),#392,.F.);
#406=ADVANCED_FACE('',(#343,#344),#33,.T.);
#407=ADVANCED_FACE('',(#345,#346),#393,.F.);
#408=ADVANCED_FACE('',(#347,#348),#34,.T.);
#409=ADVANCED_FACE('',(#349,#350),#394,.F.);
#410=ADVANCED_FACE('',(#351,#352),#35,.F.);
#411=ADVANCED_FACE('',(#353,#354),#395,.F.);
#412=ADVANCED_FACE('',(#355,#356),#36,.F.);
#413=ADVANCED_FACE('',(#357,#358,#359,#360,#361,#362),#396,.F.);
#414=ADVANCED_FACE('',(#363,#364,#365,#366,#367,#368),#397,.F.);
#415=ADVANCED_FACE('',(#369,#370),#37,.T.);
#416=ADVANCED_FACE('',(#371,#372),#38,.F.);
#417=ADVANCED_FACE('',(#373,#374),#39,.F.);
#418=ADVANCED_FACE('',(#375,#376),#40,.F.);
#419=ADVANCED_FACE('',(#377,#378),#41,.F.);
#420=ADVANCED_FACE('',(#379,#380),#42,.F.);
#421=ADVANCED_FACE('',(#381),#398,.F.);
#422=ADVANCED_FACE('',(#382),#43,.F.);
#423=ADVANCED_FACE('',(#383),#399,.F.);
#424=ADVANCED_FACE('',(#384),#44,.F.);
#425=ADVANCED_FACE('',(#385),#400,.F.);
#426=ADVANCED_FACE('',(#386),#45,.F.);
#427=ADVANCED_FACE('',(#387),#401,.F.);
#428=ADVANCED_FACE('',(#388),#46,.F.);
#429=ADVANCED_FACE('',(#389),#402,.F.);
#430=ADVANCED_FACE('',(#390),#47,.F.);
#431=CLOSED_SHELL('',(#403,#404,#405,#406,#407,#408,#409,#410,#411,#412,
#413,#414,#415,#416,#417,#418,#419,#420,#421,#422,#423,#424,#425,#426,#427,
#428,#429,#430));
#432=STYLED_ITEM('',(#433),#440);
#433=PRESENTATION_STYLE_ASSIGNMENT((#434));
#434=SURFACE_STYLE_USAGE(.BOTH.,#435);
#435=SURFACE_SIDE_STYLE('',(#436));
#436=SURFACE_STYLE_FILL_AREA(#437);
#437=FILL_AREA_STYLE('',(#438));
#438=FILL_AREA_STYLE_COLOUR('',#439);
#439=COLOUR_RGB('',0.647058823529412,0.647058823529412,0.647058823529412);
#440=MANIFOLD_SOLID_BREP('Ballast Cap',#431);
#441=SHAPE_DEFINITION_REPRESENTATION(#790,#442);
#442=SHAPE_REPRESENTATION('Ballast Cap',(#443),#785);
#443=AXIS2_PLACEMENT_3D('',#663,#513,#514);
#444=AXIS2_PLACEMENT_3D('',#664,#515,#516);
#445=AXIS2_PLACEMENT_3D('',#665,#517,#518);
#446=AXIS2_PLACEMENT_3D('',#667,#519,#520);
#447=AXIS2_PLACEMENT_3D('',#669,#521,#522);
#448=AXIS2_PLACEMENT_3D('',#670,#523,#524);
#449=AXIS2_PLACEMENT_3D('',#672,#525,#526);
#450=AXIS2_PLACEMENT_3D('',#673,#527,#528);
#451=AXIS2_PLACEMENT_3D('',#675,#529,#530);
#452=AXIS2_PLACEMENT_3D('',#676,#531,#532);
#453=AXIS2_PLACEMENT_3D('',#678,#533,#534);
#454=AXIS2_PLACEMENT_3D('',#679,#535,#536);
#455=AXIS2_PLACEMENT_3D('',#681,#537,#538);
#456=AXIS2_PLACEMENT_3D('',#682,#539,#540);
#457=AXIS2_PLACEMENT_3D('',#684,#541,#542);
#458=AXIS2_PLACEMENT_3D('',#685,#543,#544);
#459=AXIS2_PLACEMENT_3D('',#687,#545,#546);
#460=AXIS2_PLACEMENT_3D('',#688,#547,#548);
#461=AXIS2_PLACEMENT_3D('',#693,#550,#551);
#462=AXIS2_PLACEMENT_3D('',#697,#553,#554);
#463=AXIS2_PLACEMENT_3D('',#701,#556,#557);
#464=AXIS2_PLACEMENT_3D('',#705,#559,#560);
#465=AXIS2_PLACEMENT_3D('',#709,#562,#563);
#466=AXIS2_PLACEMENT_3D('',#713,#565,#566);
#467=AXIS2_PLACEMENT_3D('',#717,#568,#569);
#468=AXIS2_PLACEMENT_3D('',#721,#571,#572);
#469=AXIS2_PLACEMENT_3D('',#725,#574,#575);
#470=AXIS2_PLACEMENT_3D('',#728,#577,#578);
#471=AXIS2_PLACEMENT_3D('',#729,#579,#580);
#472=AXIS2_PLACEMENT_3D('',#730,#581,#582);
#473=AXIS2_PLACEMENT_3D('',#731,#583,#584);
#474=AXIS2_PLACEMENT_3D('',#732,#585,#586);
#475=AXIS2_PLACEMENT_3D('',#733,#587,#588);
#476=AXIS2_PLACEMENT_3D('',#734,#589,#590);
#477=AXIS2_PLACEMENT_3D('',#736,#591,#592);
#478=AXIS2_PLACEMENT_3D('',#737,#593,#594);
#479=AXIS2_PLACEMENT_3D('',#739,#595,#596);
#480=AXIS2_PLACEMENT_3D('',#740,#597,#598);
#481=AXIS2_PLACEMENT_3D('',#742,#599,#600);
#482=AXIS2_PLACEMENT_3D('',#744,#601,#602);
#483=AXIS2_PLACEMENT_3D('',#746,#603,#604);
#484=AXIS2_PLACEMENT_3D('',#748,#605,#606);
#485=AXIS2_PLACEMENT_3D('',#750,#607,#608);
#486=AXIS2_PLACEMENT_3D('',#751,#609,#610);
#487=AXIS2_PLACEMENT_3D('',#753,#611,#612);
#488=AXIS2_PLACEMENT_3D('',#755,#613,#614);
#489=AXIS2_PLACEMENT_3D('',#757,#615,#616);
#490=AXIS2_PLACEMENT_3D('',#759,#617,#618);
#491=AXIS2_PLACEMENT_3D('',#761,#619,#620);
#492=AXIS2_PLACEMENT_3D('',#763,#621,#622);
#493=AXIS2_PLACEMENT_3D('',#764,#623,#624);
#494=AXIS2_PLACEMENT_3D('',#765,#625,#626);
#495=AXIS2_PLACEMENT_3D('',#766,#627,#628);
#496=AXIS2_PLACEMENT_3D('',#767,#629,#630);
#497=AXIS2_PLACEMENT_3D('',#768,#631,#632);
#498=AXIS2_PLACEMENT_3D('',#769,#633,#634);
#499=AXIS2_PLACEMENT_3D('',#770,#635,#636);
#500=AXIS2_PLACEMENT_3D('',#771,#637,#638);
#501=AXIS2_PLACEMENT_3D('',#772,#639,#640);
#502=AXIS2_PLACEMENT_3D('',#773,#641,#642);
#503=AXIS2_PLACEMENT_3D('',#774,#643,#644);
#504=AXIS2_PLACEMENT_3D('',#775,#645,#646);
#505=AXIS2_PLACEMENT_3D('',#776,#647,#648);
#506=AXIS2_PLACEMENT_3D('',#777,#649,#650);
#507=AXIS2_PLACEMENT_3D('',#778,#651,#652);
#508=AXIS2_PLACEMENT_3D('',#779,#653,#654);
#509=AXIS2_PLACEMENT_3D('',#780,#655,#656);
#510=AXIS2_PLACEMENT_3D('',#781,#657,#658);
#511=AXIS2_PLACEMENT_3D('',#782,#659,#660);
#512=AXIS2_PLACEMENT_3D('',#783,#661,#662);
#513=DIRECTION('',(0.,0.,1.));
#514=DIRECTION('',(1.,0.,0.));
#515=DIRECTION('',(0.,1.,0.));
#516=DIRECTION('',(0.,0.,1.));
#517=DIRECTION('',(0.,1.,0.));
#518=DIRECTION('',(0.,0.,1.));
#519=DIRECTION('',(0.,1.,0.));
#520=DIRECTION('',(0.,0.,1.));
#521=DIRECTION('',(0.,1.,0.));
#522=DIRECTION('',(0.,0.,1.));
#523=DIRECTION('',(0.,1.,0.));
#524=DIRECTION('',(0.,0.,1.));
#525=DIRECTION('',(0.,1.,0.));
#526=DIRECTION('',(0.,0.,1.));
#527=DIRECTION('',(0.,1.,0.));
#528=DIRECTION('',(0.,0.,1.));
#529=DIRECTION('',(0.,1.,0.));
#530=DIRECTION('',(0.,0.,1.));
#531=DIRECTION('',(0.,1.,0.));
#532=DIRECTION('',(0.,0.,1.));
#533=DIRECTION('',(0.,-1.,0.));
#534=DIRECTION('',(0.,0.,-1.));
#535=DIRECTION('',(0.,1.,0.));
#536=DIRECTION('',(0.,0.,1.));
#537=DIRECTION('',(0.,1.,0.));
#538=DIRECTION('',(0.,0.,1.));
#539=DIRECTION('',(0.,1.,0.));
#540=DIRECTION('',(0.,0.,1.));
#541=DIRECTION('',(0.,1.,0.));
#542=DIRECTION('',(0.,0.,1.));
#543=DIRECTION('',(0.,1.,0.));
#544=DIRECTION('',(0.,0.,1.));
#545=DIRECTION('',(0.,1.,0.));
#546=DIRECTION('',(0.,0.,1.));
#547=DIRECTION('',(0.,-1.,0.));
#548=DIRECTION('',(0.,0.,-1.));
#549=DIRECTION('',(0.,-1.,0.));
#550=DIRECTION('',(0.,1.,0.));
#551=DIRECTION('',(0.,0.,1.));
#552=DIRECTION('',(0.,-1.,0.));
#553=DIRECTION('',(0.,-1.,0.));
#554=DIRECTION('',(0.,0.,-1.));
#555=DIRECTION('',(0.,-1.,0.));
#556=DIRECTION('',(0.,1.,0.));
#557=DIRECTION('',(0.,0.,1.));
#558=DIRECTION('',(0.,-1.,0.));
#559=DIRECTION('',(0.,-1.,0.));
#560=DIRECTION('',(0.,0.,-1.));
#561=DIRECTION('',(0.,-1.,0.));
#562=DIRECTION('',(0.,1.,0.));
#563=DIRECTION('',(0.,0.,1.));
#564=DIRECTION('',(0.,-1.,0.));
#565=DIRECTION('',(0.,-1.,0.));
#566=DIRECTION('',(0.,0.,-1.));
#567=DIRECTION('',(0.,-1.,0.));
#568=DIRECTION('',(0.,1.,0.));
#569=DIRECTION('',(0.,0.,1.));
#570=DIRECTION('',(0.,-1.,0.));
#571=DIRECTION('',(0.,-1.,0.));
#572=DIRECTION('',(0.,0.,-1.));
#573=DIRECTION('',(0.,-1.,0.));
#574=DIRECTION('',(0.,1.,0.));
#575=DIRECTION('',(0.,0.,1.));
#576=DIRECTION('',(0.,-1.,0.));
#577=DIRECTION('',(0.,-1.,0.));
#578=DIRECTION('',(0.,0.,-1.));
#579=DIRECTION('',(0.,-1.,0.));
#580=DIRECTION('',(0.,0.,-1.));
#581=DIRECTION('',(0.,-1.,0.));
#582=DIRECTION('',(0.,0.,-1.));
#583=DIRECTION('',(0.,-1.,0.));
#584=DIRECTION('',(0.,0.,-1.));
#585=DIRECTION('',(0.,-1.,0.));
#586=DIRECTION('',(0.,0.,-1.));
#587=DIRECTION('',(0.,-1.,0.));
#588=DIRECTION('',(0.,0.,-1.));
#589=DIRECTION('',(0.,1.,0.));
#590=DIRECTION('',(0.,0.,1.));
#591=DIRECTION('',(0.,1.,0.));
#592=DIRECTION('',(0.,0.,1.));
#593=DIRECTION('',(0.,1.,0.));
#594=DIRECTION('',(0.,0.,1.));
#595=DIRECTION('',(0.,1.,0.));
#596=DIRECTION('',(0.,0.,1.));
#597=DIRECTION('',(0.,1.,0.));
#598=DIRECTION('',(0.,0.,1.));
#599=DIRECTION('',(0.,1.,0.));
#600=DIRECTION('',(0.,0.,1.));
#601=DIRECTION('',(0.,1.,0.));
#602=DIRECTION('',(0.,0.,1.));
#603=DIRECTION('',(0.,1.,0.));
#604=DIRECTION('',(0.,0.,1.));
#605=DIRECTION('',(0.,1.,0.));
#606=DIRECTION('',(0.,0.,1.));
#607=DIRECTION('',(0.,-1.,0.));
#608=DIRECTION('',(0.,0.,-1.));
#609=DIRECTION('',(0.,-1.,0.));
#610=DIRECTION('',(0.,0.,-1.));
#611=DIRECTION('',(0.,-1.,0.));
#612=DIRECTION('',(0.,0.,-1.));
#613=DIRECTION('',(0.,-1.,0.));
#614=DIRECTION('',(0.,0.,-1.));
#615=DIRECTION('',(0.,-1.,0.));
#616=DIRECTION('',(0.,0.,-1.));
#617=DIRECTION('',(0.,-1.,0.));
#618=DIRECTION('',(0.,0.,-1.));
#619=DIRECTION('',(0.,1.,0.));
#620=DIRECTION('',(0.,0.,1.));
#621=DIRECTION('',(0.,1.,0.));
#622=DIRECTION('',(0.,0.,1.));
#623=DIRECTION('',(0.,-1.,0.));
#624=DIRECTION('',(0.,0.,-1.));
#625=DIRECTION('',(0.,-1.,0.));
#626=DIRECTION('',(0.,0.,-1.));
#627=DIRECTION('',(0.,-1.,0.));
#628=DIRECTION('',(0.,0.,-1.));
#629=DIRECTION('',(0.,-1.,0.));
#630=DIRECTION('',(0.,0.,-1.));
#631=DIRECTION('',(0.,-1.,0.));
#632=DIRECTION('',(0.,0.,-1.));
#633=DIRECTION('',(0.,-1.,0.));
#634=DIRECTION('',(1.,0.,0.));
#635=DIRECTION('',(0.,-1.,0.));
#636=DIRECTION('',(0.,0.,-1.));
#637=DIRECTION('',(0.,-1.,0.));
#638=DIRECTION('',(0.,0.,-1.));
#639=DIRECTION('',(0.,-1.,0.));
#640=DIRECTION('',(1.,0.,0.));
#641=DIRECTION('',(0.,-1.,0.));
#642=DIRECTION('',(0.,0.,-1.));
#643=DIRECTION('',(0.,-1.,0.));
#644=DIRECTION('',(0.,0.,-1.));
#645=DIRECTION('',(0.,-1.,0.));
#646=DIRECTION('',(1.,0.,0.));
#647=DIRECTION('',(0.,-1.,0.));
#648=DIRECTION('',(0.,0.,-1.));
#649=DIRECTION('',(0.,-1.,0.));
#650=DIRECTION('',(0.,0.,-1.));
#651=DIRECTION('',(0.,-1.,0.));
#652=DIRECTION('',(1.,0.,0.));
#653=DIRECTION('',(0.,-1.,0.));
#654=DIRECTION('',(0.,0.,-1.));
#655=DIRECTION('',(0.,-1.,0.));
#656=DIRECTION('',(0.,0.,-1.));
#657=DIRECTION('',(0.,-1.,0.));
#658=DIRECTION('',(1.,0.,0.));
#659=DIRECTION('',(0.,-1.,0.));
#660=DIRECTION('',(0.,0.,-1.));
#661=DIRECTION('',(0.,-1.,0.));
#662=DIRECTION('',(0.,0.,-1.));
#663=CARTESIAN_POINT('',(0.,0.,0.));
#664=CARTESIAN_POINT('',(0.,0.,0.041275));
#665=CARTESIAN_POINT('',(0.,0.,0.));
#666=CARTESIAN_POINT('',(0.,0.,0.04445));
#667=CARTESIAN_POINT('',(0.,0.,0.));
#668=CARTESIAN_POINT('',(0.,0.,0.0381));
#669=CARTESIAN_POINT('',(0.,0.007,0.));
#670=CARTESIAN_POINT('',(0.,-0.0055,0.));
#671=CARTESIAN_POINT('',(0.,-0.0055,0.0381));
#672=CARTESIAN_POINT('',(0.,-0.0055,0.0371));
#673=CARTESIAN_POINT('',(0.,-0.0055,0.));
#674=CARTESIAN_POINT('',(0.,-0.0055,0.0361));
#675=CARTESIAN_POINT('',(0.,0.007,0.));
#676=CARTESIAN_POINT('',(0.,-0.0095,0.));
#677=CARTESIAN_POINT('',(0.,-0.0095,0.0361));
#678=CARTESIAN_POINT('',(0.,-0.0095,0.0371));
#679=CARTESIAN_POINT('',(0.,-0.0095,0.));
#680=CARTESIAN_POINT('',(0.,-0.0095,0.0381));
#681=CARTESIAN_POINT('',(0.,0.007,0.));
#682=CARTESIAN_POINT('',(0.,-0.015,0.));
#683=CARTESIAN_POINT('',(0.,-0.015,0.0381));
#684=CARTESIAN_POINT('',(0.,-0.015,0.0346));
#685=CARTESIAN_POINT('',(0.,-0.015,0.));
#686=CARTESIAN_POINT('',(0.,-0.015,0.0311));
#687=CARTESIAN_POINT('',(0.,0.007,0.));
#688=CARTESIAN_POINT('',(0.,0.,0.));
#689=CARTESIAN_POINT('',(-0.0129151386416292,0.,0.0282915039166796));
#690=CARTESIAN_POINT('',(-0.00726775190034744,0.,0.0302388786550526));
#691=CARTESIAN_POINT('',(-0.00726775190034744,0.0125,0.0302388786550527));
#692=CARTESIAN_POINT('',(-0.00726775190034746,0.003,0.0302388786550526));
#693=CARTESIAN_POINT('',(0.,0.003,0.));
#694=CARTESIAN_POINT('',(0.00726775190034746,0.003,0.0302388786550526));
#695=CARTESIAN_POINT('',(0.00726775190034744,0.0125,0.0302388786550527));
#696=CARTESIAN_POINT('',(0.00726775190034744,0.,0.0302388786550526));
#697=CARTESIAN_POINT('',(0.,0.,0.));
#698=CARTESIAN_POINT('',(0.0129151386416292,0.,0.0282915039166796));
#699=CARTESIAN_POINT('',(0.0129151386416292,0.0125,0.0282915039166796));
#700=CARTESIAN_POINT('',(0.0129151386416292,0.003,0.0282915039166796));
#701=CARTESIAN_POINT('',(0.,0.003,0.));
#702=CARTESIAN_POINT('',(0.0302388786550526,0.003,-0.00726775190034746));
#703=CARTESIAN_POINT('',(0.0302388786550526,0.0125,-0.00726775190034745));
#704=CARTESIAN_POINT('',(0.0302388786550526,0.,-0.00726775190034745));
#705=CARTESIAN_POINT('',(0.,0.,0.));
#706=CARTESIAN_POINT('',(0.0282915039166796,0.,-0.0129151386416292));
#707=CARTESIAN_POINT('',(0.0282915039166796,0.0125,-0.0129151386416292));
#708=CARTESIAN_POINT('',(0.0282915039166796,0.003,-0.0129151386416292));
#709=CARTESIAN_POINT('',(0.,0.003,0.));
#710=CARTESIAN_POINT('',(-0.00726775190034746,0.003,-0.0302388786550526));
#711=CARTESIAN_POINT('',(-0.00726775190034744,0.0125,-0.0302388786550527));
#712=CARTESIAN_POINT('',(-0.00726775190034744,0.,-0.0302388786550526));
#713=CARTESIAN_POINT('',(0.,0.,0.));
#714=CARTESIAN_POINT('',(-0.0129151386416292,0.,-0.0282915039166796));
#715=CARTESIAN_POINT('',(-0.0129151386416292,0.0125,-0.0282915039166796));
#716=CARTESIAN_POINT('',(-0.0129151386416292,0.003,-0.0282915039166796));
#717=CARTESIAN_POINT('',(0.,0.003,0.));
#718=CARTESIAN_POINT('',(-0.0282915039166796,0.003,-0.0129151386416292));
#719=CARTESIAN_POINT('',(-0.0282915039166796,0.0125,-0.0129151386416292));
#720=CARTESIAN_POINT('',(-0.0282915039166796,0.,-0.0129151386416292));
#721=CARTESIAN_POINT('',(0.,0.,0.));
#722=CARTESIAN_POINT('',(-0.0302388786550526,0.,-0.00726775190034745));
#723=CARTESIAN_POINT('',(-0.0302388786550526,0.0125,-0.00726775190034745));
#724=CARTESIAN_POINT('',(-0.0302388786550526,0.003,-0.00726775190034746));
#725=CARTESIAN_POINT('',(0.,0.003,0.));
#726=CARTESIAN_POINT('',(-0.0129151386416292,0.003,0.0282915039166796));
#727=CARTESIAN_POINT('',(-0.0129151386416292,0.0125,0.0282915039166796));
#728=CARTESIAN_POINT('',(0.,0.003,0.036775));
#729=CARTESIAN_POINT('',(-0.01,0.003,0.029));
#730=CARTESIAN_POINT('',(-0.029,0.003,-0.01));
#731=CARTESIAN_POINT('',(-0.01,0.003,-0.029));
#732=CARTESIAN_POINT('',(0.029,0.003,-0.01));
#733=CARTESIAN_POINT('',(0.01,0.003,0.029));
#734=CARTESIAN_POINT('',(0.,0.003,0.));
#735=CARTESIAN_POINT('',(0.,0.003,0.04245));
#736=CARTESIAN_POINT('',(0.,0.007,0.));
#737=CARTESIAN_POINT('',(0.,0.006,0.));
#738=CARTESIAN_POINT('',(0.,0.006,0.04245));
#739=CARTESIAN_POINT('',(0.,0.006,0.021225));
#740=CARTESIAN_POINT('',(-0.01,0.006,0.029));
#741=CARTESIAN_POINT('',(-0.01,0.006,0.032));
#742=CARTESIAN_POINT('',(0.029,0.006,-0.01));
#743=CARTESIAN_POINT('',(0.029,0.006,-0.007));
#744=CARTESIAN_POINT('',(-0.01,0.006,-0.029));
#745=CARTESIAN_POINT('',(-0.01,0.006,-0.026));
#746=CARTESIAN_POINT('',(-0.029,0.006,-0.01));
#747=CARTESIAN_POINT('',(-0.029,0.006,-0.007));
#748=CARTESIAN_POINT('',(0.01,0.006,0.029));
#749=CARTESIAN_POINT('',(0.01,0.006,0.032));
#750=CARTESIAN_POINT('',(0.,0.008,0.022225));
#751=CARTESIAN_POINT('',(-0.01,0.008,0.029));
#752=CARTESIAN_POINT('',(-0.01,0.008,0.026));
#753=CARTESIAN_POINT('',(0.029,0.008,-0.01));
#754=CARTESIAN_POINT('',(0.029,0.008,-0.013));
#755=CARTESIAN_POINT('',(-0.01,0.008,-0.029));
#756=CARTESIAN_POINT('',(-0.01,0.008,-0.032));
#757=CARTESIAN_POINT('',(-0.029,0.008,-0.01));
#758=CARTESIAN_POINT('',(-0.029,0.008,-0.013));
#759=CARTESIAN_POINT('',(0.01,0.008,0.029));
#760=CARTESIAN_POINT('',(0.01,0.008,0.026));
#761=CARTESIAN_POINT('',(0.,0.008,0.));
#762=CARTESIAN_POINT('',(0.,0.008,0.04445));
#763=CARTESIAN_POINT('',(0.,0.007,0.));
#764=CARTESIAN_POINT('',(0.01,0.025,0.029));
#765=CARTESIAN_POINT('',(-0.029,0.025,-0.01));
#766=CARTESIAN_POINT('',(-0.01,0.025,-0.029));
#767=CARTESIAN_POINT('',(0.029,0.025,-0.01));
#768=CARTESIAN_POINT('',(-0.01,0.025,0.029));
#769=CARTESIAN_POINT('',(0.,0.,0.));
#770=CARTESIAN_POINT('',(0.01,0.,0.029));
#771=CARTESIAN_POINT('',(0.01,0.025,0.029));
#772=CARTESIAN_POINT('',(0.,0.,0.));
#773=CARTESIAN_POINT('',(-0.029,0.,-0.01));
#774=CARTESIAN_POINT('',(-0.029,0.025,-0.01));
#775=CARTESIAN_POINT('',(0.,0.,0.));
#776=CARTESIAN_POINT('',(-0.01,0.,-0.029));
#777=CARTESIAN_POINT('',(-0.01,0.025,-0.029));
#778=CARTESIAN_POINT('',(0.,0.,0.));
#779=CARTESIAN_POINT('',(0.029,0.,-0.01));
#780=CARTESIAN_POINT('',(0.029,0.025,-0.01));
#781=CARTESIAN_POINT('',(0.,0.,0.));
#782=CARTESIAN_POINT('',(-0.01,0.,0.029));
#783=CARTESIAN_POINT('',(-0.01,0.025,0.029));
#784=MECHANICAL_DESIGN_GEOMETRIC_PRESENTATION_REPRESENTATION('',(#432),
#785);
#785=(
GEOMETRIC_REPRESENTATION_CONTEXT(3)
GLOBAL_UNCERTAINTY_ASSIGNED_CONTEXT((#786))
GLOBAL_UNIT_ASSIGNED_CONTEXT((#789,#788,#787))
REPRESENTATION_CONTEXT('Ballast Cap','TOP_LEVEL_ASSEMBLY_PART')
);
#786=UNCERTAINTY_MEASURE_WITH_UNIT(LENGTH_MEASURE(1.E-8),#789,
'DISTANCE_ACCURACY_VALUE','Maximum Tolerance applied to model');
#787=(
NAMED_UNIT(*)
SI_UNIT($,.STERADIAN.)
SOLID_ANGLE_UNIT()
);
#788=(
NAMED_UNIT(*)
PLANE_ANGLE_UNIT()
SI_UNIT($,.RADIAN.)
);
#789=(
LENGTH_UNIT()
NAMED_UNIT(*)
SI_UNIT($,.METRE.)
);
#790=PRODUCT_DEFINITION_SHAPE('','',#791);
#791=PRODUCT_DEFINITION('','',#793,#792);
#792=PRODUCT_DEFINITION_CONTEXT('',#799,'design');
#793=PRODUCT_DEFINITION_FORMATION_WITH_SPECIFIED_SOURCE('','',#795,
 .NOT_KNOWN.);
#794=PRODUCT_RELATED_PRODUCT_CATEGORY('','',(#795));
#795=PRODUCT('Ballast Cap','Ballast Cap','Ballast Cap',(#797));
#796=PRODUCT_CATEGORY('','');
#797=PRODUCT_CONTEXT('',#799,'mechanical');
#798=APPLICATION_PROTOCOL_DEFINITION('international standard',
'ap242_managed_model_based_3d_engineering',2020,#799);
#799=APPLICATION_CONTEXT('managed model based 3d engineering');
ENDSEC;
END-ISO-10303-21;
