ISO-10303-21;
HEADER;
/* Generated by software containing ST-Developer
 * from STEP Tools, Inc. (www.steptools.com) 
 */
/* OPTION: using custom renumber hook */

FILE_DESCRIPTION(
/* description */ ('STEP AP242 Edition 2',
'CAx-IF Rec.Pracs.---Representation and Presentation of Product Manufa
cturing Information (PMI)---4.0---2014-10-13',
'CAx-IF Rec.Pracs.---3D Tessellated Geometry---0.4---2014-09-14','2;1',
'CAx-IF Rec.Pracs.---User Defined Attributes---1.5---2016-08-15'),
/* implementation_level */ '2;1');

FILE_NAME(
/* name */ 'Propeller - Prop V1.5',
/* time_stamp */ '2026-08-23T20:31:39Z',
/* author */ (''),
/* organization */ (''),
/* preprocessor_version */ 'ST-DEVELOPER v20',
/* originating_system */ 'ONSHAPE BY PTC INC, 1.219',
/* authorisation */ '  ');

FILE_SCHEMA (('AP242_MANAGED_MODEL_BASED_3D_ENGINEERING_MIM_LF { 1 0 10303 442 3 1 4 }'));
ENDSEC;

DATA;
#10=SHAPE_REPRESENTATION_RELATIONSHIP('','',#623,#11);
#11=ADVANCED_BREP_SHAPE_REPRESENTATION('',(#621),#1151);
#12=B_SPLINE_SURFACE_WITH_KNOTS('',3,1,((#890,#891),(#892,#893),(#894,#895),
(#896,#897)),.SURF_OF_LINEAR_EXTRUSION.,.F.,.F.,.F.,(4,4),(2,2),(0.5,1.),
(0.,1.),.PIECEWISE_BEZIER_KNOTS.);
#13=B_SPLINE_SURFACE_WITH_KNOTS('',3,1,((#906,#907),(#908,#909),(#910,#911),
(#912,#913)),.SURF_OF_LINEAR_EXTRUSION.,.F.,.F.,.F.,(4,4),(2,2),(-1.20374646001451E-18,
0.5),(0.,1.),.PIECEWISE_BEZIER_KNOTS.);
#14=B_SPLINE_SURFACE_WITH_KNOTS('',3,1,((#924,#925),(#926,#927),(#928,#929),
(#930,#931)),.SURF_OF_LINEAR_EXTRUSION.,.F.,.F.,.F.,(4,4),(2,2),(0.,0.5),
(0.,1.),.PIECEWISE_BEZIER_KNOTS.);
#15=B_SPLINE_SURFACE_WITH_KNOTS('',3,1,((#938,#939),(#940,#941),(#942,#943),
(#944,#945)),.SURF_OF_LINEAR_EXTRUSION.,.F.,.F.,.F.,(4,4),(2,2),(0.5,1.),
(0.,1.),.PIECEWISE_BEZIER_KNOTS.);
#16=B_SPLINE_SURFACE_WITH_KNOTS('',3,1,((#955,#956),(#957,#958),(#959,#960),
(#961,#962)),.SURF_OF_LINEAR_EXTRUSION.,.F.,.F.,.F.,(4,4),(2,2),(0.5,1.),
(0.,1.),.PIECEWISE_BEZIER_KNOTS.);
#17=B_SPLINE_SURFACE_WITH_KNOTS('',3,1,((#971,#972),(#973,#974),(#975,#976),
(#977,#978)),.SURF_OF_LINEAR_EXTRUSION.,.F.,.F.,.F.,(4,4),(2,2),(0.,0.5),
(0.,1.),.PIECEWISE_BEZIER_KNOTS.);
#18=B_SPLINE_SURFACE_WITH_KNOTS('',3,1,((#989,#990),(#991,#992),(#993,#994),
(#995,#996)),.SURF_OF_LINEAR_EXTRUSION.,.F.,.F.,.F.,(4,4),(2,2),(0.,0.5),
(0.,1.),.PIECEWISE_BEZIER_KNOTS.);
#19=B_SPLINE_SURFACE_WITH_KNOTS('',3,1,((#1003,#1004),(#1005,#1006),(#1007,
#1008),(#1009,#1010)),.SURF_OF_LINEAR_EXTRUSION.,.F.,.F.,.F.,(4,4),(2,2),
(0.5,1.),(0.,1.),.PIECEWISE_BEZIER_KNOTS.);
#20=B_SPLINE_SURFACE_WITH_KNOTS('',3,1,((#1020,#1021),(#1022,#1023),(#1024,
#1025),(#1026,#1027)),.SURF_OF_LINEAR_EXTRUSION.,.F.,.F.,.F.,(4,4),(2,2),
(0.5,1.),(0.,1.),.PIECEWISE_BEZIER_KNOTS.);
#21=B_SPLINE_SURFACE_WITH_KNOTS('',3,1,((#1036,#1037),(#1038,#1039),(#1040,
#1041),(#1042,#1043)),.SURF_OF_LINEAR_EXTRUSION.,.F.,.F.,.F.,(4,4),(2,2),
(-8.33710539030457E-17,0.5),(0.,1.),.PIECEWISE_BEZIER_KNOTS.);
#22=B_SPLINE_SURFACE_WITH_KNOTS('',3,1,((#1054,#1055),(#1056,#1057),(#1058,
#1059),(#1060,#1061)),.SURF_OF_LINEAR_EXTRUSION.,.F.,.F.,.F.,(4,4),(2,2),
(-7.1701946058098E-18,0.5),(0.,1.),.PIECEWISE_BEZIER_KNOTS.);
#23=B_SPLINE_SURFACE_WITH_KNOTS('',3,1,((#1068,#1069),(#1070,#1071),(#1072,
#1073),(#1074,#1075)),.SURF_OF_LINEAR_EXTRUSION.,.F.,.F.,.F.,(4,4),(2,2),
(0.5,1.),(0.,1.),.PIECEWISE_BEZIER_KNOTS.);
#24=B_SPLINE_SURFACE_WITH_KNOTS('',3,1,((#1085,#1086),(#1087,#1088),(#1089,
#1090),(#1091,#1092)),.SURF_OF_LINEAR_EXTRUSION.,.F.,.F.,.F.,(4,4),(2,2),
(0.5,1.),(0.,1.),.PIECEWISE_BEZIER_KNOTS.);
#25=B_SPLINE_SURFACE_WITH_KNOTS('',3,1,((#1101,#1102),(#1103,#1104),(#1105,
#1106),(#1107,#1108)),.SURF_OF_LINEAR_EXTRUSION.,.F.,.F.,.F.,(4,4),(2,2),
(0.,0.5),(0.,1.),.PIECEWISE_BEZIER_KNOTS.);
#26=B_SPLINE_SURFACE_WITH_KNOTS('',3,1,((#1119,#1120),(#1121,#1122),(#1123,
#1124),(#1125,#1126)),.SURF_OF_LINEAR_EXTRUSION.,.F.,.F.,.F.,(4,4),(2,2),
(-1.86453920444518E-17,0.5),(0.,1.),.PIECEWISE_BEZIER_KNOTS.);
#27=B_SPLINE_SURFACE_WITH_KNOTS('',3,1,((#1133,#1134),(#1135,#1136),(#1137,
#1138),(#1139,#1140)),.SURF_OF_LINEAR_EXTRUSION.,.F.,.F.,.F.,(4,4),(2,2),
(0.5,1.),(0.,1.),.PIECEWISE_BEZIER_KNOTS.);
#28=LINE('',#785,#68);
#29=LINE('',#799,#69);
#30=LINE('',#812,#70);
#31=LINE('',#826,#71);
#32=LINE('',#839,#72);
#33=LINE('',#853,#73);
#34=LINE('',#866,#74);
#35=LINE('',#880,#75);
#36=LINE('',#898,#76);
#37=LINE('',#900,#77);
#38=LINE('',#914,#78);
#39=LINE('',#921,#79);
#40=LINE('',#923,#80);
#41=LINE('',#932,#81);
#42=LINE('',#946,#82);
#43=LINE('',#953,#83);
#44=LINE('',#963,#84);
#45=LINE('',#965,#85);
#46=LINE('',#979,#86);
#47=LINE('',#986,#87);
#48=LINE('',#988,#88);
#49=LINE('',#997,#89);
#50=LINE('',#1011,#90);
#51=LINE('',#1018,#91);
#52=LINE('',#1028,#92);
#53=LINE('',#1030,#93);
#54=LINE('',#1044,#94);
#55=LINE('',#1051,#95);
#56=LINE('',#1053,#96);
#57=LINE('',#1062,#97);
#58=LINE('',#1076,#98);
#59=LINE('',#1083,#99);
#60=LINE('',#1093,#100);
#61=LINE('',#1095,#101);
#62=LINE('',#1109,#102);
#63=LINE('',#1116,#103);
#64=LINE('',#1118,#104);
#65=LINE('',#1127,#105);
#66=LINE('',#1141,#106);
#67=LINE('',#1148,#107);
#68=VECTOR('',#682,1.);
#69=VECTOR('',#683,1.);
#70=VECTOR('',#684,1.);
#71=VECTOR('',#685,1.);
#72=VECTOR('',#686,1.);
#73=VECTOR('',#687,1.);
#74=VECTOR('',#688,1.);
#75=VECTOR('',#689,1.);
#76=VECTOR('',#698,1.);
#77=VECTOR('',#699,1.);
#78=VECTOR('',#700,1.);
#79=VECTOR('',#703,1.);
#80=VECTOR('',#704,1.);
#81=VECTOR('',#705,1.);
#82=VECTOR('',#706,1.);
#83=VECTOR('',#709,1.);
#84=VECTOR('',#712,1.);
#85=VECTOR('',#713,1.);
#86=VECTOR('',#714,1.);
#87=VECTOR('',#717,1.);
#88=VECTOR('',#718,1.);
#89=VECTOR('',#719,1.);
#90=VECTOR('',#720,1.);
#91=VECTOR('',#723,1.);
#92=VECTOR('',#726,1.);
#93=VECTOR('',#727,1.);
#94=VECTOR('',#728,1.);
#95=VECTOR('',#731,1.);
#96=VECTOR('',#732,1.);
#97=VECTOR('',#733,1.);
#98=VECTOR('',#734,1.);
#99=VECTOR('',#737,1.);
#100=VECTOR('',#740,1.);
#101=VECTOR('',#741,1.);
#102=VECTOR('',#742,1.);
#103=VECTOR('',#745,1.);
#104=VECTOR('',#746,1.);
#105=VECTOR('',#747,1.);
#106=VECTOR('',#748,1.);
#107=VECTOR('',#751,1.);
#108=B_SPLINE_CURVE_WITH_KNOTS('',3,(#778,#779,#780,#781,#782),
 .UNSPECIFIED.,.F.,.F.,(4,1,4),(0.,0.00542411567843296,0.0108482313568659),
 .UNSPECIFIED.);
#109=B_SPLINE_CURVE_WITH_KNOTS('',3,(#787,#788,#789,#790,#791),
 .UNSPECIFIED.,.F.,.F.,(4,1,4),(0.,0.00541622941437057,0.0108324588287411),
 .UNSPECIFIED.);
#110=B_SPLINE_CURVE_WITH_KNOTS('',3,(#793,#794,#795,#796,#797),
 .UNSPECIFIED.,.F.,.F.,(4,1,4),(0.,0.00541190361701324,0.0108238072340265),
 .UNSPECIFIED.);
#111=B_SPLINE_CURVE_WITH_KNOTS('',3,(#801,#802,#803,#804),.UNSPECIFIED.,
 .F.,.F.,(4,4),(0.,0.0108329197345816),.UNSPECIFIED.);
#112=B_SPLINE_CURVE_WITH_KNOTS('',3,(#805,#806,#807,#808,#809),
 .UNSPECIFIED.,.F.,.F.,(4,1,4),(0.,0.00542411567843297,0.0108482313568659),
 .UNSPECIFIED.);
#113=B_SPLINE_CURVE_WITH_KNOTS('',3,(#814,#815,#816,#817,#818),
 .UNSPECIFIED.,.F.,.F.,(4,1,4),(0.,0.00541622941437057,0.0108324588287411),
 .UNSPECIFIED.);
#114=B_SPLINE_CURVE_WITH_KNOTS('',3,(#820,#821,#822,#823,#824),
 .UNSPECIFIED.,.F.,.F.,(4,1,4),(0.,0.00541190361701324,0.0108238072340265),
 .UNSPECIFIED.);
#115=B_SPLINE_CURVE_WITH_KNOTS('',3,(#828,#829,#830,#831),.UNSPECIFIED.,
 .F.,.F.,(4,4),(0.,0.0108329197345816),.UNSPECIFIED.);
#116=B_SPLINE_CURVE_WITH_KNOTS('',3,(#832,#833,#834,#835,#836),
 .UNSPECIFIED.,.F.,.F.,(4,1,4),(0.,0.00542411567843297,0.0108482313568659),
 .UNSPECIFIED.);
#117=B_SPLINE_CURVE_WITH_KNOTS('',3,(#841,#842,#843,#844,#845),
 .UNSPECIFIED.,.F.,.F.,(4,1,4),(0.,0.00541622941437057,0.0108324588287411),
 .UNSPECIFIED.);
#118=B_SPLINE_CURVE_WITH_KNOTS('',3,(#847,#848,#849,#850,#851),
 .UNSPECIFIED.,.F.,.F.,(4,1,4),(0.,0.00541190361701324,0.0108238072340265),
 .UNSPECIFIED.);
#119=B_SPLINE_CURVE_WITH_KNOTS('',3,(#855,#856,#857,#858),.UNSPECIFIED.,
 .F.,.F.,(4,4),(0.,0.0108329197345816),.UNSPECIFIED.);
#120=B_SPLINE_CURVE_WITH_KNOTS('',3,(#859,#860,#861,#862,#863),
 .UNSPECIFIED.,.F.,.F.,(4,1,4),(0.,0.00542411567843297,0.0108482313568659),
 .UNSPECIFIED.);
#121=B_SPLINE_CURVE_WITH_KNOTS('',3,(#868,#869,#870,#871,#872),
 .UNSPECIFIED.,.F.,.F.,(4,1,4),(0.,0.00541622941437057,0.0108324588287411),
 .UNSPECIFIED.);
#122=B_SPLINE_CURVE_WITH_KNOTS('',3,(#874,#875,#876,#877,#878),
 .UNSPECIFIED.,.F.,.F.,(4,1,4),(0.,0.00541190361701323,0.0108238072340265),
 .UNSPECIFIED.);
#123=B_SPLINE_CURVE_WITH_KNOTS('',3,(#882,#883,#884,#885),.UNSPECIFIED.,
 .F.,.F.,(4,4),(0.,0.0108329197345816),.UNSPECIFIED.);
#124=B_SPLINE_CURVE_WITH_KNOTS('',3,(#902,#903,#904,#905),.UNSPECIFIED.,
 .F.,.F.,(4,4),(0.5,1.),.PIECEWISE_BEZIER_KNOTS.);
#125=B_SPLINE_CURVE_WITH_KNOTS('',3,(#916,#917,#918,#919),.UNSPECIFIED.,
 .F.,.F.,(4,4),(0.,0.5),.PIECEWISE_BEZIER_KNOTS.);
#126=B_SPLINE_CURVE_WITH_KNOTS('',3,(#934,#935,#936,#937),.UNSPECIFIED.,
 .F.,.F.,(4,4),(0.,0.5),.PIECEWISE_BEZIER_KNOTS.);
#127=B_SPLINE_CURVE_WITH_KNOTS('',3,(#948,#949,#950,#951),.UNSPECIFIED.,
 .F.,.F.,(4,4),(0.5,1.),.PIECEWISE_BEZIER_KNOTS.);
#128=B_SPLINE_CURVE_WITH_KNOTS('',3,(#967,#968,#969,#970),.UNSPECIFIED.,
 .F.,.F.,(4,4),(0.5,1.),.PIECEWISE_BEZIER_KNOTS.);
#129=B_SPLINE_CURVE_WITH_KNOTS('',3,(#981,#982,#983,#984),.UNSPECIFIED.,
 .F.,.F.,(4,4),(0.,0.5),.PIECEWISE_BEZIER_KNOTS.);
#130=B_SPLINE_CURVE_WITH_KNOTS('',3,(#999,#1000,#1001,#1002),
 .UNSPECIFIED.,.F.,.F.,(4,4),(0.,0.5),.PIECEWISE_BEZIER_KNOTS.);
#131=B_SPLINE_CURVE_WITH_KNOTS('',3,(#1013,#1014,#1015,#1016),
 .UNSPECIFIED.,.F.,.F.,(4,4),(0.5,1.),.PIECEWISE_BEZIER_KNOTS.);
#132=B_SPLINE_CURVE_WITH_KNOTS('',3,(#1032,#1033,#1034,#1035),
 .UNSPECIFIED.,.F.,.F.,(4,4),(0.5,1.),.PIECEWISE_BEZIER_KNOTS.);
#133=B_SPLINE_CURVE_WITH_KNOTS('',3,(#1046,#1047,#1048,#1049),
 .UNSPECIFIED.,.F.,.F.,(4,4),(0.,0.5),.PIECEWISE_BEZIER_KNOTS.);
#134=B_SPLINE_CURVE_WITH_KNOTS('',3,(#1064,#1065,#1066,#1067),
 .UNSPECIFIED.,.F.,.F.,(4,4),(0.,0.5),.PIECEWISE_BEZIER_KNOTS.);
#135=B_SPLINE_CURVE_WITH_KNOTS('',3,(#1078,#1079,#1080,#1081),
 .UNSPECIFIED.,.F.,.F.,(4,4),(0.5,1.),.PIECEWISE_BEZIER_KNOTS.);
#136=B_SPLINE_CURVE_WITH_KNOTS('',3,(#1097,#1098,#1099,#1100),
 .UNSPECIFIED.,.F.,.F.,(4,4),(0.5,1.),.PIECEWISE_BEZIER_KNOTS.);
#137=B_SPLINE_CURVE_WITH_KNOTS('',3,(#1111,#1112,#1113,#1114),
 .UNSPECIFIED.,.F.,.F.,(4,4),(0.,0.5),.PIECEWISE_BEZIER_KNOTS.);
#138=B_SPLINE_CURVE_WITH_KNOTS('',3,(#1129,#1130,#1131,#1132),
 .UNSPECIFIED.,.F.,.F.,(4,4),(0.,0.5),.PIECEWISE_BEZIER_KNOTS.);
#139=B_SPLINE_CURVE_WITH_KNOTS('',3,(#1143,#1144,#1145,#1146),
 .UNSPECIFIED.,.F.,.F.,(4,4),(0.5,1.),.PIECEWISE_BEZIER_KNOTS.);
#140=CYLINDRICAL_SURFACE('',#637,0.01875);
#141=CYLINDRICAL_SURFACE('',#638,0.002);
#142=CYLINDRICAL_SURFACE('',#639,0.002);
#143=CYLINDRICAL_SURFACE('',#640,0.002);
#144=CYLINDRICAL_SURFACE('',#641,0.002);
#145=ORIENTED_EDGE('',*,*,#309,.F.);
#146=ORIENTED_EDGE('',*,*,#310,.F.);
#147=ORIENTED_EDGE('',*,*,#311,.F.);
#148=ORIENTED_EDGE('',*,*,#312,.F.);
#149=ORIENTED_EDGE('',*,*,#313,.T.);
#150=ORIENTED_EDGE('',*,*,#314,.T.);
#151=ORIENTED_EDGE('',*,*,#315,.T.);
#152=ORIENTED_EDGE('',*,*,#316,.T.);
#153=ORIENTED_EDGE('',*,*,#317,.T.);
#154=ORIENTED_EDGE('',*,*,#318,.F.);
#155=ORIENTED_EDGE('',*,*,#319,.F.);
#156=ORIENTED_EDGE('',*,*,#320,.T.);
#157=ORIENTED_EDGE('',*,*,#321,.T.);
#158=ORIENTED_EDGE('',*,*,#322,.T.);
#159=ORIENTED_EDGE('',*,*,#323,.F.);
#160=ORIENTED_EDGE('',*,*,#324,.F.);
#161=ORIENTED_EDGE('',*,*,#325,.F.);
#162=ORIENTED_EDGE('',*,*,#326,.T.);
#163=ORIENTED_EDGE('',*,*,#327,.T.);
#164=ORIENTED_EDGE('',*,*,#328,.T.);
#165=ORIENTED_EDGE('',*,*,#329,.F.);
#166=ORIENTED_EDGE('',*,*,#330,.F.);
#167=ORIENTED_EDGE('',*,*,#331,.F.);
#168=ORIENTED_EDGE('',*,*,#332,.T.);
#169=ORIENTED_EDGE('',*,*,#333,.T.);
#170=ORIENTED_EDGE('',*,*,#334,.T.);
#171=ORIENTED_EDGE('',*,*,#335,.F.);
#172=ORIENTED_EDGE('',*,*,#336,.F.);
#173=ORIENTED_EDGE('',*,*,#337,.F.);
#174=ORIENTED_EDGE('',*,*,#338,.T.);
#175=ORIENTED_EDGE('',*,*,#339,.T.);
#176=ORIENTED_EDGE('',*,*,#340,.T.);
#177=ORIENTED_EDGE('',*,*,#341,.F.);
#178=ORIENTED_EDGE('',*,*,#342,.F.);
#179=ORIENTED_EDGE('',*,*,#318,.T.);
#180=ORIENTED_EDGE('',*,*,#313,.F.);
#181=ORIENTED_EDGE('',*,*,#317,.F.);
#182=ORIENTED_EDGE('',*,*,#312,.T.);
#183=ORIENTED_EDGE('',*,*,#316,.F.);
#184=ORIENTED_EDGE('',*,*,#311,.T.);
#185=ORIENTED_EDGE('',*,*,#315,.F.);
#186=ORIENTED_EDGE('',*,*,#310,.T.);
#187=ORIENTED_EDGE('',*,*,#314,.F.);
#188=ORIENTED_EDGE('',*,*,#309,.T.);
#189=ORIENTED_EDGE('',*,*,#343,.T.);
#190=ORIENTED_EDGE('',*,*,#337,.T.);
#191=ORIENTED_EDGE('',*,*,#344,.F.);
#192=ORIENTED_EDGE('',*,*,#345,.T.);
#193=ORIENTED_EDGE('',*,*,#344,.T.);
#194=ORIENTED_EDGE('',*,*,#342,.T.);
#195=ORIENTED_EDGE('',*,*,#346,.F.);
#196=ORIENTED_EDGE('',*,*,#347,.T.);
#197=ORIENTED_EDGE('',*,*,#346,.T.);
#198=ORIENTED_EDGE('',*,*,#341,.T.);
#199=ORIENTED_EDGE('',*,*,#348,.F.);
#200=ORIENTED_EDGE('',*,*,#349,.T.);
#201=ORIENTED_EDGE('',*,*,#340,.F.);
#202=ORIENTED_EDGE('',*,*,#350,.F.);
#203=ORIENTED_EDGE('',*,*,#351,.F.);
#204=ORIENTED_EDGE('',*,*,#348,.T.);
#205=ORIENTED_EDGE('',*,*,#339,.F.);
#206=ORIENTED_EDGE('',*,*,#352,.F.);
#207=ORIENTED_EDGE('',*,*,#353,.F.);
#208=ORIENTED_EDGE('',*,*,#350,.T.);
#209=ORIENTED_EDGE('',*,*,#338,.F.);
#210=ORIENTED_EDGE('',*,*,#343,.F.);
#211=ORIENTED_EDGE('',*,*,#354,.F.);
#212=ORIENTED_EDGE('',*,*,#352,.T.);
#213=ORIENTED_EDGE('',*,*,#345,.F.);
#214=ORIENTED_EDGE('',*,*,#347,.F.);
#215=ORIENTED_EDGE('',*,*,#349,.F.);
#216=ORIENTED_EDGE('',*,*,#351,.T.);
#217=ORIENTED_EDGE('',*,*,#353,.T.);
#218=ORIENTED_EDGE('',*,*,#354,.T.);
#219=ORIENTED_EDGE('',*,*,#355,.T.);
#220=ORIENTED_EDGE('',*,*,#331,.T.);
#221=ORIENTED_EDGE('',*,*,#356,.F.);
#222=ORIENTED_EDGE('',*,*,#357,.T.);
#223=ORIENTED_EDGE('',*,*,#356,.T.);
#224=ORIENTED_EDGE('',*,*,#336,.T.);
#225=ORIENTED_EDGE('',*,*,#358,.F.);
#226=ORIENTED_EDGE('',*,*,#359,.T.);
#227=ORIENTED_EDGE('',*,*,#358,.T.);
#228=ORIENTED_EDGE('',*,*,#335,.T.);
#229=ORIENTED_EDGE('',*,*,#360,.F.);
#230=ORIENTED_EDGE('',*,*,#361,.T.);
#231=ORIENTED_EDGE('',*,*,#334,.F.);
#232=ORIENTED_EDGE('',*,*,#362,.F.);
#233=ORIENTED_EDGE('',*,*,#363,.F.);
#234=ORIENTED_EDGE('',*,*,#360,.T.);
#235=ORIENTED_EDGE('',*,*,#333,.F.);
#236=ORIENTED_EDGE('',*,*,#364,.F.);
#237=ORIENTED_EDGE('',*,*,#365,.F.);
#238=ORIENTED_EDGE('',*,*,#362,.T.);
#239=ORIENTED_EDGE('',*,*,#332,.F.);
#240=ORIENTED_EDGE('',*,*,#355,.F.);
#241=ORIENTED_EDGE('',*,*,#366,.F.);
#242=ORIENTED_EDGE('',*,*,#364,.T.);
#243=ORIENTED_EDGE('',*,*,#357,.F.);
#244=ORIENTED_EDGE('',*,*,#359,.F.);
#245=ORIENTED_EDGE('',*,*,#361,.F.);
#246=ORIENTED_EDGE('',*,*,#363,.T.);
#247=ORIENTED_EDGE('',*,*,#365,.T.);
#248=ORIENTED_EDGE('',*,*,#366,.T.);
#249=ORIENTED_EDGE('',*,*,#367,.T.);
#250=ORIENTED_EDGE('',*,*,#325,.T.);
#251=ORIENTED_EDGE('',*,*,#368,.F.);
#252=ORIENTED_EDGE('',*,*,#369,.T.);
#253=ORIENTED_EDGE('',*,*,#368,.T.);
#254=ORIENTED_EDGE('',*,*,#330,.T.);
#255=ORIENTED_EDGE('',*,*,#370,.F.);
#256=ORIENTED_EDGE('',*,*,#371,.T.);
#257=ORIENTED_EDGE('',*,*,#370,.T.);
#258=ORIENTED_EDGE('',*,*,#329,.T.);
#259=ORIENTED_EDGE('',*,*,#372,.F.);
#260=ORIENTED_EDGE('',*,*,#373,.T.);
#261=ORIENTED_EDGE('',*,*,#328,.F.);
#262=ORIENTED_EDGE('',*,*,#374,.F.);
#263=ORIENTED_EDGE('',*,*,#375,.F.);
#264=ORIENTED_EDGE('',*,*,#372,.T.);
#265=ORIENTED_EDGE('',*,*,#327,.F.);
#266=ORIENTED_EDGE('',*,*,#376,.F.);
#267=ORIENTED_EDGE('',*,*,#377,.F.);
#268=ORIENTED_EDGE('',*,*,#374,.T.);
#269=ORIENTED_EDGE('',*,*,#326,.F.);
#270=ORIENTED_EDGE('',*,*,#367,.F.);
#271=ORIENTED_EDGE('',*,*,#378,.F.);
#272=ORIENTED_EDGE('',*,*,#376,.T.);
#273=ORIENTED_EDGE('',*,*,#369,.F.);
#274=ORIENTED_EDGE('',*,*,#371,.F.);
#275=ORIENTED_EDGE('',*,*,#373,.F.);
#276=ORIENTED_EDGE('',*,*,#375,.T.);
#277=ORIENTED_EDGE('',*,*,#377,.T.);
#278=ORIENTED_EDGE('',*,*,#378,.T.);
#279=ORIENTED_EDGE('',*,*,#379,.T.);
#280=ORIENTED_EDGE('',*,*,#319,.T.);
#281=ORIENTED_EDGE('',*,*,#380,.F.);
#282=ORIENTED_EDGE('',*,*,#381,.T.);
#283=ORIENTED_EDGE('',*,*,#380,.T.);
#284=ORIENTED_EDGE('',*,*,#324,.T.);
#285=ORIENTED_EDGE('',*,*,#382,.F.);
#286=ORIENTED_EDGE('',*,*,#383,.T.);
#287=ORIENTED_EDGE('',*,*,#382,.T.);
#288=ORIENTED_EDGE('',*,*,#323,.T.);
#289=ORIENTED_EDGE('',*,*,#384,.F.);
#290=ORIENTED_EDGE('',*,*,#385,.T.);
#291=ORIENTED_EDGE('',*,*,#322,.F.);
#292=ORIENTED_EDGE('',*,*,#386,.F.);
#293=ORIENTED_EDGE('',*,*,#387,.F.);
#294=ORIENTED_EDGE('',*,*,#384,.T.);
#295=ORIENTED_EDGE('',*,*,#321,.F.);
#296=ORIENTED_EDGE('',*,*,#388,.F.);
#297=ORIENTED_EDGE('',*,*,#389,.F.);
#298=ORIENTED_EDGE('',*,*,#386,.T.);
#299=ORIENTED_EDGE('',*,*,#320,.F.);
#300=ORIENTED_EDGE('',*,*,#379,.F.);
#301=ORIENTED_EDGE('',*,*,#390,.F.);
#302=ORIENTED_EDGE('',*,*,#388,.T.);
#303=ORIENTED_EDGE('',*,*,#381,.F.);
#304=ORIENTED_EDGE('',*,*,#383,.F.);
#305=ORIENTED_EDGE('',*,*,#385,.F.);
#306=ORIENTED_EDGE('',*,*,#387,.T.);
#307=ORIENTED_EDGE('',*,*,#389,.T.);
#308=ORIENTED_EDGE('',*,*,#390,.T.);
#309=EDGE_CURVE('',#391,#391,#449,.T.);
#310=EDGE_CURVE('',#392,#392,#450,.T.);
#311=EDGE_CURVE('',#393,#393,#451,.T.);
#312=EDGE_CURVE('',#394,#394,#452,.T.);
#313=EDGE_CURVE('',#395,#395,#453,.T.);
#314=EDGE_CURVE('',#396,#396,#454,.T.);
#315=EDGE_CURVE('',#397,#397,#455,.T.);
#316=EDGE_CURVE('',#398,#398,#456,.T.);
#317=EDGE_CURVE('',#399,#399,#457,.T.);
#318=EDGE_CURVE('',#400,#400,#458,.T.);
#319=EDGE_CURVE('',#401,#402,#108,.T.);
#320=EDGE_CURVE('',#401,#403,#28,.T.);
#321=EDGE_CURVE('',#403,#404,#109,.T.);
#322=EDGE_CURVE('',#404,#405,#110,.T.);
#323=EDGE_CURVE('',#406,#405,#29,.T.);
#324=EDGE_CURVE('',#402,#406,#111,.T.);
#325=EDGE_CURVE('',#407,#408,#112,.T.);
#326=EDGE_CURVE('',#407,#409,#30,.T.);
#327=EDGE_CURVE('',#409,#410,#113,.T.);
#328=EDGE_CURVE('',#410,#411,#114,.T.);
#329=EDGE_CURVE('',#412,#411,#31,.T.);
#330=EDGE_CURVE('',#408,#412,#115,.T.);
#331=EDGE_CURVE('',#413,#414,#116,.T.);
#332=EDGE_CURVE('',#413,#415,#32,.T.);
#333=EDGE_CURVE('',#415,#416,#117,.T.);
#334=EDGE_CURVE('',#416,#417,#118,.T.);
#335=EDGE_CURVE('',#418,#417,#33,.T.);
#336=EDGE_CURVE('',#414,#418,#119,.T.);
#337=EDGE_CURVE('',#419,#420,#120,.T.);
#338=EDGE_CURVE('',#419,#421,#34,.T.);
#339=EDGE_CURVE('',#421,#422,#121,.T.);
#340=EDGE_CURVE('',#422,#423,#122,.T.);
#341=EDGE_CURVE('',#424,#423,#35,.T.);
#342=EDGE_CURVE('',#420,#424,#123,.T.);
#343=EDGE_CURVE('',#425,#419,#36,.T.);
#344=EDGE_CURVE('',#426,#420,#37,.T.);
#345=EDGE_CURVE('',#426,#425,#124,.T.);
#346=EDGE_CURVE('',#427,#424,#38,.T.);
#347=EDGE_CURVE('',#427,#426,#125,.T.);
#348=EDGE_CURVE('',#428,#423,#39,.T.);
#349=EDGE_CURVE('',#428,#427,#40,.T.);
#350=EDGE_CURVE('',#429,#422,#41,.T.);
#351=EDGE_CURVE('',#428,#429,#126,.T.);
#352=EDGE_CURVE('',#430,#421,#42,.T.);
#353=EDGE_CURVE('',#429,#430,#127,.T.);
#354=EDGE_CURVE('',#430,#425,#43,.T.);
#355=EDGE_CURVE('',#431,#413,#44,.T.);
#356=EDGE_CURVE('',#432,#414,#45,.T.);
#357=EDGE_CURVE('',#432,#431,#128,.T.);
#358=EDGE_CURVE('',#433,#418,#46,.T.);
#359=EDGE_CURVE('',#433,#432,#129,.T.);
#360=EDGE_CURVE('',#434,#417,#47,.T.);
#361=EDGE_CURVE('',#434,#433,#48,.T.);
#362=EDGE_CURVE('',#435,#416,#49,.T.);
#363=EDGE_CURVE('',#434,#435,#130,.T.);
#364=EDGE_CURVE('',#436,#415,#50,.T.);
#365=EDGE_CURVE('',#435,#436,#131,.T.);
#366=EDGE_CURVE('',#436,#431,#51,.T.);
#367=EDGE_CURVE('',#437,#407,#52,.T.);
#368=EDGE_CURVE('',#438,#408,#53,.T.);
#369=EDGE_CURVE('',#438,#437,#132,.T.);
#370=EDGE_CURVE('',#439,#412,#54,.T.);
#371=EDGE_CURVE('',#439,#438,#133,.T.);
#372=EDGE_CURVE('',#440,#411,#55,.T.);
#373=EDGE_CURVE('',#440,#439,#56,.T.);
#374=EDGE_CURVE('',#441,#410,#57,.T.);
#375=EDGE_CURVE('',#440,#441,#134,.T.);
#376=EDGE_CURVE('',#442,#409,#58,.T.);
#377=EDGE_CURVE('',#441,#442,#135,.T.);
#378=EDGE_CURVE('',#442,#437,#59,.T.);
#379=EDGE_CURVE('',#443,#401,#60,.T.);
#380=EDGE_CURVE('',#444,#402,#61,.T.);
#381=EDGE_CURVE('',#444,#443,#136,.T.);
#382=EDGE_CURVE('',#445,#406,#62,.T.);
#383=EDGE_CURVE('',#445,#444,#137,.T.);
#384=EDGE_CURVE('',#446,#405,#63,.T.);
#385=EDGE_CURVE('',#446,#445,#64,.T.);
#386=EDGE_CURVE('',#447,#404,#65,.T.);
#387=EDGE_CURVE('',#446,#447,#138,.T.);
#388=EDGE_CURVE('',#448,#403,#66,.T.);
#389=EDGE_CURVE('',#447,#448,#139,.T.);
#390=EDGE_CURVE('',#448,#443,#67,.T.);
#391=VERTEX_POINT('',#757);
#392=VERTEX_POINT('',#759);
#393=VERTEX_POINT('',#761);
#394=VERTEX_POINT('',#763);
#395=VERTEX_POINT('',#765);
#396=VERTEX_POINT('',#768);
#397=VERTEX_POINT('',#770);
#398=VERTEX_POINT('',#772);
#399=VERTEX_POINT('',#774);
#400=VERTEX_POINT('',#776);
#401=VERTEX_POINT('',#783);
#402=VERTEX_POINT('',#784);
#403=VERTEX_POINT('',#786);
#404=VERTEX_POINT('',#792);
#405=VERTEX_POINT('',#798);
#406=VERTEX_POINT('',#800);
#407=VERTEX_POINT('',#810);
#408=VERTEX_POINT('',#811);
#409=VERTEX_POINT('',#813);
#410=VERTEX_POINT('',#819);
#411=VERTEX_POINT('',#825);
#412=VERTEX_POINT('',#827);
#413=VERTEX_POINT('',#837);
#414=VERTEX_POINT('',#838);
#415=VERTEX_POINT('',#840);
#416=VERTEX_POINT('',#846);
#417=VERTEX_POINT('',#852);
#418=VERTEX_POINT('',#854);
#419=VERTEX_POINT('',#864);
#420=VERTEX_POINT('',#865);
#421=VERTEX_POINT('',#867);
#422=VERTEX_POINT('',#873);
#423=VERTEX_POINT('',#879);
#424=VERTEX_POINT('',#881);
#425=VERTEX_POINT('',#899);
#426=VERTEX_POINT('',#901);
#427=VERTEX_POINT('',#915);
#428=VERTEX_POINT('',#922);
#429=VERTEX_POINT('',#933);
#430=VERTEX_POINT('',#947);
#431=VERTEX_POINT('',#964);
#432=VERTEX_POINT('',#966);
#433=VERTEX_POINT('',#980);
#434=VERTEX_POINT('',#987);
#435=VERTEX_POINT('',#998);
#436=VERTEX_POINT('',#1012);
#437=VERTEX_POINT('',#1029);
#438=VERTEX_POINT('',#1031);
#439=VERTEX_POINT('',#1045);
#440=VERTEX_POINT('',#1052);
#441=VERTEX_POINT('',#1063);
#442=VERTEX_POINT('',#1077);
#443=VERTEX_POINT('',#1094);
#444=VERTEX_POINT('',#1096);
#445=VERTEX_POINT('',#1110);
#446=VERTEX_POINT('',#1117);
#447=VERTEX_POINT('',#1128);
#448=VERTEX_POINT('',#1142);
#449=CIRCLE('',#626,0.002);
#450=CIRCLE('',#627,0.002);
#451=CIRCLE('',#628,0.002);
#452=CIRCLE('',#629,0.002);
#453=CIRCLE('',#630,0.01875);
#454=CIRCLE('',#632,0.002);
#455=CIRCLE('',#633,0.002);
#456=CIRCLE('',#634,0.002);
#457=CIRCLE('',#635,0.002);
#458=CIRCLE('',#636,0.01875);
#459=EDGE_LOOP('',(#145));
#460=EDGE_LOOP('',(#146));
#461=EDGE_LOOP('',(#147));
#462=EDGE_LOOP('',(#148));
#463=EDGE_LOOP('',(#149));
#464=EDGE_LOOP('',(#150));
#465=EDGE_LOOP('',(#151));
#466=EDGE_LOOP('',(#152));
#467=EDGE_LOOP('',(#153));
#468=EDGE_LOOP('',(#154));
#469=EDGE_LOOP('',(#155,#156,#157,#158,#159,#160));
#470=EDGE_LOOP('',(#161,#162,#163,#164,#165,#166));
#471=EDGE_LOOP('',(#167,#168,#169,#170,#171,#172));
#472=EDGE_LOOP('',(#173,#174,#175,#176,#177,#178));
#473=EDGE_LOOP('',(#179));
#474=EDGE_LOOP('',(#180));
#475=EDGE_LOOP('',(#181));
#476=EDGE_LOOP('',(#182));
#477=EDGE_LOOP('',(#183));
#478=EDGE_LOOP('',(#184));
#479=EDGE_LOOP('',(#185));
#480=EDGE_LOOP('',(#186));
#481=EDGE_LOOP('',(#187));
#482=EDGE_LOOP('',(#188));
#483=EDGE_LOOP('',(#189,#190,#191,#192));
#484=EDGE_LOOP('',(#193,#194,#195,#196));
#485=EDGE_LOOP('',(#197,#198,#199,#200));
#486=EDGE_LOOP('',(#201,#202,#203,#204));
#487=EDGE_LOOP('',(#205,#206,#207,#208));
#488=EDGE_LOOP('',(#209,#210,#211,#212));
#489=EDGE_LOOP('',(#213,#214,#215,#216,#217,#218));
#490=EDGE_LOOP('',(#219,#220,#221,#222));
#491=EDGE_LOOP('',(#223,#224,#225,#226));
#492=EDGE_LOOP('',(#227,#228,#229,#230));
#493=EDGE_LOOP('',(#231,#232,#233,#234));
#494=EDGE_LOOP('',(#235,#236,#237,#238));
#495=EDGE_LOOP('',(#239,#240,#241,#242));
#496=EDGE_LOOP('',(#243,#244,#245,#246,#247,#248));
#497=EDGE_LOOP('',(#249,#250,#251,#252));
#498=EDGE_LOOP('',(#253,#254,#255,#256));
#499=EDGE_LOOP('',(#257,#258,#259,#260));
#500=EDGE_LOOP('',(#261,#262,#263,#264));
#501=EDGE_LOOP('',(#265,#266,#267,#268));
#502=EDGE_LOOP('',(#269,#270,#271,#272));
#503=EDGE_LOOP('',(#273,#274,#275,#276,#277,#278));
#504=EDGE_LOOP('',(#279,#280,#281,#282));
#505=EDGE_LOOP('',(#283,#284,#285,#286));
#506=EDGE_LOOP('',(#287,#288,#289,#290));
#507=EDGE_LOOP('',(#291,#292,#293,#294));
#508=EDGE_LOOP('',(#295,#296,#297,#298));
#509=EDGE_LOOP('',(#299,#300,#301,#302));
#510=EDGE_LOOP('',(#303,#304,#305,#306,#307,#308));
#511=FACE_BOUND('',#459,.T.);
#512=FACE_BOUND('',#460,.T.);
#513=FACE_BOUND('',#461,.T.);
#514=FACE_BOUND('',#462,.T.);
#515=FACE_BOUND('',#463,.T.);
#516=FACE_BOUND('',#464,.T.);
#517=FACE_BOUND('',#465,.T.);
#518=FACE_BOUND('',#466,.T.);
#519=FACE_BOUND('',#467,.T.);
#520=FACE_BOUND('',#468,.T.);
#521=FACE_BOUND('',#469,.T.);
#522=FACE_BOUND('',#470,.T.);
#523=FACE_BOUND('',#471,.T.);
#524=FACE_BOUND('',#472,.T.);
#525=FACE_BOUND('',#473,.T.);
#526=FACE_BOUND('',#474,.T.);
#527=FACE_BOUND('',#475,.T.);
#528=FACE_BOUND('',#476,.T.);
#529=FACE_BOUND('',#477,.T.);
#530=FACE_BOUND('',#478,.T.);
#531=FACE_BOUND('',#479,.T.);
#532=FACE_BOUND('',#480,.T.);
#533=FACE_BOUND('',#481,.T.);
#534=FACE_BOUND('',#482,.T.);
#535=FACE_BOUND('',#483,.T.);
#536=FACE_BOUND('',#484,.T.);
#537=FACE_BOUND('',#485,.T.);
#538=FACE_BOUND('',#486,.T.);
#539=FACE_BOUND('',#487,.T.);
#540=FACE_BOUND('',#488,.T.);
#541=FACE_BOUND('',#489,.T.);
#542=FACE_BOUND('',#490,.T.);
#543=FACE_BOUND('',#491,.T.);
#544=FACE_BOUND('',#492,.T.);
#545=FACE_BOUND('',#493,.T.);
#546=FACE_BOUND('',#494,.T.);
#547=FACE_BOUND('',#495,.T.);
#548=FACE_BOUND('',#496,.T.);
#549=FACE_BOUND('',#497,.T.);
#550=FACE_BOUND('',#498,.T.);
#551=FACE_BOUND('',#499,.T.);
#552=FACE_BOUND('',#500,.T.);
#553=FACE_BOUND('',#501,.T.);
#554=FACE_BOUND('',#502,.T.);
#555=FACE_BOUND('',#503,.T.);
#556=FACE_BOUND('',#504,.T.);
#557=FACE_BOUND('',#505,.T.);
#558=FACE_BOUND('',#506,.T.);
#559=FACE_BOUND('',#507,.T.);
#560=FACE_BOUND('',#508,.T.);
#561=FACE_BOUND('',#509,.T.);
#562=FACE_BOUND('',#510,.T.);
#563=PLANE('',#625);
#564=PLANE('',#631);
#565=PLANE('',#642);
#566=PLANE('',#643);
#567=PLANE('',#644);
#568=PLANE('',#645);
#569=PLANE('',#646);
#570=PLANE('',#647);
#571=PLANE('',#648);
#572=PLANE('',#649);
#573=PLANE('',#650);
#574=PLANE('',#651);
#575=PLANE('',#652);
#576=PLANE('',#653);
#577=ADVANCED_FACE('',(#511,#512,#513,#514,#515),#563,.F.);
#578=ADVANCED_FACE('',(#516,#517,#518,#519,#520),#564,.T.);
#579=ADVANCED_FACE('',(#521,#522,#523,#524,#525,#526),#140,.T.);
#580=ADVANCED_FACE('',(#527,#528),#141,.F.);
#581=ADVANCED_FACE('',(#529,#530),#142,.F.);
#582=ADVANCED_FACE('',(#531,#532),#143,.F.);
#583=ADVANCED_FACE('',(#533,#534),#144,.F.);
#584=ADVANCED_FACE('',(#535),#12,.T.);
#585=ADVANCED_FACE('',(#536),#13,.T.);
#586=ADVANCED_FACE('',(#537),#565,.T.);
#587=ADVANCED_FACE('',(#538),#14,.F.);
#588=ADVANCED_FACE('',(#539),#15,.F.);
#589=ADVANCED_FACE('',(#540),#566,.F.);
#590=ADVANCED_FACE('',(#541),#567,.T.);
#591=ADVANCED_FACE('',(#542),#16,.T.);
#592=ADVANCED_FACE('',(#543),#17,.T.);
#593=ADVANCED_FACE('',(#544),#568,.T.);
#594=ADVANCED_FACE('',(#545),#18,.F.);
#595=ADVANCED_FACE('',(#546),#19,.F.);
#596=ADVANCED_FACE('',(#547),#569,.F.);
#597=ADVANCED_FACE('',(#548),#570,.T.);
#598=ADVANCED_FACE('',(#549),#20,.T.);
#599=ADVANCED_FACE('',(#550),#21,.T.);
#600=ADVANCED_FACE('',(#551),#571,.T.);
#601=ADVANCED_FACE('',(#552),#22,.F.);
#602=ADVANCED_FACE('',(#553),#23,.F.);
#603=ADVANCED_FACE('',(#554),#572,.F.);
#604=ADVANCED_FACE('',(#555),#573,.T.);
#605=ADVANCED_FACE('',(#556),#24,.T.);
#606=ADVANCED_FACE('',(#557),#25,.T.);
#607=ADVANCED_FACE('',(#558),#574,.T.);
#608=ADVANCED_FACE('',(#559),#26,.F.);
#609=ADVANCED_FACE('',(#560),#27,.F.);
#610=ADVANCED_FACE('',(#561),#575,.F.);
#611=ADVANCED_FACE('',(#562),#576,.T.);
#612=CLOSED_SHELL('',(#577,#578,#579,#580,#581,#582,#583,#584,#585,#586,
#587,#588,#589,#590,#591,#592,#593,#594,#595,#596,#597,#598,#599,#600,#601,
#602,#603,#604,#605,#606,#607,#608,#609,#610,#611));
#613=STYLED_ITEM('',(#614),#621);
#614=PRESENTATION_STYLE_ASSIGNMENT((#615));
#615=SURFACE_STYLE_USAGE(.BOTH.,#616);
#616=SURFACE_SIDE_STYLE('',(#617));
#617=SURFACE_STYLE_FILL_AREA(#618);
#618=FILL_AREA_STYLE('',(#619));
#619=FILL_AREA_STYLE_COLOUR('',#620);
#620=COLOUR_RGB('',0.615686274509804,0.811764705882353,0.929411764705882);
#621=MANIFOLD_SOLID_BREP('Prop V1.5',#612);
#622=SHAPE_DEFINITION_REPRESENTATION(#1156,#623);
#623=SHAPE_REPRESENTATION('Prop V1.5',(#624),#1151);
#624=AXIS2_PLACEMENT_3D('',#754,#654,#655);
#625=AXIS2_PLACEMENT_3D('',#755,#656,#657);
#626=AXIS2_PLACEMENT_3D('',#756,#658,#659);
#627=AXIS2_PLACEMENT_3D('',#758,#660,#661);
#628=AXIS2_PLACEMENT_3D('',#760,#662,#663);
#629=AXIS2_PLACEMENT_3D('',#762,#664,#665);
#630=AXIS2_PLACEMENT_3D('',#764,#666,#667);
#631=AXIS2_PLACEMENT_3D('',#766,#668,#669);
#632=AXIS2_PLACEMENT_3D('',#767,#670,#671);
#633=AXIS2_PLACEMENT_3D('',#769,#672,#673);
#634=AXIS2_PLACEMENT_3D('',#771,#674,#675);
#635=AXIS2_PLACEMENT_3D('',#773,#676,#677);
#636=AXIS2_PLACEMENT_3D('',#775,#678,#679);
#637=AXIS2_PLACEMENT_3D('',#777,#680,#681);
#638=AXIS2_PLACEMENT_3D('',#886,#690,#691);
#639=AXIS2_PLACEMENT_3D('',#887,#692,#693);
#640=AXIS2_PLACEMENT_3D('',#888,#694,#695);
#641=AXIS2_PLACEMENT_3D('',#889,#696,#697);
#642=AXIS2_PLACEMENT_3D('',#920,#701,#702);
#643=AXIS2_PLACEMENT_3D('',#952,#707,#708);
#644=AXIS2_PLACEMENT_3D('',#954,#710,#711);
#645=AXIS2_PLACEMENT_3D('',#985,#715,#716);
#646=AXIS2_PLACEMENT_3D('',#1017,#721,#722);
#647=AXIS2_PLACEMENT_3D('',#1019,#724,#725);
#648=AXIS2_PLACEMENT_3D('',#1050,#729,#730);
#649=AXIS2_PLACEMENT_3D('',#1082,#735,#736);
#650=AXIS2_PLACEMENT_3D('',#1084,#738,#739);
#651=AXIS2_PLACEMENT_3D('',#1115,#743,#744);
#652=AXIS2_PLACEMENT_3D('',#1147,#749,#750);
#653=AXIS2_PLACEMENT_3D('',#1149,#752,#753);
#654=DIRECTION('',(0.,0.,1.));
#655=DIRECTION('',(1.,0.,0.));
#656=DIRECTION('',(0.,1.,0.));
#657=DIRECTION('',(0.,0.,1.));
#658=DIRECTION('',(0.,-1.,0.));
#659=DIRECTION('',(0.,0.,-1.));
#660=DIRECTION('',(0.,-1.,0.));
#661=DIRECTION('',(0.,0.,-1.));
#662=DIRECTION('',(0.,-1.,0.));
#663=DIRECTION('',(0.,0.,-1.));
#664=DIRECTION('',(0.,-1.,0.));
#665=DIRECTION('',(0.,0.,-1.));
#666=DIRECTION('',(0.,-1.,0.));
#667=DIRECTION('',(0.,0.,-1.));
#668=DIRECTION('',(0.,1.,0.));
#669=DIRECTION('',(0.,0.,1.));
#670=DIRECTION('',(0.,-1.,0.));
#671=DIRECTION('',(0.,0.,-1.));
#672=DIRECTION('',(0.,-1.,0.));
#673=DIRECTION('',(0.,0.,-1.));
#674=DIRECTION('',(0.,-1.,0.));
#675=DIRECTION('',(0.,0.,-1.));
#676=DIRECTION('',(0.,-1.,0.));
#677=DIRECTION('',(0.,0.,-1.));
#678=DIRECTION('',(0.,-1.,0.));
#679=DIRECTION('',(0.,0.,-1.));
#680=DIRECTION('',(0.,-1.,0.));
#681=DIRECTION('',(0.,0.,-1.));
#682=DIRECTION('',(0.,-1.,0.));
#683=DIRECTION('',(0.,-1.,0.));
#684=DIRECTION('',(0.,-1.,0.));
#685=DIRECTION('',(0.,-1.,0.));
#686=DIRECTION('',(0.,-1.,0.));
#687=DIRECTION('',(0.,-1.,0.));
#688=DIRECTION('',(0.,-1.,0.));
#689=DIRECTION('',(0.,-1.,0.));
#690=DIRECTION('',(0.,-1.,0.));
#691=DIRECTION('',(0.,0.,-1.));
#692=DIRECTION('',(0.,-1.,0.));
#693=DIRECTION('',(0.,0.,-1.));
#694=DIRECTION('',(0.,-1.,0.));
#695=DIRECTION('',(0.,0.,-1.));
#696=DIRECTION('',(0.,-1.,0.));
#697=DIRECTION('',(0.,0.,-1.));
#698=DIRECTION('',(1.83697019872103E-16,0.,-1.));
#699=DIRECTION('',(1.83697019872103E-16,0.,-1.));
#700=DIRECTION('',(1.83697019872103E-16,0.,-1.));
#701=DIRECTION('',(-1.,0.,-1.83697019872103E-16));
#702=DIRECTION('',(-1.83697019872103E-16,0.,1.));
#703=DIRECTION('',(1.83697019872103E-16,0.,-1.));
#704=DIRECTION('',(0.,1.,0.));
#705=DIRECTION('',(1.83697019872103E-16,0.,-1.));
#706=DIRECTION('',(1.83697019872103E-16,0.,-1.));
#707=DIRECTION('',(-1.,0.,-1.83697019872103E-16));
#708=DIRECTION('',(-1.83697019872103E-16,0.,1.));
#709=DIRECTION('',(0.,1.,0.));
#710=DIRECTION('',(-1.83697019872103E-16,0.,1.));
#711=DIRECTION('',(0.,1.,0.));
#712=DIRECTION('',(1.,0.,1.22464679914735E-16));
#713=DIRECTION('',(1.,0.,1.22464679914735E-16));
#714=DIRECTION('',(1.,0.,1.22464679914735E-16));
#715=DIRECTION('',(1.22464679914735E-16,0.,-1.));
#716=DIRECTION('',(-1.,0.,-1.22464679914735E-16));
#717=DIRECTION('',(1.,0.,1.22464679914735E-16));
#718=DIRECTION('',(0.,1.,0.));
#719=DIRECTION('',(1.,0.,1.22464679914735E-16));
#720=DIRECTION('',(1.,0.,1.22464679914735E-16));
#721=DIRECTION('',(1.22464679914735E-16,0.,-1.));
#722=DIRECTION('',(-1.,0.,-1.22464679914735E-16));
#723=DIRECTION('',(0.,1.,0.));
#724=DIRECTION('',(-1.,0.,-1.22464679914735E-16));
#725=DIRECTION('',(0.,1.,0.));
#726=DIRECTION('',(-6.12323399573677E-17,0.,1.));
#727=DIRECTION('',(-6.12323399573677E-17,0.,1.));
#728=DIRECTION('',(-6.12323399573677E-17,0.,1.));
#729=DIRECTION('',(1.,0.,6.12323399573677E-17));
#730=DIRECTION('',(6.12323399573677E-17,0.,-1.));
#731=DIRECTION('',(-6.12323399573677E-17,0.,1.));
#732=DIRECTION('',(0.,1.,0.));
#733=DIRECTION('',(-6.12323399573677E-17,0.,1.));
#734=DIRECTION('',(-6.12323399573677E-17,0.,1.));
#735=DIRECTION('',(1.,0.,6.12323399573677E-17));
#736=DIRECTION('',(6.12323399573677E-17,0.,-1.));
#737=DIRECTION('',(0.,1.,0.));
#738=DIRECTION('',(6.12323399573677E-17,0.,-1.));
#739=DIRECTION('',(0.,1.,0.));
#740=DIRECTION('',(-1.,0.,0.));
#741=DIRECTION('',(-1.,0.,0.));
#742=DIRECTION('',(-1.,0.,0.));
#743=DIRECTION('',(0.,0.,1.));
#744=DIRECTION('',(1.,0.,0.));
#745=DIRECTION('',(-1.,0.,0.));
#746=DIRECTION('',(0.,1.,0.));
#747=DIRECTION('',(-1.,0.,0.));
#748=DIRECTION('',(-1.,0.,0.));
#749=DIRECTION('',(0.,0.,1.));
#750=DIRECTION('',(1.,0.,0.));
#751=DIRECTION('',(0.,1.,0.));
#752=DIRECTION('',(1.,0.,0.));
#753=DIRECTION('',(0.,1.,0.));
#754=CARTESIAN_POINT('',(0.,0.,0.));
#755=CARTESIAN_POINT('',(0.,0.,0.009375));
#756=CARTESIAN_POINT('',(-6.07153216591882E-18,0.,0.012));
#757=CARTESIAN_POINT('',(-6.07153216591882E-18,0.,0.01));
#758=CARTESIAN_POINT('',(0.012,0.,4.53119315684521E-18));
#759=CARTESIAN_POINT('',(0.012,0.,-0.002));
#760=CARTESIAN_POINT('',(1.3010426069826E-18,0.,-0.012));
#761=CARTESIAN_POINT('',(1.3010426069826E-18,0.,-0.014));
#762=CARTESIAN_POINT('',(-0.012,0.,1.22464679914735E-19));
#763=CARTESIAN_POINT('',(-0.012,0.,-0.002));
#764=CARTESIAN_POINT('',(0.,0.,0.));
#765=CARTESIAN_POINT('',(0.,0.,-0.01875));
#766=CARTESIAN_POINT('',(0.,0.03,0.009375));
#767=CARTESIAN_POINT('',(-6.07153216591882E-18,0.03,0.012));
#768=CARTESIAN_POINT('',(-6.07153216591882E-18,0.03,0.01));
#769=CARTESIAN_POINT('',(0.012,0.03,4.53119315684521E-18));
#770=CARTESIAN_POINT('',(0.012,0.03,-0.002));
#771=CARTESIAN_POINT('',(1.3010426069826E-18,0.03,-0.012));
#772=CARTESIAN_POINT('',(1.3010426069826E-18,0.03,-0.014));
#773=CARTESIAN_POINT('',(-0.012,0.03,1.22464679914735E-19));
#774=CARTESIAN_POINT('',(-0.012,0.03,-0.002));
#775=CARTESIAN_POINT('',(0.,0.03,0.));
#776=CARTESIAN_POINT('',(0.,0.03,-0.01875));
#777=CARTESIAN_POINT('',(0.,0.0365160719537182,0.));
#778=CARTESIAN_POINT('',(0.0169576678821116,0.022,-0.008));
#779=CARTESIAN_POINT('',(0.0176298048022448,0.0210977037150284,-0.00657526566713444));
#780=CARTESIAN_POINT('',(0.0184914254211683,0.0188287951144724,-0.00384738094279962));
#781=CARTESIAN_POINT('',(0.01875,0.0162466305617601,-0.00131588778049498));
#782=CARTESIAN_POINT('',(0.01875,0.015,-1.06251812903579E-17));
#783=CARTESIAN_POINT('',(0.0169576678821116,0.022,-0.008));
#784=CARTESIAN_POINT('',(0.01875,0.015,-1.06251812903579E-17));
#785=CARTESIAN_POINT('',(0.0169576678821116,0.0365160719537182,-0.008));
#786=CARTESIAN_POINT('',(0.0169576678821116,0.019,-0.008));
#787=CARTESIAN_POINT('',(0.0169576678821116,0.019,-0.008));
#788=CARTESIAN_POINT('',(0.0176044539603004,0.0180087355564808,-0.00662900206191271));
#789=CARTESIAN_POINT('',(0.018468342854681,0.0156890377367831,-0.00396816718777247));
#790=CARTESIAN_POINT('',(0.01875,0.01320110501831,-0.00135348405660058));
#791=CARTESIAN_POINT('',(0.01875,0.012,-1.10588621593521E-17));
#792=CARTESIAN_POINT('',(0.01875,0.012,-1.10588621593521E-17));
#793=CARTESIAN_POINT('',(0.01875,0.012,-1.10588621593521E-17));
#794=CARTESIAN_POINT('',(0.01875,0.0108003445531598,0.00135185058422023));
#795=CARTESIAN_POINT('',(0.0184423727475256,0.00853608070027524,0.00416220434425761));
#796=CARTESIAN_POINT('',(0.0175415790573697,0.00618018618514185,0.00676227852716505));
#797=CARTESIAN_POINT('',(0.0169576678821116,0.005,0.008));
#798=CARTESIAN_POINT('',(0.0169576678821116,0.005,0.008));
#799=CARTESIAN_POINT('',(0.0169576678821116,0.0365160719537182,0.008));
#800=CARTESIAN_POINT('',(0.0169576678821116,0.008,0.008));
#801=CARTESIAN_POINT('',(0.01875,0.015,-1.06251812903579E-17));
#802=CARTESIAN_POINT('',(0.01875,0.0125132474966154,0.00262490535102804));
#803=CARTESIAN_POINT('',(0.0181658884463699,0.0102486730391477,0.00543892461787138));
#804=CARTESIAN_POINT('',(0.0169576678821116,0.008,0.008));
#805=CARTESIAN_POINT('',(-0.008,0.022,-0.0169576678821116));
#806=CARTESIAN_POINT('',(-0.00657526566713444,0.0210977037150284,-0.0176298048022448));
#807=CARTESIAN_POINT('',(-0.00384738094279962,0.0188287951144724,-0.0184914254211683));
#808=CARTESIAN_POINT('',(-0.00131588778049498,0.0162466305617601,-0.01875));
#809=CARTESIAN_POINT('',(-9.4770749161573E-18,0.015,-0.01875));
#810=CARTESIAN_POINT('',(-0.008,0.022,-0.0169576678821116));
#811=CARTESIAN_POINT('',(-9.4770749161573E-18,0.015,-0.01875));
#812=CARTESIAN_POINT('',(-0.008,0.0365160719537182,-0.0169576678821116));
#813=CARTESIAN_POINT('',(-0.008,0.019,-0.0169576678821116));
#814=CARTESIAN_POINT('',(-0.008,0.019,-0.0169576678821116));
#815=CARTESIAN_POINT('',(-0.00662900206191271,0.0180087355564808,-0.0176044539603004));
#816=CARTESIAN_POINT('',(-0.00396816718777246,0.0156890377367831,-0.018468342854681));
#817=CARTESIAN_POINT('',(-0.00135348405660058,0.01320110501831,-0.01875));
#818=CARTESIAN_POINT('',(-9.9107557851515E-18,0.012,-0.01875));
#819=CARTESIAN_POINT('',(-9.9107557851515E-18,0.012,-0.01875));
#820=CARTESIAN_POINT('',(-9.9107557851515E-18,0.012,-0.01875));
#821=CARTESIAN_POINT('',(0.00135185058422023,0.0108003445531598,-0.01875));
#822=CARTESIAN_POINT('',(0.00416220434425761,0.00853608070027524,-0.0184423727475256));
#823=CARTESIAN_POINT('',(0.00676227852716505,0.00618018618514185,-0.0175415790573697));
#824=CARTESIAN_POINT('',(0.008,0.005,-0.0169576678821116));
#825=CARTESIAN_POINT('',(0.008,0.005,-0.0169576678821116));
#826=CARTESIAN_POINT('',(0.008,0.0365160719537182,-0.0169576678821116));
#827=CARTESIAN_POINT('',(0.008,0.008,-0.0169576678821116));
#828=CARTESIAN_POINT('',(-9.4770749161573E-18,0.015,-0.01875));
#829=CARTESIAN_POINT('',(0.00262490535102804,0.0125132474966154,-0.01875));
#830=CARTESIAN_POINT('',(0.00543892461787138,0.0102486730391477,-0.0181658884463699));
#831=CARTESIAN_POINT('',(0.008,0.008,-0.0169576678821116));
#832=CARTESIAN_POINT('',(-0.0169576678821116,0.022,0.008));
#833=CARTESIAN_POINT('',(-0.0176298048022448,0.0210977037150284,0.00657526566713444));
#834=CARTESIAN_POINT('',(-0.0184914254211683,0.0188287951144724,0.00384738094279962));
#835=CARTESIAN_POINT('',(-0.01875,0.0162466305617601,0.00131588778049498));
#836=CARTESIAN_POINT('',(-0.01875,0.015,8.32896854195666E-18));
#837=CARTESIAN_POINT('',(-0.0169576678821116,0.022,0.008));
#838=CARTESIAN_POINT('',(-0.01875,0.015,8.32896854195666E-18));
#839=CARTESIAN_POINT('',(-0.0169576678821116,0.0365160719537182,0.008));
#840=CARTESIAN_POINT('',(-0.0169576678821116,0.019,0.008));
#841=CARTESIAN_POINT('',(-0.0169576678821116,0.019,0.008));
#842=CARTESIAN_POINT('',(-0.0176044539603004,0.0180087355564808,0.00662900206191271));
#843=CARTESIAN_POINT('',(-0.018468342854681,0.0156890377367831,0.00396816718777246));
#844=CARTESIAN_POINT('',(-0.01875,0.01320110501831,0.00135348405660058));
#845=CARTESIAN_POINT('',(-0.01875,0.012,8.76264941095086E-18));
#846=CARTESIAN_POINT('',(-0.01875,0.012,8.76264941095086E-18));
#847=CARTESIAN_POINT('',(-0.01875,0.012,8.76264941095086E-18));
#848=CARTESIAN_POINT('',(-0.01875,0.0108003445531598,-0.00135185058422023));
#849=CARTESIAN_POINT('',(-0.0184423727475256,0.00853608070027524,-0.00416220434425761));
#850=CARTESIAN_POINT('',(-0.0175415790573697,0.00618018618514185,-0.00676227852716505));
#851=CARTESIAN_POINT('',(-0.0169576678821116,0.005,-0.008));
#852=CARTESIAN_POINT('',(-0.0169576678821116,0.005,-0.008));
#853=CARTESIAN_POINT('',(-0.0169576678821116,0.0365160719537182,-0.008));
#854=CARTESIAN_POINT('',(-0.0169576678821116,0.008,-0.008));
#855=CARTESIAN_POINT('',(-0.01875,0.015,8.32896854195666E-18));
#856=CARTESIAN_POINT('',(-0.01875,0.0125132474966154,-0.00262490535102804));
#857=CARTESIAN_POINT('',(-0.0181658884463699,0.0102486730391477,-0.00543892461787138));
#858=CARTESIAN_POINT('',(-0.0169576678821116,0.008,-0.008));
#859=CARTESIAN_POINT('',(0.008,0.022,0.0169576678821116));
#860=CARTESIAN_POINT('',(0.00657526566713444,0.0210977037150284,0.0176298048022448));
#861=CARTESIAN_POINT('',(0.00384738094279962,0.0188287951144724,0.0184914254211683));
#862=CARTESIAN_POINT('',(0.00131588778049498,0.0162466305617601,0.01875));
#863=CARTESIAN_POINT('',(7.18086216775601E-18,0.015,0.01875));
#864=CARTESIAN_POINT('',(0.008,0.022,0.0169576678821116));
#865=CARTESIAN_POINT('',(7.18086216775601E-18,0.015,0.01875));
#866=CARTESIAN_POINT('',(0.008,0.0365160719537182,0.0169576678821116));
#867=CARTESIAN_POINT('',(0.008,0.019,0.0169576678821116));
#868=CARTESIAN_POINT('',(0.008,0.019,0.0169576678821116));
#869=CARTESIAN_POINT('',(0.00662900206191271,0.0180087355564808,0.0176044539603004));
#870=CARTESIAN_POINT('',(0.00396816718777246,0.0156890377367831,0.018468342854681));
#871=CARTESIAN_POINT('',(0.00135348405660058,0.01320110501831,0.01875));
#872=CARTESIAN_POINT('',(7.61454303675021E-18,0.012,0.01875));
#873=CARTESIAN_POINT('',(7.61454303675021E-18,0.012,0.01875));
#874=CARTESIAN_POINT('',(7.61454303675021E-18,0.012,0.01875));
#875=CARTESIAN_POINT('',(-0.00135185058422023,0.0108003445531598,0.01875));
#876=CARTESIAN_POINT('',(-0.00416220434425761,0.00853608070027524,0.0184423727475256));
#877=CARTESIAN_POINT('',(-0.00676227852716506,0.00618018618514185,0.0175415790573697));
#878=CARTESIAN_POINT('',(-0.008,0.005,0.0169576678821116));
#879=CARTESIAN_POINT('',(-0.008,0.005,0.0169576678821116));
#880=CARTESIAN_POINT('',(-0.008,0.0365160719537182,0.0169576678821116));
#881=CARTESIAN_POINT('',(-0.008,0.008,0.0169576678821116));
#882=CARTESIAN_POINT('',(7.18086216775601E-18,0.015,0.01875));
#883=CARTESIAN_POINT('',(-0.00262490535102804,0.0125132474966154,0.01875));
#884=CARTESIAN_POINT('',(-0.00543892461787138,0.0102486730391477,0.0181658884463699));
#885=CARTESIAN_POINT('',(-0.008,0.008,0.0169576678821116));
#886=CARTESIAN_POINT('',(-0.012,0.03,1.22464679914735E-19));
#887=CARTESIAN_POINT('',(1.3010426069826E-18,0.03,-0.012));
#888=CARTESIAN_POINT('',(0.012,0.03,4.53119315684521E-18));
#889=CARTESIAN_POINT('',(-6.07153216591882E-18,0.03,0.012));
#890=CARTESIAN_POINT('',(3.27730049547382E-18,0.015,0.04));
#891=CARTESIAN_POINT('',(7.53550508287892E-18,0.015,0.0168194138894043));
#892=CARTESIAN_POINT('',(0.00245286896824836,0.0173237706627697,0.04));
#893=CARTESIAN_POINT('',(0.00245286896824837,0.0173237706627697,0.0168194138894043));
#894=CARTESIAN_POINT('',(0.00502209551632402,0.0201140679419041,0.04));
#895=CARTESIAN_POINT('',(0.00502209551632403,0.0201140679419041,0.0168194138894043));
#896=CARTESIAN_POINT('',(0.008,0.022,0.04));
#897=CARTESIAN_POINT('',(0.008,0.022,0.0168194138894043));
#898=CARTESIAN_POINT('',(0.008,0.022,0.04));
#899=CARTESIAN_POINT('',(0.008,0.022,0.04));
#900=CARTESIAN_POINT('',(3.27730049547382E-18,0.015,0.04));
#901=CARTESIAN_POINT('',(3.27730049547382E-18,0.015,0.04));
#902=CARTESIAN_POINT('',(3.27730049547382E-18,0.015,0.04));
#903=CARTESIAN_POINT('',(0.00245286896824837,0.0173237706627697,0.04));
#904=CARTESIAN_POINT('',(0.00502209551632402,0.0201140679419041,0.04));
#905=CARTESIAN_POINT('',(0.008,0.022,0.04));
#906=CARTESIAN_POINT('',(-0.008,0.008,0.04));
#907=CARTESIAN_POINT('',(-0.008,0.008,0.0168194138894043));
#908=CARTESIAN_POINT('',(-0.00478938035666943,0.0108189852908254,0.04));
#909=CARTESIAN_POINT('',(-0.00478938035666943,0.0108189852908254,0.0168194138894043));
#910=CARTESIAN_POINT('',(-0.00245286896824836,0.0126762293372303,0.04));
#911=CARTESIAN_POINT('',(-0.00245286896824836,0.0126762293372303,0.0168194138894043));
#912=CARTESIAN_POINT('',(3.27730049547382E-18,0.015,0.04));
#913=CARTESIAN_POINT('',(7.53550508287892E-18,0.015,0.0168194138894043));
#914=CARTESIAN_POINT('',(-0.008,0.008,0.04));
#915=CARTESIAN_POINT('',(-0.008,0.008,0.04));
#916=CARTESIAN_POINT('',(-0.008,0.008,0.04));
#917=CARTESIAN_POINT('',(-0.00478938035666943,0.0108189852908254,0.04));
#918=CARTESIAN_POINT('',(-0.00245286896824836,0.0126762293372303,0.04));
#919=CARTESIAN_POINT('',(3.27730049547382E-18,0.015,0.04));
#920=CARTESIAN_POINT('',(-0.008,0.0065,0.04));
#921=CARTESIAN_POINT('',(-0.008,0.005,0.04));
#922=CARTESIAN_POINT('',(-0.008,0.005,0.04));
#923=CARTESIAN_POINT('',(-0.008,0.0065,0.04));
#924=CARTESIAN_POINT('',(-0.008,0.005,0.04));
#925=CARTESIAN_POINT('',(-0.008,0.005,0.0168194138894043));
#926=CARTESIAN_POINT('',(-0.00440208520740275,0.00843066629022363,0.04));
#927=CARTESIAN_POINT('',(-0.00440208520740275,0.00843066629022363,0.0168194138894043));
#928=CARTESIAN_POINT('',(-0.00243673170916737,0.00983760239370168,0.04));
#929=CARTESIAN_POINT('',(-0.00243673170916736,0.00983760239370168,0.0168194138894043));
#930=CARTESIAN_POINT('',(3.71098136446802E-18,0.012,0.04));
#931=CARTESIAN_POINT('',(7.96918595187312E-18,0.012,0.0168194138894043));
#932=CARTESIAN_POINT('',(3.71098136446802E-18,0.012,0.04));
#933=CARTESIAN_POINT('',(3.71098136446802E-18,0.012,0.04));
#934=CARTESIAN_POINT('',(-0.008,0.005,0.04));
#935=CARTESIAN_POINT('',(-0.00440208520740275,0.00843066629022363,0.04));
#936=CARTESIAN_POINT('',(-0.00243673170916736,0.00983760239370168,0.04));
#937=CARTESIAN_POINT('',(3.71098136446802E-18,0.012,0.04));
#938=CARTESIAN_POINT('',(3.71098136446802E-18,0.012,0.04));
#939=CARTESIAN_POINT('',(7.96918595187312E-18,0.012,0.0168194138894043));
#940=CARTESIAN_POINT('',(0.00243673170916737,0.0141623976062983,0.04));
#941=CARTESIAN_POINT('',(0.00243673170916738,0.0141623976062983,0.0168194138894043));
#942=CARTESIAN_POINT('',(0.00534484162926673,0.0170802567154169,0.04));
#943=CARTESIAN_POINT('',(0.00534484162926673,0.0170802567154169,0.0168194138894043));
#944=CARTESIAN_POINT('',(0.008,0.019,0.04));
#945=CARTESIAN_POINT('',(0.008,0.019,0.0168194138894043));
#946=CARTESIAN_POINT('',(0.008,0.019,0.04));
#947=CARTESIAN_POINT('',(0.008,0.019,0.04));
#948=CARTESIAN_POINT('',(3.71098136446802E-18,0.012,0.04));
#949=CARTESIAN_POINT('',(0.00243673170916738,0.0141623976062983,0.04));
#950=CARTESIAN_POINT('',(0.00534484162926673,0.0170802567154169,0.04));
#951=CARTESIAN_POINT('',(0.008,0.019,0.04));
#952=CARTESIAN_POINT('',(0.008,0.0205,0.04));
#953=CARTESIAN_POINT('',(0.008,0.0205,0.04));
#954=CARTESIAN_POINT('',(-7.34788079488412E-18,0.0365160719537182,0.04));
#955=CARTESIAN_POINT('',(-0.04,0.015,5.72659409376853E-18));
#956=CARTESIAN_POINT('',(-0.0168194138894043,0.015,8.56539715203859E-18));
#957=CARTESIAN_POINT('',(-0.04,0.0173237706627697,0.00245286896824837));
#958=CARTESIAN_POINT('',(-0.0168194138894043,0.0173237706627697,0.00245286896824837));
#959=CARTESIAN_POINT('',(-0.04,0.0201140679419041,0.00502209551632402));
#960=CARTESIAN_POINT('',(-0.0168194138894043,0.0201140679419041,0.00502209551632402));
#961=CARTESIAN_POINT('',(-0.04,0.022,0.008));
#962=CARTESIAN_POINT('',(-0.0168194138894043,0.022,0.008));
#963=CARTESIAN_POINT('',(-0.04,0.022,0.008));
#964=CARTESIAN_POINT('',(-0.04,0.022,0.008));
#965=CARTESIAN_POINT('',(-0.04,0.015,5.72659409376853E-18));
#966=CARTESIAN_POINT('',(-0.04,0.015,5.72659409376853E-18));
#967=CARTESIAN_POINT('',(-0.04,0.015,5.72659409376853E-18));
#968=CARTESIAN_POINT('',(-0.04,0.0173237706627697,0.00245286896824837));
#969=CARTESIAN_POINT('',(-0.04,0.0201140679419041,0.00502209551632402));
#970=CARTESIAN_POINT('',(-0.04,0.022,0.008));
#971=CARTESIAN_POINT('',(-0.04,0.008,-0.008));
#972=CARTESIAN_POINT('',(-0.0168194138894043,0.008,-0.008));
#973=CARTESIAN_POINT('',(-0.04,0.0108189852908254,-0.00478938035666943));
#974=CARTESIAN_POINT('',(-0.0168194138894043,0.0108189852908254,-0.00478938035666943));
#975=CARTESIAN_POINT('',(-0.04,0.0126762293372303,-0.00245286896824836));
#976=CARTESIAN_POINT('',(-0.0168194138894043,0.0126762293372303,-0.00245286896824836));
#977=CARTESIAN_POINT('',(-0.04,0.015,5.72659409376853E-18));
#978=CARTESIAN_POINT('',(-0.0168194138894043,0.015,8.56539715203859E-18));
#979=CARTESIAN_POINT('',(-0.04,0.008,-0.008));
#980=CARTESIAN_POINT('',(-0.04,0.008,-0.008));
#981=CARTESIAN_POINT('',(-0.04,0.008,-0.008));
#982=CARTESIAN_POINT('',(-0.04,0.0108189852908254,-0.00478938035666943));
#983=CARTESIAN_POINT('',(-0.04,0.0126762293372303,-0.00245286896824836));
#984=CARTESIAN_POINT('',(-0.04,0.015,5.72659409376853E-18));
#985=CARTESIAN_POINT('',(-0.04,0.0065,-0.008));
#986=CARTESIAN_POINT('',(-0.04,0.005,-0.008));
#987=CARTESIAN_POINT('',(-0.04,0.005,-0.008));
#988=CARTESIAN_POINT('',(-0.04,0.0065,-0.008));
#989=CARTESIAN_POINT('',(-0.04,0.005,-0.008));
#990=CARTESIAN_POINT('',(-0.0168194138894043,0.005,-0.008));
#991=CARTESIAN_POINT('',(-0.04,0.00843066629022363,-0.00440208520740275));
#992=CARTESIAN_POINT('',(-0.0168194138894043,0.00843066629022363,-0.00440208520740274));
#993=CARTESIAN_POINT('',(-0.04,0.00983760239370168,-0.00243673170916736));
#994=CARTESIAN_POINT('',(-0.0168194138894043,0.00983760239370168,-0.00243673170916736));
#995=CARTESIAN_POINT('',(-0.04,0.012,6.16027496276273E-18));
#996=CARTESIAN_POINT('',(-0.0168194138894043,0.012,8.99907802103279E-18));
#997=CARTESIAN_POINT('',(-0.04,0.012,6.16027496276273E-18));
#998=CARTESIAN_POINT('',(-0.04,0.012,6.16027496276273E-18));
#999=CARTESIAN_POINT('',(-0.04,0.005,-0.008));
#1000=CARTESIAN_POINT('',(-0.04,0.00843066629022363,-0.00440208520740275));
#1001=CARTESIAN_POINT('',(-0.04,0.00983760239370168,-0.00243673170916736));
#1002=CARTESIAN_POINT('',(-0.04,0.012,6.16027496276273E-18));
#1003=CARTESIAN_POINT('',(-0.04,0.012,6.16027496276273E-18));
#1004=CARTESIAN_POINT('',(-0.0168194138894043,0.012,8.99907802103279E-18));
#1005=CARTESIAN_POINT('',(-0.04,0.0141623976062983,0.00243673170916738));
#1006=CARTESIAN_POINT('',(-0.0168194138894043,0.0141623976062983,0.00243673170916738));
#1007=CARTESIAN_POINT('',(-0.04,0.0170802567154169,0.00534484162926673));
#1008=CARTESIAN_POINT('',(-0.0168194138894043,0.0170802567154169,0.00534484162926673));
#1009=CARTESIAN_POINT('',(-0.04,0.019,0.008));
#1010=CARTESIAN_POINT('',(-0.0168194138894043,0.019,0.008));
#1011=CARTESIAN_POINT('',(-0.04,0.019,0.008));
#1012=CARTESIAN_POINT('',(-0.04,0.019,0.008));
#1013=CARTESIAN_POINT('',(-0.04,0.012,6.16027496276273E-18));
#1014=CARTESIAN_POINT('',(-0.04,0.0141623976062983,0.00243673170916738));
#1015=CARTESIAN_POINT('',(-0.04,0.0170802567154169,0.00534484162926673));
#1016=CARTESIAN_POINT('',(-0.04,0.019,0.008));
#1017=CARTESIAN_POINT('',(-0.04,0.0205,0.008));
#1018=CARTESIAN_POINT('',(-0.04,0.0205,0.008));
#1019=CARTESIAN_POINT('',(-0.04,0.0365160719537182,-4.89858719658941E-18));
#1020=CARTESIAN_POINT('',(-8.17588769206324E-18,0.015,-0.04));
#1021=CARTESIAN_POINT('',(-9.59528922119827E-18,0.015,-0.0168194138894043));
#1022=CARTESIAN_POINT('',(-0.00245286896824837,0.0173237706627697,-0.04));
#1023=CARTESIAN_POINT('',(-0.00245286896824837,0.0173237706627697,-0.0168194138894043));
#1024=CARTESIAN_POINT('',(-0.00502209551632403,0.0201140679419041,-0.04));
#1025=CARTESIAN_POINT('',(-0.00502209551632403,0.0201140679419041,-0.0168194138894043));
#1026=CARTESIAN_POINT('',(-0.008,0.022,-0.04));
#1027=CARTESIAN_POINT('',(-0.008,0.022,-0.0168194138894043));
#1028=CARTESIAN_POINT('',(-0.008,0.022,-0.04));
#1029=CARTESIAN_POINT('',(-0.008,0.022,-0.04));
#1030=CARTESIAN_POINT('',(-8.17588769206324E-18,0.015,-0.04));
#1031=CARTESIAN_POINT('',(-8.17588769206324E-18,0.015,-0.04));
#1032=CARTESIAN_POINT('',(-8.17588769206324E-18,0.015,-0.04));
#1033=CARTESIAN_POINT('',(-0.00245286896824837,0.0173237706627697,-0.04));
#1034=CARTESIAN_POINT('',(-0.00502209551632403,0.0201140679419041,-0.04));
#1035=CARTESIAN_POINT('',(-0.008,0.022,-0.04));
#1036=CARTESIAN_POINT('',(0.008,0.008,-0.04));
#1037=CARTESIAN_POINT('',(0.008,0.008,-0.0168194138894043));
#1038=CARTESIAN_POINT('',(0.00478938035666943,0.0108189852908254,-0.04));
#1039=CARTESIAN_POINT('',(0.00478938035666943,0.0108189852908254,-0.0168194138894043));
#1040=CARTESIAN_POINT('',(0.00245286896824836,0.0126762293372303,-0.04));
#1041=CARTESIAN_POINT('',(0.00245286896824836,0.0126762293372303,-0.0168194138894043));
#1042=CARTESIAN_POINT('',(-8.17588769206324E-18,0.015,-0.04));
#1043=CARTESIAN_POINT('',(-9.59528922119827E-18,0.015,-0.0168194138894043));
#1044=CARTESIAN_POINT('',(0.008,0.008,-0.04));
#1045=CARTESIAN_POINT('',(0.008,0.008,-0.04));
#1046=CARTESIAN_POINT('',(0.008,0.008,-0.04));
#1047=CARTESIAN_POINT('',(0.00478938035666943,0.0108189852908254,-0.04));
#1048=CARTESIAN_POINT('',(0.00245286896824836,0.0126762293372303,-0.04));
#1049=CARTESIAN_POINT('',(-8.17588769206324E-18,0.015,-0.04));
#1050=CARTESIAN_POINT('',(0.008,0.0065,-0.04));
#1051=CARTESIAN_POINT('',(0.008,0.005,-0.04));
#1052=CARTESIAN_POINT('',(0.008,0.005,-0.04));
#1053=CARTESIAN_POINT('',(0.008,0.0065,-0.04));
#1054=CARTESIAN_POINT('',(0.008,0.005,-0.04));
#1055=CARTESIAN_POINT('',(0.008,0.005,-0.0168194138894043));
#1056=CARTESIAN_POINT('',(0.00440208520740275,0.00843066629022363,-0.04));
#1057=CARTESIAN_POINT('',(0.00440208520740274,0.00843066629022363,-0.0168194138894043));
#1058=CARTESIAN_POINT('',(0.00243673170916736,0.00983760239370168,-0.04));
#1059=CARTESIAN_POINT('',(0.00243673170916736,0.00983760239370168,-0.0168194138894043));
#1060=CARTESIAN_POINT('',(-8.60956856105744E-18,0.012,-0.04));
#1061=CARTESIAN_POINT('',(-1.00289700901925E-17,0.012,-0.0168194138894043));
#1062=CARTESIAN_POINT('',(-8.60956856105744E-18,0.012,-0.04));
#1063=CARTESIAN_POINT('',(-8.60956856105744E-18,0.012,-0.04));
#1064=CARTESIAN_POINT('',(0.008,0.005,-0.04));
#1065=CARTESIAN_POINT('',(0.00440208520740275,0.00843066629022363,-0.04));
#1066=CARTESIAN_POINT('',(0.00243673170916736,0.00983760239370168,-0.04));
#1067=CARTESIAN_POINT('',(-8.60956856105744E-18,0.012,-0.04));
#1068=CARTESIAN_POINT('',(-8.60956856105744E-18,0.012,-0.04));
#1069=CARTESIAN_POINT('',(-1.00289700901925E-17,0.012,-0.0168194138894043));
#1070=CARTESIAN_POINT('',(-0.00243673170916738,0.0141623976062983,-0.04));
#1071=CARTESIAN_POINT('',(-0.00243673170916738,0.0141623976062983,-0.0168194138894043));
#1072=CARTESIAN_POINT('',(-0.00534484162926673,0.0170802567154169,-0.04));
#1073=CARTESIAN_POINT('',(-0.00534484162926673,0.0170802567154169,-0.0168194138894043));
#1074=CARTESIAN_POINT('',(-0.008,0.019,-0.04));
#1075=CARTESIAN_POINT('',(-0.008,0.019,-0.0168194138894043));
#1076=CARTESIAN_POINT('',(-0.008,0.019,-0.04));
#1077=CARTESIAN_POINT('',(-0.008,0.019,-0.04));
#1078=CARTESIAN_POINT('',(-8.60956856105744E-18,0.012,-0.04));
#1079=CARTESIAN_POINT('',(-0.00243673170916738,0.0141623976062983,-0.04));
#1080=CARTESIAN_POINT('',(-0.00534484162926673,0.0170802567154169,-0.04));
#1081=CARTESIAN_POINT('',(-0.008,0.019,-0.04));
#1082=CARTESIAN_POINT('',(-0.008,0.0205,-0.04));
#1083=CARTESIAN_POINT('',(-0.008,0.0205,-0.04));
#1084=CARTESIAN_POINT('',(2.4492935982947E-18,0.0365160719537182,-0.04));
#1085=CARTESIAN_POINT('',(0.04,0.015,-1.06251812903579E-17));
#1086=CARTESIAN_POINT('',(0.0168194138894043,0.015,-1.06251812903579E-17));
#1087=CARTESIAN_POINT('',(0.04,0.0173237706627697,-0.00245286896824838));
#1088=CARTESIAN_POINT('',(0.0168194138894043,0.0173237706627697,-0.00245286896824838));
#1089=CARTESIAN_POINT('',(0.04,0.0201140679419041,-0.00502209551632403));
#1090=CARTESIAN_POINT('',(0.0168194138894043,0.0201140679419041,-0.00502209551632403));
#1091=CARTESIAN_POINT('',(0.04,0.022,-0.008));
#1092=CARTESIAN_POINT('',(0.0168194138894043,0.022,-0.008));
#1093=CARTESIAN_POINT('',(0.04,0.022,-0.008));
#1094=CARTESIAN_POINT('',(0.04,0.022,-0.008));
#1095=CARTESIAN_POINT('',(0.04,0.015,-1.06251812903579E-17));
#1096=CARTESIAN_POINT('',(0.04,0.015,-1.06251812903579E-17));
#1097=CARTESIAN_POINT('',(0.04,0.015,-1.06251812903579E-17));
#1098=CARTESIAN_POINT('',(0.04,0.0173237706627697,-0.00245286896824838));
#1099=CARTESIAN_POINT('',(0.04,0.0201140679419041,-0.00502209551632403));
#1100=CARTESIAN_POINT('',(0.04,0.022,-0.008));
#1101=CARTESIAN_POINT('',(0.04,0.008,0.008));
#1102=CARTESIAN_POINT('',(0.0168194138894043,0.008,0.008));
#1103=CARTESIAN_POINT('',(0.04,0.0108189852908254,0.00478938035666943));
#1104=CARTESIAN_POINT('',(0.0168194138894043,0.0108189852908254,0.00478938035666943));
#1105=CARTESIAN_POINT('',(0.04,0.0126762293372303,0.00245286896824835));
#1106=CARTESIAN_POINT('',(0.0168194138894043,0.0126762293372303,0.00245286896824835));
#1107=CARTESIAN_POINT('',(0.04,0.015,-1.06251812903579E-17));
#1108=CARTESIAN_POINT('',(0.0168194138894043,0.015,-1.06251812903579E-17));
#1109=CARTESIAN_POINT('',(0.04,0.008,0.008));
#1110=CARTESIAN_POINT('',(0.04,0.008,0.008));
#1111=CARTESIAN_POINT('',(0.04,0.008,0.008));
#1112=CARTESIAN_POINT('',(0.04,0.0108189852908254,0.00478938035666943));
#1113=CARTESIAN_POINT('',(0.04,0.0126762293372303,0.00245286896824836));
#1114=CARTESIAN_POINT('',(0.04,0.015,-1.06251812903579E-17));
#1115=CARTESIAN_POINT('',(0.04,0.0065,0.008));
#1116=CARTESIAN_POINT('',(0.04,0.005,0.008));
#1117=CARTESIAN_POINT('',(0.04,0.005,0.008));
#1118=CARTESIAN_POINT('',(0.04,0.0065,0.008));
#1119=CARTESIAN_POINT('',(0.04,0.005,0.008));
#1120=CARTESIAN_POINT('',(0.0168194138894043,0.005,0.008));
#1121=CARTESIAN_POINT('',(0.04,0.00843066629022363,0.00440208520740274));
#1122=CARTESIAN_POINT('',(0.0168194138894043,0.00843066629022363,0.00440208520740274));
#1123=CARTESIAN_POINT('',(0.04,0.00983760239370168,0.00243673170916736));
#1124=CARTESIAN_POINT('',(0.0168194138894043,0.00983760239370168,0.00243673170916736));
#1125=CARTESIAN_POINT('',(0.04,0.012,-1.10588621593521E-17));
#1126=CARTESIAN_POINT('',(0.0168194138894043,0.012,-1.10588621593521E-17));
#1127=CARTESIAN_POINT('',(0.04,0.012,-1.10588621593521E-17));
#1128=CARTESIAN_POINT('',(0.04,0.012,-1.10588621593521E-17));
#1129=CARTESIAN_POINT('',(0.04,0.005,0.008));
#1130=CARTESIAN_POINT('',(0.04,0.00843066629022363,0.00440208520740274));
#1131=CARTESIAN_POINT('',(0.04,0.00983760239370168,0.00243673170916736));
#1132=CARTESIAN_POINT('',(0.04,0.012,-1.10588621593521E-17));
#1133=CARTESIAN_POINT('',(0.04,0.012,-1.10588621593521E-17));
#1134=CARTESIAN_POINT('',(0.0168194138894043,0.012,-1.10588621593521E-17));
#1135=CARTESIAN_POINT('',(0.04,0.0141623976062983,-0.00243673170916738));
#1136=CARTESIAN_POINT('',(0.0168194138894043,0.0141623976062983,-0.00243673170916738));
#1137=CARTESIAN_POINT('',(0.04,0.0170802567154169,-0.00534484162926674));
#1138=CARTESIAN_POINT('',(0.0168194138894043,0.0170802567154169,-0.00534484162926674));
#1139=CARTESIAN_POINT('',(0.04,0.019,-0.008));
#1140=CARTESIAN_POINT('',(0.0168194138894043,0.019,-0.008));
#1141=CARTESIAN_POINT('',(0.04,0.019,-0.008));
#1142=CARTESIAN_POINT('',(0.04,0.019,-0.008));
#1143=CARTESIAN_POINT('',(0.04,0.012,-1.10588621593521E-17));
#1144=CARTESIAN_POINT('',(0.04,0.0141623976062983,-0.00243673170916738));
#1145=CARTESIAN_POINT('',(0.04,0.0170802567154169,-0.00534484162926674));
#1146=CARTESIAN_POINT('',(0.04,0.019,-0.008));
#1147=CARTESIAN_POINT('',(0.04,0.0205,-0.008));
#1148=CARTESIAN_POINT('',(0.04,0.0205,-0.008));
#1149=CARTESIAN_POINT('',(0.04,0.0365160719537182,0.));
#1150=MECHANICAL_DESIGN_GEOMETRIC_PRESENTATION_REPRESENTATION('',(#613),
#1151);
#1151=(
GEOMETRIC_REPRESENTATION_CONTEXT(3)
GLOBAL_UNCERTAINTY_ASSIGNED_CONTEXT((#1152))
GLOBAL_UNIT_ASSIGNED_CONTEXT((#1155,#1154,#1153))
REPRESENTATION_CONTEXT('Prop V1.5','TOP_LEVEL_ASSEMBLY_PART')
);
#1152=UNCERTAINTY_MEASURE_WITH_UNIT(LENGTH_MEASURE(2.E-5),#1155,
'DISTANCE_ACCURACY_VALUE','Maximum Tolerance applied to model');
#1153=(
NAMED_UNIT(*)
SI_UNIT($,.STERADIAN.)
SOLID_ANGLE_UNIT()
);
#1154=(
NAMED_UNIT(*)
PLANE_ANGLE_UNIT()
SI_UNIT($,.RADIAN.)
);
#1155=(
LENGTH_UNIT()
NAMED_UNIT(*)
SI_UNIT($,.METRE.)
);
#1156=PRODUCT_DEFINITION_SHAPE('','',#1157);
#1157=PRODUCT_DEFINITION('','',#1159,#1158);
#1158=PRODUCT_DEFINITION_CONTEXT('',#1165,'design');
#1159=PRODUCT_DEFINITION_FORMATION_WITH_SPECIFIED_SOURCE('','',#1161,
 .NOT_KNOWN.);
#1160=PRODUCT_RELATED_PRODUCT_CATEGORY('','',(#1161));
#1161=PRODUCT('Prop V1.5','Prop V1.5','Prop V1.5',(#1163));
#1162=PRODUCT_CATEGORY('','');
#1163=PRODUCT_CONTEXT('',#1165,'mechanical');
#1164=APPLICATION_PROTOCOL_DEFINITION('international standard',
'ap242_managed_model_based_3d_engineering',2020,#1165);
#1165=APPLICATION_CONTEXT('managed model based 3d engineering');
ENDSEC;
END-ISO-10303-21;
