ISO-10303-21;
HEADER;
/* Generated by software containing ST-Developer
 * from STEP Tools, Inc. (www.steptools.com) 
 */
/* OPTION: using custom renumber hook */

FILE_DESCRIPTION(
/* description */ ('STEP AP242 Edition 2',
'CAx-IF Rec.Pracs.---Representation and Presentation of Product Manufa
cturing Information (PMI)---4.0---2014-10-13',
'CAx-IF Rec.Pracs.---3D Tessellated Geometry---0.4---2014-09-14','2;1',
'CAx-IF Rec.Pracs.---User Defined Attributes---1.5---2016-08-15'),
/* implementation_level */ '2;1');

FILE_NAME(
/* name */ 'Prop - Prop Con V1',
/* time_stamp */ '2026-08-23T20:25:51Z',
/* author */ (''),
/* organization */ (''),
/* preprocessor_version */ 'ST-DEVELOPER v20',
/* originating_system */ 'ONSHAPE BY PTC INC, 1.219',
/* authorisation */ '  ');

FILE_SCHEMA (('AP242_MANAGED_MODEL_BASED_3D_ENGINEERING_MIM_LF { 1 0 10303 442 3 1 4 }'));
ENDSEC;

DATA;
#10=SHAPE_REPRESENTATION_RELATIONSHIP('','',#39,#11);
#11=ADVANCED_BREP_SHAPE_REPRESENTATION('',(#37),#245);
#12=PLANE('',#42);
#13=ORIENTED_EDGE('',*,*,#15,.T.);
#14=ORIENTED_EDGE('',*,*,#15,.F.);
#15=EDGE_CURVE('',#20,#20,#16,.T.);
#16=CIRCLE('',#41,0.02375);
#17=EDGE_LOOP('',(#13));
#18=EDGE_LOOP('',(#14));
#19=VERTEX_POINT('',#240);
#20=VERTEX_POINT('',#242);
#21=VERTEX_LOOP('',#19);
#22=FACE_BOUND('',#21,.T.);
#23=FACE_BOUND('',#17,.T.);
#24=FACE_BOUND('',#18,.T.);
#25=B_SPLINE_SURFACE_WITH_KNOTS('',3,3,((#50,#51,#52,#53,#54,#55,#56,#57,
#58,#59,#60,#61,#62,#63,#64,#65,#66,#67,#68),(#69,#70,#71,#72,#73,#74,#75,
#76,#77,#78,#79,#80,#81,#82,#83,#84,#85,#86,#87),(#88,#89,#90,#91,#92,#93,
#94,#95,#96,#97,#98,#99,#100,#101,#102,#103,#104,#105,#106),(#107,#108,
#109,#110,#111,#112,#113,#114,#115,#116,#117,#118,#119,#120,#121,#122,#123,
#124,#125),(#126,#127,#128,#129,#130,#131,#132,#133,#134,#135,#136,#137,
#138,#139,#140,#141,#142,#143,#144),(#145,#146,#147,#148,#149,#150,#151,
#152,#153,#154,#155,#156,#157,#158,#159,#160,#161,#162,#163),(#164,#165,
#166,#167,#168,#169,#170,#171,#172,#173,#174,#175,#176,#177,#178,#179,#180,
#181,#182),(#183,#184,#185,#186,#187,#188,#189,#190,#191,#192,#193,#194,
#195,#196,#197,#198,#199,#200,#201),(#202,#203,#204,#205,#206,#207,#208,
#209,#210,#211,#212,#213,#214,#215,#216,#217,#218,#219,#220),(#221,#222,
#223,#224,#225,#226,#227,#228,#229,#230,#231,#232,#233,#234,#235,#236,#237,
#238,#239)),.UNSPECIFIED.,.F.,.T.,.F.,(4,1,1,1,1,1,1,4),(1,1,1,1,1,1,1,
1,1,1,1,1,1,1,1,1,1,1,1,1,1,1,1),(1.02592803244726E-16,0.125,0.1875,0.239583333333333,
0.28125,0.322916666666667,0.375,0.5),(-1.17809724509617,-0.785398163397448,
-0.392699081698725,0.,0.392699081698724,0.785398163397448,1.17809724509617,
1.5707963267949,1.96349540849362,2.35619449019234,2.74889357189107,3.14159265358979,
3.53429173528852,3.92699081698724,4.31968989868597,4.71238898038469,5.10508806208341,
5.49778714378214,5.89048622548086,6.28318530717959,6.67588438887831,7.06858347057703,
7.46128255227576),.UNSPECIFIED.);
#26=ADVANCED_FACE('',(#22,#23),#25,.F.);
#27=ADVANCED_FACE('',(#24),#12,.T.);
#28=CLOSED_SHELL('',(#26,#27));
#29=STYLED_ITEM('',(#30),#37);
#30=PRESENTATION_STYLE_ASSIGNMENT((#31));
#31=SURFACE_STYLE_USAGE(.BOTH.,#32);
#32=SURFACE_SIDE_STYLE('',(#33));
#33=SURFACE_STYLE_FILL_AREA(#34);
#34=FILL_AREA_STYLE('',(#35));
#35=FILL_AREA_STYLE_COLOUR('',#36);
#36=COLOUR_RGB('',0.647058823529412,0.647058823529412,0.647058823529412);
#37=MANIFOLD_SOLID_BREP('Prop Con V1',#28);
#38=SHAPE_DEFINITION_REPRESENTATION(#250,#39);
#39=SHAPE_REPRESENTATION('Prop Con V1',(#40),#245);
#40=AXIS2_PLACEMENT_3D('',#49,#43,#44);
#41=AXIS2_PLACEMENT_3D('',#241,#45,#46);
#42=AXIS2_PLACEMENT_3D('',#243,#47,#48);
#43=DIRECTION('',(0.,0.,1.));
#44=DIRECTION('',(1.,0.,0.));
#45=DIRECTION('',(0.,1.,-1.13496028811478E-16));
#46=DIRECTION('',(0.,1.13496028811478E-16,1.));
#47=DIRECTION('',(0.,-1.,1.13496028811478E-16));
#48=DIRECTION('',(0.,-1.13496028811478E-16,-1.));
#49=CARTESIAN_POINT('',(0.,0.,0.));
#50=CARTESIAN_POINT('',(-0.00932534813860607,0.0275,0.0225133819500736));
#51=CARTESIAN_POINT('',(-1.77809156287623E-17,0.0275,0.0243683090249632));
#52=CARTESIAN_POINT('',(0.00932534813860612,0.0275,0.0225133819500736));
#53=CARTESIAN_POINT('',(0.0172309965576008,0.0275,0.0172309965576008));
#54=CARTESIAN_POINT('',(0.0225133819500736,0.0275,0.00932534813860612));
#55=CARTESIAN_POINT('',(0.0243683090249632,0.0275,8.87690528722507E-18));
#56=CARTESIAN_POINT('',(0.0225133819500736,0.0275,-0.0093253481386061));
#57=CARTESIAN_POINT('',(0.0172309965576008,0.0275,-0.0172309965576008));
#58=CARTESIAN_POINT('',(0.00932534813860612,0.0275,-0.0225133819500736));
#59=CARTESIAN_POINT('',(1.71409028277728E-18,0.0275,-0.0243683090249632));
#60=CARTESIAN_POINT('',(-0.00932534813860611,0.0275,-0.0225133819500736));
#61=CARTESIAN_POINT('',(-0.0172309965576008,0.0275,-0.0172309965576008));
#62=CARTESIAN_POINT('',(-0.0225133819500736,0.0275,-0.00932534813860612));
#63=CARTESIAN_POINT('',(-0.0243683090249632,0.0275,-2.0870891820346E-18));
#64=CARTESIAN_POINT('',(-0.0225133819500736,0.0275,0.00932534813860612));
#65=CARTESIAN_POINT('',(-0.0172309965576008,0.0275,0.0172309965576008));
#66=CARTESIAN_POINT('',(-0.00932534813860607,0.0275,0.0225133819500736));
#67=CARTESIAN_POINT('',(-1.77809156287623E-17,0.0275,0.0243683090249632));
#68=CARTESIAN_POINT('',(0.00932534813860612,0.0275,0.0225133819500736));
#69=CARTESIAN_POINT('',(-0.00932534381272776,0.0289091051374535,0.0225133715064796));
#70=CARTESIAN_POINT('',(-1.82145964977565E-17,0.0289091051374535,0.0243682977208984));
#71=CARTESIAN_POINT('',(0.00932534381272782,0.0289091051374535,0.0225133715064795));
#72=CARTESIAN_POINT('',(0.01723098856442,0.0289091051374535,0.01723098856442));
#73=CARTESIAN_POINT('',(0.0225133715064795,0.0289091051374535,0.00932534381272782));
#74=CARTESIAN_POINT('',(0.0243682977208985,0.0289091051374534,1.24344436656931E-17));
#75=CARTESIAN_POINT('',(0.0225133715064795,0.0289091051374534,-0.0093253438127278));
#76=CARTESIAN_POINT('',(0.01723098856442,0.0289091051374535,-0.01723098856442));
#77=CARTESIAN_POINT('',(0.00932534381272782,0.0289091051374534,-0.0225133715064795));
#78=CARTESIAN_POINT('',(5.03746375599893E-18,0.0289091051374534,-0.0243682977208984));
#79=CARTESIAN_POINT('',(-0.00932534381272782,0.0289091051374535,-0.0225133715064795));
#80=CARTESIAN_POINT('',(-0.01723098856442,0.0289091051374535,-0.01723098856442));
#81=CARTESIAN_POINT('',(-0.0225133715064795,0.0289091051374535,-0.00932534381272779));
#82=CARTESIAN_POINT('',(-0.0243682977208985,0.0289091051374534,4.29615110847381E-18));
#83=CARTESIAN_POINT('',(-0.0225133715064795,0.0289091051374535,0.00932534381272782));
#84=CARTESIAN_POINT('',(-0.01723098856442,0.0289091051374535,0.01723098856442));
#85=CARTESIAN_POINT('',(-0.00932534381272776,0.0289091051374535,0.0225133715064796));
#86=CARTESIAN_POINT('',(-1.82145964977565E-17,0.0289091051374535,0.0243682977208984));
#87=CARTESIAN_POINT('',(0.00932534381272782,0.0289091051374535,0.0225133715064795));
#88=CARTESIAN_POINT('',(-0.00871079120462923,0.0351483715458089,0.0210297102652163));
#89=CARTESIAN_POINT('',(-1.53956708492942E-17,0.0351483715458088,0.0227623943654789));
#90=CARTESIAN_POINT('',(0.00871079120462927,0.0351483715458088,0.0210297102652163));
#91=CARTESIAN_POINT('',(0.0160954434118726,0.0351483715458088,0.0160954434118726));
#92=CARTESIAN_POINT('',(0.0210297102652162,0.0351483715458088,0.00871079120462927));
#93=CARTESIAN_POINT('',(0.0227623943654789,0.0351483715458089,2.5207700510288E-18));
#94=CARTESIAN_POINT('',(0.0210297102652162,0.0351483715458088,-0.00871079120462926));
#95=CARTESIAN_POINT('',(0.0160954434118726,0.0351483715458088,-0.0160954434118726));
#96=CARTESIAN_POINT('',(0.00871079120462926,0.0351483715458088,-0.0210297102652162));
#97=CARTESIAN_POINT('',(2.00823570860114E-18,0.0351483715458088,-0.0227623943654789));
#98=CARTESIAN_POINT('',(-0.00871079120462925,0.0351483715458088,-0.0210297102652162));
#99=CARTESIAN_POINT('',(-0.0160954434118726,0.0351483715458088,-0.0160954434118726));
#100=CARTESIAN_POINT('',(-0.0210297102652162,0.0351483715458089,-0.00871079120462928));
#101=CARTESIAN_POINT('',(-0.022762394365479,0.0351483715458089,-2.62919026827735E-18));
#102=CARTESIAN_POINT('',(-0.0210297102652162,0.0351483715458088,0.00871079120462926));
#103=CARTESIAN_POINT('',(-0.0160954434118726,0.0351483715458088,0.0160954434118726));
#104=CARTESIAN_POINT('',(-0.00871079120462923,0.0351483715458089,0.0210297102652163));
#105=CARTESIAN_POINT('',(-1.53956708492942E-17,0.0351483715458088,0.0227623943654789));
#106=CARTESIAN_POINT('',(0.00871079120462927,0.0351483715458088,0.0210297102652163));
#107=CARTESIAN_POINT('',(-0.00724783174291887,0.0460958230480832,0.0174978136915531));
#108=CARTESIAN_POINT('',(-1.37693675905659E-17,0.0460958230480832,0.0189394970619065));
#109=CARTESIAN_POINT('',(0.00724783174291891,0.0460958230480832,0.0174978136915531));
#110=CARTESIAN_POINT('',(0.0133922468047368,0.0460958230480832,0.0133922468047368));
#111=CARTESIAN_POINT('',(0.0174978136915531,0.0460958230480832,0.00724783174291892));
#112=CARTESIAN_POINT('',(0.0189394970619065,0.0460958230480832,9.92044987824237E-18));
#113=CARTESIAN_POINT('',(0.0174978136915531,0.0460958230480832,-0.0072478317429189));
#114=CARTESIAN_POINT('',(0.0133922468047368,0.0460958230480832,-0.0133922468047368));
#115=CARTESIAN_POINT('',(0.00724783174291892,0.0460958230480832,-0.0174978136915531));
#116=CARTESIAN_POINT('',(2.02360141565993E-18,0.0460958230480832,-0.0189394970619065));
#117=CARTESIAN_POINT('',(-0.00724783174291891,0.0460958230480832,-0.0174978136915531));
#118=CARTESIAN_POINT('',(-0.0133922468047368,0.0460958230480832,-0.0133922468047368));
#119=CARTESIAN_POINT('',(-0.0174978136915531,0.0460958230480832,-0.00724783174291891));
#120=CARTESIAN_POINT('',(-0.0189394970619065,0.0460958230480832,-1.19262238973405E-18));
#121=CARTESIAN_POINT('',(-0.0174978136915531,0.0460958230480832,0.00724783174291892));
#122=CARTESIAN_POINT('',(-0.0133922468047368,0.0460958230480832,0.0133922468047368));
#123=CARTESIAN_POINT('',(-0.00724783174291887,0.0460958230480832,0.0174978136915531));
#124=CARTESIAN_POINT('',(-1.37693675905659E-17,0.0460958230480832,0.0189394970619065));
#125=CARTESIAN_POINT('',(0.00724783174291891,0.0460958230480832,0.0174978136915531));
#126=CARTESIAN_POINT('',(-0.00612357708999151,0.0534359731037445,0.0147836228608948));
#127=CARTESIAN_POINT('',(-1.1817803680092E-17,0.0534359731037444,0.0160016780766968));
#128=CARTESIAN_POINT('',(0.00612357708999155,0.0534359731037444,0.0147836228608948));
#129=CARTESIAN_POINT('',(0.0113148950783964,0.0534359731037444,0.0113148950783964));
#130=CARTESIAN_POINT('',(0.0147836228608948,0.0534359731037444,0.00612357708999155));
#131=CARTESIAN_POINT('',(0.0160016780766968,0.0534359731037444,2.7172816947918E-18));
#132=CARTESIAN_POINT('',(0.0147836228608948,0.0534359731037445,-0.00612357708999154));
#133=CARTESIAN_POINT('',(0.0113148950783964,0.0534359731037444,-0.0113148950783964));
#134=CARTESIAN_POINT('',(0.00612357708999154,0.0534359731037444,-0.0147836228608947));
#135=CARTESIAN_POINT('',(2.78260911084878E-18,0.0534359731037444,-0.0160016780766968));
#136=CARTESIAN_POINT('',(-0.00612357708999154,0.0534359731037444,-0.0147836228608948));
#137=CARTESIAN_POINT('',(-0.0113148950783964,0.0534359731037444,-0.0113148950783964));
#138=CARTESIAN_POINT('',(-0.0147836228608948,0.0534359731037445,-0.00612357708999155));
#139=CARTESIAN_POINT('',(-0.0160016780766968,0.0534359731037444,-3.09675245516172E-18));
#140=CARTESIAN_POINT('',(-0.0147836228608948,0.0534359731037445,0.00612357708999155));
#141=CARTESIAN_POINT('',(-0.0113148950783964,0.0534359731037444,0.0113148950783964));
#142=CARTESIAN_POINT('',(-0.00612357708999151,0.0534359731037445,0.0147836228608948));
#143=CARTESIAN_POINT('',(-1.1817803680092E-17,0.0534359731037444,0.0160016780766968));
#144=CARTESIAN_POINT('',(0.00612357708999155,0.0534359731037444,0.0147836228608948));
#145=CARTESIAN_POINT('',(-0.00508654262843797,0.0593666527447332,0.0122800001991639));
#146=CARTESIAN_POINT('',(-1.04083408558608E-17,0.0593666527447331,0.0132917764351641));
#147=CARTESIAN_POINT('',(0.005086542628438,0.0593666527447331,0.0122800001991639));
#148=CARTESIAN_POINT('',(0.00939870525132005,0.0593666527447331,0.00939870525132006));
#149=CARTESIAN_POINT('',(0.0122800001991639,0.0593666527447331,0.00508654262843799));
#150=CARTESIAN_POINT('',(0.0132917764351641,0.0593666527447331,9.58841296291868E-19));
#151=CARTESIAN_POINT('',(0.0122800001991639,0.0593666527447331,-0.00508654262843799));
#152=CARTESIAN_POINT('',(0.00939870525132006,0.0593666527447331,-0.00939870525132006));
#153=CARTESIAN_POINT('',(0.005086542628438,0.0593666527447331,-0.0122800001991639));
#154=CARTESIAN_POINT('',(1.11273659489613E-18,0.0593666527447331,-0.0132917764351641));
#155=CARTESIAN_POINT('',(-0.005086542628438,0.0593666527447331,-0.0122800001991639));
#156=CARTESIAN_POINT('',(-0.00939870525132005,0.0593666527447331,-0.00939870525132007));
#157=CARTESIAN_POINT('',(-0.0122800001991639,0.0593666527447331,-0.005086542628438));
#158=CARTESIAN_POINT('',(-0.0132917764351641,0.0593666527447331,-6.43745039913268E-18));
#159=CARTESIAN_POINT('',(-0.0122800001991639,0.0593666527447331,0.005086542628438));
#160=CARTESIAN_POINT('',(-0.00939870525132005,0.0593666527447331,0.00939870525132006));
#161=CARTESIAN_POINT('',(-0.00508654262843797,0.0593666527447332,0.0122800001991639));
#162=CARTESIAN_POINT('',(-1.04083408558608E-17,0.0593666527447331,0.0132917764351641));
#163=CARTESIAN_POINT('',(0.005086542628438,0.0593666527447331,0.0122800001991639));
#164=CARTESIAN_POINT('',(-0.00403964552872661,0.0644677941254246,0.00975256702263168));
#165=CARTESIAN_POINT('',(-7.48099499014998E-18,0.0644677941254246,0.0105561024781253));
#166=CARTESIAN_POINT('',(0.00403964552872663,0.0644677941254246,0.00975256702263167));
#167=CARTESIAN_POINT('',(0.00746429164518254,0.0644677941254246,0.00746429164518254));
#168=CARTESIAN_POINT('',(0.00975256702263167,0.0644677941254246,0.00403964552872664));
#169=CARTESIAN_POINT('',(0.0105561024781253,0.0644677941254246,2.6596834543785E-18));
#170=CARTESIAN_POINT('',(0.00975256702263167,0.0644677941254246,-0.00403964552872663));
#171=CARTESIAN_POINT('',(0.00746429164518254,0.0644677941254246,-0.00746429164518254));
#172=CARTESIAN_POINT('',(0.00403964552872663,0.0644677941254246,-0.00975256702263167));
#173=CARTESIAN_POINT('',(1.89489872979158E-18,0.0644677941254246,-0.0105561024781253));
#174=CARTESIAN_POINT('',(-0.00403964552872663,0.0644677941254246,-0.00975256702263168));
#175=CARTESIAN_POINT('',(-0.00746429164518254,0.0644677941254246,-0.00746429164518254));
#176=CARTESIAN_POINT('',(-0.00975256702263166,0.0644677941254246,-0.00403964552872664));
#177=CARTESIAN_POINT('',(-0.0105561024781253,0.0644677941254246,-1.89735380184963E-19));
#178=CARTESIAN_POINT('',(-0.00975256702263167,0.0644677941254246,0.00403964552872663));
#179=CARTESIAN_POINT('',(-0.00746429164518254,0.0644677941254246,0.00746429164518255));
#180=CARTESIAN_POINT('',(-0.00403964552872661,0.0644677941254246,0.00975256702263168));
#181=CARTESIAN_POINT('',(-7.48099499014998E-18,0.0644677941254246,0.0105561024781253));
#182=CARTESIAN_POINT('',(0.00403964552872663,0.0644677941254246,0.00975256702263167));
#183=CARTESIAN_POINT('',(-0.0023465680444708,0.0709589266455976,0.00566511639799275));
#184=CARTESIAN_POINT('',(-4.82469966756049E-18,0.0709589266455975,0.00613187780293589));
#185=CARTESIAN_POINT('',(0.00234656804447081,0.0709589266455976,0.00566511639799274));
#186=CARTESIAN_POINT('',(0.00433589237586324,0.0709589266455975,0.00433589237586323));
#187=CARTESIAN_POINT('',(0.00566511639799274,0.0709589266455975,0.00234656804447081));
#188=CARTESIAN_POINT('',(0.00613187780293589,0.0709589266455975,-5.0821976835258E-20));
#189=CARTESIAN_POINT('',(0.00566511639799274,0.0709589266455976,-0.00234656804447081));
#190=CARTESIAN_POINT('',(0.00433589237586324,0.0709589266455976,-0.00433589237586324));
#191=CARTESIAN_POINT('',(0.00234656804447081,0.0709589266455975,-0.00566511639799274));
#192=CARTESIAN_POINT('',(5.09801337683782E-19,0.0709589266455976,-0.00613187780293589));
#193=CARTESIAN_POINT('',(-0.00234656804447081,0.0709589266455976,-0.00566511639799274));
#194=CARTESIAN_POINT('',(-0.00433589237586324,0.0709589266455976,-0.00433589237586324));
#195=CARTESIAN_POINT('',(-0.00566511639799275,0.0709589266455975,-0.00234656804447081));
#196=CARTESIAN_POINT('',(-0.00613187780293589,0.0709589266455976,-6.05459150697374E-18));
#197=CARTESIAN_POINT('',(-0.00566511639799275,0.0709589266455976,0.00234656804447081));
#198=CARTESIAN_POINT('',(-0.00433589237586323,0.0709589266455975,0.00433589237586324));
#199=CARTESIAN_POINT('',(-0.0023465680444708,0.0709589266455976,0.00566511639799275));
#200=CARTESIAN_POINT('',(-4.82469966756049E-18,0.0709589266455975,0.00613187780293589));
#201=CARTESIAN_POINT('',(0.00234656804447081,0.0709589266455976,0.00566511639799274));
#202=CARTESIAN_POINT('',(-0.000970914405658275,0.0733535960209117,0.00234399472604363));
#203=CARTESIAN_POINT('',(-1.70761842166467E-18,0.0733535960209116,0.00253712160899613));
#204=CARTESIAN_POINT('',(0.00097091440565828,0.0733535960209117,0.00234399472604363));
#205=CARTESIAN_POINT('',(0.00179401589441609,0.0733535960209117,0.00179401589441609));
#206=CARTESIAN_POINT('',(0.00234399472604363,0.0733535960209117,0.000970914405658279));
#207=CARTESIAN_POINT('',(0.00253712160899613,0.0733535960209116,8.51268111990572E-19));
#208=CARTESIAN_POINT('',(0.00234399472604363,0.0733535960209117,-0.000970914405658279));
#209=CARTESIAN_POINT('',(0.00179401589441609,0.0733535960209117,-0.00179401589441609));
#210=CARTESIAN_POINT('',(0.00097091440565828,0.0733535960209117,-0.00234399472604363));
#211=CARTESIAN_POINT('',(6.56045215621932E-19,0.0733535960209117,-0.00253712160899613));
#212=CARTESIAN_POINT('',(-0.000970914405658281,0.0733535960209117,-0.00234399472604364));
#213=CARTESIAN_POINT('',(-0.00179401589441609,0.0733535960209117,-0.00179401589441609));
#214=CARTESIAN_POINT('',(-0.00234399472604363,0.0733535960209117,-0.000970914405658282));
#215=CARTESIAN_POINT('',(-0.00253712160899613,0.0733535960209117,1.08759030427452E-18));
#216=CARTESIAN_POINT('',(-0.00234399472604363,0.0733535960209117,0.000970914405658279));
#217=CARTESIAN_POINT('',(-0.00179401589441609,0.0733535960209116,0.00179401589441609));
#218=CARTESIAN_POINT('',(-0.000970914405658275,0.0733535960209117,0.00234399472604363));
#219=CARTESIAN_POINT('',(-1.70761842166467E-18,0.0733535960209116,0.00253712160899613));
#220=CARTESIAN_POINT('',(0.00097091440565828,0.0733535960209117,0.00234399472604363));
#221=CARTESIAN_POINT('',(3.40566322898875E-19,0.0733533261685728,-8.22199835630005E-19));
#222=CARTESIAN_POINT('',(6.50001356230692E-34,0.0733533261685728,-8.89942689167604E-19));
#223=CARTESIAN_POINT('',(-3.40566322898877E-19,0.0733533261685728,-8.22199835630004E-19));
#224=CARTESIAN_POINT('',(-6.29284510377804E-19,0.0733533261685728,-6.29284510377805E-19));
#225=CARTESIAN_POINT('',(-8.22199835630003E-19,0.0733533261685728,-3.40566322898877E-19));
#226=CARTESIAN_POINT('',(-8.89942689167603E-19,0.0733533261685728,-8.50493672706941E-34));
#227=CARTESIAN_POINT('',(-8.22199835630003E-19,0.0733533261685728,3.40566322898876E-19));
#228=CARTESIAN_POINT('',(-6.29284510377804E-19,0.0733533261685728,6.29284510377804E-19));
#229=CARTESIAN_POINT('',(-3.40566322898877E-19,0.0733533261685728,8.22199835630002E-19));
#230=CARTESIAN_POINT('',(-9.87562191484574E-35,0.0733533261685728,8.89942689167603E-19));
#231=CARTESIAN_POINT('',(3.40566322898877E-19,0.0733533261685728,8.22199835630002E-19));
#232=CARTESIAN_POINT('',(6.29284510377804E-19,0.0733533261685728,6.29284510377804E-19));
#233=CARTESIAN_POINT('',(8.22199835630002E-19,0.0733533261685728,3.40566322898876E-19));
#234=CARTESIAN_POINT('',(8.89942689167604E-19,0.0733533261685728,-5.02547344863544E-34));
#235=CARTESIAN_POINT('',(8.22199835630003E-19,0.0733533261685728,-3.40566322898877E-19));
#236=CARTESIAN_POINT('',(6.29284510377804E-19,0.0733533261685728,-6.29284510377805E-19));
#237=CARTESIAN_POINT('',(3.40566322898875E-19,0.0733533261685728,-8.22199835630005E-19));
#238=CARTESIAN_POINT('',(6.50001356230692E-34,0.0733533261685728,-8.89942689167604E-19));
#239=CARTESIAN_POINT('',(-3.40566322898877E-19,0.0733533261685728,-8.22199835630004E-19));
#240=CARTESIAN_POINT('',(0.,0.0733533261685728,3.85185988877447E-34));
#241=CARTESIAN_POINT('',(0.,0.0275,5.20417042793042E-18));
#242=CARTESIAN_POINT('',(0.,0.0275,0.02375));
#243=CARTESIAN_POINT('',(0.,0.0275,0.011875));
#244=MECHANICAL_DESIGN_GEOMETRIC_PRESENTATION_REPRESENTATION('',(#29),#245);
#245=(
GEOMETRIC_REPRESENTATION_CONTEXT(3)
GLOBAL_UNCERTAINTY_ASSIGNED_CONTEXT((#246))
GLOBAL_UNIT_ASSIGNED_CONTEXT((#249,#248,#247))
REPRESENTATION_CONTEXT('Prop Con V1','TOP_LEVEL_ASSEMBLY_PART')
);
#246=UNCERTAINTY_MEASURE_WITH_UNIT(LENGTH_MEASURE(2.E-5),#249,
'DISTANCE_ACCURACY_VALUE','Maximum Tolerance applied to model');
#247=(
NAMED_UNIT(*)
SI_UNIT($,.STERADIAN.)
SOLID_ANGLE_UNIT()
);
#248=(
NAMED_UNIT(*)
PLANE_ANGLE_UNIT()
SI_UNIT($,.RADIAN.)
);
#249=(
LENGTH_UNIT()
NAMED_UNIT(*)
SI_UNIT($,.METRE.)
);
#250=PRODUCT_DEFINITION_SHAPE('','',#251);
#251=PRODUCT_DEFINITION('','',#253,#252);
#252=PRODUCT_DEFINITION_CONTEXT('',#259,'design');
#253=PRODUCT_DEFINITION_FORMATION_WITH_SPECIFIED_SOURCE('','',#255,
 .NOT_KNOWN.);
#254=PRODUCT_RELATED_PRODUCT_CATEGORY('','',(#255));
#255=PRODUCT('Prop Con V1','Prop Con V1','Prop Con V1',(#257));
#256=PRODUCT_CATEGORY('','');
#257=PRODUCT_CONTEXT('',#259,'mechanical');
#258=APPLICATION_PROTOCOL_DEFINITION('international standard',
'ap242_managed_model_based_3d_engineering',2020,#259);
#259=APPLICATION_CONTEXT('managed model based 3d engineering');
ENDSEC;
END-ISO-10303-21;
