ISO-10303-21;
HEADER;
/* Generated by software containing ST-Developer
 * from STEP Tools, Inc. (www.steptools.com) 
 */
/* OPTION: using custom renumber hook */

FILE_DESCRIPTION(
/* description */ ('STEP AP242 Edition 2',
'CAx-IF Rec.Pracs.---Representation and Presentation of Product Manufa
cturing Information (PMI)---4.0---2014-10-13',
'CAx-IF Rec.Pracs.---3D Tessellated Geometry---0.4---2014-09-14','2;1',
'CAx-IF Rec.Pracs.---User Defined Attributes---1.5---2016-08-15'),
/* implementation_level */ '2;1');

FILE_NAME(
/* name */ 'Prop - Prop Fin V1',
/* time_stamp */ '2026-08-23T20:25:42Z',
/* author */ (''),
/* organization */ (''),
/* preprocessor_version */ 'ST-DEVELOPER v20',
/* originating_system */ 'ONSHAPE BY PTC INC, 1.219',
/* authorisation */ '  ');

FILE_SCHEMA (('AP242_MANAGED_MODEL_BASED_3D_ENGINEERING_MIM_LF { 1 0 10303 442 3 1 4 }'));
ENDSEC;

DATA;
#10=SHAPE_REPRESENTATION_RELATIONSHIP('','',#111,#11);
#11=ADVANCED_BREP_SHAPE_REPRESENTATION('',(#109),#209);
#12=PLANE('',#113);
#13=PLANE('',#114);
#14=LINE('',#149,#22);
#15=LINE('',#157,#23);
#16=LINE('',#166,#24);
#17=LINE('',#168,#25);
#18=LINE('',#170,#26);
#19=LINE('',#189,#27);
#20=LINE('',#204,#28);
#21=LINE('',#205,#29);
#22=VECTOR('',#117,1.);
#23=VECTOR('',#118,1.);
#24=VECTOR('',#119,1.);
#25=VECTOR('',#120,1.);
#26=VECTOR('',#121,1.);
#27=VECTOR('',#122,1.);
#28=VECTOR('',#123,1.);
#29=VECTOR('',#124,1.);
#30=ORIENTED_EDGE('',*,*,#54,.F.);
#31=ORIENTED_EDGE('',*,*,#55,.F.);
#32=ORIENTED_EDGE('',*,*,#56,.T.);
#33=ORIENTED_EDGE('',*,*,#57,.T.);
#34=ORIENTED_EDGE('',*,*,#55,.T.);
#35=ORIENTED_EDGE('',*,*,#58,.F.);
#36=ORIENTED_EDGE('',*,*,#59,.F.);
#37=ORIENTED_EDGE('',*,*,#60,.T.);
#38=ORIENTED_EDGE('',*,*,#59,.T.);
#39=ORIENTED_EDGE('',*,*,#61,.F.);
#40=ORIENTED_EDGE('',*,*,#62,.F.);
#41=ORIENTED_EDGE('',*,*,#63,.T.);
#42=ORIENTED_EDGE('',*,*,#62,.T.);
#43=ORIENTED_EDGE('',*,*,#64,.F.);
#44=ORIENTED_EDGE('',*,*,#57,.F.);
#45=ORIENTED_EDGE('',*,*,#65,.T.);
#46=ORIENTED_EDGE('',*,*,#64,.T.);
#47=ORIENTED_EDGE('',*,*,#61,.T.);
#48=ORIENTED_EDGE('',*,*,#58,.T.);
#49=ORIENTED_EDGE('',*,*,#54,.T.);
#50=ORIENTED_EDGE('',*,*,#65,.F.);
#51=ORIENTED_EDGE('',*,*,#56,.F.);
#52=ORIENTED_EDGE('',*,*,#60,.F.);
#53=ORIENTED_EDGE('',*,*,#63,.F.);
#54=EDGE_CURVE('',#66,#67,#74,.F.);
#55=EDGE_CURVE('',#68,#66,#14,.T.);
#56=EDGE_CURVE('',#68,#69,#75,.F.);
#57=EDGE_CURVE('',#69,#67,#15,.T.);
#58=EDGE_CURVE('',#70,#66,#16,.F.);
#59=EDGE_CURVE('',#71,#70,#17,.T.);
#60=EDGE_CURVE('',#71,#68,#18,.F.);
#61=EDGE_CURVE('',#72,#70,#76,.T.);
#62=EDGE_CURVE('',#73,#72,#19,.T.);
#63=EDGE_CURVE('',#73,#71,#77,.T.);
#64=EDGE_CURVE('',#67,#72,#20,.F.);
#65=EDGE_CURVE('',#69,#73,#21,.F.);
#66=VERTEX_POINT('',#147);
#67=VERTEX_POINT('',#148);
#68=VERTEX_POINT('',#150);
#69=VERTEX_POINT('',#156);
#70=VERTEX_POINT('',#167);
#71=VERTEX_POINT('',#169);
#72=VERTEX_POINT('',#188);
#73=VERTEX_POINT('',#190);
#74=B_SPLINE_CURVE_WITH_KNOTS('',3,(#142,#143,#144,#145,#146),
 .UNSPECIFIED.,.F.,.F.,(4,1,4),(0.,0.5,1.),.QUASI_UNIFORM_KNOTS.);
#75=B_SPLINE_CURVE_WITH_KNOTS('',3,(#151,#152,#153,#154,#155),
 .UNSPECIFIED.,.F.,.F.,(4,1,4),(0.,0.5,1.),.QUASI_UNIFORM_KNOTS.);
#76=B_SPLINE_CURVE_WITH_KNOTS('',3,(#183,#184,#185,#186,#187),
 .UNSPECIFIED.,.F.,.F.,(4,1,4),(0.,0.500002019431876,1.),.UNSPECIFIED.);
#77=B_SPLINE_CURVE_WITH_KNOTS('',3,(#191,#192,#193,#194,#195),
 .UNSPECIFIED.,.F.,.F.,(4,1,4),(0.,0.500002019431876,1.),.UNSPECIFIED.);
#78=EDGE_LOOP('',(#30,#31,#32,#33));
#79=EDGE_LOOP('',(#34,#35,#36,#37));
#80=EDGE_LOOP('',(#38,#39,#40,#41));
#81=EDGE_LOOP('',(#42,#43,#44,#45));
#82=EDGE_LOOP('',(#46,#47,#48,#49));
#83=EDGE_LOOP('',(#50,#51,#52,#53));
#84=FACE_BOUND('',#78,.T.);
#85=FACE_BOUND('',#79,.T.);
#86=FACE_BOUND('',#80,.T.);
#87=FACE_BOUND('',#81,.T.);
#88=FACE_BOUND('',#82,.T.);
#89=FACE_BOUND('',#83,.T.);
#90=B_SPLINE_SURFACE_WITH_KNOTS('',3,1,((#130,#131),(#132,#133),(#134,#135),
(#136,#137),(#138,#139),(#140,#141)),.RULED_SURF.,.F.,.F.,.F.,(4,2,4),(2,
2),(0.,0.5,1.),(0.,1.),.UNSPECIFIED.);
#91=B_SPLINE_SURFACE_WITH_KNOTS('',3,1,((#158,#159),(#160,#161),(#162,#163),
(#164,#165)),.RULED_SURF.,.F.,.F.,.F.,(4,4),(2,2),(0.,1.),(0.,1.),
 .PIECEWISE_BEZIER_KNOTS.);
#92=B_SPLINE_SURFACE_WITH_KNOTS('',3,1,((#171,#172),(#173,#174),(#175,#176),
(#177,#178),(#179,#180),(#181,#182)),.RULED_SURF.,.F.,.F.,.F.,(4,2,4),(2,
2),(0.,0.5,1.),(0.,1.),.UNSPECIFIED.);
#93=B_SPLINE_SURFACE_WITH_KNOTS('',3,1,((#196,#197),(#198,#199),(#200,#201),
(#202,#203)),.RULED_SURF.,.F.,.F.,.F.,(4,4),(2,2),(0.,1.),(0.,1.),
 .PIECEWISE_BEZIER_KNOTS.);
#94=ADVANCED_FACE('',(#84),#90,.T.);
#95=ADVANCED_FACE('',(#85),#91,.T.);
#96=ADVANCED_FACE('',(#86),#92,.T.);
#97=ADVANCED_FACE('',(#87),#93,.T.);
#98=ADVANCED_FACE('',(#88),#12,.T.);
#99=ADVANCED_FACE('',(#89),#13,.F.);
#100=CLOSED_SHELL('',(#94,#95,#96,#97,#98,#99));
#101=STYLED_ITEM('',(#102),#109);
#102=PRESENTATION_STYLE_ASSIGNMENT((#103));
#103=SURFACE_STYLE_USAGE(.BOTH.,#104);
#104=SURFACE_SIDE_STYLE('',(#105));
#105=SURFACE_STYLE_FILL_AREA(#106);
#106=FILL_AREA_STYLE('',(#107));
#107=FILL_AREA_STYLE_COLOUR('',#108);
#108=COLOUR_RGB('',0.615686274509804,0.811764705882353,0.929411764705882);
#109=MANIFOLD_SOLID_BREP('Prop Fin V1',#100);
#110=SHAPE_DEFINITION_REPRESENTATION(#214,#111);
#111=SHAPE_REPRESENTATION('Prop Fin V1',(#112),#209);
#112=AXIS2_PLACEMENT_3D('',#129,#115,#116);
#113=AXIS2_PLACEMENT_3D('',#206,#125,#126);
#114=AXIS2_PLACEMENT_3D('',#207,#127,#128);
#115=DIRECTION('',(0.,0.,1.));
#116=DIRECTION('',(1.,0.,0.));
#117=DIRECTION('',(0.169047291648667,-0.0275098140341799,0.98522394576972));
#118=DIRECTION('',(-0.0715405593452607,0.123680303380887,0.989739930953672));
#119=DIRECTION('',(0.918922602180189,-0.394437892706052,0.));
#120=DIRECTION('',(0.166550022830695,-0.0381838131515237,0.985293401128976));
#121=DIRECTION('',(0.998410492938507,-0.0563603370313542,0.));
#122=DIRECTION('',(-0.0729235908650287,0.112893358910755,0.990927464252151));
#123=DIRECTION('',(-0.957495670172385,0.28844764100463,0.));
#124=DIRECTION('',(-0.998406519213803,-0.0564306866109087,0.));
#125=DIRECTION('',(0.,0.,1.));
#126=DIRECTION('',(1.,0.,0.));
#127=DIRECTION('',(0.,0.,1.));
#128=DIRECTION('',(1.,0.,0.));
#129=CARTESIAN_POINT('',(0.,0.,0.));
#130=CARTESIAN_POINT('',(0.00623188134355401,0.0688574012720986,0.));
#131=CARTESIAN_POINT('',(0.0130951855648738,0.067740505396707,0.04));
#132=CARTESIAN_POINT('',(0.00623188134355401,0.0650435735942507,0.));
#133=CARTESIAN_POINT('',(0.0117907796758769,0.0641566796708843,0.04));
#134=CARTESIAN_POINT('',(0.00305348812221564,0.0592729812635713,0.));
#135=CARTESIAN_POINT('',(0.00683040820381627,0.0598211711452886,0.04));
#136=CARTESIAN_POINT('',(-0.00305348812221564,0.0477236063770354,0.));
#137=CARTESIAN_POINT('',(-0.00285839116240553,0.0510570176801275,0.04));
#138=CARTESIAN_POINT('',(-0.00598207114530856,0.0419448238211789,0.));
#139=CARTESIAN_POINT('',(-0.00758681905656673,0.0466283727405623,0.04));
#140=CARTESIAN_POINT('',(-0.00623188134355401,0.0381391863685081,0.));
#141=CARTESIAN_POINT('',(-0.00912316852346307,0.0431376834287091,0.04));
#142=CARTESIAN_POINT('',(-0.00912316852346307,0.0431376834287091,0.04));
#143=CARTESIAN_POINT('',(-0.00758681905656674,0.0466283727405622,0.04));
#144=CARTESIAN_POINT('',(0.00187003673175567,0.0554856626196928,0.04));
#145=CARTESIAN_POINT('',(0.0117907796758769,0.0641566796708843,0.04));
#146=CARTESIAN_POINT('',(0.0130951855648738,0.067740505396707,0.04));
#147=CARTESIAN_POINT('',(0.0130951855648738,0.067740505396707,0.04));
#148=CARTESIAN_POINT('',(-0.00912316852346307,0.0431376834287091,0.04));
#149=CARTESIAN_POINT('',(0.00966353345421391,0.0682989533344028,0.02));
#150=CARTESIAN_POINT('',(0.00623188134355401,0.0688574012720986,0.));
#151=CARTESIAN_POINT('',(-0.00623188134355401,0.0381391863685081,0.));
#152=CARTESIAN_POINT('',(-0.00598207114530856,0.0419448238211789,0.));
#153=CARTESIAN_POINT('',(-0.000124905099122723,0.0535023889328918,0.));
#154=CARTESIAN_POINT('',(0.00623188134355401,0.0650435735942507,0.));
#155=CARTESIAN_POINT('',(0.00623188134355401,0.0688574012720986,0.));
#156=CARTESIAN_POINT('',(-0.00623188134355401,0.0381391863685081,0.));
#157=CARTESIAN_POINT('',(-0.00767752493350854,0.0406384348986085,0.02));
#158=CARTESIAN_POINT('',(0.0075113671202038,0.0687851742170858,0.));
#159=CARTESIAN_POINT('',(0.0142728057998847,0.0672350242573775,0.04));
#160=CARTESIAN_POINT('',(0.00708487186132053,0.06880924990209,0.));
#161=CARTESIAN_POINT('',(0.0138802657215477,0.0674035179704873,0.04));
#162=CARTESIAN_POINT('',(0.00665837660243727,0.0688333255870943,0.));
#163=CARTESIAN_POINT('',(0.0134877256432107,0.0675720116835972,0.04));
#164=CARTESIAN_POINT('',(0.00623188134355401,0.0688574012720986,0.));
#165=CARTESIAN_POINT('',(0.0130951855648738,0.067740505396707,0.04));
#166=CARTESIAN_POINT('',(0.0136839956823792,0.0674877648270423,0.04));
#167=CARTESIAN_POINT('',(0.0142728057998847,0.0672350242573775,0.04));
#168=CARTESIAN_POINT('',(0.0108920864600442,0.0680100992372316,0.02));
#169=CARTESIAN_POINT('',(0.0075113671202038,0.0687851742170858,-1.7347234759768E-18));
#170=CARTESIAN_POINT('',(0.0068716242318789,0.0688212877445922,0.));
#171=CARTESIAN_POINT('',(-0.00495399572990612,0.0382114134235208,0.));
#172=CARTESIAN_POINT('',(-0.00789764573440221,0.042768492038592,0.04));
#173=CARTESIAN_POINT('',(-0.00469659238302642,0.0420146086355039,0.));
#174=CARTESIAN_POINT('',(-0.00635499633727584,0.0462542893851085,0.04));
#175=CARTESIAN_POINT('',(-0.00177298716900359,0.0477585645249174,0.));
#176=CARTESIAN_POINT('',(-0.00164315747501385,0.0506519104741823,0.04));
#177=CARTESIAN_POINT('',(0.00433099102575297,0.0592378840254674,0.));
#178=CARTESIAN_POINT('',(0.00801886429289624,0.0593512588034656,0.04));
#179=CARTESIAN_POINT('',(0.0075113671202038,0.0649732475319329,0.));
#180=CARTESIAN_POINT('',(0.0129690500886817,0.0636529848803624,0.04));
#181=CARTESIAN_POINT('',(0.0075113671202038,0.0687851742170858,0.));
#182=CARTESIAN_POINT('',(0.0142728057998847,0.0672350242573775,0.04));
#183=CARTESIAN_POINT('',(-0.00789764573440221,0.042768492038592,0.04));
#184=CARTESIAN_POINT('',(-0.00635499010672511,0.046254303463769,0.04));
#185=CARTESIAN_POINT('',(0.00306871321764779,0.0550495530073805,0.04));
#186=CARTESIAN_POINT('',(0.0129690553543733,0.0636529993477311,0.04));
#187=CARTESIAN_POINT('',(0.0142728057998847,0.0672350242573775,0.04));
#188=CARTESIAN_POINT('',(-0.00789764573440221,0.042768492038592,0.04));
#189=CARTESIAN_POINT('',(-0.00642582073215416,0.0404899527310564,0.02));
#190=CARTESIAN_POINT('',(-0.00495399572990612,0.0382114134235208,0.));
#191=CARTESIAN_POINT('',(-0.00495399572990612,0.0382114134235208,0.));
#192=CARTESIAN_POINT('',(-0.00469659134340937,0.0420146239960911,0.));
#193=CARTESIAN_POINT('',(0.00115064062148844,0.0535025514518541,0.));
#194=CARTESIAN_POINT('',(0.0075113671202038,0.0649732629277851,0.));
#195=CARTESIAN_POINT('',(0.0075113671202038,0.0687851742170858,0.));
#196=CARTESIAN_POINT('',(-0.00623188134355401,0.0381391863685081,0.));
#197=CARTESIAN_POINT('',(-0.00912316852346307,0.0431376834287091,0.04));
#198=CARTESIAN_POINT('',(-0.00580591947233805,0.0381632620535123,0.));
#199=CARTESIAN_POINT('',(-0.00871466092710945,0.0430146196320034,0.04));
#200=CARTESIAN_POINT('',(-0.00537995760112208,0.0381873377385165,0.));
#201=CARTESIAN_POINT('',(-0.00830615333075583,0.0428915558352977,0.04));
#202=CARTESIAN_POINT('',(-0.00495399572990612,0.0382114134235208,0.));
#203=CARTESIAN_POINT('',(-0.00789764573440221,0.042768492038592,0.04));
#204=CARTESIAN_POINT('',(-0.00851040712893264,0.0429530877336506,0.04));
#205=CARTESIAN_POINT('',(-0.00559293853673006,0.0381752998960145,0.));
#206=CARTESIAN_POINT('',(0.00257481863821081,0.0573859276679604,0.04));
#207=CARTESIAN_POINT('',(0.000639742888324895,0.0534982938203033,0.));
#208=MECHANICAL_DESIGN_GEOMETRIC_PRESENTATION_REPRESENTATION('',(#101),
#209);
#209=(
GEOMETRIC_REPRESENTATION_CONTEXT(3)
GLOBAL_UNCERTAINTY_ASSIGNED_CONTEXT((#210))
GLOBAL_UNIT_ASSIGNED_CONTEXT((#213,#212,#211))
REPRESENTATION_CONTEXT('Prop Fin V1','TOP_LEVEL_ASSEMBLY_PART')
);
#210=UNCERTAINTY_MEASURE_WITH_UNIT(LENGTH_MEASURE(1.E-8),#213,
'DISTANCE_ACCURACY_VALUE','Maximum Tolerance applied to model');
#211=(
NAMED_UNIT(*)
SI_UNIT($,.STERADIAN.)
SOLID_ANGLE_UNIT()
);
#212=(
NAMED_UNIT(*)
PLANE_ANGLE_UNIT()
SI_UNIT($,.RADIAN.)
);
#213=(
LENGTH_UNIT()
NAMED_UNIT(*)
SI_UNIT($,.METRE.)
);
#214=PRODUCT_DEFINITION_SHAPE('','',#215);
#215=PRODUCT_DEFINITION('','',#217,#216);
#216=PRODUCT_DEFINITION_CONTEXT('',#223,'design');
#217=PRODUCT_DEFINITION_FORMATION_WITH_SPECIFIED_SOURCE('','',#219,
 .NOT_KNOWN.);
#218=PRODUCT_RELATED_PRODUCT_CATEGORY('','',(#219));
#219=PRODUCT('Prop Fin V1','Prop Fin V1','Prop Fin V1',(#221));
#220=PRODUCT_CATEGORY('','');
#221=PRODUCT_CONTEXT('',#223,'mechanical');
#222=APPLICATION_PROTOCOL_DEFINITION('international standard',
'ap242_managed_model_based_3d_engineering',2020,#223);
#223=APPLICATION_CONTEXT('managed model based 3d engineering');
ENDSEC;
END-ISO-10303-21;
