ISO-10303-21;
HEADER;
/* Generated by software containing ST-Developer
 * from STEP Tools, Inc. (www.steptools.com) 
 */
/* OPTION: using custom renumber hook */

FILE_DESCRIPTION(
/* description */ ('STEP AP242 Edition 2',
'CAx-IF Rec.Pracs.---Representation and Presentation of Product Manufa
cturing Information (PMI)---4.0---2014-10-13',
'CAx-IF Rec.Pracs.---3D Tessellated Geometry---0.4---2014-09-14','2;1',
'CAx-IF Rec.Pracs.---User Defined Attributes---1.5---2016-08-15'),
/* implementation_level */ '2;1');

FILE_NAME(
/* name */ 'PVC Electronics Bay - 4in Cap',
/* time_stamp */ '2026-08-23T20:29:20Z',
/* author */ (''),
/* organization */ (''),
/* preprocessor_version */ 'ST-DEVELOPER v20',
/* originating_system */ 'ONSHAPE BY PTC INC, 1.219',
/* authorisation */ '  ');

FILE_SCHEMA (('AP242_MANAGED_MODEL_BASED_3D_ENGINEERING_MIM_LF { 1 0 10303 442 3 1 4 }'));
ENDSEC;

DATA;
#10=SHAPE_REPRESENTATION_RELATIONSHIP('','',#135,#11);
#11=ADVANCED_BREP_SHAPE_REPRESENTATION('',(#133),#235);
#12=CYLINDRICAL_SURFACE('',#140,0.0508);
#13=CYLINDRICAL_SURFACE('',#144,0.0470986002223846);
#14=CYLINDRICAL_SURFACE('',#148,0.0508);
#15=CYLINDRICAL_SURFACE('',#152,0.0461652204394341);
#16=CYLINDRICAL_SURFACE('',#157,0.0564325619926828);
#17=ORIENTED_EDGE('',*,*,#37,.F.);
#18=ORIENTED_EDGE('',*,*,#38,.T.);
#19=ORIENTED_EDGE('',*,*,#39,.T.);
#20=ORIENTED_EDGE('',*,*,#38,.F.);
#21=ORIENTED_EDGE('',*,*,#40,.T.);
#22=ORIENTED_EDGE('',*,*,#39,.F.);
#23=ORIENTED_EDGE('',*,*,#41,.T.);
#24=ORIENTED_EDGE('',*,*,#40,.F.);
#25=ORIENTED_EDGE('',*,*,#42,.T.);
#26=ORIENTED_EDGE('',*,*,#41,.F.);
#27=ORIENTED_EDGE('',*,*,#43,.T.);
#28=ORIENTED_EDGE('',*,*,#42,.F.);
#29=ORIENTED_EDGE('',*,*,#43,.F.);
#30=ORIENTED_EDGE('',*,*,#44,.T.);
#31=ORIENTED_EDGE('',*,*,#44,.F.);
#32=ORIENTED_EDGE('',*,*,#45,.T.);
#33=ORIENTED_EDGE('',*,*,#45,.F.);
#34=ORIENTED_EDGE('',*,*,#46,.T.);
#35=ORIENTED_EDGE('',*,*,#46,.F.);
#36=ORIENTED_EDGE('',*,*,#37,.T.);
#37=EDGE_CURVE('',#47,#47,#57,.T.);
#38=EDGE_CURVE('',#48,#48,#58,.T.);
#39=EDGE_CURVE('',#49,#49,#59,.T.);
#40=EDGE_CURVE('',#50,#50,#60,.T.);
#41=EDGE_CURVE('',#51,#51,#61,.T.);
#42=EDGE_CURVE('',#52,#52,#62,.T.);
#43=EDGE_CURVE('',#53,#53,#63,.T.);
#44=EDGE_CURVE('',#54,#54,#64,.T.);
#45=EDGE_CURVE('',#55,#55,#65,.T.);
#46=EDGE_CURVE('',#56,#56,#66,.T.);
#47=VERTEX_POINT('',#205);
#48=VERTEX_POINT('',#207);
#49=VERTEX_POINT('',#210);
#50=VERTEX_POINT('',#213);
#51=VERTEX_POINT('',#216);
#52=VERTEX_POINT('',#219);
#53=VERTEX_POINT('',#222);
#54=VERTEX_POINT('',#225);
#55=VERTEX_POINT('',#228);
#56=VERTEX_POINT('',#232);
#57=CIRCLE('',#138,0.0564325619926828);
#58=CIRCLE('',#139,0.0508);
#59=CIRCLE('',#141,0.0508);
#60=CIRCLE('',#143,0.0470986002223846);
#61=CIRCLE('',#145,0.0470986002223846);
#62=CIRCLE('',#147,0.0508);
#63=CIRCLE('',#149,0.0508);
#64=CIRCLE('',#151,0.0461652204394341);
#65=CIRCLE('',#153,0.0461652204394341);
#66=CIRCLE('',#156,0.0564325619926828);
#67=EDGE_LOOP('',(#17));
#68=EDGE_LOOP('',(#18));
#69=EDGE_LOOP('',(#19));
#70=EDGE_LOOP('',(#20));
#71=EDGE_LOOP('',(#21));
#72=EDGE_LOOP('',(#22));
#73=EDGE_LOOP('',(#23));
#74=EDGE_LOOP('',(#24));
#75=EDGE_LOOP('',(#25));
#76=EDGE_LOOP('',(#26));
#77=EDGE_LOOP('',(#27));
#78=EDGE_LOOP('',(#28));
#79=EDGE_LOOP('',(#29));
#80=EDGE_LOOP('',(#30));
#81=EDGE_LOOP('',(#31));
#82=EDGE_LOOP('',(#32));
#83=EDGE_LOOP('',(#33));
#84=EDGE_LOOP('',(#34));
#85=EDGE_LOOP('',(#35));
#86=EDGE_LOOP('',(#36));
#87=FACE_BOUND('',#67,.T.);
#88=FACE_BOUND('',#68,.T.);
#89=FACE_BOUND('',#69,.T.);
#90=FACE_BOUND('',#70,.T.);
#91=FACE_BOUND('',#71,.T.);
#92=FACE_BOUND('',#72,.T.);
#93=FACE_BOUND('',#73,.T.);
#94=FACE_BOUND('',#74,.T.);
#95=FACE_BOUND('',#75,.T.);
#96=FACE_BOUND('',#76,.T.);
#97=FACE_BOUND('',#77,.T.);
#98=FACE_BOUND('',#78,.T.);
#99=FACE_BOUND('',#79,.T.);
#100=FACE_BOUND('',#80,.T.);
#101=FACE_BOUND('',#81,.T.);
#102=FACE_BOUND('',#82,.T.);
#103=FACE_BOUND('',#83,.T.);
#104=FACE_BOUND('',#84,.T.);
#105=FACE_BOUND('',#85,.T.);
#106=FACE_BOUND('',#86,.T.);
#107=PLANE('',#137);
#108=PLANE('',#142);
#109=PLANE('',#146);
#110=PLANE('',#150);
#111=PLANE('',#154);
#112=PLANE('',#155);
#113=ADVANCED_FACE('',(#87,#88),#107,.F.);
#114=ADVANCED_FACE('',(#89,#90),#12,.T.);
#115=ADVANCED_FACE('',(#91,#92),#108,.T.);
#116=ADVANCED_FACE('',(#93,#94),#13,.T.);
#117=ADVANCED_FACE('',(#95,#96),#109,.T.);
#118=ADVANCED_FACE('',(#97,#98),#14,.T.);
#119=ADVANCED_FACE('',(#99,#100),#110,.F.);
#120=ADVANCED_FACE('',(#101,#102),#15,.F.);
#121=ADVANCED_FACE('',(#103),#111,.F.);
#122=ADVANCED_FACE('',(#104),#112,.F.);
#123=ADVANCED_FACE('',(#105,#106),#16,.T.);
#124=CLOSED_SHELL('',(#113,#114,#115,#116,#117,#118,#119,#120,#121,#122,
#123));
#125=STYLED_ITEM('',(#126),#133);
#126=PRESENTATION_STYLE_ASSIGNMENT((#127));
#127=SURFACE_STYLE_USAGE(.BOTH.,#128);
#128=SURFACE_SIDE_STYLE('',(#129));
#129=SURFACE_STYLE_FILL_AREA(#130);
#130=FILL_AREA_STYLE('',(#131));
#131=FILL_AREA_STYLE_COLOUR('',#132);
#132=COLOUR_RGB('',0.647058823529412,0.647058823529412,0.647058823529412);
#133=MANIFOLD_SOLID_BREP('4in Cap',#124);
#134=SHAPE_DEFINITION_REPRESENTATION(#240,#135);
#135=SHAPE_REPRESENTATION('4in Cap',(#136),#235);
#136=AXIS2_PLACEMENT_3D('',#202,#158,#159);
#137=AXIS2_PLACEMENT_3D('',#203,#160,#161);
#138=AXIS2_PLACEMENT_3D('',#204,#162,#163);
#139=AXIS2_PLACEMENT_3D('',#206,#164,#165);
#140=AXIS2_PLACEMENT_3D('',#208,#166,#167);
#141=AXIS2_PLACEMENT_3D('',#209,#168,#169);
#142=AXIS2_PLACEMENT_3D('',#211,#170,#171);
#143=AXIS2_PLACEMENT_3D('',#212,#172,#173);
#144=AXIS2_PLACEMENT_3D('',#214,#174,#175);
#145=AXIS2_PLACEMENT_3D('',#215,#176,#177);
#146=AXIS2_PLACEMENT_3D('',#217,#178,#179);
#147=AXIS2_PLACEMENT_3D('',#218,#180,#181);
#148=AXIS2_PLACEMENT_3D('',#220,#182,#183);
#149=AXIS2_PLACEMENT_3D('',#221,#184,#185);
#150=AXIS2_PLACEMENT_3D('',#223,#186,#187);
#151=AXIS2_PLACEMENT_3D('',#224,#188,#189);
#152=AXIS2_PLACEMENT_3D('',#226,#190,#191);
#153=AXIS2_PLACEMENT_3D('',#227,#192,#193);
#154=AXIS2_PLACEMENT_3D('',#229,#194,#195);
#155=AXIS2_PLACEMENT_3D('',#230,#196,#197);
#156=AXIS2_PLACEMENT_3D('',#231,#198,#199);
#157=AXIS2_PLACEMENT_3D('',#233,#200,#201);
#158=DIRECTION('',(0.,0.,1.));
#159=DIRECTION('',(1.,0.,0.));
#160=DIRECTION('',(0.,1.,0.));
#161=DIRECTION('',(0.,0.,1.));
#162=DIRECTION('',(0.,1.,0.));
#163=DIRECTION('',(0.,0.,1.));
#164=DIRECTION('',(0.,1.,0.));
#165=DIRECTION('',(0.,0.,1.));
#166=DIRECTION('',(0.,1.,0.));
#167=DIRECTION('',(0.,0.,1.));
#168=DIRECTION('',(0.,1.,0.));
#169=DIRECTION('',(0.,0.,1.));
#170=DIRECTION('',(0.,-1.,0.));
#171=DIRECTION('',(0.,0.,-1.));
#172=DIRECTION('',(0.,1.,0.));
#173=DIRECTION('',(0.,0.,1.));
#174=DIRECTION('',(0.,1.,0.));
#175=DIRECTION('',(0.,0.,1.));
#176=DIRECTION('',(0.,1.,0.));
#177=DIRECTION('',(0.,0.,1.));
#178=DIRECTION('',(0.,1.,0.));
#179=DIRECTION('',(0.,0.,1.));
#180=DIRECTION('',(0.,1.,0.));
#181=DIRECTION('',(0.,0.,1.));
#182=DIRECTION('',(0.,1.,0.));
#183=DIRECTION('',(0.,0.,1.));
#184=DIRECTION('',(0.,1.,0.));
#185=DIRECTION('',(0.,0.,1.));
#186=DIRECTION('',(0.,1.,0.));
#187=DIRECTION('',(0.,0.,1.));
#188=DIRECTION('',(0.,1.,0.));
#189=DIRECTION('',(0.,0.,1.));
#190=DIRECTION('',(0.,1.,0.));
#191=DIRECTION('',(0.,0.,1.));
#192=DIRECTION('',(0.,1.,0.));
#193=DIRECTION('',(0.,0.,1.));
#194=DIRECTION('',(0.,1.,0.));
#195=DIRECTION('',(0.,0.,1.));
#196=DIRECTION('',(0.,-1.,0.));
#197=DIRECTION('',(0.,0.,-1.));
#198=DIRECTION('',(0.,1.,0.));
#199=DIRECTION('',(0.,0.,1.));
#200=DIRECTION('',(0.,1.,0.));
#201=DIRECTION('',(0.,0.,1.));
#202=CARTESIAN_POINT('',(0.,0.,0.));
#203=CARTESIAN_POINT('',(0.,0.,0.0536162809963414));
#204=CARTESIAN_POINT('',(0.,0.,0.));
#205=CARTESIAN_POINT('',(0.,0.,0.0564325619926828));
#206=CARTESIAN_POINT('',(0.,0.,0.));
#207=CARTESIAN_POINT('',(0.,0.,0.0508));
#208=CARTESIAN_POINT('',(0.,0.00824089078172449,0.));
#209=CARTESIAN_POINT('',(0.,-0.00672563615406109,0.));
#210=CARTESIAN_POINT('',(0.,-0.00672563615406109,0.0508));
#211=CARTESIAN_POINT('',(0.,-0.00672563615406109,0.0489493001111923));
#212=CARTESIAN_POINT('',(0.,-0.00672563615406109,0.));
#213=CARTESIAN_POINT('',(0.,-0.00672563615406109,0.0470986002223846));
#214=CARTESIAN_POINT('',(0.,0.00824089078172449,0.));
#215=CARTESIAN_POINT('',(0.,-0.0141284337567967,0.));
#216=CARTESIAN_POINT('',(0.,-0.0141284337567967,0.0470986002223846));
#217=CARTESIAN_POINT('',(0.,-0.0141284337567967,0.0489493001111923));
#218=CARTESIAN_POINT('',(0.,-0.0141284337567967,0.));
#219=CARTESIAN_POINT('',(0.,-0.0141284337567967,0.0508));
#220=CARTESIAN_POINT('',(0.,0.00824089078172449,0.));
#221=CARTESIAN_POINT('',(0.,-0.0205545220524073,0.));
#222=CARTESIAN_POINT('',(0.,-0.0205545220524073,0.0508));
#223=CARTESIAN_POINT('',(0.,-0.0205545220524073,0.048482610219717));
#224=CARTESIAN_POINT('',(0.,-0.0205545220524073,0.));
#225=CARTESIAN_POINT('',(0.,-0.0205545220524073,0.0461652204394341));
#226=CARTESIAN_POINT('',(0.,0.00824089078172449,0.));
#227=CARTESIAN_POINT('',(0.,0.00534414379819502,0.));
#228=CARTESIAN_POINT('',(0.,0.00534414379819502,0.0461652204394341));
#229=CARTESIAN_POINT('',(0.,0.00534414379819502,0.0230826102197171));
#230=CARTESIAN_POINT('',(0.,0.011137637765254,0.0282162809963414));
#231=CARTESIAN_POINT('',(0.,0.011137637765254,0.));
#232=CARTESIAN_POINT('',(0.,0.011137637765254,0.0564325619926828));
#233=CARTESIAN_POINT('',(0.,0.00824089078172449,0.));
#234=MECHANICAL_DESIGN_GEOMETRIC_PRESENTATION_REPRESENTATION('',(#125),
#235);
#235=(
GEOMETRIC_REPRESENTATION_CONTEXT(3)
GLOBAL_UNCERTAINTY_ASSIGNED_CONTEXT((#236))
GLOBAL_UNIT_ASSIGNED_CONTEXT((#239,#238,#237))
REPRESENTATION_CONTEXT('4in Cap','TOP_LEVEL_ASSEMBLY_PART')
);
#236=UNCERTAINTY_MEASURE_WITH_UNIT(LENGTH_MEASURE(1.E-8),#239,
'DISTANCE_ACCURACY_VALUE','Maximum Tolerance applied to model');
#237=(
NAMED_UNIT(*)
SI_UNIT($,.STERADIAN.)
SOLID_ANGLE_UNIT()
);
#238=(
NAMED_UNIT(*)
PLANE_ANGLE_UNIT()
SI_UNIT($,.RADIAN.)
);
#239=(
LENGTH_UNIT()
NAMED_UNIT(*)
SI_UNIT($,.METRE.)
);
#240=PRODUCT_DEFINITION_SHAPE('','',#241);
#241=PRODUCT_DEFINITION('','',#243,#242);
#242=PRODUCT_DEFINITION_CONTEXT('',#249,'design');
#243=PRODUCT_DEFINITION_FORMATION_WITH_SPECIFIED_SOURCE('','',#245,
 .NOT_KNOWN.);
#244=PRODUCT_RELATED_PRODUCT_CATEGORY('','',(#245));
#245=PRODUCT('4in Cap','4in Cap','4in Cap',(#247));
#246=PRODUCT_CATEGORY('','');
#247=PRODUCT_CONTEXT('',#249,'mechanical');
#248=APPLICATION_PROTOCOL_DEFINITION('international standard',
'ap242_managed_model_based_3d_engineering',2020,#249);
#249=APPLICATION_CONTEXT('managed model based 3d engineering');
ENDSEC;
END-ISO-10303-21;
