ISO-10303-21;
HEADER;
/* Generated by software containing ST-Developer
 * from STEP Tools, Inc. (www.steptools.com) 
 */
/* OPTION: using custom renumber hook */

FILE_DESCRIPTION(
/* description */ ('STEP AP242 Edition 2',
'CAx-IF Rec.Pracs.---Representation and Presentation of Product Manufa
cturing Information (PMI)---4.0---2014-10-13',
'CAx-IF Rec.Pracs.---3D Tessellated Geometry---0.4---2014-09-14','2;1',
'CAx-IF Rec.Pracs.---User Defined Attributes---1.5---2016-08-15'),
/* implementation_level */ '2;1');

FILE_NAME(
/* name */ 'PVC Pipe - PVC Hull',
/* time_stamp */ '2026-08-23T20:24:57Z',
/* author */ (''),
/* organization */ (''),
/* preprocessor_version */ 'ST-DEVELOPER v20',
/* originating_system */ 'ONSHAPE BY PTC INC, 1.219',
/* authorisation */ '  ');

FILE_SCHEMA (('AP242_MANAGED_MODEL_BASED_3D_ENGINEERING_MIM_LF { 1 0 10303 442 3 1 4 }'));
ENDSEC;

DATA;
#10=SHAPE_REPRESENTATION_RELATIONSHIP('','',#231,#11);
#11=ADVANCED_BREP_SHAPE_REPRESENTATION('',(#229),#453);
#12=PLANE('',#243);
#13=PLANE('',#244);
#14=PLANE('',#245);
#15=PLANE('',#246);
#16=PLANE('',#247);
#17=PLANE('',#248);
#18=LINE('',#337,#26);
#19=LINE('',#341,#27);
#20=LINE('',#376,#28);
#21=LINE('',#381,#29);
#22=LINE('',#441,#30);
#23=LINE('',#442,#31);
#24=LINE('',#444,#32);
#25=LINE('',#446,#33);
#26=VECTOR('',#259,1.);
#27=VECTOR('',#262,1.);
#28=VECTOR('',#269,1.);
#29=VECTOR('',#272,1.);
#30=VECTOR('',#285,1.);
#31=VECTOR('',#286,1.);
#32=VECTOR('',#289,1.);
#33=VECTOR('',#292,1.);
#34=CIRCLE('',#234,0.0511302);
#35=CIRCLE('',#235,0.0511302);
#36=CIRCLE('',#236,0.0511302);
#37=CIRCLE('',#237,0.0511302);
#38=CIRCLE('',#239,0.05715);
#39=CIRCLE('',#240,0.05715);
#40=CIRCLE('',#241,0.05715);
#41=CIRCLE('',#242,0.05715);
#42=ORIENTED_EDGE('',*,*,#90,.T.);
#43=ORIENTED_EDGE('',*,*,#91,.T.);
#44=ORIENTED_EDGE('',*,*,#92,.F.);
#45=ORIENTED_EDGE('',*,*,#93,.T.);
#46=ORIENTED_EDGE('',*,*,#94,.T.);
#47=ORIENTED_EDGE('',*,*,#95,.F.);
#48=ORIENTED_EDGE('',*,*,#96,.T.);
#49=ORIENTED_EDGE('',*,*,#97,.F.);
#50=ORIENTED_EDGE('',*,*,#98,.T.);
#51=ORIENTED_EDGE('',*,*,#99,.T.);
#52=ORIENTED_EDGE('',*,*,#100,.F.);
#53=ORIENTED_EDGE('',*,*,#101,.T.);
#54=ORIENTED_EDGE('',*,*,#102,.T.);
#55=ORIENTED_EDGE('',*,*,#103,.F.);
#56=ORIENTED_EDGE('',*,*,#104,.F.);
#57=ORIENTED_EDGE('',*,*,#105,.T.);
#58=ORIENTED_EDGE('',*,*,#106,.F.);
#59=ORIENTED_EDGE('',*,*,#107,.F.);
#60=ORIENTED_EDGE('',*,*,#108,.F.);
#61=ORIENTED_EDGE('',*,*,#109,.F.);
#62=ORIENTED_EDGE('',*,*,#96,.F.);
#63=ORIENTED_EDGE('',*,*,#104,.T.);
#64=ORIENTED_EDGE('',*,*,#97,.T.);
#65=ORIENTED_EDGE('',*,*,#105,.F.);
#66=ORIENTED_EDGE('',*,*,#92,.T.);
#67=ORIENTED_EDGE('',*,*,#110,.F.);
#68=ORIENTED_EDGE('',*,*,#101,.F.);
#69=ORIENTED_EDGE('',*,*,#111,.T.);
#70=ORIENTED_EDGE('',*,*,#111,.F.);
#71=ORIENTED_EDGE('',*,*,#100,.T.);
#72=ORIENTED_EDGE('',*,*,#112,.T.);
#73=ORIENTED_EDGE('',*,*,#93,.F.);
#74=ORIENTED_EDGE('',*,*,#112,.F.);
#75=ORIENTED_EDGE('',*,*,#103,.T.);
#76=ORIENTED_EDGE('',*,*,#113,.T.);
#77=ORIENTED_EDGE('',*,*,#94,.F.);
#78=ORIENTED_EDGE('',*,*,#95,.T.);
#79=ORIENTED_EDGE('',*,*,#113,.F.);
#80=ORIENTED_EDGE('',*,*,#102,.F.);
#81=ORIENTED_EDGE('',*,*,#110,.T.);
#82=ORIENTED_EDGE('',*,*,#91,.F.);
#83=ORIENTED_EDGE('',*,*,#106,.T.);
#84=ORIENTED_EDGE('',*,*,#98,.F.);
#85=ORIENTED_EDGE('',*,*,#107,.T.);
#86=ORIENTED_EDGE('',*,*,#90,.F.);
#87=ORIENTED_EDGE('',*,*,#108,.T.);
#88=ORIENTED_EDGE('',*,*,#99,.F.);
#89=ORIENTED_EDGE('',*,*,#109,.T.);
#90=EDGE_CURVE('',#114,#114,#134,.T.);
#91=EDGE_CURVE('',#115,#115,#135,.T.);
#92=EDGE_CURVE('',#116,#117,#34,.T.);
#93=EDGE_CURVE('',#116,#118,#18,.T.);
#94=EDGE_CURVE('',#118,#119,#35,.T.);
#95=EDGE_CURVE('',#117,#119,#19,.T.);
#96=EDGE_CURVE('',#120,#120,#36,.T.);
#97=EDGE_CURVE('',#121,#121,#37,.T.);
#98=EDGE_CURVE('',#122,#122,#136,.T.);
#99=EDGE_CURVE('',#123,#123,#137,.T.);
#100=EDGE_CURVE('',#124,#125,#20,.T.);
#101=EDGE_CURVE('',#124,#126,#38,.T.);
#102=EDGE_CURVE('',#126,#127,#21,.T.);
#103=EDGE_CURVE('',#125,#127,#39,.T.);
#104=EDGE_CURVE('',#128,#128,#40,.T.);
#105=EDGE_CURVE('',#129,#129,#41,.T.);
#106=EDGE_CURVE('',#130,#130,#138,.T.);
#107=EDGE_CURVE('',#131,#131,#139,.T.);
#108=EDGE_CURVE('',#132,#132,#140,.T.);
#109=EDGE_CURVE('',#133,#133,#141,.T.);
#110=EDGE_CURVE('',#126,#117,#22,.T.);
#111=EDGE_CURVE('',#124,#116,#23,.T.);
#112=EDGE_CURVE('',#125,#118,#24,.T.);
#113=EDGE_CURVE('',#127,#119,#25,.T.);
#114=VERTEX_POINT('',#319);
#115=VERTEX_POINT('',#333);
#116=VERTEX_POINT('',#335);
#117=VERTEX_POINT('',#336);
#118=VERTEX_POINT('',#338);
#119=VERTEX_POINT('',#340);
#120=VERTEX_POINT('',#343);
#121=VERTEX_POINT('',#345);
#122=VERTEX_POINT('',#359);
#123=VERTEX_POINT('',#374);
#124=VERTEX_POINT('',#377);
#125=VERTEX_POINT('',#378);
#126=VERTEX_POINT('',#380);
#127=VERTEX_POINT('',#382);
#128=VERTEX_POINT('',#385);
#129=VERTEX_POINT('',#387);
#130=VERTEX_POINT('',#400);
#131=VERTEX_POINT('',#413);
#132=VERTEX_POINT('',#425);
#133=VERTEX_POINT('',#437);
#134=B_SPLINE_CURVE_WITH_KNOTS('',3,(#305,#306,#307,#308,#309,#310,#311,
#312,#313,#314,#315,#316,#317,#318),.UNSPECIFIED.,.T.,.F.,(1,1,1,1,1,1,
1,1,1,1,1,1,1,1,1,1,1,1),(-0.0033073197055498,-0.0016536598527749,-0.000826829926387449,
0.,0.0016536598527749,0.0033073197055498,0.00496097955832469,0.00578780948471214,
0.00661463941109959,0.00744146933748704,0.00826829926387449,0.00992195911664939,
0.0115756189694243,0.0124024488958117,0.0132292788221992,0.0148829386749741,
0.016536598527749,0.0181902583805239),.UNSPECIFIED.);
#135=B_SPLINE_CURVE_WITH_KNOTS('',3,(#320,#321,#322,#323,#324,#325,#326,
#327,#328,#329,#330,#331,#332),.UNSPECIFIED.,.T.,.F.,(1,1,1,1,1,1,1,1,1,
1,1,1,1,1,1,1,1),(-0.00330764230410918,-0.00165382115205459,-0.000826910576027297,
0.,0.000826910576027296,0.00165382115205459,0.00330764230410918,0.00496146345616378,
0.00661528460821837,0.00826910576027296,0.00992292691232755,0.0115767480643821,
0.0124036586404094,0.0132305692164367,0.014057479792464,0.0148843903684913,
0.0165382115205459),.UNSPECIFIED.);
#136=B_SPLINE_CURVE_WITH_KNOTS('',3,(#346,#347,#348,#349,#350,#351,#352,
#353,#354,#355,#356,#357,#358),.UNSPECIFIED.,.T.,.F.,(1,1,1,1,1,1,1,1,1,
1,1,1,1,1,1,1,1),(-0.00330764230410918,-0.00165382115205459,-0.000826910576027294,
0.,0.000826910576027295,0.00165382115205459,0.00330764230410918,0.00496146345616377,
0.00661528460821836,0.00826910576027295,0.00992292691232754,0.0115767480643821,
0.0124036586404094,0.0132305692164367,0.014057479792464,0.0148843903684913,
0.0165382115205459),.UNSPECIFIED.);
#137=B_SPLINE_CURVE_WITH_KNOTS('',3,(#360,#361,#362,#363,#364,#365,#366,
#367,#368,#369,#370,#371,#372,#373),.UNSPECIFIED.,.T.,.F.,(1,1,1,1,1,1,
1,1,1,1,1,1,1,1,1,1,1,1),(-0.00330731970554984,-0.00165365985277492,-0.000826829926387459,
0.,0.00165365985277492,0.00330731970554983,0.00496097955832475,0.00578780948471221,
0.00661463941109967,0.00744146933748713,0.00826829926387459,0.0099219591166495,
0.0115756189694244,0.0124024488958119,0.0132292788221993,0.0148829386749743,
0.0165365985277492,0.0181902583805241),.UNSPECIFIED.);
#138=B_SPLINE_CURVE_WITH_KNOTS('',3,(#388,#389,#390,#391,#392,#393,#394,
#395,#396,#397,#398,#399),.UNSPECIFIED.,.T.,.F.,(1,1,1,1,1,1,1,1,1,1,1,
1,1,1,1,1),(-0.00326640012913421,-0.00163320006456711,-0.000816600032283553,
0.,0.00163320006456711,0.00326640012913421,0.00489960019370132,0.00653280025826842,
0.00816600032283553,0.00979920038740263,0.0114324004519697,0.0122490004842533,
0.0130656005165368,0.014698800581104,0.0163320006456711,0.0179652007102382),
 .UNSPECIFIED.);
#139=B_SPLINE_CURVE_WITH_KNOTS('',3,(#401,#402,#403,#404,#405,#406,#407,
#408,#409,#410,#411,#412),.UNSPECIFIED.,.T.,.F.,(1,1,1,1,1,1,1,1,1,1,1,
1,1,1,1,1),(-0.00326640012913415,-0.00163320006456708,-0.000816600032283538,
0.,0.00163320006456707,0.00326640012913415,0.00489960019370122,0.0065328002582683,
0.00816600032283537,0.00979920038740245,0.0114324004519695,0.0122490004842531,
0.0130656005165366,0.0146988005811037,0.0163320006456707,0.0179652007102378),
 .UNSPECIFIED.);
#140=B_SPLINE_CURVE_WITH_KNOTS('',3,(#414,#415,#416,#417,#418,#419,#420,
#421,#422,#423,#424),.UNSPECIFIED.,.T.,.F.,(1,1,1,1,1,1,1,1,1,1,1,1,1,1,
1),(-0.0048992844156487,-0.00326618961043246,-0.00163309480521623,0.,0.00163309480521623,
0.00326618961043246,0.00489928441564869,0.00653237922086493,0.00816547402608116,
0.00979856883129739,0.0114316636365136,0.0130647584417299,0.0146978532469461,
0.0163309480521623,0.0179640428573785),.UNSPECIFIED.);
#141=B_SPLINE_CURVE_WITH_KNOTS('',3,(#426,#427,#428,#429,#430,#431,#432,
#433,#434,#435,#436),.UNSPECIFIED.,.T.,.F.,(1,1,1,1,1,1,1,1,1,1,1,1,1,1,
1),(-0.0048992844156487,-0.00326618961043247,-0.00163309480521623,0.,0.00163309480521623,
0.00326618961043247,0.0048992844156487,0.00653237922086494,0.00816547402608117,
0.0097985688312974,0.0114316636365136,0.0130647584417299,0.0146978532469461,
0.0163309480521623,0.0179640428573786),.UNSPECIFIED.);
#142=EDGE_LOOP('',(#42));
#143=EDGE_LOOP('',(#43));
#144=EDGE_LOOP('',(#44,#45,#46,#47));
#145=EDGE_LOOP('',(#48));
#146=EDGE_LOOP('',(#49));
#147=EDGE_LOOP('',(#50));
#148=EDGE_LOOP('',(#51));
#149=EDGE_LOOP('',(#52,#53,#54,#55));
#150=EDGE_LOOP('',(#56));
#151=EDGE_LOOP('',(#57));
#152=EDGE_LOOP('',(#58));
#153=EDGE_LOOP('',(#59));
#154=EDGE_LOOP('',(#60));
#155=EDGE_LOOP('',(#61));
#156=EDGE_LOOP('',(#62));
#157=EDGE_LOOP('',(#63));
#158=EDGE_LOOP('',(#64));
#159=EDGE_LOOP('',(#65));
#160=EDGE_LOOP('',(#66,#67,#68,#69));
#161=EDGE_LOOP('',(#70,#71,#72,#73));
#162=EDGE_LOOP('',(#74,#75,#76,#77));
#163=EDGE_LOOP('',(#78,#79,#80,#81));
#164=EDGE_LOOP('',(#82));
#165=EDGE_LOOP('',(#83));
#166=EDGE_LOOP('',(#84));
#167=EDGE_LOOP('',(#85));
#168=EDGE_LOOP('',(#86));
#169=EDGE_LOOP('',(#87));
#170=EDGE_LOOP('',(#88));
#171=EDGE_LOOP('',(#89));
#172=FACE_BOUND('',#142,.T.);
#173=FACE_BOUND('',#143,.T.);
#174=FACE_BOUND('',#144,.T.);
#175=FACE_BOUND('',#145,.T.);
#176=FACE_BOUND('',#146,.T.);
#177=FACE_BOUND('',#147,.T.);
#178=FACE_BOUND('',#148,.T.);
#179=FACE_BOUND('',#149,.T.);
#180=FACE_BOUND('',#150,.T.);
#181=FACE_BOUND('',#151,.T.);
#182=FACE_BOUND('',#152,.T.);
#183=FACE_BOUND('',#153,.T.);
#184=FACE_BOUND('',#154,.T.);
#185=FACE_BOUND('',#155,.T.);
#186=FACE_BOUND('',#156,.T.);
#187=FACE_BOUND('',#157,.T.);
#188=FACE_BOUND('',#158,.T.);
#189=FACE_BOUND('',#159,.T.);
#190=FACE_BOUND('',#160,.T.);
#191=FACE_BOUND('',#161,.T.);
#192=FACE_BOUND('',#162,.T.);
#193=FACE_BOUND('',#163,.T.);
#194=FACE_BOUND('',#164,.T.);
#195=FACE_BOUND('',#165,.T.);
#196=FACE_BOUND('',#166,.T.);
#197=FACE_BOUND('',#167,.T.);
#198=FACE_BOUND('',#168,.T.);
#199=FACE_BOUND('',#169,.T.);
#200=FACE_BOUND('',#170,.T.);
#201=FACE_BOUND('',#171,.T.);
#202=CYLINDRICAL_SURFACE('',#233,0.0511302);
#203=CYLINDRICAL_SURFACE('',#238,0.05715);
#204=CYLINDRICAL_SURFACE('',#249,0.002);
#205=CYLINDRICAL_SURFACE('',#250,0.002);
#206=CYLINDRICAL_SURFACE('',#251,0.002);
#207=CYLINDRICAL_SURFACE('',#252,0.002);
#208=ADVANCED_FACE('',(#172,#173,#174,#175,#176,#177,#178),#202,.F.);
#209=ADVANCED_FACE('',(#179,#180,#181,#182,#183,#184,#185),#203,.T.);
#210=ADVANCED_FACE('',(#186,#187),#12,.T.);
#211=ADVANCED_FACE('',(#188,#189),#13,.F.);
#212=ADVANCED_FACE('',(#190),#14,.F.);
#213=ADVANCED_FACE('',(#191),#15,.T.);
#214=ADVANCED_FACE('',(#192),#16,.T.);
#215=ADVANCED_FACE('',(#193),#17,.F.);
#216=ADVANCED_FACE('',(#194,#195),#204,.F.);
#217=ADVANCED_FACE('',(#196,#197),#205,.F.);
#218=ADVANCED_FACE('',(#198,#199),#206,.F.);
#219=ADVANCED_FACE('',(#200,#201),#207,.F.);
#220=CLOSED_SHELL('',(#208,#209,#210,#211,#212,#213,#214,#215,#216,#217,
#218,#219));
#221=STYLED_ITEM('',(#222),#229);
#222=PRESENTATION_STYLE_ASSIGNMENT((#223));
#223=SURFACE_STYLE_USAGE(.BOTH.,#224);
#224=SURFACE_SIDE_STYLE('',(#225));
#225=SURFACE_STYLE_FILL_AREA(#226);
#226=FILL_AREA_STYLE('',(#227));
#227=FILL_AREA_STYLE_COLOUR('',#228);
#228=COLOUR_RGB('',0.615686274509804,0.811764705882353,0.929411764705882);
#229=MANIFOLD_SOLID_BREP('PVC Hull',#220);
#230=SHAPE_DEFINITION_REPRESENTATION(#458,#231);
#231=SHAPE_REPRESENTATION('PVC Hull',(#232),#453);
#232=AXIS2_PLACEMENT_3D('',#303,#253,#254);
#233=AXIS2_PLACEMENT_3D('',#304,#255,#256);
#234=AXIS2_PLACEMENT_3D('',#334,#257,#258);
#235=AXIS2_PLACEMENT_3D('',#339,#260,#261);
#236=AXIS2_PLACEMENT_3D('',#342,#263,#264);
#237=AXIS2_PLACEMENT_3D('',#344,#265,#266);
#238=AXIS2_PLACEMENT_3D('',#375,#267,#268);
#239=AXIS2_PLACEMENT_3D('',#379,#270,#271);
#240=AXIS2_PLACEMENT_3D('',#383,#273,#274);
#241=AXIS2_PLACEMENT_3D('',#384,#275,#276);
#242=AXIS2_PLACEMENT_3D('',#386,#277,#278);
#243=AXIS2_PLACEMENT_3D('',#438,#279,#280);
#244=AXIS2_PLACEMENT_3D('',#439,#281,#282);
#245=AXIS2_PLACEMENT_3D('',#440,#283,#284);
#246=AXIS2_PLACEMENT_3D('',#443,#287,#288);
#247=AXIS2_PLACEMENT_3D('',#445,#290,#291);
#248=AXIS2_PLACEMENT_3D('',#447,#293,#294);
#249=AXIS2_PLACEMENT_3D('',#448,#295,#296);
#250=AXIS2_PLACEMENT_3D('',#449,#297,#298);
#251=AXIS2_PLACEMENT_3D('',#450,#299,#300);
#252=AXIS2_PLACEMENT_3D('',#451,#301,#302);
#253=DIRECTION('',(0.,0.,1.));
#254=DIRECTION('',(1.,0.,0.));
#255=DIRECTION('',(0.,1.,0.));
#256=DIRECTION('',(0.,0.,1.));
#257=DIRECTION('',(0.,-1.,0.));
#258=DIRECTION('',(0.,0.,-1.));
#259=DIRECTION('',(0.,1.,0.));
#260=DIRECTION('',(0.,-1.,0.));
#261=DIRECTION('',(0.,0.,-1.));
#262=DIRECTION('',(0.,1.,0.));
#263=DIRECTION('',(0.,-1.,0.));
#264=DIRECTION('',(0.,0.,-1.));
#265=DIRECTION('',(0.,-1.,0.));
#266=DIRECTION('',(0.,0.,-1.));
#267=DIRECTION('',(0.,1.,0.));
#268=DIRECTION('',(0.,0.,1.));
#269=DIRECTION('',(0.,1.,0.));
#270=DIRECTION('',(0.,-1.,0.));
#271=DIRECTION('',(0.,0.,-1.));
#272=DIRECTION('',(0.,1.,0.));
#273=DIRECTION('',(0.,-1.,0.));
#274=DIRECTION('',(0.,0.,-1.));
#275=DIRECTION('',(0.,-1.,0.));
#276=DIRECTION('',(0.,0.,-1.));
#277=DIRECTION('',(0.,-1.,0.));
#278=DIRECTION('',(0.,0.,-1.));
#279=DIRECTION('',(0.,-1.,0.));
#280=DIRECTION('',(1.,0.,0.));
#281=DIRECTION('',(0.,-1.,0.));
#282=DIRECTION('',(1.,0.,0.));
#283=DIRECTION('',(0.,-1.,0.));
#284=DIRECTION('',(0.,0.,-1.));
#285=DIRECTION('',(0.,0.,-1.));
#286=DIRECTION('',(0.,0.,-1.));
#287=DIRECTION('',(-1.,0.,0.));
#288=DIRECTION('',(0.,0.,1.));
#289=DIRECTION('',(0.,0.,-1.));
#290=DIRECTION('',(0.,-1.,0.));
#291=DIRECTION('',(0.,0.,-1.));
#292=DIRECTION('',(0.,0.,-1.));
#293=DIRECTION('',(-1.,0.,0.));
#294=DIRECTION('',(0.,0.,1.));
#295=DIRECTION('',(0.,0.,-1.));
#296=DIRECTION('',(-1.,0.,0.));
#297=DIRECTION('',(0.,0.,-1.));
#298=DIRECTION('',(-1.,0.,0.));
#299=DIRECTION('',(0.,0.,-1.));
#300=DIRECTION('',(-1.,0.,0.));
#301=DIRECTION('',(0.,0.,-1.));
#302=DIRECTION('',(-1.,0.,0.));
#303=CARTESIAN_POINT('',(0.,0.,0.));
#304=CARTESIAN_POINT('',(0.,-0.9144,3.1308217884882E-18));
#305=CARTESIAN_POINT('',(0.0206197039137169,-0.664165875233195,0.0467885350032283));
#306=CARTESIAN_POINT('',(0.0203780599571223,-0.665281814103859,0.0468935453645381));
#307=CARTESIAN_POINT('',(0.0209989408173148,-0.666634296899296,0.0466253043426648));
#308=CARTESIAN_POINT('',(0.0225239587785278,-0.66718799524476,0.0459136436375877));
#309=CARTESIAN_POINT('',(0.0237497815205621,-0.666709154789756,0.0452831033836105));
#310=CARTESIAN_POINT('',(0.0243789226196247,-0.665835135658615,0.0449444924091375));
#311=CARTESIAN_POINT('',(0.0245593199579563,-0.665005539693023,0.0448456281193105));
#312=CARTESIAN_POINT('',(0.0243837540502645,-0.664175015892139,0.0449418523213083));
#313=CARTESIAN_POINT('',(0.0237546511388461,-0.663292269554202,0.0452806149956928));
#314=CARTESIAN_POINT('',(0.022520513292498,-0.66280994528212,0.0459151513238725));
#315=CARTESIAN_POINT('',(0.0212590891102932,-0.663278177958327,0.0465044085414729));
#316=CARTESIAN_POINT('',(0.0206197039137169,-0.664165875233195,0.0467885350032283));
#317=CARTESIAN_POINT('',(0.0203780599571223,-0.665281814103859,0.0468935453645381));
#318=CARTESIAN_POINT('',(0.0209989408173148,-0.666634296899296,0.0466253043426648));
#319=CARTESIAN_POINT('',(0.0205,-0.665,0.0468406591759766));
#320=CARTESIAN_POINT('',(-0.0243803213969009,-0.634167473436709,0.0449437284870596));
#321=CARTESIAN_POINT('',(-0.024559629055839,-0.635000586743404,0.0448454590391681));
#322=CARTESIAN_POINT('',(-0.0243811623797431,-0.635830179589676,0.0449432688172534));
#323=CARTESIAN_POINT('',(-0.023751903050698,-0.636709161208296,0.0452820245551719));
#324=CARTESIAN_POINT('',(-0.0225209642682155,-0.637186742172009,0.0459150535349512));
#325=CARTESIAN_POINT('',(-0.02100370103413,-0.636639080636832,0.046623238959824));
#326=CARTESIAN_POINT('',(-0.0202496587964043,-0.635004551740718,0.0469486804022184));
#327=CARTESIAN_POINT('',(-0.0209976822723642,-0.633363779206673,0.0466259863940154));
#328=CARTESIAN_POINT('',(-0.0225245898973531,-0.632811963366963,0.0459133438195127));
#329=CARTESIAN_POINT('',(-0.0237523027952917,-0.633292606073643,0.0452817820105486));
#330=CARTESIAN_POINT('',(-0.0243803213969009,-0.634167473436709,0.0449437284870596));
#331=CARTESIAN_POINT('',(-0.024559629055839,-0.635000586743404,0.0448454590391681));
#332=CARTESIAN_POINT('',(-0.0243811623797431,-0.635830179589676,0.0449432688172534));
#333=CARTESIAN_POINT('',(-0.0245,-0.635,0.0448781389101643));
#334=CARTESIAN_POINT('',(0.,-0.6775,3.1308217884882E-18));
#335=CARTESIAN_POINT('',(0.0175,-0.6775,0.0480421414181341));
#336=CARTESIAN_POINT('',(-0.0175,-0.6775,0.0480421414181342));
#337=CARTESIAN_POINT('',(0.0175,-0.9144,0.0480421414181341));
#338=CARTESIAN_POINT('',(0.0175,-0.6225,0.0480421414181341));
#339=CARTESIAN_POINT('',(0.,-0.6225,3.1308217884882E-18));
#340=CARTESIAN_POINT('',(-0.0175,-0.6225,0.0480421414181342));
#341=CARTESIAN_POINT('',(-0.0175,-0.9144,0.0480421414181342));
#342=CARTESIAN_POINT('',(0.,-0.9144,3.1308217884882E-18));
#343=CARTESIAN_POINT('',(0.,-0.9144,-0.0511302));
#344=CARTESIAN_POINT('',(0.,0.,3.1308217884882E-18));
#345=CARTESIAN_POINT('',(0.,0.,-0.0511302));
#346=CARTESIAN_POINT('',(-0.0243803213969009,-0.664167473436709,0.0449437284870596));
#347=CARTESIAN_POINT('',(-0.024559629055839,-0.665000586743404,0.0448454590391681));
#348=CARTESIAN_POINT('',(-0.0243811623797431,-0.665830179589676,0.0449432688172534));
#349=CARTESIAN_POINT('',(-0.023751903050698,-0.666709161208296,0.0452820245551719));
#350=CARTESIAN_POINT('',(-0.0225209642682155,-0.667186742172009,0.0459150535349512));
#351=CARTESIAN_POINT('',(-0.02100370103413,-0.666639080636832,0.046623238959824));
#352=CARTESIAN_POINT('',(-0.0202496587964043,-0.665004551740718,0.0469486804022184));
#353=CARTESIAN_POINT('',(-0.0209976822723641,-0.663363779206673,0.0466259863940154));
#354=CARTESIAN_POINT('',(-0.0225245898973531,-0.662811963366963,0.0459133438195127));
#355=CARTESIAN_POINT('',(-0.0237523027952918,-0.663292606073643,0.0452817820105486));
#356=CARTESIAN_POINT('',(-0.0243803213969009,-0.664167473436709,0.0449437284870596));
#357=CARTESIAN_POINT('',(-0.024559629055839,-0.665000586743404,0.0448454590391681));
#358=CARTESIAN_POINT('',(-0.0243811623797431,-0.665830179589676,0.0449432688172534));
#359=CARTESIAN_POINT('',(-0.0245,-0.665,0.0448781389101643));
#360=CARTESIAN_POINT('',(0.0206197039137169,-0.634165875233195,0.0467885350032283));
#361=CARTESIAN_POINT('',(0.0203780599571223,-0.635281814103859,0.0468935453645381));
#362=CARTESIAN_POINT('',(0.0209989408173148,-0.636634296899296,0.0466253043426648));
#363=CARTESIAN_POINT('',(0.0225239587785279,-0.63718799524476,0.0459136436375877));
#364=CARTESIAN_POINT('',(0.0237497815205622,-0.636709154789756,0.0452831033836104));
#365=CARTESIAN_POINT('',(0.0243789226196247,-0.635835135658615,0.0449444924091375));
#366=CARTESIAN_POINT('',(0.0245593199579563,-0.635005539693023,0.0448456281193105));
#367=CARTESIAN_POINT('',(0.0243837540502645,-0.634175015892139,0.0449418523213084));
#368=CARTESIAN_POINT('',(0.0237546511388461,-0.633292269554201,0.0452806149956928));
#369=CARTESIAN_POINT('',(0.0225205132924979,-0.63280994528212,0.0459151513238726));
#370=CARTESIAN_POINT('',(0.0212590891102932,-0.633278177958327,0.0465044085414729));
#371=CARTESIAN_POINT('',(0.0206197039137169,-0.634165875233195,0.0467885350032283));
#372=CARTESIAN_POINT('',(0.0203780599571223,-0.635281814103859,0.0468935453645381));
#373=CARTESIAN_POINT('',(0.0209989408173148,-0.636634296899296,0.0466253043426648));
#374=CARTESIAN_POINT('',(0.0205,-0.635,0.0468406591759766));
#375=CARTESIAN_POINT('',(0.,-0.9144,3.49942822856356E-18));
#376=CARTESIAN_POINT('',(0.0175,-0.9144,0.0544047102740195));
#377=CARTESIAN_POINT('',(0.0175,-0.6775,0.0544047102740195));
#378=CARTESIAN_POINT('',(0.0175,-0.6225,0.0544047102740195));
#379=CARTESIAN_POINT('',(0.,-0.6775,3.49942822856356E-18));
#380=CARTESIAN_POINT('',(-0.0175,-0.6775,0.0544047102740195));
#381=CARTESIAN_POINT('',(-0.0175,-0.9144,0.0544047102740195));
#382=CARTESIAN_POINT('',(-0.0175,-0.6225,0.0544047102740195));
#383=CARTESIAN_POINT('',(0.,-0.6225,3.49942822856356E-18));
#384=CARTESIAN_POINT('',(0.,-0.9144,3.49942822856356E-18));
#385=CARTESIAN_POINT('',(0.,-0.9144,-0.05715));
#386=CARTESIAN_POINT('',(0.,0.,3.49942822856356E-18));
#387=CARTESIAN_POINT('',(0.,0.,-0.05715));
#388=CARTESIAN_POINT('',(-0.0243833096751213,-0.634177007913204,0.0516876931480413));
#389=CARTESIAN_POINT('',(-0.02461852546629,-0.635278228514556,0.0515754388152324));
#390=CARTESIAN_POINT('',(-0.0240167224277833,-0.636610903802977,0.0518639032900329));
#391=CARTESIAN_POINT('',(-0.0225150807998882,-0.637191271330945,0.0525383454633228));
#392=CARTESIAN_POINT('',(-0.0209878794149006,-0.636623835236078,0.0531618322222381));
#393=CARTESIAN_POINT('',(-0.0202572946427752,-0.635002809720325,0.0534386576078019));
#394=CARTESIAN_POINT('',(-0.0209829505580974,-0.633379245739293,0.0531638521085708));
#395=CARTESIAN_POINT('',(-0.0225191366566766,-0.63280572700161,0.0525364936273232));
#396=CARTESIAN_POINT('',(-0.0237630834313083,-0.633299336577359,0.0519781896041038));
#397=CARTESIAN_POINT('',(-0.0243833096751213,-0.634177007913204,0.0516876931480413));
#398=CARTESIAN_POINT('',(-0.02461852546629,-0.635278228514556,0.0515754388152324));
#399=CARTESIAN_POINT('',(-0.0240167224277833,-0.636610903802977,0.0518639032900329));
#400=CARTESIAN_POINT('',(-0.0245,-0.635,0.0516320878911555));
#401=CARTESIAN_POINT('',(-0.0243833096751213,-0.664177007913204,0.0516876931480413));
#402=CARTESIAN_POINT('',(-0.02461852546629,-0.665278228514556,0.0515754388152324));
#403=CARTESIAN_POINT('',(-0.0240167224277833,-0.666610903802977,0.0518639032900329));
#404=CARTESIAN_POINT('',(-0.0225150807998883,-0.667191271330945,0.0525383454633228));
#405=CARTESIAN_POINT('',(-0.0209878794149006,-0.666623835236078,0.0531618322222382));
#406=CARTESIAN_POINT('',(-0.0202572946427752,-0.665002809720325,0.0534386576078019));
#407=CARTESIAN_POINT('',(-0.0209829505580975,-0.663379245739294,0.0531638521085708));
#408=CARTESIAN_POINT('',(-0.0225191366566765,-0.66280572700161,0.0525364936273232));
#409=CARTESIAN_POINT('',(-0.0237630834313083,-0.663299336577359,0.0519781896041038));
#410=CARTESIAN_POINT('',(-0.0243833096751213,-0.664177007913204,0.0516876931480413));
#411=CARTESIAN_POINT('',(-0.02461852546629,-0.665278228514556,0.0515754388152324));
#412=CARTESIAN_POINT('',(-0.0240167224277833,-0.666610903802977,0.0518639032900329));
#413=CARTESIAN_POINT('',(-0.0245,-0.665,0.0516320878911555));
#414=CARTESIAN_POINT('',(0.0209873067493043,-0.663375908135693,0.0531620588084363));
#415=CARTESIAN_POINT('',(0.0202567560102425,-0.665000302493428,0.0534388817268027));
#416=CARTESIAN_POINT('',(0.0209856692097258,-0.666622881890596,0.0531627323296838));
#417=CARTESIAN_POINT('',(0.0225171705660492,-0.667190643152835,0.0525374200865741));
#418=CARTESIAN_POINT('',(0.0240138457199979,-0.666614351710779,0.0518653024416726));
#419=CARTESIAN_POINT('',(0.024741794100373,-0.66500478912641,0.0515160692980689));
#420=CARTESIAN_POINT('',(0.0240189589831489,-0.663387787048611,0.0518629566790428));
#421=CARTESIAN_POINT('',(0.0225153063046205,-0.662809123652512,0.0525382505717378));
#422=CARTESIAN_POINT('',(0.0209873067493043,-0.663375908135693,0.0531620588084363));
#423=CARTESIAN_POINT('',(0.0202567560102425,-0.665000302493428,0.0534388817268027));
#424=CARTESIAN_POINT('',(0.0209856692097258,-0.666622881890596,0.0531627323296838));
#425=CARTESIAN_POINT('',(0.0205,-0.665,0.0533467196742218));
#426=CARTESIAN_POINT('',(0.0209873067493043,-0.633375908135693,0.0531620588084363));
#427=CARTESIAN_POINT('',(0.0202567560102425,-0.635000302493428,0.0534388817268027));
#428=CARTESIAN_POINT('',(0.0209856692097258,-0.636622881890596,0.0531627323296838));
#429=CARTESIAN_POINT('',(0.0225171705660492,-0.637190643152835,0.0525374200865741));
#430=CARTESIAN_POINT('',(0.0240138457199979,-0.636614351710779,0.0518653024416726));
#431=CARTESIAN_POINT('',(0.024741794100373,-0.63500478912641,0.0515160692980689));
#432=CARTESIAN_POINT('',(0.0240189589831489,-0.633387787048611,0.0518629566790428));
#433=CARTESIAN_POINT('',(0.0225153063046205,-0.632809123652512,0.0525382505717378));
#434=CARTESIAN_POINT('',(0.0209873067493043,-0.633375908135693,0.0531620588084363));
#435=CARTESIAN_POINT('',(0.0202567560102425,-0.635000302493428,0.0534388817268027));
#436=CARTESIAN_POINT('',(0.0209856692097258,-0.636622881890596,0.0531627323296838));
#437=CARTESIAN_POINT('',(0.0205,-0.635,0.0533467196742218));
#438=CARTESIAN_POINT('',(0.,-0.9144,0.));
#439=CARTESIAN_POINT('',(0.,0.,0.));
#440=CARTESIAN_POINT('',(3.12250225675825E-17,-0.6775,0.1));
#441=CARTESIAN_POINT('',(-0.0175,-0.6775,0.1));
#442=CARTESIAN_POINT('',(0.0175,-0.6775,0.1));
#443=CARTESIAN_POINT('',(0.0175,-0.65,0.1));
#444=CARTESIAN_POINT('',(0.0175,-0.6225,0.1));
#445=CARTESIAN_POINT('',(3.12250225675825E-17,-0.6225,0.1));
#446=CARTESIAN_POINT('',(-0.0175,-0.6225,0.1));
#447=CARTESIAN_POINT('',(-0.0175,-0.65,0.1));
#448=CARTESIAN_POINT('',(-0.0225,-0.635,0.1));
#449=CARTESIAN_POINT('',(-0.0225,-0.665,0.1));
#450=CARTESIAN_POINT('',(0.0225,-0.665,0.1));
#451=CARTESIAN_POINT('',(0.0225,-0.635,0.1));
#452=MECHANICAL_DESIGN_GEOMETRIC_PRESENTATION_REPRESENTATION('',(#221),
#453);
#453=(
GEOMETRIC_REPRESENTATION_CONTEXT(3)
GLOBAL_UNCERTAINTY_ASSIGNED_CONTEXT((#454))
GLOBAL_UNIT_ASSIGNED_CONTEXT((#457,#456,#455))
REPRESENTATION_CONTEXT('PVC Hull','TOP_LEVEL_ASSEMBLY_PART')
);
#454=UNCERTAINTY_MEASURE_WITH_UNIT(LENGTH_MEASURE(2.E-5),#457,
'DISTANCE_ACCURACY_VALUE','Maximum Tolerance applied to model');
#455=(
NAMED_UNIT(*)
SI_UNIT($,.STERADIAN.)
SOLID_ANGLE_UNIT()
);
#456=(
NAMED_UNIT(*)
PLANE_ANGLE_UNIT()
SI_UNIT($,.RADIAN.)
);
#457=(
LENGTH_UNIT()
NAMED_UNIT(*)
SI_UNIT($,.METRE.)
);
#458=PRODUCT_DEFINITION_SHAPE('','',#459);
#459=PRODUCT_DEFINITION('','',#461,#460);
#460=PRODUCT_DEFINITION_CONTEXT('',#467,'design');
#461=PRODUCT_DEFINITION_FORMATION_WITH_SPECIFIED_SOURCE('','',#463,
 .NOT_KNOWN.);
#462=PRODUCT_RELATED_PRODUCT_CATEGORY('','',(#463));
#463=PRODUCT('PVC Hull','PVC Hull','PVC Hull',(#465));
#464=PRODUCT_CATEGORY('','');
#465=PRODUCT_CONTEXT('',#467,'mechanical');
#466=APPLICATION_PROTOCOL_DEFINITION('international standard',
'ap242_managed_model_based_3d_engineering',2020,#467);
#467=APPLICATION_CONTEXT('managed model based 3d engineering');
ENDSEC;
END-ISO-10303-21;
