ISO-10303-21;
HEADER;
/* Generated by software containing ST-Developer
 * from STEP Tools, Inc. (www.steptools.com) 
 */
/* OPTION: using custom renumber hook */

FILE_DESCRIPTION(
/* description */ ('STEP AP242 Edition 2',
'CAx-IF Rec.Pracs.---Representation and Presentation of Product Manufa
cturing Information (PMI)---4.0---2014-10-13',
'CAx-IF Rec.Pracs.---3D Tessellated Geometry---0.4---2014-09-14','2;1',
'CAx-IF Rec.Pracs.---User Defined Attributes---1.5---2016-08-15'),
/* implementation_level */ '2;1');

FILE_NAME(
/* name */ 'Rod - Ballast Rod',
/* time_stamp */ '2026-08-23T20:34:51Z',
/* author */ (''),
/* organization */ (''),
/* preprocessor_version */ 'ST-DEVELOPER v20',
/* originating_system */ 'ONSHAPE BY PTC INC, 1.219',
/* authorisation */ '  ');

FILE_SCHEMA (('AP242_MANAGED_MODEL_BASED_3D_ENGINEERING_MIM_LF { 1 0 10303 442 3 1 4 }'));
ENDSEC;

DATA;
#10=SHAPE_REPRESENTATION_RELATIONSHIP('','',#456,#11);
#11=ADVANCED_BREP_SHAPE_REPRESENTATION('',(#454),#755);
#12=LINE('',#638,#52);
#13=LINE('',#643,#53);
#14=LINE('',#645,#54);
#15=LINE('',#647,#55);
#16=LINE('',#651,#56);
#17=LINE('',#653,#57);
#18=LINE('',#655,#58);
#19=LINE('',#659,#59);
#20=LINE('',#661,#60);
#21=LINE('',#663,#61);
#22=LINE('',#667,#62);
#23=LINE('',#669,#63);
#24=LINE('',#676,#64);
#25=LINE('',#677,#65);
#26=LINE('',#681,#66);
#27=LINE('',#682,#67);
#28=LINE('',#686,#68);
#29=LINE('',#687,#69);
#30=LINE('',#691,#70);
#31=LINE('',#692,#71);
#32=LINE('',#704,#72);
#33=LINE('',#706,#73);
#34=LINE('',#708,#74);
#35=LINE('',#710,#75);
#36=LINE('',#712,#76);
#37=LINE('',#715,#77);
#38=LINE('',#717,#78);
#39=LINE('',#719,#79);
#40=LINE('',#721,#80);
#41=LINE('',#723,#81);
#42=LINE('',#726,#82);
#43=LINE('',#728,#83);
#44=LINE('',#730,#84);
#45=LINE('',#732,#85);
#46=LINE('',#734,#86);
#47=LINE('',#737,#87);
#48=LINE('',#739,#88);
#49=LINE('',#741,#89);
#50=LINE('',#743,#90);
#51=LINE('',#745,#91);
#52=VECTOR('',#513,1.);
#53=VECTOR('',#516,1.);
#54=VECTOR('',#517,1.);
#55=VECTOR('',#518,1.);
#56=VECTOR('',#521,1.);
#57=VECTOR('',#522,1.);
#58=VECTOR('',#523,1.);
#59=VECTOR('',#526,1.);
#60=VECTOR('',#527,1.);
#61=VECTOR('',#528,1.);
#62=VECTOR('',#531,1.);
#63=VECTOR('',#532,1.);
#64=VECTOR('',#539,1.);
#65=VECTOR('',#540,1.);
#66=VECTOR('',#543,1.);
#67=VECTOR('',#544,1.);
#68=VECTOR('',#547,1.);
#69=VECTOR('',#548,1.);
#70=VECTOR('',#551,1.);
#71=VECTOR('',#552,1.);
#72=VECTOR('',#569,1.);
#73=VECTOR('',#570,1.);
#74=VECTOR('',#573,1.);
#75=VECTOR('',#574,1.);
#76=VECTOR('',#577,1.);
#77=VECTOR('',#582,1.);
#78=VECTOR('',#583,1.);
#79=VECTOR('',#586,1.);
#80=VECTOR('',#587,1.);
#81=VECTOR('',#590,1.);
#82=VECTOR('',#595,1.);
#83=VECTOR('',#596,1.);
#84=VECTOR('',#599,1.);
#85=VECTOR('',#600,1.);
#86=VECTOR('',#603,1.);
#87=VECTOR('',#608,1.);
#88=VECTOR('',#609,1.);
#89=VECTOR('',#610,1.);
#90=VECTOR('',#613,1.);
#91=VECTOR('',#616,1.);
#92=PLANE('',#461);
#93=PLANE('',#478);
#94=PLANE('',#479);
#95=PLANE('',#480);
#96=PLANE('',#481);
#97=PLANE('',#482);
#98=PLANE('',#483);
#99=PLANE('',#484);
#100=PLANE('',#485);
#101=PLANE('',#486);
#102=PLANE('',#487);
#103=PLANE('',#488);
#104=PLANE('',#489);
#105=PLANE('',#490);
#106=PLANE('',#491);
#107=PLANE('',#492);
#108=PLANE('',#493);
#109=PLANE('',#494);
#110=PLANE('',#495);
#111=PLANE('',#499);
#112=PLANE('',#500);
#113=ORIENTED_EDGE('',*,*,#227,.F.);
#114=ORIENTED_EDGE('',*,*,#228,.T.);
#115=ORIENTED_EDGE('',*,*,#229,.F.);
#116=ORIENTED_EDGE('',*,*,#230,.F.);
#117=ORIENTED_EDGE('',*,*,#231,.T.);
#118=ORIENTED_EDGE('',*,*,#232,.F.);
#119=ORIENTED_EDGE('',*,*,#233,.F.);
#120=ORIENTED_EDGE('',*,*,#234,.T.);
#121=ORIENTED_EDGE('',*,*,#235,.T.);
#122=ORIENTED_EDGE('',*,*,#236,.F.);
#123=ORIENTED_EDGE('',*,*,#237,.T.);
#124=ORIENTED_EDGE('',*,*,#238,.T.);
#125=ORIENTED_EDGE('',*,*,#239,.T.);
#126=ORIENTED_EDGE('',*,*,#240,.T.);
#127=ORIENTED_EDGE('',*,*,#241,.T.);
#128=ORIENTED_EDGE('',*,*,#242,.F.);
#129=ORIENTED_EDGE('',*,*,#243,.T.);
#130=ORIENTED_EDGE('',*,*,#244,.T.);
#131=ORIENTED_EDGE('',*,*,#245,.F.);
#132=ORIENTED_EDGE('',*,*,#246,.T.);
#133=ORIENTED_EDGE('',*,*,#247,.F.);
#134=ORIENTED_EDGE('',*,*,#248,.T.);
#135=ORIENTED_EDGE('',*,*,#239,.F.);
#136=ORIENTED_EDGE('',*,*,#249,.F.);
#137=ORIENTED_EDGE('',*,*,#250,.F.);
#138=ORIENTED_EDGE('',*,*,#251,.T.);
#139=ORIENTED_EDGE('',*,*,#235,.F.);
#140=ORIENTED_EDGE('',*,*,#252,.F.);
#141=ORIENTED_EDGE('',*,*,#253,.F.);
#142=ORIENTED_EDGE('',*,*,#254,.T.);
#143=ORIENTED_EDGE('',*,*,#231,.F.);
#144=ORIENTED_EDGE('',*,*,#255,.F.);
#145=ORIENTED_EDGE('',*,*,#256,.F.);
#146=ORIENTED_EDGE('',*,*,#257,.T.);
#147=ORIENTED_EDGE('',*,*,#243,.F.);
#148=ORIENTED_EDGE('',*,*,#258,.F.);
#149=ORIENTED_EDGE('',*,*,#259,.F.);
#150=ORIENTED_EDGE('',*,*,#260,.T.);
#151=ORIENTED_EDGE('',*,*,#261,.F.);
#152=ORIENTED_EDGE('',*,*,#229,.T.);
#153=ORIENTED_EDGE('',*,*,#260,.F.);
#154=ORIENTED_EDGE('',*,*,#261,.T.);
#155=ORIENTED_EDGE('',*,*,#227,.T.);
#156=ORIENTED_EDGE('',*,*,#246,.F.);
#157=ORIENTED_EDGE('',*,*,#230,.T.);
#158=ORIENTED_EDGE('',*,*,#262,.F.);
#159=ORIENTED_EDGE('',*,*,#263,.F.);
#160=ORIENTED_EDGE('',*,*,#255,.T.);
#161=ORIENTED_EDGE('',*,*,#244,.F.);
#162=ORIENTED_EDGE('',*,*,#257,.F.);
#163=ORIENTED_EDGE('',*,*,#264,.T.);
#164=ORIENTED_EDGE('',*,*,#265,.T.);
#165=ORIENTED_EDGE('',*,*,#245,.T.);
#166=ORIENTED_EDGE('',*,*,#265,.F.);
#167=ORIENTED_EDGE('',*,*,#266,.F.);
#168=ORIENTED_EDGE('',*,*,#262,.T.);
#169=ORIENTED_EDGE('',*,*,#263,.T.);
#170=ORIENTED_EDGE('',*,*,#266,.T.);
#171=ORIENTED_EDGE('',*,*,#264,.F.);
#172=ORIENTED_EDGE('',*,*,#256,.T.);
#173=ORIENTED_EDGE('',*,*,#232,.T.);
#174=ORIENTED_EDGE('',*,*,#254,.F.);
#175=ORIENTED_EDGE('',*,*,#267,.F.);
#176=ORIENTED_EDGE('',*,*,#268,.T.);
#177=ORIENTED_EDGE('',*,*,#233,.T.);
#178=ORIENTED_EDGE('',*,*,#268,.F.);
#179=ORIENTED_EDGE('',*,*,#269,.F.);
#180=ORIENTED_EDGE('',*,*,#270,.T.);
#181=ORIENTED_EDGE('',*,*,#234,.F.);
#182=ORIENTED_EDGE('',*,*,#270,.F.);
#183=ORIENTED_EDGE('',*,*,#271,.T.);
#184=ORIENTED_EDGE('',*,*,#252,.T.);
#185=ORIENTED_EDGE('',*,*,#267,.T.);
#186=ORIENTED_EDGE('',*,*,#253,.T.);
#187=ORIENTED_EDGE('',*,*,#271,.F.);
#188=ORIENTED_EDGE('',*,*,#269,.T.);
#189=ORIENTED_EDGE('',*,*,#236,.T.);
#190=ORIENTED_EDGE('',*,*,#251,.F.);
#191=ORIENTED_EDGE('',*,*,#272,.F.);
#192=ORIENTED_EDGE('',*,*,#273,.T.);
#193=ORIENTED_EDGE('',*,*,#237,.F.);
#194=ORIENTED_EDGE('',*,*,#273,.F.);
#195=ORIENTED_EDGE('',*,*,#274,.T.);
#196=ORIENTED_EDGE('',*,*,#275,.T.);
#197=ORIENTED_EDGE('',*,*,#238,.F.);
#198=ORIENTED_EDGE('',*,*,#275,.F.);
#199=ORIENTED_EDGE('',*,*,#276,.T.);
#200=ORIENTED_EDGE('',*,*,#249,.T.);
#201=ORIENTED_EDGE('',*,*,#272,.T.);
#202=ORIENTED_EDGE('',*,*,#250,.T.);
#203=ORIENTED_EDGE('',*,*,#276,.F.);
#204=ORIENTED_EDGE('',*,*,#274,.F.);
#205=ORIENTED_EDGE('',*,*,#241,.F.);
#206=ORIENTED_EDGE('',*,*,#277,.F.);
#207=ORIENTED_EDGE('',*,*,#278,.T.);
#208=ORIENTED_EDGE('',*,*,#279,.T.);
#209=ORIENTED_EDGE('',*,*,#242,.T.);
#210=ORIENTED_EDGE('',*,*,#279,.F.);
#211=ORIENTED_EDGE('',*,*,#280,.F.);
#212=ORIENTED_EDGE('',*,*,#258,.T.);
#213=ORIENTED_EDGE('',*,*,#240,.F.);
#214=ORIENTED_EDGE('',*,*,#248,.F.);
#215=ORIENTED_EDGE('',*,*,#281,.T.);
#216=ORIENTED_EDGE('',*,*,#277,.T.);
#217=ORIENTED_EDGE('',*,*,#278,.F.);
#218=ORIENTED_EDGE('',*,*,#281,.F.);
#219=ORIENTED_EDGE('',*,*,#247,.T.);
#220=ORIENTED_EDGE('',*,*,#280,.T.);
#221=ORIENTED_EDGE('',*,*,#282,.F.);
#222=ORIENTED_EDGE('',*,*,#283,.T.);
#223=ORIENTED_EDGE('',*,*,#228,.F.);
#224=ORIENTED_EDGE('',*,*,#282,.T.);
#225=ORIENTED_EDGE('',*,*,#259,.T.);
#226=ORIENTED_EDGE('',*,*,#283,.F.);
#227=EDGE_CURVE('',#284,#284,#325,.T.);
#228=EDGE_CURVE('',#285,#285,#326,.T.);
#229=EDGE_CURVE('',#286,#286,#327,.T.);
#230=EDGE_CURVE('',#287,#288,#12,.T.);
#231=EDGE_CURVE('',#287,#289,#328,.T.);
#232=EDGE_CURVE('',#290,#289,#13,.T.);
#233=EDGE_CURVE('',#291,#290,#14,.T.);
#234=EDGE_CURVE('',#291,#292,#15,.T.);
#235=EDGE_CURVE('',#292,#293,#329,.T.);
#236=EDGE_CURVE('',#294,#293,#16,.T.);
#237=EDGE_CURVE('',#294,#295,#17,.T.);
#238=EDGE_CURVE('',#295,#296,#18,.T.);
#239=EDGE_CURVE('',#296,#297,#330,.T.);
#240=EDGE_CURVE('',#297,#298,#19,.T.);
#241=EDGE_CURVE('',#298,#299,#20,.T.);
#242=EDGE_CURVE('',#300,#299,#21,.T.);
#243=EDGE_CURVE('',#300,#301,#331,.T.);
#244=EDGE_CURVE('',#301,#302,#22,.T.);
#245=EDGE_CURVE('',#288,#302,#23,.T.);
#246=EDGE_CURVE('',#303,#303,#332,.T.);
#247=EDGE_CURVE('',#304,#305,#333,.T.);
#248=EDGE_CURVE('',#304,#297,#24,.T.);
#249=EDGE_CURVE('',#306,#296,#25,.T.);
#250=EDGE_CURVE('',#307,#306,#334,.T.);
#251=EDGE_CURVE('',#307,#293,#26,.T.);
#252=EDGE_CURVE('',#308,#292,#27,.T.);
#253=EDGE_CURVE('',#309,#308,#335,.T.);
#254=EDGE_CURVE('',#309,#289,#28,.T.);
#255=EDGE_CURVE('',#310,#287,#29,.T.);
#256=EDGE_CURVE('',#311,#310,#336,.T.);
#257=EDGE_CURVE('',#311,#301,#30,.T.);
#258=EDGE_CURVE('',#305,#300,#31,.T.);
#259=EDGE_CURVE('',#312,#312,#337,.T.);
#260=EDGE_CURVE('',#313,#313,#338,.T.);
#261=EDGE_CURVE('',#314,#314,#339,.T.);
#262=EDGE_CURVE('',#315,#288,#32,.T.);
#263=EDGE_CURVE('',#310,#315,#33,.T.);
#264=EDGE_CURVE('',#311,#316,#34,.T.);
#265=EDGE_CURVE('',#316,#302,#35,.T.);
#266=EDGE_CURVE('',#315,#316,#36,.T.);
#267=EDGE_CURVE('',#317,#309,#37,.T.);
#268=EDGE_CURVE('',#317,#290,#38,.T.);
#269=EDGE_CURVE('',#318,#317,#39,.T.);
#270=EDGE_CURVE('',#318,#291,#40,.T.);
#271=EDGE_CURVE('',#318,#308,#41,.T.);
#272=EDGE_CURVE('',#319,#307,#42,.T.);
#273=EDGE_CURVE('',#319,#294,#43,.T.);
#274=EDGE_CURVE('',#319,#320,#44,.T.);
#275=EDGE_CURVE('',#320,#295,#45,.T.);
#276=EDGE_CURVE('',#320,#306,#46,.T.);
#277=EDGE_CURVE('',#321,#298,#47,.T.);
#278=EDGE_CURVE('',#321,#322,#48,.T.);
#279=EDGE_CURVE('',#322,#299,#49,.T.);
#280=EDGE_CURVE('',#305,#322,#50,.T.);
#281=EDGE_CURVE('',#304,#321,#51,.T.);
#282=EDGE_CURVE('',#323,#323,#340,.T.);
#283=EDGE_CURVE('',#324,#324,#341,.T.);
#284=VERTEX_POINT('',#632);
#285=VERTEX_POINT('',#634);
#286=VERTEX_POINT('',#637);
#287=VERTEX_POINT('',#639);
#288=VERTEX_POINT('',#640);
#289=VERTEX_POINT('',#642);
#290=VERTEX_POINT('',#644);
#291=VERTEX_POINT('',#646);
#292=VERTEX_POINT('',#648);
#293=VERTEX_POINT('',#650);
#294=VERTEX_POINT('',#652);
#295=VERTEX_POINT('',#654);
#296=VERTEX_POINT('',#656);
#297=VERTEX_POINT('',#658);
#298=VERTEX_POINT('',#660);
#299=VERTEX_POINT('',#662);
#300=VERTEX_POINT('',#664);
#301=VERTEX_POINT('',#666);
#302=VERTEX_POINT('',#668);
#303=VERTEX_POINT('',#672);
#304=VERTEX_POINT('',#674);
#305=VERTEX_POINT('',#675);
#306=VERTEX_POINT('',#678);
#307=VERTEX_POINT('',#680);
#308=VERTEX_POINT('',#683);
#309=VERTEX_POINT('',#685);
#310=VERTEX_POINT('',#688);
#311=VERTEX_POINT('',#690);
#312=VERTEX_POINT('',#695);
#313=VERTEX_POINT('',#697);
#314=VERTEX_POINT('',#700);
#315=VERTEX_POINT('',#705);
#316=VERTEX_POINT('',#709);
#317=VERTEX_POINT('',#716);
#318=VERTEX_POINT('',#720);
#319=VERTEX_POINT('',#727);
#320=VERTEX_POINT('',#731);
#321=VERTEX_POINT('',#738);
#322=VERTEX_POINT('',#740);
#323=VERTEX_POINT('',#749);
#324=VERTEX_POINT('',#751);
#325=CIRCLE('',#459,0.008);
#326=CIRCLE('',#460,0.008);
#327=CIRCLE('',#462,0.011);
#328=CIRCLE('',#463,0.004);
#329=CIRCLE('',#464,0.004);
#330=CIRCLE('',#465,0.004);
#331=CIRCLE('',#466,0.004);
#332=CIRCLE('',#468,0.004);
#333=CIRCLE('',#469,0.004);
#334=CIRCLE('',#470,0.004);
#335=CIRCLE('',#471,0.004);
#336=CIRCLE('',#472,0.004);
#337=CIRCLE('',#474,0.008);
#338=CIRCLE('',#475,0.008);
#339=CIRCLE('',#477,0.011);
#340=CIRCLE('',#497,0.004);
#341=CIRCLE('',#498,0.004);
#342=EDGE_LOOP('',(#113));
#343=EDGE_LOOP('',(#114));
#344=EDGE_LOOP('',(#115));
#345=EDGE_LOOP('',(#116,#117,#118,#119,#120,#121,#122,#123,#124,#125,#126,
#127,#128,#129,#130,#131));
#346=EDGE_LOOP('',(#132));
#347=EDGE_LOOP('',(#133,#134,#135,#136,#137,#138,#139,#140,#141,#142,#143,
#144,#145,#146,#147,#148));
#348=EDGE_LOOP('',(#149));
#349=EDGE_LOOP('',(#150));
#350=EDGE_LOOP('',(#151));
#351=EDGE_LOOP('',(#152));
#352=EDGE_LOOP('',(#153));
#353=EDGE_LOOP('',(#154));
#354=EDGE_LOOP('',(#155));
#355=EDGE_LOOP('',(#156));
#356=EDGE_LOOP('',(#157,#158,#159,#160));
#357=EDGE_LOOP('',(#161,#162,#163,#164));
#358=EDGE_LOOP('',(#165,#166,#167,#168));
#359=EDGE_LOOP('',(#169,#170,#171,#172));
#360=EDGE_LOOP('',(#173,#174,#175,#176));
#361=EDGE_LOOP('',(#177,#178,#179,#180));
#362=EDGE_LOOP('',(#181,#182,#183,#184));
#363=EDGE_LOOP('',(#185,#186,#187,#188));
#364=EDGE_LOOP('',(#189,#190,#191,#192));
#365=EDGE_LOOP('',(#193,#194,#195,#196));
#366=EDGE_LOOP('',(#197,#198,#199,#200));
#367=EDGE_LOOP('',(#201,#202,#203,#204));
#368=EDGE_LOOP('',(#205,#206,#207,#208));
#369=EDGE_LOOP('',(#209,#210,#211,#212));
#370=EDGE_LOOP('',(#213,#214,#215,#216));
#371=EDGE_LOOP('',(#217,#218,#219,#220));
#372=EDGE_LOOP('',(#221));
#373=EDGE_LOOP('',(#222));
#374=EDGE_LOOP('',(#223));
#375=EDGE_LOOP('',(#224));
#376=EDGE_LOOP('',(#225));
#377=EDGE_LOOP('',(#226));
#378=FACE_BOUND('',#342,.T.);
#379=FACE_BOUND('',#343,.T.);
#380=FACE_BOUND('',#344,.T.);
#381=FACE_BOUND('',#345,.T.);
#382=FACE_BOUND('',#346,.T.);
#383=FACE_BOUND('',#347,.T.);
#384=FACE_BOUND('',#348,.T.);
#385=FACE_BOUND('',#349,.T.);
#386=FACE_BOUND('',#350,.T.);
#387=FACE_BOUND('',#351,.T.);
#388=FACE_BOUND('',#352,.T.);
#389=FACE_BOUND('',#353,.T.);
#390=FACE_BOUND('',#354,.T.);
#391=FACE_BOUND('',#355,.T.);
#392=FACE_BOUND('',#356,.T.);
#393=FACE_BOUND('',#357,.T.);
#394=FACE_BOUND('',#358,.T.);
#395=FACE_BOUND('',#359,.T.);
#396=FACE_BOUND('',#360,.T.);
#397=FACE_BOUND('',#361,.T.);
#398=FACE_BOUND('',#362,.T.);
#399=FACE_BOUND('',#363,.T.);
#400=FACE_BOUND('',#364,.T.);
#401=FACE_BOUND('',#365,.T.);
#402=FACE_BOUND('',#366,.T.);
#403=FACE_BOUND('',#367,.T.);
#404=FACE_BOUND('',#368,.T.);
#405=FACE_BOUND('',#369,.T.);
#406=FACE_BOUND('',#370,.T.);
#407=FACE_BOUND('',#371,.T.);
#408=FACE_BOUND('',#372,.T.);
#409=FACE_BOUND('',#373,.T.);
#410=FACE_BOUND('',#374,.T.);
#411=FACE_BOUND('',#375,.T.);
#412=FACE_BOUND('',#376,.T.);
#413=FACE_BOUND('',#377,.T.);
#414=CYLINDRICAL_SURFACE('',#458,0.008);
#415=CYLINDRICAL_SURFACE('',#467,0.004);
#416=CYLINDRICAL_SURFACE('',#473,0.008);
#417=CYLINDRICAL_SURFACE('',#476,0.011);
#418=CYLINDRICAL_SURFACE('',#496,0.004);
#419=ADVANCED_FACE('',(#378,#379),#414,.F.);
#420=ADVANCED_FACE('',(#380,#381),#92,.F.);
#421=ADVANCED_FACE('',(#382,#383),#415,.F.);
#422=ADVANCED_FACE('',(#384,#385),#416,.F.);
#423=ADVANCED_FACE('',(#386,#387),#417,.T.);
#424=ADVANCED_FACE('',(#388,#389),#93,.T.);
#425=ADVANCED_FACE('',(#390,#391),#94,.T.);
#426=ADVANCED_FACE('',(#392),#95,.F.);
#427=ADVANCED_FACE('',(#393),#96,.T.);
#428=ADVANCED_FACE('',(#394),#97,.F.);
#429=ADVANCED_FACE('',(#395),#98,.F.);
#430=ADVANCED_FACE('',(#396),#99,.F.);
#431=ADVANCED_FACE('',(#397),#100,.F.);
#432=ADVANCED_FACE('',(#398),#101,.T.);
#433=ADVANCED_FACE('',(#399),#102,.F.);
#434=ADVANCED_FACE('',(#400),#103,.F.);
#435=ADVANCED_FACE('',(#401),#104,.T.);
#436=ADVANCED_FACE('',(#402),#105,.T.);
#437=ADVANCED_FACE('',(#403),#106,.F.);
#438=ADVANCED_FACE('',(#404),#107,.T.);
#439=ADVANCED_FACE('',(#405),#108,.F.);
#440=ADVANCED_FACE('',(#406),#109,.T.);
#441=ADVANCED_FACE('',(#407),#110,.F.);
#442=ADVANCED_FACE('',(#408,#409),#418,.F.);
#443=ADVANCED_FACE('',(#410,#411),#111,.F.);
#444=ADVANCED_FACE('',(#412,#413),#112,.T.);
#445=CLOSED_SHELL('',(#419,#420,#421,#422,#423,#424,#425,#426,#427,#428,
#429,#430,#431,#432,#433,#434,#435,#436,#437,#438,#439,#440,#441,#442,#443,
#444));
#446=STYLED_ITEM('',(#447),#454);
#447=PRESENTATION_STYLE_ASSIGNMENT((#448));
#448=SURFACE_STYLE_USAGE(.BOTH.,#449);
#449=SURFACE_SIDE_STYLE('',(#450));
#450=SURFACE_STYLE_FILL_AREA(#451);
#451=FILL_AREA_STYLE('',(#452));
#452=FILL_AREA_STYLE_COLOUR('',#453);
#453=COLOUR_RGB('',0.615686274509804,0.811764705882353,0.929411764705882);
#454=MANIFOLD_SOLID_BREP('Ballast Rod',#445);
#455=SHAPE_DEFINITION_REPRESENTATION(#760,#456);
#456=SHAPE_REPRESENTATION('Ballast Rod',(#457),#755);
#457=AXIS2_PLACEMENT_3D('',#629,#501,#502);
#458=AXIS2_PLACEMENT_3D('',#630,#503,#504);
#459=AXIS2_PLACEMENT_3D('',#631,#505,#506);
#460=AXIS2_PLACEMENT_3D('',#633,#507,#508);
#461=AXIS2_PLACEMENT_3D('',#635,#509,#510);
#462=AXIS2_PLACEMENT_3D('',#636,#511,#512);
#463=AXIS2_PLACEMENT_3D('',#641,#514,#515);
#464=AXIS2_PLACEMENT_3D('',#649,#519,#520);
#465=AXIS2_PLACEMENT_3D('',#657,#524,#525);
#466=AXIS2_PLACEMENT_3D('',#665,#529,#530);
#467=AXIS2_PLACEMENT_3D('',#670,#533,#534);
#468=AXIS2_PLACEMENT_3D('',#671,#535,#536);
#469=AXIS2_PLACEMENT_3D('',#673,#537,#538);
#470=AXIS2_PLACEMENT_3D('',#679,#541,#542);
#471=AXIS2_PLACEMENT_3D('',#684,#545,#546);
#472=AXIS2_PLACEMENT_3D('',#689,#549,#550);
#473=AXIS2_PLACEMENT_3D('',#693,#553,#554);
#474=AXIS2_PLACEMENT_3D('',#694,#555,#556);
#475=AXIS2_PLACEMENT_3D('',#696,#557,#558);
#476=AXIS2_PLACEMENT_3D('',#698,#559,#560);
#477=AXIS2_PLACEMENT_3D('',#699,#561,#562);
#478=AXIS2_PLACEMENT_3D('',#701,#563,#564);
#479=AXIS2_PLACEMENT_3D('',#702,#565,#566);
#480=AXIS2_PLACEMENT_3D('',#703,#567,#568);
#481=AXIS2_PLACEMENT_3D('',#707,#571,#572);
#482=AXIS2_PLACEMENT_3D('',#711,#575,#576);
#483=AXIS2_PLACEMENT_3D('',#713,#578,#579);
#484=AXIS2_PLACEMENT_3D('',#714,#580,#581);
#485=AXIS2_PLACEMENT_3D('',#718,#584,#585);
#486=AXIS2_PLACEMENT_3D('',#722,#588,#589);
#487=AXIS2_PLACEMENT_3D('',#724,#591,#592);
#488=AXIS2_PLACEMENT_3D('',#725,#593,#594);
#489=AXIS2_PLACEMENT_3D('',#729,#597,#598);
#490=AXIS2_PLACEMENT_3D('',#733,#601,#602);
#491=AXIS2_PLACEMENT_3D('',#735,#604,#605);
#492=AXIS2_PLACEMENT_3D('',#736,#606,#607);
#493=AXIS2_PLACEMENT_3D('',#742,#611,#612);
#494=AXIS2_PLACEMENT_3D('',#744,#614,#615);
#495=AXIS2_PLACEMENT_3D('',#746,#617,#618);
#496=AXIS2_PLACEMENT_3D('',#747,#619,#620);
#497=AXIS2_PLACEMENT_3D('',#748,#621,#622);
#498=AXIS2_PLACEMENT_3D('',#750,#623,#624);
#499=AXIS2_PLACEMENT_3D('',#752,#625,#626);
#500=AXIS2_PLACEMENT_3D('',#753,#627,#628);
#501=DIRECTION('',(0.,0.,1.));
#502=DIRECTION('',(1.,0.,0.));
#503=DIRECTION('',(0.,1.,0.));
#504=DIRECTION('',(0.,0.,1.));
#505=DIRECTION('',(0.,-1.,0.));
#506=DIRECTION('',(0.,0.,-1.));
#507=DIRECTION('',(0.,-1.,0.));
#508=DIRECTION('',(0.,0.,-1.));
#509=DIRECTION('',(0.,-1.,0.));
#510=DIRECTION('',(1.,0.,0.));
#511=DIRECTION('',(0.,-1.,0.));
#512=DIRECTION('',(0.,0.,-1.));
#513=DIRECTION('',(-1.,0.,-2.02566340212657E-16));
#514=DIRECTION('',(0.,-1.,0.));
#515=DIRECTION('',(0.,0.,-1.));
#516=DIRECTION('',(0.,0.,1.));
#517=DIRECTION('',(-1.,0.,0.));
#518=DIRECTION('',(0.,0.,1.));
#519=DIRECTION('',(0.,-1.,0.));
#520=DIRECTION('',(0.,0.,-1.));
#521=DIRECTION('',(-1.,0.,-1.01283170106328E-16));
#522=DIRECTION('',(0.,0.,1.));
#523=DIRECTION('',(-1.,0.,-1.01283170106328E-16));
#524=DIRECTION('',(0.,-1.,0.));
#525=DIRECTION('',(0.,0.,-1.));
#526=DIRECTION('',(0.,0.,1.));
#527=DIRECTION('',(-1.,0.,0.));
#528=DIRECTION('',(0.,0.,1.));
#529=DIRECTION('',(0.,-1.,0.));
#530=DIRECTION('',(0.,0.,-1.));
#531=DIRECTION('',(-1.,0.,-1.01283170106328E-16));
#532=DIRECTION('',(0.,0.,1.));
#533=DIRECTION('',(0.,1.,0.));
#534=DIRECTION('',(0.,0.,1.));
#535=DIRECTION('',(0.,-1.,0.));
#536=DIRECTION('',(0.,0.,-1.));
#537=DIRECTION('',(0.,-1.,0.));
#538=DIRECTION('',(0.,0.,-1.));
#539=DIRECTION('',(0.,1.,0.));
#540=DIRECTION('',(0.,1.,0.));
#541=DIRECTION('',(0.,-1.,0.));
#542=DIRECTION('',(0.,0.,-1.));
#543=DIRECTION('',(0.,1.,0.));
#544=DIRECTION('',(0.,1.,0.));
#545=DIRECTION('',(0.,-1.,0.));
#546=DIRECTION('',(0.,0.,-1.));
#547=DIRECTION('',(0.,1.,0.));
#548=DIRECTION('',(0.,1.,0.));
#549=DIRECTION('',(0.,-1.,0.));
#550=DIRECTION('',(0.,0.,-1.));
#551=DIRECTION('',(0.,1.,0.));
#552=DIRECTION('',(0.,1.,0.));
#553=DIRECTION('',(0.,1.,0.));
#554=DIRECTION('',(0.,0.,1.));
#555=DIRECTION('',(0.,-1.,0.));
#556=DIRECTION('',(0.,0.,-1.));
#557=DIRECTION('',(0.,-1.,0.));
#558=DIRECTION('',(0.,0.,-1.));
#559=DIRECTION('',(0.,1.,0.));
#560=DIRECTION('',(0.,0.,1.));
#561=DIRECTION('',(0.,-1.,0.));
#562=DIRECTION('',(0.,0.,-1.));
#563=DIRECTION('',(0.,-1.,0.));
#564=DIRECTION('',(1.,0.,0.));
#565=DIRECTION('',(0.,-1.,0.));
#566=DIRECTION('',(1.,0.,0.));
#567=DIRECTION('',(2.02566340212657E-16,0.,-1.));
#568=DIRECTION('',(-1.,0.,-2.02566340212657E-16));
#569=DIRECTION('',(0.,1.,0.));
#570=DIRECTION('',(-1.,0.,-2.02566340212657E-16));
#571=DIRECTION('',(1.01283170106328E-16,0.,-1.));
#572=DIRECTION('',(-1.,0.,-1.01283170106328E-16));
#573=DIRECTION('',(-1.,0.,-1.01283170106328E-16));
#574=DIRECTION('',(0.,1.,0.));
#575=DIRECTION('',(-1.,0.,0.));
#576=DIRECTION('',(0.,0.,1.));
#577=DIRECTION('',(0.,0.,1.));
#578=DIRECTION('',(0.,-1.,0.));
#579=DIRECTION('',(1.,0.,0.));
#580=DIRECTION('',(-1.,0.,0.));
#581=DIRECTION('',(0.,0.,1.));
#582=DIRECTION('',(0.,0.,1.));
#583=DIRECTION('',(0.,1.,0.));
#584=DIRECTION('',(0.,0.,-1.));
#585=DIRECTION('',(-1.,0.,0.));
#586=DIRECTION('',(-1.,0.,0.));
#587=DIRECTION('',(0.,1.,0.));
#588=DIRECTION('',(-1.,0.,0.));
#589=DIRECTION('',(0.,0.,1.));
#590=DIRECTION('',(0.,0.,1.));
#591=DIRECTION('',(0.,-1.,0.));
#592=DIRECTION('',(1.,0.,0.));
#593=DIRECTION('',(1.01283170106328E-16,0.,-1.));
#594=DIRECTION('',(-1.,0.,-1.01283170106328E-16));
#595=DIRECTION('',(-1.,0.,-1.01283170106328E-16));
#596=DIRECTION('',(0.,1.,0.));
#597=DIRECTION('',(-1.,0.,0.));
#598=DIRECTION('',(0.,0.,1.));
#599=DIRECTION('',(0.,0.,1.));
#600=DIRECTION('',(0.,1.,0.));
#601=DIRECTION('',(1.01283170106328E-16,0.,-1.));
#602=DIRECTION('',(-1.,0.,-1.01283170106328E-16));
#603=DIRECTION('',(-1.,0.,-1.01283170106328E-16));
#604=DIRECTION('',(0.,-1.,0.));
#605=DIRECTION('',(1.,0.,0.));
#606=DIRECTION('',(0.,0.,-1.));
#607=DIRECTION('',(-1.,0.,0.));
#608=DIRECTION('',(0.,1.,0.));
#609=DIRECTION('',(-1.,0.,0.));
#610=DIRECTION('',(0.,1.,0.));
#611=DIRECTION('',(-1.,0.,0.));
#612=DIRECTION('',(0.,0.,1.));
#613=DIRECTION('',(0.,0.,1.));
#614=DIRECTION('',(-1.,0.,0.));
#615=DIRECTION('',(0.,0.,1.));
#616=DIRECTION('',(0.,0.,1.));
#617=DIRECTION('',(0.,-1.,0.));
#618=DIRECTION('',(1.,0.,0.));
#619=DIRECTION('',(0.,-1.,0.));
#620=DIRECTION('',(0.,0.,-1.));
#621=DIRECTION('',(0.,-1.,0.));
#622=DIRECTION('',(0.,0.,-1.));
#623=DIRECTION('',(0.,-1.,0.));
#624=DIRECTION('',(0.,0.,-1.));
#625=DIRECTION('',(0.,-1.,0.));
#626=DIRECTION('',(1.,0.,0.));
#627=DIRECTION('',(0.,-1.,0.));
#628=DIRECTION('',(1.,0.,0.));
#629=CARTESIAN_POINT('',(0.,0.,0.));
#630=CARTESIAN_POINT('',(-2.16840434497101E-18,-0.15,-1.51788304147971E-18));
#631=CARTESIAN_POINT('',(-2.16840434497101E-18,-0.025,-1.51788304147971E-18));
#632=CARTESIAN_POINT('',(-2.16840434497101E-18,-0.025,-0.008));
#633=CARTESIAN_POINT('',(2.16840434497101E-19,-0.115,-1.95156391047391E-18));
#634=CARTESIAN_POINT('',(2.16840434497101E-19,-0.115,-0.008));
#635=CARTESIAN_POINT('',(0.,0.,0.));
#636=CARTESIAN_POINT('',(0.,0.,6.73555739531044E-19));
#637=CARTESIAN_POINT('',(0.,0.,-0.011));
#638=CARTESIAN_POINT('',(-0.0056050341537763,0.,-0.002));
#639=CARTESIAN_POINT('',(-0.00346410161513775,0.,-0.002));
#640=CARTESIAN_POINT('',(-0.0095,0.,-0.002));
#641=CARTESIAN_POINT('',(-8.67361737988404E-19,0.,0.));
#642=CARTESIAN_POINT('',(-0.002,0.,-0.00346410161513775));
#643=CARTESIAN_POINT('',(-0.002,0.,-0.0056050341537763));
#644=CARTESIAN_POINT('',(-0.002,0.,-0.0095));
#645=CARTESIAN_POINT('',(1.51788304147971E-18,0.,-0.0095));
#646=CARTESIAN_POINT('',(0.002,0.,-0.0095));
#647=CARTESIAN_POINT('',(0.002,0.,-0.0056050341537763));
#648=CARTESIAN_POINT('',(0.002,0.,-0.00346410161513775));
#649=CARTESIAN_POINT('',(-8.67361737988404E-19,0.,0.));
#650=CARTESIAN_POINT('',(0.00346410161513775,0.,-0.002));
#651=CARTESIAN_POINT('',(0.0056050341537763,0.,-0.002));
#652=CARTESIAN_POINT('',(0.0095,0.,-0.002));
#653=CARTESIAN_POINT('',(0.0095,0.,1.3010426069826E-18));
#654=CARTESIAN_POINT('',(0.0095,0.,0.002));
#655=CARTESIAN_POINT('',(0.0056050341537763,0.,0.002));
#656=CARTESIAN_POINT('',(0.00346410161513775,0.,0.002));
#657=CARTESIAN_POINT('',(-8.67361737988404E-19,0.,0.));
#658=CARTESIAN_POINT('',(0.002,0.,0.00346410161513775));
#659=CARTESIAN_POINT('',(0.002,0.,0.0056050341537763));
#660=CARTESIAN_POINT('',(0.002,0.,0.0095));
#661=CARTESIAN_POINT('',(1.3010426069826E-18,0.,0.0095));
#662=CARTESIAN_POINT('',(-0.002,0.,0.0095));
#663=CARTESIAN_POINT('',(-0.002,0.,0.0056050341537763));
#664=CARTESIAN_POINT('',(-0.002,0.,0.00346410161513775));
#665=CARTESIAN_POINT('',(-8.67361737988404E-19,0.,0.));
#666=CARTESIAN_POINT('',(-0.00346410161513775,0.,0.002));
#667=CARTESIAN_POINT('',(-0.0056050341537763,0.,0.002));
#668=CARTESIAN_POINT('',(-0.0095,0.,0.002));
#669=CARTESIAN_POINT('',(-0.0095,0.,-8.67361737988404E-19));
#670=CARTESIAN_POINT('',(-8.67361737988404E-19,-0.025,0.));
#671=CARTESIAN_POINT('',(-8.67361737988404E-19,-0.025,0.));
#672=CARTESIAN_POINT('',(-8.67361737988404E-19,-0.025,-0.004));
#673=CARTESIAN_POINT('',(0.,-0.015,0.));
#674=CARTESIAN_POINT('',(0.002,-0.015,0.00346410161513775));
#675=CARTESIAN_POINT('',(-0.002,-0.015,0.00346410161513775));
#676=CARTESIAN_POINT('',(0.002,-0.015,0.00346410161513775));
#677=CARTESIAN_POINT('',(0.00346410161513775,-0.015,0.002));
#678=CARTESIAN_POINT('',(0.00346410161513775,-0.015,0.002));
#679=CARTESIAN_POINT('',(-2.16840434497101E-19,-0.015,2.16840434497101E-19));
#680=CARTESIAN_POINT('',(0.00346410161513775,-0.015,-0.002));
#681=CARTESIAN_POINT('',(0.00346410161513775,-0.015,-0.002));
#682=CARTESIAN_POINT('',(0.002,-0.015,-0.00346410161513775));
#683=CARTESIAN_POINT('',(0.002,-0.015,-0.00346410161513775));
#684=CARTESIAN_POINT('',(2.16840434497101E-19,-0.015,-8.67361737988404E-19));
#685=CARTESIAN_POINT('',(-0.002,-0.015,-0.00346410161513775));
#686=CARTESIAN_POINT('',(-0.002,-0.015,-0.00346410161513775));
#687=CARTESIAN_POINT('',(-0.00346410161513775,-0.015,-0.002));
#688=CARTESIAN_POINT('',(-0.00346410161513775,-0.015,-0.002));
#689=CARTESIAN_POINT('',(0.,-0.015,2.16840434497101E-19));
#690=CARTESIAN_POINT('',(-0.00346410161513775,-0.015,0.002));
#691=CARTESIAN_POINT('',(-0.00346410161513775,-0.015,0.002));
#692=CARTESIAN_POINT('',(-0.002,-0.015,0.00346410161513775));
#693=CARTESIAN_POINT('',(-2.16840434497101E-18,-0.15,-1.51788304147971E-18));
#694=CARTESIAN_POINT('',(-2.16840434497101E-18,-0.14,-1.51788304147971E-18));
#695=CARTESIAN_POINT('',(-2.16840434497101E-18,-0.14,-0.008));
#696=CARTESIAN_POINT('',(-2.16840434497101E-18,-0.15,-1.51788304147971E-18));
#697=CARTESIAN_POINT('',(-2.16840434497101E-18,-0.15,-0.008));
#698=CARTESIAN_POINT('',(0.,-0.15,6.73555739531044E-19));
#699=CARTESIAN_POINT('',(0.,-0.15,6.73555739531044E-19));
#700=CARTESIAN_POINT('',(0.,-0.15,-0.011));
#701=CARTESIAN_POINT('',(0.,-0.15,0.));
#702=CARTESIAN_POINT('',(0.,-0.025,0.));
#703=CARTESIAN_POINT('',(-0.0056050341537763,-0.015,-0.002));
#704=CARTESIAN_POINT('',(-0.0095,-0.015,-0.002));
#705=CARTESIAN_POINT('',(-0.0095,-0.015,-0.002));
#706=CARTESIAN_POINT('',(-0.0056050341537763,-0.015,-0.002));
#707=CARTESIAN_POINT('',(-0.0056050341537763,-0.015,0.002));
#708=CARTESIAN_POINT('',(-0.0056050341537763,-0.015,0.002));
#709=CARTESIAN_POINT('',(-0.0095,-0.015,0.002));
#710=CARTESIAN_POINT('',(-0.0095,-0.015,0.002));
#711=CARTESIAN_POINT('',(-0.0095,-0.015,-8.67361737988404E-19));
#712=CARTESIAN_POINT('',(-0.0095,-0.015,-8.67361737988404E-19));
#713=CARTESIAN_POINT('',(0.,-0.015,0.));
#714=CARTESIAN_POINT('',(-0.002,-0.015,-0.0056050341537763));
#715=CARTESIAN_POINT('',(-0.002,-0.015,-0.0056050341537763));
#716=CARTESIAN_POINT('',(-0.002,-0.015,-0.0095));
#717=CARTESIAN_POINT('',(-0.002,-0.015,-0.0095));
#718=CARTESIAN_POINT('',(1.51788304147971E-18,-0.015,-0.0095));
#719=CARTESIAN_POINT('',(1.51788304147971E-18,-0.015,-0.0095));
#720=CARTESIAN_POINT('',(0.002,-0.015,-0.0095));
#721=CARTESIAN_POINT('',(0.002,-0.015,-0.0095));
#722=CARTESIAN_POINT('',(0.002,-0.015,-0.0056050341537763));
#723=CARTESIAN_POINT('',(0.002,-0.015,-0.0056050341537763));
#724=CARTESIAN_POINT('',(0.,-0.015,0.));
#725=CARTESIAN_POINT('',(0.0056050341537763,-0.015,-0.002));
#726=CARTESIAN_POINT('',(0.0056050341537763,-0.015,-0.002));
#727=CARTESIAN_POINT('',(0.0095,-0.015,-0.002));
#728=CARTESIAN_POINT('',(0.0095,-0.015,-0.002));
#729=CARTESIAN_POINT('',(0.0095,-0.015,1.3010426069826E-18));
#730=CARTESIAN_POINT('',(0.0095,-0.015,1.3010426069826E-18));
#731=CARTESIAN_POINT('',(0.0095,-0.015,0.002));
#732=CARTESIAN_POINT('',(0.0095,-0.015,0.002));
#733=CARTESIAN_POINT('',(0.0056050341537763,-0.015,0.002));
#734=CARTESIAN_POINT('',(0.0056050341537763,-0.015,0.002));
#735=CARTESIAN_POINT('',(0.,-0.015,0.));
#736=CARTESIAN_POINT('',(1.3010426069826E-18,-0.015,0.0095));
#737=CARTESIAN_POINT('',(0.002,-0.015,0.0095));
#738=CARTESIAN_POINT('',(0.002,-0.015,0.0095));
#739=CARTESIAN_POINT('',(1.3010426069826E-18,-0.015,0.0095));
#740=CARTESIAN_POINT('',(-0.002,-0.015,0.0095));
#741=CARTESIAN_POINT('',(-0.002,-0.015,0.0095));
#742=CARTESIAN_POINT('',(-0.002,-0.015,0.0056050341537763));
#743=CARTESIAN_POINT('',(-0.002,-0.015,0.0056050341537763));
#744=CARTESIAN_POINT('',(0.002,-0.015,0.0056050341537763));
#745=CARTESIAN_POINT('',(0.002,-0.015,0.0056050341537763));
#746=CARTESIAN_POINT('',(0.,-0.015,0.));
#747=CARTESIAN_POINT('',(-8.67361737988404E-19,-0.115,0.));
#748=CARTESIAN_POINT('',(-8.67361737988404E-19,-0.115,0.));
#749=CARTESIAN_POINT('',(-8.67361737988404E-19,-0.115,-0.004));
#750=CARTESIAN_POINT('',(-8.67361737988404E-19,-0.14,0.));
#751=CARTESIAN_POINT('',(-8.67361737988404E-19,-0.14,-0.004));
#752=CARTESIAN_POINT('',(0.,-0.115,0.));
#753=CARTESIAN_POINT('',(0.,-0.14,0.));
#754=MECHANICAL_DESIGN_GEOMETRIC_PRESENTATION_REPRESENTATION('',(#446),
#755);
#755=(
GEOMETRIC_REPRESENTATION_CONTEXT(3)
GLOBAL_UNCERTAINTY_ASSIGNED_CONTEXT((#756))
GLOBAL_UNIT_ASSIGNED_CONTEXT((#759,#758,#757))
REPRESENTATION_CONTEXT('Ballast Rod','TOP_LEVEL_ASSEMBLY_PART')
);
#756=UNCERTAINTY_MEASURE_WITH_UNIT(LENGTH_MEASURE(1.E-8),#759,
'DISTANCE_ACCURACY_VALUE','Maximum Tolerance applied to model');
#757=(
NAMED_UNIT(*)
SI_UNIT($,.STERADIAN.)
SOLID_ANGLE_UNIT()
);
#758=(
NAMED_UNIT(*)
PLANE_ANGLE_UNIT()
SI_UNIT($,.RADIAN.)
);
#759=(
LENGTH_UNIT()
NAMED_UNIT(*)
SI_UNIT($,.METRE.)
);
#760=PRODUCT_DEFINITION_SHAPE('','',#761);
#761=PRODUCT_DEFINITION('','',#763,#762);
#762=PRODUCT_DEFINITION_CONTEXT('',#769,'design');
#763=PRODUCT_DEFINITION_FORMATION_WITH_SPECIFIED_SOURCE('','',#765,
 .NOT_KNOWN.);
#764=PRODUCT_RELATED_PRODUCT_CATEGORY('','',(#765));
#765=PRODUCT('Ballast Rod','Ballast Rod','Ballast Rod',(#767));
#766=PRODUCT_CATEGORY('','');
#767=PRODUCT_CONTEXT('',#769,'mechanical');
#768=APPLICATION_PROTOCOL_DEFINITION('international standard',
'ap242_managed_model_based_3d_engineering',2020,#769);
#769=APPLICATION_CONTEXT('managed model based 3d engineering');
ENDSEC;
END-ISO-10303-21;
