ISO-10303-21;
HEADER;
/* Generated by software containing ST-Developer
 * from STEP Tools, Inc. (www.steptools.com) 
 */
/* OPTION: using custom renumber hook */

FILE_DESCRIPTION(
/* description */ ('STEP AP242 Edition 2',
'CAx-IF Rec.Pracs.---Representation and Presentation of Product Manufa
cturing Information (PMI)---4.0---2014-10-13',
'CAx-IF Rec.Pracs.---3D Tessellated Geometry---0.4---2014-09-14','2;1',
'CAx-IF Rec.Pracs.---User Defined Attributes---1.5---2016-08-15'),
/* implementation_level */ '2;1');

FILE_NAME(
/* name */ 'Servo Mount - Servo Mount',
/* time_stamp */ '2026-08-23T20:35:05Z',
/* author */ (''),
/* organization */ (''),
/* preprocessor_version */ 'ST-DEVELOPER v20',
/* originating_system */ 'ONSHAPE BY PTC INC, 1.219',
/* authorisation */ '  ');

FILE_SCHEMA (('AP242_MANAGED_MODEL_BASED_3D_ENGINEERING_MIM_LF { 1 0 10303 442 3 1 4 }'));
ENDSEC;

DATA;
#10=SHAPE_REPRESENTATION_RELATIONSHIP('','',#743,#11);
#11=ADVANCED_BREP_SHAPE_REPRESENTATION('',(#741),#1203);
#12=CYLINDRICAL_SURFACE('',#756,0.0331);
#13=CYLINDRICAL_SURFACE('',#759,0.0331);
#14=CYLINDRICAL_SURFACE('',#762,0.023334523779156);
#15=CYLINDRICAL_SURFACE('',#764,0.0331);
#16=CYLINDRICAL_SURFACE('',#767,0.0233345237791561);
#17=CYLINDRICAL_SURFACE('',#769,0.0331);
#18=CYLINDRICAL_SURFACE('',#772,0.023334523779156);
#19=CYLINDRICAL_SURFACE('',#774,0.023334523779156);
#20=CYLINDRICAL_SURFACE('',#779,0.0381);
#21=CIRCLE('',#746,0.0331);
#22=CIRCLE('',#747,0.023334523779156);
#23=CIRCLE('',#748,0.0331);
#24=CIRCLE('',#749,0.0233345237791561);
#25=CIRCLE('',#750,0.0331);
#26=CIRCLE('',#751,0.023334523779156);
#27=CIRCLE('',#752,0.0331);
#28=CIRCLE('',#753,0.023334523779156);
#29=CIRCLE('',#754,0.0381);
#30=CIRCLE('',#757,0.0331);
#31=CIRCLE('',#760,0.0331);
#32=CIRCLE('',#763,0.023334523779156);
#33=CIRCLE('',#765,0.0331);
#34=CIRCLE('',#768,0.0233345237791561);
#35=CIRCLE('',#770,0.0331);
#36=CIRCLE('',#773,0.023334523779156);
#37=CIRCLE('',#775,0.023334523779156);
#38=CIRCLE('',#780,0.0381);
#39=ORIENTED_EDGE('',*,*,#235,.F.);
#40=ORIENTED_EDGE('',*,*,#236,.F.);
#41=ORIENTED_EDGE('',*,*,#237,.T.);
#42=ORIENTED_EDGE('',*,*,#238,.F.);
#43=ORIENTED_EDGE('',*,*,#239,.F.);
#44=ORIENTED_EDGE('',*,*,#240,.T.);
#45=ORIENTED_EDGE('',*,*,#241,.F.);
#46=ORIENTED_EDGE('',*,*,#242,.T.);
#47=ORIENTED_EDGE('',*,*,#243,.F.);
#48=ORIENTED_EDGE('',*,*,#244,.F.);
#49=ORIENTED_EDGE('',*,*,#245,.T.);
#50=ORIENTED_EDGE('',*,*,#246,.T.);
#51=ORIENTED_EDGE('',*,*,#247,.F.);
#52=ORIENTED_EDGE('',*,*,#248,.F.);
#53=ORIENTED_EDGE('',*,*,#249,.T.);
#54=ORIENTED_EDGE('',*,*,#250,.T.);
#55=ORIENTED_EDGE('',*,*,#251,.F.);
#56=ORIENTED_EDGE('',*,*,#252,.F.);
#57=ORIENTED_EDGE('',*,*,#253,.T.);
#58=ORIENTED_EDGE('',*,*,#254,.T.);
#59=ORIENTED_EDGE('',*,*,#255,.T.);
#60=ORIENTED_EDGE('',*,*,#256,.F.);
#61=ORIENTED_EDGE('',*,*,#257,.F.);
#62=ORIENTED_EDGE('',*,*,#258,.T.);
#63=ORIENTED_EDGE('',*,*,#259,.T.);
#64=ORIENTED_EDGE('',*,*,#260,.T.);
#65=ORIENTED_EDGE('',*,*,#261,.T.);
#66=ORIENTED_EDGE('',*,*,#262,.F.);
#67=ORIENTED_EDGE('',*,*,#263,.F.);
#68=ORIENTED_EDGE('',*,*,#264,.T.);
#69=ORIENTED_EDGE('',*,*,#265,.T.);
#70=ORIENTED_EDGE('',*,*,#266,.T.);
#71=ORIENTED_EDGE('',*,*,#267,.F.);
#72=ORIENTED_EDGE('',*,*,#268,.T.);
#73=ORIENTED_EDGE('',*,*,#269,.F.);
#74=ORIENTED_EDGE('',*,*,#255,.F.);
#75=ORIENTED_EDGE('',*,*,#270,.T.);
#76=ORIENTED_EDGE('',*,*,#271,.F.);
#77=ORIENTED_EDGE('',*,*,#272,.F.);
#78=ORIENTED_EDGE('',*,*,#256,.T.);
#79=ORIENTED_EDGE('',*,*,#269,.T.);
#80=ORIENTED_EDGE('',*,*,#273,.F.);
#81=ORIENTED_EDGE('',*,*,#274,.F.);
#82=ORIENTED_EDGE('',*,*,#257,.T.);
#83=ORIENTED_EDGE('',*,*,#272,.T.);
#84=ORIENTED_EDGE('',*,*,#275,.F.);
#85=ORIENTED_EDGE('',*,*,#276,.F.);
#86=ORIENTED_EDGE('',*,*,#251,.T.);
#87=ORIENTED_EDGE('',*,*,#277,.T.);
#88=ORIENTED_EDGE('',*,*,#278,.F.);
#89=ORIENTED_EDGE('',*,*,#279,.F.);
#90=ORIENTED_EDGE('',*,*,#252,.T.);
#91=ORIENTED_EDGE('',*,*,#276,.T.);
#92=ORIENTED_EDGE('',*,*,#280,.T.);
#93=ORIENTED_EDGE('',*,*,#281,.F.);
#94=ORIENTED_EDGE('',*,*,#253,.F.);
#95=ORIENTED_EDGE('',*,*,#279,.T.);
#96=ORIENTED_EDGE('',*,*,#282,.F.);
#97=ORIENTED_EDGE('',*,*,#283,.F.);
#98=ORIENTED_EDGE('',*,*,#247,.T.);
#99=ORIENTED_EDGE('',*,*,#284,.T.);
#100=ORIENTED_EDGE('',*,*,#285,.F.);
#101=ORIENTED_EDGE('',*,*,#286,.F.);
#102=ORIENTED_EDGE('',*,*,#248,.T.);
#103=ORIENTED_EDGE('',*,*,#283,.T.);
#104=ORIENTED_EDGE('',*,*,#287,.T.);
#105=ORIENTED_EDGE('',*,*,#288,.F.);
#106=ORIENTED_EDGE('',*,*,#249,.F.);
#107=ORIENTED_EDGE('',*,*,#286,.T.);
#108=ORIENTED_EDGE('',*,*,#289,.F.);
#109=ORIENTED_EDGE('',*,*,#290,.F.);
#110=ORIENTED_EDGE('',*,*,#243,.T.);
#111=ORIENTED_EDGE('',*,*,#291,.T.);
#112=ORIENTED_EDGE('',*,*,#292,.F.);
#113=ORIENTED_EDGE('',*,*,#293,.F.);
#114=ORIENTED_EDGE('',*,*,#244,.T.);
#115=ORIENTED_EDGE('',*,*,#290,.T.);
#116=ORIENTED_EDGE('',*,*,#294,.T.);
#117=ORIENTED_EDGE('',*,*,#295,.F.);
#118=ORIENTED_EDGE('',*,*,#245,.F.);
#119=ORIENTED_EDGE('',*,*,#293,.T.);
#120=ORIENTED_EDGE('',*,*,#296,.T.);
#121=ORIENTED_EDGE('',*,*,#270,.F.);
#122=ORIENTED_EDGE('',*,*,#258,.F.);
#123=ORIENTED_EDGE('',*,*,#274,.T.);
#124=ORIENTED_EDGE('',*,*,#297,.T.);
#125=ORIENTED_EDGE('',*,*,#277,.F.);
#126=ORIENTED_EDGE('',*,*,#254,.F.);
#127=ORIENTED_EDGE('',*,*,#281,.T.);
#128=ORIENTED_EDGE('',*,*,#298,.T.);
#129=ORIENTED_EDGE('',*,*,#284,.F.);
#130=ORIENTED_EDGE('',*,*,#250,.F.);
#131=ORIENTED_EDGE('',*,*,#288,.T.);
#132=ORIENTED_EDGE('',*,*,#299,.T.);
#133=ORIENTED_EDGE('',*,*,#291,.F.);
#134=ORIENTED_EDGE('',*,*,#246,.F.);
#135=ORIENTED_EDGE('',*,*,#295,.T.);
#136=ORIENTED_EDGE('',*,*,#259,.F.);
#137=ORIENTED_EDGE('',*,*,#300,.T.);
#138=ORIENTED_EDGE('',*,*,#289,.T.);
#139=ORIENTED_EDGE('',*,*,#299,.F.);
#140=ORIENTED_EDGE('',*,*,#294,.F.);
#141=ORIENTED_EDGE('',*,*,#292,.T.);
#142=ORIENTED_EDGE('',*,*,#282,.T.);
#143=ORIENTED_EDGE('',*,*,#298,.F.);
#144=ORIENTED_EDGE('',*,*,#287,.F.);
#145=ORIENTED_EDGE('',*,*,#285,.T.);
#146=ORIENTED_EDGE('',*,*,#275,.T.);
#147=ORIENTED_EDGE('',*,*,#297,.F.);
#148=ORIENTED_EDGE('',*,*,#280,.F.);
#149=ORIENTED_EDGE('',*,*,#278,.T.);
#150=ORIENTED_EDGE('',*,*,#268,.F.);
#151=ORIENTED_EDGE('',*,*,#296,.F.);
#152=ORIENTED_EDGE('',*,*,#273,.T.);
#153=ORIENTED_EDGE('',*,*,#271,.T.);
#154=ORIENTED_EDGE('',*,*,#300,.F.);
#155=ORIENTED_EDGE('',*,*,#301,.T.);
#156=ORIENTED_EDGE('',*,*,#239,.T.);
#157=ORIENTED_EDGE('',*,*,#302,.F.);
#158=ORIENTED_EDGE('',*,*,#303,.T.);
#159=ORIENTED_EDGE('',*,*,#242,.F.);
#160=ORIENTED_EDGE('',*,*,#304,.F.);
#161=ORIENTED_EDGE('',*,*,#305,.F.);
#162=ORIENTED_EDGE('',*,*,#302,.T.);
#163=ORIENTED_EDGE('',*,*,#304,.T.);
#164=ORIENTED_EDGE('',*,*,#241,.T.);
#165=ORIENTED_EDGE('',*,*,#306,.F.);
#166=ORIENTED_EDGE('',*,*,#307,.T.);
#167=ORIENTED_EDGE('',*,*,#240,.F.);
#168=ORIENTED_EDGE('',*,*,#301,.F.);
#169=ORIENTED_EDGE('',*,*,#308,.F.);
#170=ORIENTED_EDGE('',*,*,#306,.T.);
#171=ORIENTED_EDGE('',*,*,#303,.F.);
#172=ORIENTED_EDGE('',*,*,#305,.T.);
#173=ORIENTED_EDGE('',*,*,#307,.F.);
#174=ORIENTED_EDGE('',*,*,#308,.T.);
#175=ORIENTED_EDGE('',*,*,#261,.F.);
#176=ORIENTED_EDGE('',*,*,#309,.F.);
#177=ORIENTED_EDGE('',*,*,#310,.F.);
#178=ORIENTED_EDGE('',*,*,#311,.T.);
#179=ORIENTED_EDGE('',*,*,#260,.F.);
#180=ORIENTED_EDGE('',*,*,#312,.F.);
#181=ORIENTED_EDGE('',*,*,#313,.F.);
#182=ORIENTED_EDGE('',*,*,#309,.T.);
#183=ORIENTED_EDGE('',*,*,#312,.T.);
#184=ORIENTED_EDGE('',*,*,#263,.T.);
#185=ORIENTED_EDGE('',*,*,#314,.F.);
#186=ORIENTED_EDGE('',*,*,#315,.T.);
#187=ORIENTED_EDGE('',*,*,#314,.T.);
#188=ORIENTED_EDGE('',*,*,#262,.T.);
#189=ORIENTED_EDGE('',*,*,#311,.F.);
#190=ORIENTED_EDGE('',*,*,#316,.T.);
#191=ORIENTED_EDGE('',*,*,#310,.T.);
#192=ORIENTED_EDGE('',*,*,#313,.T.);
#193=ORIENTED_EDGE('',*,*,#315,.F.);
#194=ORIENTED_EDGE('',*,*,#316,.F.);
#195=ORIENTED_EDGE('',*,*,#265,.F.);
#196=ORIENTED_EDGE('',*,*,#317,.F.);
#197=ORIENTED_EDGE('',*,*,#318,.F.);
#198=ORIENTED_EDGE('',*,*,#319,.T.);
#199=ORIENTED_EDGE('',*,*,#264,.F.);
#200=ORIENTED_EDGE('',*,*,#320,.F.);
#201=ORIENTED_EDGE('',*,*,#321,.F.);
#202=ORIENTED_EDGE('',*,*,#317,.T.);
#203=ORIENTED_EDGE('',*,*,#320,.T.);
#204=ORIENTED_EDGE('',*,*,#267,.T.);
#205=ORIENTED_EDGE('',*,*,#322,.F.);
#206=ORIENTED_EDGE('',*,*,#323,.T.);
#207=ORIENTED_EDGE('',*,*,#266,.F.);
#208=ORIENTED_EDGE('',*,*,#319,.F.);
#209=ORIENTED_EDGE('',*,*,#324,.F.);
#210=ORIENTED_EDGE('',*,*,#322,.T.);
#211=ORIENTED_EDGE('',*,*,#318,.T.);
#212=ORIENTED_EDGE('',*,*,#321,.T.);
#213=ORIENTED_EDGE('',*,*,#323,.F.);
#214=ORIENTED_EDGE('',*,*,#324,.T.);
#215=ORIENTED_EDGE('',*,*,#325,.T.);
#216=ORIENTED_EDGE('',*,*,#235,.T.);
#217=ORIENTED_EDGE('',*,*,#326,.F.);
#218=ORIENTED_EDGE('',*,*,#327,.T.);
#219=ORIENTED_EDGE('',*,*,#326,.T.);
#220=ORIENTED_EDGE('',*,*,#238,.T.);
#221=ORIENTED_EDGE('',*,*,#328,.F.);
#222=ORIENTED_EDGE('',*,*,#329,.T.);
#223=ORIENTED_EDGE('',*,*,#237,.F.);
#224=ORIENTED_EDGE('',*,*,#330,.F.);
#225=ORIENTED_EDGE('',*,*,#331,.F.);
#226=ORIENTED_EDGE('',*,*,#328,.T.);
#227=ORIENTED_EDGE('',*,*,#330,.T.);
#228=ORIENTED_EDGE('',*,*,#236,.T.);
#229=ORIENTED_EDGE('',*,*,#325,.F.);
#230=ORIENTED_EDGE('',*,*,#332,.T.);
#231=ORIENTED_EDGE('',*,*,#327,.F.);
#232=ORIENTED_EDGE('',*,*,#329,.F.);
#233=ORIENTED_EDGE('',*,*,#331,.T.);
#234=ORIENTED_EDGE('',*,*,#332,.F.);
#235=EDGE_CURVE('',#333,#334,#399,.T.);
#236=EDGE_CURVE('',#335,#333,#400,.T.);
#237=EDGE_CURVE('',#335,#336,#401,.T.);
#238=EDGE_CURVE('',#334,#336,#402,.T.);
#239=EDGE_CURVE('',#337,#338,#403,.T.);
#240=EDGE_CURVE('',#337,#339,#404,.T.);
#241=EDGE_CURVE('',#340,#339,#405,.T.);
#242=EDGE_CURVE('',#340,#338,#406,.T.);
#243=EDGE_CURVE('',#341,#342,#21,.T.);
#244=EDGE_CURVE('',#343,#341,#407,.T.);
#245=EDGE_CURVE('',#343,#344,#22,.T.);
#246=EDGE_CURVE('',#344,#342,#408,.T.);
#247=EDGE_CURVE('',#345,#346,#23,.T.);
#248=EDGE_CURVE('',#347,#345,#409,.T.);
#249=EDGE_CURVE('',#347,#348,#24,.T.);
#250=EDGE_CURVE('',#348,#346,#410,.T.);
#251=EDGE_CURVE('',#349,#350,#25,.T.);
#252=EDGE_CURVE('',#351,#349,#411,.T.);
#253=EDGE_CURVE('',#351,#352,#26,.T.);
#254=EDGE_CURVE('',#352,#350,#412,.T.);
#255=EDGE_CURVE('',#353,#354,#413,.T.);
#256=EDGE_CURVE('',#355,#354,#27,.T.);
#257=EDGE_CURVE('',#356,#355,#414,.T.);
#258=EDGE_CURVE('',#356,#353,#28,.T.);
#259=EDGE_CURVE('',#357,#357,#29,.T.);
#260=EDGE_CURVE('',#358,#359,#415,.T.);
#261=EDGE_CURVE('',#359,#360,#416,.T.);
#262=EDGE_CURVE('',#361,#360,#417,.T.);
#263=EDGE_CURVE('',#358,#361,#418,.T.);
#264=EDGE_CURVE('',#362,#363,#419,.T.);
#265=EDGE_CURVE('',#363,#364,#420,.T.);
#266=EDGE_CURVE('',#364,#365,#421,.T.);
#267=EDGE_CURVE('',#362,#365,#422,.T.);
#268=EDGE_CURVE('',#366,#367,#423,.T.);
#269=EDGE_CURVE('',#354,#367,#424,.T.);
#270=EDGE_CURVE('',#353,#366,#425,.T.);
#271=EDGE_CURVE('',#368,#367,#30,.T.);
#272=EDGE_CURVE('',#355,#368,#426,.T.);
#273=EDGE_CURVE('',#369,#368,#427,.T.);
#274=EDGE_CURVE('',#356,#369,#428,.T.);
#275=EDGE_CURVE('',#370,#371,#31,.T.);
#276=EDGE_CURVE('',#349,#370,#429,.T.);
#277=EDGE_CURVE('',#350,#371,#430,.T.);
#278=EDGE_CURVE('',#372,#370,#431,.T.);
#279=EDGE_CURVE('',#351,#372,#432,.T.);
#280=EDGE_CURVE('',#372,#373,#32,.T.);
#281=EDGE_CURVE('',#352,#373,#433,.T.);
#282=EDGE_CURVE('',#374,#375,#33,.T.);
#283=EDGE_CURVE('',#345,#374,#434,.T.);
#284=EDGE_CURVE('',#346,#375,#435,.T.);
#285=EDGE_CURVE('',#376,#374,#436,.T.);
#286=EDGE_CURVE('',#347,#376,#437,.T.);
#287=EDGE_CURVE('',#376,#377,#34,.T.);
#288=EDGE_CURVE('',#348,#377,#438,.T.);
#289=EDGE_CURVE('',#378,#379,#35,.T.);
#290=EDGE_CURVE('',#341,#378,#439,.T.);
#291=EDGE_CURVE('',#342,#379,#440,.T.);
#292=EDGE_CURVE('',#380,#378,#441,.T.);
#293=EDGE_CURVE('',#343,#380,#442,.T.);
#294=EDGE_CURVE('',#380,#381,#36,.T.);
#295=EDGE_CURVE('',#344,#381,#443,.T.);
#296=EDGE_CURVE('',#369,#366,#37,.T.);
#297=EDGE_CURVE('',#373,#371,#444,.T.);
#298=EDGE_CURVE('',#377,#375,#445,.T.);
#299=EDGE_CURVE('',#381,#379,#446,.T.);
#300=EDGE_CURVE('',#382,#382,#38,.T.);
#301=EDGE_CURVE('',#383,#337,#447,.T.);
#302=EDGE_CURVE('',#384,#338,#448,.T.);
#303=EDGE_CURVE('',#384,#383,#449,.T.);
#304=EDGE_CURVE('',#385,#340,#450,.T.);
#305=EDGE_CURVE('',#384,#385,#451,.T.);
#306=EDGE_CURVE('',#386,#339,#452,.T.);
#307=EDGE_CURVE('',#386,#385,#453,.T.);
#308=EDGE_CURVE('',#386,#383,#454,.T.);
#309=EDGE_CURVE('',#387,#359,#455,.T.);
#310=EDGE_CURVE('',#388,#387,#456,.T.);
#311=EDGE_CURVE('',#388,#360,#457,.T.);
#312=EDGE_CURVE('',#389,#358,#458,.T.);
#313=EDGE_CURVE('',#387,#389,#459,.T.);
#314=EDGE_CURVE('',#390,#361,#460,.T.);
#315=EDGE_CURVE('',#390,#389,#461,.T.);
#316=EDGE_CURVE('',#388,#390,#462,.T.);
#317=EDGE_CURVE('',#391,#363,#463,.T.);
#318=EDGE_CURVE('',#392,#391,#464,.T.);
#319=EDGE_CURVE('',#392,#364,#465,.T.);
#320=EDGE_CURVE('',#393,#362,#466,.T.);
#321=EDGE_CURVE('',#391,#393,#467,.T.);
#322=EDGE_CURVE('',#394,#365,#468,.T.);
#323=EDGE_CURVE('',#394,#393,#469,.T.);
#324=EDGE_CURVE('',#394,#392,#470,.T.);
#325=EDGE_CURVE('',#395,#333,#471,.T.);
#326=EDGE_CURVE('',#396,#334,#472,.T.);
#327=EDGE_CURVE('',#396,#395,#473,.T.);
#328=EDGE_CURVE('',#397,#336,#474,.T.);
#329=EDGE_CURVE('',#397,#396,#475,.T.);
#330=EDGE_CURVE('',#398,#335,#476,.T.);
#331=EDGE_CURVE('',#397,#398,#477,.T.);
#332=EDGE_CURVE('',#395,#398,#478,.T.);
#333=VERTEX_POINT('',#1001);
#334=VERTEX_POINT('',#1002);
#335=VERTEX_POINT('',#1004);
#336=VERTEX_POINT('',#1006);
#337=VERTEX_POINT('',#1009);
#338=VERTEX_POINT('',#1010);
#339=VERTEX_POINT('',#1012);
#340=VERTEX_POINT('',#1014);
#341=VERTEX_POINT('',#1017);
#342=VERTEX_POINT('',#1018);
#343=VERTEX_POINT('',#1020);
#344=VERTEX_POINT('',#1022);
#345=VERTEX_POINT('',#1025);
#346=VERTEX_POINT('',#1026);
#347=VERTEX_POINT('',#1028);
#348=VERTEX_POINT('',#1030);
#349=VERTEX_POINT('',#1033);
#350=VERTEX_POINT('',#1034);
#351=VERTEX_POINT('',#1036);
#352=VERTEX_POINT('',#1038);
#353=VERTEX_POINT('',#1041);
#354=VERTEX_POINT('',#1042);
#355=VERTEX_POINT('',#1044);
#356=VERTEX_POINT('',#1046);
#357=VERTEX_POINT('',#1049);
#358=VERTEX_POINT('',#1051);
#359=VERTEX_POINT('',#1052);
#360=VERTEX_POINT('',#1054);
#361=VERTEX_POINT('',#1056);
#362=VERTEX_POINT('',#1059);
#363=VERTEX_POINT('',#1060);
#364=VERTEX_POINT('',#1062);
#365=VERTEX_POINT('',#1064);
#366=VERTEX_POINT('',#1068);
#367=VERTEX_POINT('',#1069);
#368=VERTEX_POINT('',#1074);
#369=VERTEX_POINT('',#1078);
#370=VERTEX_POINT('',#1082);
#371=VERTEX_POINT('',#1083);
#372=VERTEX_POINT('',#1088);
#373=VERTEX_POINT('',#1092);
#374=VERTEX_POINT('',#1096);
#375=VERTEX_POINT('',#1097);
#376=VERTEX_POINT('',#1102);
#377=VERTEX_POINT('',#1106);
#378=VERTEX_POINT('',#1110);
#379=VERTEX_POINT('',#1111);
#380=VERTEX_POINT('',#1116);
#381=VERTEX_POINT('',#1120);
#382=VERTEX_POINT('',#1132);
#383=VERTEX_POINT('',#1136);
#384=VERTEX_POINT('',#1138);
#385=VERTEX_POINT('',#1142);
#386=VERTEX_POINT('',#1146);
#387=VERTEX_POINT('',#1153);
#388=VERTEX_POINT('',#1155);
#389=VERTEX_POINT('',#1159);
#390=VERTEX_POINT('',#1163);
#391=VERTEX_POINT('',#1170);
#392=VERTEX_POINT('',#1172);
#393=VERTEX_POINT('',#1176);
#394=VERTEX_POINT('',#1180);
#395=VERTEX_POINT('',#1187);
#396=VERTEX_POINT('',#1189);
#397=VERTEX_POINT('',#1193);
#398=VERTEX_POINT('',#1197);
#399=LINE('',#1000,#479);
#400=LINE('',#1003,#480);
#401=LINE('',#1005,#481);
#402=LINE('',#1007,#482);
#403=LINE('',#1008,#483);
#404=LINE('',#1011,#484);
#405=LINE('',#1013,#485);
#406=LINE('',#1015,#486);
#407=LINE('',#1019,#487);
#408=LINE('',#1023,#488);
#409=LINE('',#1027,#489);
#410=LINE('',#1031,#490);
#411=LINE('',#1035,#491);
#412=LINE('',#1039,#492);
#413=LINE('',#1040,#493);
#414=LINE('',#1045,#494);
#415=LINE('',#1050,#495);
#416=LINE('',#1053,#496);
#417=LINE('',#1055,#497);
#418=LINE('',#1057,#498);
#419=LINE('',#1058,#499);
#420=LINE('',#1061,#500);
#421=LINE('',#1063,#501);
#422=LINE('',#1065,#502);
#423=LINE('',#1067,#503);
#424=LINE('',#1070,#504);
#425=LINE('',#1071,#505);
#426=LINE('',#1075,#506);
#427=LINE('',#1077,#507);
#428=LINE('',#1079,#508);
#429=LINE('',#1084,#509);
#430=LINE('',#1085,#510);
#431=LINE('',#1087,#511);
#432=LINE('',#1089,#512);
#433=LINE('',#1093,#513);
#434=LINE('',#1098,#514);
#435=LINE('',#1099,#515);
#436=LINE('',#1101,#516);
#437=LINE('',#1103,#517);
#438=LINE('',#1107,#518);
#439=LINE('',#1112,#519);
#440=LINE('',#1113,#520);
#441=LINE('',#1115,#521);
#442=LINE('',#1117,#522);
#443=LINE('',#1121,#523);
#444=LINE('',#1125,#524);
#445=LINE('',#1127,#525);
#446=LINE('',#1129,#526);
#447=LINE('',#1135,#527);
#448=LINE('',#1137,#528);
#449=LINE('',#1139,#529);
#450=LINE('',#1141,#530);
#451=LINE('',#1143,#531);
#452=LINE('',#1145,#532);
#453=LINE('',#1147,#533);
#454=LINE('',#1149,#534);
#455=LINE('',#1152,#535);
#456=LINE('',#1154,#536);
#457=LINE('',#1156,#537);
#458=LINE('',#1158,#538);
#459=LINE('',#1160,#539);
#460=LINE('',#1162,#540);
#461=LINE('',#1164,#541);
#462=LINE('',#1166,#542);
#463=LINE('',#1169,#543);
#464=LINE('',#1171,#544);
#465=LINE('',#1173,#545);
#466=LINE('',#1175,#546);
#467=LINE('',#1177,#547);
#468=LINE('',#1179,#548);
#469=LINE('',#1181,#549);
#470=LINE('',#1183,#550);
#471=LINE('',#1186,#551);
#472=LINE('',#1188,#552);
#473=LINE('',#1190,#553);
#474=LINE('',#1192,#554);
#475=LINE('',#1194,#555);
#476=LINE('',#1196,#556);
#477=LINE('',#1198,#557);
#478=LINE('',#1200,#558);
#479=VECTOR('',#806,1.);
#480=VECTOR('',#807,1.);
#481=VECTOR('',#808,1.);
#482=VECTOR('',#809,1.);
#483=VECTOR('',#810,1.);
#484=VECTOR('',#811,1.);
#485=VECTOR('',#812,1.);
#486=VECTOR('',#813,1.);
#487=VECTOR('',#816,1.);
#488=VECTOR('',#819,1.);
#489=VECTOR('',#822,1.);
#490=VECTOR('',#825,1.);
#491=VECTOR('',#828,1.);
#492=VECTOR('',#831,1.);
#493=VECTOR('',#832,1.);
#494=VECTOR('',#835,1.);
#495=VECTOR('',#840,1.);
#496=VECTOR('',#841,1.);
#497=VECTOR('',#842,1.);
#498=VECTOR('',#843,1.);
#499=VECTOR('',#844,1.);
#500=VECTOR('',#845,1.);
#501=VECTOR('',#846,1.);
#502=VECTOR('',#847,1.);
#503=VECTOR('',#850,1.);
#504=VECTOR('',#851,1.);
#505=VECTOR('',#852,1.);
#506=VECTOR('',#857,1.);
#507=VECTOR('',#860,1.);
#508=VECTOR('',#861,1.);
#509=VECTOR('',#866,1.);
#510=VECTOR('',#867,1.);
#511=VECTOR('',#870,1.);
#512=VECTOR('',#871,1.);
#513=VECTOR('',#876,1.);
#514=VECTOR('',#881,1.);
#515=VECTOR('',#882,1.);
#516=VECTOR('',#885,1.);
#517=VECTOR('',#886,1.);
#518=VECTOR('',#891,1.);
#519=VECTOR('',#896,1.);
#520=VECTOR('',#897,1.);
#521=VECTOR('',#900,1.);
#522=VECTOR('',#901,1.);
#523=VECTOR('',#906,1.);
#524=VECTOR('',#913,1.);
#525=VECTOR('',#916,1.);
#526=VECTOR('',#919,1.);
#527=VECTOR('',#928,1.);
#528=VECTOR('',#929,1.);
#529=VECTOR('',#930,1.);
#530=VECTOR('',#933,1.);
#531=VECTOR('',#934,1.);
#532=VECTOR('',#937,1.);
#533=VECTOR('',#938,1.);
#534=VECTOR('',#941,1.);
#535=VECTOR('',#946,1.);
#536=VECTOR('',#947,1.);
#537=VECTOR('',#948,1.);
#538=VECTOR('',#951,1.);
#539=VECTOR('',#952,1.);
#540=VECTOR('',#955,1.);
#541=VECTOR('',#956,1.);
#542=VECTOR('',#959,1.);
#543=VECTOR('',#964,1.);
#544=VECTOR('',#965,1.);
#545=VECTOR('',#966,1.);
#546=VECTOR('',#969,1.);
#547=VECTOR('',#970,1.);
#548=VECTOR('',#973,1.);
#549=VECTOR('',#974,1.);
#550=VECTOR('',#977,1.);
#551=VECTOR('',#982,1.);
#552=VECTOR('',#983,1.);
#553=VECTOR('',#984,1.);
#554=VECTOR('',#987,1.);
#555=VECTOR('',#988,1.);
#556=VECTOR('',#991,1.);
#557=VECTOR('',#992,1.);
#558=VECTOR('',#995,1.);
#559=EDGE_LOOP('',(#39,#40,#41,#42));
#560=EDGE_LOOP('',(#43,#44,#45,#46));
#561=EDGE_LOOP('',(#47,#48,#49,#50));
#562=EDGE_LOOP('',(#51,#52,#53,#54));
#563=EDGE_LOOP('',(#55,#56,#57,#58));
#564=EDGE_LOOP('',(#59,#60,#61,#62));
#565=EDGE_LOOP('',(#63));
#566=EDGE_LOOP('',(#64,#65,#66,#67));
#567=EDGE_LOOP('',(#68,#69,#70,#71));
#568=EDGE_LOOP('',(#72,#73,#74,#75));
#569=EDGE_LOOP('',(#76,#77,#78,#79));
#570=EDGE_LOOP('',(#80,#81,#82,#83));
#571=EDGE_LOOP('',(#84,#85,#86,#87));
#572=EDGE_LOOP('',(#88,#89,#90,#91));
#573=EDGE_LOOP('',(#92,#93,#94,#95));
#574=EDGE_LOOP('',(#96,#97,#98,#99));
#575=EDGE_LOOP('',(#100,#101,#102,#103));
#576=EDGE_LOOP('',(#104,#105,#106,#107));
#577=EDGE_LOOP('',(#108,#109,#110,#111));
#578=EDGE_LOOP('',(#112,#113,#114,#115));
#579=EDGE_LOOP('',(#116,#117,#118,#119));
#580=EDGE_LOOP('',(#120,#121,#122,#123));
#581=EDGE_LOOP('',(#124,#125,#126,#127));
#582=EDGE_LOOP('',(#128,#129,#130,#131));
#583=EDGE_LOOP('',(#132,#133,#134,#135));
#584=EDGE_LOOP('',(#136));
#585=EDGE_LOOP('',(#137));
#586=EDGE_LOOP('',(#138,#139,#140,#141));
#587=EDGE_LOOP('',(#142,#143,#144,#145));
#588=EDGE_LOOP('',(#146,#147,#148,#149));
#589=EDGE_LOOP('',(#150,#151,#152,#153));
#590=EDGE_LOOP('',(#154));
#591=EDGE_LOOP('',(#155,#156,#157,#158));
#592=EDGE_LOOP('',(#159,#160,#161,#162));
#593=EDGE_LOOP('',(#163,#164,#165,#166));
#594=EDGE_LOOP('',(#167,#168,#169,#170));
#595=EDGE_LOOP('',(#171,#172,#173,#174));
#596=EDGE_LOOP('',(#175,#176,#177,#178));
#597=EDGE_LOOP('',(#179,#180,#181,#182));
#598=EDGE_LOOP('',(#183,#184,#185,#186));
#599=EDGE_LOOP('',(#187,#188,#189,#190));
#600=EDGE_LOOP('',(#191,#192,#193,#194));
#601=EDGE_LOOP('',(#195,#196,#197,#198));
#602=EDGE_LOOP('',(#199,#200,#201,#202));
#603=EDGE_LOOP('',(#203,#204,#205,#206));
#604=EDGE_LOOP('',(#207,#208,#209,#210));
#605=EDGE_LOOP('',(#211,#212,#213,#214));
#606=EDGE_LOOP('',(#215,#216,#217,#218));
#607=EDGE_LOOP('',(#219,#220,#221,#222));
#608=EDGE_LOOP('',(#223,#224,#225,#226));
#609=EDGE_LOOP('',(#227,#228,#229,#230));
#610=EDGE_LOOP('',(#231,#232,#233,#234));
#611=FACE_BOUND('',#559,.T.);
#612=FACE_BOUND('',#560,.T.);
#613=FACE_BOUND('',#561,.T.);
#614=FACE_BOUND('',#562,.T.);
#615=FACE_BOUND('',#563,.T.);
#616=FACE_BOUND('',#564,.T.);
#617=FACE_BOUND('',#565,.T.);
#618=FACE_BOUND('',#566,.T.);
#619=FACE_BOUND('',#567,.T.);
#620=FACE_BOUND('',#568,.T.);
#621=FACE_BOUND('',#569,.T.);
#622=FACE_BOUND('',#570,.T.);
#623=FACE_BOUND('',#571,.T.);
#624=FACE_BOUND('',#572,.T.);
#625=FACE_BOUND('',#573,.T.);
#626=FACE_BOUND('',#574,.T.);
#627=FACE_BOUND('',#575,.T.);
#628=FACE_BOUND('',#576,.T.);
#629=FACE_BOUND('',#577,.T.);
#630=FACE_BOUND('',#578,.T.);
#631=FACE_BOUND('',#579,.T.);
#632=FACE_BOUND('',#580,.T.);
#633=FACE_BOUND('',#581,.T.);
#634=FACE_BOUND('',#582,.T.);
#635=FACE_BOUND('',#583,.T.);
#636=FACE_BOUND('',#584,.T.);
#637=FACE_BOUND('',#585,.T.);
#638=FACE_BOUND('',#586,.T.);
#639=FACE_BOUND('',#587,.T.);
#640=FACE_BOUND('',#588,.T.);
#641=FACE_BOUND('',#589,.T.);
#642=FACE_BOUND('',#590,.T.);
#643=FACE_BOUND('',#591,.T.);
#644=FACE_BOUND('',#592,.T.);
#645=FACE_BOUND('',#593,.T.);
#646=FACE_BOUND('',#594,.T.);
#647=FACE_BOUND('',#595,.T.);
#648=FACE_BOUND('',#596,.T.);
#649=FACE_BOUND('',#597,.T.);
#650=FACE_BOUND('',#598,.T.);
#651=FACE_BOUND('',#599,.T.);
#652=FACE_BOUND('',#600,.T.);
#653=FACE_BOUND('',#601,.T.);
#654=FACE_BOUND('',#602,.T.);
#655=FACE_BOUND('',#603,.T.);
#656=FACE_BOUND('',#604,.T.);
#657=FACE_BOUND('',#605,.T.);
#658=FACE_BOUND('',#606,.T.);
#659=FACE_BOUND('',#607,.T.);
#660=FACE_BOUND('',#608,.T.);
#661=FACE_BOUND('',#609,.T.);
#662=FACE_BOUND('',#610,.T.);
#663=PLANE('',#745);
#664=PLANE('',#755);
#665=PLANE('',#758);
#666=PLANE('',#761);
#667=PLANE('',#766);
#668=PLANE('',#771);
#669=PLANE('',#776);
#670=PLANE('',#777);
#671=PLANE('',#778);
#672=PLANE('',#781);
#673=PLANE('',#782);
#674=PLANE('',#783);
#675=PLANE('',#784);
#676=PLANE('',#785);
#677=PLANE('',#786);
#678=PLANE('',#787);
#679=PLANE('',#788);
#680=PLANE('',#789);
#681=PLANE('',#790);
#682=PLANE('',#791);
#683=PLANE('',#792);
#684=PLANE('',#793);
#685=PLANE('',#794);
#686=PLANE('',#795);
#687=PLANE('',#796);
#688=PLANE('',#797);
#689=PLANE('',#798);
#690=PLANE('',#799);
#691=PLANE('',#800);
#692=PLANE('',#801);
#693=ADVANCED_FACE('',(#611,#612,#613,#614,#615,#616,#617,#618,#619),#663,
 .T.);
#694=ADVANCED_FACE('',(#620),#664,.F.);
#695=ADVANCED_FACE('',(#621),#12,.F.);
#696=ADVANCED_FACE('',(#622),#665,.T.);
#697=ADVANCED_FACE('',(#623),#13,.F.);
#698=ADVANCED_FACE('',(#624),#666,.T.);
#699=ADVANCED_FACE('',(#625),#14,.T.);
#700=ADVANCED_FACE('',(#626),#15,.F.);
#701=ADVANCED_FACE('',(#627),#667,.T.);
#702=ADVANCED_FACE('',(#628),#16,.T.);
#703=ADVANCED_FACE('',(#629),#17,.F.);
#704=ADVANCED_FACE('',(#630),#668,.T.);
#705=ADVANCED_FACE('',(#631),#18,.T.);
#706=ADVANCED_FACE('',(#632),#19,.T.);
#707=ADVANCED_FACE('',(#633),#669,.F.);
#708=ADVANCED_FACE('',(#634),#670,.F.);
#709=ADVANCED_FACE('',(#635),#671,.F.);
#710=ADVANCED_FACE('',(#636,#637),#20,.T.);
#711=ADVANCED_FACE('',(#638,#639,#640,#641,#642),#672,.F.);
#712=ADVANCED_FACE('',(#643),#673,.T.);
#713=ADVANCED_FACE('',(#644),#674,.F.);
#714=ADVANCED_FACE('',(#645),#675,.T.);
#715=ADVANCED_FACE('',(#646),#676,.F.);
#716=ADVANCED_FACE('',(#647),#677,.T.);
#717=ADVANCED_FACE('',(#648),#678,.F.);
#718=ADVANCED_FACE('',(#649),#679,.F.);
#719=ADVANCED_FACE('',(#650),#680,.T.);
#720=ADVANCED_FACE('',(#651),#681,.T.);
#721=ADVANCED_FACE('',(#652),#682,.T.);
#722=ADVANCED_FACE('',(#653),#683,.F.);
#723=ADVANCED_FACE('',(#654),#684,.F.);
#724=ADVANCED_FACE('',(#655),#685,.T.);
#725=ADVANCED_FACE('',(#656),#686,.F.);
#726=ADVANCED_FACE('',(#657),#687,.T.);
#727=ADVANCED_FACE('',(#658),#688,.T.);
#728=ADVANCED_FACE('',(#659),#689,.T.);
#729=ADVANCED_FACE('',(#660),#690,.F.);
#730=ADVANCED_FACE('',(#661),#691,.T.);
#731=ADVANCED_FACE('',(#662),#692,.T.);
#732=CLOSED_SHELL('',(#693,#694,#695,#696,#697,#698,#699,#700,#701,#702,
#703,#704,#705,#706,#707,#708,#709,#710,#711,#712,#713,#714,#715,#716,#717,
#718,#719,#720,#721,#722,#723,#724,#725,#726,#727,#728,#729,#730,#731));
#733=STYLED_ITEM('',(#734),#741);
#734=PRESENTATION_STYLE_ASSIGNMENT((#735));
#735=SURFACE_STYLE_USAGE(.BOTH.,#736);
#736=SURFACE_SIDE_STYLE('',(#737));
#737=SURFACE_STYLE_FILL_AREA(#738);
#738=FILL_AREA_STYLE('',(#739));
#739=FILL_AREA_STYLE_COLOUR('',#740);
#740=COLOUR_RGB('',0.615686274509804,0.811764705882353,0.929411764705882);
#741=MANIFOLD_SOLID_BREP('Servo Mount',#732);
#742=SHAPE_DEFINITION_REPRESENTATION(#1208,#743);
#743=SHAPE_REPRESENTATION('Servo Mount',(#744),#1203);
#744=AXIS2_PLACEMENT_3D('',#998,#802,#803);
#745=AXIS2_PLACEMENT_3D('',#999,#804,#805);
#746=AXIS2_PLACEMENT_3D('',#1016,#814,#815);
#747=AXIS2_PLACEMENT_3D('',#1021,#817,#818);
#748=AXIS2_PLACEMENT_3D('',#1024,#820,#821);
#749=AXIS2_PLACEMENT_3D('',#1029,#823,#824);
#750=AXIS2_PLACEMENT_3D('',#1032,#826,#827);
#751=AXIS2_PLACEMENT_3D('',#1037,#829,#830);
#752=AXIS2_PLACEMENT_3D('',#1043,#833,#834);
#753=AXIS2_PLACEMENT_3D('',#1047,#836,#837);
#754=AXIS2_PLACEMENT_3D('',#1048,#838,#839);
#755=AXIS2_PLACEMENT_3D('',#1066,#848,#849);
#756=AXIS2_PLACEMENT_3D('',#1072,#853,#854);
#757=AXIS2_PLACEMENT_3D('',#1073,#855,#856);
#758=AXIS2_PLACEMENT_3D('',#1076,#858,#859);
#759=AXIS2_PLACEMENT_3D('',#1080,#862,#863);
#760=AXIS2_PLACEMENT_3D('',#1081,#864,#865);
#761=AXIS2_PLACEMENT_3D('',#1086,#868,#869);
#762=AXIS2_PLACEMENT_3D('',#1090,#872,#873);
#763=AXIS2_PLACEMENT_3D('',#1091,#874,#875);
#764=AXIS2_PLACEMENT_3D('',#1094,#877,#878);
#765=AXIS2_PLACEMENT_3D('',#1095,#879,#880);
#766=AXIS2_PLACEMENT_3D('',#1100,#883,#884);
#767=AXIS2_PLACEMENT_3D('',#1104,#887,#888);
#768=AXIS2_PLACEMENT_3D('',#1105,#889,#890);
#769=AXIS2_PLACEMENT_3D('',#1108,#892,#893);
#770=AXIS2_PLACEMENT_3D('',#1109,#894,#895);
#771=AXIS2_PLACEMENT_3D('',#1114,#898,#899);
#772=AXIS2_PLACEMENT_3D('',#1118,#902,#903);
#773=AXIS2_PLACEMENT_3D('',#1119,#904,#905);
#774=AXIS2_PLACEMENT_3D('',#1122,#907,#908);
#775=AXIS2_PLACEMENT_3D('',#1123,#909,#910);
#776=AXIS2_PLACEMENT_3D('',#1124,#911,#912);
#777=AXIS2_PLACEMENT_3D('',#1126,#914,#915);
#778=AXIS2_PLACEMENT_3D('',#1128,#917,#918);
#779=AXIS2_PLACEMENT_3D('',#1130,#920,#921);
#780=AXIS2_PLACEMENT_3D('',#1131,#922,#923);
#781=AXIS2_PLACEMENT_3D('',#1133,#924,#925);
#782=AXIS2_PLACEMENT_3D('',#1134,#926,#927);
#783=AXIS2_PLACEMENT_3D('',#1140,#931,#932);
#784=AXIS2_PLACEMENT_3D('',#1144,#935,#936);
#785=AXIS2_PLACEMENT_3D('',#1148,#939,#940);
#786=AXIS2_PLACEMENT_3D('',#1150,#942,#943);
#787=AXIS2_PLACEMENT_3D('',#1151,#944,#945);
#788=AXIS2_PLACEMENT_3D('',#1157,#949,#950);
#789=AXIS2_PLACEMENT_3D('',#1161,#953,#954);
#790=AXIS2_PLACEMENT_3D('',#1165,#957,#958);
#791=AXIS2_PLACEMENT_3D('',#1167,#960,#961);
#792=AXIS2_PLACEMENT_3D('',#1168,#962,#963);
#793=AXIS2_PLACEMENT_3D('',#1174,#967,#968);
#794=AXIS2_PLACEMENT_3D('',#1178,#971,#972);
#795=AXIS2_PLACEMENT_3D('',#1182,#975,#976);
#796=AXIS2_PLACEMENT_3D('',#1184,#978,#979);
#797=AXIS2_PLACEMENT_3D('',#1185,#980,#981);
#798=AXIS2_PLACEMENT_3D('',#1191,#985,#986);
#799=AXIS2_PLACEMENT_3D('',#1195,#989,#990);
#800=AXIS2_PLACEMENT_3D('',#1199,#993,#994);
#801=AXIS2_PLACEMENT_3D('',#1201,#996,#997);
#802=DIRECTION('',(0.,0.,1.));
#803=DIRECTION('',(1.,0.,0.));
#804=DIRECTION('',(0.,-1.,0.));
#805=DIRECTION('',(1.,0.,0.));
#806=DIRECTION('',(1.,0.,7.70988211545246E-16));
#807=DIRECTION('',(7.70988211545248E-16,0.,-1.));
#808=DIRECTION('',(1.,0.,0.));
#809=DIRECTION('',(0.,0.,1.));
#810=DIRECTION('',(1.,0.,7.70988211545248E-16));
#811=DIRECTION('',(0.,0.,1.));
#812=DIRECTION('',(-1.,0.,0.));
#813=DIRECTION('',(7.70988211545247E-16,0.,-1.));
#814=DIRECTION('',(0.,-1.,0.));
#815=DIRECTION('',(0.,0.,-1.));
#816=DIRECTION('',(0.707106781186548,0.,-0.707106781186547));
#817=DIRECTION('',(0.,-1.,0.));
#818=DIRECTION('',(0.,0.,-1.));
#819=DIRECTION('',(0.70710678118655,0.,0.707106781186546));
#820=DIRECTION('',(0.,-1.,0.));
#821=DIRECTION('',(0.,0.,-1.));
#822=DIRECTION('',(-0.707106781186543,0.,-0.707106781186552));
#823=DIRECTION('',(0.,-1.,0.));
#824=DIRECTION('',(0.,0.,-1.));
#825=DIRECTION('',(0.707106781186545,0.,-0.70710678118655));
#826=DIRECTION('',(0.,-1.,0.));
#827=DIRECTION('',(0.,0.,-1.));
#828=DIRECTION('',(-0.707106781186546,0.,0.70710678118655));
#829=DIRECTION('',(0.,-1.,0.));
#830=DIRECTION('',(0.,0.,-1.));
#831=DIRECTION('',(-0.707106781186548,0.,-0.707106781186547));
#832=DIRECTION('',(-0.707106781186546,0.,0.70710678118655));
#833=DIRECTION('',(0.,-1.,0.));
#834=DIRECTION('',(0.,0.,-1.));
#835=DIRECTION('',(0.707106781186543,0.,0.707106781186552));
#836=DIRECTION('',(0.,-1.,0.));
#837=DIRECTION('',(0.,0.,-1.));
#838=DIRECTION('',(0.,-1.,0.));
#839=DIRECTION('',(0.,0.,-1.));
#840=DIRECTION('',(1.,0.,7.70988211545247E-16));
#841=DIRECTION('',(0.,0.,-1.));
#842=DIRECTION('',(1.,0.,0.));
#843=DIRECTION('',(0.,0.,-1.));
#844=DIRECTION('',(1.,0.,7.70988211545247E-16));
#845=DIRECTION('',(0.,0.,-1.));
#846=DIRECTION('',(-1.,0.,0.));
#847=DIRECTION('',(0.,0.,-1.));
#848=DIRECTION('',(-0.70710678118655,0.,-0.707106781186546));
#849=DIRECTION('',(-0.707106781186546,0.,0.70710678118655));
#850=DIRECTION('',(-0.707106781186546,0.,0.70710678118655));
#851=DIRECTION('',(0.,1.,0.));
#852=DIRECTION('',(0.,1.,0.));
#853=DIRECTION('',(0.,1.,0.));
#854=DIRECTION('',(0.,0.,1.));
#855=DIRECTION('',(0.,-1.,0.));
#856=DIRECTION('',(0.,0.,-1.));
#857=DIRECTION('',(0.,1.,0.));
#858=DIRECTION('',(-0.707106781186552,0.,0.707106781186543));
#859=DIRECTION('',(0.707106781186543,0.,0.707106781186552));
#860=DIRECTION('',(0.707106781186543,0.,0.707106781186552));
#861=DIRECTION('',(0.,1.,0.));
#862=DIRECTION('',(0.,1.,0.));
#863=DIRECTION('',(0.,0.,1.));
#864=DIRECTION('',(0.,-1.,0.));
#865=DIRECTION('',(0.,0.,-1.));
#866=DIRECTION('',(0.,1.,0.));
#867=DIRECTION('',(0.,1.,0.));
#868=DIRECTION('',(-0.70710678118655,0.,-0.707106781186546));
#869=DIRECTION('',(-0.707106781186546,0.,0.70710678118655));
#870=DIRECTION('',(-0.707106781186546,0.,0.70710678118655));
#871=DIRECTION('',(0.,1.,0.));
#872=DIRECTION('',(0.,1.,0.));
#873=DIRECTION('',(0.,0.,1.));
#874=DIRECTION('',(0.,-1.,0.));
#875=DIRECTION('',(0.,0.,-1.));
#876=DIRECTION('',(0.,1.,0.));
#877=DIRECTION('',(0.,1.,0.));
#878=DIRECTION('',(0.,0.,1.));
#879=DIRECTION('',(0.,-1.,0.));
#880=DIRECTION('',(0.,0.,-1.));
#881=DIRECTION('',(0.,1.,0.));
#882=DIRECTION('',(0.,1.,0.));
#883=DIRECTION('',(0.707106781186552,0.,-0.707106781186543));
#884=DIRECTION('',(-0.707106781186543,0.,-0.707106781186552));
#885=DIRECTION('',(-0.707106781186543,0.,-0.707106781186552));
#886=DIRECTION('',(0.,1.,0.));
#887=DIRECTION('',(0.,1.,0.));
#888=DIRECTION('',(0.,0.,1.));
#889=DIRECTION('',(0.,-1.,0.));
#890=DIRECTION('',(0.,0.,-1.));
#891=DIRECTION('',(0.,1.,0.));
#892=DIRECTION('',(0.,1.,0.));
#893=DIRECTION('',(0.,0.,1.));
#894=DIRECTION('',(0.,-1.,0.));
#895=DIRECTION('',(0.,0.,-1.));
#896=DIRECTION('',(0.,1.,0.));
#897=DIRECTION('',(0.,1.,0.));
#898=DIRECTION('',(0.707106781186547,0.,0.707106781186548));
#899=DIRECTION('',(0.707106781186548,0.,-0.707106781186547));
#900=DIRECTION('',(0.707106781186548,0.,-0.707106781186547));
#901=DIRECTION('',(0.,1.,0.));
#902=DIRECTION('',(0.,1.,0.));
#903=DIRECTION('',(0.,0.,1.));
#904=DIRECTION('',(0.,-1.,0.));
#905=DIRECTION('',(0.,0.,-1.));
#906=DIRECTION('',(0.,1.,0.));
#907=DIRECTION('',(0.,1.,0.));
#908=DIRECTION('',(0.,0.,1.));
#909=DIRECTION('',(0.,-1.,0.));
#910=DIRECTION('',(0.,0.,-1.));
#911=DIRECTION('',(0.707106781186547,0.,-0.707106781186548));
#912=DIRECTION('',(-0.707106781186548,0.,-0.707106781186547));
#913=DIRECTION('',(-0.707106781186548,0.,-0.707106781186547));
#914=DIRECTION('',(0.70710678118655,0.,0.707106781186545));
#915=DIRECTION('',(0.707106781186545,0.,-0.70710678118655));
#916=DIRECTION('',(0.707106781186545,0.,-0.70710678118655));
#917=DIRECTION('',(-0.707106781186546,0.,0.70710678118655));
#918=DIRECTION('',(0.70710678118655,0.,0.707106781186546));
#919=DIRECTION('',(0.70710678118655,0.,0.707106781186546));
#920=DIRECTION('',(0.,1.,0.));
#921=DIRECTION('',(0.,0.,1.));
#922=DIRECTION('',(0.,-1.,0.));
#923=DIRECTION('',(0.,0.,-1.));
#924=DIRECTION('',(0.,-1.,0.));
#925=DIRECTION('',(1.,0.,0.));
#926=DIRECTION('',(7.70988211545248E-16,0.,-1.));
#927=DIRECTION('',(-1.,0.,-7.70988211545248E-16));
#928=DIRECTION('',(0.,1.,0.));
#929=DIRECTION('',(0.,1.,0.));
#930=DIRECTION('',(-1.,0.,-7.70988211545248E-16));
#931=DIRECTION('',(-1.,0.,-7.70988211545247E-16));
#932=DIRECTION('',(-7.70988211545247E-16,0.,1.));
#933=DIRECTION('',(0.,1.,0.));
#934=DIRECTION('',(-7.70988211545247E-16,0.,1.));
#935=DIRECTION('',(0.,0.,1.));
#936=DIRECTION('',(1.,0.,0.));
#937=DIRECTION('',(0.,1.,0.));
#938=DIRECTION('',(1.,0.,0.));
#939=DIRECTION('',(1.,0.,0.));
#940=DIRECTION('',(0.,0.,-1.));
#941=DIRECTION('',(0.,0.,-1.));
#942=DIRECTION('',(0.,-1.,0.));
#943=DIRECTION('',(1.,0.,0.));
#944=DIRECTION('',(-1.,0.,0.));
#945=DIRECTION('',(0.,0.,1.));
#946=DIRECTION('',(0.,1.,0.));
#947=DIRECTION('',(0.,0.,1.));
#948=DIRECTION('',(0.,1.,0.));
#949=DIRECTION('',(7.70988211545247E-16,0.,-1.));
#950=DIRECTION('',(-1.,0.,-7.70988211545247E-16));
#951=DIRECTION('',(0.,1.,0.));
#952=DIRECTION('',(-1.,0.,-7.70988211545247E-16));
#953=DIRECTION('',(-1.,0.,0.));
#954=DIRECTION('',(0.,0.,1.));
#955=DIRECTION('',(0.,1.,0.));
#956=DIRECTION('',(0.,0.,1.));
#957=DIRECTION('',(0.,0.,-1.));
#958=DIRECTION('',(-1.,0.,0.));
#959=DIRECTION('',(-1.,0.,0.));
#960=DIRECTION('',(0.,-1.,0.));
#961=DIRECTION('',(1.,0.,0.));
#962=DIRECTION('',(-1.,0.,0.));
#963=DIRECTION('',(0.,0.,1.));
#964=DIRECTION('',(0.,1.,0.));
#965=DIRECTION('',(0.,0.,1.));
#966=DIRECTION('',(0.,1.,0.));
#967=DIRECTION('',(7.70988211545247E-16,0.,-1.));
#968=DIRECTION('',(-1.,0.,-7.70988211545247E-16));
#969=DIRECTION('',(0.,1.,0.));
#970=DIRECTION('',(-1.,0.,-7.70988211545247E-16));
#971=DIRECTION('',(-1.,0.,0.));
#972=DIRECTION('',(0.,0.,1.));
#973=DIRECTION('',(0.,1.,0.));
#974=DIRECTION('',(0.,0.,1.));
#975=DIRECTION('',(0.,0.,1.));
#976=DIRECTION('',(1.,0.,0.));
#977=DIRECTION('',(1.,0.,0.));
#978=DIRECTION('',(0.,-1.,0.));
#979=DIRECTION('',(1.,0.,0.));
#980=DIRECTION('',(7.70988211545246E-16,0.,-1.));
#981=DIRECTION('',(-1.,0.,-7.70988211545246E-16));
#982=DIRECTION('',(0.,1.,0.));
#983=DIRECTION('',(0.,1.,0.));
#984=DIRECTION('',(-1.,0.,-7.70988211545246E-16));
#985=DIRECTION('',(1.,0.,0.));
#986=DIRECTION('',(0.,0.,-1.));
#987=DIRECTION('',(0.,1.,0.));
#988=DIRECTION('',(0.,0.,-1.));
#989=DIRECTION('',(0.,0.,-1.));
#990=DIRECTION('',(-1.,0.,0.));
#991=DIRECTION('',(0.,1.,0.));
#992=DIRECTION('',(-1.,0.,0.));
#993=DIRECTION('',(-1.,0.,-7.70988211545248E-16));
#994=DIRECTION('',(-7.70988211545248E-16,0.,1.));
#995=DIRECTION('',(-7.70988211545248E-16,0.,1.));
#996=DIRECTION('',(0.,-1.,0.));
#997=DIRECTION('',(1.,0.,0.));
#998=CARTESIAN_POINT('',(0.,0.,0.));
#999=CARTESIAN_POINT('',(0.,-0.005,0.));
#1000=CARTESIAN_POINT('',(1.27213054904966E-17,-0.005,-0.0165));
#1001=CARTESIAN_POINT('',(-0.0165,-0.005,-0.0165));
#1002=CARTESIAN_POINT('',(-0.012,-0.005,-0.0165));
#1003=CARTESIAN_POINT('',(-0.0165,-0.005,-1.27213054904966E-17));
#1004=CARTESIAN_POINT('',(-0.0165,-0.005,-0.012));
#1005=CARTESIAN_POINT('',(0.,-0.005,-0.012));
#1006=CARTESIAN_POINT('',(-0.012,-0.005,-0.012));
#1007=CARTESIAN_POINT('',(-0.012,-0.005,0.));
#1008=CARTESIAN_POINT('',(1.27213054904966E-17,-0.005,-0.0165));
#1009=CARTESIAN_POINT('',(0.012,-0.005,-0.0165));
#1010=CARTESIAN_POINT('',(0.0165,-0.005,-0.0165));
#1011=CARTESIAN_POINT('',(0.012,-0.005,0.));
#1012=CARTESIAN_POINT('',(0.012,-0.005,-0.012));
#1013=CARTESIAN_POINT('',(0.,-0.005,-0.012));
#1014=CARTESIAN_POINT('',(0.0165,-0.005,-0.012));
#1015=CARTESIAN_POINT('',(0.0165,-0.005,1.27213054904966E-17));
#1016=CARTESIAN_POINT('',(-3.46944695195361E-18,-0.005,5.20417042793042E-18));
#1017=CARTESIAN_POINT('',(0.0255468345489254,-0.005,-0.0210468345489253));
#1018=CARTESIAN_POINT('',(0.0255468345489254,-0.005,0.0210468345489253));
#1019=CARTESIAN_POINT('',(0.0220713527936015,-0.005,-0.0175713527936014));
#1020=CARTESIAN_POINT('',(0.0185958710382775,-0.005,-0.0140958710382775));
#1021=CARTESIAN_POINT('',(5.20417042793042E-18,-0.005,-3.46944695195361E-18));
#1022=CARTESIAN_POINT('',(0.0185958710382775,-0.005,0.0140958710382775));
#1023=CARTESIAN_POINT('',(0.0220713527936015,-0.005,0.0175713527936014));
#1024=CARTESIAN_POINT('',(1.04083408558608E-17,-0.005,-1.7347234759768E-18));
#1025=CARTESIAN_POINT('',(-0.0210468345489252,-0.005,-0.0255468345489254));
#1026=CARTESIAN_POINT('',(0.0210468345489253,-0.005,-0.0255468345489254));
#1027=CARTESIAN_POINT('',(-0.0175713527936014,-0.005,-0.0220713527936015));
#1028=CARTESIAN_POINT('',(-0.0140958710382775,-0.005,-0.0185958710382775));
#1029=CARTESIAN_POINT('',(4.33680868994202E-18,-0.005,1.21430643318376E-17));
#1030=CARTESIAN_POINT('',(0.0140958710382775,-0.005,-0.0185958710382775));
#1031=CARTESIAN_POINT('',(0.0175713527936014,-0.005,-0.0220713527936015));
#1032=CARTESIAN_POINT('',(8.67361737988404E-18,-0.005,0.));
#1033=CARTESIAN_POINT('',(-0.0255468345489253,-0.005,0.0210468345489253));
#1034=CARTESIAN_POINT('',(-0.0255468345489253,-0.005,-0.0210468345489253));
#1035=CARTESIAN_POINT('',(-0.0220713527936014,-0.005,0.0175713527936015));
#1036=CARTESIAN_POINT('',(-0.0185958710382775,-0.005,0.0140958710382775));
#1037=CARTESIAN_POINT('',(-1.7347234759768E-18,-0.005,-8.67361737988404E-19));
#1038=CARTESIAN_POINT('',(-0.0185958710382775,-0.005,-0.0140958710382775));
#1039=CARTESIAN_POINT('',(-0.0220713527936014,-0.005,-0.0175713527936014));
#1040=CARTESIAN_POINT('',(-0.0175713527936014,-0.005,0.0220713527936015));
#1041=CARTESIAN_POINT('',(-0.0140958710382775,-0.005,0.0185958710382775));
#1042=CARTESIAN_POINT('',(-0.0210468345489253,-0.005,0.0255468345489254));
#1043=CARTESIAN_POINT('',(1.7347234759768E-18,-0.005,0.));
#1044=CARTESIAN_POINT('',(0.0210468345489252,-0.005,0.0255468345489254));
#1045=CARTESIAN_POINT('',(0.0175713527936014,-0.005,0.0220713527936015));
#1046=CARTESIAN_POINT('',(0.0140958710382775,-0.005,0.0185958710382775));
#1047=CARTESIAN_POINT('',(8.67361737988404E-19,-0.005,-1.7347234759768E-18));
#1048=CARTESIAN_POINT('',(0.,-0.005,2.33295215237571E-18));
#1049=CARTESIAN_POINT('',(0.,-0.005,-0.0381));
#1050=CARTESIAN_POINT('',(-1.27213054904966E-17,-0.005,0.0165));
#1051=CARTESIAN_POINT('',(-0.0165,-0.005,0.0165));
#1052=CARTESIAN_POINT('',(-0.012,-0.005,0.0165));
#1053=CARTESIAN_POINT('',(-0.012,-0.005,0.));
#1054=CARTESIAN_POINT('',(-0.012,-0.005,0.012));
#1055=CARTESIAN_POINT('',(0.,-0.005,0.012));
#1056=CARTESIAN_POINT('',(-0.0165,-0.005,0.012));
#1057=CARTESIAN_POINT('',(-0.0165,-0.005,0.));
#1058=CARTESIAN_POINT('',(-1.27213054904966E-17,-0.005,0.0165));
#1059=CARTESIAN_POINT('',(0.012,-0.005,0.0165));
#1060=CARTESIAN_POINT('',(0.0165,-0.005,0.0165));
#1061=CARTESIAN_POINT('',(0.0165,-0.005,0.));
#1062=CARTESIAN_POINT('',(0.0165,-0.005,0.012));
#1063=CARTESIAN_POINT('',(0.,-0.005,0.012));
#1064=CARTESIAN_POINT('',(0.012,-0.005,0.012));
#1065=CARTESIAN_POINT('',(0.012,-0.005,0.));
#1066=CARTESIAN_POINT('',(-0.0175713527936014,-0.005,0.0220713527936015));
#1067=CARTESIAN_POINT('',(-0.0175713527936014,0.,0.0220713527936015));
#1068=CARTESIAN_POINT('',(-0.0140958710382775,0.,0.0185958710382775));
#1069=CARTESIAN_POINT('',(-0.0210468345489253,0.,0.0255468345489254));
#1070=CARTESIAN_POINT('',(-0.0210468345489253,-0.005,0.0255468345489254));
#1071=CARTESIAN_POINT('',(-0.0140958710382775,-0.005,0.0185958710382775));
#1072=CARTESIAN_POINT('',(1.7347234759768E-18,-0.005,0.));
#1073=CARTESIAN_POINT('',(1.7347234759768E-18,0.,0.));
#1074=CARTESIAN_POINT('',(0.0210468345489252,0.,0.0255468345489254));
#1075=CARTESIAN_POINT('',(0.0210468345489252,-0.005,0.0255468345489254));
#1076=CARTESIAN_POINT('',(0.0175713527936014,-0.005,0.0220713527936015));
#1077=CARTESIAN_POINT('',(0.0175713527936014,0.,0.0220713527936015));
#1078=CARTESIAN_POINT('',(0.0140958710382775,0.,0.0185958710382775));
#1079=CARTESIAN_POINT('',(0.0140958710382775,-0.005,0.0185958710382775));
#1080=CARTESIAN_POINT('',(8.67361737988404E-18,-0.005,0.));
#1081=CARTESIAN_POINT('',(8.67361737988404E-18,0.,0.));
#1082=CARTESIAN_POINT('',(-0.0255468345489253,0.,0.0210468345489253));
#1083=CARTESIAN_POINT('',(-0.0255468345489253,0.,-0.0210468345489253));
#1084=CARTESIAN_POINT('',(-0.0255468345489253,-0.005,0.0210468345489253));
#1085=CARTESIAN_POINT('',(-0.0255468345489253,-0.005,-0.0210468345489253));
#1086=CARTESIAN_POINT('',(-0.0220713527936014,-0.005,0.0175713527936015));
#1087=CARTESIAN_POINT('',(-0.0220713527936014,0.,0.0175713527936015));
#1088=CARTESIAN_POINT('',(-0.0185958710382775,0.,0.0140958710382775));
#1089=CARTESIAN_POINT('',(-0.0185958710382775,-0.005,0.0140958710382775));
#1090=CARTESIAN_POINT('',(-1.7347234759768E-18,-0.005,-8.67361737988404E-19));
#1091=CARTESIAN_POINT('',(-1.7347234759768E-18,0.,-8.67361737988404E-19));
#1092=CARTESIAN_POINT('',(-0.0185958710382775,0.,-0.0140958710382775));
#1093=CARTESIAN_POINT('',(-0.0185958710382775,-0.005,-0.0140958710382775));
#1094=CARTESIAN_POINT('',(1.04083408558608E-17,-0.005,-1.7347234759768E-18));
#1095=CARTESIAN_POINT('',(1.04083408558608E-17,0.,-1.7347234759768E-18));
#1096=CARTESIAN_POINT('',(-0.0210468345489252,0.,-0.0255468345489254));
#1097=CARTESIAN_POINT('',(0.0210468345489253,0.,-0.0255468345489254));
#1098=CARTESIAN_POINT('',(-0.0210468345489252,-0.005,-0.0255468345489254));
#1099=CARTESIAN_POINT('',(0.0210468345489253,-0.005,-0.0255468345489254));
#1100=CARTESIAN_POINT('',(-0.0175713527936014,-0.005,-0.0220713527936015));
#1101=CARTESIAN_POINT('',(-0.0175713527936014,0.,-0.0220713527936015));
#1102=CARTESIAN_POINT('',(-0.0140958710382775,0.,-0.0185958710382775));
#1103=CARTESIAN_POINT('',(-0.0140958710382775,-0.005,-0.0185958710382775));
#1104=CARTESIAN_POINT('',(4.33680868994202E-18,-0.005,1.21430643318376E-17));
#1105=CARTESIAN_POINT('',(4.33680868994202E-18,0.,1.21430643318376E-17));
#1106=CARTESIAN_POINT('',(0.0140958710382775,0.,-0.0185958710382775));
#1107=CARTESIAN_POINT('',(0.0140958710382775,-0.005,-0.0185958710382775));
#1108=CARTESIAN_POINT('',(-3.46944695195361E-18,-0.005,5.20417042793042E-18));
#1109=CARTESIAN_POINT('',(-3.46944695195361E-18,0.,5.20417042793042E-18));
#1110=CARTESIAN_POINT('',(0.0255468345489254,0.,-0.0210468345489253));
#1111=CARTESIAN_POINT('',(0.0255468345489254,0.,0.0210468345489253));
#1112=CARTESIAN_POINT('',(0.0255468345489254,-0.005,-0.0210468345489253));
#1113=CARTESIAN_POINT('',(0.0255468345489254,-0.005,0.0210468345489253));
#1114=CARTESIAN_POINT('',(0.0220713527936015,-0.005,-0.0175713527936014));
#1115=CARTESIAN_POINT('',(0.0220713527936015,0.,-0.0175713527936014));
#1116=CARTESIAN_POINT('',(0.0185958710382775,0.,-0.0140958710382775));
#1117=CARTESIAN_POINT('',(0.0185958710382775,-0.005,-0.0140958710382775));
#1118=CARTESIAN_POINT('',(5.20417042793042E-18,-0.005,-3.46944695195361E-18));
#1119=CARTESIAN_POINT('',(5.20417042793042E-18,0.,-3.46944695195361E-18));
#1120=CARTESIAN_POINT('',(0.0185958710382775,0.,0.0140958710382775));
#1121=CARTESIAN_POINT('',(0.0185958710382775,-0.005,0.0140958710382775));
#1122=CARTESIAN_POINT('',(8.67361737988404E-19,-0.005,-1.7347234759768E-18));
#1123=CARTESIAN_POINT('',(8.67361737988404E-19,0.,-1.7347234759768E-18));
#1124=CARTESIAN_POINT('',(-0.0220713527936014,-0.005,-0.0175713527936014));
#1125=CARTESIAN_POINT('',(-0.0220713527936014,0.,-0.0175713527936014));
#1126=CARTESIAN_POINT('',(0.0175713527936014,-0.005,-0.0220713527936015));
#1127=CARTESIAN_POINT('',(0.0175713527936014,0.,-0.0220713527936015));
#1128=CARTESIAN_POINT('',(0.0220713527936015,-0.005,0.0175713527936014));
#1129=CARTESIAN_POINT('',(0.0220713527936015,0.,0.0175713527936014));
#1130=CARTESIAN_POINT('',(0.,-0.005,2.33295215237571E-18));
#1131=CARTESIAN_POINT('',(0.,0.,2.33295215237571E-18));
#1132=CARTESIAN_POINT('',(0.,0.,-0.0381));
#1133=CARTESIAN_POINT('',(0.,0.,0.));
#1134=CARTESIAN_POINT('',(0.01425,-0.025,-0.0165));
#1135=CARTESIAN_POINT('',(0.012,-0.025,-0.0165));
#1136=CARTESIAN_POINT('',(0.012,-0.025,-0.0165));
#1137=CARTESIAN_POINT('',(0.0165,-0.025,-0.0165));
#1138=CARTESIAN_POINT('',(0.0165,-0.025,-0.0165));
#1139=CARTESIAN_POINT('',(0.01425,-0.025,-0.0165));
#1140=CARTESIAN_POINT('',(0.0165,-0.025,-0.01425));
#1141=CARTESIAN_POINT('',(0.0165,-0.025,-0.012));
#1142=CARTESIAN_POINT('',(0.0165,-0.025,-0.012));
#1143=CARTESIAN_POINT('',(0.0165,-0.025,-0.01425));
#1144=CARTESIAN_POINT('',(0.01425,-0.025,-0.012));
#1145=CARTESIAN_POINT('',(0.012,-0.025,-0.012));
#1146=CARTESIAN_POINT('',(0.012,-0.025,-0.012));
#1147=CARTESIAN_POINT('',(0.01425,-0.025,-0.012));
#1148=CARTESIAN_POINT('',(0.012,-0.025,-0.01425));
#1149=CARTESIAN_POINT('',(0.012,-0.025,-0.01425));
#1150=CARTESIAN_POINT('',(3.46944695195361E-18,-0.025,3.46944695195361E-18));
#1151=CARTESIAN_POINT('',(-0.012,-0.025,0.01425));
#1152=CARTESIAN_POINT('',(-0.012,-0.025,0.0165));
#1153=CARTESIAN_POINT('',(-0.012,-0.025,0.0165));
#1154=CARTESIAN_POINT('',(-0.012,-0.025,0.01425));
#1155=CARTESIAN_POINT('',(-0.012,-0.025,0.012));
#1156=CARTESIAN_POINT('',(-0.012,-0.025,0.012));
#1157=CARTESIAN_POINT('',(-0.01425,-0.025,0.0165));
#1158=CARTESIAN_POINT('',(-0.0165,-0.025,0.0165));
#1159=CARTESIAN_POINT('',(-0.0165,-0.025,0.0165));
#1160=CARTESIAN_POINT('',(-0.01425,-0.025,0.0165));
#1161=CARTESIAN_POINT('',(-0.0165,-0.025,0.01425));
#1162=CARTESIAN_POINT('',(-0.0165,-0.025,0.012));
#1163=CARTESIAN_POINT('',(-0.0165,-0.025,0.012));
#1164=CARTESIAN_POINT('',(-0.0165,-0.025,0.01425));
#1165=CARTESIAN_POINT('',(-0.01425,-0.025,0.012));
#1166=CARTESIAN_POINT('',(-0.01425,-0.025,0.012));
#1167=CARTESIAN_POINT('',(3.46944695195361E-18,-0.025,3.46944695195361E-18));
#1168=CARTESIAN_POINT('',(0.0165,-0.025,0.01425));
#1169=CARTESIAN_POINT('',(0.0165,-0.025,0.0165));
#1170=CARTESIAN_POINT('',(0.0165,-0.025,0.0165));
#1171=CARTESIAN_POINT('',(0.0165,-0.025,0.01425));
#1172=CARTESIAN_POINT('',(0.0165,-0.025,0.012));
#1173=CARTESIAN_POINT('',(0.0165,-0.025,0.012));
#1174=CARTESIAN_POINT('',(0.01425,-0.025,0.0165));
#1175=CARTESIAN_POINT('',(0.012,-0.025,0.0165));
#1176=CARTESIAN_POINT('',(0.012,-0.025,0.0165));
#1177=CARTESIAN_POINT('',(0.01425,-0.025,0.0165));
#1178=CARTESIAN_POINT('',(0.012,-0.025,0.01425));
#1179=CARTESIAN_POINT('',(0.012,-0.025,0.012));
#1180=CARTESIAN_POINT('',(0.012,-0.025,0.012));
#1181=CARTESIAN_POINT('',(0.012,-0.025,0.01425));
#1182=CARTESIAN_POINT('',(0.01425,-0.025,0.012));
#1183=CARTESIAN_POINT('',(0.01425,-0.025,0.012));
#1184=CARTESIAN_POINT('',(3.46944695195361E-18,-0.025,3.46944695195361E-18));
#1185=CARTESIAN_POINT('',(-0.01425,-0.025,-0.0165));
#1186=CARTESIAN_POINT('',(-0.0165,-0.025,-0.0165));
#1187=CARTESIAN_POINT('',(-0.0165,-0.025,-0.0165));
#1188=CARTESIAN_POINT('',(-0.012,-0.025,-0.0165));
#1189=CARTESIAN_POINT('',(-0.012,-0.025,-0.0165));
#1190=CARTESIAN_POINT('',(-0.01425,-0.025,-0.0165));
#1191=CARTESIAN_POINT('',(-0.012,-0.025,-0.01425));
#1192=CARTESIAN_POINT('',(-0.012,-0.025,-0.012));
#1193=CARTESIAN_POINT('',(-0.012,-0.025,-0.012));
#1194=CARTESIAN_POINT('',(-0.012,-0.025,-0.01425));
#1195=CARTESIAN_POINT('',(-0.01425,-0.025,-0.012));
#1196=CARTESIAN_POINT('',(-0.0165,-0.025,-0.012));
#1197=CARTESIAN_POINT('',(-0.0165,-0.025,-0.012));
#1198=CARTESIAN_POINT('',(-0.01425,-0.025,-0.012));
#1199=CARTESIAN_POINT('',(-0.0165,-0.025,-0.01425));
#1200=CARTESIAN_POINT('',(-0.0165,-0.025,-0.01425));
#1201=CARTESIAN_POINT('',(3.46944695195361E-18,-0.025,3.46944695195361E-18));
#1202=MECHANICAL_DESIGN_GEOMETRIC_PRESENTATION_REPRESENTATION('',(#733),
#1203);
#1203=(
GEOMETRIC_REPRESENTATION_CONTEXT(3)
GLOBAL_UNCERTAINTY_ASSIGNED_CONTEXT((#1204))
GLOBAL_UNIT_ASSIGNED_CONTEXT((#1207,#1206,#1205))
REPRESENTATION_CONTEXT('Servo Mount','TOP_LEVEL_ASSEMBLY_PART')
);
#1204=UNCERTAINTY_MEASURE_WITH_UNIT(LENGTH_MEASURE(1.E-8),#1207,
'DISTANCE_ACCURACY_VALUE','Maximum Tolerance applied to model');
#1205=(
NAMED_UNIT(*)
SI_UNIT($,.STERADIAN.)
SOLID_ANGLE_UNIT()
);
#1206=(
NAMED_UNIT(*)
PLANE_ANGLE_UNIT()
SI_UNIT($,.RADIAN.)
);
#1207=(
LENGTH_UNIT()
NAMED_UNIT(*)
SI_UNIT($,.METRE.)
);
#1208=PRODUCT_DEFINITION_SHAPE('','',#1209);
#1209=PRODUCT_DEFINITION('','',#1211,#1210);
#1210=PRODUCT_DEFINITION_CONTEXT('',#1217,'design');
#1211=PRODUCT_DEFINITION_FORMATION_WITH_SPECIFIED_SOURCE('','',#1213,
 .NOT_KNOWN.);
#1212=PRODUCT_RELATED_PRODUCT_CATEGORY('','',(#1213));
#1213=PRODUCT('Servo Mount','Servo Mount','Servo Mount',(#1215));
#1214=PRODUCT_CATEGORY('','');
#1215=PRODUCT_CONTEXT('',#1217,'mechanical');
#1216=APPLICATION_PROTOCOL_DEFINITION('international standard',
'ap242_managed_model_based_3d_engineering',2020,#1217);
#1217=APPLICATION_CONTEXT('managed model based 3d engineering');
ENDSEC;
END-ISO-10303-21;
