ISO-10303-21;
HEADER;
/* Generated by software containing ST-Developer
 * from STEP Tools, Inc. (www.steptools.com) 
 */
/* OPTION: using custom renumber hook */

FILE_DESCRIPTION(
/* description */ ('STEP AP242 Edition 2',
'CAx-IF Rec.Pracs.---Representation and Presentation of Product Manufa
cturing Information (PMI)---4.0---2014-10-13',
'CAx-IF Rec.Pracs.---3D Tessellated Geometry---0.4---2014-09-14','2;1',
'CAx-IF Rec.Pracs.---User Defined Attributes---1.5---2016-08-15'),
/* implementation_level */ '2;1');

FILE_NAME(
/* name */ 'Tail - Tail Cone V1',
/* time_stamp */ '2026-08-23T20:25:27Z',
/* author */ (''),
/* organization */ (''),
/* preprocessor_version */ 'ST-DEVELOPER v20',
/* originating_system */ 'ONSHAPE BY PTC INC, 1.219',
/* authorisation */ '  ');

FILE_SCHEMA (('AP242_MANAGED_MODEL_BASED_3D_ENGINEERING_MIM_LF { 1 0 10303 442 3 1 4 }'));
ENDSEC;

DATA;
#10=SHAPE_REPRESENTATION_RELATIONSHIP('','',#111,#11);
#11=ADVANCED_BREP_SHAPE_REPRESENTATION('',(#109),#561);
#12=B_SPLINE_SURFACE_WITH_KNOTS('',3,3,((#169,#170,#171,#172,#173,#174,
#175,#176,#177,#178,#179,#180,#181,#182,#183,#184,#185,#186,#187),(#188,
#189,#190,#191,#192,#193,#194,#195,#196,#197,#198,#199,#200,#201,#202,#203,
#204,#205,#206),(#207,#208,#209,#210,#211,#212,#213,#214,#215,#216,#217,
#218,#219,#220,#221,#222,#223,#224,#225),(#226,#227,#228,#229,#230,#231,
#232,#233,#234,#235,#236,#237,#238,#239,#240,#241,#242,#243,#244),(#245,
#246,#247,#248,#249,#250,#251,#252,#253,#254,#255,#256,#257,#258,#259,#260,
#261,#262,#263),(#264,#265,#266,#267,#268,#269,#270,#271,#272,#273,#274,
#275,#276,#277,#278,#279,#280,#281,#282),(#283,#284,#285,#286,#287,#288,
#289,#290,#291,#292,#293,#294,#295,#296,#297,#298,#299,#300,#301),(#302,
#303,#304,#305,#306,#307,#308,#309,#310,#311,#312,#313,#314,#315,#316,#317,
#318,#319,#320),(#321,#322,#323,#324,#325,#326,#327,#328,#329,#330,#331,
#332,#333,#334,#335,#336,#337,#338,#339)),.UNSPECIFIED.,.F.,.T.,.F.,(4,
1,1,1,1,1,4),(1,1,1,1,1,1,1,1,1,1,1,1,1,1,1,1,1,1,1,1,1,1,1),(0.,0.25,0.375,
0.5,0.625,0.75,1.),(-1.17809724509617,-0.785398163397448,-0.392699081698725,
0.,0.392699081698724,0.785398163397448,1.17809724509617,1.5707963267949,
1.96349540849362,2.35619449019234,2.74889357189107,3.14159265358979,3.53429173528852,
3.92699081698724,4.31968989868597,4.71238898038469,5.10508806208341,5.49778714378214,
5.89048622548086,6.28318530717959,6.67588438887831,7.06858347057703,7.46128255227576),
 .UNSPECIFIED.);
#13=B_SPLINE_SURFACE_WITH_KNOTS('',3,3,((#345,#346,#347,#348,#349,#350,
#351,#352,#353,#354,#355,#356,#357,#358,#359,#360,#361,#362,#363),(#364,
#365,#366,#367,#368,#369,#370,#371,#372,#373,#374,#375,#376,#377,#378,#379,
#380,#381,#382),(#383,#384,#385,#386,#387,#388,#389,#390,#391,#392,#393,
#394,#395,#396,#397,#398,#399,#400,#401),(#402,#403,#404,#405,#406,#407,
#408,#409,#410,#411,#412,#413,#414,#415,#416,#417,#418,#419,#420),(#421,
#422,#423,#424,#425,#426,#427,#428,#429,#430,#431,#432,#433,#434,#435,#436,
#437,#438,#439),(#440,#441,#442,#443,#444,#445,#446,#447,#448,#449,#450,
#451,#452,#453,#454,#455,#456,#457,#458),(#459,#460,#461,#462,#463,#464,
#465,#466,#467,#468,#469,#470,#471,#472,#473,#474,#475,#476,#477),(#478,
#479,#480,#481,#482,#483,#484,#485,#486,#487,#488,#489,#490,#491,#492,#493,
#494,#495,#496),(#497,#498,#499,#500,#501,#502,#503,#504,#505,#506,#507,
#508,#509,#510,#511,#512,#513,#514,#515),(#516,#517,#518,#519,#520,#521,
#522,#523,#524,#525,#526,#527,#528,#529,#530,#531,#532,#533,#534),(#535,
#536,#537,#538,#539,#540,#541,#542,#543,#544,#545,#546,#547,#548,#549,#550,
#551,#552,#553)),.UNSPECIFIED.,.F.,.T.,.F.,(4,1,1,1,1,1,1,1,4),(1,1,1,1,
1,1,1,1,1,1,1,1,1,1,1,1,1,1,1,1,1,1,1),(0.,0.25,0.354166666666667,0.4375,
0.5,0.5625,0.645833333333333,0.75,1.),(-1.17809724509617,-0.785398163397448,
-0.392699081698725,0.,0.392699081698724,0.785398163397448,1.17809724509617,
1.5707963267949,1.96349540849362,2.35619449019234,2.74889357189107,3.14159265358979,
3.53429173528852,3.92699081698724,4.31968989868597,4.71238898038469,5.10508806208341,
5.49778714378214,5.89048622548086,6.28318530717959,6.67588438887831,7.06858347057703,
7.46128255227576),.UNSPECIFIED.);
#14=CYLINDRICAL_SURFACE('',#116,0.0458);
#15=CYLINDRICAL_SURFACE('',#126,0.0508);
#16=ORIENTED_EDGE('',*,*,#32,.T.);
#17=ORIENTED_EDGE('',*,*,#33,.F.);
#18=ORIENTED_EDGE('',*,*,#34,.F.);
#19=ORIENTED_EDGE('',*,*,#33,.T.);
#20=ORIENTED_EDGE('',*,*,#35,.F.);
#21=ORIENTED_EDGE('',*,*,#34,.T.);
#22=ORIENTED_EDGE('',*,*,#36,.F.);
#23=ORIENTED_EDGE('',*,*,#35,.T.);
#24=ORIENTED_EDGE('',*,*,#36,.T.);
#25=ORIENTED_EDGE('',*,*,#37,.F.);
#26=ORIENTED_EDGE('',*,*,#37,.T.);
#27=ORIENTED_EDGE('',*,*,#38,.F.);
#28=ORIENTED_EDGE('',*,*,#38,.T.);
#29=ORIENTED_EDGE('',*,*,#39,.F.);
#30=ORIENTED_EDGE('',*,*,#39,.T.);
#31=ORIENTED_EDGE('',*,*,#32,.F.);
#32=EDGE_CURVE('',#40,#40,#48,.T.);
#33=EDGE_CURVE('',#41,#41,#49,.T.);
#34=EDGE_CURVE('',#42,#42,#50,.T.);
#35=EDGE_CURVE('',#43,#43,#51,.T.);
#36=EDGE_CURVE('',#44,#44,#52,.T.);
#37=EDGE_CURVE('',#45,#45,#53,.T.);
#38=EDGE_CURVE('',#46,#46,#54,.T.);
#39=EDGE_CURVE('',#47,#47,#55,.T.);
#40=VERTEX_POINT('',#160);
#41=VERTEX_POINT('',#162);
#42=VERTEX_POINT('',#165);
#43=VERTEX_POINT('',#168);
#44=VERTEX_POINT('',#341);
#45=VERTEX_POINT('',#344);
#46=VERTEX_POINT('',#555);
#47=VERTEX_POINT('',#558);
#48=CIRCLE('',#114,0.0508);
#49=CIRCLE('',#115,0.0458);
#50=CIRCLE('',#117,0.0458);
#51=CIRCLE('',#119,0.0485432);
#52=CIRCLE('',#120,0.01975);
#53=CIRCLE('',#122,0.02475);
#54=CIRCLE('',#123,0.0535432);
#55=CIRCLE('',#125,0.0508);
#56=EDGE_LOOP('',(#16));
#57=EDGE_LOOP('',(#17));
#58=EDGE_LOOP('',(#18));
#59=EDGE_LOOP('',(#19));
#60=EDGE_LOOP('',(#20));
#61=EDGE_LOOP('',(#21));
#62=EDGE_LOOP('',(#22));
#63=EDGE_LOOP('',(#23));
#64=EDGE_LOOP('',(#24));
#65=EDGE_LOOP('',(#25));
#66=EDGE_LOOP('',(#26));
#67=EDGE_LOOP('',(#27));
#68=EDGE_LOOP('',(#28));
#69=EDGE_LOOP('',(#29));
#70=EDGE_LOOP('',(#30));
#71=EDGE_LOOP('',(#31));
#72=FACE_BOUND('',#56,.T.);
#73=FACE_BOUND('',#57,.T.);
#74=FACE_BOUND('',#58,.T.);
#75=FACE_BOUND('',#59,.T.);
#76=FACE_BOUND('',#60,.T.);
#77=FACE_BOUND('',#61,.T.);
#78=FACE_BOUND('',#62,.T.);
#79=FACE_BOUND('',#63,.T.);
#80=FACE_BOUND('',#64,.T.);
#81=FACE_BOUND('',#65,.T.);
#82=FACE_BOUND('',#66,.T.);
#83=FACE_BOUND('',#67,.T.);
#84=FACE_BOUND('',#68,.T.);
#85=FACE_BOUND('',#69,.T.);
#86=FACE_BOUND('',#70,.T.);
#87=FACE_BOUND('',#71,.T.);
#88=PLANE('',#113);
#89=PLANE('',#118);
#90=PLANE('',#121);
#91=PLANE('',#124);
#92=ADVANCED_FACE('',(#72,#73),#88,.T.);
#93=ADVANCED_FACE('',(#74,#75),#14,.F.);
#94=ADVANCED_FACE('',(#76,#77),#89,.F.);
#95=ADVANCED_FACE('',(#78,#79),#12,.F.);
#96=ADVANCED_FACE('',(#80,#81),#90,.T.);
#97=ADVANCED_FACE('',(#82,#83),#13,.T.);
#98=ADVANCED_FACE('',(#84,#85),#91,.T.);
#99=ADVANCED_FACE('',(#86,#87),#15,.T.);
#100=CLOSED_SHELL('',(#92,#93,#94,#95,#96,#97,#98,#99));
#101=STYLED_ITEM('',(#102),#109);
#102=PRESENTATION_STYLE_ASSIGNMENT((#103));
#103=SURFACE_STYLE_USAGE(.BOTH.,#104);
#104=SURFACE_SIDE_STYLE('',(#105));
#105=SURFACE_STYLE_FILL_AREA(#106);
#106=FILL_AREA_STYLE('',(#107));
#107=FILL_AREA_STYLE_COLOUR('',#108);
#108=COLOUR_RGB('',0.615686274509804,0.811764705882353,0.929411764705882);
#109=MANIFOLD_SOLID_BREP('Tail Cone V1',#100);
#110=SHAPE_DEFINITION_REPRESENTATION(#566,#111);
#111=SHAPE_REPRESENTATION('Tail Cone V1',(#112),#561);
#112=AXIS2_PLACEMENT_3D('',#157,#127,#128);
#113=AXIS2_PLACEMENT_3D('',#158,#129,#130);
#114=AXIS2_PLACEMENT_3D('',#159,#131,#132);
#115=AXIS2_PLACEMENT_3D('',#161,#133,#134);
#116=AXIS2_PLACEMENT_3D('',#163,#135,#136);
#117=AXIS2_PLACEMENT_3D('',#164,#137,#138);
#118=AXIS2_PLACEMENT_3D('',#166,#139,#140);
#119=AXIS2_PLACEMENT_3D('',#167,#141,#142);
#120=AXIS2_PLACEMENT_3D('',#340,#143,#144);
#121=AXIS2_PLACEMENT_3D('',#342,#145,#146);
#122=AXIS2_PLACEMENT_3D('',#343,#147,#148);
#123=AXIS2_PLACEMENT_3D('',#554,#149,#150);
#124=AXIS2_PLACEMENT_3D('',#556,#151,#152);
#125=AXIS2_PLACEMENT_3D('',#557,#153,#154);
#126=AXIS2_PLACEMENT_3D('',#559,#155,#156);
#127=DIRECTION('',(0.,0.,1.));
#128=DIRECTION('',(1.,0.,0.));
#129=DIRECTION('',(0.,-1.,0.));
#130=DIRECTION('',(0.,0.,-1.));
#131=DIRECTION('',(0.,-1.,0.));
#132=DIRECTION('',(0.,0.,-1.));
#133=DIRECTION('',(0.,-1.,0.));
#134=DIRECTION('',(0.,0.,-1.));
#135=DIRECTION('',(0.,-1.,0.));
#136=DIRECTION('',(0.,0.,-1.));
#137=DIRECTION('',(0.,-1.,0.));
#138=DIRECTION('',(0.,0.,-1.));
#139=DIRECTION('',(0.,-1.,0.));
#140=DIRECTION('',(0.,0.,-1.));
#141=DIRECTION('',(0.,-1.,0.));
#142=DIRECTION('',(0.,0.,-1.));
#143=DIRECTION('',(0.,-1.,0.));
#144=DIRECTION('',(0.,0.,-1.));
#145=DIRECTION('',(0.,1.,0.));
#146=DIRECTION('',(0.,0.,1.));
#147=DIRECTION('',(0.,-1.,0.));
#148=DIRECTION('',(0.,0.,-1.));
#149=DIRECTION('',(0.,-1.,0.));
#150=DIRECTION('',(0.,0.,-1.));
#151=DIRECTION('',(0.,-1.,0.));
#152=DIRECTION('',(0.,0.,-1.));
#153=DIRECTION('',(0.,-1.,0.));
#154=DIRECTION('',(0.,0.,-1.));
#155=DIRECTION('',(0.,-1.,0.));
#156=DIRECTION('',(0.,0.,-1.));
#157=CARTESIAN_POINT('',(0.,0.,0.));
#158=CARTESIAN_POINT('',(0.,0.,0.0991));
#159=CARTESIAN_POINT('',(0.,0.,0.0508));
#160=CARTESIAN_POINT('',(0.,0.,0.));
#161=CARTESIAN_POINT('',(0.,0.,0.0508));
#162=CARTESIAN_POINT('',(0.,0.,0.005));
#163=CARTESIAN_POINT('',(0.,0.199832901358605,0.0508));
#164=CARTESIAN_POINT('',(0.,0.025,0.0508));
#165=CARTESIAN_POINT('',(0.,0.025,0.005));
#166=CARTESIAN_POINT('',(0.,0.025,0.0979716));
#167=CARTESIAN_POINT('',(0.,0.025,0.0508));
#168=CARTESIAN_POINT('',(0.,0.025,0.0022568));
#169=CARTESIAN_POINT('',(0.0190603048320835,0.025,0.0968156464285816));
#170=CARTESIAN_POINT('',(3.77302356024956E-17,0.025,0.100606976785709));
#171=CARTESIAN_POINT('',(-0.0190603048320836,0.025,0.0968156464285816));
#172=CARTESIAN_POINT('',(-0.0352188510355759,0.025,0.086018851035576));
#173=CARTESIAN_POINT('',(-0.0460156464285816,0.025,0.0698603048320836));
#174=CARTESIAN_POINT('',(-0.0498069767857092,0.025,0.0508));
#175=CARTESIAN_POINT('',(-0.0460156464285816,0.025,0.0317396951679165));
#176=CARTESIAN_POINT('',(-0.035218851035576,0.025,0.0155811489644241));
#177=CARTESIAN_POINT('',(-0.0190603048320836,0.025,0.00478435357141844));
#178=CARTESIAN_POINT('',(-8.1286840272239E-18,0.025,0.000993023214290769));
#179=CARTESIAN_POINT('',(0.0190603048320836,0.025,0.00478435357141842));
#180=CARTESIAN_POINT('',(0.0352188510355759,0.025,0.015581148964424));
#181=CARTESIAN_POINT('',(0.0460156464285816,0.025,0.0317396951679164));
#182=CARTESIAN_POINT('',(0.0498069767857093,0.025,0.0508));
#183=CARTESIAN_POINT('',(0.0460156464285816,0.025,0.0698603048320836));
#184=CARTESIAN_POINT('',(0.0352188510355759,0.025,0.086018851035576));
#185=CARTESIAN_POINT('',(0.0190603048320835,0.025,0.0968156464285816));
#186=CARTESIAN_POINT('',(3.77302356024956E-17,0.025,0.100606976785709));
#187=CARTESIAN_POINT('',(-0.0190603048320836,0.025,0.0968156464285816));
#188=CARTESIAN_POINT('',(0.0190603771019845,0.0391581119802361,0.0968158209035569));
#189=CARTESIAN_POINT('',(3.90312782094782E-17,0.039158111980236,0.100607165636062));
#190=CARTESIAN_POINT('',(-0.0190603771019846,0.039158111980236,0.0968158209035569));
#191=CARTESIAN_POINT('',(-0.0352189845729407,0.039158111980236,0.0860189845729407));
#192=CARTESIAN_POINT('',(-0.0460158209035569,0.039158111980236,0.0698603771019846));
#193=CARTESIAN_POINT('',(-0.0498071656360616,0.039158111980236,0.0508));
#194=CARTESIAN_POINT('',(-0.0460158209035569,0.039158111980236,0.0317396228980154));
#195=CARTESIAN_POINT('',(-0.0352189845729408,0.039158111980236,0.0155810154270592));
#196=CARTESIAN_POINT('',(-0.0190603771019846,0.039158111980236,0.00478417909644311));
#197=CARTESIAN_POINT('',(-8.05043935872129E-18,0.039158111980236,0.000992834363938352));
#198=CARTESIAN_POINT('',(0.0190603771019846,0.039158111980236,0.00478417909644313));
#199=CARTESIAN_POINT('',(0.0352189845729408,0.039158111980236,0.0155810154270592));
#200=CARTESIAN_POINT('',(0.0460158209035568,0.039158111980236,0.0317396228980154));
#201=CARTESIAN_POINT('',(0.0498071656360616,0.039158111980236,0.0507999999999999));
#202=CARTESIAN_POINT('',(0.0460158209035569,0.0391581119802361,0.0698603771019847));
#203=CARTESIAN_POINT('',(0.0352189845729407,0.039158111980236,0.0860189845729408));
#204=CARTESIAN_POINT('',(0.0190603771019845,0.0391581119802361,0.0968158209035569));
#205=CARTESIAN_POINT('',(3.90312782094782E-17,0.039158111980236,0.100607165636062));
#206=CARTESIAN_POINT('',(-0.0190603771019846,0.039158111980236,0.0968158209035569));
#207=CARTESIAN_POINT('',(0.0187917058322018,0.0605157864541751,0.0961671910802275));
#208=CARTESIAN_POINT('',(3.59955121265187E-17,0.060515786454175,0.0999050937744128));
#209=CARTESIAN_POINT('',(-0.0187917058322019,0.060515786454175,0.0961671910802274));
#210=CARTESIAN_POINT('',(-0.0347225447986886,0.060515786454175,0.0855225447986886));
#211=CARTESIAN_POINT('',(-0.0453671910802274,0.060515786454175,0.0695917058322019));
#212=CARTESIAN_POINT('',(-0.0491050937744128,0.060515786454175,0.0508));
#213=CARTESIAN_POINT('',(-0.0453671910802274,0.060515786454175,0.0320082941677981));
#214=CARTESIAN_POINT('',(-0.0347225447986886,0.060515786454175,0.0160774552013114));
#215=CARTESIAN_POINT('',(-0.0187917058322019,0.060515786454175,0.00543280891977265));
#216=CARTESIAN_POINT('',(-7.64592818684815E-18,0.060515786454175,0.00169490622558721));
#217=CARTESIAN_POINT('',(0.0187917058322019,0.060515786454175,0.0054328089197726));
#218=CARTESIAN_POINT('',(0.0347225447986886,0.060515786454175,0.0160774552013114));
#219=CARTESIAN_POINT('',(0.0453671910802274,0.060515786454175,0.0320082941677981));
#220=CARTESIAN_POINT('',(0.0491050937744128,0.060515786454175,0.0508));
#221=CARTESIAN_POINT('',(0.0453671910802274,0.060515786454175,0.0695917058322019));
#222=CARTESIAN_POINT('',(0.0347225447986886,0.060515786454175,0.0855225447986887));
#223=CARTESIAN_POINT('',(0.0187917058322018,0.0605157864541751,0.0961671910802275));
#224=CARTESIAN_POINT('',(3.59955121265187E-17,0.060515786454175,0.0999050937744128));
#225=CARTESIAN_POINT('',(-0.0187917058322019,0.060515786454175,0.0961671910802274));
#226=CARTESIAN_POINT('',(0.0176844873109301,0.0901420242100698,0.0934941291096626));
#227=CARTESIAN_POINT('',(3.59955121265187E-17,0.0901420242100698,0.0970117923465751));
#228=CARTESIAN_POINT('',(-0.0176844873109302,0.0901420242100698,0.0934941291096625));
#229=CARTESIAN_POINT('',(-0.0326766717390479,0.0901420242100698,0.0834766717390479));
#230=CARTESIAN_POINT('',(-0.0426941291096625,0.0901420242100698,0.0684844873109302));
#231=CARTESIAN_POINT('',(-0.0462117923465751,0.0901420242100698,0.0508));
#232=CARTESIAN_POINT('',(-0.0426941291096625,0.0901420242100698,0.0331155126890698));
#233=CARTESIAN_POINT('',(-0.0326766717390479,0.0901420242100698,0.0181233282609522));
#234=CARTESIAN_POINT('',(-0.0176844873109302,0.0901420242100698,0.00810587089033753));
#235=CARTESIAN_POINT('',(-5.69010264185837E-18,0.0901420242100698,0.00458820765342489));
#236=CARTESIAN_POINT('',(0.0176844873109301,0.0901420242100698,0.00810587089033752));
#237=CARTESIAN_POINT('',(0.0326766717390479,0.0901420242100698,0.0181233282609521));
#238=CARTESIAN_POINT('',(0.0426941291096625,0.0901420242100698,0.0331155126890698));
#239=CARTESIAN_POINT('',(0.0462117923465751,0.0901420242100698,0.0508));
#240=CARTESIAN_POINT('',(0.0426941291096625,0.0901420242100698,0.0684844873109302));
#241=CARTESIAN_POINT('',(0.0326766717390479,0.0901420242100698,0.0834766717390479));
#242=CARTESIAN_POINT('',(0.0176844873109301,0.0901420242100698,0.0934941291096626));
#243=CARTESIAN_POINT('',(3.59955121265187E-17,0.0901420242100698,0.0970117923465751));
#244=CARTESIAN_POINT('',(-0.0176844873109302,0.0901420242100698,0.0934941291096625));
#245=CARTESIAN_POINT('',(0.0164212570316012,0.11319563172201,0.0904444214369064));
#246=CARTESIAN_POINT('',(3.38271077815477E-17,0.11319563172201,0.093710812548412));
#247=CARTESIAN_POINT('',(-0.0164212570316013,0.11319563172201,0.0904444214369064));
#248=CARTESIAN_POINT('',(-0.0303425265392069,0.11319563172201,0.0811425265392069));
#249=CARTESIAN_POINT('',(-0.0396444214369064,0.11319563172201,0.0672212570316013));
#250=CARTESIAN_POINT('',(-0.042910812548412,0.11319563172201,0.0508));
#251=CARTESIAN_POINT('',(-0.0396444214369064,0.11319563172201,0.0343787429683987));
#252=CARTESIAN_POINT('',(-0.0303425265392069,0.11319563172201,0.0204574734607931));
#253=CARTESIAN_POINT('',(-0.0164212570316013,0.11319563172201,0.0111555785630936));
#254=CARTESIAN_POINT('',(-7.98415903059864E-18,0.11319563172201,0.007889187451588));
#255=CARTESIAN_POINT('',(0.0164212570316013,0.11319563172201,0.0111555785630936));
#256=CARTESIAN_POINT('',(0.0303425265392069,0.11319563172201,0.020457473460793));
#257=CARTESIAN_POINT('',(0.0396444214369064,0.11319563172201,0.0343787429683987));
#258=CARTESIAN_POINT('',(0.042910812548412,0.11319563172201,0.0508));
#259=CARTESIAN_POINT('',(0.0396444214369064,0.11319563172201,0.0672212570316013));
#260=CARTESIAN_POINT('',(0.0303425265392069,0.11319563172201,0.081142526539207));
#261=CARTESIAN_POINT('',(0.0164212570316012,0.11319563172201,0.0904444214369064));
#262=CARTESIAN_POINT('',(3.38271077815477E-17,0.11319563172201,0.093710812548412));
#263=CARTESIAN_POINT('',(-0.0164212570316013,0.11319563172201,0.0904444214369064));
#264=CARTESIAN_POINT('',(0.0146932422410245,0.137187217913404,0.086272624693515));
#265=CARTESIAN_POINT('',(2.77555756156289E-17,0.137187217913404,0.0891952922921598));
#266=CARTESIAN_POINT('',(-0.0146932422410246,0.137187217913404,0.0862726246935148));
#267=CARTESIAN_POINT('',(-0.0271495715454258,0.137187217913404,0.0779495715454258));
#268=CARTESIAN_POINT('',(-0.0354726246935148,0.137187217913404,0.0654932422410246));
#269=CARTESIAN_POINT('',(-0.0383952922921599,0.137187217913404,0.0508));
#270=CARTESIAN_POINT('',(-0.0354726246935148,0.137187217913404,0.0361067577589754));
#271=CARTESIAN_POINT('',(-0.0271495715454258,0.137187217913404,0.0236504284545742));
#272=CARTESIAN_POINT('',(-0.0146932422410246,0.137187217913404,0.0153273753064851));
#273=CARTESIAN_POINT('',(-6.29671058099046E-18,0.137187217913404,0.0124047077078402));
#274=CARTESIAN_POINT('',(0.0146932422410246,0.137187217913404,0.0153273753064852));
#275=CARTESIAN_POINT('',(0.0271495715454258,0.137187217913404,0.0236504284545742));
#276=CARTESIAN_POINT('',(0.0354726246935149,0.137187217913404,0.0361067577589754));
#277=CARTESIAN_POINT('',(0.0383952922921599,0.137187217913404,0.0508));
#278=CARTESIAN_POINT('',(0.0354726246935149,0.137187217913404,0.0654932422410247));
#279=CARTESIAN_POINT('',(0.0271495715454258,0.137187217913404,0.0779495715454258));
#280=CARTESIAN_POINT('',(0.0146932422410245,0.137187217913404,0.086272624693515));
#281=CARTESIAN_POINT('',(2.77555756156289E-17,0.137187217913404,0.0891952922921598));
#282=CARTESIAN_POINT('',(-0.0146932422410246,0.137187217913404,0.0862726246935148));
#283=CARTESIAN_POINT('',(0.0119163709944673,0.169449372146258,0.0795686644691125));
#284=CARTESIAN_POINT('',(2.19008838842072E-17,0.169449372146258,0.0819389780341962));
#285=CARTESIAN_POINT('',(-0.0119163709944673,0.169449372146258,0.0795686644691124));
#286=CARTESIAN_POINT('',(-0.0220185825271991,0.169449372146258,0.0728185825271991));
#287=CARTESIAN_POINT('',(-0.0287686644691124,0.169449372146258,0.0627163709944673));
#288=CARTESIAN_POINT('',(-0.0311389780341962,0.169449372146258,0.0508));
#289=CARTESIAN_POINT('',(-0.0287686644691124,0.169449372146258,0.0388836290055327));
#290=CARTESIAN_POINT('',(-0.0220185825271991,0.169449372146258,0.0287814174728009));
#291=CARTESIAN_POINT('',(-0.0119163709944673,0.169449372146258,0.0220313355308876));
#292=CARTESIAN_POINT('',(-3.44222278363327E-18,0.169449372146258,0.0196610219658038));
#293=CARTESIAN_POINT('',(0.0119163709944673,0.169449372146258,0.0220313355308876));
#294=CARTESIAN_POINT('',(0.0220185825271991,0.169449372146258,0.0287814174728009));
#295=CARTESIAN_POINT('',(0.0287686644691124,0.169449372146258,0.0388836290055326));
#296=CARTESIAN_POINT('',(0.0311389780341962,0.169449372146258,0.0508));
#297=CARTESIAN_POINT('',(0.0287686644691124,0.169449372146258,0.0627163709944673));
#298=CARTESIAN_POINT('',(0.0220185825271991,0.169449372146258,0.0728185825271991));
#299=CARTESIAN_POINT('',(0.0119163709944673,0.169449372146258,0.0795686644691125));
#300=CARTESIAN_POINT('',(2.19008838842072E-17,0.169449372146258,0.0819389780341962));
#301=CARTESIAN_POINT('',(-0.0119163709944673,0.169449372146258,0.0795686644691124));
#302=CARTESIAN_POINT('',(0.0094445002871635,0.192986495958607,0.0736010406831069));
#303=CARTESIAN_POINT('',(2.01661604082304E-17,0.192986495958607,0.0754796685939444));
#304=CARTESIAN_POINT('',(-0.00944450028716356,0.192986495958607,0.0736010406831069));
#305=CARTESIAN_POINT('',(-0.0174511610202148,0.192986495958607,0.0682511610202147));
#306=CARTESIAN_POINT('',(-0.0228010406831068,0.192986495958607,0.0602445002871635));
#307=CARTESIAN_POINT('',(-0.0246796685939444,0.192986495958607,0.0508));
#308=CARTESIAN_POINT('',(-0.0228010406831068,0.192986495958607,0.0413554997128365));
#309=CARTESIAN_POINT('',(-0.0174511610202148,0.192986495958607,0.0333488389797853));
#310=CARTESIAN_POINT('',(-0.00944450028716355,0.192986495958607,0.0279989593168932));
#311=CARTESIAN_POINT('',(-4.63532162940015E-18,0.192986495958607,0.0261203314060556));
#312=CARTESIAN_POINT('',(0.00944450028716355,0.192986495958607,0.0279989593168932));
#313=CARTESIAN_POINT('',(0.0174511610202147,0.192986495958607,0.0333488389797852));
#314=CARTESIAN_POINT('',(0.0228010406831069,0.192986495958607,0.0413554997128365));
#315=CARTESIAN_POINT('',(0.0246796685939444,0.192986495958607,0.0508));
#316=CARTESIAN_POINT('',(0.0228010406831068,0.192986495958607,0.0602445002871636));
#317=CARTESIAN_POINT('',(0.0174511610202147,0.192986495958607,0.0682511610202148));
#318=CARTESIAN_POINT('',(0.0094445002871635,0.192986495958607,0.0736010406831069));
#319=CARTESIAN_POINT('',(2.01661604082304E-17,0.192986495958607,0.0754796685939444));
#320=CARTESIAN_POINT('',(-0.00944450028716356,0.192986495958607,0.0736010406831069));
#321=CARTESIAN_POINT('',(0.0077547631889461,0.2075,0.0695216544637454));
#322=CARTESIAN_POINT('',(1.49619899803E-17,0.2075,0.0710641727681273));
#323=CARTESIAN_POINT('',(-0.00775476318894614,0.2075,0.0695216544637454));
#324=CARTESIAN_POINT('',(-0.0143289339794786,0.2075,0.0651289339794786));
#325=CARTESIAN_POINT('',(-0.0187216544637454,0.2075,0.0585547631889461));
#326=CARTESIAN_POINT('',(-0.0202641727681273,0.2075,0.0508));
#327=CARTESIAN_POINT('',(-0.0187216544637454,0.2075,0.0430452368110539));
#328=CARTESIAN_POINT('',(-0.0143289339794786,0.2075,0.0364710660205214));
#329=CARTESIAN_POINT('',(-0.00775476318894614,0.2075,0.0320783455362546));
#330=CARTESIAN_POINT('',(-2.70612468268968E-18,0.2075,0.0305358272318727));
#331=CARTESIAN_POINT('',(0.00775476318894614,0.2075,0.0320783455362546));
#332=CARTESIAN_POINT('',(0.0143289339794786,0.2075,0.0364710660205214));
#333=CARTESIAN_POINT('',(0.0187216544637454,0.2075,0.0430452368110539));
#334=CARTESIAN_POINT('',(0.0202641727681273,0.2075,0.0508));
#335=CARTESIAN_POINT('',(0.0187216544637454,0.2075,0.0585547631889462));
#336=CARTESIAN_POINT('',(0.0143289339794786,0.2075,0.0651289339794786));
#337=CARTESIAN_POINT('',(0.0077547631889461,0.2075,0.0695216544637454));
#338=CARTESIAN_POINT('',(1.49619899803E-17,0.2075,0.0710641727681273));
#339=CARTESIAN_POINT('',(-0.00775476318894614,0.2075,0.0695216544637454));
#340=CARTESIAN_POINT('',(0.,0.2075,0.0508));
#341=CARTESIAN_POINT('',(0.,0.2075,0.03105));
#342=CARTESIAN_POINT('',(0.,0.2075,0.07305));
#343=CARTESIAN_POINT('',(0.,0.2075,0.0508));
#344=CARTESIAN_POINT('',(0.,0.2075,0.02605));
#345=CARTESIAN_POINT('',(0.0210235360191584,0.02,0.101555305786492));
#346=CARTESIAN_POINT('',(3.8597597340484E-17,0.02,0.105737147106754));
#347=CARTESIAN_POINT('',(-0.0210235360191585,0.02,0.101555305786492));
#348=CARTESIAN_POINT('',(-0.0388464292582287,0.02,0.0896464292582288));
#349=CARTESIAN_POINT('',(-0.0507553057864918,0.02,0.0718235360191585));
#350=CARTESIAN_POINT('',(-0.0549371471067541,0.02,0.0508));
#351=CARTESIAN_POINT('',(-0.0507553057864918,0.02,0.0297764639808415));
#352=CARTESIAN_POINT('',(-0.0388464292582288,0.02,0.0119535707417713));
#353=CARTESIAN_POINT('',(-0.0210235360191585,0.02,4.46942135082197E-5));
#354=CARTESIAN_POINT('',(-8.19607608608982E-18,0.02,-0.00413714710675411));
#355=CARTESIAN_POINT('',(0.0210235360191585,0.02,4.46942135082041E-5));
#356=CARTESIAN_POINT('',(0.0388464292582288,0.02,0.0119535707417712));
#357=CARTESIAN_POINT('',(0.0507553057864918,0.02,0.0297764639808415));
#358=CARTESIAN_POINT('',(0.0549371471067541,0.02,0.0508));
#359=CARTESIAN_POINT('',(0.0507553057864918,0.02,0.0718235360191585));
#360=CARTESIAN_POINT('',(0.0388464292582287,0.02,0.0896464292582288));
#361=CARTESIAN_POINT('',(0.0210235360191584,0.02,0.101555305786492));
#362=CARTESIAN_POINT('',(3.8597597340484E-17,0.02,0.105737147106754));
#363=CARTESIAN_POINT('',(-0.0210235360191585,0.02,0.101555305786492));
#364=CARTESIAN_POINT('',(0.0210235177542297,0.0347870872378369,0.101555261691053));
#365=CARTESIAN_POINT('',(4.2934406030426E-17,0.0347870872378368,0.105737099378195));
#366=CARTESIAN_POINT('',(-0.0210235177542298,0.0347870872378369,0.101555261691053));
#367=CARTESIAN_POINT('',(-0.0388463955090412,0.0347870872378369,0.0896463955090411));
#368=CARTESIAN_POINT('',(-0.0507552616910532,0.0347870872378369,0.0718235177542298));
#369=CARTESIAN_POINT('',(-0.0549370993781953,0.0347870872378369,0.0508));
#370=CARTESIAN_POINT('',(-0.0507552616910532,0.0347870872378369,0.0297764822457702));
#371=CARTESIAN_POINT('',(-0.0388463955090412,0.0347870872378369,0.0119536044909588));
#372=CARTESIAN_POINT('',(-0.0210235177542298,0.0347870872378369,4.47383089467475E-5));
#373=CARTESIAN_POINT('',(-6.37622579891396E-18,0.0347870872378369,-0.00413709937819535));
#374=CARTESIAN_POINT('',(0.0210235177542298,0.0347870872378369,4.4738308946791E-5));
#375=CARTESIAN_POINT('',(0.0388463955090412,0.0347870872378369,0.0119536044909588));
#376=CARTESIAN_POINT('',(0.0507552616910532,0.0347870872378369,0.0297764822457701));
#377=CARTESIAN_POINT('',(0.0549370993781953,0.0347870872378369,0.0508));
#378=CARTESIAN_POINT('',(0.0507552616910532,0.0347870872378369,0.0718235177542299));
#379=CARTESIAN_POINT('',(0.0388463955090412,0.0347870872378369,0.0896463955090412));
#380=CARTESIAN_POINT('',(0.0210235177542297,0.0347870872378369,0.101555261691053));
#381=CARTESIAN_POINT('',(4.2934406030426E-17,0.0347870872378368,0.105737099378195));
#382=CARTESIAN_POINT('',(-0.0210235177542298,0.0347870872378369,0.101555261691053));
#383=CARTESIAN_POINT('',(0.0209433583752039,0.0546725473623224,0.101361739831058));
#384=CARTESIAN_POINT('',(4.20670442924376E-17,0.0546725473623224,0.10552763282635));
#385=CARTESIAN_POINT('',(-0.020943358375204,0.0546725473623224,0.101361739831058));
#386=CARTESIAN_POINT('',(-0.0386982802897995,0.0546725473623224,0.0894982802897996));
#387=CARTESIAN_POINT('',(-0.0505617398310576,0.0546725473623224,0.071743358375204));
#388=CARTESIAN_POINT('',(-0.05472763282635,0.0546725473623224,0.0508));
#389=CARTESIAN_POINT('',(-0.0505617398310576,0.0546725473623224,0.0298566416247961));
#390=CARTESIAN_POINT('',(-0.0386982802897996,0.0546725473623224,0.0121017197102004));
#391=CARTESIAN_POINT('',(-0.020943358375204,0.0546725473623224,0.000238260168942456));
#392=CARTESIAN_POINT('',(-1.01354638979469E-17,0.0546725473623224,-0.00392763282634996));
#393=CARTESIAN_POINT('',(0.020943358375204,0.0546725473623224,0.000238260168942382));
#394=CARTESIAN_POINT('',(0.0386982802897995,0.0546725473623224,0.0121017197102005));
#395=CARTESIAN_POINT('',(0.0505617398310576,0.0546725473623224,0.029856641624796));
#396=CARTESIAN_POINT('',(0.05472763282635,0.0546725473623224,0.0508));
#397=CARTESIAN_POINT('',(0.0505617398310576,0.0546725473623224,0.071743358375204));
#398=CARTESIAN_POINT('',(0.0386982802897996,0.0546725473623224,0.0894982802897996));
#399=CARTESIAN_POINT('',(0.0209433583752039,0.0546725473623224,0.101361739831058));
#400=CARTESIAN_POINT('',(4.20670442924376E-17,0.0546725473623224,0.10552763282635));
#401=CARTESIAN_POINT('',(-0.020943358375204,0.0546725473623224,0.101361739831058));
#402=CARTESIAN_POINT('',(0.0201142968187038,0.0813072373799431,0.099360208177313));
#403=CARTESIAN_POINT('',(3.94649590784724E-17,0.0813072373799431,0.103361190575698));
#404=CARTESIAN_POINT('',(-0.0201142968187039,0.0813072373799431,0.0993602081773129));
#405=CARTESIAN_POINT('',(-0.0371663742833148,0.0813072373799431,0.0879663742833149));
#406=CARTESIAN_POINT('',(-0.0485602081773129,0.0813072373799431,0.0709142968187039));
#407=CARTESIAN_POINT('',(-0.0525611905756985,0.0813072373799431,0.0508));
#408=CARTESIAN_POINT('',(-0.0485602081773129,0.0813072373799431,0.0306857031812961));
#409=CARTESIAN_POINT('',(-0.0371663742833148,0.0813072373799431,0.0136336257166852));
#410=CARTESIAN_POINT('',(-0.0201142968187039,0.0813072373799431,0.00223979182268704));
#411=CARTESIAN_POINT('',(-7.1084328422561E-18,0.0813072373799431,-0.00176119057569845));
#412=CARTESIAN_POINT('',(0.0201142968187039,0.0813072373799431,0.00223979182268707));
#413=CARTESIAN_POINT('',(0.0371663742833148,0.0813072373799431,0.0136336257166852));
#414=CARTESIAN_POINT('',(0.0485602081773129,0.081307237379943,0.0306857031812961));
#415=CARTESIAN_POINT('',(0.0525611905756985,0.0813072373799431,0.0508));
#416=CARTESIAN_POINT('',(0.048560208177313,0.0813072373799431,0.0709142968187039));
#417=CARTESIAN_POINT('',(0.0371663742833148,0.0813072373799431,0.0879663742833148));
#418=CARTESIAN_POINT('',(0.0201142968187038,0.0813072373799431,0.099360208177313));
#419=CARTESIAN_POINT('',(3.94649590784724E-17,0.0813072373799431,0.103361190575698));
#420=CARTESIAN_POINT('',(-0.0201142968187039,0.0813072373799431,0.0993602081773129));
#421=CARTESIAN_POINT('',(0.0193462763535457,0.0976410563249868,0.0975060427541483));
#422=CARTESIAN_POINT('',(3.72965547335014E-17,0.0976410563249868,0.101354256383613));
#423=CARTESIAN_POINT('',(-0.0193462763535458,0.0976410563249868,0.0975060427541482));
#424=CARTESIAN_POINT('',(-0.0357472575066961,0.0976410563249868,0.0865472575066961));
#425=CARTESIAN_POINT('',(-0.0467060427541482,0.0976410563249868,0.0701462763535458));
#426=CARTESIAN_POINT('',(-0.0505542563836131,0.0976410563249868,0.0508));
#427=CARTESIAN_POINT('',(-0.0467060427541482,0.0976410563249868,0.0314537236464542));
#428=CARTESIAN_POINT('',(-0.0357472575066961,0.0976410563249868,0.0150527424933039));
#429=CARTESIAN_POINT('',(-0.0193462763535458,0.0976410563249868,0.00409395724585182));
#430=CARTESIAN_POINT('',(-9.17241390669841E-18,0.0976410563249868,0.000245743616386942));
#431=CARTESIAN_POINT('',(0.0193462763535458,0.0976410563249868,0.0040939572458518));
#432=CARTESIAN_POINT('',(0.0357472575066961,0.0976410563249868,0.0150527424933039));
#433=CARTESIAN_POINT('',(0.0467060427541482,0.0976410563249868,0.0314537236464542));
#434=CARTESIAN_POINT('',(0.0505542563836131,0.0976410563249868,0.0508));
#435=CARTESIAN_POINT('',(0.0467060427541482,0.0976410563249868,0.0701462763535458));
#436=CARTESIAN_POINT('',(0.0357472575066961,0.0976410563249868,0.0865472575066961));
#437=CARTESIAN_POINT('',(0.0193462763535457,0.0976410563249868,0.0975060427541483));
#438=CARTESIAN_POINT('',(3.72965547335014E-17,0.0976410563249868,0.101354256383613));
#439=CARTESIAN_POINT('',(-0.0193462763535458,0.0976410563249868,0.0975060427541482));
#440=CARTESIAN_POINT('',(0.0184736517391597,0.112259267524424,0.0953993405752369));
#441=CARTESIAN_POINT('',(4.03323208164608E-17,0.112259267524424,0.0990739783768204));
#442=CARTESIAN_POINT('',(-0.0184736517391598,0.112259267524424,0.0953993405752368));
#443=CARTESIAN_POINT('',(-0.0341348574651025,0.112259267524424,0.0849348574651025));
#444=CARTESIAN_POINT('',(-0.0445993405752368,0.112259267524424,0.0692736517391598));
#445=CARTESIAN_POINT('',(-0.0482739783768204,0.112259267524424,0.0508));
#446=CARTESIAN_POINT('',(-0.0445993405752368,0.112259267524424,0.0323263482608402));
#447=CARTESIAN_POINT('',(-0.0341348574651025,0.112259267524424,0.0166651425348975));
#448=CARTESIAN_POINT('',(-0.0184736517391598,0.112259267524424,0.0062006594247632));
#449=CARTESIAN_POINT('',(-4.62956445233679E-18,0.112259267524424,0.00252602162317957));
#450=CARTESIAN_POINT('',(0.0184736517391597,0.112259267524424,0.00620065942476318));
#451=CARTESIAN_POINT('',(0.0341348574651025,0.112259267524424,0.0166651425348975));
#452=CARTESIAN_POINT('',(0.0445993405752368,0.112259267524424,0.0323263482608402));
#453=CARTESIAN_POINT('',(0.0482739783768204,0.112259267524424,0.0508));
#454=CARTESIAN_POINT('',(0.0445993405752368,0.112259267524424,0.0692736517391598));
#455=CARTESIAN_POINT('',(0.0341348574651025,0.112259267524424,0.0849348574651025));
#456=CARTESIAN_POINT('',(0.0184736517391597,0.112259267524424,0.0953993405752369));
#457=CARTESIAN_POINT('',(4.03323208164608E-17,0.112259267524424,0.0990739783768204));
#458=CARTESIAN_POINT('',(-0.0184736517391598,0.112259267524424,0.0953993405752368));
#459=CARTESIAN_POINT('',(0.0173926614922913,0.127773655162258,0.0927895992604542));
#460=CARTESIAN_POINT('',(3.03576608295941E-17,0.127773655162258,0.0962492147329189));
#461=CARTESIAN_POINT('',(-0.0173926614922914,0.127773655162258,0.0927895992604542));
#462=CARTESIAN_POINT('',(-0.0321374479372505,0.127773655162258,0.0829374479372504));
#463=CARTESIAN_POINT('',(-0.0419895992604542,0.127773655162258,0.0681926614922915));
#464=CARTESIAN_POINT('',(-0.0454492147329189,0.127773655162258,0.0508));
#465=CARTESIAN_POINT('',(-0.0419895992604542,0.127773655162258,0.0334073385077086));
#466=CARTESIAN_POINT('',(-0.0321374479372505,0.127773655162258,0.0186625520627496));
#467=CARTESIAN_POINT('',(-0.0173926614922914,0.127773655162258,0.00881040073954581));
#468=CARTESIAN_POINT('',(-6.06666172647211E-18,0.127773655162258,0.00535078526708115));
#469=CARTESIAN_POINT('',(0.0173926614922914,0.127773655162258,0.0088104007395458));
#470=CARTESIAN_POINT('',(0.0321374479372505,0.127773655162258,0.0186625520627495));
#471=CARTESIAN_POINT('',(0.0419895992604542,0.127773655162258,0.0334073385077086));
#472=CARTESIAN_POINT('',(0.0454492147329189,0.127773655162258,0.0508));
#473=CARTESIAN_POINT('',(0.0419895992604542,0.127773655162258,0.0681926614922914));
#474=CARTESIAN_POINT('',(0.0321374479372505,0.127773655162258,0.0829374479372506));
#475=CARTESIAN_POINT('',(0.0173926614922913,0.127773655162258,0.0927895992604542));
#476=CARTESIAN_POINT('',(3.03576608295941E-17,0.127773655162258,0.0962492147329189));
#477=CARTESIAN_POINT('',(-0.0173926614922914,0.127773655162258,0.0927895992604542));
#478=CARTESIAN_POINT('',(0.0158897672255197,0.146869168178204,0.0891612915388014));
#479=CARTESIAN_POINT('',(3.42607886505419E-17,0.146869168178204,0.0923219627547412));
#480=CARTESIAN_POINT('',(-0.0158897672255198,0.146869168178204,0.0891612915388014));
#481=CARTESIAN_POINT('',(-0.0293604614320528,0.146869168178204,0.0801604614320528));
#482=CARTESIAN_POINT('',(-0.0383612915388014,0.146869168178204,0.0666897672255198));
#483=CARTESIAN_POINT('',(-0.0415219627547412,0.146869168178204,0.0508));
#484=CARTESIAN_POINT('',(-0.0383612915388014,0.146869168178204,0.0349102327744802));
#485=CARTESIAN_POINT('',(-0.0293604614320528,0.146869168178204,0.0214395385679472));
#486=CARTESIAN_POINT('',(-0.0158897672255198,0.146869168178204,0.0124387084611986));
#487=CARTESIAN_POINT('',(-4.17221960037867E-18,0.146869168178204,0.00927803724525876));
#488=CARTESIAN_POINT('',(0.0158897672255198,0.146869168178204,0.0124387084611986));
#489=CARTESIAN_POINT('',(0.0293604614320528,0.146869168178204,0.0214395385679472));
#490=CARTESIAN_POINT('',(0.0383612915388014,0.146869168178204,0.0349102327744802));
#491=CARTESIAN_POINT('',(0.0415219627547412,0.146869168178204,0.0508));
#492=CARTESIAN_POINT('',(0.0383612915388014,0.146869168178204,0.0666897672255198));
#493=CARTESIAN_POINT('',(0.0293604614320528,0.146869168178204,0.0801604614320527));
#494=CARTESIAN_POINT('',(0.0158897672255197,0.146869168178204,0.0891612915388014));
#495=CARTESIAN_POINT('',(3.42607886505419E-17,0.146869168178204,0.0923219627547412));
#496=CARTESIAN_POINT('',(-0.0158897672255198,0.146869168178204,0.0891612915388014));
#497=CARTESIAN_POINT('',(0.0130188634268577,0.179333853022475,0.0822303166518032));
#498=CARTESIAN_POINT('',(2.16840434497101E-17,0.179333853022475,0.0848199295966319));
#499=CARTESIAN_POINT('',(-0.0130188634268578,0.179333853022475,0.0822303166518032));
#500=CARTESIAN_POINT('',(-0.0240557229132673,0.179333853022475,0.0748557229132674));
#501=CARTESIAN_POINT('',(-0.0314303166518031,0.179333853022475,0.0638188634268578));
#502=CARTESIAN_POINT('',(-0.0340199295966319,0.179333853022475,0.0508000000000001));
#503=CARTESIAN_POINT('',(-0.0314303166518031,0.179333853022475,0.0377811365731422));
#504=CARTESIAN_POINT('',(-0.0240557229132673,0.179333853022475,0.0267442770867327));
#505=CARTESIAN_POINT('',(-0.0130188634268578,0.179333853022475,0.0193696833481969));
#506=CARTESIAN_POINT('',(-4.73687293884206E-18,0.179333853022475,0.0167800704033682));
#507=CARTESIAN_POINT('',(0.0130188634268578,0.179333853022475,0.0193696833481968));
#508=CARTESIAN_POINT('',(0.0240557229132673,0.179333853022475,0.0267442770867327));
#509=CARTESIAN_POINT('',(0.0314303166518031,0.179333853022475,0.0377811365731422));
#510=CARTESIAN_POINT('',(0.0340199295966319,0.179333853022475,0.0508));
#511=CARTESIAN_POINT('',(0.0314303166518031,0.179333853022475,0.0638188634268578));
#512=CARTESIAN_POINT('',(0.0240557229132673,0.179333853022475,0.0748557229132674));
#513=CARTESIAN_POINT('',(0.0130188634268577,0.179333853022475,0.0822303166518032));
#514=CARTESIAN_POINT('',(2.16840434497101E-17,0.179333853022475,0.0848199295966319));
#515=CARTESIAN_POINT('',(-0.0130188634268578,0.179333853022475,0.0822303166518032));
#516=CARTESIAN_POINT('',(0.010760928542252,0.200197029518278,0.0767791796304327));
#517=CARTESIAN_POINT('',(2.10335221462188E-17,0.200197029518278,0.0789196614019753));
#518=CARTESIAN_POINT('',(-0.0107609285422521,0.200197029518278,0.0767791796304327));
#519=CARTESIAN_POINT('',(-0.0198836032620064,0.200197029518278,0.0706836032620063));
#520=CARTESIAN_POINT('',(-0.0259791796304327,0.200197029518278,0.061560928542252));
#521=CARTESIAN_POINT('',(-0.0281196614019753,0.200197029518278,0.0508));
#522=CARTESIAN_POINT('',(-0.0259791796304327,0.200197029518278,0.0400390714577479));
#523=CARTESIAN_POINT('',(-0.0198836032620064,0.200197029518278,0.0309163967379936));
#524=CARTESIAN_POINT('',(-0.0107609285422521,0.200197029518278,0.0248208203695673));
#525=CARTESIAN_POINT('',(-2.93015166234864E-18,0.200197029518278,0.0226803385980246));
#526=CARTESIAN_POINT('',(0.010760928542252,0.200197029518278,0.0248208203695674));
#527=CARTESIAN_POINT('',(0.0198836032620064,0.200197029518278,0.0309163967379936));
#528=CARTESIAN_POINT('',(0.0259791796304326,0.200197029518278,0.0400390714577479));
#529=CARTESIAN_POINT('',(0.0281196614019753,0.200197029518278,0.0508));
#530=CARTESIAN_POINT('',(0.0259791796304327,0.200197029518278,0.0615609285422521));
#531=CARTESIAN_POINT('',(0.0198836032620064,0.200197029518278,0.0706836032620063));
#532=CARTESIAN_POINT('',(0.010760928542252,0.200197029518278,0.0767791796304327));
#533=CARTESIAN_POINT('',(2.10335221462188E-17,0.200197029518278,0.0789196614019753));
#534=CARTESIAN_POINT('',(-0.0107609285422521,0.200197029518278,0.0767791796304327));
#535=CARTESIAN_POINT('',(0.00971799437602106,0.2075,0.0742613138216557));
#536=CARTESIAN_POINT('',(1.90819582357449E-17,0.2075,0.0761943430891722));
#537=CARTESIAN_POINT('',(-0.00971799437602112,0.2075,0.0742613138216556));
#538=CARTESIAN_POINT('',(-0.0179565122021314,0.2075,0.0687565122021314));
#539=CARTESIAN_POINT('',(-0.0234613138216556,0.2075,0.0605179943760211));
#540=CARTESIAN_POINT('',(-0.0253943430891722,0.2075,0.0508));
#541=CARTESIAN_POINT('',(-0.0234613138216556,0.2075,0.0410820056239789));
#542=CARTESIAN_POINT('',(-0.0179565122021314,0.2075,0.0328434877978686));
#543=CARTESIAN_POINT('',(-0.00971799437602112,0.2075,0.0273386861783444));
#544=CARTESIAN_POINT('',(-3.81925832427984E-18,0.2075,0.0254056569108278));
#545=CARTESIAN_POINT('',(0.00971799437602111,0.2075,0.0273386861783444));
#546=CARTESIAN_POINT('',(0.0179565122021314,0.2075,0.0328434877978686));
#547=CARTESIAN_POINT('',(0.0234613138216556,0.2075,0.0410820056239789));
#548=CARTESIAN_POINT('',(0.0253943430891722,0.2075,0.0508));
#549=CARTESIAN_POINT('',(0.0234613138216556,0.2075,0.0605179943760211));
#550=CARTESIAN_POINT('',(0.0179565122021314,0.2075,0.0687565122021314));
#551=CARTESIAN_POINT('',(0.00971799437602106,0.2075,0.0742613138216557));
#552=CARTESIAN_POINT('',(1.90819582357449E-17,0.2075,0.0761943430891722));
#553=CARTESIAN_POINT('',(-0.00971799437602112,0.2075,0.0742613138216556));
#554=CARTESIAN_POINT('',(0.,0.02,0.0508));
#555=CARTESIAN_POINT('',(0.,0.02,-0.0027432));
#556=CARTESIAN_POINT('',(0.,0.02,0.1029716));
#557=CARTESIAN_POINT('',(0.,0.02,0.0508));
#558=CARTESIAN_POINT('',(0.,0.02,0.));
#559=CARTESIAN_POINT('',(0.,0.199832901358605,0.0508));
#560=MECHANICAL_DESIGN_GEOMETRIC_PRESENTATION_REPRESENTATION('',(#101),
#561);
#561=(
GEOMETRIC_REPRESENTATION_CONTEXT(3)
GLOBAL_UNCERTAINTY_ASSIGNED_CONTEXT((#562))
GLOBAL_UNIT_ASSIGNED_CONTEXT((#565,#564,#563))
REPRESENTATION_CONTEXT('Tail Cone V1','TOP_LEVEL_ASSEMBLY_PART')
);
#562=UNCERTAINTY_MEASURE_WITH_UNIT(LENGTH_MEASURE(2.E-5),#565,
'DISTANCE_ACCURACY_VALUE','Maximum Tolerance applied to model');
#563=(
NAMED_UNIT(*)
SI_UNIT($,.STERADIAN.)
SOLID_ANGLE_UNIT()
);
#564=(
NAMED_UNIT(*)
PLANE_ANGLE_UNIT()
SI_UNIT($,.RADIAN.)
);
#565=(
LENGTH_UNIT()
NAMED_UNIT(*)
SI_UNIT($,.METRE.)
);
#566=PRODUCT_DEFINITION_SHAPE('','',#567);
#567=PRODUCT_DEFINITION('','',#569,#568);
#568=PRODUCT_DEFINITION_CONTEXT('',#575,'design');
#569=PRODUCT_DEFINITION_FORMATION_WITH_SPECIFIED_SOURCE('','',#571,
 .NOT_KNOWN.);
#570=PRODUCT_RELATED_PRODUCT_CATEGORY('','',(#571));
#571=PRODUCT('Tail Cone V1','Tail Cone V1','Tail Cone V1',(#573));
#572=PRODUCT_CATEGORY('','');
#573=PRODUCT_CONTEXT('',#575,'mechanical');
#574=APPLICATION_PROTOCOL_DEFINITION('international standard',
'ap242_managed_model_based_3d_engineering',2020,#575);
#575=APPLICATION_CONTEXT('managed model based 3d engineering');
ENDSEC;
END-ISO-10303-21;
