ISO-10303-21;
HEADER;
/* Generated by software containing ST-Developer
 * from STEP Tools, Inc. (www.steptools.com) 
 */
/* OPTION: using custom renumber hook */

FILE_DESCRIPTION(
/* description */ ('STEP AP242 Edition 2',
'CAx-IF Rec.Pracs.---Representation and Presentation of Product Manufa
cturing Information (PMI)---4.0---2014-10-13',
'CAx-IF Rec.Pracs.---3D Tessellated Geometry---0.4---2014-09-14','2;1',
'CAx-IF Rec.Pracs.---User Defined Attributes---1.5---2016-08-15'),
/* implementation_level */ '2;1');

FILE_NAME(
/* name */ 'Tail - Fin V1',
/* time_stamp */ '2026-08-23T20:25:31Z',
/* author */ (''),
/* organization */ (''),
/* preprocessor_version */ 'ST-DEVELOPER v20',
/* originating_system */ 'ONSHAPE BY PTC INC, 1.219',
/* authorisation */ '  ');

FILE_SCHEMA (('AP242_MANAGED_MODEL_BASED_3D_ENGINEERING_MIM_LF { 1 0 10303 442 3 1 4 }'));
ENDSEC;

DATA;
#10=SHAPE_REPRESENTATION_RELATIONSHIP('','',#69,#11);
#11=ADVANCED_BREP_SHAPE_REPRESENTATION('',(#67),#175);
#12=PLANE('',#71);
#13=PLANE('',#72);
#14=LINE('',#121,#16);
#15=LINE('',#129,#17);
#16=VECTOR('',#75,1.);
#17=VECTOR('',#76,1.);
#18=ORIENTED_EDGE('',*,*,#30,.F.);
#19=ORIENTED_EDGE('',*,*,#31,.F.);
#20=ORIENTED_EDGE('',*,*,#32,.T.);
#21=ORIENTED_EDGE('',*,*,#33,.T.);
#22=ORIENTED_EDGE('',*,*,#31,.T.);
#23=ORIENTED_EDGE('',*,*,#34,.F.);
#24=ORIENTED_EDGE('',*,*,#33,.F.);
#25=ORIENTED_EDGE('',*,*,#35,.T.);
#26=ORIENTED_EDGE('',*,*,#34,.T.);
#27=ORIENTED_EDGE('',*,*,#30,.T.);
#28=ORIENTED_EDGE('',*,*,#35,.F.);
#29=ORIENTED_EDGE('',*,*,#32,.F.);
#30=EDGE_CURVE('',#36,#37,#40,.T.);
#31=EDGE_CURVE('',#38,#36,#14,.T.);
#32=EDGE_CURVE('',#38,#39,#41,.T.);
#33=EDGE_CURVE('',#39,#37,#15,.T.);
#34=EDGE_CURVE('',#37,#36,#42,.F.);
#35=EDGE_CURVE('',#39,#38,#43,.F.);
#36=VERTEX_POINT('',#119);
#37=VERTEX_POINT('',#120);
#38=VERTEX_POINT('',#122);
#39=VERTEX_POINT('',#128);
#40=B_SPLINE_CURVE_WITH_KNOTS('',3,(#114,#115,#116,#117,#118),
 .UNSPECIFIED.,.F.,.F.,(4,1,4),(0.,0.33381232964352,1.),.UNSPECIFIED.);
#41=B_SPLINE_CURVE_WITH_KNOTS('',3,(#123,#124,#125,#126,#127),
 .UNSPECIFIED.,.F.,.F.,(4,1,4),(0.,0.373646079096717,1.),.UNSPECIFIED.);
#42=B_SPLINE_CURVE_WITH_KNOTS('',3,(#162,#163,#164,#165,#166),
 .UNSPECIFIED.,.F.,.F.,(4,1,4),(0.,0.33381232964352,1.),.UNSPECIFIED.);
#43=B_SPLINE_CURVE_WITH_KNOTS('',3,(#167,#168,#169,#170,#171),
 .UNSPECIFIED.,.F.,.F.,(4,1,4),(0.,0.373646079096717,1.),.UNSPECIFIED.);
#44=EDGE_LOOP('',(#18,#19,#20,#21));
#45=EDGE_LOOP('',(#22,#23,#24,#25));
#46=EDGE_LOOP('',(#26,#27));
#47=EDGE_LOOP('',(#28,#29));
#48=FACE_BOUND('',#44,.T.);
#49=FACE_BOUND('',#45,.T.);
#50=FACE_BOUND('',#46,.T.);
#51=FACE_BOUND('',#47,.T.);
#52=B_SPLINE_SURFACE_WITH_KNOTS('',3,1,((#82,#83),(#84,#85),(#86,#87),(#88,
#89),(#90,#91),(#92,#93),(#94,#95),(#96,#97),(#98,#99),(#100,#101),(#102,
#103),(#104,#105),(#106,#107),(#108,#109),(#110,#111),(#112,#113)),
 .RULED_SURF.,.F.,.F.,.F.,(4,2,2,2,2,2,2,4),(2,2),(0.,0.25,0.3125,0.328125,
0.34375,0.375,0.5,1.),(0.,1.),.UNSPECIFIED.);
#53=B_SPLINE_SURFACE_WITH_KNOTS('',3,1,((#130,#131),(#132,#133),(#134,#135),
(#136,#137),(#138,#139),(#140,#141),(#142,#143),(#144,#145),(#146,#147),
(#148,#149),(#150,#151),(#152,#153),(#154,#155),(#156,#157),(#158,#159),
(#160,#161)),.RULED_SURF.,.F.,.F.,.F.,(4,2,2,2,2,2,2,4),(2,2),(0.,0.5,0.625,
0.65625,0.671875,0.6875,0.75,1.),(0.,1.),.UNSPECIFIED.);
#54=ADVANCED_FACE('',(#48),#52,.T.);
#55=ADVANCED_FACE('',(#49),#53,.T.);
#56=ADVANCED_FACE('',(#50),#12,.T.);
#57=ADVANCED_FACE('',(#51),#13,.F.);
#58=CLOSED_SHELL('',(#54,#55,#56,#57));
#59=STYLED_ITEM('',(#60),#67);
#60=PRESENTATION_STYLE_ASSIGNMENT((#61));
#61=SURFACE_STYLE_USAGE(.BOTH.,#62);
#62=SURFACE_SIDE_STYLE('',(#63));
#63=SURFACE_STYLE_FILL_AREA(#64);
#64=FILL_AREA_STYLE('',(#65));
#65=FILL_AREA_STYLE_COLOUR('',#66);
#66=COLOUR_RGB('',0.647058823529412,0.647058823529412,0.647058823529412);
#67=MANIFOLD_SOLID_BREP('Fin V1',#58);
#68=SHAPE_DEFINITION_REPRESENTATION(#180,#69);
#69=SHAPE_REPRESENTATION('Fin V1',(#70),#175);
#70=AXIS2_PLACEMENT_3D('',#81,#73,#74);
#71=AXIS2_PLACEMENT_3D('',#172,#77,#78);
#72=AXIS2_PLACEMENT_3D('',#173,#79,#80);
#73=DIRECTION('',(0.,0.,1.));
#74=DIRECTION('',(1.,0.,0.));
#75=DIRECTION('',(0.978980419737605,0.203954254112001,2.47662962843399E-17));
#76=DIRECTION('',(1.,0.,2.23639137230084E-17));
#77=DIRECTION('',(1.,0.,0.));
#78=DIRECTION('',(0.,1.,0.));
#79=DIRECTION('',(1.,0.,0.));
#80=DIRECTION('',(0.,1.,0.));
#81=CARTESIAN_POINT('',(0.,0.,0.));
#82=CARTESIAN_POINT('',(0.,0.03,0.));
#83=CARTESIAN_POINT('',(0.12,0.055,3.03576608295941E-18));
#84=CARTESIAN_POINT('',(0.,0.03,-0.0044059763397375));
#85=CARTESIAN_POINT('',(0.12,0.055,-0.00282595198036924));
#86=CARTESIAN_POINT('',(0.,0.034263077476149,-0.0072989145720204));
#87=CARTESIAN_POINT('',(0.12,0.0580596304541721,-0.00440401226541872));
#88=CARTESIAN_POINT('',(0.,0.0435847371805382,-0.00916759495072276));
#89=CARTESIAN_POINT('',(0.12,0.0645787815425096,-0.00539430422024682));
#90=CARTESIAN_POINT('',(0.,0.0456487097643763,-0.00945395640588067));
#91=CARTESIAN_POINT('',(0.12,0.0660173424112082,-0.00554324844113826));
#92=CARTESIAN_POINT('',(0.,0.048457350766843,-0.00970493690570402));
#93=CARTESIAN_POINT('',(0.12,0.0679663017320095,-0.00567706071118584));
#94=CARTESIAN_POINT('',(0.,0.0490305127309698,-0.00974978443971249));
#95=CARTESIAN_POINT('',(0.12,0.0683636315079162,-0.00570120476489203));
#96=CARTESIAN_POINT('',(0.,0.0501991822982145,-0.00982883854973213));
#97=CARTESIAN_POINT('',(0.12,0.0691729255062508,-0.00574448168936087));
#98=CARTESIAN_POINT('',(0.,0.0507946899013325,-0.0098630451257433));
#99=CARTESIAN_POINT('',(0.12,0.069584916343835,-0.00576362137017508));
#100=CARTESIAN_POINT('',(0.,0.0526139483367594,-0.00994978767765352));
#101=CARTESIAN_POINT('',(0.12,0.0708418792531903,-0.00581378550606283));
#102=CARTESIAN_POINT('',(0.,0.053870442873501,-0.00998644371393996));
#103=CARTESIAN_POINT('',(0.12,0.0717077807941393,-0.00583753946500901));
#104=CARTESIAN_POINT('',(0.,0.0603606326860045,-0.0100650277935041));
#105=CARTESIAN_POINT('',(0.12,0.0761608617466825,-0.00591052753127687));
#106=CARTESIAN_POINT('',(0.,0.066214625281534,-0.00979384386584914));
#107=CARTESIAN_POINT('',(0.12,0.0801187609016712,-0.00582241645320938));
#108=CARTESIAN_POINT('',(0.,0.0966862394067926,-0.00733201506557715));
#109=CARTESIAN_POINT('',(0.12,0.100857710725916,-0.00481973824576934));
#110=CARTESIAN_POINT('',(0.,0.124908814379356,-0.00182364270696817));
#111=CARTESIAN_POINT('',(0.12,0.120487123543077,-0.00221880266508891));
#112=CARTESIAN_POINT('',(0.,0.13,2.53629509191894E-19));
#113=CARTESIAN_POINT('',(0.12,0.13,3.64149202834971E-18));
#114=CARTESIAN_POINT('',(0.12,0.055,3.03576608295941E-18));
#115=CARTESIAN_POINT('',(0.12,0.055,-0.0037733504561111));
#116=CARTESIAN_POINT('',(0.12,0.0713414779160872,-0.00841217223426821));
#117=CARTESIAN_POINT('',(0.12,0.117325277989547,-0.00295627795687269));
#118=CARTESIAN_POINT('',(0.12,0.13,3.64149202834971E-18));
#119=CARTESIAN_POINT('',(0.12,0.055,3.03576608295941E-18));
#120=CARTESIAN_POINT('',(0.12,0.13,3.0357660836812E-18));
#121=CARTESIAN_POINT('',(0.06,0.0425,1.51788304147971E-18));
#122=CARTESIAN_POINT('',(0.,0.03,0.));
#123=CARTESIAN_POINT('',(0.,0.03,0.));
#124=CARTESIAN_POINT('',(0.,0.03,-0.00658510313574328));
#125=CARTESIAN_POINT('',(0.,0.0554861149415776,-0.015163556392704));
#126=CARTESIAN_POINT('',(0.,0.123622231848927,-0.00228449151967232));
#127=CARTESIAN_POINT('',(0.,0.13,2.53629509191894E-19));
#128=CARTESIAN_POINT('',(0.,0.13,7.21783148596311E-28));
#129=CARTESIAN_POINT('',(0.06,0.13,1.08820531563218E-18));
#130=CARTESIAN_POINT('',(0.,0.13,-2.53629507748328E-19));
#131=CARTESIAN_POINT('',(0.12,0.13,2.43004013901268E-18));
#132=CARTESIAN_POINT('',(0.,0.124908814379356,0.00182364270696815));
#133=CARTESIAN_POINT('',(0.12,0.120487123543077,0.00221880266508893));
#134=CARTESIAN_POINT('',(0.,0.0966862394067926,0.00733201506557715));
#135=CARTESIAN_POINT('',(0.12,0.100857710725916,0.00481973824576934));
#136=CARTESIAN_POINT('',(0.,0.066214625281534,0.00979384386584914));
#137=CARTESIAN_POINT('',(0.12,0.0801187609016712,0.00582241645320939));
#138=CARTESIAN_POINT('',(0.,0.0603606326860045,0.0100650277935041));
#139=CARTESIAN_POINT('',(0.12,0.0761608617466825,0.00591052753127688));
#140=CARTESIAN_POINT('',(0.,0.053870442873501,0.00998644371393996));
#141=CARTESIAN_POINT('',(0.12,0.0717077807941393,0.00583753946500902));
#142=CARTESIAN_POINT('',(0.,0.0526139483367594,0.00994978767765352));
#143=CARTESIAN_POINT('',(0.12,0.0708418792531903,0.00581378550606284));
#144=CARTESIAN_POINT('',(0.,0.0507946899013325,0.0098630451257433));
#145=CARTESIAN_POINT('',(0.12,0.0695849163438349,0.00576362137017509));
#146=CARTESIAN_POINT('',(0.,0.0501991822982145,0.00982883854973213));
#147=CARTESIAN_POINT('',(0.12,0.0691729255062508,0.00574448168936088));
#148=CARTESIAN_POINT('',(0.,0.0490305127309698,0.00974978443971249));
#149=CARTESIAN_POINT('',(0.12,0.0683636315079162,0.00570120476489203));
#150=CARTESIAN_POINT('',(0.,0.048457350766843,0.00970493690570402));
#151=CARTESIAN_POINT('',(0.12,0.0679663017320095,0.00567706071118585));
#152=CARTESIAN_POINT('',(0.,0.0456487097643763,0.00945395640588067));
#153=CARTESIAN_POINT('',(0.12,0.0660173424112082,0.00554324844113826));
#154=CARTESIAN_POINT('',(0.,0.0435847371805382,0.00916759495072276));
#155=CARTESIAN_POINT('',(0.12,0.0645787815425096,0.00539430422024683));
#156=CARTESIAN_POINT('',(0.,0.034263077476149,0.0072989145720204));
#157=CARTESIAN_POINT('',(0.12,0.0580596304541721,0.00440401226541873));
#158=CARTESIAN_POINT('',(0.,0.03,0.0044059763397375));
#159=CARTESIAN_POINT('',(0.12,0.055,0.00282595198036924));
#160=CARTESIAN_POINT('',(0.,0.03,0.));
#161=CARTESIAN_POINT('',(0.12,0.055,3.03576608295941E-18));
#162=CARTESIAN_POINT('',(0.12,0.055,3.03576608295941E-18));
#163=CARTESIAN_POINT('',(0.12,0.055,0.0037733504561111));
#164=CARTESIAN_POINT('',(0.12,0.0713414779160872,0.00841217223426822));
#165=CARTESIAN_POINT('',(0.12,0.117325277989547,0.00295627795687269));
#166=CARTESIAN_POINT('',(0.12,0.13,2.43004013901268E-18));
#167=CARTESIAN_POINT('',(0.,0.03,0.));
#168=CARTESIAN_POINT('',(0.,0.03,0.00658510313574328));
#169=CARTESIAN_POINT('',(0.,0.0554861149415776,0.015163556392704));
#170=CARTESIAN_POINT('',(0.,0.123622231848927,0.00228449151967232));
#171=CARTESIAN_POINT('',(0.,0.13,-2.53629507748328E-19));
#172=CARTESIAN_POINT('',(0.12,0.065,-6.93889390390723E-18));
#173=CARTESIAN_POINT('',(0.,0.065,0.));
#174=MECHANICAL_DESIGN_GEOMETRIC_PRESENTATION_REPRESENTATION('',(#59),#175);
#175=(
GEOMETRIC_REPRESENTATION_CONTEXT(3)
GLOBAL_UNCERTAINTY_ASSIGNED_CONTEXT((#176))
GLOBAL_UNIT_ASSIGNED_CONTEXT((#179,#178,#177))
REPRESENTATION_CONTEXT('Fin V1','TOP_LEVEL_ASSEMBLY_PART')
);
#176=UNCERTAINTY_MEASURE_WITH_UNIT(LENGTH_MEASURE(1.E-8),#179,
'DISTANCE_ACCURACY_VALUE','Maximum Tolerance applied to model');
#177=(
NAMED_UNIT(*)
SI_UNIT($,.STERADIAN.)
SOLID_ANGLE_UNIT()
);
#178=(
NAMED_UNIT(*)
PLANE_ANGLE_UNIT()
SI_UNIT($,.RADIAN.)
);
#179=(
LENGTH_UNIT()
NAMED_UNIT(*)
SI_UNIT($,.METRE.)
);
#180=PRODUCT_DEFINITION_SHAPE('','',#181);
#181=PRODUCT_DEFINITION('','',#183,#182);
#182=PRODUCT_DEFINITION_CONTEXT('',#189,'design');
#183=PRODUCT_DEFINITION_FORMATION_WITH_SPECIFIED_SOURCE('','',#185,
 .NOT_KNOWN.);
#184=PRODUCT_RELATED_PRODUCT_CATEGORY('','',(#185));
#185=PRODUCT('Fin V1','Fin V1','Fin V1',(#187));
#186=PRODUCT_CATEGORY('','');
#187=PRODUCT_CONTEXT('',#189,'mechanical');
#188=APPLICATION_PROTOCOL_DEFINITION('international standard',
'ap242_managed_model_based_3d_engineering',2020,#189);
#189=APPLICATION_CONTEXT('managed model based 3d engineering');
ENDSEC;
END-ISO-10303-21;
