ISO-10303-21;
HEADER;
/* Generated by software containing ST-Developer
 * from STEP Tools, Inc. (www.steptools.com) 
 */
/* OPTION: using custom renumber hook */

FILE_DESCRIPTION(
/* description */ ('STEP AP242 Edition 2',
'CAx-IF Rec.Pracs.---Representation and Presentation of Product Manufa
cturing Information (PMI)---4.0---2014-10-13',
'CAx-IF Rec.Pracs.---3D Tessellated Geometry---0.4---2014-09-14','2;1',
'CAx-IF Rec.Pracs.---User Defined Attributes---1.5---2016-08-15'),
/* implementation_level */ '2;1');

FILE_NAME(
/* name */ 'Tail - Control Horn',
/* time_stamp */ '2026-08-23T20:30:31Z',
/* author */ (''),
/* organization */ (''),
/* preprocessor_version */ 'ST-DEVELOPER v20',
/* originating_system */ 'ONSHAPE BY PTC INC, 1.219',
/* authorisation */ '  ');

FILE_SCHEMA (('AP242_MANAGED_MODEL_BASED_3D_ENGINEERING_MIM_LF { 1 0 10303 442 3 1 4 }'));
ENDSEC;

DATA;
#10=SHAPE_REPRESENTATION_RELATIONSHIP('','',#431,#11);
#11=ADVANCED_BREP_SHAPE_REPRESENTATION('',(#429),#695);
#12=CYLINDRICAL_SURFACE('',#446,0.001);
#13=CYLINDRICAL_SURFACE('',#454,0.003);
#14=CYLINDRICAL_SURFACE('',#455,0.0017);
#15=CYLINDRICAL_SURFACE('',#457,0.003);
#16=LINE('',#581,#62);
#17=LINE('',#586,#63);
#18=LINE('',#588,#64);
#19=LINE('',#590,#65);
#20=LINE('',#592,#66);
#21=LINE('',#594,#67);
#22=LINE('',#596,#68);
#23=LINE('',#598,#69);
#24=LINE('',#601,#70);
#25=LINE('',#603,#71);
#26=LINE('',#610,#72);
#27=LINE('',#612,#73);
#28=LINE('',#614,#74);
#29=LINE('',#617,#75);
#30=LINE('',#619,#76);
#31=LINE('',#621,#77);
#32=LINE('',#623,#78);
#33=LINE('',#625,#79);
#34=LINE('',#627,#80);
#35=LINE('',#629,#81);
#36=LINE('',#631,#82);
#37=LINE('',#632,#83);
#38=LINE('',#634,#84);
#39=LINE('',#636,#85);
#40=LINE('',#638,#86);
#41=LINE('',#640,#87);
#42=LINE('',#646,#88);
#43=LINE('',#649,#89);
#44=LINE('',#651,#90);
#45=LINE('',#655,#91);
#46=LINE('',#657,#92);
#47=LINE('',#658,#93);
#48=LINE('',#660,#94);
#49=LINE('',#662,#95);
#50=LINE('',#664,#96);
#51=LINE('',#665,#97);
#52=LINE('',#671,#98);
#53=LINE('',#675,#99);
#54=LINE('',#677,#100);
#55=LINE('',#679,#101);
#56=LINE('',#681,#102);
#57=LINE('',#683,#103);
#58=LINE('',#685,#104);
#59=LINE('',#687,#105);
#60=LINE('',#689,#106);
#61=LINE('',#691,#107);
#62=VECTOR('',#471,1.);
#63=VECTOR('',#474,1.);
#64=VECTOR('',#475,1.);
#65=VECTOR('',#476,1.);
#66=VECTOR('',#477,1.);
#67=VECTOR('',#478,1.);
#68=VECTOR('',#479,1.);
#69=VECTOR('',#480,1.);
#70=VECTOR('',#483,1.);
#71=VECTOR('',#484,1.);
#72=VECTOR('',#491,1.);
#73=VECTOR('',#492,1.);
#74=VECTOR('',#493,1.);
#75=VECTOR('',#496,1.);
#76=VECTOR('',#497,1.);
#77=VECTOR('',#498,1.);
#78=VECTOR('',#499,1.);
#79=VECTOR('',#500,1.);
#80=VECTOR('',#501,1.);
#81=VECTOR('',#502,1.);
#82=VECTOR('',#505,1.);
#83=VECTOR('',#506,1.);
#84=VECTOR('',#509,1.);
#85=VECTOR('',#512,1.);
#86=VECTOR('',#515,1.);
#87=VECTOR('',#518,1.);
#88=VECTOR('',#527,1.);
#89=VECTOR('',#528,1.);
#90=VECTOR('',#529,1.);
#91=VECTOR('',#534,1.);
#92=VECTOR('',#535,1.);
#93=VECTOR('',#536,1.);
#94=VECTOR('',#539,1.);
#95=VECTOR('',#540,1.);
#96=VECTOR('',#543,1.);
#97=VECTOR('',#544,1.);
#98=VECTOR('',#553,1.);
#99=VECTOR('',#556,1.);
#100=VECTOR('',#559,1.);
#101=VECTOR('',#560,1.);
#102=VECTOR('',#561,1.);
#103=VECTOR('',#564,1.);
#104=VECTOR('',#565,1.);
#105=VECTOR('',#568,1.);
#106=VECTOR('',#569,1.);
#107=VECTOR('',#572,1.);
#108=ORIENTED_EDGE('',*,*,#220,.F.);
#109=ORIENTED_EDGE('',*,*,#221,.T.);
#110=ORIENTED_EDGE('',*,*,#222,.T.);
#111=ORIENTED_EDGE('',*,*,#223,.F.);
#112=ORIENTED_EDGE('',*,*,#224,.F.);
#113=ORIENTED_EDGE('',*,*,#225,.F.);
#114=ORIENTED_EDGE('',*,*,#226,.F.);
#115=ORIENTED_EDGE('',*,*,#227,.F.);
#116=ORIENTED_EDGE('',*,*,#228,.F.);
#117=ORIENTED_EDGE('',*,*,#229,.F.);
#118=ORIENTED_EDGE('',*,*,#230,.T.);
#119=ORIENTED_EDGE('',*,*,#231,.T.);
#120=ORIENTED_EDGE('',*,*,#232,.T.);
#121=ORIENTED_EDGE('',*,*,#233,.T.);
#122=ORIENTED_EDGE('',*,*,#234,.F.);
#123=ORIENTED_EDGE('',*,*,#235,.F.);
#124=ORIENTED_EDGE('',*,*,#236,.F.);
#125=ORIENTED_EDGE('',*,*,#237,.F.);
#126=ORIENTED_EDGE('',*,*,#238,.F.);
#127=ORIENTED_EDGE('',*,*,#239,.T.);
#128=ORIENTED_EDGE('',*,*,#240,.T.);
#129=ORIENTED_EDGE('',*,*,#241,.T.);
#130=ORIENTED_EDGE('',*,*,#242,.T.);
#131=ORIENTED_EDGE('',*,*,#243,.T.);
#132=ORIENTED_EDGE('',*,*,#244,.T.);
#133=ORIENTED_EDGE('',*,*,#245,.T.);
#134=ORIENTED_EDGE('',*,*,#223,.T.);
#135=ORIENTED_EDGE('',*,*,#229,.T.);
#136=ORIENTED_EDGE('',*,*,#246,.T.);
#137=ORIENTED_EDGE('',*,*,#239,.F.);
#138=ORIENTED_EDGE('',*,*,#245,.F.);
#139=ORIENTED_EDGE('',*,*,#247,.F.);
#140=ORIENTED_EDGE('',*,*,#244,.F.);
#141=ORIENTED_EDGE('',*,*,#248,.F.);
#142=ORIENTED_EDGE('',*,*,#224,.T.);
#143=ORIENTED_EDGE('',*,*,#247,.T.);
#144=ORIENTED_EDGE('',*,*,#243,.F.);
#145=ORIENTED_EDGE('',*,*,#249,.F.);
#146=ORIENTED_EDGE('',*,*,#225,.T.);
#147=ORIENTED_EDGE('',*,*,#248,.T.);
#148=ORIENTED_EDGE('',*,*,#242,.F.);
#149=ORIENTED_EDGE('',*,*,#250,.F.);
#150=ORIENTED_EDGE('',*,*,#226,.T.);
#151=ORIENTED_EDGE('',*,*,#249,.T.);
#152=ORIENTED_EDGE('',*,*,#241,.F.);
#153=ORIENTED_EDGE('',*,*,#251,.F.);
#154=ORIENTED_EDGE('',*,*,#227,.T.);
#155=ORIENTED_EDGE('',*,*,#250,.T.);
#156=ORIENTED_EDGE('',*,*,#220,.T.);
#157=ORIENTED_EDGE('',*,*,#233,.F.);
#158=ORIENTED_EDGE('',*,*,#240,.F.);
#159=ORIENTED_EDGE('',*,*,#246,.F.);
#160=ORIENTED_EDGE('',*,*,#228,.T.);
#161=ORIENTED_EDGE('',*,*,#251,.T.);
#162=ORIENTED_EDGE('',*,*,#252,.T.);
#163=ORIENTED_EDGE('',*,*,#253,.T.);
#164=ORIENTED_EDGE('',*,*,#254,.T.);
#165=ORIENTED_EDGE('',*,*,#255,.T.);
#166=ORIENTED_EDGE('',*,*,#256,.F.);
#167=ORIENTED_EDGE('',*,*,#257,.T.);
#168=ORIENTED_EDGE('',*,*,#258,.T.);
#169=ORIENTED_EDGE('',*,*,#253,.F.);
#170=ORIENTED_EDGE('',*,*,#259,.F.);
#171=ORIENTED_EDGE('',*,*,#237,.T.);
#172=ORIENTED_EDGE('',*,*,#260,.T.);
#173=ORIENTED_EDGE('',*,*,#261,.T.);
#174=ORIENTED_EDGE('',*,*,#257,.F.);
#175=ORIENTED_EDGE('',*,*,#236,.T.);
#176=ORIENTED_EDGE('',*,*,#255,.F.);
#177=ORIENTED_EDGE('',*,*,#262,.T.);
#178=ORIENTED_EDGE('',*,*,#260,.F.);
#179=ORIENTED_EDGE('',*,*,#235,.T.);
#180=ORIENTED_EDGE('',*,*,#263,.T.);
#181=ORIENTED_EDGE('',*,*,#263,.F.);
#182=ORIENTED_EDGE('',*,*,#234,.T.);
#183=ORIENTED_EDGE('',*,*,#238,.T.);
#184=ORIENTED_EDGE('',*,*,#259,.T.);
#185=ORIENTED_EDGE('',*,*,#256,.T.);
#186=ORIENTED_EDGE('',*,*,#252,.F.);
#187=ORIENTED_EDGE('',*,*,#264,.T.);
#188=ORIENTED_EDGE('',*,*,#222,.F.);
#189=ORIENTED_EDGE('',*,*,#265,.F.);
#190=ORIENTED_EDGE('',*,*,#266,.F.);
#191=ORIENTED_EDGE('',*,*,#267,.T.);
#192=ORIENTED_EDGE('',*,*,#230,.F.);
#193=ORIENTED_EDGE('',*,*,#268,.F.);
#194=ORIENTED_EDGE('',*,*,#269,.T.);
#195=ORIENTED_EDGE('',*,*,#270,.T.);
#196=ORIENTED_EDGE('',*,*,#265,.T.);
#197=ORIENTED_EDGE('',*,*,#221,.F.);
#198=ORIENTED_EDGE('',*,*,#271,.F.);
#199=ORIENTED_EDGE('',*,*,#272,.T.);
#200=ORIENTED_EDGE('',*,*,#268,.T.);
#201=ORIENTED_EDGE('',*,*,#232,.F.);
#202=ORIENTED_EDGE('',*,*,#273,.T.);
#203=ORIENTED_EDGE('',*,*,#274,.T.);
#204=ORIENTED_EDGE('',*,*,#271,.T.);
#205=ORIENTED_EDGE('',*,*,#231,.F.);
#206=ORIENTED_EDGE('',*,*,#267,.F.);
#207=ORIENTED_EDGE('',*,*,#264,.F.);
#208=ORIENTED_EDGE('',*,*,#270,.F.);
#209=ORIENTED_EDGE('',*,*,#275,.T.);
#210=ORIENTED_EDGE('',*,*,#273,.F.);
#211=ORIENTED_EDGE('',*,*,#266,.T.);
#212=ORIENTED_EDGE('',*,*,#274,.F.);
#213=ORIENTED_EDGE('',*,*,#275,.F.);
#214=ORIENTED_EDGE('',*,*,#269,.F.);
#215=ORIENTED_EDGE('',*,*,#272,.F.);
#216=ORIENTED_EDGE('',*,*,#258,.F.);
#217=ORIENTED_EDGE('',*,*,#261,.F.);
#218=ORIENTED_EDGE('',*,*,#262,.F.);
#219=ORIENTED_EDGE('',*,*,#254,.F.);
#220=EDGE_CURVE('',#276,#276,#314,.T.);
#221=EDGE_CURVE('',#277,#278,#16,.T.);
#222=EDGE_CURVE('',#278,#279,#315,.F.);
#223=EDGE_CURVE('',#280,#279,#17,.T.);
#224=EDGE_CURVE('',#281,#280,#18,.T.);
#225=EDGE_CURVE('',#282,#281,#19,.T.);
#226=EDGE_CURVE('',#283,#282,#20,.T.);
#227=EDGE_CURVE('',#284,#283,#21,.T.);
#228=EDGE_CURVE('',#285,#284,#22,.T.);
#229=EDGE_CURVE('',#279,#285,#23,.T.);
#230=EDGE_CURVE('',#279,#286,#316,.F.);
#231=EDGE_CURVE('',#286,#287,#24,.T.);
#232=EDGE_CURVE('',#287,#277,#25,.T.);
#233=EDGE_CURVE('',#288,#288,#317,.T.);
#234=EDGE_CURVE('',#289,#290,#318,.F.);
#235=EDGE_CURVE('',#291,#289,#26,.T.);
#236=EDGE_CURVE('',#292,#291,#27,.T.);
#237=EDGE_CURVE('',#293,#292,#28,.T.);
#238=EDGE_CURVE('',#290,#293,#319,.F.);
#239=EDGE_CURVE('',#290,#294,#29,.T.);
#240=EDGE_CURVE('',#294,#295,#30,.T.);
#241=EDGE_CURVE('',#295,#296,#31,.T.);
#242=EDGE_CURVE('',#296,#297,#32,.T.);
#243=EDGE_CURVE('',#297,#298,#33,.T.);
#244=EDGE_CURVE('',#298,#299,#34,.T.);
#245=EDGE_CURVE('',#299,#290,#35,.T.);
#246=EDGE_CURVE('',#285,#294,#36,.T.);
#247=EDGE_CURVE('',#280,#299,#37,.T.);
#248=EDGE_CURVE('',#281,#298,#38,.T.);
#249=EDGE_CURVE('',#282,#297,#39,.T.);
#250=EDGE_CURVE('',#283,#296,#40,.T.);
#251=EDGE_CURVE('',#284,#295,#41,.T.);
#252=EDGE_CURVE('',#300,#300,#320,.T.);
#253=EDGE_CURVE('',#301,#302,#42,.T.);
#254=EDGE_CURVE('',#302,#303,#43,.T.);
#255=EDGE_CURVE('',#303,#304,#44,.T.);
#256=EDGE_CURVE('',#301,#304,#321,.T.);
#257=EDGE_CURVE('',#292,#305,#45,.T.);
#258=EDGE_CURVE('',#305,#302,#46,.T.);
#259=EDGE_CURVE('',#293,#301,#47,.T.);
#260=EDGE_CURVE('',#291,#306,#48,.T.);
#261=EDGE_CURVE('',#306,#305,#49,.T.);
#262=EDGE_CURVE('',#303,#306,#50,.T.);
#263=EDGE_CURVE('',#289,#304,#51,.T.);
#264=EDGE_CURVE('',#307,#307,#322,.T.);
#265=EDGE_CURVE('',#308,#278,#52,.T.);
#266=EDGE_CURVE('',#309,#308,#323,.T.);
#267=EDGE_CURVE('',#309,#286,#53,.T.);
#268=EDGE_CURVE('',#310,#277,#54,.T.);
#269=EDGE_CURVE('',#310,#311,#55,.F.);
#270=EDGE_CURVE('',#311,#308,#56,.T.);
#271=EDGE_CURVE('',#312,#287,#57,.T.);
#272=EDGE_CURVE('',#312,#310,#58,.T.);
#273=EDGE_CURVE('',#309,#313,#59,.T.);
#274=EDGE_CURVE('',#313,#312,#60,.F.);
#275=EDGE_CURVE('',#311,#313,#61,.T.);
#276=VERTEX_POINT('',#580);
#277=VERTEX_POINT('',#582);
#278=VERTEX_POINT('',#583);
#279=VERTEX_POINT('',#585);
#280=VERTEX_POINT('',#587);
#281=VERTEX_POINT('',#589);
#282=VERTEX_POINT('',#591);
#283=VERTEX_POINT('',#593);
#284=VERTEX_POINT('',#595);
#285=VERTEX_POINT('',#597);
#286=VERTEX_POINT('',#600);
#287=VERTEX_POINT('',#602);
#288=VERTEX_POINT('',#606);
#289=VERTEX_POINT('',#608);
#290=VERTEX_POINT('',#609);
#291=VERTEX_POINT('',#611);
#292=VERTEX_POINT('',#613);
#293=VERTEX_POINT('',#615);
#294=VERTEX_POINT('',#618);
#295=VERTEX_POINT('',#620);
#296=VERTEX_POINT('',#622);
#297=VERTEX_POINT('',#624);
#298=VERTEX_POINT('',#626);
#299=VERTEX_POINT('',#628);
#300=VERTEX_POINT('',#645);
#301=VERTEX_POINT('',#647);
#302=VERTEX_POINT('',#648);
#303=VERTEX_POINT('',#650);
#304=VERTEX_POINT('',#652);
#305=VERTEX_POINT('',#656);
#306=VERTEX_POINT('',#661);
#307=VERTEX_POINT('',#669);
#308=VERTEX_POINT('',#672);
#309=VERTEX_POINT('',#674);
#310=VERTEX_POINT('',#678);
#311=VERTEX_POINT('',#680);
#312=VERTEX_POINT('',#684);
#313=VERTEX_POINT('',#688);
#314=CIRCLE('',#434,0.001);
#315=CIRCLE('',#435,0.003);
#316=CIRCLE('',#436,0.003);
#317=CIRCLE('',#438,0.001);
#318=CIRCLE('',#439,0.003);
#319=CIRCLE('',#440,0.003);
#320=CIRCLE('',#449,0.0017);
#321=CIRCLE('',#450,0.003);
#322=CIRCLE('',#456,0.0017);
#323=CIRCLE('',#458,0.003);
#324=EDGE_LOOP('',(#108));
#325=EDGE_LOOP('',(#109,#110,#111,#112,#113,#114,#115,#116,#117,#118,#119,
#120));
#326=EDGE_LOOP('',(#121));
#327=EDGE_LOOP('',(#122,#123,#124,#125,#126,#127,#128,#129,#130,#131,#132,
#133));
#328=EDGE_LOOP('',(#134,#135,#136,#137,#138,#139));
#329=EDGE_LOOP('',(#140,#141,#142,#143));
#330=EDGE_LOOP('',(#144,#145,#146,#147));
#331=EDGE_LOOP('',(#148,#149,#150,#151));
#332=EDGE_LOOP('',(#152,#153,#154,#155));
#333=EDGE_LOOP('',(#156));
#334=EDGE_LOOP('',(#157));
#335=EDGE_LOOP('',(#158,#159,#160,#161));
#336=EDGE_LOOP('',(#162));
#337=EDGE_LOOP('',(#163,#164,#165,#166));
#338=EDGE_LOOP('',(#167,#168,#169,#170,#171));
#339=EDGE_LOOP('',(#172,#173,#174,#175));
#340=EDGE_LOOP('',(#176,#177,#178,#179,#180));
#341=EDGE_LOOP('',(#181,#182,#183,#184,#185));
#342=EDGE_LOOP('',(#186));
#343=EDGE_LOOP('',(#187));
#344=EDGE_LOOP('',(#188,#189,#190,#191,#192));
#345=EDGE_LOOP('',(#193,#194,#195,#196,#197));
#346=EDGE_LOOP('',(#198,#199,#200,#201));
#347=EDGE_LOOP('',(#202,#203,#204,#205,#206));
#348=EDGE_LOOP('',(#207));
#349=EDGE_LOOP('',(#208,#209,#210,#211));
#350=EDGE_LOOP('',(#212,#213,#214,#215));
#351=EDGE_LOOP('',(#216,#217,#218,#219));
#352=FACE_BOUND('',#324,.T.);
#353=FACE_BOUND('',#325,.T.);
#354=FACE_BOUND('',#326,.T.);
#355=FACE_BOUND('',#327,.T.);
#356=FACE_BOUND('',#328,.T.);
#357=FACE_BOUND('',#329,.T.);
#358=FACE_BOUND('',#330,.T.);
#359=FACE_BOUND('',#331,.T.);
#360=FACE_BOUND('',#332,.T.);
#361=FACE_BOUND('',#333,.T.);
#362=FACE_BOUND('',#334,.T.);
#363=FACE_BOUND('',#335,.T.);
#364=FACE_BOUND('',#336,.T.);
#365=FACE_BOUND('',#337,.T.);
#366=FACE_BOUND('',#338,.T.);
#367=FACE_BOUND('',#339,.T.);
#368=FACE_BOUND('',#340,.T.);
#369=FACE_BOUND('',#341,.T.);
#370=FACE_BOUND('',#342,.T.);
#371=FACE_BOUND('',#343,.T.);
#372=FACE_BOUND('',#344,.T.);
#373=FACE_BOUND('',#345,.T.);
#374=FACE_BOUND('',#346,.T.);
#375=FACE_BOUND('',#347,.T.);
#376=FACE_BOUND('',#348,.T.);
#377=FACE_BOUND('',#349,.T.);
#378=FACE_BOUND('',#350,.T.);
#379=FACE_BOUND('',#351,.T.);
#380=PLANE('',#433);
#381=PLANE('',#437);
#382=PLANE('',#441);
#383=PLANE('',#442);
#384=PLANE('',#443);
#385=PLANE('',#444);
#386=PLANE('',#445);
#387=PLANE('',#447);
#388=PLANE('',#448);
#389=PLANE('',#451);
#390=PLANE('',#452);
#391=PLANE('',#453);
#392=PLANE('',#459);
#393=PLANE('',#460);
#394=PLANE('',#461);
#395=PLANE('',#462);
#396=PLANE('',#463);
#397=PLANE('',#464);
#398=ADVANCED_FACE('',(#352,#353),#380,.T.);
#399=ADVANCED_FACE('',(#354,#355),#381,.F.);
#400=ADVANCED_FACE('',(#356),#382,.T.);
#401=ADVANCED_FACE('',(#357),#383,.T.);
#402=ADVANCED_FACE('',(#358),#384,.T.);
#403=ADVANCED_FACE('',(#359),#385,.T.);
#404=ADVANCED_FACE('',(#360),#386,.T.);
#405=ADVANCED_FACE('',(#361,#362),#12,.F.);
#406=ADVANCED_FACE('',(#363),#387,.T.);
#407=ADVANCED_FACE('',(#364,#365),#388,.F.);
#408=ADVANCED_FACE('',(#366),#389,.T.);
#409=ADVANCED_FACE('',(#367),#390,.T.);
#410=ADVANCED_FACE('',(#368),#391,.T.);
#411=ADVANCED_FACE('',(#369),#13,.T.);
#412=ADVANCED_FACE('',(#370,#371),#14,.F.);
#413=ADVANCED_FACE('',(#372),#15,.T.);
#414=ADVANCED_FACE('',(#373),#392,.T.);
#415=ADVANCED_FACE('',(#374),#393,.T.);
#416=ADVANCED_FACE('',(#375),#394,.T.);
#417=ADVANCED_FACE('',(#376,#377),#395,.T.);
#418=ADVANCED_FACE('',(#378),#396,.F.);
#419=ADVANCED_FACE('',(#379),#397,.T.);
#420=CLOSED_SHELL('',(#398,#399,#400,#401,#402,#403,#404,#405,#406,#407,
#408,#409,#410,#411,#412,#413,#414,#415,#416,#417,#418,#419));
#421=STYLED_ITEM('',(#422),#429);
#422=PRESENTATION_STYLE_ASSIGNMENT((#423));
#423=SURFACE_STYLE_USAGE(.BOTH.,#424);
#424=SURFACE_SIDE_STYLE('',(#425));
#425=SURFACE_STYLE_FILL_AREA(#426);
#426=FILL_AREA_STYLE('',(#427));
#427=FILL_AREA_STYLE_COLOUR('',#428);
#428=COLOUR_RGB('',0.768627450980392,0.886274509803922,0.952941176470588);
#429=MANIFOLD_SOLID_BREP('Control Horn',#420);
#430=SHAPE_DEFINITION_REPRESENTATION(#700,#431);
#431=SHAPE_REPRESENTATION('Control Horn',(#432),#695);
#432=AXIS2_PLACEMENT_3D('',#577,#465,#466);
#433=AXIS2_PLACEMENT_3D('',#578,#467,#468);
#434=AXIS2_PLACEMENT_3D('',#579,#469,#470);
#435=AXIS2_PLACEMENT_3D('',#584,#472,#473);
#436=AXIS2_PLACEMENT_3D('',#599,#481,#482);
#437=AXIS2_PLACEMENT_3D('',#604,#485,#486);
#438=AXIS2_PLACEMENT_3D('',#605,#487,#488);
#439=AXIS2_PLACEMENT_3D('',#607,#489,#490);
#440=AXIS2_PLACEMENT_3D('',#616,#494,#495);
#441=AXIS2_PLACEMENT_3D('',#630,#503,#504);
#442=AXIS2_PLACEMENT_3D('',#633,#507,#508);
#443=AXIS2_PLACEMENT_3D('',#635,#510,#511);
#444=AXIS2_PLACEMENT_3D('',#637,#513,#514);
#445=AXIS2_PLACEMENT_3D('',#639,#516,#517);
#446=AXIS2_PLACEMENT_3D('',#641,#519,#520);
#447=AXIS2_PLACEMENT_3D('',#642,#521,#522);
#448=AXIS2_PLACEMENT_3D('',#643,#523,#524);
#449=AXIS2_PLACEMENT_3D('',#644,#525,#526);
#450=AXIS2_PLACEMENT_3D('',#653,#530,#531);
#451=AXIS2_PLACEMENT_3D('',#654,#532,#533);
#452=AXIS2_PLACEMENT_3D('',#659,#537,#538);
#453=AXIS2_PLACEMENT_3D('',#663,#541,#542);
#454=AXIS2_PLACEMENT_3D('',#666,#545,#546);
#455=AXIS2_PLACEMENT_3D('',#667,#547,#548);
#456=AXIS2_PLACEMENT_3D('',#668,#549,#550);
#457=AXIS2_PLACEMENT_3D('',#670,#551,#552);
#458=AXIS2_PLACEMENT_3D('',#673,#554,#555);
#459=AXIS2_PLACEMENT_3D('',#676,#557,#558);
#460=AXIS2_PLACEMENT_3D('',#682,#562,#563);
#461=AXIS2_PLACEMENT_3D('',#686,#566,#567);
#462=AXIS2_PLACEMENT_3D('',#690,#570,#571);
#463=AXIS2_PLACEMENT_3D('',#692,#573,#574);
#464=AXIS2_PLACEMENT_3D('',#693,#575,#576);
#465=DIRECTION('',(0.,0.,1.));
#466=DIRECTION('',(1.,0.,0.));
#467=DIRECTION('',(0.,0.,1.));
#468=DIRECTION('',(1.,0.,0.));
#469=DIRECTION('',(0.,0.,1.));
#470=DIRECTION('',(1.,0.,0.));
#471=DIRECTION('',(-1.,-1.31305449094002E-16,0.));
#472=DIRECTION('',(0.,0.,1.));
#473=DIRECTION('',(1.,0.,0.));
#474=DIRECTION('',(-1.7347234759768E-16,1.,0.));
#475=DIRECTION('',(-1.,0.,0.));
#476=DIRECTION('',(-0.91347810793439,-0.406887879304124,0.));
#477=DIRECTION('',(0.,-1.,0.));
#478=DIRECTION('',(0.91347810793439,-0.406887879304124,0.));
#479=DIRECTION('',(1.,0.,0.));
#480=DIRECTION('',(-1.7347234759768E-16,1.,0.));
#481=DIRECTION('',(0.,0.,1.));
#482=DIRECTION('',(1.,0.,0.));
#483=DIRECTION('',(1.,0.,0.));
#484=DIRECTION('',(0.,-1.,0.));
#485=DIRECTION('',(0.,0.,1.));
#486=DIRECTION('',(1.,0.,0.));
#487=DIRECTION('',(0.,0.,1.));
#488=DIRECTION('',(1.,0.,0.));
#489=DIRECTION('',(0.,0.,1.));
#490=DIRECTION('',(1.,0.,0.));
#491=DIRECTION('',(-1.,-1.31305449094002E-16,0.));
#492=DIRECTION('',(0.,-1.,0.));
#493=DIRECTION('',(1.,0.,0.));
#494=DIRECTION('',(0.,0.,1.));
#495=DIRECTION('',(1.,0.,0.));
#496=DIRECTION('',(-1.7347234759768E-16,1.,0.));
#497=DIRECTION('',(1.,0.,0.));
#498=DIRECTION('',(0.91347810793439,-0.406887879304124,0.));
#499=DIRECTION('',(0.,-1.,0.));
#500=DIRECTION('',(-0.91347810793439,-0.406887879304124,0.));
#501=DIRECTION('',(-1.,0.,0.));
#502=DIRECTION('',(-1.7347234759768E-16,1.,0.));
#503=DIRECTION('',(-1.,-1.7347234759768E-16,0.));
#504=DIRECTION('',(1.7347234759768E-16,-1.,0.));
#505=DIRECTION('',(0.,0.,-1.));
#506=DIRECTION('',(0.,0.,-1.));
#507=DIRECTION('',(0.,-1.,0.));
#508=DIRECTION('',(0.,0.,-1.));
#509=DIRECTION('',(0.,0.,-1.));
#510=DIRECTION('',(0.406887879304124,-0.91347810793439,0.));
#511=DIRECTION('',(0.91347810793439,0.406887879304124,0.));
#512=DIRECTION('',(0.,0.,-1.));
#513=DIRECTION('',(1.,0.,0.));
#514=DIRECTION('',(0.,0.,-1.));
#515=DIRECTION('',(0.,0.,-1.));
#516=DIRECTION('',(0.406887879304124,0.91347810793439,0.));
#517=DIRECTION('',(-0.91347810793439,0.406887879304124,0.));
#518=DIRECTION('',(0.,0.,-1.));
#519=DIRECTION('',(0.,0.,-1.));
#520=DIRECTION('',(-1.,0.,0.));
#521=DIRECTION('',(0.,1.,0.));
#522=DIRECTION('',(0.,0.,1.));
#523=DIRECTION('',(0.,0.,1.));
#524=DIRECTION('',(1.,0.,0.));
#525=DIRECTION('',(0.,0.,1.));
#526=DIRECTION('',(1.,0.,0.));
#527=DIRECTION('',(1.,0.,0.));
#528=DIRECTION('',(0.,-1.,0.));
#529=DIRECTION('',(-1.,-1.31305449094002E-16,0.));
#530=DIRECTION('',(0.,0.,1.));
#531=DIRECTION('',(1.,0.,0.));
#532=DIRECTION('',(0.,1.,0.));
#533=DIRECTION('',(0.,0.,1.));
#534=DIRECTION('',(0.,0.,-1.));
#535=DIRECTION('',(-0.847998304005088,0.,-0.52999894000318));
#536=DIRECTION('',(0.,0.,-1.));
#537=DIRECTION('',(1.,0.,0.));
#538=DIRECTION('',(0.,0.,-1.));
#539=DIRECTION('',(0.,0.,-1.));
#540=DIRECTION('',(0.,1.,0.));
#541=DIRECTION('',(1.31305449094002E-16,-1.,0.));
#542=DIRECTION('',(1.,1.31305449094002E-16,0.));
#543=DIRECTION('',(0.847998304005088,1.1134679813834E-16,0.52999894000318));
#544=DIRECTION('',(0.,0.,-1.));
#545=DIRECTION('',(0.,0.,-1.));
#546=DIRECTION('',(-1.,0.,0.));
#547=DIRECTION('',(0.,0.,-1.));
#548=DIRECTION('',(-1.,0.,0.));
#549=DIRECTION('',(0.,0.,1.));
#550=DIRECTION('',(1.,0.,0.));
#551=DIRECTION('',(0.,0.,-1.));
#552=DIRECTION('',(-1.,0.,0.));
#553=DIRECTION('',(0.,0.,-1.));
#554=DIRECTION('',(0.,0.,1.));
#555=DIRECTION('',(1.,0.,0.));
#556=DIRECTION('',(0.,0.,-1.));
#557=DIRECTION('',(1.31305449094002E-16,-1.,0.));
#558=DIRECTION('',(1.,1.31305449094002E-16,0.));
#559=DIRECTION('',(0.,0.,-1.));
#560=DIRECTION('',(0.847998304005088,1.1134679813834E-16,-0.52999894000318));
#561=DIRECTION('',(-1.,-1.31305449094002E-16,0.));
#562=DIRECTION('',(1.,0.,0.));
#563=DIRECTION('',(0.,0.,-1.));
#564=DIRECTION('',(0.,0.,-1.));
#565=DIRECTION('',(0.,-1.,0.));
#566=DIRECTION('',(0.,1.,0.));
#567=DIRECTION('',(0.,0.,1.));
#568=DIRECTION('',(1.,0.,0.));
#569=DIRECTION('',(-0.847998304005088,0.,0.52999894000318));
#570=DIRECTION('',(0.,0.,1.));
#571=DIRECTION('',(1.,0.,0.));
#572=DIRECTION('',(0.,1.,0.));
#573=DIRECTION('',(-0.52999894000318,0.,-0.847998304005088));
#574=DIRECTION('',(0.,-1.,0.));
#575=DIRECTION('',(0.52999894000318,0.,-0.847998304005088));
#576=DIRECTION('',(0.,1.,0.));
#577=CARTESIAN_POINT('',(0.,0.,0.));
#578=CARTESIAN_POINT('',(0.0095,3.46944695195361E-18,0.002));
#579=CARTESIAN_POINT('',(0.017,6.12323399573677E-20,0.002));
#580=CARTESIAN_POINT('',(0.018,6.12323399573677E-20,0.002));
#581=CARTESIAN_POINT('',(0.00745859521458148,-0.0007,0.002));
#582=CARTESIAN_POINT('',(0.012,-0.0007,0.002));
#583=CARTESIAN_POINT('',(0.00291719042916297,-0.0007,0.002));
#584=CARTESIAN_POINT('',(2.60208521396521E-18,4.28339451780917E-19,0.002));
#585=CARTESIAN_POINT('',(-0.003,-9.20775910121256E-20,0.002));
#586=CARTESIAN_POINT('',(-0.003,0.005,0.002));
#587=CARTESIAN_POINT('',(-0.003,-0.01,0.002));
#588=CARTESIAN_POINT('',(-4.14047854185168E-5,-0.01,0.002));
#589=CARTESIAN_POINT('',(0.00291719042916297,-0.01,0.002));
#590=CARTESIAN_POINT('',(0.0124585952145815,-0.00575,0.002));
#591=CARTESIAN_POINT('',(0.022,-0.0015,0.002));
#592=CARTESIAN_POINT('',(0.022,6.50521303491303E-19,0.002));
#593=CARTESIAN_POINT('',(0.022,0.0015,0.002));
#594=CARTESIAN_POINT('',(0.0124585952145815,0.00575,0.002));
#595=CARTESIAN_POINT('',(0.00291719042916294,0.01,0.002));
#596=CARTESIAN_POINT('',(-4.14047854185168E-5,0.01,0.002));
#597=CARTESIAN_POINT('',(-0.003,0.01,0.002));
#598=CARTESIAN_POINT('',(-0.003,0.005,0.002));
#599=CARTESIAN_POINT('',(2.60208521396521E-18,4.28339451780917E-19,0.002));
#600=CARTESIAN_POINT('',(0.00291719042916297,0.0007,0.002));
#601=CARTESIAN_POINT('',(0.00745859521458148,0.0007,0.002));
#602=CARTESIAN_POINT('',(0.012,0.0007,0.002));
#603=CARTESIAN_POINT('',(0.012,3.36102673470506E-18,0.002));
#604=CARTESIAN_POINT('',(0.0095,3.46944695195361E-18,-0.002));
#605=CARTESIAN_POINT('',(0.017,6.12323399573677E-20,-0.002));
#606=CARTESIAN_POINT('',(0.018,6.12323399573677E-20,-0.002));
#607=CARTESIAN_POINT('',(2.60208521396521E-18,4.28339451780917E-19,-0.002));
#608=CARTESIAN_POINT('',(0.00291719042916297,-0.0007,-0.002));
#609=CARTESIAN_POINT('',(-0.003,-9.20775910121256E-20,-0.002));
#610=CARTESIAN_POINT('',(0.00745859521458148,-0.0007,-0.002));
#611=CARTESIAN_POINT('',(0.012,-0.0007,-0.002));
#612=CARTESIAN_POINT('',(0.012,3.36102673470506E-18,-0.002));
#613=CARTESIAN_POINT('',(0.012,0.0007,-0.002));
#614=CARTESIAN_POINT('',(0.00745859521458148,0.0007,-0.002));
#615=CARTESIAN_POINT('',(0.00291719042916297,0.0007,-0.002));
#616=CARTESIAN_POINT('',(2.60208521396521E-18,4.28339451780917E-19,-0.002));
#617=CARTESIAN_POINT('',(-0.003,0.005,-0.002));
#618=CARTESIAN_POINT('',(-0.003,0.01,-0.002));
#619=CARTESIAN_POINT('',(-4.14047854185168E-5,0.01,-0.002));
#620=CARTESIAN_POINT('',(0.00291719042916294,0.01,-0.002));
#621=CARTESIAN_POINT('',(0.0124585952145815,0.00575,-0.002));
#622=CARTESIAN_POINT('',(0.022,0.0015,-0.002));
#623=CARTESIAN_POINT('',(0.022,6.50521303491303E-19,-0.002));
#624=CARTESIAN_POINT('',(0.022,-0.0015,-0.002));
#625=CARTESIAN_POINT('',(0.0124585952145815,-0.00575,-0.002));
#626=CARTESIAN_POINT('',(0.00291719042916297,-0.01,-0.002));
#627=CARTESIAN_POINT('',(-4.14047854185168E-5,-0.01,-0.002));
#628=CARTESIAN_POINT('',(-0.003,-0.01,-0.002));
#629=CARTESIAN_POINT('',(-0.003,0.005,-0.002));
#630=CARTESIAN_POINT('',(-0.003,0.005,0.002));
#631=CARTESIAN_POINT('',(-0.003,0.01,0.002));
#632=CARTESIAN_POINT('',(-0.003,-0.01,0.002));
#633=CARTESIAN_POINT('',(-4.14047854185168E-5,-0.01,0.002));
#634=CARTESIAN_POINT('',(0.00291719042916297,-0.01,0.002));
#635=CARTESIAN_POINT('',(0.0124585952145815,-0.00575,0.002));
#636=CARTESIAN_POINT('',(0.022,-0.0015,0.002));
#637=CARTESIAN_POINT('',(0.022,6.50521303491303E-19,0.002));
#638=CARTESIAN_POINT('',(0.022,0.0015,0.002));
#639=CARTESIAN_POINT('',(0.0124585952145815,0.00575,0.002));
#640=CARTESIAN_POINT('',(0.00291719042916294,0.01,0.002));
#641=CARTESIAN_POINT('',(0.017,6.12323399573677E-20,0.002));
#642=CARTESIAN_POINT('',(-4.14047854185168E-5,0.01,0.002));
#643=CARTESIAN_POINT('',(0.0095,3.46944695195361E-18,-0.0075));
#644=CARTESIAN_POINT('',(0.,1.04094977927525E-19,-0.0075));
#645=CARTESIAN_POINT('',(0.0017,1.04094977927525E-19,-0.0075));
#646=CARTESIAN_POINT('',(0.00745859521458148,0.0007,-0.0075));
#647=CARTESIAN_POINT('',(0.00291719042916297,0.0007,-0.0075));
#648=CARTESIAN_POINT('',(0.004,0.0007,-0.0075));
#649=CARTESIAN_POINT('',(0.004,-0.0007,-0.0075));
#650=CARTESIAN_POINT('',(0.004,-0.0007,-0.0075));
#651=CARTESIAN_POINT('',(0.00745859521458148,-0.0007,-0.0075));
#652=CARTESIAN_POINT('',(0.00291719042916297,-0.0007,-0.0075));
#653=CARTESIAN_POINT('',(2.60208521396521E-18,4.28339451780917E-19,-0.0075));
#654=CARTESIAN_POINT('',(0.00745859521458148,0.0007,0.0075));
#655=CARTESIAN_POINT('',(0.012,0.0007,0.0075));
#656=CARTESIAN_POINT('',(0.012,0.0007,-0.0025));
#657=CARTESIAN_POINT('',(0.0132286527385754,0.0007,-0.00173209203839035));
#658=CARTESIAN_POINT('',(0.00291719042916297,0.0007,0.0075));
#659=CARTESIAN_POINT('',(0.012,3.36102673470506E-18,0.0075));
#660=CARTESIAN_POINT('',(0.012,-0.0007,0.0075));
#661=CARTESIAN_POINT('',(0.012,-0.0007,-0.0025));
#662=CARTESIAN_POINT('',(0.012,0.0007,-0.0025));
#663=CARTESIAN_POINT('',(0.00745859521458148,-0.0007,0.0075));
#664=CARTESIAN_POINT('',(0.0132286527385754,-0.0007,-0.00173209203839035));
#665=CARTESIAN_POINT('',(0.00291719042916297,-0.0007,0.0075));
#666=CARTESIAN_POINT('',(2.60208521396521E-18,4.28339451780917E-19,0.0075));
#667=CARTESIAN_POINT('',(0.,1.04094977927525E-19,0.002));
#668=CARTESIAN_POINT('',(0.,1.04094977927525E-19,0.0075));
#669=CARTESIAN_POINT('',(0.0017,1.04094977927525E-19,0.0075));
#670=CARTESIAN_POINT('',(2.60208521396521E-18,4.28339451780917E-19,0.0075));
#671=CARTESIAN_POINT('',(0.00291719042916297,-0.0007,0.0075));
#672=CARTESIAN_POINT('',(0.00291719042916297,-0.0007,0.0075));
#673=CARTESIAN_POINT('',(2.60208521396521E-18,4.28339451780917E-19,0.0075));
#674=CARTESIAN_POINT('',(0.00291719042916297,0.0007,0.0075));
#675=CARTESIAN_POINT('',(0.00291719042916297,0.0007,0.0075));
#676=CARTESIAN_POINT('',(0.00745859521458148,-0.0007,0.0075));
#677=CARTESIAN_POINT('',(0.012,-0.0007,0.0075));
#678=CARTESIAN_POINT('',(0.012,-0.0007,0.0025));
#679=CARTESIAN_POINT('',(0.00648707970486758,-0.0007,0.00594557518445776));
#680=CARTESIAN_POINT('',(0.004,-0.0007,0.0075));
#681=CARTESIAN_POINT('',(0.00745859521458148,-0.0007,0.0075));
#682=CARTESIAN_POINT('',(0.012,3.36102673470506E-18,0.0075));
#683=CARTESIAN_POINT('',(0.012,0.0007,0.0075));
#684=CARTESIAN_POINT('',(0.012,0.0007,0.0025));
#685=CARTESIAN_POINT('',(0.012,3.36102673470506E-18,0.0025));
#686=CARTESIAN_POINT('',(0.00745859521458148,0.0007,0.0075));
#687=CARTESIAN_POINT('',(0.00745859521458148,0.0007,0.0075));
#688=CARTESIAN_POINT('',(0.004,0.0007,0.0075));
#689=CARTESIAN_POINT('',(0.00648707970486758,0.0007,0.00594557518445776));
#690=CARTESIAN_POINT('',(0.0095,3.46944695195361E-18,0.0075));
#691=CARTESIAN_POINT('',(0.004,3.46944695195361E-18,0.0075));
#692=CARTESIAN_POINT('',(0.012,3.36102673470506E-18,0.0025));
#693=CARTESIAN_POINT('',(0.004,3.46944695195361E-18,-0.0075));
#694=MECHANICAL_DESIGN_GEOMETRIC_PRESENTATION_REPRESENTATION('',(#421),
#695);
#695=(
GEOMETRIC_REPRESENTATION_CONTEXT(3)
GLOBAL_UNCERTAINTY_ASSIGNED_CONTEXT((#696))
GLOBAL_UNIT_ASSIGNED_CONTEXT((#699,#698,#697))
REPRESENTATION_CONTEXT('Control Horn','TOP_LEVEL_ASSEMBLY_PART')
);
#696=UNCERTAINTY_MEASURE_WITH_UNIT(LENGTH_MEASURE(1.E-8),#699,
'DISTANCE_ACCURACY_VALUE','Maximum Tolerance applied to model');
#697=(
NAMED_UNIT(*)
SI_UNIT($,.STERADIAN.)
SOLID_ANGLE_UNIT()
);
#698=(
NAMED_UNIT(*)
PLANE_ANGLE_UNIT()
SI_UNIT($,.RADIAN.)
);
#699=(
LENGTH_UNIT()
NAMED_UNIT(*)
SI_UNIT($,.METRE.)
);
#700=PRODUCT_DEFINITION_SHAPE('','',#701);
#701=PRODUCT_DEFINITION('','',#703,#702);
#702=PRODUCT_DEFINITION_CONTEXT('',#709,'design');
#703=PRODUCT_DEFINITION_FORMATION_WITH_SPECIFIED_SOURCE('','',#705,
 .NOT_KNOWN.);
#704=PRODUCT_RELATED_PRODUCT_CATEGORY('','',(#705));
#705=PRODUCT('Control Horn','Control Horn','Control Horn',(#707));
#706=PRODUCT_CATEGORY('','');
#707=PRODUCT_CONTEXT('',#709,'mechanical');
#708=APPLICATION_PROTOCOL_DEFINITION('international standard',
'ap242_managed_model_based_3d_engineering',2020,#709);
#709=APPLICATION_CONTEXT('managed model based 3d engineering');
ENDSEC;
END-ISO-10303-21;
