ISO-10303-21;
HEADER;
/* Generated by software containing ST-Developer
 * from STEP Tools, Inc. (www.steptools.com) 
 */
/* OPTION: using custom renumber hook */

FILE_DESCRIPTION(
/* description */ ('STEP AP242 Edition 2',
'CAx-IF Rec.Pracs.---Representation and Presentation of Product Manufa
cturing Information (PMI)---4.0---2014-10-13',
'CAx-IF Rec.Pracs.---3D Tessellated Geometry---0.4---2014-09-14','2;1',
'CAx-IF Rec.Pracs.---User Defined Attributes---1.5---2016-08-15'),
/* implementation_level */ '2;1');

FILE_NAME(
/* name */ 'Tail - Fin V2',
/* time_stamp */ '2026-08-23T20:30:07Z',
/* author */ (''),
/* organization */ (''),
/* preprocessor_version */ 'ST-DEVELOPER v20',
/* originating_system */ 'ONSHAPE BY PTC INC, 1.219',
/* authorisation */ '  ');

FILE_SCHEMA (('AP242_MANAGED_MODEL_BASED_3D_ENGINEERING_MIM_LF { 1 0 10303 442 3 1 4 }'));
ENDSEC;

DATA;
#10=SHAPE_REPRESENTATION_RELATIONSHIP('','',#110,#11);
#11=ADVANCED_BREP_SHAPE_REPRESENTATION('',(#108),#260);
#12=CYLINDRICAL_SURFACE('',#116,0.002);
#13=ELLIPSE('',#115,0.0020069785414699,0.002);
#14=PLANE('',#113);
#15=PLANE('',#114);
#16=PLANE('',#118);
#17=CIRCLE('',#112,0.0042);
#18=CIRCLE('',#117,0.002);
#19=(
BOUNDED_SURFACE()
B_SPLINE_SURFACE(3,3,((#184,#185,#186,#187),(#188,#189,#190,#191),(#192,
#193,#194,#195),(#196,#197,#198,#199)),.UNSPECIFIED.,.F.,.F.,.F.)
B_SPLINE_SURFACE_WITH_KNOTS((4,4),(4,4),(0.,1.),(0.0691946249375976,1.),
 .PIECEWISE_BEZIER_KNOTS.)
GEOMETRIC_REPRESENTATION_ITEM()
RATIONAL_B_SPLINE_SURFACE(((1.,1.,1.,1.),(0.333333333333334,0.333333333333334,
0.333333333333334,0.333333333333334),(0.333333333333334,0.333333333333334,
0.333333333333334,0.333333333333334),(1.,1.,1.,1.)))
REPRESENTATION_ITEM('')
SURFACE()
);
#20=B_SPLINE_CURVE_WITH_KNOTS('',3,(#162,#163,#164,#165,#166,#167,#168,
#169,#170,#171,#172,#173,#174,#175),.UNSPECIFIED.,.F.,.F.,(4,1,1,1,1,1,
1,1,1,1,1,4),(0.,0.00225078936149405,0.0045015787229881,0.00900315744597621,
0.0135047361689643,0.0180063148919524,0.0270094723379286,0.0360126297839048,
0.045015787229881,0.0540189446758572,0.0630221021218334,0.0720252595678096),
 .UNSPECIFIED.);
#21=B_SPLINE_CURVE_WITH_KNOTS('',3,(#179,#180,#181,#182,#183),
 .UNSPECIFIED.,.F.,.F.,(4,1,4),(0.,0.467750217325909,1.),.UNSPECIFIED.);
#22=B_SPLINE_CURVE_WITH_KNOTS('',3,(#200,#201,#202,#203,#204,#205,#206,
#207),.UNSPECIFIED.,.F.,.F.,(4,1,1,1,1,4),(0.,0.00225182127017797,0.00450364254035593,
0.00900728508071186,0.0135109276210678,0.0180145701614237),
 .UNSPECIFIED.);
#23=B_SPLINE_CURVE_WITH_KNOTS('',3,(#232,#233,#234,#235,#236,#237,#238,
#239,#240,#241,#242,#243,#244,#245),.UNSPECIFIED.,.F.,.F.,(4,1,1,1,1,1,
1,1,1,1,1,4),(0.,0.00901120835516283,0.0180224167103257,0.0270336250654885,
0.0360448334206513,0.0450560417758141,0.054067250130977,0.0585728543085584,
0.0630784584861398,0.0675840626637212,0.0698368647525119,0.0720896668413026),
 .UNSPECIFIED.);
#24=B_SPLINE_CURVE_WITH_KNOTS('',3,(#246,#247,#248,#249,#250),
 .UNSPECIFIED.,.F.,.F.,(4,1,4),(0.,0.467750217325909,1.),.UNSPECIFIED.);
#25=ORIENTED_EDGE('',*,*,#47,.F.);
#26=ORIENTED_EDGE('',*,*,#48,.T.);
#27=ORIENTED_EDGE('',*,*,#49,.T.);
#28=ORIENTED_EDGE('',*,*,#50,.F.);
#29=ORIENTED_EDGE('',*,*,#49,.F.);
#30=ORIENTED_EDGE('',*,*,#51,.T.);
#31=ORIENTED_EDGE('',*,*,#52,.T.);
#32=ORIENTED_EDGE('',*,*,#53,.F.);
#33=ORIENTED_EDGE('',*,*,#52,.F.);
#34=ORIENTED_EDGE('',*,*,#54,.T.);
#35=ORIENTED_EDGE('',*,*,#47,.T.);
#36=ORIENTED_EDGE('',*,*,#55,.F.);
#37=ORIENTED_EDGE('',*,*,#50,.T.);
#38=ORIENTED_EDGE('',*,*,#53,.T.);
#39=ORIENTED_EDGE('',*,*,#55,.T.);
#40=ORIENTED_EDGE('',*,*,#56,.T.);
#41=ORIENTED_EDGE('',*,*,#54,.F.);
#42=ORIENTED_EDGE('',*,*,#51,.F.);
#43=ORIENTED_EDGE('',*,*,#48,.F.);
#44=ORIENTED_EDGE('',*,*,#56,.F.);
#45=ORIENTED_EDGE('',*,*,#57,.T.);
#46=ORIENTED_EDGE('',*,*,#57,.F.);
#47=EDGE_CURVE('',#58,#59,#66,.T.);
#48=EDGE_CURVE('',#58,#60,#20,.T.);
#49=EDGE_CURVE('',#60,#61,#67,.T.);
#50=EDGE_CURVE('',#59,#61,#21,.F.);
#51=EDGE_CURVE('',#60,#62,#22,.T.);
#52=EDGE_CURVE('',#62,#63,#68,.T.);
#53=EDGE_CURVE('',#61,#63,#17,.T.);
#54=EDGE_CURVE('',#62,#58,#23,.T.);
#55=EDGE_CURVE('',#63,#59,#24,.T.);
#56=EDGE_CURVE('',#64,#64,#13,.F.);
#57=EDGE_CURVE('',#65,#65,#18,.T.);
#58=VERTEX_POINT('',#160);
#59=VERTEX_POINT('',#161);
#60=VERTEX_POINT('',#176);
#61=VERTEX_POINT('',#178);
#62=VERTEX_POINT('',#208);
#63=VERTEX_POINT('',#210);
#64=VERTEX_POINT('',#254);
#65=VERTEX_POINT('',#257);
#66=LINE('',#159,#69);
#67=LINE('',#177,#70);
#68=LINE('',#209,#71);
#69=VECTOR('',#121,1.);
#70=VECTOR('',#122,1.);
#71=VECTOR('',#123,1.);
#72=EDGE_LOOP('',(#25,#26,#27,#28));
#73=EDGE_LOOP('',(#29,#30,#31,#32));
#74=EDGE_LOOP('',(#33,#34,#35,#36));
#75=EDGE_LOOP('',(#37,#38,#39));
#76=EDGE_LOOP('',(#40));
#77=EDGE_LOOP('',(#41,#42,#43));
#78=EDGE_LOOP('',(#44));
#79=EDGE_LOOP('',(#45));
#80=EDGE_LOOP('',(#46));
#81=FACE_BOUND('',#72,.T.);
#82=FACE_BOUND('',#73,.T.);
#83=FACE_BOUND('',#74,.T.);
#84=FACE_BOUND('',#75,.T.);
#85=FACE_BOUND('',#76,.T.);
#86=FACE_BOUND('',#77,.T.);
#87=FACE_BOUND('',#78,.T.);
#88=FACE_BOUND('',#79,.T.);
#89=FACE_BOUND('',#80,.T.);
#90=B_SPLINE_SURFACE_WITH_KNOTS('',3,3,((#139,#140,#141,#142),(#143,#144,
#145,#146),(#147,#148,#149,#150),(#151,#152,#153,#154),(#155,#156,#157,
#158)),.UNSPECIFIED.,.F.,.F.,.F.,(4,1,4),(4,4),(0.,0.532249782674091,1.),
(0.,1.),.UNSPECIFIED.);
#91=B_SPLINE_SURFACE_WITH_KNOTS('',3,3,((#212,#213,#214,#215),(#216,#217,
#218,#219),(#220,#221,#222,#223),(#224,#225,#226,#227),(#228,#229,#230,
#231)),.UNSPECIFIED.,.F.,.F.,.F.,(4,1,4),(4,4),(0.,0.467750217325909,1.),
(0.,1.),.UNSPECIFIED.);
#92=ADVANCED_FACE('',(#81),#90,.T.);
#93=ADVANCED_FACE('',(#82),#19,.T.);
#94=ADVANCED_FACE('',(#83),#91,.T.);
#95=ADVANCED_FACE('',(#84),#14,.T.);
#96=ADVANCED_FACE('',(#85,#86),#15,.T.);
#97=ADVANCED_FACE('',(#87,#88),#12,.F.);
#98=ADVANCED_FACE('',(#89),#16,.F.);
#99=CLOSED_SHELL('',(#92,#93,#94,#95,#96,#97,#98));
#100=STYLED_ITEM('',(#101),#108);
#101=PRESENTATION_STYLE_ASSIGNMENT((#102));
#102=SURFACE_STYLE_USAGE(.BOTH.,#103);
#103=SURFACE_SIDE_STYLE('',(#104));
#104=SURFACE_STYLE_FILL_AREA(#105);
#105=FILL_AREA_STYLE('',(#106));
#106=FILL_AREA_STYLE_COLOUR('',#107);
#107=COLOUR_RGB('',0.647058823529412,0.647058823529412,0.647058823529412);
#108=MANIFOLD_SOLID_BREP('Fin V2',#99);
#109=SHAPE_DEFINITION_REPRESENTATION(#265,#110);
#110=SHAPE_REPRESENTATION('Fin V2',(#111),#260);
#111=AXIS2_PLACEMENT_3D('',#138,#119,#120);
#112=AXIS2_PLACEMENT_3D('',#211,#124,#125);
#113=AXIS2_PLACEMENT_3D('',#251,#126,#127);
#114=AXIS2_PLACEMENT_3D('',#252,#128,#129);
#115=AXIS2_PLACEMENT_3D('',#253,#130,#131);
#116=AXIS2_PLACEMENT_3D('',#255,#132,#133);
#117=AXIS2_PLACEMENT_3D('',#256,#134,#135);
#118=AXIS2_PLACEMENT_3D('',#258,#136,#137);
#119=DIRECTION('',(0.,0.,1.));
#120=DIRECTION('',(1.,0.,0.));
#121=DIRECTION('',(3.34845309833452E-18,0.136218340490878,0.990678839843625));
#122=DIRECTION('',(0.0207770205391074,0.383220601045081,0.92342313505357));
#123=DIRECTION('',(-0.0207770205391074,0.383220601045081,0.92342313505357));
#124=DIRECTION('',(0.,0.,1.));
#125=DIRECTION('',(1.,0.,0.));
#126=DIRECTION('',(0.,0.,1.));
#127=DIRECTION('',(1.,0.,0.));
#128=DIRECTION('',(0.,-0.0833197793365124,-0.996522861941117));
#129=DIRECTION('',(0.,0.996522861941117,-0.0833197793365124));
#130=DIRECTION('',(0.,-0.0833197793365124,-0.996522861941117));
#131=DIRECTION('',(0.,0.996522861941117,-0.0833197793365124));
#132=DIRECTION('',(0.,0.,-1.));
#133=DIRECTION('',(-1.,0.,0.));
#134=DIRECTION('',(0.,0.,1.));
#135=DIRECTION('',(1.,0.,0.));
#136=DIRECTION('',(0.,0.,1.));
#137=DIRECTION('',(1.,0.,0.));
#138=CARTESIAN_POINT('',(0.,0.,0.));
#139=CARTESIAN_POINT('',(-9.01322194774253E-19,0.08,0.));
#140=CARTESIAN_POINT('',(-8.11189975299173E-19,0.0836666666669937,0.0266666666666216));
#141=CARTESIAN_POINT('',(-7.21057755818004E-19,0.0873333333335737,0.0533333333333004));
#142=CARTESIAN_POINT('',(-6.30925536341977E-19,0.091,0.08));
#143=CARTESIAN_POINT('',(-0.00173227157193208,0.0750170686154466,0.));
#144=CARTESIAN_POINT('',(-0.00155904441473651,0.0791820284208053,0.0266666666666296));
#145=CARTESIAN_POINT('',(-0.00138581725754912,0.083346988225226,0.053333333333406));
#146=CARTESIAN_POINT('',(-0.00121259010035246,0.0875119480308126,0.08));
#147=CARTESIAN_POINT('',(-0.00514186403298364,0.0380580723057817,0.));
#148=CARTESIAN_POINT('',(-0.00462767762966096,0.0459189317417625,0.0266666666666979));
#149=CARTESIAN_POINT('',(-0.00411349122639535,0.0537797911779187,0.0533333333333454));
#150=CARTESIAN_POINT('',(-0.00359930482308855,0.0616406506140472,0.08));
#151=CARTESIAN_POINT('',(-0.006,0.0105192341146561,0.));
#152=CARTESIAN_POINT('',(-0.00539999999998806,0.02113397736982,0.0266666666666812));
#153=CARTESIAN_POINT('',(-0.00480000000000129,0.0317487206248081,0.053333333333433));
#154=CARTESIAN_POINT('',(-0.0042,0.0423634638802593,0.08));
#155=CARTESIAN_POINT('',(-0.006,0.006,0.));
#156=CARTESIAN_POINT('',(-0.0053999999999879,0.0170666666666136,0.0266666666666883));
#157=CARTESIAN_POINT('',(-0.00479999999999984,0.028133333332938,0.0533333333334975));
#158=CARTESIAN_POINT('',(-0.0042,0.0392,0.08));
#159=CARTESIAN_POINT('',(-7.6612386555847E-19,0.0855000000002128,0.0399999999999708));
#160=CARTESIAN_POINT('',(7.70371977754894E-34,0.08,0.));
#161=CARTESIAN_POINT('',(5.2963073470649E-34,0.091,0.08));
#162=CARTESIAN_POINT('',(-9.0132219477114E-19,0.0799999999997202,2.33979502439751E-14));
#163=CARTESIAN_POINT('',(-0.000251927912065999,0.0792835583001126,5.99020520470775E-5));
#164=CARTESIAN_POINT('',(-0.000601070950712626,0.0778253583683794,0.000181822884153062));
#165=CARTESIAN_POINT('',(-0.00116206276965037,0.0748864815050727,0.000427543861663764));
#166=CARTESIAN_POINT('',(-0.00170297651579217,0.0711867126734781,0.00073688340059224));
#167=CARTESIAN_POINT('',(-0.00225117999635599,0.0667301890222148,0.00110949559185488));
#168=CARTESIAN_POINT('',(-0.00288895365174134,0.0607743258404526,0.00160746831783558));
#169=CARTESIAN_POINT('',(-0.00356736975983139,0.0533214318855515,0.00223060854216637));
#170=CARTESIAN_POINT('',(-0.00425764038595444,0.0443672467133595,0.00297927248273285));
#171=CARTESIAN_POINT('',(-0.00483975771076819,0.0354036117927569,0.00372872652153184));
#172=CARTESIAN_POINT('',(-0.00532077158792023,0.026434978701074,0.00447859845993864));
#173=CARTESIAN_POINT('',(-0.00568136307552956,0.0174618195218902,0.00522884882679906));
#174=CARTESIAN_POINT('',(-0.00587109326107919,0.0114776483708507,0.00572918839638752));
#175=CARTESIAN_POINT('',(-0.00586545693350888,0.00848157211522151,0.00597969184395332));
#176=CARTESIAN_POINT('',(-0.00586545693352284,0.00848157211512272,0.00597969184395326));
#177=CARTESIAN_POINT('',(-0.0050999999999954,0.0225999999998318,0.0400000000000697));
#178=CARTESIAN_POINT('',(-0.0042,0.0392,0.08));
#179=CARTESIAN_POINT('',(-0.0042,0.0392,0.08));
#180=CARTESIAN_POINT('',(-0.0042,0.0423634638802593,0.08));
#181=CARTESIAN_POINT('',(-0.00359930482308855,0.0616406506140472,0.08));
#182=CARTESIAN_POINT('',(-0.00121259010035246,0.0875119480308126,0.08));
#183=CARTESIAN_POINT('',(-6.30925536341977E-19,0.091,0.08));
#184=CARTESIAN_POINT('',(-0.00587544967511015,0.0082972615479134,0.0055355699950139));
#185=CARTESIAN_POINT('',(-0.00531696645006438,0.0185981743651885,0.0303570466633785));
#186=CARTESIAN_POINT('',(-0.00475848322503729,0.0288990871822747,0.0551785233318221));
#187=CARTESIAN_POINT('',(-0.0042,0.0392,0.08));
#188=CARTESIAN_POINT('',(-0.00587544967511084,-0.00345363780230794,0.00553556999501307));
#189=CARTESIAN_POINT('',(-0.00531696645007092,0.00796424146505247,0.0303570466633767));
#190=CARTESIAN_POINT('',(-0.00475848322508357,0.019382120732168,0.0551785233318543));
#191=CARTESIAN_POINT('',(-0.0042,0.0308,0.08));
#192=CARTESIAN_POINT('',(0.00587544967511033,-0.00345363780230795,0.00553556999501306));
#193=CARTESIAN_POINT('',(0.00531696645006604,0.00796424146505243,0.0303570466633766));
#194=CARTESIAN_POINT('',(0.00475848322504833,0.0193821207321676,0.0551785233318536));
#195=CARTESIAN_POINT('',(0.0042,0.0308,0.08));
#196=CARTESIAN_POINT('',(0.00587544967511015,0.0082972615479134,0.0055355699950139));
#197=CARTESIAN_POINT('',(0.00531696645006438,0.0185981743651885,0.0303570466633785));
#198=CARTESIAN_POINT('',(0.00475848322503729,0.0288990871822747,0.0551785233318221));
#199=CARTESIAN_POINT('',(0.0042,0.0392,0.08));
#200=CARTESIAN_POINT('',(-0.00586545693352284,0.00848157211512272,0.00597969184395326));
#201=CARTESIAN_POINT('',(-0.00586402670940389,0.00772131458393817,0.00604325735976474));
#202=CARTESIAN_POINT('',(-0.00554593111449443,0.00622944384083038,0.0061679934254002));
#203=CARTESIAN_POINT('',(-0.00377110909917388,0.00370601026145983,0.00637897898030657));
#204=CARTESIAN_POINT('',(-4.48579547278178E-6,0.00223437055817462,0.0065020235184938));
#205=CARTESIAN_POINT('',(0.00453247794755685,0.00400077977807224,0.00635433315228065));
#206=CARTESIAN_POINT('',(0.00586259630881523,0.00696096325489222,0.00610683071806273));
#207=CARTESIAN_POINT('',(0.00586545693350888,0.00848157211512386,0.00597969184395315));
#208=CARTESIAN_POINT('',(0.00586545693352284,0.00848157211512272,0.00597969184395326));
#209=CARTESIAN_POINT('',(0.0050999999999954,0.0225999999998318,0.0400000000000697));
#210=CARTESIAN_POINT('',(0.0042,0.0392,0.08));
#211=CARTESIAN_POINT('',(0.,0.0392,0.08));
#212=CARTESIAN_POINT('',(0.006,0.006,0.));
#213=CARTESIAN_POINT('',(0.0053999999999879,0.0170666666666136,0.0266666666666883));
#214=CARTESIAN_POINT('',(0.00479999999999984,0.028133333332938,0.0533333333334975));
#215=CARTESIAN_POINT('',(0.0042,0.0392,0.08));
#216=CARTESIAN_POINT('',(0.006,0.0105192341146562,0.));
#217=CARTESIAN_POINT('',(0.00539999999998806,0.02113397736982,0.0266666666666812));
#218=CARTESIAN_POINT('',(0.00479999999999895,0.0317487206245466,0.053333333333537));
#219=CARTESIAN_POINT('',(0.0042,0.0423634638802593,0.08));
#220=CARTESIAN_POINT('',(0.00514186403298364,0.0380580723057817,0.));
#221=CARTESIAN_POINT('',(0.00462767762966096,0.0459189317417625,0.0266666666666979));
#222=CARTESIAN_POINT('',(0.00411349122639482,0.0537797911778258,0.0533333333333727));
#223=CARTESIAN_POINT('',(0.00359930482308855,0.0616406506140472,0.08));
#224=CARTESIAN_POINT('',(0.00173227157193208,0.0750170686154466,0.));
#225=CARTESIAN_POINT('',(0.00155904441473651,0.0791820284208053,0.0266666666666296));
#226=CARTESIAN_POINT('',(0.00138581725754912,0.083346988225226,0.053333333333406));
#227=CARTESIAN_POINT('',(0.00121259010035246,0.0875119480308126,0.08));
#228=CARTESIAN_POINT('',(9.01322194774255E-19,0.08,0.));
#229=CARTESIAN_POINT('',(8.11189975299174E-19,0.0836666666669937,0.0266666666666216));
#230=CARTESIAN_POINT('',(7.2105775582361E-19,0.0873333333335737,0.0533333333333004));
#231=CARTESIAN_POINT('',(6.30925536341978E-19,0.091,0.08));
#232=CARTESIAN_POINT('',(0.00586545693352284,0.00848157211512272,0.00597969184395326));
#233=CARTESIAN_POINT('',(0.00587109346771411,0.0114777582032897,0.00572917921323355));
#234=CARTESIAN_POINT('',(0.00568136494645397,0.0174616802047795,0.00522886047517685));
#235=CARTESIAN_POINT('',(0.00532079474319426,0.0264344180800119,0.0044786453337475));
#236=CARTESIAN_POINT('',(0.0048398554183835,0.0354019388949726,0.00372886639336002));
#237=CARTESIAN_POINT('',(0.00425774005424624,0.0443658092208914,0.00297939267220342));
#238=CARTESIAN_POINT('',(0.00356747953525002,0.0533203274104487,0.00223070088788696));
#239=CARTESIAN_POINT('',(0.00288877330070846,0.0607760438104613,0.00160732467749657));
#240=CARTESIAN_POINT('',(0.00225140056557565,0.066728124675415,0.00110966819293195));
#241=CARTESIAN_POINT('',(0.00170360231673542,0.0711817733326434,0.000737296381373981));
#242=CARTESIAN_POINT('',(0.00116300454250636,0.0748808565863556,0.000428014163949741));
#243=CARTESIAN_POINT('',(0.000601908991075477,0.0778212544800202,0.000182166012340578));
#244=CARTESIAN_POINT('',(0.000252692176647258,0.0792813848570755,6.00837746918083E-5));
#245=CARTESIAN_POINT('',(1.01140895274236E-13,0.0799999999997091,0.));
#246=CARTESIAN_POINT('',(0.0042,0.0392,0.08));
#247=CARTESIAN_POINT('',(0.0042,0.0423634638802593,0.08));
#248=CARTESIAN_POINT('',(0.00359930482308855,0.0616406506140472,0.08));
#249=CARTESIAN_POINT('',(0.00121259010035246,0.0875119480308126,0.08));
#250=CARTESIAN_POINT('',(6.30925536341978E-19,0.091,0.08));
#251=CARTESIAN_POINT('',(0.,0.063,0.08));
#252=CARTESIAN_POINT('',(0.05,0.0414115499056244,0.0032263997842845));
#253=CARTESIAN_POINT('',(0.,0.032,0.00401330422100131));
#254=CARTESIAN_POINT('',(0.,0.034,0.00384608321179293));
#255=CARTESIAN_POINT('',(0.,0.032,0.015));
#256=CARTESIAN_POINT('',(0.,0.032,0.015));
#257=CARTESIAN_POINT('',(0.002,0.032,0.015));
#258=CARTESIAN_POINT('',(0.,0.017,0.015));
#259=MECHANICAL_DESIGN_GEOMETRIC_PRESENTATION_REPRESENTATION('',(#100),
#260);
#260=(
GEOMETRIC_REPRESENTATION_CONTEXT(3)
GLOBAL_UNCERTAINTY_ASSIGNED_CONTEXT((#261))
GLOBAL_UNIT_ASSIGNED_CONTEXT((#264,#263,#262))
REPRESENTATION_CONTEXT('Fin V2','TOP_LEVEL_ASSEMBLY_PART')
);
#261=UNCERTAINTY_MEASURE_WITH_UNIT(LENGTH_MEASURE(2.E-5),#264,
'DISTANCE_ACCURACY_VALUE','Maximum Tolerance applied to model');
#262=(
NAMED_UNIT(*)
SI_UNIT($,.STERADIAN.)
SOLID_ANGLE_UNIT()
);
#263=(
NAMED_UNIT(*)
PLANE_ANGLE_UNIT()
SI_UNIT($,.RADIAN.)
);
#264=(
LENGTH_UNIT()
NAMED_UNIT(*)
SI_UNIT($,.METRE.)
);
#265=PRODUCT_DEFINITION_SHAPE('','',#266);
#266=PRODUCT_DEFINITION('','',#268,#267);
#267=PRODUCT_DEFINITION_CONTEXT('',#274,'design');
#268=PRODUCT_DEFINITION_FORMATION_WITH_SPECIFIED_SOURCE('','',#270,
 .NOT_KNOWN.);
#269=PRODUCT_RELATED_PRODUCT_CATEGORY('','',(#270));
#270=PRODUCT('Fin V2','Fin V2','Fin V2',(#272));
#271=PRODUCT_CATEGORY('','');
#272=PRODUCT_CONTEXT('',#274,'mechanical');
#273=APPLICATION_PROTOCOL_DEFINITION('international standard',
'ap242_managed_model_based_3d_engineering',2020,#274);
#274=APPLICATION_CONTEXT('managed model based 3d engineering');
ENDSEC;
END-ISO-10303-21;
