ISO-10303-21;
HEADER;
/* Generated by software containing ST-Developer
 * from STEP Tools, Inc. (www.steptools.com) 
 */
/* OPTION: using custom renumber hook */

FILE_DESCRIPTION(
/* description */ ('STEP AP242 Edition 2',
'CAx-IF Rec.Pracs.---Representation and Presentation of Product Manufa
cturing Information (PMI)---4.0---2014-10-13',
'CAx-IF Rec.Pracs.---3D Tessellated Geometry---0.4---2014-09-14','2;1',
'CAx-IF Rec.Pracs.---User Defined Attributes---1.5---2016-08-15'),
/* implementation_level */ '2;1');

FILE_NAME(
/* name */ '74448072-91cd-44b0-986b-f78d1b76da4b',
/* time_stamp */ '2026-08-23T20:36:44Z',
/* author */ (''),
/* organization */ (''),
/* preprocessor_version */ 'ST-DEVELOPER v20',
/* originating_system */ 'ONSHAPE BY PTC INC, 1.219',
/* authorisation */ '  ');

FILE_SCHEMA (('AP242_MANAGED_MODEL_BASED_3D_ENGINEERING_MIM_LF { 1 0 10303 442 3 1 4 }'));
ENDSEC;

DATA;
#10=SHAPE_REPRESENTATION_RELATIONSHIP('','',#191,#11);
#11=ADVANCED_BREP_SHAPE_REPRESENTATION('',(#189),#325);
#12=CYLINDRICAL_SURFACE('',#207,0.011);
#13=CYLINDRICAL_SURFACE('',#208,0.00175);
#14=CYLINDRICAL_SURFACE('',#209,0.00175000000000002);
#15=CYLINDRICAL_SURFACE('',#210,0.00175000000000006);
#16=CYLINDRICAL_SURFACE('',#211,0.00175000000000008);
#17=CYLINDRICAL_SURFACE('',#212,0.005);
#18=CYLINDRICAL_SURFACE('',#216,0.004);
#19=CYLINDRICAL_SURFACE('',#218,0.005);
#20=ORIENTED_EDGE('',*,*,#52,.F.);
#21=ORIENTED_EDGE('',*,*,#53,.F.);
#22=ORIENTED_EDGE('',*,*,#54,.F.);
#23=ORIENTED_EDGE('',*,*,#55,.T.);
#24=ORIENTED_EDGE('',*,*,#56,.F.);
#25=ORIENTED_EDGE('',*,*,#57,.F.);
#26=ORIENTED_EDGE('',*,*,#58,.T.);
#27=ORIENTED_EDGE('',*,*,#59,.F.);
#28=ORIENTED_EDGE('',*,*,#60,.T.);
#29=ORIENTED_EDGE('',*,*,#61,.T.);
#30=ORIENTED_EDGE('',*,*,#62,.T.);
#31=ORIENTED_EDGE('',*,*,#63,.T.);
#32=ORIENTED_EDGE('',*,*,#55,.F.);
#33=ORIENTED_EDGE('',*,*,#59,.T.);
#34=ORIENTED_EDGE('',*,*,#54,.T.);
#35=ORIENTED_EDGE('',*,*,#60,.F.);
#36=ORIENTED_EDGE('',*,*,#56,.T.);
#37=ORIENTED_EDGE('',*,*,#61,.F.);
#38=ORIENTED_EDGE('',*,*,#53,.T.);
#39=ORIENTED_EDGE('',*,*,#62,.F.);
#40=ORIENTED_EDGE('',*,*,#57,.T.);
#41=ORIENTED_EDGE('',*,*,#63,.F.);
#42=ORIENTED_EDGE('',*,*,#64,.T.);
#43=ORIENTED_EDGE('',*,*,#58,.F.);
#44=ORIENTED_EDGE('',*,*,#65,.T.);
#45=ORIENTED_EDGE('',*,*,#64,.F.);
#46=ORIENTED_EDGE('',*,*,#65,.F.);
#47=ORIENTED_EDGE('',*,*,#66,.T.);
#48=ORIENTED_EDGE('',*,*,#52,.T.);
#49=ORIENTED_EDGE('',*,*,#67,.F.);
#50=ORIENTED_EDGE('',*,*,#67,.T.);
#51=ORIENTED_EDGE('',*,*,#66,.F.);
#52=EDGE_CURVE('',#68,#68,#84,.T.);
#53=EDGE_CURVE('',#69,#69,#85,.T.);
#54=EDGE_CURVE('',#70,#70,#86,.T.);
#55=EDGE_CURVE('',#71,#71,#87,.T.);
#56=EDGE_CURVE('',#72,#72,#88,.T.);
#57=EDGE_CURVE('',#73,#73,#89,.T.);
#58=EDGE_CURVE('',#74,#74,#90,.T.);
#59=EDGE_CURVE('',#75,#75,#91,.T.);
#60=EDGE_CURVE('',#76,#76,#92,.T.);
#61=EDGE_CURVE('',#77,#77,#93,.T.);
#62=EDGE_CURVE('',#78,#78,#94,.T.);
#63=EDGE_CURVE('',#79,#79,#95,.T.);
#64=EDGE_CURVE('',#80,#80,#96,.T.);
#65=EDGE_CURVE('',#81,#81,#97,.T.);
#66=EDGE_CURVE('',#82,#82,#98,.T.);
#67=EDGE_CURVE('',#83,#83,#99,.T.);
#68=VERTEX_POINT('',#282);
#69=VERTEX_POINT('',#284);
#70=VERTEX_POINT('',#286);
#71=VERTEX_POINT('',#288);
#72=VERTEX_POINT('',#290);
#73=VERTEX_POINT('',#292);
#74=VERTEX_POINT('',#295);
#75=VERTEX_POINT('',#297);
#76=VERTEX_POINT('',#299);
#77=VERTEX_POINT('',#301);
#78=VERTEX_POINT('',#303);
#79=VERTEX_POINT('',#305);
#80=VERTEX_POINT('',#313);
#81=VERTEX_POINT('',#316);
#82=VERTEX_POINT('',#319);
#83=VERTEX_POINT('',#322);
#84=CIRCLE('',#194,0.005);
#85=CIRCLE('',#195,0.00175000000000006);
#86=CIRCLE('',#196,0.00175);
#87=CIRCLE('',#197,0.011);
#88=CIRCLE('',#198,0.00175000000000002);
#89=CIRCLE('',#199,0.00175000000000008);
#90=CIRCLE('',#201,0.005);
#91=CIRCLE('',#202,0.011);
#92=CIRCLE('',#203,0.00175);
#93=CIRCLE('',#204,0.00175000000000002);
#94=CIRCLE('',#205,0.00175000000000006);
#95=CIRCLE('',#206,0.00175000000000008);
#96=CIRCLE('',#213,0.005);
#97=CIRCLE('',#215,0.004);
#98=CIRCLE('',#217,0.004);
#99=CIRCLE('',#219,0.005);
#100=EDGE_LOOP('',(#20));
#101=EDGE_LOOP('',(#21));
#102=EDGE_LOOP('',(#22));
#103=EDGE_LOOP('',(#23));
#104=EDGE_LOOP('',(#24));
#105=EDGE_LOOP('',(#25));
#106=EDGE_LOOP('',(#26));
#107=EDGE_LOOP('',(#27));
#108=EDGE_LOOP('',(#28));
#109=EDGE_LOOP('',(#29));
#110=EDGE_LOOP('',(#30));
#111=EDGE_LOOP('',(#31));
#112=EDGE_LOOP('',(#32));
#113=EDGE_LOOP('',(#33));
#114=EDGE_LOOP('',(#34));
#115=EDGE_LOOP('',(#35));
#116=EDGE_LOOP('',(#36));
#117=EDGE_LOOP('',(#37));
#118=EDGE_LOOP('',(#38));
#119=EDGE_LOOP('',(#39));
#120=EDGE_LOOP('',(#40));
#121=EDGE_LOOP('',(#41));
#122=EDGE_LOOP('',(#42));
#123=EDGE_LOOP('',(#43));
#124=EDGE_LOOP('',(#44));
#125=EDGE_LOOP('',(#45));
#126=EDGE_LOOP('',(#46));
#127=EDGE_LOOP('',(#47));
#128=EDGE_LOOP('',(#48));
#129=EDGE_LOOP('',(#49));
#130=EDGE_LOOP('',(#50));
#131=EDGE_LOOP('',(#51));
#132=FACE_BOUND('',#100,.T.);
#133=FACE_BOUND('',#101,.T.);
#134=FACE_BOUND('',#102,.T.);
#135=FACE_BOUND('',#103,.T.);
#136=FACE_BOUND('',#104,.T.);
#137=FACE_BOUND('',#105,.T.);
#138=FACE_BOUND('',#106,.T.);
#139=FACE_BOUND('',#107,.T.);
#140=FACE_BOUND('',#108,.T.);
#141=FACE_BOUND('',#109,.T.);
#142=FACE_BOUND('',#110,.T.);
#143=FACE_BOUND('',#111,.T.);
#144=FACE_BOUND('',#112,.T.);
#145=FACE_BOUND('',#113,.T.);
#146=FACE_BOUND('',#114,.T.);
#147=FACE_BOUND('',#115,.T.);
#148=FACE_BOUND('',#116,.T.);
#149=FACE_BOUND('',#117,.T.);
#150=FACE_BOUND('',#118,.T.);
#151=FACE_BOUND('',#119,.T.);
#152=FACE_BOUND('',#120,.T.);
#153=FACE_BOUND('',#121,.T.);
#154=FACE_BOUND('',#122,.T.);
#155=FACE_BOUND('',#123,.T.);
#156=FACE_BOUND('',#124,.T.);
#157=FACE_BOUND('',#125,.T.);
#158=FACE_BOUND('',#126,.T.);
#159=FACE_BOUND('',#127,.T.);
#160=FACE_BOUND('',#128,.T.);
#161=FACE_BOUND('',#129,.T.);
#162=FACE_BOUND('',#130,.T.);
#163=FACE_BOUND('',#131,.T.);
#164=PLANE('',#193);
#165=PLANE('',#200);
#166=PLANE('',#214);
#167=PLANE('',#220);
#168=ADVANCED_FACE('',(#132,#133,#134,#135,#136,#137),#164,.T.);
#169=ADVANCED_FACE('',(#138,#139,#140,#141,#142,#143),#165,.F.);
#170=ADVANCED_FACE('',(#144,#145),#12,.T.);
#171=ADVANCED_FACE('',(#146,#147),#13,.F.);
#172=ADVANCED_FACE('',(#148,#149),#14,.F.);
#173=ADVANCED_FACE('',(#150,#151),#15,.F.);
#174=ADVANCED_FACE('',(#152,#153),#16,.F.);
#175=ADVANCED_FACE('',(#154,#155),#17,.T.);
#176=ADVANCED_FACE('',(#156,#157),#166,.F.);
#177=ADVANCED_FACE('',(#158,#159),#18,.F.);
#178=ADVANCED_FACE('',(#160,#161),#19,.T.);
#179=ADVANCED_FACE('',(#162,#163),#167,.T.);
#180=CLOSED_SHELL('',(#168,#169,#170,#171,#172,#173,#174,#175,#176,#177,
#178,#179));
#181=STYLED_ITEM('',(#182),#189);
#182=PRESENTATION_STYLE_ASSIGNMENT((#183));
#183=SURFACE_STYLE_USAGE(.BOTH.,#184);
#184=SURFACE_SIDE_STYLE('',(#185));
#185=SURFACE_STYLE_FILL_AREA(#186);
#186=FILL_AREA_STYLE('',(#187));
#187=FILL_AREA_STYLE_COLOUR('',#188);
#188=COLOUR_RGB('',1.,0.894117647058824,0.341176470588236);
#189=MANIFOLD_SOLID_BREP('Lead Nut',#180);
#190=SHAPE_DEFINITION_REPRESENTATION(#330,#191);
#191=SHAPE_REPRESENTATION('Lead Nut',(#192),#325);
#192=AXIS2_PLACEMENT_3D('',#279,#221,#222);
#193=AXIS2_PLACEMENT_3D('',#280,#223,#224);
#194=AXIS2_PLACEMENT_3D('',#281,#225,#226);
#195=AXIS2_PLACEMENT_3D('',#283,#227,#228);
#196=AXIS2_PLACEMENT_3D('',#285,#229,#230);
#197=AXIS2_PLACEMENT_3D('',#287,#231,#232);
#198=AXIS2_PLACEMENT_3D('',#289,#233,#234);
#199=AXIS2_PLACEMENT_3D('',#291,#235,#236);
#200=AXIS2_PLACEMENT_3D('',#293,#237,#238);
#201=AXIS2_PLACEMENT_3D('',#294,#239,#240);
#202=AXIS2_PLACEMENT_3D('',#296,#241,#242);
#203=AXIS2_PLACEMENT_3D('',#298,#243,#244);
#204=AXIS2_PLACEMENT_3D('',#300,#245,#246);
#205=AXIS2_PLACEMENT_3D('',#302,#247,#248);
#206=AXIS2_PLACEMENT_3D('',#304,#249,#250);
#207=AXIS2_PLACEMENT_3D('',#306,#251,#252);
#208=AXIS2_PLACEMENT_3D('',#307,#253,#254);
#209=AXIS2_PLACEMENT_3D('',#308,#255,#256);
#210=AXIS2_PLACEMENT_3D('',#309,#257,#258);
#211=AXIS2_PLACEMENT_3D('',#310,#259,#260);
#212=AXIS2_PLACEMENT_3D('',#311,#261,#262);
#213=AXIS2_PLACEMENT_3D('',#312,#263,#264);
#214=AXIS2_PLACEMENT_3D('',#314,#265,#266);
#215=AXIS2_PLACEMENT_3D('',#315,#267,#268);
#216=AXIS2_PLACEMENT_3D('',#317,#269,#270);
#217=AXIS2_PLACEMENT_3D('',#318,#271,#272);
#218=AXIS2_PLACEMENT_3D('',#320,#273,#274);
#219=AXIS2_PLACEMENT_3D('',#321,#275,#276);
#220=AXIS2_PLACEMENT_3D('',#323,#277,#278);
#221=DIRECTION('',(0.,0.,1.));
#222=DIRECTION('',(1.,0.,0.));
#223=DIRECTION('',(0.,0.,1.));
#224=DIRECTION('',(1.,0.,0.));
#225=DIRECTION('',(0.,0.,1.));
#226=DIRECTION('',(1.,0.,0.));
#227=DIRECTION('',(0.,0.,1.));
#228=DIRECTION('',(1.,0.,0.));
#229=DIRECTION('',(0.,0.,1.));
#230=DIRECTION('',(1.,0.,0.));
#231=DIRECTION('',(0.,0.,1.));
#232=DIRECTION('',(1.,0.,0.));
#233=DIRECTION('',(0.,0.,1.));
#234=DIRECTION('',(1.,0.,0.));
#235=DIRECTION('',(0.,0.,1.));
#236=DIRECTION('',(1.,0.,0.));
#237=DIRECTION('',(0.,0.,1.));
#238=DIRECTION('',(1.,0.,0.));
#239=DIRECTION('',(0.,0.,1.));
#240=DIRECTION('',(1.,0.,0.));
#241=DIRECTION('',(0.,0.,1.));
#242=DIRECTION('',(1.,0.,0.));
#243=DIRECTION('',(0.,0.,1.));
#244=DIRECTION('',(1.,0.,0.));
#245=DIRECTION('',(0.,0.,1.));
#246=DIRECTION('',(1.,0.,0.));
#247=DIRECTION('',(0.,0.,1.));
#248=DIRECTION('',(1.,0.,0.));
#249=DIRECTION('',(0.,0.,1.));
#250=DIRECTION('',(1.,0.,0.));
#251=DIRECTION('',(0.,0.,-1.));
#252=DIRECTION('',(-1.,0.,0.));
#253=DIRECTION('',(0.,0.,-1.));
#254=DIRECTION('',(-1.,0.,0.));
#255=DIRECTION('',(0.,0.,-1.));
#256=DIRECTION('',(-1.,0.,0.));
#257=DIRECTION('',(0.,0.,-1.));
#258=DIRECTION('',(-1.,0.,0.));
#259=DIRECTION('',(0.,0.,-1.));
#260=DIRECTION('',(-1.,0.,0.));
#261=DIRECTION('',(0.,0.,1.));
#262=DIRECTION('',(1.,0.,0.));
#263=DIRECTION('',(0.,0.,1.));
#264=DIRECTION('',(1.,0.,0.));
#265=DIRECTION('',(0.,0.,1.));
#266=DIRECTION('',(1.,0.,0.));
#267=DIRECTION('',(0.,0.,1.));
#268=DIRECTION('',(1.,0.,0.));
#269=DIRECTION('',(0.,0.,1.));
#270=DIRECTION('',(1.,0.,0.));
#271=DIRECTION('',(0.,0.,1.));
#272=DIRECTION('',(1.,0.,0.));
#273=DIRECTION('',(0.,0.,1.));
#274=DIRECTION('',(1.,0.,0.));
#275=DIRECTION('',(0.,0.,1.));
#276=DIRECTION('',(1.,0.,0.));
#277=DIRECTION('',(0.,0.,1.));
#278=DIRECTION('',(1.,0.,0.));
#279=CARTESIAN_POINT('',(0.,0.,0.));
#280=CARTESIAN_POINT('',(0.,0.,0.0036));
#281=CARTESIAN_POINT('',(0.,0.,0.0036));
#282=CARTESIAN_POINT('',(0.005,0.,0.0036));
#283=CARTESIAN_POINT('',(0.,-0.008,0.0036));
#284=CARTESIAN_POINT('',(0.00175000000000006,-0.008,0.0036));
#285=CARTESIAN_POINT('',(0.,0.008,0.0036));
#286=CARTESIAN_POINT('',(0.00175,0.008,0.0036));
#287=CARTESIAN_POINT('',(0.,0.,0.0036));
#288=CARTESIAN_POINT('',(0.011,0.,0.0036));
#289=CARTESIAN_POINT('',(0.008,-6.36019104834441E-30,0.0036));
#290=CARTESIAN_POINT('',(0.00975000000000003,-6.36019104834441E-30,0.0036));
#291=CARTESIAN_POINT('',(-0.008,-9.79717439324241E-19,0.0036));
#292=CARTESIAN_POINT('',(-0.00624999999999992,-9.79717439324241E-19,0.0036));
#293=CARTESIAN_POINT('',(0.,0.,0.));
#294=CARTESIAN_POINT('',(0.,0.,0.));
#295=CARTESIAN_POINT('',(0.005,0.,0.));
#296=CARTESIAN_POINT('',(0.,0.,0.));
#297=CARTESIAN_POINT('',(0.011,0.,0.));
#298=CARTESIAN_POINT('',(0.,0.008,0.));
#299=CARTESIAN_POINT('',(0.00175,0.008,0.));
#300=CARTESIAN_POINT('',(0.008,-6.36019104834441E-30,0.));
#301=CARTESIAN_POINT('',(0.00975000000000003,-6.36019104834441E-30,0.));
#302=CARTESIAN_POINT('',(0.,-0.008,0.));
#303=CARTESIAN_POINT('',(0.00175000000000006,-0.008,0.));
#304=CARTESIAN_POINT('',(-0.008,-9.79717439324241E-19,0.));
#305=CARTESIAN_POINT('',(-0.00624999999999992,-9.79717439324241E-19,0.));
#306=CARTESIAN_POINT('',(0.,0.,0.0036));
#307=CARTESIAN_POINT('',(0.,0.008,0.0036));
#308=CARTESIAN_POINT('',(0.008,-6.36019104834441E-30,0.0036));
#309=CARTESIAN_POINT('',(0.,-0.008,0.0036));
#310=CARTESIAN_POINT('',(-0.008,-9.79717439324241E-19,0.0036));
#311=CARTESIAN_POINT('',(0.,0.,-0.0015));
#312=CARTESIAN_POINT('',(0.,0.,-0.0015));
#313=CARTESIAN_POINT('',(0.005,0.,-0.0015));
#314=CARTESIAN_POINT('',(0.,0.,-0.0015));
#315=CARTESIAN_POINT('',(0.,0.,-0.0015));
#316=CARTESIAN_POINT('',(0.004,0.,-0.0015));
#317=CARTESIAN_POINT('',(0.,0.,-0.0015));
#318=CARTESIAN_POINT('',(0.,0.,0.0136));
#319=CARTESIAN_POINT('',(0.004,0.,0.0136));
#320=CARTESIAN_POINT('',(0.,0.,-0.0015));
#321=CARTESIAN_POINT('',(0.,0.,0.0136));
#322=CARTESIAN_POINT('',(0.005,0.,0.0136));
#323=CARTESIAN_POINT('',(0.,0.,0.0136));
#324=MECHANICAL_DESIGN_GEOMETRIC_PRESENTATION_REPRESENTATION('',(#181),
#325);
#325=(
GEOMETRIC_REPRESENTATION_CONTEXT(3)
GLOBAL_UNCERTAINTY_ASSIGNED_CONTEXT((#326))
GLOBAL_UNIT_ASSIGNED_CONTEXT((#329,#328,#327))
REPRESENTATION_CONTEXT('Lead Nut','TOP_LEVEL_ASSEMBLY_PART')
);
#326=UNCERTAINTY_MEASURE_WITH_UNIT(LENGTH_MEASURE(1.E-8),#329,
'DISTANCE_ACCURACY_VALUE','Maximum Tolerance applied to model');
#327=(
NAMED_UNIT(*)
SI_UNIT($,.STERADIAN.)
SOLID_ANGLE_UNIT()
);
#328=(
NAMED_UNIT(*)
PLANE_ANGLE_UNIT()
SI_UNIT($,.RADIAN.)
);
#329=(
LENGTH_UNIT()
NAMED_UNIT(*)
SI_UNIT($,.METRE.)
);
#330=PRODUCT_DEFINITION_SHAPE('','',#331);
#331=PRODUCT_DEFINITION('','',#333,#332);
#332=PRODUCT_DEFINITION_CONTEXT('',#339,'design');
#333=PRODUCT_DEFINITION_FORMATION_WITH_SPECIFIED_SOURCE('','',#335,
 .NOT_KNOWN.);
#334=PRODUCT_RELATED_PRODUCT_CATEGORY('','',(#335));
#335=PRODUCT('Lead Nut','Lead Nut','Lead Nut',(#337));
#336=PRODUCT_CATEGORY('','');
#337=PRODUCT_CONTEXT('',#339,'mechanical');
#338=APPLICATION_PROTOCOL_DEFINITION('international standard',
'ap242_managed_model_based_3d_engineering',2020,#339);
#339=APPLICATION_CONTEXT('managed model based 3d engineering');
ENDSEC;
END-ISO-10303-21;
